<?xml version="1.0" encoding="utf-8" standalone="no"?>
<!DOCTYPE svg PUBLIC "-//W3C//DTD SVG 1.1//EN"
  "http://www.w3.org/Graphics/SVG/1.1/DTD/svg11.dtd">
<svg height="345.6pt" version="1.1" viewBox="0 0 460.8 345.6" width="460.8pt" xmlns="http://www.w3.org/2000/svg" xmlns:xlink="http://www.w3.org/1999/xlink">
 <metadata>
  <rdf:RDF xmlns:cc="http://creativecommons.org/ns#" xmlns:dc="http://purl.org/dc/elements/1.1/" xmlns:rdf="http://www.w3.org/1999/02/22-rdf-syntax-ns#">
   <cc:Work>
    <dc:type rdf:resource="http://purl.org/dc/dcmitype/StillImage"/>
    <dc:date>2021-10-25T07:39:12.948869</dc:date>
    <dc:format>image/svg+xml</dc:format>
    <dc:creator>
     <cc:Agent>
      <dc:title>Matplotlib v3.4.2, https://matplotlib.org/</dc:title>
     </cc:Agent>
    </dc:creator>
   </cc:Work>
  </rdf:RDF>
 </metadata>
 <defs>
  <style type="text/css">*{stroke-linecap:butt;stroke-linejoin:round;}</style>
 </defs>
 <g id="figure_1">
  <g id="patch_1">
   <path d="M 0 345.6 
L 460.8 345.6 
L 460.8 0 
L 0 0 
z
" style="fill:#ffffff;"/>
  </g>
  <g id="axes_1">
   <g id="patch_2">
    <path d="M 63.916685 293.272 
L 450 293.272 
L 450 10.8 
L 63.916685 10.8 
z
" style="fill:#ffffff;"/>
   </g>
   <g id="patch_3">
    <path clip-path="url(#p683ae94d68)" d="M 81.465926 139456.08683 
L 84.975775 139456.08683 
L 84.975775 23.639636 
L 81.465926 23.639636 
z
" style="fill:#1f77b4;"/>
   </g>
   <g id="patch_4">
    <path clip-path="url(#p683ae94d68)" d="M 84.975775 139456.08683 
L 88.485623 139456.08683 
L 88.485623 30.975077 
L 84.975775 30.975077 
z
" style="fill:#1f77b4;"/>
   </g>
   <g id="patch_5">
    <path clip-path="url(#p683ae94d68)" d="M 88.485623 139456.08683 
L 91.995471 139456.08683 
L 91.995471 36.057331 
L 88.485623 36.057331 
z
" style="fill:#1f77b4;"/>
   </g>
   <g id="patch_6">
    <path clip-path="url(#p683ae94d68)" d="M 91.995471 139456.08683 
L 95.50532 139456.08683 
L 95.50532 39.325328 
L 91.995471 39.325328 
z
" style="fill:#1f77b4;"/>
   </g>
   <g id="patch_7">
    <path clip-path="url(#p683ae94d68)" d="M 95.50532 139456.08683 
L 99.015168 139456.08683 
L 99.015168 36.057331 
L 95.50532 36.057331 
z
" style="fill:#1f77b4;"/>
   </g>
   <g id="patch_8">
    <path clip-path="url(#p683ae94d68)" d="M 99.015168 139456.08683 
L 102.525016 139456.08683 
L 102.525016 41.606475 
L 99.015168 41.606475 
z
" style="fill:#1f77b4;"/>
   </g>
   <g id="patch_9">
    <path clip-path="url(#p683ae94d68)" d="M 102.525016 139456.08683 
L 106.034865 139456.08683 
L 106.034865 50.34543 
L 102.525016 50.34543 
z
" style="fill:#1f77b4;"/>
   </g>
   <g id="patch_10">
    <path clip-path="url(#p683ae94d68)" d="M 106.034865 139456.08683 
L 109.544713 139456.08683 
L 109.544713 54.515581 
L 106.034865 54.515581 
z
" style="fill:#1f77b4;"/>
   </g>
   <g id="patch_11">
    <path clip-path="url(#p683ae94d68)" d="M 109.544713 139456.08683 
L 113.054561 139456.08683 
L 113.054561 74.853046 
L 109.544713 74.853046 
z
" style="fill:#1f77b4;"/>
   </g>
   <g id="patch_12">
    <path clip-path="url(#p683ae94d68)" d="M 113.054561 139456.08683 
L 116.56441 139456.08683 
L 116.56441 76.902165 
L 113.054561 76.902165 
z
" style="fill:#1f77b4;"/>
   </g>
   <g id="patch_13">
    <path clip-path="url(#p683ae94d68)" d="M 116.56441 139456.08683 
L 120.074258 139456.08683 
L 120.074258 76.902165 
L 116.56441 76.902165 
z
" style="fill:#1f77b4;"/>
   </g>
   <g id="patch_14">
    <path clip-path="url(#p683ae94d68)" d="M 120.074258 139456.08683 
L 123.584106 139456.08683 
L 123.584106 105.728991 
L 120.074258 105.728991 
z
" style="fill:#1f77b4;"/>
   </g>
   <g id="patch_15">
    <path clip-path="url(#p683ae94d68)" d="M 123.584106 139456.08683 
L 127.093955 139456.08683 
L 127.093955 105.728991 
L 123.584106 105.728991 
z
" style="fill:#1f77b4;"/>
   </g>
   <g id="patch_16">
    <path clip-path="url(#p683ae94d68)" d="M 127.093955 139456.08683 
L 130.603803 139456.08683 
L 130.603803 116.749093 
L 127.093955 116.749093 
z
" style="fill:#1f77b4;"/>
   </g>
   <g id="patch_17">
    <path clip-path="url(#p683ae94d68)" d="M 130.603803 139456.08683 
L 134.113651 139456.08683 
L 134.113651 135.495855 
L 130.603803 135.495855 
z
" style="fill:#1f77b4;"/>
   </g>
   <g id="patch_18">
    <path clip-path="url(#p683ae94d68)" d="M 134.113651 139456.08683 
L 137.623499 139456.08683 
L 137.623499 90.913001 
L 134.113651 90.913001 
z
" style="fill:#1f77b4;"/>
   </g>
   <g id="patch_19">
    <path clip-path="url(#p683ae94d68)" d="M 137.623499 139456.08683 
L 141.133348 139456.08683 
L 141.133348 130.236607 
L 137.623499 130.236607 
z
" style="fill:#1f77b4;"/>
   </g>
   <g id="patch_20">
    <path clip-path="url(#p683ae94d68)" d="M 141.133348 139456.08683 
L 144.643196 139456.08683 
L 144.643196 125.398569 
L 141.133348 125.398569 
z
" style="fill:#1f77b4;"/>
   </g>
   <g id="patch_21">
    <path clip-path="url(#p683ae94d68)" d="M 144.643196 139456.08683 
L 148.153044 139456.08683 
L 148.153044 90.913001 
L 144.643196 90.913001 
z
" style="fill:#1f77b4;"/>
   </g>
   <g id="patch_22">
    <path clip-path="url(#p683ae94d68)" d="M 148.153044 139456.08683 
L 151.662893 139456.08683 
L 151.662893 147.625038 
L 148.153044 147.625038 
z
" style="fill:#1f77b4;"/>
   </g>
   <g id="patch_23">
    <path clip-path="url(#p683ae94d68)" d="M 151.662893 139456.08683 
L 155.172741 139456.08683 
L 155.172741 238.536317 
L 151.662893 238.536317 
z
" style="fill:#1f77b4;"/>
   </g>
   <g id="patch_24">
    <path clip-path="url(#p683ae94d68)" d="M 155.172741 139456.08683 
L 158.682589 139456.08683 
L 158.682589 147.625038 
L 155.172741 147.625038 
z
" style="fill:#1f77b4;"/>
   </g>
   <g id="patch_25">
    <path clip-path="url(#p683ae94d68)" d="M 158.682589 139456.08683 
L 162.192438 139456.08683 
L 162.192438 112.848177 
L 158.682589 112.848177 
z
" style="fill:#1f77b4;"/>
   </g>
   <g id="patch_26">
    <path clip-path="url(#p683ae94d68)" d="M 162.192438 139456.08683 
L 165.702286 139456.08683 
L 165.702286 147.625038 
L 162.192438 147.625038 
z
" style="fill:#1f77b4;"/>
   </g>
   <g id="patch_27">
    <path clip-path="url(#p683ae94d68)" d="M 165.702286 139456.08683 
L 169.212134 139456.08683 
L 169.212134 141.256709 
L 165.702286 141.256709 
z
" style="fill:#1f77b4;"/>
   </g>
   <g id="patch_28">
    <path clip-path="url(#p683ae94d68)" d="M 169.212134 139456.08683 
L 172.721983 139456.08683 
L 172.721983 162.815291 
L 169.212134 162.815291 
z
" style="fill:#1f77b4;"/>
   </g>
   <g id="patch_29">
    <path clip-path="url(#p683ae94d68)" d="M 172.721983 139456.08683 
L 176.231831 139456.08683 
L 176.231831 183.152756 
L 172.721983 183.152756 
z
" style="fill:#1f77b4;"/>
   </g>
   <g id="patch_30">
    <path clip-path="url(#p683ae94d68)" d="M 176.231831 139456.08683 
L 179.741679 139456.08683 
L 179.741679 162.815291 
L 176.231831 162.815291 
z
" style="fill:#1f77b4;"/>
   </g>
   <g id="patch_31">
    <path clip-path="url(#p683ae94d68)" d="M 179.741679 139456.08683 
L 183.251528 139456.08683 
L 183.251528 162.815291 
L 179.741679 162.815291 
z
" style="fill:#1f77b4;"/>
   </g>
   <g id="patch_32">
    <path clip-path="url(#p683ae94d68)" d="M 183.251528 139456.08683 
L 186.761376 139456.08683 
L 186.761376 183.152756 
L 183.251528 183.152756 
z
" style="fill:#1f77b4;"/>
   </g>
   <g id="patch_33">
    <path clip-path="url(#p683ae94d68)" d="M 186.761376 139456.08683 
L 190.271224 139456.08683 
L 190.271224 139456.08683 
L 186.761376 139456.08683 
z
" style="fill:#1f77b4;"/>
   </g>
   <g id="patch_34">
    <path clip-path="url(#p683ae94d68)" d="M 190.271224 139456.08683 
L 193.781073 139456.08683 
L 193.781073 196.64027 
L 190.271224 196.64027 
z
" style="fill:#1f77b4;"/>
   </g>
   <g id="patch_35">
    <path clip-path="url(#p683ae94d68)" d="M 193.781073 139456.08683 
L 197.290921 139456.08683 
L 197.290921 238.536317 
L 193.781073 238.536317 
z
" style="fill:#1f77b4;"/>
   </g>
   <g id="patch_36">
    <path clip-path="url(#p683ae94d68)" d="M 197.290921 139456.08683 
L 200.800769 139456.08683 
L 200.800769 238.536317 
L 197.290921 238.536317 
z
" style="fill:#1f77b4;"/>
   </g>
   <g id="patch_37">
    <path clip-path="url(#p683ae94d68)" d="M 200.800769 139456.08683 
L 204.310618 139456.08683 
L 204.310618 172.132654 
L 200.800769 172.132654 
z
" style="fill:#1f77b4;"/>
   </g>
   <g id="patch_38">
    <path clip-path="url(#p683ae94d68)" d="M 204.310618 139456.08683 
L 207.820466 139456.08683 
L 207.820466 238.536317 
L 204.310618 238.536317 
z
" style="fill:#1f77b4;"/>
   </g>
   <g id="patch_39">
    <path clip-path="url(#p683ae94d68)" d="M 207.820466 139456.08683 
L 211.330314 139456.08683 
L 211.330314 139456.08683 
L 207.820466 139456.08683 
z
" style="fill:#1f77b4;"/>
   </g>
   <g id="patch_40">
    <path clip-path="url(#p683ae94d68)" d="M 211.330314 139456.08683 
L 214.840163 139456.08683 
L 214.840163 280.432364 
L 211.330314 280.432364 
z
" style="fill:#1f77b4;"/>
   </g>
   <g id="patch_41">
    <path clip-path="url(#p683ae94d68)" d="M 214.840163 139456.08683 
L 218.350011 139456.08683 
L 218.350011 238.536317 
L 214.840163 238.536317 
z
" style="fill:#1f77b4;"/>
   </g>
   <g id="patch_42">
    <path clip-path="url(#p683ae94d68)" d="M 218.350011 139456.08683 
L 221.859859 139456.08683 
L 221.859859 139456.08683 
L 218.350011 139456.08683 
z
" style="fill:#1f77b4;"/>
   </g>
   <g id="patch_43">
    <path clip-path="url(#p683ae94d68)" d="M 221.859859 139456.08683 
L 225.369708 139456.08683 
L 225.369708 214.028701 
L 221.859859 214.028701 
z
" style="fill:#1f77b4;"/>
   </g>
   <g id="patch_44">
    <path clip-path="url(#p683ae94d68)" d="M 225.369708 139456.08683 
L 228.879556 139456.08683 
L 228.879556 214.028701 
L 225.369708 214.028701 
z
" style="fill:#1f77b4;"/>
   </g>
   <g id="patch_45">
    <path clip-path="url(#p683ae94d68)" d="M 228.879556 139456.08683 
L 232.389404 139456.08683 
L 232.389404 238.536317 
L 228.879556 238.536317 
z
" style="fill:#1f77b4;"/>
   </g>
   <g id="patch_46">
    <path clip-path="url(#p683ae94d68)" d="M 232.389404 139456.08683 
L 235.899252 139456.08683 
L 235.899252 214.028701 
L 232.389404 214.028701 
z
" style="fill:#1f77b4;"/>
   </g>
   <g id="patch_47">
    <path clip-path="url(#p683ae94d68)" d="M 235.899252 139456.08683 
L 239.409101 139456.08683 
L 239.409101 238.536317 
L 235.899252 238.536317 
z
" style="fill:#1f77b4;"/>
   </g>
   <g id="patch_48">
    <path clip-path="url(#p683ae94d68)" d="M 239.409101 139456.08683 
L 242.918949 139456.08683 
L 242.918949 214.028701 
L 239.409101 214.028701 
z
" style="fill:#1f77b4;"/>
   </g>
   <g id="patch_49">
    <path clip-path="url(#p683ae94d68)" d="M 242.918949 139456.08683 
L 246.428797 139456.08683 
L 246.428797 139456.08683 
L 242.918949 139456.08683 
z
" style="fill:#1f77b4;"/>
   </g>
   <g id="patch_50">
    <path clip-path="url(#p683ae94d68)" d="M 246.428797 139456.08683 
L 249.938646 139456.08683 
L 249.938646 280.432364 
L 246.428797 280.432364 
z
" style="fill:#1f77b4;"/>
   </g>
   <g id="patch_51">
    <path clip-path="url(#p683ae94d68)" d="M 249.938646 139456.08683 
L 253.448494 139456.08683 
L 253.448494 280.432364 
L 249.938646 280.432364 
z
" style="fill:#1f77b4;"/>
   </g>
   <g id="patch_52">
    <path clip-path="url(#p683ae94d68)" d="M 253.448494 139456.08683 
L 256.958342 139456.08683 
L 256.958342 280.432364 
L 253.448494 280.432364 
z
" style="fill:#1f77b4;"/>
   </g>
   <g id="patch_53">
    <path clip-path="url(#p683ae94d68)" d="M 256.958342 139456.08683 
L 260.468191 139456.08683 
L 260.468191 139456.08683 
L 256.958342 139456.08683 
z
" style="fill:#1f77b4;"/>
   </g>
   <g id="patch_54">
    <path clip-path="url(#p683ae94d68)" d="M 260.468191 139456.08683 
L 263.978039 139456.08683 
L 263.978039 280.432364 
L 260.468191 280.432364 
z
" style="fill:#1f77b4;"/>
   </g>
   <g id="patch_55">
    <path clip-path="url(#p683ae94d68)" d="M 263.978039 139456.08683 
L 267.487887 139456.08683 
L 267.487887 139456.08683 
L 263.978039 139456.08683 
z
" style="fill:#1f77b4;"/>
   </g>
   <g id="patch_56">
    <path clip-path="url(#p683ae94d68)" d="M 267.487887 139456.08683 
L 270.997736 139456.08683 
L 270.997736 238.536317 
L 267.487887 238.536317 
z
" style="fill:#1f77b4;"/>
   </g>
   <g id="patch_57">
    <path clip-path="url(#p683ae94d68)" d="M 270.997736 139456.08683 
L 274.507584 139456.08683 
L 274.507584 280.432364 
L 270.997736 280.432364 
z
" style="fill:#1f77b4;"/>
   </g>
   <g id="patch_58">
    <path clip-path="url(#p683ae94d68)" d="M 274.507584 139456.08683 
L 278.017432 139456.08683 
L 278.017432 139456.08683 
L 274.507584 139456.08683 
z
" style="fill:#1f77b4;"/>
   </g>
   <g id="patch_59">
    <path clip-path="url(#p683ae94d68)" d="M 278.017432 139456.08683 
L 281.527281 139456.08683 
L 281.527281 139456.08683 
L 278.017432 139456.08683 
z
" style="fill:#1f77b4;"/>
   </g>
   <g id="patch_60">
    <path clip-path="url(#p683ae94d68)" d="M 281.527281 139456.08683 
L 285.037129 139456.08683 
L 285.037129 139456.08683 
L 281.527281 139456.08683 
z
" style="fill:#1f77b4;"/>
   </g>
   <g id="patch_61">
    <path clip-path="url(#p683ae94d68)" d="M 285.037129 139456.08683 
L 288.546977 139456.08683 
L 288.546977 139456.08683 
L 285.037129 139456.08683 
z
" style="fill:#1f77b4;"/>
   </g>
   <g id="patch_62">
    <path clip-path="url(#p683ae94d68)" d="M 288.546977 139456.08683 
L 292.056826 139456.08683 
L 292.056826 139456.08683 
L 288.546977 139456.08683 
z
" style="fill:#1f77b4;"/>
   </g>
   <g id="patch_63">
    <path clip-path="url(#p683ae94d68)" d="M 292.056826 139456.08683 
L 295.566674 139456.08683 
L 295.566674 139456.08683 
L 292.056826 139456.08683 
z
" style="fill:#1f77b4;"/>
   </g>
   <g id="patch_64">
    <path clip-path="url(#p683ae94d68)" d="M 295.566674 139456.08683 
L 299.076522 139456.08683 
L 299.076522 280.432364 
L 295.566674 280.432364 
z
" style="fill:#1f77b4;"/>
   </g>
   <g id="patch_65">
    <path clip-path="url(#p683ae94d68)" d="M 299.076522 139456.08683 
L 302.586371 139456.08683 
L 302.586371 280.432364 
L 299.076522 280.432364 
z
" style="fill:#1f77b4;"/>
   </g>
   <g id="patch_66">
    <path clip-path="url(#p683ae94d68)" d="M 302.586371 139456.08683 
L 306.096219 139456.08683 
L 306.096219 139456.08683 
L 302.586371 139456.08683 
z
" style="fill:#1f77b4;"/>
   </g>
   <g id="patch_67">
    <path clip-path="url(#p683ae94d68)" d="M 306.096219 139456.08683 
L 309.606067 139456.08683 
L 309.606067 139456.08683 
L 306.096219 139456.08683 
z
" style="fill:#1f77b4;"/>
   </g>
   <g id="patch_68">
    <path clip-path="url(#p683ae94d68)" d="M 309.606067 139456.08683 
L 313.115916 139456.08683 
L 313.115916 139456.08683 
L 309.606067 139456.08683 
z
" style="fill:#1f77b4;"/>
   </g>
   <g id="patch_69">
    <path clip-path="url(#p683ae94d68)" d="M 313.115916 139456.08683 
L 316.625764 139456.08683 
L 316.625764 139456.08683 
L 313.115916 139456.08683 
z
" style="fill:#1f77b4;"/>
   </g>
   <g id="patch_70">
    <path clip-path="url(#p683ae94d68)" d="M 316.625764 139456.08683 
L 320.135612 139456.08683 
L 320.135612 139456.08683 
L 316.625764 139456.08683 
z
" style="fill:#1f77b4;"/>
   </g>
   <g id="patch_71">
    <path clip-path="url(#p683ae94d68)" d="M 320.135612 139456.08683 
L 323.64546 139456.08683 
L 323.64546 139456.08683 
L 320.135612 139456.08683 
z
" style="fill:#1f77b4;"/>
   </g>
   <g id="patch_72">
    <path clip-path="url(#p683ae94d68)" d="M 323.64546 139456.08683 
L 327.155309 139456.08683 
L 327.155309 139456.08683 
L 323.64546 139456.08683 
z
" style="fill:#1f77b4;"/>
   </g>
   <g id="patch_73">
    <path clip-path="url(#p683ae94d68)" d="M 327.155309 139456.08683 
L 330.665157 139456.08683 
L 330.665157 139456.08683 
L 327.155309 139456.08683 
z
" style="fill:#1f77b4;"/>
   </g>
   <g id="patch_74">
    <path clip-path="url(#p683ae94d68)" d="M 330.665157 139456.08683 
L 334.175005 139456.08683 
L 334.175005 139456.08683 
L 330.665157 139456.08683 
z
" style="fill:#1f77b4;"/>
   </g>
   <g id="patch_75">
    <path clip-path="url(#p683ae94d68)" d="M 334.175005 139456.08683 
L 337.684854 139456.08683 
L 337.684854 139456.08683 
L 334.175005 139456.08683 
z
" style="fill:#1f77b4;"/>
   </g>
   <g id="patch_76">
    <path clip-path="url(#p683ae94d68)" d="M 337.684854 139456.08683 
L 341.194702 139456.08683 
L 341.194702 139456.08683 
L 337.684854 139456.08683 
z
" style="fill:#1f77b4;"/>
   </g>
   <g id="patch_77">
    <path clip-path="url(#p683ae94d68)" d="M 341.194702 139456.08683 
L 344.70455 139456.08683 
L 344.70455 139456.08683 
L 341.194702 139456.08683 
z
" style="fill:#1f77b4;"/>
   </g>
   <g id="patch_78">
    <path clip-path="url(#p683ae94d68)" d="M 344.70455 139456.08683 
L 348.214399 139456.08683 
L 348.214399 139456.08683 
L 344.70455 139456.08683 
z
" style="fill:#1f77b4;"/>
   </g>
   <g id="patch_79">
    <path clip-path="url(#p683ae94d68)" d="M 348.214399 139456.08683 
L 351.724247 139456.08683 
L 351.724247 139456.08683 
L 348.214399 139456.08683 
z
" style="fill:#1f77b4;"/>
   </g>
   <g id="patch_80">
    <path clip-path="url(#p683ae94d68)" d="M 351.724247 139456.08683 
L 355.234095 139456.08683 
L 355.234095 139456.08683 
L 351.724247 139456.08683 
z
" style="fill:#1f77b4;"/>
   </g>
   <g id="patch_81">
    <path clip-path="url(#p683ae94d68)" d="M 355.234095 139456.08683 
L 358.743944 139456.08683 
L 358.743944 139456.08683 
L 355.234095 139456.08683 
z
" style="fill:#1f77b4;"/>
   </g>
   <g id="patch_82">
    <path clip-path="url(#p683ae94d68)" d="M 358.743944 139456.08683 
L 362.253792 139456.08683 
L 362.253792 139456.08683 
L 358.743944 139456.08683 
z
" style="fill:#1f77b4;"/>
   </g>
   <g id="patch_83">
    <path clip-path="url(#p683ae94d68)" d="M 362.253792 139456.08683 
L 365.76364 139456.08683 
L 365.76364 139456.08683 
L 362.253792 139456.08683 
z
" style="fill:#1f77b4;"/>
   </g>
   <g id="patch_84">
    <path clip-path="url(#p683ae94d68)" d="M 365.76364 139456.08683 
L 369.273489 139456.08683 
L 369.273489 139456.08683 
L 365.76364 139456.08683 
z
" style="fill:#1f77b4;"/>
   </g>
   <g id="patch_85">
    <path clip-path="url(#p683ae94d68)" d="M 369.273489 139456.08683 
L 372.783337 139456.08683 
L 372.783337 139456.08683 
L 369.273489 139456.08683 
z
" style="fill:#1f77b4;"/>
   </g>
   <g id="patch_86">
    <path clip-path="url(#p683ae94d68)" d="M 372.783337 139456.08683 
L 376.293185 139456.08683 
L 376.293185 139456.08683 
L 372.783337 139456.08683 
z
" style="fill:#1f77b4;"/>
   </g>
   <g id="patch_87">
    <path clip-path="url(#p683ae94d68)" d="M 376.293185 139456.08683 
L 379.803034 139456.08683 
L 379.803034 139456.08683 
L 376.293185 139456.08683 
z
" style="fill:#1f77b4;"/>
   </g>
   <g id="patch_88">
    <path clip-path="url(#p683ae94d68)" d="M 379.803034 139456.08683 
L 383.312882 139456.08683 
L 383.312882 139456.08683 
L 379.803034 139456.08683 
z
" style="fill:#1f77b4;"/>
   </g>
   <g id="patch_89">
    <path clip-path="url(#p683ae94d68)" d="M 383.312882 139456.08683 
L 386.82273 139456.08683 
L 386.82273 139456.08683 
L 383.312882 139456.08683 
z
" style="fill:#1f77b4;"/>
   </g>
   <g id="patch_90">
    <path clip-path="url(#p683ae94d68)" d="M 386.82273 139456.08683 
L 390.332579 139456.08683 
L 390.332579 139456.08683 
L 386.82273 139456.08683 
z
" style="fill:#1f77b4;"/>
   </g>
   <g id="patch_91">
    <path clip-path="url(#p683ae94d68)" d="M 390.332579 139456.08683 
L 393.842427 139456.08683 
L 393.842427 139456.08683 
L 390.332579 139456.08683 
z
" style="fill:#1f77b4;"/>
   </g>
   <g id="patch_92">
    <path clip-path="url(#p683ae94d68)" d="M 393.842427 139456.08683 
L 397.352275 139456.08683 
L 397.352275 139456.08683 
L 393.842427 139456.08683 
z
" style="fill:#1f77b4;"/>
   </g>
   <g id="patch_93">
    <path clip-path="url(#p683ae94d68)" d="M 397.352275 139456.08683 
L 400.862124 139456.08683 
L 400.862124 139456.08683 
L 397.352275 139456.08683 
z
" style="fill:#1f77b4;"/>
   </g>
   <g id="patch_94">
    <path clip-path="url(#p683ae94d68)" d="M 400.862124 139456.08683 
L 404.371972 139456.08683 
L 404.371972 139456.08683 
L 400.862124 139456.08683 
z
" style="fill:#1f77b4;"/>
   </g>
   <g id="patch_95">
    <path clip-path="url(#p683ae94d68)" d="M 404.371972 139456.08683 
L 407.88182 139456.08683 
L 407.88182 139456.08683 
L 404.371972 139456.08683 
z
" style="fill:#1f77b4;"/>
   </g>
   <g id="patch_96">
    <path clip-path="url(#p683ae94d68)" d="M 407.88182 139456.08683 
L 411.391668 139456.08683 
L 411.391668 139456.08683 
L 407.88182 139456.08683 
z
" style="fill:#1f77b4;"/>
   </g>
   <g id="patch_97">
    <path clip-path="url(#p683ae94d68)" d="M 411.391668 139456.08683 
L 414.901517 139456.08683 
L 414.901517 139456.08683 
L 411.391668 139456.08683 
z
" style="fill:#1f77b4;"/>
   </g>
   <g id="patch_98">
    <path clip-path="url(#p683ae94d68)" d="M 414.901517 139456.08683 
L 418.411365 139456.08683 
L 418.411365 139456.08683 
L 414.901517 139456.08683 
z
" style="fill:#1f77b4;"/>
   </g>
   <g id="patch_99">
    <path clip-path="url(#p683ae94d68)" d="M 418.411365 139456.08683 
L 421.921213 139456.08683 
L 421.921213 139456.08683 
L 418.411365 139456.08683 
z
" style="fill:#1f77b4;"/>
   </g>
   <g id="patch_100">
    <path clip-path="url(#p683ae94d68)" d="M 421.921213 139456.08683 
L 425.431062 139456.08683 
L 425.431062 139456.08683 
L 421.921213 139456.08683 
z
" style="fill:#1f77b4;"/>
   </g>
   <g id="patch_101">
    <path clip-path="url(#p683ae94d68)" d="M 425.431062 139456.08683 
L 428.94091 139456.08683 
L 428.94091 139456.08683 
L 425.431062 139456.08683 
z
" style="fill:#1f77b4;"/>
   </g>
   <g id="patch_102">
    <path clip-path="url(#p683ae94d68)" d="M 428.94091 139456.08683 
L 432.450758 139456.08683 
L 432.450758 280.432364 
L 428.94091 280.432364 
z
" style="fill:#1f77b4;"/>
   </g>
   <g id="matplotlib.axis_1">
    <g id="xtick_1">
     <g id="line2d_1">
      <defs>
       <path d="M 0 0 
L 0 3.5 
" id="m8f049c482c" style="stroke:#000000;stroke-width:0.8;"/>
      </defs>
      <g>
       <use style="stroke:#000000;stroke-width:0.8;" x="81.420507" xlink:href="#m8f049c482c" y="293.272"/>
      </g>
     </g>
     <g id="text_1">
      <!-- 0 -->
      <g transform="translate(78.239257 307.870437)scale(0.1 -0.1)">
       <defs>
        <path d="M 2034 4250 
Q 1547 4250 1301 3770 
Q 1056 3291 1056 2328 
Q 1056 1369 1301 889 
Q 1547 409 2034 409 
Q 2525 409 2770 889 
Q 3016 1369 3016 2328 
Q 3016 3291 2770 3770 
Q 2525 4250 2034 4250 
z
M 2034 4750 
Q 2819 4750 3233 4129 
Q 3647 3509 3647 2328 
Q 3647 1150 3233 529 
Q 2819 -91 2034 -91 
Q 1250 -91 836 529 
Q 422 1150 422 2328 
Q 422 3509 836 4129 
Q 1250 4750 2034 4750 
z
" id="DejaVuSans-30" transform="scale(0.015625)"/>
       </defs>
       <use xlink:href="#DejaVuSans-30"/>
      </g>
     </g>
    </g>
    <g id="xtick_2">
     <g id="line2d_2">
      <g>
       <use style="stroke:#000000;stroke-width:0.8;" x="129.553693" xlink:href="#m8f049c482c" y="293.272"/>
      </g>
     </g>
     <g id="text_2">
      <!-- 2 -->
      <g transform="translate(126.372443 307.870437)scale(0.1 -0.1)">
       <defs>
        <path d="M 1228 531 
L 3431 531 
L 3431 0 
L 469 0 
L 469 531 
Q 828 903 1448 1529 
Q 2069 2156 2228 2338 
Q 2531 2678 2651 2914 
Q 2772 3150 2772 3378 
Q 2772 3750 2511 3984 
Q 2250 4219 1831 4219 
Q 1534 4219 1204 4116 
Q 875 4013 500 3803 
L 500 4441 
Q 881 4594 1212 4672 
Q 1544 4750 1819 4750 
Q 2544 4750 2975 4387 
Q 3406 4025 3406 3419 
Q 3406 3131 3298 2873 
Q 3191 2616 2906 2266 
Q 2828 2175 2409 1742 
Q 1991 1309 1228 531 
z
" id="DejaVuSans-32" transform="scale(0.015625)"/>
       </defs>
       <use xlink:href="#DejaVuSans-32"/>
      </g>
     </g>
    </g>
    <g id="xtick_3">
     <g id="line2d_3">
      <g>
       <use style="stroke:#000000;stroke-width:0.8;" x="177.686878" xlink:href="#m8f049c482c" y="293.272"/>
      </g>
     </g>
     <g id="text_3">
      <!-- 4 -->
      <g transform="translate(174.505628 307.870437)scale(0.1 -0.1)">
       <defs>
        <path d="M 2419 4116 
L 825 1625 
L 2419 1625 
L 2419 4116 
z
M 2253 4666 
L 3047 4666 
L 3047 1625 
L 3713 1625 
L 3713 1100 
L 3047 1100 
L 3047 0 
L 2419 0 
L 2419 1100 
L 313 1100 
L 313 1709 
L 2253 4666 
z
" id="DejaVuSans-34" transform="scale(0.015625)"/>
       </defs>
       <use xlink:href="#DejaVuSans-34"/>
      </g>
     </g>
    </g>
    <g id="xtick_4">
     <g id="line2d_4">
      <g>
       <use style="stroke:#000000;stroke-width:0.8;" x="225.820064" xlink:href="#m8f049c482c" y="293.272"/>
      </g>
     </g>
     <g id="text_4">
      <!-- 6 -->
      <g transform="translate(222.638814 307.870437)scale(0.1 -0.1)">
       <defs>
        <path d="M 2113 2584 
Q 1688 2584 1439 2293 
Q 1191 2003 1191 1497 
Q 1191 994 1439 701 
Q 1688 409 2113 409 
Q 2538 409 2786 701 
Q 3034 994 3034 1497 
Q 3034 2003 2786 2293 
Q 2538 2584 2113 2584 
z
M 3366 4563 
L 3366 3988 
Q 3128 4100 2886 4159 
Q 2644 4219 2406 4219 
Q 1781 4219 1451 3797 
Q 1122 3375 1075 2522 
Q 1259 2794 1537 2939 
Q 1816 3084 2150 3084 
Q 2853 3084 3261 2657 
Q 3669 2231 3669 1497 
Q 3669 778 3244 343 
Q 2819 -91 2113 -91 
Q 1303 -91 875 529 
Q 447 1150 447 2328 
Q 447 3434 972 4092 
Q 1497 4750 2381 4750 
Q 2619 4750 2861 4703 
Q 3103 4656 3366 4563 
z
" id="DejaVuSans-36" transform="scale(0.015625)"/>
       </defs>
       <use xlink:href="#DejaVuSans-36"/>
      </g>
     </g>
    </g>
    <g id="xtick_5">
     <g id="line2d_5">
      <g>
       <use style="stroke:#000000;stroke-width:0.8;" x="273.95325" xlink:href="#m8f049c482c" y="293.272"/>
      </g>
     </g>
     <g id="text_5">
      <!-- 8 -->
      <g transform="translate(270.772 307.870437)scale(0.1 -0.1)">
       <defs>
        <path d="M 2034 2216 
Q 1584 2216 1326 1975 
Q 1069 1734 1069 1313 
Q 1069 891 1326 650 
Q 1584 409 2034 409 
Q 2484 409 2743 651 
Q 3003 894 3003 1313 
Q 3003 1734 2745 1975 
Q 2488 2216 2034 2216 
z
M 1403 2484 
Q 997 2584 770 2862 
Q 544 3141 544 3541 
Q 544 4100 942 4425 
Q 1341 4750 2034 4750 
Q 2731 4750 3128 4425 
Q 3525 4100 3525 3541 
Q 3525 3141 3298 2862 
Q 3072 2584 2669 2484 
Q 3125 2378 3379 2068 
Q 3634 1759 3634 1313 
Q 3634 634 3220 271 
Q 2806 -91 2034 -91 
Q 1263 -91 848 271 
Q 434 634 434 1313 
Q 434 1759 690 2068 
Q 947 2378 1403 2484 
z
M 1172 3481 
Q 1172 3119 1398 2916 
Q 1625 2713 2034 2713 
Q 2441 2713 2670 2916 
Q 2900 3119 2900 3481 
Q 2900 3844 2670 4047 
Q 2441 4250 2034 4250 
Q 1625 4250 1398 4047 
Q 1172 3844 1172 3481 
z
" id="DejaVuSans-38" transform="scale(0.015625)"/>
       </defs>
       <use xlink:href="#DejaVuSans-38"/>
      </g>
     </g>
    </g>
    <g id="xtick_6">
     <g id="line2d_6">
      <g>
       <use style="stroke:#000000;stroke-width:0.8;" x="322.086436" xlink:href="#m8f049c482c" y="293.272"/>
      </g>
     </g>
     <g id="text_6">
      <!-- 10 -->
      <g transform="translate(315.723936 307.870437)scale(0.1 -0.1)">
       <defs>
        <path d="M 794 531 
L 1825 531 
L 1825 4091 
L 703 3866 
L 703 4441 
L 1819 4666 
L 2450 4666 
L 2450 531 
L 3481 531 
L 3481 0 
L 794 0 
L 794 531 
z
" id="DejaVuSans-31" transform="scale(0.015625)"/>
       </defs>
       <use xlink:href="#DejaVuSans-31"/>
       <use x="63.623047" xlink:href="#DejaVuSans-30"/>
      </g>
     </g>
    </g>
    <g id="xtick_7">
     <g id="line2d_7">
      <g>
       <use style="stroke:#000000;stroke-width:0.8;" x="370.219621" xlink:href="#m8f049c482c" y="293.272"/>
      </g>
     </g>
     <g id="text_7">
      <!-- 12 -->
      <g transform="translate(363.857121 307.870437)scale(0.1 -0.1)">
       <use xlink:href="#DejaVuSans-31"/>
       <use x="63.623047" xlink:href="#DejaVuSans-32"/>
      </g>
     </g>
    </g>
    <g id="xtick_8">
     <g id="line2d_8">
      <g>
       <use style="stroke:#000000;stroke-width:0.8;" x="418.352807" xlink:href="#m8f049c482c" y="293.272"/>
      </g>
     </g>
     <g id="text_8">
      <!-- 14 -->
      <g transform="translate(411.990307 307.870437)scale(0.1 -0.1)">
       <use xlink:href="#DejaVuSans-31"/>
       <use x="63.623047" xlink:href="#DejaVuSans-34"/>
      </g>
     </g>
    </g>
    <g id="text_9">
     <!-- Time difference (count) (s) -->
     <g transform="translate(190.26928 321.548562)scale(0.1 -0.1)">
      <defs>
       <path d="M -19 4666 
L 3928 4666 
L 3928 4134 
L 2272 4134 
L 2272 0 
L 1638 0 
L 1638 4134 
L -19 4134 
L -19 4666 
z
" id="DejaVuSans-54" transform="scale(0.015625)"/>
       <path d="M 603 3500 
L 1178 3500 
L 1178 0 
L 603 0 
L 603 3500 
z
M 603 4863 
L 1178 4863 
L 1178 4134 
L 603 4134 
L 603 4863 
z
" id="DejaVuSans-69" transform="scale(0.015625)"/>
       <path d="M 3328 2828 
Q 3544 3216 3844 3400 
Q 4144 3584 4550 3584 
Q 5097 3584 5394 3201 
Q 5691 2819 5691 2113 
L 5691 0 
L 5113 0 
L 5113 2094 
Q 5113 2597 4934 2840 
Q 4756 3084 4391 3084 
Q 3944 3084 3684 2787 
Q 3425 2491 3425 1978 
L 3425 0 
L 2847 0 
L 2847 2094 
Q 2847 2600 2669 2842 
Q 2491 3084 2119 3084 
Q 1678 3084 1418 2786 
Q 1159 2488 1159 1978 
L 1159 0 
L 581 0 
L 581 3500 
L 1159 3500 
L 1159 2956 
Q 1356 3278 1631 3431 
Q 1906 3584 2284 3584 
Q 2666 3584 2933 3390 
Q 3200 3197 3328 2828 
z
" id="DejaVuSans-6d" transform="scale(0.015625)"/>
       <path d="M 3597 1894 
L 3597 1613 
L 953 1613 
Q 991 1019 1311 708 
Q 1631 397 2203 397 
Q 2534 397 2845 478 
Q 3156 559 3463 722 
L 3463 178 
Q 3153 47 2828 -22 
Q 2503 -91 2169 -91 
Q 1331 -91 842 396 
Q 353 884 353 1716 
Q 353 2575 817 3079 
Q 1281 3584 2069 3584 
Q 2775 3584 3186 3129 
Q 3597 2675 3597 1894 
z
M 3022 2063 
Q 3016 2534 2758 2815 
Q 2500 3097 2075 3097 
Q 1594 3097 1305 2825 
Q 1016 2553 972 2059 
L 3022 2063 
z
" id="DejaVuSans-65" transform="scale(0.015625)"/>
       <path id="DejaVuSans-20" transform="scale(0.015625)"/>
       <path d="M 2906 2969 
L 2906 4863 
L 3481 4863 
L 3481 0 
L 2906 0 
L 2906 525 
Q 2725 213 2448 61 
Q 2172 -91 1784 -91 
Q 1150 -91 751 415 
Q 353 922 353 1747 
Q 353 2572 751 3078 
Q 1150 3584 1784 3584 
Q 2172 3584 2448 3432 
Q 2725 3281 2906 2969 
z
M 947 1747 
Q 947 1113 1208 752 
Q 1469 391 1925 391 
Q 2381 391 2643 752 
Q 2906 1113 2906 1747 
Q 2906 2381 2643 2742 
Q 2381 3103 1925 3103 
Q 1469 3103 1208 2742 
Q 947 2381 947 1747 
z
" id="DejaVuSans-64" transform="scale(0.015625)"/>
       <path d="M 2375 4863 
L 2375 4384 
L 1825 4384 
Q 1516 4384 1395 4259 
Q 1275 4134 1275 3809 
L 1275 3500 
L 2222 3500 
L 2222 3053 
L 1275 3053 
L 1275 0 
L 697 0 
L 697 3053 
L 147 3053 
L 147 3500 
L 697 3500 
L 697 3744 
Q 697 4328 969 4595 
Q 1241 4863 1831 4863 
L 2375 4863 
z
" id="DejaVuSans-66" transform="scale(0.015625)"/>
       <path d="M 2631 2963 
Q 2534 3019 2420 3045 
Q 2306 3072 2169 3072 
Q 1681 3072 1420 2755 
Q 1159 2438 1159 1844 
L 1159 0 
L 581 0 
L 581 3500 
L 1159 3500 
L 1159 2956 
Q 1341 3275 1631 3429 
Q 1922 3584 2338 3584 
Q 2397 3584 2469 3576 
Q 2541 3569 2628 3553 
L 2631 2963 
z
" id="DejaVuSans-72" transform="scale(0.015625)"/>
       <path d="M 3513 2113 
L 3513 0 
L 2938 0 
L 2938 2094 
Q 2938 2591 2744 2837 
Q 2550 3084 2163 3084 
Q 1697 3084 1428 2787 
Q 1159 2491 1159 1978 
L 1159 0 
L 581 0 
L 581 3500 
L 1159 3500 
L 1159 2956 
Q 1366 3272 1645 3428 
Q 1925 3584 2291 3584 
Q 2894 3584 3203 3211 
Q 3513 2838 3513 2113 
z
" id="DejaVuSans-6e" transform="scale(0.015625)"/>
       <path d="M 3122 3366 
L 3122 2828 
Q 2878 2963 2633 3030 
Q 2388 3097 2138 3097 
Q 1578 3097 1268 2742 
Q 959 2388 959 1747 
Q 959 1106 1268 751 
Q 1578 397 2138 397 
Q 2388 397 2633 464 
Q 2878 531 3122 666 
L 3122 134 
Q 2881 22 2623 -34 
Q 2366 -91 2075 -91 
Q 1284 -91 818 406 
Q 353 903 353 1747 
Q 353 2603 823 3093 
Q 1294 3584 2113 3584 
Q 2378 3584 2631 3529 
Q 2884 3475 3122 3366 
z
" id="DejaVuSans-63" transform="scale(0.015625)"/>
       <path d="M 1984 4856 
Q 1566 4138 1362 3434 
Q 1159 2731 1159 2009 
Q 1159 1288 1364 580 
Q 1569 -128 1984 -844 
L 1484 -844 
Q 1016 -109 783 600 
Q 550 1309 550 2009 
Q 550 2706 781 3412 
Q 1013 4119 1484 4856 
L 1984 4856 
z
" id="DejaVuSans-28" transform="scale(0.015625)"/>
       <path d="M 1959 3097 
Q 1497 3097 1228 2736 
Q 959 2375 959 1747 
Q 959 1119 1226 758 
Q 1494 397 1959 397 
Q 2419 397 2687 759 
Q 2956 1122 2956 1747 
Q 2956 2369 2687 2733 
Q 2419 3097 1959 3097 
z
M 1959 3584 
Q 2709 3584 3137 3096 
Q 3566 2609 3566 1747 
Q 3566 888 3137 398 
Q 2709 -91 1959 -91 
Q 1206 -91 779 398 
Q 353 888 353 1747 
Q 353 2609 779 3096 
Q 1206 3584 1959 3584 
z
" id="DejaVuSans-6f" transform="scale(0.015625)"/>
       <path d="M 544 1381 
L 544 3500 
L 1119 3500 
L 1119 1403 
Q 1119 906 1312 657 
Q 1506 409 1894 409 
Q 2359 409 2629 706 
Q 2900 1003 2900 1516 
L 2900 3500 
L 3475 3500 
L 3475 0 
L 2900 0 
L 2900 538 
Q 2691 219 2414 64 
Q 2138 -91 1772 -91 
Q 1169 -91 856 284 
Q 544 659 544 1381 
z
M 1991 3584 
L 1991 3584 
z
" id="DejaVuSans-75" transform="scale(0.015625)"/>
       <path d="M 1172 4494 
L 1172 3500 
L 2356 3500 
L 2356 3053 
L 1172 3053 
L 1172 1153 
Q 1172 725 1289 603 
Q 1406 481 1766 481 
L 2356 481 
L 2356 0 
L 1766 0 
Q 1100 0 847 248 
Q 594 497 594 1153 
L 594 3053 
L 172 3053 
L 172 3500 
L 594 3500 
L 594 4494 
L 1172 4494 
z
" id="DejaVuSans-74" transform="scale(0.015625)"/>
       <path d="M 513 4856 
L 1013 4856 
Q 1481 4119 1714 3412 
Q 1947 2706 1947 2009 
Q 1947 1309 1714 600 
Q 1481 -109 1013 -844 
L 513 -844 
Q 928 -128 1133 580 
Q 1338 1288 1338 2009 
Q 1338 2731 1133 3434 
Q 928 4138 513 4856 
z
" id="DejaVuSans-29" transform="scale(0.015625)"/>
       <path d="M 2834 3397 
L 2834 2853 
Q 2591 2978 2328 3040 
Q 2066 3103 1784 3103 
Q 1356 3103 1142 2972 
Q 928 2841 928 2578 
Q 928 2378 1081 2264 
Q 1234 2150 1697 2047 
L 1894 2003 
Q 2506 1872 2764 1633 
Q 3022 1394 3022 966 
Q 3022 478 2636 193 
Q 2250 -91 1575 -91 
Q 1294 -91 989 -36 
Q 684 19 347 128 
L 347 722 
Q 666 556 975 473 
Q 1284 391 1588 391 
Q 1994 391 2212 530 
Q 2431 669 2431 922 
Q 2431 1156 2273 1281 
Q 2116 1406 1581 1522 
L 1381 1569 
Q 847 1681 609 1914 
Q 372 2147 372 2553 
Q 372 3047 722 3315 
Q 1072 3584 1716 3584 
Q 2034 3584 2315 3537 
Q 2597 3491 2834 3397 
z
" id="DejaVuSans-73" transform="scale(0.015625)"/>
      </defs>
      <use xlink:href="#DejaVuSans-54"/>
      <use x="57.958984" xlink:href="#DejaVuSans-69"/>
      <use x="85.742188" xlink:href="#DejaVuSans-6d"/>
      <use x="183.154297" xlink:href="#DejaVuSans-65"/>
      <use x="244.677734" xlink:href="#DejaVuSans-20"/>
      <use x="276.464844" xlink:href="#DejaVuSans-64"/>
      <use x="339.941406" xlink:href="#DejaVuSans-69"/>
      <use x="367.724609" xlink:href="#DejaVuSans-66"/>
      <use x="402.929688" xlink:href="#DejaVuSans-66"/>
      <use x="438.134766" xlink:href="#DejaVuSans-65"/>
      <use x="499.658203" xlink:href="#DejaVuSans-72"/>
      <use x="538.521484" xlink:href="#DejaVuSans-65"/>
      <use x="600.044922" xlink:href="#DejaVuSans-6e"/>
      <use x="663.423828" xlink:href="#DejaVuSans-63"/>
      <use x="718.404297" xlink:href="#DejaVuSans-65"/>
      <use x="779.927734" xlink:href="#DejaVuSans-20"/>
      <use x="811.714844" xlink:href="#DejaVuSans-28"/>
      <use x="850.728516" xlink:href="#DejaVuSans-63"/>
      <use x="905.708984" xlink:href="#DejaVuSans-6f"/>
      <use x="966.890625" xlink:href="#DejaVuSans-75"/>
      <use x="1030.269531" xlink:href="#DejaVuSans-6e"/>
      <use x="1093.648438" xlink:href="#DejaVuSans-74"/>
      <use x="1132.857422" xlink:href="#DejaVuSans-29"/>
      <use x="1171.871094" xlink:href="#DejaVuSans-20"/>
      <use x="1203.658203" xlink:href="#DejaVuSans-28"/>
      <use x="1242.671875" xlink:href="#DejaVuSans-73"/>
      <use x="1294.771484" xlink:href="#DejaVuSans-29"/>
     </g>
    </g>
   </g>
   <g id="matplotlib.axis_2">
    <g id="ytick_1">
     <g id="line2d_9">
      <defs>
       <path d="M 0 0 
L -3.5 0 
" id="m9e2aeb6ef3" style="stroke:#000000;stroke-width:0.8;"/>
      </defs>
      <g>
       <use style="stroke:#000000;stroke-width:0.8;" x="63.916685" xlink:href="#m9e2aeb6ef3" y="280.432364"/>
      </g>
     </g>
     <g id="text_10">
      <!-- $\mathdefault{10^{0}}$ -->
      <g transform="translate(39.316685 284.231582)scale(0.1 -0.1)">
       <use transform="translate(0 0.765625)" xlink:href="#DejaVuSans-31"/>
       <use transform="translate(63.623047 0.765625)" xlink:href="#DejaVuSans-30"/>
       <use transform="translate(128.203125 39.046875)scale(0.7)" xlink:href="#DejaVuSans-30"/>
      </g>
     </g>
    </g>
    <g id="ytick_2">
     <g id="line2d_10">
      <g>
       <use style="stroke:#000000;stroke-width:0.8;" x="63.916685" xlink:href="#m9e2aeb6ef3" y="141.256709"/>
      </g>
     </g>
     <g id="text_11">
      <!-- $\mathdefault{10^{1}}$ -->
      <g transform="translate(39.316685 145.055928)scale(0.1 -0.1)">
       <use transform="translate(0 0.684375)" xlink:href="#DejaVuSans-31"/>
       <use transform="translate(63.623047 0.684375)" xlink:href="#DejaVuSans-30"/>
       <use transform="translate(128.203125 38.965625)scale(0.7)" xlink:href="#DejaVuSans-31"/>
      </g>
     </g>
    </g>
    <g id="ytick_3">
     <g id="line2d_11">
      <defs>
       <path d="M 0 0 
L -2 0 
" id="mb880f1fdc3" style="stroke:#000000;stroke-width:0.6;"/>
      </defs>
      <g>
       <use style="stroke:#000000;stroke-width:0.6;" x="63.916685" xlink:href="#mb880f1fdc3" y="286.800692"/>
      </g>
     </g>
    </g>
    <g id="ytick_4">
     <g id="line2d_12">
      <g>
       <use style="stroke:#000000;stroke-width:0.6;" x="63.916685" xlink:href="#mb880f1fdc3" y="238.536317"/>
      </g>
     </g>
    </g>
    <g id="ytick_5">
     <g id="line2d_13">
      <g>
       <use style="stroke:#000000;stroke-width:0.6;" x="63.916685" xlink:href="#mb880f1fdc3" y="214.028701"/>
      </g>
     </g>
    </g>
    <g id="ytick_6">
     <g id="line2d_14">
      <g>
       <use style="stroke:#000000;stroke-width:0.6;" x="63.916685" xlink:href="#mb880f1fdc3" y="196.64027"/>
      </g>
     </g>
    </g>
    <g id="ytick_7">
     <g id="line2d_15">
      <g>
       <use style="stroke:#000000;stroke-width:0.6;" x="63.916685" xlink:href="#mb880f1fdc3" y="183.152756"/>
      </g>
     </g>
    </g>
    <g id="ytick_8">
     <g id="line2d_16">
      <g>
       <use style="stroke:#000000;stroke-width:0.6;" x="63.916685" xlink:href="#mb880f1fdc3" y="172.132654"/>
      </g>
     </g>
    </g>
    <g id="ytick_9">
     <g id="line2d_17">
      <g>
       <use style="stroke:#000000;stroke-width:0.6;" x="63.916685" xlink:href="#mb880f1fdc3" y="162.815291"/>
      </g>
     </g>
    </g>
    <g id="ytick_10">
     <g id="line2d_18">
      <g>
       <use style="stroke:#000000;stroke-width:0.6;" x="63.916685" xlink:href="#mb880f1fdc3" y="154.744224"/>
      </g>
     </g>
    </g>
    <g id="ytick_11">
     <g id="line2d_19">
      <g>
       <use style="stroke:#000000;stroke-width:0.6;" x="63.916685" xlink:href="#mb880f1fdc3" y="147.625038"/>
      </g>
     </g>
    </g>
    <g id="ytick_12">
     <g id="line2d_20">
      <g>
       <use style="stroke:#000000;stroke-width:0.6;" x="63.916685" xlink:href="#mb880f1fdc3" y="99.360663"/>
      </g>
     </g>
    </g>
    <g id="ytick_13">
     <g id="line2d_21">
      <g>
       <use style="stroke:#000000;stroke-width:0.6;" x="63.916685" xlink:href="#mb880f1fdc3" y="74.853046"/>
      </g>
     </g>
    </g>
    <g id="ytick_14">
     <g id="line2d_22">
      <g>
       <use style="stroke:#000000;stroke-width:0.6;" x="63.916685" xlink:href="#mb880f1fdc3" y="57.464616"/>
      </g>
     </g>
    </g>
    <g id="ytick_15">
     <g id="line2d_23">
      <g>
       <use style="stroke:#000000;stroke-width:0.6;" x="63.916685" xlink:href="#mb880f1fdc3" y="43.977101"/>
      </g>
     </g>
    </g>
    <g id="ytick_16">
     <g id="line2d_24">
      <g>
       <use style="stroke:#000000;stroke-width:0.6;" x="63.916685" xlink:href="#mb880f1fdc3" y="32.957"/>
      </g>
     </g>
    </g>
    <g id="ytick_17">
     <g id="line2d_25">
      <g>
       <use style="stroke:#000000;stroke-width:0.6;" x="63.916685" xlink:href="#mb880f1fdc3" y="23.639636"/>
      </g>
     </g>
    </g>
    <g id="ytick_18">
     <g id="line2d_26">
      <g>
       <use style="stroke:#000000;stroke-width:0.6;" x="63.916685" xlink:href="#mb880f1fdc3" y="15.568569"/>
      </g>
     </g>
    </g>
    <g id="text_12">
     <!-- Frequency -->
     <g transform="translate(33.236997 177.865688)rotate(-90)scale(0.1 -0.1)">
      <defs>
       <path d="M 628 4666 
L 3309 4666 
L 3309 4134 
L 1259 4134 
L 1259 2759 
L 3109 2759 
L 3109 2228 
L 1259 2228 
L 1259 0 
L 628 0 
L 628 4666 
z
" id="DejaVuSans-46" transform="scale(0.015625)"/>
       <path d="M 947 1747 
Q 947 1113 1208 752 
Q 1469 391 1925 391 
Q 2381 391 2643 752 
Q 2906 1113 2906 1747 
Q 2906 2381 2643 2742 
Q 2381 3103 1925 3103 
Q 1469 3103 1208 2742 
Q 947 2381 947 1747 
z
M 2906 525 
Q 2725 213 2448 61 
Q 2172 -91 1784 -91 
Q 1150 -91 751 415 
Q 353 922 353 1747 
Q 353 2572 751 3078 
Q 1150 3584 1784 3584 
Q 2172 3584 2448 3432 
Q 2725 3281 2906 2969 
L 2906 3500 
L 3481 3500 
L 3481 -1331 
L 2906 -1331 
L 2906 525 
z
" id="DejaVuSans-71" transform="scale(0.015625)"/>
       <path d="M 2059 -325 
Q 1816 -950 1584 -1140 
Q 1353 -1331 966 -1331 
L 506 -1331 
L 506 -850 
L 844 -850 
Q 1081 -850 1212 -737 
Q 1344 -625 1503 -206 
L 1606 56 
L 191 3500 
L 800 3500 
L 1894 763 
L 2988 3500 
L 3597 3500 
L 2059 -325 
z
" id="DejaVuSans-79" transform="scale(0.015625)"/>
      </defs>
      <use xlink:href="#DejaVuSans-46"/>
      <use x="50.269531" xlink:href="#DejaVuSans-72"/>
      <use x="89.132812" xlink:href="#DejaVuSans-65"/>
      <use x="150.65625" xlink:href="#DejaVuSans-71"/>
      <use x="214.132812" xlink:href="#DejaVuSans-75"/>
      <use x="277.511719" xlink:href="#DejaVuSans-65"/>
      <use x="339.035156" xlink:href="#DejaVuSans-6e"/>
      <use x="402.414062" xlink:href="#DejaVuSans-63"/>
      <use x="457.394531" xlink:href="#DejaVuSans-79"/>
     </g>
    </g>
   </g>
   <g id="patch_103">
    <path d="M 63.916685 293.272 
L 63.916685 10.8 
" style="fill:none;stroke:#000000;stroke-linecap:square;stroke-linejoin:miter;stroke-width:0.8;"/>
   </g>
   <g id="patch_104">
    <path d="M 450 293.272 
L 450 10.8 
" style="fill:none;stroke:#000000;stroke-linecap:square;stroke-linejoin:miter;stroke-width:0.8;"/>
   </g>
   <g id="patch_105">
    <path d="M 63.916685 293.272 
L 450 293.272 
" style="fill:none;stroke:#000000;stroke-linecap:square;stroke-linejoin:miter;stroke-width:0.8;"/>
   </g>
   <g id="patch_106">
    <path d="M 63.916685 10.8 
L 450 10.8 
" style="fill:none;stroke:#000000;stroke-linecap:square;stroke-linejoin:miter;stroke-width:0.8;"/>
   </g>
  </g>
 </g>
 <defs>
  <clipPath id="p683ae94d68">
   <rect height="282.472" width="386.083315" x="63.916685" y="10.8"/>
  </clipPath>
 </defs>
</svg>
