<?xml version="1.0" encoding="utf-8" standalone="no"?>
<!DOCTYPE svg PUBLIC "-//W3C//DTD SVG 1.1//EN"
  "http://www.w3.org/Graphics/SVG/1.1/DTD/svg11.dtd">
<svg height="345.6pt" version="1.1" viewBox="0 0 460.8 345.6" width="460.8pt" xmlns="http://www.w3.org/2000/svg" xmlns:xlink="http://www.w3.org/1999/xlink">
 <metadata>
  <rdf:RDF xmlns:cc="http://creativecommons.org/ns#" xmlns:dc="http://purl.org/dc/elements/1.1/" xmlns:rdf="http://www.w3.org/1999/02/22-rdf-syntax-ns#">
   <cc:Work>
    <dc:type rdf:resource="http://purl.org/dc/dcmitype/StillImage"/>
    <dc:date>2021-10-20T18:59:20.775166</dc:date>
    <dc:format>image/svg+xml</dc:format>
    <dc:creator>
     <cc:Agent>
      <dc:title>Matplotlib v3.4.2, https://matplotlib.org/</dc:title>
     </cc:Agent>
    </dc:creator>
   </cc:Work>
  </rdf:RDF>
 </metadata>
 <defs>
  <style type="text/css">*{stroke-linecap:butt;stroke-linejoin:round;}</style>
 </defs>
 <g id="figure_1">
  <g id="patch_1">
   <path d="M 0 345.6 
L 460.8 345.6 
L 460.8 0 
L 0 0 
z
" style="fill:#ffffff;"/>
  </g>
  <g id="axes_1">
   <g id="patch_2">
    <path d="M 64.694 81.44234 
L 442.08 81.44234 
L 442.08 14.40751 
L 64.694 14.40751 
z
" style="fill:#ffffff;"/>
   </g>
   <g id="patch_3">
    <path clip-path="url(#p143cdaf590)" d="M 81.847909 81.44234 
L 93.283848 81.44234 
L 93.283848 39.635509 
L 81.847909 39.635509 
z
" style="fill:#1f77b4;"/>
   </g>
   <g id="patch_4">
    <path clip-path="url(#p143cdaf590)" d="M 93.283848 81.44234 
L 104.719788 81.44234 
L 104.719788 54.643089 
L 93.283848 54.643089 
z
" style="fill:#1f77b4;"/>
   </g>
   <g id="patch_5">
    <path clip-path="url(#p143cdaf590)" d="M 104.719788 81.44234 
L 116.155727 81.44234 
L 116.155727 69.650669 
L 104.719788 69.650669 
z
" style="fill:#1f77b4;"/>
   </g>
   <g id="patch_6">
    <path clip-path="url(#p143cdaf590)" d="M 116.155727 81.44234 
L 127.591667 81.44234 
L 127.591667 69.114684 
L 116.155727 69.114684 
z
" style="fill:#1f77b4;"/>
   </g>
   <g id="patch_7">
    <path clip-path="url(#p143cdaf590)" d="M 127.591667 81.44234 
L 139.027606 81.44234 
L 139.027606 70.722639 
L 127.591667 70.722639 
z
" style="fill:#1f77b4;"/>
   </g>
   <g id="patch_8">
    <path clip-path="url(#p143cdaf590)" d="M 139.027606 81.44234 
L 150.463545 81.44234 
L 150.463545 69.650669 
L 139.027606 69.650669 
z
" style="fill:#1f77b4;"/>
   </g>
   <g id="patch_9">
    <path clip-path="url(#p143cdaf590)" d="M 150.463545 81.44234 
L 161.899485 81.44234 
L 161.899485 73.402565 
L 150.463545 73.402565 
z
" style="fill:#1f77b4;"/>
   </g>
   <g id="patch_10">
    <path clip-path="url(#p143cdaf590)" d="M 161.899485 81.44234 
L 173.335424 81.44234 
L 173.335424 62.682864 
L 161.899485 62.682864 
z
" style="fill:#1f77b4;"/>
   </g>
   <g id="patch_11">
    <path clip-path="url(#p143cdaf590)" d="M 173.335424 81.44234 
L 184.771364 81.44234 
L 184.771364 58.930969 
L 173.335424 58.930969 
z
" style="fill:#1f77b4;"/>
   </g>
   <g id="patch_12">
    <path clip-path="url(#p143cdaf590)" d="M 184.771364 81.44234 
L 196.207303 81.44234 
L 196.207303 68.042714 
L 184.771364 68.042714 
z
" style="fill:#1f77b4;"/>
   </g>
   <g id="patch_13">
    <path clip-path="url(#p143cdaf590)" d="M 196.207303 81.44234 
L 207.643242 81.44234 
L 207.643242 69.114684 
L 196.207303 69.114684 
z
" style="fill:#1f77b4;"/>
   </g>
   <g id="patch_14">
    <path clip-path="url(#p143cdaf590)" d="M 207.643242 81.44234 
L 219.079182 81.44234 
L 219.079182 64.826804 
L 207.643242 64.826804 
z
" style="fill:#1f77b4;"/>
   </g>
   <g id="patch_15">
    <path clip-path="url(#p143cdaf590)" d="M 219.079182 81.44234 
L 230.515121 81.44234 
L 230.515121 70.722639 
L 219.079182 70.722639 
z
" style="fill:#1f77b4;"/>
   </g>
   <g id="patch_16">
    <path clip-path="url(#p143cdaf590)" d="M 230.515121 81.44234 
L 241.951061 81.44234 
L 241.951061 68.042714 
L 230.515121 68.042714 
z
" style="fill:#1f77b4;"/>
   </g>
   <g id="patch_17">
    <path clip-path="url(#p143cdaf590)" d="M 241.951061 81.44234 
L 253.387 81.44234 
L 253.387 68.042714 
L 241.951061 68.042714 
z
" style="fill:#1f77b4;"/>
   </g>
   <g id="patch_18">
    <path clip-path="url(#p143cdaf590)" d="M 253.387 81.44234 
L 264.822939 81.44234 
L 264.822939 68.042714 
L 253.387 68.042714 
z
" style="fill:#1f77b4;"/>
   </g>
   <g id="patch_19">
    <path clip-path="url(#p143cdaf590)" d="M 264.822939 81.44234 
L 276.258879 81.44234 
L 276.258879 69.114684 
L 264.822939 69.114684 
z
" style="fill:#1f77b4;"/>
   </g>
   <g id="patch_20">
    <path clip-path="url(#p143cdaf590)" d="M 276.258879 81.44234 
L 287.694818 81.44234 
L 287.694818 69.114684 
L 276.258879 69.114684 
z
" style="fill:#1f77b4;"/>
   </g>
   <g id="patch_21">
    <path clip-path="url(#p143cdaf590)" d="M 287.694818 81.44234 
L 299.130758 81.44234 
L 299.130758 70.722639 
L 287.694818 70.722639 
z
" style="fill:#1f77b4;"/>
   </g>
   <g id="patch_22">
    <path clip-path="url(#p143cdaf590)" d="M 299.130758 81.44234 
L 310.566697 81.44234 
L 310.566697 73.402565 
L 299.130758 73.402565 
z
" style="fill:#1f77b4;"/>
   </g>
   <g id="patch_23">
    <path clip-path="url(#p143cdaf590)" d="M 310.566697 81.44234 
L 322.002636 81.44234 
L 322.002636 66.970744 
L 310.566697 66.970744 
z
" style="fill:#1f77b4;"/>
   </g>
   <g id="patch_24">
    <path clip-path="url(#p143cdaf590)" d="M 322.002636 81.44234 
L 333.438576 81.44234 
L 333.438576 65.898774 
L 322.002636 65.898774 
z
" style="fill:#1f77b4;"/>
   </g>
   <g id="patch_25">
    <path clip-path="url(#p143cdaf590)" d="M 333.438576 81.44234 
L 344.874515 81.44234 
L 344.874515 72.86658 
L 333.438576 72.86658 
z
" style="fill:#1f77b4;"/>
   </g>
   <g id="patch_26">
    <path clip-path="url(#p143cdaf590)" d="M 344.874515 81.44234 
L 356.310455 81.44234 
L 356.310455 72.86658 
L 344.874515 72.86658 
z
" style="fill:#1f77b4;"/>
   </g>
   <g id="patch_27">
    <path clip-path="url(#p143cdaf590)" d="M 356.310455 81.44234 
L 367.746394 81.44234 
L 367.746394 68.042714 
L 356.310455 68.042714 
z
" style="fill:#1f77b4;"/>
   </g>
   <g id="patch_28">
    <path clip-path="url(#p143cdaf590)" d="M 367.746394 81.44234 
L 379.182333 81.44234 
L 379.182333 68.578699 
L 367.746394 68.578699 
z
" style="fill:#1f77b4;"/>
   </g>
   <g id="patch_29">
    <path clip-path="url(#p143cdaf590)" d="M 379.182333 81.44234 
L 390.618273 81.44234 
L 390.618273 70.186654 
L 379.182333 70.186654 
z
" style="fill:#1f77b4;"/>
   </g>
   <g id="patch_30">
    <path clip-path="url(#p143cdaf590)" d="M 390.618273 81.44234 
L 402.054212 81.44234 
L 402.054212 65.362789 
L 390.618273 65.362789 
z
" style="fill:#1f77b4;"/>
   </g>
   <g id="patch_31">
    <path clip-path="url(#p143cdaf590)" d="M 402.054212 81.44234 
L 413.490152 81.44234 
L 413.490152 65.362789 
L 402.054212 65.362789 
z
" style="fill:#1f77b4;"/>
   </g>
   <g id="patch_32">
    <path clip-path="url(#p143cdaf590)" d="M 413.490152 81.44234 
L 424.926091 81.44234 
L 424.926091 74.474535 
L 413.490152 74.474535 
z
" style="fill:#1f77b4;"/>
   </g>
   <g id="matplotlib.axis_1">
    <g id="xtick_1">
     <g id="line2d_1">
      <defs>
       <path d="M 0 0 
L 0 3.5 
" id="m5d53af2aeb" style="stroke:#000000;stroke-width:0.8;"/>
      </defs>
      <g>
       <use style="stroke:#000000;stroke-width:0.8;" x="69.466995" xlink:href="#m5d53af2aeb" y="81.44234"/>
      </g>
     </g>
     <g id="text_1">
      <!-- 0 -->
      <g transform="translate(66.285745 96.040777)scale(0.1 -0.1)">
       <defs>
        <path d="M 2034 4250 
Q 1547 4250 1301 3770 
Q 1056 3291 1056 2328 
Q 1056 1369 1301 889 
Q 1547 409 2034 409 
Q 2525 409 2770 889 
Q 3016 1369 3016 2328 
Q 3016 3291 2770 3770 
Q 2525 4250 2034 4250 
z
M 2034 4750 
Q 2819 4750 3233 4129 
Q 3647 3509 3647 2328 
Q 3647 1150 3233 529 
Q 2819 -91 2034 -91 
Q 1250 -91 836 529 
Q 422 1150 422 2328 
Q 422 3509 836 4129 
Q 1250 4750 2034 4750 
z
" id="DejaVuSans-30" transform="scale(0.015625)"/>
       </defs>
       <use xlink:href="#DejaVuSans-30"/>
      </g>
     </g>
    </g>
    <g id="xtick_2">
     <g id="line2d_2">
      <g>
       <use style="stroke:#000000;stroke-width:0.8;" x="139.465094" xlink:href="#m5d53af2aeb" y="81.44234"/>
      </g>
     </g>
     <g id="text_2">
      <!-- 20 -->
      <g transform="translate(133.102594 96.040777)scale(0.1 -0.1)">
       <defs>
        <path d="M 1228 531 
L 3431 531 
L 3431 0 
L 469 0 
L 469 531 
Q 828 903 1448 1529 
Q 2069 2156 2228 2338 
Q 2531 2678 2651 2914 
Q 2772 3150 2772 3378 
Q 2772 3750 2511 3984 
Q 2250 4219 1831 4219 
Q 1534 4219 1204 4116 
Q 875 4013 500 3803 
L 500 4441 
Q 881 4594 1212 4672 
Q 1544 4750 1819 4750 
Q 2544 4750 2975 4387 
Q 3406 4025 3406 3419 
Q 3406 3131 3298 2873 
Q 3191 2616 2906 2266 
Q 2828 2175 2409 1742 
Q 1991 1309 1228 531 
z
" id="DejaVuSans-32" transform="scale(0.015625)"/>
       </defs>
       <use xlink:href="#DejaVuSans-32"/>
       <use x="63.623047" xlink:href="#DejaVuSans-30"/>
      </g>
     </g>
    </g>
    <g id="xtick_3">
     <g id="line2d_3">
      <g>
       <use style="stroke:#000000;stroke-width:0.8;" x="209.463193" xlink:href="#m5d53af2aeb" y="81.44234"/>
      </g>
     </g>
     <g id="text_3">
      <!-- 40 -->
      <g transform="translate(203.100693 96.040777)scale(0.1 -0.1)">
       <defs>
        <path d="M 2419 4116 
L 825 1625 
L 2419 1625 
L 2419 4116 
z
M 2253 4666 
L 3047 4666 
L 3047 1625 
L 3713 1625 
L 3713 1100 
L 3047 1100 
L 3047 0 
L 2419 0 
L 2419 1100 
L 313 1100 
L 313 1709 
L 2253 4666 
z
" id="DejaVuSans-34" transform="scale(0.015625)"/>
       </defs>
       <use xlink:href="#DejaVuSans-34"/>
       <use x="63.623047" xlink:href="#DejaVuSans-30"/>
      </g>
     </g>
    </g>
    <g id="xtick_4">
     <g id="line2d_4">
      <g>
       <use style="stroke:#000000;stroke-width:0.8;" x="279.461292" xlink:href="#m5d53af2aeb" y="81.44234"/>
      </g>
     </g>
     <g id="text_4">
      <!-- 60 -->
      <g transform="translate(273.098792 96.040777)scale(0.1 -0.1)">
       <defs>
        <path d="M 2113 2584 
Q 1688 2584 1439 2293 
Q 1191 2003 1191 1497 
Q 1191 994 1439 701 
Q 1688 409 2113 409 
Q 2538 409 2786 701 
Q 3034 994 3034 1497 
Q 3034 2003 2786 2293 
Q 2538 2584 2113 2584 
z
M 3366 4563 
L 3366 3988 
Q 3128 4100 2886 4159 
Q 2644 4219 2406 4219 
Q 1781 4219 1451 3797 
Q 1122 3375 1075 2522 
Q 1259 2794 1537 2939 
Q 1816 3084 2150 3084 
Q 2853 3084 3261 2657 
Q 3669 2231 3669 1497 
Q 3669 778 3244 343 
Q 2819 -91 2113 -91 
Q 1303 -91 875 529 
Q 447 1150 447 2328 
Q 447 3434 972 4092 
Q 1497 4750 2381 4750 
Q 2619 4750 2861 4703 
Q 3103 4656 3366 4563 
z
" id="DejaVuSans-36" transform="scale(0.015625)"/>
       </defs>
       <use xlink:href="#DejaVuSans-36"/>
       <use x="63.623047" xlink:href="#DejaVuSans-30"/>
      </g>
     </g>
    </g>
    <g id="xtick_5">
     <g id="line2d_5">
      <g>
       <use style="stroke:#000000;stroke-width:0.8;" x="349.459391" xlink:href="#m5d53af2aeb" y="81.44234"/>
      </g>
     </g>
     <g id="text_5">
      <!-- 80 -->
      <g transform="translate(343.096891 96.040777)scale(0.1 -0.1)">
       <defs>
        <path d="M 2034 2216 
Q 1584 2216 1326 1975 
Q 1069 1734 1069 1313 
Q 1069 891 1326 650 
Q 1584 409 2034 409 
Q 2484 409 2743 651 
Q 3003 894 3003 1313 
Q 3003 1734 2745 1975 
Q 2488 2216 2034 2216 
z
M 1403 2484 
Q 997 2584 770 2862 
Q 544 3141 544 3541 
Q 544 4100 942 4425 
Q 1341 4750 2034 4750 
Q 2731 4750 3128 4425 
Q 3525 4100 3525 3541 
Q 3525 3141 3298 2862 
Q 3072 2584 2669 2484 
Q 3125 2378 3379 2068 
Q 3634 1759 3634 1313 
Q 3634 634 3220 271 
Q 2806 -91 2034 -91 
Q 1263 -91 848 271 
Q 434 634 434 1313 
Q 434 1759 690 2068 
Q 947 2378 1403 2484 
z
M 1172 3481 
Q 1172 3119 1398 2916 
Q 1625 2713 2034 2713 
Q 2441 2713 2670 2916 
Q 2900 3119 2900 3481 
Q 2900 3844 2670 4047 
Q 2441 4250 2034 4250 
Q 1625 4250 1398 4047 
Q 1172 3844 1172 3481 
z
" id="DejaVuSans-38" transform="scale(0.015625)"/>
       </defs>
       <use xlink:href="#DejaVuSans-38"/>
       <use x="63.623047" xlink:href="#DejaVuSans-30"/>
      </g>
     </g>
    </g>
    <g id="xtick_6">
     <g id="line2d_6">
      <g>
       <use style="stroke:#000000;stroke-width:0.8;" x="419.457489" xlink:href="#m5d53af2aeb" y="81.44234"/>
      </g>
     </g>
     <g id="text_6">
      <!-- 100 -->
      <g transform="translate(409.913739 96.040777)scale(0.1 -0.1)">
       <defs>
        <path d="M 794 531 
L 1825 531 
L 1825 4091 
L 703 3866 
L 703 4441 
L 1819 4666 
L 2450 4666 
L 2450 531 
L 3481 531 
L 3481 0 
L 794 0 
L 794 531 
z
" id="DejaVuSans-31" transform="scale(0.015625)"/>
       </defs>
       <use xlink:href="#DejaVuSans-31"/>
       <use x="63.623047" xlink:href="#DejaVuSans-30"/>
       <use x="127.246094" xlink:href="#DejaVuSans-30"/>
      </g>
     </g>
    </g>
    <g id="text_7">
     <!-- Mean lifetime (us) -->
     <g transform="translate(207.9995 109.718902)scale(0.1 -0.1)">
      <defs>
       <path d="M 628 4666 
L 1569 4666 
L 2759 1491 
L 3956 4666 
L 4897 4666 
L 4897 0 
L 4281 0 
L 4281 4097 
L 3078 897 
L 2444 897 
L 1241 4097 
L 1241 0 
L 628 0 
L 628 4666 
z
" id="DejaVuSans-4d" transform="scale(0.015625)"/>
       <path d="M 3597 1894 
L 3597 1613 
L 953 1613 
Q 991 1019 1311 708 
Q 1631 397 2203 397 
Q 2534 397 2845 478 
Q 3156 559 3463 722 
L 3463 178 
Q 3153 47 2828 -22 
Q 2503 -91 2169 -91 
Q 1331 -91 842 396 
Q 353 884 353 1716 
Q 353 2575 817 3079 
Q 1281 3584 2069 3584 
Q 2775 3584 3186 3129 
Q 3597 2675 3597 1894 
z
M 3022 2063 
Q 3016 2534 2758 2815 
Q 2500 3097 2075 3097 
Q 1594 3097 1305 2825 
Q 1016 2553 972 2059 
L 3022 2063 
z
" id="DejaVuSans-65" transform="scale(0.015625)"/>
       <path d="M 2194 1759 
Q 1497 1759 1228 1600 
Q 959 1441 959 1056 
Q 959 750 1161 570 
Q 1363 391 1709 391 
Q 2188 391 2477 730 
Q 2766 1069 2766 1631 
L 2766 1759 
L 2194 1759 
z
M 3341 1997 
L 3341 0 
L 2766 0 
L 2766 531 
Q 2569 213 2275 61 
Q 1981 -91 1556 -91 
Q 1019 -91 701 211 
Q 384 513 384 1019 
Q 384 1609 779 1909 
Q 1175 2209 1959 2209 
L 2766 2209 
L 2766 2266 
Q 2766 2663 2505 2880 
Q 2244 3097 1772 3097 
Q 1472 3097 1187 3025 
Q 903 2953 641 2809 
L 641 3341 
Q 956 3463 1253 3523 
Q 1550 3584 1831 3584 
Q 2591 3584 2966 3190 
Q 3341 2797 3341 1997 
z
" id="DejaVuSans-61" transform="scale(0.015625)"/>
       <path d="M 3513 2113 
L 3513 0 
L 2938 0 
L 2938 2094 
Q 2938 2591 2744 2837 
Q 2550 3084 2163 3084 
Q 1697 3084 1428 2787 
Q 1159 2491 1159 1978 
L 1159 0 
L 581 0 
L 581 3500 
L 1159 3500 
L 1159 2956 
Q 1366 3272 1645 3428 
Q 1925 3584 2291 3584 
Q 2894 3584 3203 3211 
Q 3513 2838 3513 2113 
z
" id="DejaVuSans-6e" transform="scale(0.015625)"/>
       <path id="DejaVuSans-20" transform="scale(0.015625)"/>
       <path d="M 603 4863 
L 1178 4863 
L 1178 0 
L 603 0 
L 603 4863 
z
" id="DejaVuSans-6c" transform="scale(0.015625)"/>
       <path d="M 603 3500 
L 1178 3500 
L 1178 0 
L 603 0 
L 603 3500 
z
M 603 4863 
L 1178 4863 
L 1178 4134 
L 603 4134 
L 603 4863 
z
" id="DejaVuSans-69" transform="scale(0.015625)"/>
       <path d="M 2375 4863 
L 2375 4384 
L 1825 4384 
Q 1516 4384 1395 4259 
Q 1275 4134 1275 3809 
L 1275 3500 
L 2222 3500 
L 2222 3053 
L 1275 3053 
L 1275 0 
L 697 0 
L 697 3053 
L 147 3053 
L 147 3500 
L 697 3500 
L 697 3744 
Q 697 4328 969 4595 
Q 1241 4863 1831 4863 
L 2375 4863 
z
" id="DejaVuSans-66" transform="scale(0.015625)"/>
       <path d="M 1172 4494 
L 1172 3500 
L 2356 3500 
L 2356 3053 
L 1172 3053 
L 1172 1153 
Q 1172 725 1289 603 
Q 1406 481 1766 481 
L 2356 481 
L 2356 0 
L 1766 0 
Q 1100 0 847 248 
Q 594 497 594 1153 
L 594 3053 
L 172 3053 
L 172 3500 
L 594 3500 
L 594 4494 
L 1172 4494 
z
" id="DejaVuSans-74" transform="scale(0.015625)"/>
       <path d="M 3328 2828 
Q 3544 3216 3844 3400 
Q 4144 3584 4550 3584 
Q 5097 3584 5394 3201 
Q 5691 2819 5691 2113 
L 5691 0 
L 5113 0 
L 5113 2094 
Q 5113 2597 4934 2840 
Q 4756 3084 4391 3084 
Q 3944 3084 3684 2787 
Q 3425 2491 3425 1978 
L 3425 0 
L 2847 0 
L 2847 2094 
Q 2847 2600 2669 2842 
Q 2491 3084 2119 3084 
Q 1678 3084 1418 2786 
Q 1159 2488 1159 1978 
L 1159 0 
L 581 0 
L 581 3500 
L 1159 3500 
L 1159 2956 
Q 1356 3278 1631 3431 
Q 1906 3584 2284 3584 
Q 2666 3584 2933 3390 
Q 3200 3197 3328 2828 
z
" id="DejaVuSans-6d" transform="scale(0.015625)"/>
       <path d="M 1984 4856 
Q 1566 4138 1362 3434 
Q 1159 2731 1159 2009 
Q 1159 1288 1364 580 
Q 1569 -128 1984 -844 
L 1484 -844 
Q 1016 -109 783 600 
Q 550 1309 550 2009 
Q 550 2706 781 3412 
Q 1013 4119 1484 4856 
L 1984 4856 
z
" id="DejaVuSans-28" transform="scale(0.015625)"/>
       <path d="M 544 1381 
L 544 3500 
L 1119 3500 
L 1119 1403 
Q 1119 906 1312 657 
Q 1506 409 1894 409 
Q 2359 409 2629 706 
Q 2900 1003 2900 1516 
L 2900 3500 
L 3475 3500 
L 3475 0 
L 2900 0 
L 2900 538 
Q 2691 219 2414 64 
Q 2138 -91 1772 -91 
Q 1169 -91 856 284 
Q 544 659 544 1381 
z
M 1991 3584 
L 1991 3584 
z
" id="DejaVuSans-75" transform="scale(0.015625)"/>
       <path d="M 2834 3397 
L 2834 2853 
Q 2591 2978 2328 3040 
Q 2066 3103 1784 3103 
Q 1356 3103 1142 2972 
Q 928 2841 928 2578 
Q 928 2378 1081 2264 
Q 1234 2150 1697 2047 
L 1894 2003 
Q 2506 1872 2764 1633 
Q 3022 1394 3022 966 
Q 3022 478 2636 193 
Q 2250 -91 1575 -91 
Q 1294 -91 989 -36 
Q 684 19 347 128 
L 347 722 
Q 666 556 975 473 
Q 1284 391 1588 391 
Q 1994 391 2212 530 
Q 2431 669 2431 922 
Q 2431 1156 2273 1281 
Q 2116 1406 1581 1522 
L 1381 1569 
Q 847 1681 609 1914 
Q 372 2147 372 2553 
Q 372 3047 722 3315 
Q 1072 3584 1716 3584 
Q 2034 3584 2315 3537 
Q 2597 3491 2834 3397 
z
" id="DejaVuSans-73" transform="scale(0.015625)"/>
       <path d="M 513 4856 
L 1013 4856 
Q 1481 4119 1714 3412 
Q 1947 2706 1947 2009 
Q 1947 1309 1714 600 
Q 1481 -109 1013 -844 
L 513 -844 
Q 928 -128 1133 580 
Q 1338 1288 1338 2009 
Q 1338 2731 1133 3434 
Q 928 4138 513 4856 
z
" id="DejaVuSans-29" transform="scale(0.015625)"/>
      </defs>
      <use xlink:href="#DejaVuSans-4d"/>
      <use x="86.279297" xlink:href="#DejaVuSans-65"/>
      <use x="147.802734" xlink:href="#DejaVuSans-61"/>
      <use x="209.082031" xlink:href="#DejaVuSans-6e"/>
      <use x="272.460938" xlink:href="#DejaVuSans-20"/>
      <use x="304.248047" xlink:href="#DejaVuSans-6c"/>
      <use x="332.03125" xlink:href="#DejaVuSans-69"/>
      <use x="359.814453" xlink:href="#DejaVuSans-66"/>
      <use x="395.019531" xlink:href="#DejaVuSans-65"/>
      <use x="456.542969" xlink:href="#DejaVuSans-74"/>
      <use x="495.751953" xlink:href="#DejaVuSans-69"/>
      <use x="523.535156" xlink:href="#DejaVuSans-6d"/>
      <use x="620.947266" xlink:href="#DejaVuSans-65"/>
      <use x="682.470703" xlink:href="#DejaVuSans-20"/>
      <use x="714.257812" xlink:href="#DejaVuSans-28"/>
      <use x="753.271484" xlink:href="#DejaVuSans-75"/>
      <use x="816.650391" xlink:href="#DejaVuSans-73"/>
      <use x="868.75" xlink:href="#DejaVuSans-29"/>
     </g>
    </g>
   </g>
   <g id="matplotlib.axis_2">
    <g id="ytick_1">
     <g id="line2d_7">
      <defs>
       <path d="M 0 0 
L -3.5 0 
" id="md2fb425906" style="stroke:#000000;stroke-width:0.8;"/>
      </defs>
      <g>
       <use style="stroke:#000000;stroke-width:0.8;" x="64.694" xlink:href="#md2fb425906" y="81.44234"/>
      </g>
     </g>
     <g id="text_8">
      <!-- 0 -->
      <g transform="translate(51.3315 85.241559)scale(0.1 -0.1)">
       <use xlink:href="#DejaVuSans-30"/>
      </g>
     </g>
    </g>
    <g id="ytick_2">
     <g id="line2d_8">
      <g>
       <use style="stroke:#000000;stroke-width:0.8;" x="64.694" xlink:href="#md2fb425906" y="54.643089"/>
      </g>
     </g>
     <g id="text_9">
      <!-- 50 -->
      <g transform="translate(44.969 58.442308)scale(0.1 -0.1)">
       <defs>
        <path d="M 691 4666 
L 3169 4666 
L 3169 4134 
L 1269 4134 
L 1269 2991 
Q 1406 3038 1543 3061 
Q 1681 3084 1819 3084 
Q 2600 3084 3056 2656 
Q 3513 2228 3513 1497 
Q 3513 744 3044 326 
Q 2575 -91 1722 -91 
Q 1428 -91 1123 -41 
Q 819 9 494 109 
L 494 744 
Q 775 591 1075 516 
Q 1375 441 1709 441 
Q 2250 441 2565 725 
Q 2881 1009 2881 1497 
Q 2881 1984 2565 2268 
Q 2250 2553 1709 2553 
Q 1456 2553 1204 2497 
Q 953 2441 691 2322 
L 691 4666 
z
" id="DejaVuSans-35" transform="scale(0.015625)"/>
       </defs>
       <use xlink:href="#DejaVuSans-35"/>
       <use x="63.623047" xlink:href="#DejaVuSans-30"/>
      </g>
     </g>
    </g>
    <g id="ytick_3">
     <g id="line2d_9">
      <g>
       <use style="stroke:#000000;stroke-width:0.8;" x="64.694" xlink:href="#md2fb425906" y="27.843838"/>
      </g>
     </g>
     <g id="text_10">
      <!-- 100 -->
      <g transform="translate(38.6065 31.643057)scale(0.1 -0.1)">
       <use xlink:href="#DejaVuSans-31"/>
       <use x="63.623047" xlink:href="#DejaVuSans-30"/>
       <use x="127.246094" xlink:href="#DejaVuSans-30"/>
      </g>
     </g>
    </g>
    <g id="text_11">
     <!-- Number of decays -->
     <g transform="translate(32.526812 93.636644)rotate(-90)scale(0.1 -0.1)">
      <defs>
       <path d="M 628 4666 
L 1478 4666 
L 3547 763 
L 3547 4666 
L 4159 4666 
L 4159 0 
L 3309 0 
L 1241 3903 
L 1241 0 
L 628 0 
L 628 4666 
z
" id="DejaVuSans-4e" transform="scale(0.015625)"/>
       <path d="M 3116 1747 
Q 3116 2381 2855 2742 
Q 2594 3103 2138 3103 
Q 1681 3103 1420 2742 
Q 1159 2381 1159 1747 
Q 1159 1113 1420 752 
Q 1681 391 2138 391 
Q 2594 391 2855 752 
Q 3116 1113 3116 1747 
z
M 1159 2969 
Q 1341 3281 1617 3432 
Q 1894 3584 2278 3584 
Q 2916 3584 3314 3078 
Q 3713 2572 3713 1747 
Q 3713 922 3314 415 
Q 2916 -91 2278 -91 
Q 1894 -91 1617 61 
Q 1341 213 1159 525 
L 1159 0 
L 581 0 
L 581 4863 
L 1159 4863 
L 1159 2969 
z
" id="DejaVuSans-62" transform="scale(0.015625)"/>
       <path d="M 2631 2963 
Q 2534 3019 2420 3045 
Q 2306 3072 2169 3072 
Q 1681 3072 1420 2755 
Q 1159 2438 1159 1844 
L 1159 0 
L 581 0 
L 581 3500 
L 1159 3500 
L 1159 2956 
Q 1341 3275 1631 3429 
Q 1922 3584 2338 3584 
Q 2397 3584 2469 3576 
Q 2541 3569 2628 3553 
L 2631 2963 
z
" id="DejaVuSans-72" transform="scale(0.015625)"/>
       <path d="M 1959 3097 
Q 1497 3097 1228 2736 
Q 959 2375 959 1747 
Q 959 1119 1226 758 
Q 1494 397 1959 397 
Q 2419 397 2687 759 
Q 2956 1122 2956 1747 
Q 2956 2369 2687 2733 
Q 2419 3097 1959 3097 
z
M 1959 3584 
Q 2709 3584 3137 3096 
Q 3566 2609 3566 1747 
Q 3566 888 3137 398 
Q 2709 -91 1959 -91 
Q 1206 -91 779 398 
Q 353 888 353 1747 
Q 353 2609 779 3096 
Q 1206 3584 1959 3584 
z
" id="DejaVuSans-6f" transform="scale(0.015625)"/>
       <path d="M 2906 2969 
L 2906 4863 
L 3481 4863 
L 3481 0 
L 2906 0 
L 2906 525 
Q 2725 213 2448 61 
Q 2172 -91 1784 -91 
Q 1150 -91 751 415 
Q 353 922 353 1747 
Q 353 2572 751 3078 
Q 1150 3584 1784 3584 
Q 2172 3584 2448 3432 
Q 2725 3281 2906 2969 
z
M 947 1747 
Q 947 1113 1208 752 
Q 1469 391 1925 391 
Q 2381 391 2643 752 
Q 2906 1113 2906 1747 
Q 2906 2381 2643 2742 
Q 2381 3103 1925 3103 
Q 1469 3103 1208 2742 
Q 947 2381 947 1747 
z
" id="DejaVuSans-64" transform="scale(0.015625)"/>
       <path d="M 3122 3366 
L 3122 2828 
Q 2878 2963 2633 3030 
Q 2388 3097 2138 3097 
Q 1578 3097 1268 2742 
Q 959 2388 959 1747 
Q 959 1106 1268 751 
Q 1578 397 2138 397 
Q 2388 397 2633 464 
Q 2878 531 3122 666 
L 3122 134 
Q 2881 22 2623 -34 
Q 2366 -91 2075 -91 
Q 1284 -91 818 406 
Q 353 903 353 1747 
Q 353 2603 823 3093 
Q 1294 3584 2113 3584 
Q 2378 3584 2631 3529 
Q 2884 3475 3122 3366 
z
" id="DejaVuSans-63" transform="scale(0.015625)"/>
       <path d="M 2059 -325 
Q 1816 -950 1584 -1140 
Q 1353 -1331 966 -1331 
L 506 -1331 
L 506 -850 
L 844 -850 
Q 1081 -850 1212 -737 
Q 1344 -625 1503 -206 
L 1606 56 
L 191 3500 
L 800 3500 
L 1894 763 
L 2988 3500 
L 3597 3500 
L 2059 -325 
z
" id="DejaVuSans-79" transform="scale(0.015625)"/>
      </defs>
      <use xlink:href="#DejaVuSans-4e"/>
      <use x="74.804688" xlink:href="#DejaVuSans-75"/>
      <use x="138.183594" xlink:href="#DejaVuSans-6d"/>
      <use x="235.595703" xlink:href="#DejaVuSans-62"/>
      <use x="299.072266" xlink:href="#DejaVuSans-65"/>
      <use x="360.595703" xlink:href="#DejaVuSans-72"/>
      <use x="401.708984" xlink:href="#DejaVuSans-20"/>
      <use x="433.496094" xlink:href="#DejaVuSans-6f"/>
      <use x="494.677734" xlink:href="#DejaVuSans-66"/>
      <use x="529.882812" xlink:href="#DejaVuSans-20"/>
      <use x="561.669922" xlink:href="#DejaVuSans-64"/>
      <use x="625.146484" xlink:href="#DejaVuSans-65"/>
      <use x="686.669922" xlink:href="#DejaVuSans-63"/>
      <use x="741.650391" xlink:href="#DejaVuSans-61"/>
      <use x="802.929688" xlink:href="#DejaVuSans-79"/>
      <use x="862.109375" xlink:href="#DejaVuSans-73"/>
     </g>
    </g>
   </g>
   <g id="LineCollection_1">
    <path clip-path="url(#p143cdaf590)" d="M 87.565879 44.3692 
L 87.565879 34.901817 
" style="fill:none;stroke:#000000;stroke-width:1.5;"/>
    <path clip-path="url(#p143cdaf590)" d="M 99.001818 58.433075 
L 99.001818 50.853103 
" style="fill:none;stroke:#000000;stroke-width:1.5;"/>
    <path clip-path="url(#p143cdaf590)" d="M 110.437758 72.164662 
L 110.437758 67.136677 
" style="fill:none;stroke:#000000;stroke-width:1.5;"/>
    <path clip-path="url(#p143cdaf590)" d="M 121.873697 71.685178 
L 121.873697 66.544191 
" style="fill:none;stroke:#000000;stroke-width:1.5;"/>
    <path clip-path="url(#p143cdaf590)" d="M 133.309636 73.119637 
L 133.309636 68.325642 
" style="fill:none;stroke:#000000;stroke-width:1.5;"/>
    <path clip-path="url(#p143cdaf590)" d="M 144.745576 72.164662 
L 144.745576 67.136677 
" style="fill:none;stroke:#000000;stroke-width:1.5;"/>
    <path clip-path="url(#p143cdaf590)" d="M 156.181515 75.478426 
L 156.181515 71.326704 
" style="fill:none;stroke:#000000;stroke-width:1.5;"/>
    <path clip-path="url(#p143cdaf590)" d="M 167.617455 65.853794 
L 167.617455 59.511934 
" style="fill:none;stroke:#000000;stroke-width:1.5;"/>
    <path clip-path="url(#p143cdaf590)" d="M 179.053394 62.404549 
L 179.053394 55.457389 
" style="fill:none;stroke:#000000;stroke-width:1.5;"/>
    <path clip-path="url(#p143cdaf590)" d="M 190.489333 70.722639 
L 190.489333 65.362789 
" style="fill:none;stroke:#000000;stroke-width:1.5;"/>
    <path clip-path="url(#p143cdaf590)" d="M 201.925273 71.685178 
L 201.925273 66.544191 
" style="fill:none;stroke:#000000;stroke-width:1.5;"/>
    <path clip-path="url(#p143cdaf590)" d="M 213.361212 67.811043 
L 213.361212 61.842566 
" style="fill:none;stroke:#000000;stroke-width:1.5;"/>
    <path clip-path="url(#p143cdaf590)" d="M 224.797152 73.119637 
L 224.797152 68.325642 
" style="fill:none;stroke:#000000;stroke-width:1.5;"/>
    <path clip-path="url(#p143cdaf590)" d="M 236.233091 70.722639 
L 236.233091 65.362789 
" style="fill:none;stroke:#000000;stroke-width:1.5;"/>
    <path clip-path="url(#p143cdaf590)" d="M 247.66903 70.722639 
L 247.66903 65.362789 
" style="fill:none;stroke:#000000;stroke-width:1.5;"/>
    <path clip-path="url(#p143cdaf590)" d="M 259.10497 70.722639 
L 259.10497 65.362789 
" style="fill:none;stroke:#000000;stroke-width:1.5;"/>
    <path clip-path="url(#p143cdaf590)" d="M 270.540909 71.685178 
L 270.540909 66.544191 
" style="fill:none;stroke:#000000;stroke-width:1.5;"/>
    <path clip-path="url(#p143cdaf590)" d="M 281.976848 71.685178 
L 281.976848 66.544191 
" style="fill:none;stroke:#000000;stroke-width:1.5;"/>
    <path clip-path="url(#p143cdaf590)" d="M 293.412788 73.119637 
L 293.412788 68.325642 
" style="fill:none;stroke:#000000;stroke-width:1.5;"/>
    <path clip-path="url(#p143cdaf590)" d="M 304.848727 75.478426 
L 304.848727 71.326704 
" style="fill:none;stroke:#000000;stroke-width:1.5;"/>
    <path clip-path="url(#p143cdaf590)" d="M 316.284667 69.755804 
L 316.284667 64.185685 
" style="fill:none;stroke:#000000;stroke-width:1.5;"/>
    <path clip-path="url(#p143cdaf590)" d="M 327.720606 68.785142 
L 327.720606 63.012407 
" style="fill:none;stroke:#000000;stroke-width:1.5;"/>
    <path clip-path="url(#p143cdaf590)" d="M 339.156545 75.01052 
L 339.156545 70.722639 
" style="fill:none;stroke:#000000;stroke-width:1.5;"/>
    <path clip-path="url(#p143cdaf590)" d="M 350.592485 75.01052 
L 350.592485 70.722639 
" style="fill:none;stroke:#000000;stroke-width:1.5;"/>
    <path clip-path="url(#p143cdaf590)" d="M 362.028424 70.722639 
L 362.028424 65.362789 
" style="fill:none;stroke:#000000;stroke-width:1.5;"/>
    <path clip-path="url(#p143cdaf590)" d="M 373.464364 71.204479 
L 373.464364 65.95292 
" style="fill:none;stroke:#000000;stroke-width:1.5;"/>
    <path clip-path="url(#p143cdaf590)" d="M 384.900303 72.642846 
L 384.900303 67.730463 
" style="fill:none;stroke:#000000;stroke-width:1.5;"/>
    <path clip-path="url(#p143cdaf590)" d="M 396.336242 68.2985 
L 396.336242 62.427078 
" style="fill:none;stroke:#000000;stroke-width:1.5;"/>
    <path clip-path="url(#p143cdaf590)" d="M 407.772182 68.2985 
L 407.772182 62.427078 
" style="fill:none;stroke:#000000;stroke-width:1.5;"/>
    <path clip-path="url(#p143cdaf590)" d="M 419.208121 76.407056 
L 419.208121 72.542013 
" style="fill:none;stroke:#000000;stroke-width:1.5;"/>
   </g>
   <g id="line2d_10">
    <path clip-path="url(#p143cdaf590)" d="M 81.847909 17.599644 
L 93.283848 51.328189 
L 104.719788 62.832089 
L 116.155727 66.75576 
L 127.591667 68.094018 
L 139.027606 68.550462 
L 150.463545 68.706143 
L 161.899485 68.759241 
L 173.335424 68.777352 
L 184.771364 68.783529 
L 196.207303 68.785636 
L 207.643242 68.786354 
L 219.079182 68.786599 
L 230.515121 68.786683 
L 241.951061 68.786712 
L 253.387 68.786721 
L 264.822939 68.786725 
L 276.258879 68.786726 
L 287.694818 68.786726 
L 299.130758 68.786726 
L 310.566697 68.786726 
L 322.002636 68.786726 
L 333.438576 68.786726 
L 344.874515 68.786726 
L 356.310455 68.786726 
L 367.746394 68.786726 
L 379.182333 68.786726 
L 390.618273 68.786726 
L 402.054212 68.786726 
L 413.490152 68.786726 
L 424.926091 68.786726 
" style="fill:none;stroke:#ff8c00;stroke-linecap:square;stroke-width:2;"/>
   </g>
   <g id="line2d_11"/>
   <g id="patch_33">
    <path d="M 64.694 81.44234 
L 64.694 14.40751 
" style="fill:none;stroke:#000000;stroke-linecap:square;stroke-linejoin:miter;stroke-width:0.8;"/>
   </g>
   <g id="patch_34">
    <path d="M 442.08 81.44234 
L 442.08 14.40751 
" style="fill:none;stroke:#000000;stroke-linecap:square;stroke-linejoin:miter;stroke-width:0.8;"/>
   </g>
   <g id="patch_35">
    <path d="M 64.694 81.44234 
L 442.08 81.44234 
" style="fill:none;stroke:#000000;stroke-linecap:square;stroke-linejoin:miter;stroke-width:0.8;"/>
   </g>
   <g id="patch_36">
    <path d="M 64.694 14.40751 
L 442.08 14.40751 
" style="fill:none;stroke:#000000;stroke-linecap:square;stroke-linejoin:miter;stroke-width:0.8;"/>
   </g>
   <g id="text_12">
    <!-- $y = ae^{-\lambda x}+c; T_{½}\doteq $3.0377 -->
    <g transform="translate(219.962908 20.876033)scale(0.1 -0.1)">
     <defs>
      <path d="M 1588 -325 
Q 1188 -997 936 -1164 
Q 684 -1331 294 -1331 
L -159 -1331 
L -63 -850 
L 269 -850 
Q 509 -850 678 -719 
Q 847 -588 1056 -206 
L 1234 128 
L 459 3500 
L 1069 3500 
L 1650 819 
L 3256 3500 
L 3859 3500 
L 1588 -325 
z
" id="DejaVuSans-Oblique-79" transform="scale(0.015625)"/>
      <path d="M 678 2906 
L 4684 2906 
L 4684 2381 
L 678 2381 
L 678 2906 
z
M 678 1631 
L 4684 1631 
L 4684 1100 
L 678 1100 
L 678 1631 
z
" id="DejaVuSans-3d" transform="scale(0.015625)"/>
      <path d="M 3438 1997 
L 3047 0 
L 2472 0 
L 2578 531 
Q 2325 219 2001 64 
Q 1678 -91 1281 -91 
Q 834 -91 548 182 
Q 263 456 263 884 
Q 263 1497 752 1853 
Q 1241 2209 2100 2209 
L 2900 2209 
L 2931 2363 
Q 2938 2388 2941 2417 
Q 2944 2447 2944 2509 
Q 2944 2788 2717 2942 
Q 2491 3097 2081 3097 
Q 1800 3097 1504 3025 
Q 1209 2953 897 2809 
L 997 3341 
Q 1322 3463 1633 3523 
Q 1944 3584 2234 3584 
Q 2853 3584 3176 3315 
Q 3500 3047 3500 2534 
Q 3500 2431 3484 2292 
Q 3469 2153 3438 1997 
z
M 2816 1759 
L 2241 1759 
Q 1534 1759 1195 1570 
Q 856 1381 856 984 
Q 856 709 1029 553 
Q 1203 397 1509 397 
Q 1978 397 2328 733 
Q 2678 1069 2791 1631 
L 2816 1759 
z
" id="DejaVuSans-Oblique-61" transform="scale(0.015625)"/>
      <path d="M 3078 2063 
Q 3088 2113 3092 2166 
Q 3097 2219 3097 2272 
Q 3097 2653 2873 2875 
Q 2650 3097 2266 3097 
Q 1838 3097 1509 2826 
Q 1181 2556 1013 2059 
L 3078 2063 
z
M 3578 1613 
L 903 1613 
Q 884 1494 878 1425 
Q 872 1356 872 1306 
Q 872 872 1139 634 
Q 1406 397 1894 397 
Q 2269 397 2603 481 
Q 2938 566 3225 728 
L 3116 159 
Q 2806 34 2476 -28 
Q 2147 -91 1806 -91 
Q 1078 -91 686 257 
Q 294 606 294 1247 
Q 294 1794 489 2264 
Q 684 2734 1063 3103 
Q 1306 3334 1642 3459 
Q 1978 3584 2356 3584 
Q 2950 3584 3301 3228 
Q 3653 2872 3653 2272 
Q 3653 2128 3634 1964 
Q 3616 1800 3578 1613 
z
" id="DejaVuSans-Oblique-65" transform="scale(0.015625)"/>
      <path d="M 678 2272 
L 4684 2272 
L 4684 1741 
L 678 1741 
L 678 2272 
z
" id="DejaVuSans-2212" transform="scale(0.015625)"/>
      <path d="M 2350 4316 
L 3125 0 
L 2516 0 
L 2038 2588 
L 328 0 
L -281 0 
L 1903 3356 
L 1794 3975 
Q 1725 4369 1391 4369 
L 1091 4369 
L 1184 4863 
L 1550 4856 
Q 2253 4847 2350 4316 
z
" id="DejaVuSans-Oblique-3bb" transform="scale(0.015625)"/>
      <path d="M 3841 3500 
L 2234 1784 
L 3219 0 
L 2559 0 
L 1819 1388 
L 531 0 
L -166 0 
L 1556 1844 
L 641 3500 
L 1300 3500 
L 1972 2234 
L 3144 3500 
L 3841 3500 
z
" id="DejaVuSans-Oblique-78" transform="scale(0.015625)"/>
      <path d="M 2944 4013 
L 2944 2272 
L 4684 2272 
L 4684 1741 
L 2944 1741 
L 2944 0 
L 2419 0 
L 2419 1741 
L 678 1741 
L 678 2272 
L 2419 2272 
L 2419 4013 
L 2944 4013 
z
" id="DejaVuSans-2b" transform="scale(0.015625)"/>
      <path d="M 3431 3366 
L 3316 2797 
Q 3109 2947 2876 3022 
Q 2644 3097 2394 3097 
Q 2119 3097 1870 3000 
Q 1622 2903 1453 2725 
Q 1184 2453 1037 2087 
Q 891 1722 891 1331 
Q 891 859 1127 628 
Q 1363 397 1844 397 
Q 2081 397 2348 469 
Q 2616 541 2906 684 
L 2797 116 
Q 2547 13 2283 -39 
Q 2019 -91 1741 -91 
Q 1044 -91 669 257 
Q 294 606 294 1253 
Q 294 1797 489 2255 
Q 684 2713 1069 3078 
Q 1331 3328 1684 3456 
Q 2038 3584 2456 3584 
Q 2700 3584 2940 3529 
Q 3181 3475 3431 3366 
z
" id="DejaVuSans-Oblique-63" transform="scale(0.015625)"/>
      <path d="M 750 3309 
L 1409 3309 
L 1409 2516 
L 750 2516 
L 750 3309 
z
M 750 794 
L 1409 794 
L 1409 256 
L 897 -744 
L 494 -744 
L 750 256 
L 750 794 
z
" id="DejaVuSans-3b" transform="scale(0.015625)"/>
      <path d="M 378 4666 
L 4325 4666 
L 4225 4134 
L 2559 4134 
L 1759 0 
L 1125 0 
L 1925 4134 
L 275 4134 
L 378 4666 
z
" id="DejaVuSans-Oblique-54" transform="scale(0.015625)"/>
      <path d="M 488 2431 
L 1125 2431 
L 1125 4341 
L 428 4213 
L 428 4575 
L 1147 4697 
L 1575 4697 
L 1575 2431 
L 2216 2431 
L 2216 2088 
L 488 2088 
L 488 2431 
z
M 4470 332 
L 5795 332 
L 5795 -24 
L 3926 -24 
L 3926 319 
Q 4032 416 4229 591 
Q 5304 1544 5304 1838 
Q 5304 2044 5141 2170 
Q 4979 2297 4713 2297 
Q 4551 2297 4360 2242 
Q 4170 2188 3945 2079 
L 3945 2463 
Q 4185 2551 4393 2594 
Q 4601 2638 4779 2638 
Q 5232 2638 5504 2432 
Q 5776 2226 5776 1888 
Q 5776 1454 4741 566 
Q 4566 416 4470 332 
z
M 4309 4750 
L 4809 4750 
L 1896 -91 
L 1396 -91 
L 4309 4750 
z
" id="DejaVuSans-bd" transform="scale(0.015625)"/>
      <path d="M 2348 4027 
L 3008 4027 
L 3008 3233 
L 2348 3233 
L 2348 4027 
z
M 678 2906 
L 4684 2906 
L 4684 2381 
L 678 2381 
L 678 2906 
z
M 678 1631 
L 4684 1631 
L 4684 1100 
L 678 1100 
L 678 1631 
z
" id="DejaVuSans-2250" transform="scale(0.015625)"/>
      <path d="M 2597 2516 
Q 3050 2419 3304 2112 
Q 3559 1806 3559 1356 
Q 3559 666 3084 287 
Q 2609 -91 1734 -91 
Q 1441 -91 1130 -33 
Q 819 25 488 141 
L 488 750 
Q 750 597 1062 519 
Q 1375 441 1716 441 
Q 2309 441 2620 675 
Q 2931 909 2931 1356 
Q 2931 1769 2642 2001 
Q 2353 2234 1838 2234 
L 1294 2234 
L 1294 2753 
L 1863 2753 
Q 2328 2753 2575 2939 
Q 2822 3125 2822 3475 
Q 2822 3834 2567 4026 
Q 2313 4219 1838 4219 
Q 1578 4219 1281 4162 
Q 984 4106 628 3988 
L 628 4550 
Q 988 4650 1302 4700 
Q 1616 4750 1894 4750 
Q 2613 4750 3031 4423 
Q 3450 4097 3450 3541 
Q 3450 3153 3228 2886 
Q 3006 2619 2597 2516 
z
" id="DejaVuSans-33" transform="scale(0.015625)"/>
      <path d="M 684 794 
L 1344 794 
L 1344 0 
L 684 0 
L 684 794 
z
" id="DejaVuSans-2e" transform="scale(0.015625)"/>
      <path d="M 525 4666 
L 3525 4666 
L 3525 4397 
L 1831 0 
L 1172 0 
L 2766 4134 
L 525 4134 
L 525 4666 
z
" id="DejaVuSans-37" transform="scale(0.015625)"/>
     </defs>
     <use transform="translate(0 0.529687)" xlink:href="#DejaVuSans-Oblique-79"/>
     <use transform="translate(78.662109 0.529687)" xlink:href="#DejaVuSans-3d"/>
     <use transform="translate(181.933594 0.529687)" xlink:href="#DejaVuSans-Oblique-61"/>
     <use transform="translate(243.212891 0.529687)" xlink:href="#DejaVuSans-Oblique-65"/>
     <use transform="translate(309.386224 38.810937)scale(0.7)" xlink:href="#DejaVuSans-2212"/>
     <use transform="translate(368.038568 38.810937)scale(0.7)" xlink:href="#DejaVuSans-Oblique-3bb"/>
     <use transform="translate(409.464349 38.810937)scale(0.7)" xlink:href="#DejaVuSans-Oblique-78"/>
     <use transform="translate(473.106927 0.529687)" xlink:href="#DejaVuSans-2b"/>
     <use transform="translate(576.378411 0.529687)" xlink:href="#DejaVuSans-Oblique-63"/>
     <use transform="translate(631.35888 0.529687)" xlink:href="#DejaVuSans-3b"/>
     <use transform="translate(684.532708 0.529687)" xlink:href="#DejaVuSans-Oblique-54"/>
     <use transform="translate(745.616693 -15.876563)scale(0.7)" xlink:href="#DejaVuSans-bd"/>
     <use transform="translate(816.197747 0.529687)" xlink:href="#DejaVuSans-2250"/>
     <use transform="translate(899.98681 0.529687)" xlink:href="#DejaVuSans-33"/>
     <use transform="translate(963.609857 0.529687)" xlink:href="#DejaVuSans-2e"/>
     <use transform="translate(995.396966 0.529687)" xlink:href="#DejaVuSans-30"/>
     <use transform="translate(1059.020013 0.529687)" xlink:href="#DejaVuSans-33"/>
     <use transform="translate(1122.64306 0.529687)" xlink:href="#DejaVuSans-37"/>
     <use transform="translate(1184.516107 0.529687)" xlink:href="#DejaVuSans-37"/>
    </g>
   </g>
   <g id="text_13">
    <!-- $a ≐ 306.03; λ ≐ 0.3292; c ≐ 23.61$ -->
    <g transform="translate(219.962908 27.843838)scale(0.1 -0.1)">
     <defs>
      <path d="M 703 97 
L 703 672 
Q 941 559 1184 500 
Q 1428 441 1663 441 
Q 2288 441 2617 861 
Q 2947 1281 2994 2138 
Q 2813 1869 2534 1725 
Q 2256 1581 1919 1581 
Q 1219 1581 811 2004 
Q 403 2428 403 3163 
Q 403 3881 828 4315 
Q 1253 4750 1959 4750 
Q 2769 4750 3195 4129 
Q 3622 3509 3622 2328 
Q 3622 1225 3098 567 
Q 2575 -91 1691 -91 
Q 1453 -91 1209 -44 
Q 966 3 703 97 
z
M 1959 2075 
Q 2384 2075 2632 2365 
Q 2881 2656 2881 3163 
Q 2881 3666 2632 3958 
Q 2384 4250 1959 4250 
Q 1534 4250 1286 3958 
Q 1038 3666 1038 3163 
Q 1038 2656 1286 2365 
Q 1534 2075 1959 2075 
z
" id="DejaVuSans-39" transform="scale(0.015625)"/>
     </defs>
     <use transform="translate(0 0.015625)" xlink:href="#DejaVuSans-Oblique-61"/>
     <use transform="translate(61.279297 0.015625)" xlink:href="#DejaVuSans-2250"/>
     <use transform="translate(145.068359 0.015625)" xlink:href="#DejaVuSans-33"/>
     <use transform="translate(208.691406 0.015625)" xlink:href="#DejaVuSans-30"/>
     <use transform="translate(272.314453 0.015625)" xlink:href="#DejaVuSans-36"/>
     <use transform="translate(335.9375 0.015625)" xlink:href="#DejaVuSans-2e"/>
     <use transform="translate(367.724609 0.015625)" xlink:href="#DejaVuSans-30"/>
     <use transform="translate(431.347656 0.015625)" xlink:href="#DejaVuSans-33"/>
     <use transform="translate(494.970703 0.015625)" xlink:href="#DejaVuSans-3b"/>
     <use transform="translate(548.144531 0.015625)" xlink:href="#DejaVuSans-Oblique-3bb"/>
     <use transform="translate(607.324219 0.015625)" xlink:href="#DejaVuSans-2250"/>
     <use transform="translate(691.113281 0.015625)" xlink:href="#DejaVuSans-30"/>
     <use transform="translate(754.736328 0.015625)" xlink:href="#DejaVuSans-2e"/>
     <use transform="translate(786.523438 0.015625)" xlink:href="#DejaVuSans-33"/>
     <use transform="translate(850.146484 0.015625)" xlink:href="#DejaVuSans-32"/>
     <use transform="translate(912.019531 0.015625)" xlink:href="#DejaVuSans-39"/>
     <use transform="translate(973.892578 0.015625)" xlink:href="#DejaVuSans-32"/>
     <use transform="translate(1037.515625 0.015625)" xlink:href="#DejaVuSans-3b"/>
     <use transform="translate(1090.689453 0.015625)" xlink:href="#DejaVuSans-Oblique-63"/>
     <use transform="translate(1145.669922 0.015625)" xlink:href="#DejaVuSans-2250"/>
     <use transform="translate(1229.458984 0.015625)" xlink:href="#DejaVuSans-32"/>
     <use transform="translate(1293.082031 0.015625)" xlink:href="#DejaVuSans-33"/>
     <use transform="translate(1356.705078 0.015625)" xlink:href="#DejaVuSans-2e"/>
     <use transform="translate(1388.492188 0.015625)" xlink:href="#DejaVuSans-36"/>
     <use transform="translate(1452.115234 0.015625)" xlink:href="#DejaVuSans-31"/>
    </g>
   </g>
   <g id="text_14">
    <!-- $σ_a ≐ 161.17; σ_λ ≐ 0.0932; σ_c ≐ 1.32$ -->
    <g transform="translate(219.962908 34.275658)scale(0.1 -0.1)">
     <defs>
      <path d="M 2219 3044 
Q 1744 3044 1422 2700 
Q 1081 2341 969 1747 
Q 844 1119 1044 756 
Q 1241 397 1706 397 
Q 2166 397 2503 759 
Q 2844 1122 2966 1747 
Q 3075 2319 2881 2700 
Q 2700 3044 2219 3044 
z
M 2309 3503 
L 4219 3500 
L 4106 2925 
L 3463 2925 
Q 3706 2438 3575 1747 
Q 3406 888 2884 400 
Q 2359 -91 1609 -91 
Q 856 -91 525 400 
Q 194 888 363 1747 
Q 528 2609 1050 3097 
Q 1484 3503 2309 3503 
z
" id="DejaVuSans-Oblique-3c3" transform="scale(0.015625)"/>
     </defs>
     <use transform="translate(0 0.78125)" xlink:href="#DejaVuSans-Oblique-3c3"/>
     <use transform="translate(63.378906 -15.625)scale(0.7)" xlink:href="#DejaVuSans-Oblique-61"/>
     <use transform="translate(109.008789 0.78125)" xlink:href="#DejaVuSans-2250"/>
     <use transform="translate(192.797852 0.78125)" xlink:href="#DejaVuSans-31"/>
     <use transform="translate(256.420898 0.78125)" xlink:href="#DejaVuSans-36"/>
     <use transform="translate(320.043945 0.78125)" xlink:href="#DejaVuSans-31"/>
     <use transform="translate(383.666992 0.78125)" xlink:href="#DejaVuSans-2e"/>
     <use transform="translate(415.454102 0.78125)" xlink:href="#DejaVuSans-31"/>
     <use transform="translate(479.077148 0.78125)" xlink:href="#DejaVuSans-37"/>
     <use transform="translate(542.700195 0.78125)" xlink:href="#DejaVuSans-3b"/>
     <use transform="translate(595.874023 0.78125)" xlink:href="#DejaVuSans-Oblique-3c3"/>
     <use transform="translate(659.25293 -15.625)scale(0.7)" xlink:href="#DejaVuSans-Oblique-3bb"/>
     <use transform="translate(703.413086 0.78125)" xlink:href="#DejaVuSans-2250"/>
     <use transform="translate(787.202148 0.78125)" xlink:href="#DejaVuSans-30"/>
     <use transform="translate(850.825195 0.78125)" xlink:href="#DejaVuSans-2e"/>
     <use transform="translate(882.612305 0.78125)" xlink:href="#DejaVuSans-30"/>
     <use transform="translate(946.235352 0.78125)" xlink:href="#DejaVuSans-39"/>
     <use transform="translate(1009.858398 0.78125)" xlink:href="#DejaVuSans-33"/>
     <use transform="translate(1073.481445 0.78125)" xlink:href="#DejaVuSans-32"/>
     <use transform="translate(1137.104492 0.78125)" xlink:href="#DejaVuSans-3b"/>
     <use transform="translate(1190.27832 0.78125)" xlink:href="#DejaVuSans-Oblique-3c3"/>
     <use transform="translate(1253.657227 -15.625)scale(0.7)" xlink:href="#DejaVuSans-Oblique-63"/>
     <use transform="translate(1294.87793 0.78125)" xlink:href="#DejaVuSans-2250"/>
     <use transform="translate(1378.666992 0.78125)" xlink:href="#DejaVuSans-31"/>
     <use transform="translate(1442.290039 0.78125)" xlink:href="#DejaVuSans-2e"/>
     <use transform="translate(1474.077148 0.78125)" xlink:href="#DejaVuSans-33"/>
     <use transform="translate(1537.700195 0.78125)" xlink:href="#DejaVuSans-32"/>
    </g>
   </g>
  </g>
  <g id="axes_2">
   <g id="patch_37">
    <path d="M 64.694 194.39717 
L 442.08 194.39717 
L 442.08 127.36234 
L 64.694 127.36234 
z
" style="fill:#ffffff;"/>
   </g>
   <g id="patch_38">
    <path clip-path="url(#pc5f07ff5fa)" d="M 81.847909 33219.814369 
L 85.278691 33219.814369 
L 85.278691 130.409378 
L 81.847909 130.409378 
z
" style="fill:#1f77b4;"/>
   </g>
   <g id="patch_39">
    <path clip-path="url(#pc5f07ff5fa)" d="M 85.278691 33219.814369 
L 88.709473 33219.814369 
L 88.709473 132.150187 
L 85.278691 132.150187 
z
" style="fill:#1f77b4;"/>
   </g>
   <g id="patch_40">
    <path clip-path="url(#pc5f07ff5fa)" d="M 88.709473 33219.814369 
L 92.140255 33219.814369 
L 92.140255 133.356282 
L 88.709473 133.356282 
z
" style="fill:#1f77b4;"/>
   </g>
   <g id="patch_41">
    <path clip-path="url(#pc5f07ff5fa)" d="M 92.140255 33219.814369 
L 95.571036 33219.814369 
L 95.571036 134.131827 
L 92.140255 134.131827 
z
" style="fill:#1f77b4;"/>
   </g>
   <g id="patch_42">
    <path clip-path="url(#pc5f07ff5fa)" d="M 95.571036 33219.814369 
L 99.001818 33219.814369 
L 99.001818 133.356282 
L 95.571036 133.356282 
z
" style="fill:#1f77b4;"/>
   </g>
   <g id="patch_43">
    <path clip-path="url(#pc5f07ff5fa)" d="M 99.001818 33219.814369 
L 102.4326 33219.814369 
L 102.4326 134.673177 
L 99.001818 134.673177 
z
" style="fill:#1f77b4;"/>
   </g>
   <g id="patch_44">
    <path clip-path="url(#pc5f07ff5fa)" d="M 102.4326 33219.814369 
L 105.863382 33219.814369 
L 105.863382 136.747062 
L 102.4326 136.747062 
z
" style="fill:#1f77b4;"/>
   </g>
   <g id="patch_45">
    <path clip-path="url(#pc5f07ff5fa)" d="M 105.863382 33219.814369 
L 109.294164 33219.814369 
L 109.294164 137.736701 
L 105.863382 137.736701 
z
" style="fill:#1f77b4;"/>
   </g>
   <g id="patch_46">
    <path clip-path="url(#pc5f07ff5fa)" d="M 109.294164 33219.814369 
L 112.724945 33219.814369 
L 112.724945 142.563086 
L 109.294164 142.563086 
z
" style="fill:#1f77b4;"/>
   </g>
   <g id="patch_47">
    <path clip-path="url(#pc5f07ff5fa)" d="M 112.724945 33219.814369 
L 116.155727 33219.814369 
L 116.155727 143.049372 
L 112.724945 143.049372 
z
" style="fill:#1f77b4;"/>
   </g>
   <g id="patch_48">
    <path clip-path="url(#pc5f07ff5fa)" d="M 116.155727 33219.814369 
L 119.586509 33219.814369 
L 119.586509 143.049372 
L 116.155727 143.049372 
z
" style="fill:#1f77b4;"/>
   </g>
   <g id="patch_49">
    <path clip-path="url(#pc5f07ff5fa)" d="M 119.586509 33219.814369 
L 123.017291 33219.814369 
L 123.017291 149.890409 
L 119.586509 149.890409 
z
" style="fill:#1f77b4;"/>
   </g>
   <g id="patch_50">
    <path clip-path="url(#pc5f07ff5fa)" d="M 123.017291 33219.814369 
L 126.448073 33219.814369 
L 126.448073 149.890409 
L 123.017291 149.890409 
z
" style="fill:#1f77b4;"/>
   </g>
   <g id="patch_51">
    <path clip-path="url(#pc5f07ff5fa)" d="M 126.448073 33219.814369 
L 129.878855 33219.814369 
L 129.878855 152.505644 
L 126.448073 152.505644 
z
" style="fill:#1f77b4;"/>
   </g>
   <g id="patch_52">
    <path clip-path="url(#pc5f07ff5fa)" d="M 129.878855 33219.814369 
L 133.309636 33219.814369 
L 133.309636 156.954531 
L 129.878855 156.954531 
z
" style="fill:#1f77b4;"/>
   </g>
   <g id="patch_53">
    <path clip-path="url(#pc5f07ff5fa)" d="M 133.309636 33219.814369 
L 136.740418 33219.814369 
L 136.740418 146.374353 
L 133.309636 146.374353 
z
" style="fill:#1f77b4;"/>
   </g>
   <g id="patch_54">
    <path clip-path="url(#pc5f07ff5fa)" d="M 136.740418 33219.814369 
L 140.1712 33219.814369 
L 140.1712 155.706433 
L 136.740418 155.706433 
z
" style="fill:#1f77b4;"/>
   </g>
   <g id="patch_55">
    <path clip-path="url(#pc5f07ff5fa)" d="M 140.1712 33219.814369 
L 143.601982 33219.814369 
L 143.601982 154.558294 
L 140.1712 154.558294 
z
" style="fill:#1f77b4;"/>
   </g>
   <g id="patch_56">
    <path clip-path="url(#pc5f07ff5fa)" d="M 143.601982 33219.814369 
L 147.032764 33219.814369 
L 147.032764 146.374353 
L 143.601982 146.374353 
z
" style="fill:#1f77b4;"/>
   </g>
   <g id="patch_57">
    <path clip-path="url(#pc5f07ff5fa)" d="M 147.032764 33219.814369 
L 150.463545 33219.814369 
L 150.463545 159.832968 
L 147.032764 159.832968 
z
" style="fill:#1f77b4;"/>
   </g>
   <g id="patch_58">
    <path clip-path="url(#pc5f07ff5fa)" d="M 150.463545 33219.814369 
L 153.894327 33219.814369 
L 153.894327 181.407574 
L 150.463545 181.407574 
z
" style="fill:#1f77b4;"/>
   </g>
   <g id="patch_59">
    <path clip-path="url(#pc5f07ff5fa)" d="M 153.894327 33219.814369 
L 157.325109 33219.814369 
L 157.325109 159.832968 
L 153.894327 159.832968 
z
" style="fill:#1f77b4;"/>
   </g>
   <g id="patch_60">
    <path clip-path="url(#pc5f07ff5fa)" d="M 157.325109 33219.814369 
L 160.755891 33219.814369 
L 160.755891 151.579898 
L 157.325109 151.579898 
z
" style="fill:#1f77b4;"/>
   </g>
   <g id="patch_61">
    <path clip-path="url(#pc5f07ff5fa)" d="M 160.755891 33219.814369 
L 164.186673 33219.814369 
L 164.186673 159.832968 
L 160.755891 159.832968 
z
" style="fill:#1f77b4;"/>
   </g>
   <g id="patch_62">
    <path clip-path="url(#pc5f07ff5fa)" d="M 164.186673 33219.814369 
L 167.617455 33219.814369 
L 167.617455 158.321668 
L 164.186673 158.321668 
z
" style="fill:#1f77b4;"/>
   </g>
   <g id="patch_63">
    <path clip-path="url(#pc5f07ff5fa)" d="M 167.617455 33219.814369 
L 171.048236 33219.814369 
L 171.048236 163.437842 
L 167.617455 163.437842 
z
" style="fill:#1f77b4;"/>
   </g>
   <g id="patch_64">
    <path clip-path="url(#pc5f07ff5fa)" d="M 171.048236 33219.814369 
L 174.479018 33219.814369 
L 174.479018 168.264226 
L 171.048236 168.264226 
z
" style="fill:#1f77b4;"/>
   </g>
   <g id="patch_65">
    <path clip-path="url(#pc5f07ff5fa)" d="M 174.479018 33219.814369 
L 177.9098 33219.814369 
L 177.9098 163.437842 
L 174.479018 163.437842 
z
" style="fill:#1f77b4;"/>
   </g>
   <g id="patch_66">
    <path clip-path="url(#pc5f07ff5fa)" d="M 177.9098 33219.814369 
L 181.340582 33219.814369 
L 181.340582 163.437842 
L 177.9098 163.437842 
z
" style="fill:#1f77b4;"/>
   </g>
   <g id="patch_67">
    <path clip-path="url(#pc5f07ff5fa)" d="M 181.340582 33219.814369 
L 184.771364 33219.814369 
L 184.771364 168.264226 
L 181.340582 168.264226 
z
" style="fill:#1f77b4;"/>
   </g>
   <g id="patch_68">
    <path clip-path="url(#pc5f07ff5fa)" d="M 184.771364 33219.814369 
L 188.202145 33219.814369 
L 188.202145 33219.814369 
L 184.771364 33219.814369 
z
" style="fill:#1f77b4;"/>
   </g>
   <g id="patch_69">
    <path clip-path="url(#pc5f07ff5fa)" d="M 188.202145 33219.814369 
L 191.632927 33219.814369 
L 191.632927 171.465015 
L 188.202145 171.465015 
z
" style="fill:#1f77b4;"/>
   </g>
   <g id="patch_70">
    <path clip-path="url(#pc5f07ff5fa)" d="M 191.632927 33219.814369 
L 195.063709 33219.814369 
L 195.063709 181.407574 
L 191.632927 181.407574 
z
" style="fill:#1f77b4;"/>
   </g>
   <g id="patch_71">
    <path clip-path="url(#pc5f07ff5fa)" d="M 195.063709 33219.814369 
L 198.494491 33219.814369 
L 198.494491 181.407574 
L 195.063709 181.407574 
z
" style="fill:#1f77b4;"/>
   </g>
   <g id="patch_72">
    <path clip-path="url(#pc5f07ff5fa)" d="M 198.494491 33219.814369 
L 201.925273 33219.814369 
L 201.925273 165.648991 
L 198.494491 165.648991 
z
" style="fill:#1f77b4;"/>
   </g>
   <g id="patch_73">
    <path clip-path="url(#pc5f07ff5fa)" d="M 201.925273 33219.814369 
L 205.356055 33219.814369 
L 205.356055 181.407574 
L 201.925273 181.407574 
z
" style="fill:#1f77b4;"/>
   </g>
   <g id="patch_74">
    <path clip-path="url(#pc5f07ff5fa)" d="M 205.356055 33219.814369 
L 208.786836 33219.814369 
L 208.786836 33219.814369 
L 205.356055 33219.814369 
z
" style="fill:#1f77b4;"/>
   </g>
   <g id="patch_75">
    <path clip-path="url(#pc5f07ff5fa)" d="M 208.786836 33219.814369 
L 212.217618 33219.814369 
L 212.217618 191.350132 
L 208.786836 191.350132 
z
" style="fill:#1f77b4;"/>
   </g>
   <g id="patch_76">
    <path clip-path="url(#pc5f07ff5fa)" d="M 212.217618 33219.814369 
L 215.6484 33219.814369 
L 215.6484 181.407574 
L 212.217618 181.407574 
z
" style="fill:#1f77b4;"/>
   </g>
   <g id="patch_77">
    <path clip-path="url(#pc5f07ff5fa)" d="M 215.6484 33219.814369 
L 219.079182 33219.814369 
L 219.079182 33219.814369 
L 215.6484 33219.814369 
z
" style="fill:#1f77b4;"/>
   </g>
   <g id="patch_78">
    <path clip-path="url(#pc5f07ff5fa)" d="M 219.079182 33219.814369 
L 222.509964 33219.814369 
L 222.509964 175.59155 
L 219.079182 175.59155 
z
" style="fill:#1f77b4;"/>
   </g>
   <g id="patch_79">
    <path clip-path="url(#pc5f07ff5fa)" d="M 222.509964 33219.814369 
L 225.940745 33219.814369 
L 225.940745 175.59155 
L 222.509964 175.59155 
z
" style="fill:#1f77b4;"/>
   </g>
   <g id="patch_80">
    <path clip-path="url(#pc5f07ff5fa)" d="M 225.940745 33219.814369 
L 229.371527 33219.814369 
L 229.371527 181.407574 
L 225.940745 181.407574 
z
" style="fill:#1f77b4;"/>
   </g>
   <g id="patch_81">
    <path clip-path="url(#pc5f07ff5fa)" d="M 229.371527 33219.814369 
L 232.802309 33219.814369 
L 232.802309 175.59155 
L 229.371527 175.59155 
z
" style="fill:#1f77b4;"/>
   </g>
   <g id="patch_82">
    <path clip-path="url(#pc5f07ff5fa)" d="M 232.802309 33219.814369 
L 236.233091 33219.814369 
L 236.233091 181.407574 
L 232.802309 181.407574 
z
" style="fill:#1f77b4;"/>
   </g>
   <g id="patch_83">
    <path clip-path="url(#pc5f07ff5fa)" d="M 236.233091 33219.814369 
L 239.663873 33219.814369 
L 239.663873 175.59155 
L 236.233091 175.59155 
z
" style="fill:#1f77b4;"/>
   </g>
   <g id="patch_84">
    <path clip-path="url(#pc5f07ff5fa)" d="M 239.663873 33219.814369 
L 243.094655 33219.814369 
L 243.094655 33219.814369 
L 239.663873 33219.814369 
z
" style="fill:#1f77b4;"/>
   </g>
   <g id="patch_85">
    <path clip-path="url(#pc5f07ff5fa)" d="M 243.094655 33219.814369 
L 246.525436 33219.814369 
L 246.525436 191.350132 
L 243.094655 191.350132 
z
" style="fill:#1f77b4;"/>
   </g>
   <g id="patch_86">
    <path clip-path="url(#pc5f07ff5fa)" d="M 246.525436 33219.814369 
L 249.956218 33219.814369 
L 249.956218 191.350132 
L 246.525436 191.350132 
z
" style="fill:#1f77b4;"/>
   </g>
   <g id="patch_87">
    <path clip-path="url(#pc5f07ff5fa)" d="M 249.956218 33219.814369 
L 253.387 33219.814369 
L 253.387 191.350132 
L 249.956218 191.350132 
z
" style="fill:#1f77b4;"/>
   </g>
   <g id="patch_88">
    <path clip-path="url(#pc5f07ff5fa)" d="M 253.387 33219.814369 
L 256.817782 33219.814369 
L 256.817782 33219.814369 
L 253.387 33219.814369 
z
" style="fill:#1f77b4;"/>
   </g>
   <g id="patch_89">
    <path clip-path="url(#pc5f07ff5fa)" d="M 256.817782 33219.814369 
L 260.248564 33219.814369 
L 260.248564 191.350132 
L 256.817782 191.350132 
z
" style="fill:#1f77b4;"/>
   </g>
   <g id="patch_90">
    <path clip-path="url(#pc5f07ff5fa)" d="M 260.248564 33219.814369 
L 263.679345 33219.814369 
L 263.679345 33219.814369 
L 260.248564 33219.814369 
z
" style="fill:#1f77b4;"/>
   </g>
   <g id="patch_91">
    <path clip-path="url(#pc5f07ff5fa)" d="M 263.679345 33219.814369 
L 267.110127 33219.814369 
L 267.110127 181.407574 
L 263.679345 181.407574 
z
" style="fill:#1f77b4;"/>
   </g>
   <g id="patch_92">
    <path clip-path="url(#pc5f07ff5fa)" d="M 267.110127 33219.814369 
L 270.540909 33219.814369 
L 270.540909 191.350132 
L 267.110127 191.350132 
z
" style="fill:#1f77b4;"/>
   </g>
   <g id="patch_93">
    <path clip-path="url(#pc5f07ff5fa)" d="M 270.540909 33219.814369 
L 273.971691 33219.814369 
L 273.971691 33219.814369 
L 270.540909 33219.814369 
z
" style="fill:#1f77b4;"/>
   </g>
   <g id="patch_94">
    <path clip-path="url(#pc5f07ff5fa)" d="M 273.971691 33219.814369 
L 277.402473 33219.814369 
L 277.402473 33219.814369 
L 273.971691 33219.814369 
z
" style="fill:#1f77b4;"/>
   </g>
   <g id="patch_95">
    <path clip-path="url(#pc5f07ff5fa)" d="M 277.402473 33219.814369 
L 280.833255 33219.814369 
L 280.833255 33219.814369 
L 277.402473 33219.814369 
z
" style="fill:#1f77b4;"/>
   </g>
   <g id="patch_96">
    <path clip-path="url(#pc5f07ff5fa)" d="M 280.833255 33219.814369 
L 284.264036 33219.814369 
L 284.264036 33219.814369 
L 280.833255 33219.814369 
z
" style="fill:#1f77b4;"/>
   </g>
   <g id="patch_97">
    <path clip-path="url(#pc5f07ff5fa)" d="M 284.264036 33219.814369 
L 287.694818 33219.814369 
L 287.694818 33219.814369 
L 284.264036 33219.814369 
z
" style="fill:#1f77b4;"/>
   </g>
   <g id="patch_98">
    <path clip-path="url(#pc5f07ff5fa)" d="M 287.694818 33219.814369 
L 291.1256 33219.814369 
L 291.1256 33219.814369 
L 287.694818 33219.814369 
z
" style="fill:#1f77b4;"/>
   </g>
   <g id="patch_99">
    <path clip-path="url(#pc5f07ff5fa)" d="M 291.1256 33219.814369 
L 294.556382 33219.814369 
L 294.556382 191.350132 
L 291.1256 191.350132 
z
" style="fill:#1f77b4;"/>
   </g>
   <g id="patch_100">
    <path clip-path="url(#pc5f07ff5fa)" d="M 294.556382 33219.814369 
L 297.987164 33219.814369 
L 297.987164 191.350132 
L 294.556382 191.350132 
z
" style="fill:#1f77b4;"/>
   </g>
   <g id="patch_101">
    <path clip-path="url(#pc5f07ff5fa)" d="M 297.987164 33219.814369 
L 301.417945 33219.814369 
L 301.417945 33219.814369 
L 297.987164 33219.814369 
z
" style="fill:#1f77b4;"/>
   </g>
   <g id="patch_102">
    <path clip-path="url(#pc5f07ff5fa)" d="M 301.417945 33219.814369 
L 304.848727 33219.814369 
L 304.848727 33219.814369 
L 301.417945 33219.814369 
z
" style="fill:#1f77b4;"/>
   </g>
   <g id="patch_103">
    <path clip-path="url(#pc5f07ff5fa)" d="M 304.848727 33219.814369 
L 308.279509 33219.814369 
L 308.279509 33219.814369 
L 304.848727 33219.814369 
z
" style="fill:#1f77b4;"/>
   </g>
   <g id="patch_104">
    <path clip-path="url(#pc5f07ff5fa)" d="M 308.279509 33219.814369 
L 311.710291 33219.814369 
L 311.710291 33219.814369 
L 308.279509 33219.814369 
z
" style="fill:#1f77b4;"/>
   </g>
   <g id="patch_105">
    <path clip-path="url(#pc5f07ff5fa)" d="M 311.710291 33219.814369 
L 315.141073 33219.814369 
L 315.141073 33219.814369 
L 311.710291 33219.814369 
z
" style="fill:#1f77b4;"/>
   </g>
   <g id="patch_106">
    <path clip-path="url(#pc5f07ff5fa)" d="M 315.141073 33219.814369 
L 318.571855 33219.814369 
L 318.571855 33219.814369 
L 315.141073 33219.814369 
z
" style="fill:#1f77b4;"/>
   </g>
   <g id="patch_107">
    <path clip-path="url(#pc5f07ff5fa)" d="M 318.571855 33219.814369 
L 322.002636 33219.814369 
L 322.002636 33219.814369 
L 318.571855 33219.814369 
z
" style="fill:#1f77b4;"/>
   </g>
   <g id="patch_108">
    <path clip-path="url(#pc5f07ff5fa)" d="M 322.002636 33219.814369 
L 325.433418 33219.814369 
L 325.433418 33219.814369 
L 322.002636 33219.814369 
z
" style="fill:#1f77b4;"/>
   </g>
   <g id="patch_109">
    <path clip-path="url(#pc5f07ff5fa)" d="M 325.433418 33219.814369 
L 328.8642 33219.814369 
L 328.8642 33219.814369 
L 325.433418 33219.814369 
z
" style="fill:#1f77b4;"/>
   </g>
   <g id="patch_110">
    <path clip-path="url(#pc5f07ff5fa)" d="M 328.8642 33219.814369 
L 332.294982 33219.814369 
L 332.294982 33219.814369 
L 328.8642 33219.814369 
z
" style="fill:#1f77b4;"/>
   </g>
   <g id="patch_111">
    <path clip-path="url(#pc5f07ff5fa)" d="M 332.294982 33219.814369 
L 335.725764 33219.814369 
L 335.725764 33219.814369 
L 332.294982 33219.814369 
z
" style="fill:#1f77b4;"/>
   </g>
   <g id="patch_112">
    <path clip-path="url(#pc5f07ff5fa)" d="M 335.725764 33219.814369 
L 339.156545 33219.814369 
L 339.156545 33219.814369 
L 335.725764 33219.814369 
z
" style="fill:#1f77b4;"/>
   </g>
   <g id="patch_113">
    <path clip-path="url(#pc5f07ff5fa)" d="M 339.156545 33219.814369 
L 342.587327 33219.814369 
L 342.587327 33219.814369 
L 339.156545 33219.814369 
z
" style="fill:#1f77b4;"/>
   </g>
   <g id="patch_114">
    <path clip-path="url(#pc5f07ff5fa)" d="M 342.587327 33219.814369 
L 346.018109 33219.814369 
L 346.018109 33219.814369 
L 342.587327 33219.814369 
z
" style="fill:#1f77b4;"/>
   </g>
   <g id="patch_115">
    <path clip-path="url(#pc5f07ff5fa)" d="M 346.018109 33219.814369 
L 349.448891 33219.814369 
L 349.448891 33219.814369 
L 346.018109 33219.814369 
z
" style="fill:#1f77b4;"/>
   </g>
   <g id="patch_116">
    <path clip-path="url(#pc5f07ff5fa)" d="M 349.448891 33219.814369 
L 352.879673 33219.814369 
L 352.879673 33219.814369 
L 349.448891 33219.814369 
z
" style="fill:#1f77b4;"/>
   </g>
   <g id="patch_117">
    <path clip-path="url(#pc5f07ff5fa)" d="M 352.879673 33219.814369 
L 356.310455 33219.814369 
L 356.310455 33219.814369 
L 352.879673 33219.814369 
z
" style="fill:#1f77b4;"/>
   </g>
   <g id="patch_118">
    <path clip-path="url(#pc5f07ff5fa)" d="M 356.310455 33219.814369 
L 359.741236 33219.814369 
L 359.741236 33219.814369 
L 356.310455 33219.814369 
z
" style="fill:#1f77b4;"/>
   </g>
   <g id="patch_119">
    <path clip-path="url(#pc5f07ff5fa)" d="M 359.741236 33219.814369 
L 363.172018 33219.814369 
L 363.172018 33219.814369 
L 359.741236 33219.814369 
z
" style="fill:#1f77b4;"/>
   </g>
   <g id="patch_120">
    <path clip-path="url(#pc5f07ff5fa)" d="M 363.172018 33219.814369 
L 366.6028 33219.814369 
L 366.6028 33219.814369 
L 363.172018 33219.814369 
z
" style="fill:#1f77b4;"/>
   </g>
   <g id="patch_121">
    <path clip-path="url(#pc5f07ff5fa)" d="M 366.6028 33219.814369 
L 370.033582 33219.814369 
L 370.033582 33219.814369 
L 366.6028 33219.814369 
z
" style="fill:#1f77b4;"/>
   </g>
   <g id="patch_122">
    <path clip-path="url(#pc5f07ff5fa)" d="M 370.033582 33219.814369 
L 373.464364 33219.814369 
L 373.464364 33219.814369 
L 370.033582 33219.814369 
z
" style="fill:#1f77b4;"/>
   </g>
   <g id="patch_123">
    <path clip-path="url(#pc5f07ff5fa)" d="M 373.464364 33219.814369 
L 376.895145 33219.814369 
L 376.895145 33219.814369 
L 373.464364 33219.814369 
z
" style="fill:#1f77b4;"/>
   </g>
   <g id="patch_124">
    <path clip-path="url(#pc5f07ff5fa)" d="M 376.895145 33219.814369 
L 380.325927 33219.814369 
L 380.325927 33219.814369 
L 376.895145 33219.814369 
z
" style="fill:#1f77b4;"/>
   </g>
   <g id="patch_125">
    <path clip-path="url(#pc5f07ff5fa)" d="M 380.325927 33219.814369 
L 383.756709 33219.814369 
L 383.756709 33219.814369 
L 380.325927 33219.814369 
z
" style="fill:#1f77b4;"/>
   </g>
   <g id="patch_126">
    <path clip-path="url(#pc5f07ff5fa)" d="M 383.756709 33219.814369 
L 387.187491 33219.814369 
L 387.187491 33219.814369 
L 383.756709 33219.814369 
z
" style="fill:#1f77b4;"/>
   </g>
   <g id="patch_127">
    <path clip-path="url(#pc5f07ff5fa)" d="M 387.187491 33219.814369 
L 390.618273 33219.814369 
L 390.618273 33219.814369 
L 387.187491 33219.814369 
z
" style="fill:#1f77b4;"/>
   </g>
   <g id="patch_128">
    <path clip-path="url(#pc5f07ff5fa)" d="M 390.618273 33219.814369 
L 394.049055 33219.814369 
L 394.049055 33219.814369 
L 390.618273 33219.814369 
z
" style="fill:#1f77b4;"/>
   </g>
   <g id="patch_129">
    <path clip-path="url(#pc5f07ff5fa)" d="M 394.049055 33219.814369 
L 397.479836 33219.814369 
L 397.479836 33219.814369 
L 394.049055 33219.814369 
z
" style="fill:#1f77b4;"/>
   </g>
   <g id="patch_130">
    <path clip-path="url(#pc5f07ff5fa)" d="M 397.479836 33219.814369 
L 400.910618 33219.814369 
L 400.910618 33219.814369 
L 397.479836 33219.814369 
z
" style="fill:#1f77b4;"/>
   </g>
   <g id="patch_131">
    <path clip-path="url(#pc5f07ff5fa)" d="M 400.910618 33219.814369 
L 404.3414 33219.814369 
L 404.3414 33219.814369 
L 400.910618 33219.814369 
z
" style="fill:#1f77b4;"/>
   </g>
   <g id="patch_132">
    <path clip-path="url(#pc5f07ff5fa)" d="M 404.3414 33219.814369 
L 407.772182 33219.814369 
L 407.772182 33219.814369 
L 404.3414 33219.814369 
z
" style="fill:#1f77b4;"/>
   </g>
   <g id="patch_133">
    <path clip-path="url(#pc5f07ff5fa)" d="M 407.772182 33219.814369 
L 411.202964 33219.814369 
L 411.202964 33219.814369 
L 407.772182 33219.814369 
z
" style="fill:#1f77b4;"/>
   </g>
   <g id="patch_134">
    <path clip-path="url(#pc5f07ff5fa)" d="M 411.202964 33219.814369 
L 414.633745 33219.814369 
L 414.633745 33219.814369 
L 411.202964 33219.814369 
z
" style="fill:#1f77b4;"/>
   </g>
   <g id="patch_135">
    <path clip-path="url(#pc5f07ff5fa)" d="M 414.633745 33219.814369 
L 418.064527 33219.814369 
L 418.064527 33219.814369 
L 414.633745 33219.814369 
z
" style="fill:#1f77b4;"/>
   </g>
   <g id="patch_136">
    <path clip-path="url(#pc5f07ff5fa)" d="M 418.064527 33219.814369 
L 421.495309 33219.814369 
L 421.495309 33219.814369 
L 418.064527 33219.814369 
z
" style="fill:#1f77b4;"/>
   </g>
   <g id="patch_137">
    <path clip-path="url(#pc5f07ff5fa)" d="M 421.495309 33219.814369 
L 424.926091 33219.814369 
L 424.926091 191.350132 
L 421.495309 191.350132 
z
" style="fill:#1f77b4;"/>
   </g>
   <g id="matplotlib.axis_3">
    <g id="xtick_7">
     <g id="line2d_12">
      <g>
       <use style="stroke:#000000;stroke-width:0.8;" x="81.803513" xlink:href="#m5d53af2aeb" y="194.39717"/>
      </g>
     </g>
     <g id="text_15">
      <!-- 0 -->
      <g transform="translate(78.622263 208.995607)scale(0.1 -0.1)">
       <use xlink:href="#DejaVuSans-30"/>
      </g>
     </g>
    </g>
    <g id="xtick_8">
     <g id="line2d_13">
      <g>
       <use style="stroke:#000000;stroke-width:0.8;" x="128.8524" xlink:href="#m5d53af2aeb" y="194.39717"/>
      </g>
     </g>
     <g id="text_16">
      <!-- 2 -->
      <g transform="translate(125.67115 208.995607)scale(0.1 -0.1)">
       <use xlink:href="#DejaVuSans-32"/>
      </g>
     </g>
    </g>
    <g id="xtick_9">
     <g id="line2d_14">
      <g>
       <use style="stroke:#000000;stroke-width:0.8;" x="175.901288" xlink:href="#m5d53af2aeb" y="194.39717"/>
      </g>
     </g>
     <g id="text_17">
      <!-- 4 -->
      <g transform="translate(172.720038 208.995607)scale(0.1 -0.1)">
       <use xlink:href="#DejaVuSans-34"/>
      </g>
     </g>
    </g>
    <g id="xtick_10">
     <g id="line2d_15">
      <g>
       <use style="stroke:#000000;stroke-width:0.8;" x="222.950175" xlink:href="#m5d53af2aeb" y="194.39717"/>
      </g>
     </g>
     <g id="text_18">
      <!-- 6 -->
      <g transform="translate(219.768925 208.995607)scale(0.1 -0.1)">
       <use xlink:href="#DejaVuSans-36"/>
      </g>
     </g>
    </g>
    <g id="xtick_11">
     <g id="line2d_16">
      <g>
       <use style="stroke:#000000;stroke-width:0.8;" x="269.999063" xlink:href="#m5d53af2aeb" y="194.39717"/>
      </g>
     </g>
     <g id="text_19">
      <!-- 8 -->
      <g transform="translate(266.817813 208.995607)scale(0.1 -0.1)">
       <use xlink:href="#DejaVuSans-38"/>
      </g>
     </g>
    </g>
    <g id="xtick_12">
     <g id="line2d_17">
      <g>
       <use style="stroke:#000000;stroke-width:0.8;" x="317.04795" xlink:href="#m5d53af2aeb" y="194.39717"/>
      </g>
     </g>
     <g id="text_20">
      <!-- 10 -->
      <g transform="translate(310.68545 208.995607)scale(0.1 -0.1)">
       <use xlink:href="#DejaVuSans-31"/>
       <use x="63.623047" xlink:href="#DejaVuSans-30"/>
      </g>
     </g>
    </g>
    <g id="xtick_13">
     <g id="line2d_18">
      <g>
       <use style="stroke:#000000;stroke-width:0.8;" x="364.096837" xlink:href="#m5d53af2aeb" y="194.39717"/>
      </g>
     </g>
     <g id="text_21">
      <!-- 12 -->
      <g transform="translate(357.734337 208.995607)scale(0.1 -0.1)">
       <use xlink:href="#DejaVuSans-31"/>
       <use x="63.623047" xlink:href="#DejaVuSans-32"/>
      </g>
     </g>
    </g>
    <g id="xtick_14">
     <g id="line2d_19">
      <g>
       <use style="stroke:#000000;stroke-width:0.8;" x="411.145725" xlink:href="#m5d53af2aeb" y="194.39717"/>
      </g>
     </g>
     <g id="text_22">
      <!-- 14 -->
      <g transform="translate(404.783225 208.995607)scale(0.1 -0.1)">
       <use xlink:href="#DejaVuSans-31"/>
       <use x="63.623047" xlink:href="#DejaVuSans-34"/>
      </g>
     </g>
    </g>
    <g id="text_23">
     <!-- Time difference (count) (s) -->
     <g transform="translate(186.697937 222.673732)scale(0.1 -0.1)">
      <defs>
       <path d="M -19 4666 
L 3928 4666 
L 3928 4134 
L 2272 4134 
L 2272 0 
L 1638 0 
L 1638 4134 
L -19 4134 
L -19 4666 
z
" id="DejaVuSans-54" transform="scale(0.015625)"/>
      </defs>
      <use xlink:href="#DejaVuSans-54"/>
      <use x="57.958984" xlink:href="#DejaVuSans-69"/>
      <use x="85.742188" xlink:href="#DejaVuSans-6d"/>
      <use x="183.154297" xlink:href="#DejaVuSans-65"/>
      <use x="244.677734" xlink:href="#DejaVuSans-20"/>
      <use x="276.464844" xlink:href="#DejaVuSans-64"/>
      <use x="339.941406" xlink:href="#DejaVuSans-69"/>
      <use x="367.724609" xlink:href="#DejaVuSans-66"/>
      <use x="402.929688" xlink:href="#DejaVuSans-66"/>
      <use x="438.134766" xlink:href="#DejaVuSans-65"/>
      <use x="499.658203" xlink:href="#DejaVuSans-72"/>
      <use x="538.521484" xlink:href="#DejaVuSans-65"/>
      <use x="600.044922" xlink:href="#DejaVuSans-6e"/>
      <use x="663.423828" xlink:href="#DejaVuSans-63"/>
      <use x="718.404297" xlink:href="#DejaVuSans-65"/>
      <use x="779.927734" xlink:href="#DejaVuSans-20"/>
      <use x="811.714844" xlink:href="#DejaVuSans-28"/>
      <use x="850.728516" xlink:href="#DejaVuSans-63"/>
      <use x="905.708984" xlink:href="#DejaVuSans-6f"/>
      <use x="966.890625" xlink:href="#DejaVuSans-75"/>
      <use x="1030.269531" xlink:href="#DejaVuSans-6e"/>
      <use x="1093.648438" xlink:href="#DejaVuSans-74"/>
      <use x="1132.857422" xlink:href="#DejaVuSans-29"/>
      <use x="1171.871094" xlink:href="#DejaVuSans-20"/>
      <use x="1203.658203" xlink:href="#DejaVuSans-28"/>
      <use x="1242.671875" xlink:href="#DejaVuSans-73"/>
      <use x="1294.771484" xlink:href="#DejaVuSans-29"/>
     </g>
    </g>
   </g>
   <g id="matplotlib.axis_4">
    <g id="ytick_4">
     <g id="line2d_20">
      <g>
       <use style="stroke:#000000;stroke-width:0.8;" x="64.694" xlink:href="#md2fb425906" y="191.350132"/>
      </g>
     </g>
     <g id="text_24">
      <!-- $\mathdefault{10^{0}}$ -->
      <g transform="translate(40.094 195.149351)scale(0.1 -0.1)">
       <use transform="translate(0 0.765625)" xlink:href="#DejaVuSans-31"/>
       <use transform="translate(63.623047 0.765625)" xlink:href="#DejaVuSans-30"/>
       <use transform="translate(128.203125 39.046875)scale(0.7)" xlink:href="#DejaVuSans-30"/>
      </g>
     </g>
    </g>
    <g id="ytick_5">
     <g id="line2d_21">
      <g>
       <use style="stroke:#000000;stroke-width:0.8;" x="64.694" xlink:href="#md2fb425906" y="158.321668"/>
      </g>
     </g>
     <g id="text_25">
      <!-- $\mathdefault{10^{1}}$ -->
      <g transform="translate(40.094 162.120887)scale(0.1 -0.1)">
       <use transform="translate(0 0.684375)" xlink:href="#DejaVuSans-31"/>
       <use transform="translate(63.623047 0.684375)" xlink:href="#DejaVuSans-30"/>
       <use transform="translate(128.203125 38.965625)scale(0.7)" xlink:href="#DejaVuSans-31"/>
      </g>
     </g>
    </g>
    <g id="ytick_6">
     <g id="line2d_22">
      <defs>
       <path d="M 0 0 
L -2 0 
" id="me1d5542c7b" style="stroke:#000000;stroke-width:0.6;"/>
      </defs>
      <g>
       <use style="stroke:#000000;stroke-width:0.6;" x="64.694" xlink:href="#me1d5542c7b" y="192.861432"/>
      </g>
     </g>
    </g>
    <g id="ytick_7">
     <g id="line2d_23">
      <g>
       <use style="stroke:#000000;stroke-width:0.6;" x="64.694" xlink:href="#me1d5542c7b" y="181.407574"/>
      </g>
     </g>
    </g>
    <g id="ytick_8">
     <g id="line2d_24">
      <g>
       <use style="stroke:#000000;stroke-width:0.6;" x="64.694" xlink:href="#me1d5542c7b" y="175.59155"/>
      </g>
     </g>
    </g>
    <g id="ytick_9">
     <g id="line2d_25">
      <g>
       <use style="stroke:#000000;stroke-width:0.6;" x="64.694" xlink:href="#me1d5542c7b" y="171.465015"/>
      </g>
     </g>
    </g>
    <g id="ytick_10">
     <g id="line2d_26">
      <g>
       <use style="stroke:#000000;stroke-width:0.6;" x="64.694" xlink:href="#me1d5542c7b" y="168.264226"/>
      </g>
     </g>
    </g>
    <g id="ytick_11">
     <g id="line2d_27">
      <g>
       <use style="stroke:#000000;stroke-width:0.6;" x="64.694" xlink:href="#me1d5542c7b" y="165.648991"/>
      </g>
     </g>
    </g>
    <g id="ytick_12">
     <g id="line2d_28">
      <g>
       <use style="stroke:#000000;stroke-width:0.6;" x="64.694" xlink:href="#me1d5542c7b" y="163.437842"/>
      </g>
     </g>
    </g>
    <g id="ytick_13">
     <g id="line2d_29">
      <g>
       <use style="stroke:#000000;stroke-width:0.6;" x="64.694" xlink:href="#me1d5542c7b" y="161.522457"/>
      </g>
     </g>
    </g>
    <g id="ytick_14">
     <g id="line2d_30">
      <g>
       <use style="stroke:#000000;stroke-width:0.6;" x="64.694" xlink:href="#me1d5542c7b" y="159.832968"/>
      </g>
     </g>
    </g>
    <g id="ytick_15">
     <g id="line2d_31">
      <g>
       <use style="stroke:#000000;stroke-width:0.6;" x="64.694" xlink:href="#me1d5542c7b" y="148.379109"/>
      </g>
     </g>
    </g>
    <g id="ytick_16">
     <g id="line2d_32">
      <g>
       <use style="stroke:#000000;stroke-width:0.6;" x="64.694" xlink:href="#me1d5542c7b" y="142.563086"/>
      </g>
     </g>
    </g>
    <g id="ytick_17">
     <g id="line2d_33">
      <g>
       <use style="stroke:#000000;stroke-width:0.6;" x="64.694" xlink:href="#me1d5542c7b" y="138.436551"/>
      </g>
     </g>
    </g>
    <g id="ytick_18">
     <g id="line2d_34">
      <g>
       <use style="stroke:#000000;stroke-width:0.6;" x="64.694" xlink:href="#me1d5542c7b" y="135.235762"/>
      </g>
     </g>
    </g>
    <g id="ytick_19">
     <g id="line2d_35">
      <g>
       <use style="stroke:#000000;stroke-width:0.6;" x="64.694" xlink:href="#me1d5542c7b" y="132.620527"/>
      </g>
     </g>
    </g>
    <g id="ytick_20">
     <g id="line2d_36">
      <g>
       <use style="stroke:#000000;stroke-width:0.6;" x="64.694" xlink:href="#me1d5542c7b" y="130.409378"/>
      </g>
     </g>
    </g>
    <g id="ytick_21">
     <g id="line2d_37">
      <g>
       <use style="stroke:#000000;stroke-width:0.6;" x="64.694" xlink:href="#me1d5542c7b" y="128.493993"/>
      </g>
     </g>
    </g>
    <g id="text_26">
     <!-- Frequency -->
     <g transform="translate(34.014313 186.709442)rotate(-90)scale(0.1 -0.1)">
      <defs>
       <path d="M 628 4666 
L 3309 4666 
L 3309 4134 
L 1259 4134 
L 1259 2759 
L 3109 2759 
L 3109 2228 
L 1259 2228 
L 1259 0 
L 628 0 
L 628 4666 
z
" id="DejaVuSans-46" transform="scale(0.015625)"/>
       <path d="M 947 1747 
Q 947 1113 1208 752 
Q 1469 391 1925 391 
Q 2381 391 2643 752 
Q 2906 1113 2906 1747 
Q 2906 2381 2643 2742 
Q 2381 3103 1925 3103 
Q 1469 3103 1208 2742 
Q 947 2381 947 1747 
z
M 2906 525 
Q 2725 213 2448 61 
Q 2172 -91 1784 -91 
Q 1150 -91 751 415 
Q 353 922 353 1747 
Q 353 2572 751 3078 
Q 1150 3584 1784 3584 
Q 2172 3584 2448 3432 
Q 2725 3281 2906 2969 
L 2906 3500 
L 3481 3500 
L 3481 -1331 
L 2906 -1331 
L 2906 525 
z
" id="DejaVuSans-71" transform="scale(0.015625)"/>
      </defs>
      <use xlink:href="#DejaVuSans-46"/>
      <use x="50.269531" xlink:href="#DejaVuSans-72"/>
      <use x="89.132812" xlink:href="#DejaVuSans-65"/>
      <use x="150.65625" xlink:href="#DejaVuSans-71"/>
      <use x="214.132812" xlink:href="#DejaVuSans-75"/>
      <use x="277.511719" xlink:href="#DejaVuSans-65"/>
      <use x="339.035156" xlink:href="#DejaVuSans-6e"/>
      <use x="402.414062" xlink:href="#DejaVuSans-63"/>
      <use x="457.394531" xlink:href="#DejaVuSans-79"/>
     </g>
    </g>
   </g>
   <g id="patch_138">
    <path d="M 64.694 194.39717 
L 64.694 127.36234 
" style="fill:none;stroke:#000000;stroke-linecap:square;stroke-linejoin:miter;stroke-width:0.8;"/>
   </g>
   <g id="patch_139">
    <path d="M 442.08 194.39717 
L 442.08 127.36234 
" style="fill:none;stroke:#000000;stroke-linecap:square;stroke-linejoin:miter;stroke-width:0.8;"/>
   </g>
   <g id="patch_140">
    <path d="M 64.694 194.39717 
L 442.08 194.39717 
" style="fill:none;stroke:#000000;stroke-linecap:square;stroke-linejoin:miter;stroke-width:0.8;"/>
   </g>
   <g id="patch_141">
    <path d="M 64.694 127.36234 
L 442.08 127.36234 
" style="fill:none;stroke:#000000;stroke-linecap:square;stroke-linejoin:miter;stroke-width:0.8;"/>
   </g>
  </g>
  <g id="axes_3">
   <g id="patch_142">
    <path d="M 64.694 307.352 
L 442.08 307.352 
L 442.08 240.31717 
L 64.694 240.31717 
z
" style="fill:#ffffff;"/>
   </g>
   <g id="matplotlib.axis_5">
    <g id="xtick_15">
     <g id="line2d_38">
      <g>
       <use style="stroke:#000000;stroke-width:0.8;" x="64.694" xlink:href="#m5d53af2aeb" y="307.352"/>
      </g>
     </g>
     <g id="text_27">
      <!-- 0.0 -->
      <g transform="translate(56.742438 321.950437)scale(0.1 -0.1)">
       <use xlink:href="#DejaVuSans-30"/>
       <use x="63.623047" xlink:href="#DejaVuSans-2e"/>
       <use x="95.410156" xlink:href="#DejaVuSans-30"/>
      </g>
     </g>
    </g>
    <g id="xtick_16">
     <g id="line2d_39">
      <g>
       <use style="stroke:#000000;stroke-width:0.8;" x="140.1712" xlink:href="#m5d53af2aeb" y="307.352"/>
      </g>
     </g>
     <g id="text_28">
      <!-- 0.2 -->
      <g transform="translate(132.219638 321.950437)scale(0.1 -0.1)">
       <use xlink:href="#DejaVuSans-30"/>
       <use x="63.623047" xlink:href="#DejaVuSans-2e"/>
       <use x="95.410156" xlink:href="#DejaVuSans-32"/>
      </g>
     </g>
    </g>
    <g id="xtick_17">
     <g id="line2d_40">
      <g>
       <use style="stroke:#000000;stroke-width:0.8;" x="215.6484" xlink:href="#m5d53af2aeb" y="307.352"/>
      </g>
     </g>
     <g id="text_29">
      <!-- 0.4 -->
      <g transform="translate(207.696838 321.950437)scale(0.1 -0.1)">
       <use xlink:href="#DejaVuSans-30"/>
       <use x="63.623047" xlink:href="#DejaVuSans-2e"/>
       <use x="95.410156" xlink:href="#DejaVuSans-34"/>
      </g>
     </g>
    </g>
    <g id="xtick_18">
     <g id="line2d_41">
      <g>
       <use style="stroke:#000000;stroke-width:0.8;" x="291.1256" xlink:href="#m5d53af2aeb" y="307.352"/>
      </g>
     </g>
     <g id="text_30">
      <!-- 0.6 -->
      <g transform="translate(283.174038 321.950437)scale(0.1 -0.1)">
       <use xlink:href="#DejaVuSans-30"/>
       <use x="63.623047" xlink:href="#DejaVuSans-2e"/>
       <use x="95.410156" xlink:href="#DejaVuSans-36"/>
      </g>
     </g>
    </g>
    <g id="xtick_19">
     <g id="line2d_42">
      <g>
       <use style="stroke:#000000;stroke-width:0.8;" x="366.6028" xlink:href="#m5d53af2aeb" y="307.352"/>
      </g>
     </g>
     <g id="text_31">
      <!-- 0.8 -->
      <g transform="translate(358.651238 321.950437)scale(0.1 -0.1)">
       <use xlink:href="#DejaVuSans-30"/>
       <use x="63.623047" xlink:href="#DejaVuSans-2e"/>
       <use x="95.410156" xlink:href="#DejaVuSans-38"/>
      </g>
     </g>
    </g>
    <g id="xtick_20">
     <g id="line2d_43">
      <g>
       <use style="stroke:#000000;stroke-width:0.8;" x="442.08" xlink:href="#m5d53af2aeb" y="307.352"/>
      </g>
     </g>
     <g id="text_32">
      <!-- 1.0 -->
      <g transform="translate(434.128438 321.950437)scale(0.1 -0.1)">
       <use xlink:href="#DejaVuSans-31"/>
       <use x="63.623047" xlink:href="#DejaVuSans-2e"/>
       <use x="95.410156" xlink:href="#DejaVuSans-30"/>
      </g>
     </g>
    </g>
   </g>
   <g id="matplotlib.axis_6">
    <g id="ytick_22">
     <g id="line2d_44">
      <g>
       <use style="stroke:#000000;stroke-width:0.8;" x="64.694" xlink:href="#md2fb425906" y="307.352"/>
      </g>
     </g>
     <g id="text_33">
      <!-- 0.0 -->
      <g transform="translate(41.790875 311.151219)scale(0.1 -0.1)">
       <use xlink:href="#DejaVuSans-30"/>
       <use x="63.623047" xlink:href="#DejaVuSans-2e"/>
       <use x="95.410156" xlink:href="#DejaVuSans-30"/>
      </g>
     </g>
    </g>
    <g id="ytick_23">
     <g id="line2d_45">
      <g>
       <use style="stroke:#000000;stroke-width:0.8;" x="64.694" xlink:href="#md2fb425906" y="273.834585"/>
      </g>
     </g>
     <g id="text_34">
      <!-- 0.5 -->
      <g transform="translate(41.790875 277.633804)scale(0.1 -0.1)">
       <use xlink:href="#DejaVuSans-30"/>
       <use x="63.623047" xlink:href="#DejaVuSans-2e"/>
       <use x="95.410156" xlink:href="#DejaVuSans-35"/>
      </g>
     </g>
    </g>
    <g id="ytick_24">
     <g id="line2d_46">
      <g>
       <use style="stroke:#000000;stroke-width:0.8;" x="64.694" xlink:href="#md2fb425906" y="240.31717"/>
      </g>
     </g>
     <g id="text_35">
      <!-- 1.0 -->
      <g transform="translate(41.790875 244.116389)scale(0.1 -0.1)">
       <use xlink:href="#DejaVuSans-31"/>
       <use x="63.623047" xlink:href="#DejaVuSans-2e"/>
       <use x="95.410156" xlink:href="#DejaVuSans-30"/>
      </g>
     </g>
    </g>
   </g>
   <g id="patch_143">
    <path d="M 64.694 307.352 
L 64.694 240.31717 
" style="fill:none;stroke:#000000;stroke-linecap:square;stroke-linejoin:miter;stroke-width:0.8;"/>
   </g>
   <g id="patch_144">
    <path d="M 442.08 307.352 
L 442.08 240.31717 
" style="fill:none;stroke:#000000;stroke-linecap:square;stroke-linejoin:miter;stroke-width:0.8;"/>
   </g>
   <g id="patch_145">
    <path d="M 64.694 307.352 
L 442.08 307.352 
" style="fill:none;stroke:#000000;stroke-linecap:square;stroke-linejoin:miter;stroke-width:0.8;"/>
   </g>
   <g id="patch_146">
    <path d="M 64.694 240.31717 
L 442.08 240.31717 
" style="fill:none;stroke:#000000;stroke-linecap:square;stroke-linejoin:miter;stroke-width:0.8;"/>
   </g>
  </g>
 </g>
 <defs>
  <clipPath id="p143cdaf590">
   <rect height="67.03483" width="377.386" x="64.694" y="14.40751"/>
  </clipPath>
  <clipPath id="pc5f07ff5fa">
   <rect height="67.03483" width="377.386" x="64.694" y="127.36234"/>
  </clipPath>
 </defs>
</svg>
