<?xml version="1.0" encoding="utf-8" standalone="no"?>
<!DOCTYPE svg PUBLIC "-//W3C//DTD SVG 1.1//EN"
  "http://www.w3.org/Graphics/SVG/1.1/DTD/svg11.dtd">
<svg height="345.6pt" version="1.1" viewBox="0 0 460.8 345.6" width="460.8pt" xmlns="http://www.w3.org/2000/svg" xmlns:xlink="http://www.w3.org/1999/xlink">
 <metadata>
  <rdf:RDF xmlns:cc="http://creativecommons.org/ns#" xmlns:dc="http://purl.org/dc/elements/1.1/" xmlns:rdf="http://www.w3.org/1999/02/22-rdf-syntax-ns#">
   <cc:Work>
    <dc:type rdf:resource="http://purl.org/dc/dcmitype/StillImage"/>
    <dc:date>2021-10-23T22:12:27.129870</dc:date>
    <dc:format>image/svg+xml</dc:format>
    <dc:creator>
     <cc:Agent>
      <dc:title>Matplotlib v3.4.2, https://matplotlib.org/</dc:title>
     </cc:Agent>
    </dc:creator>
   </cc:Work>
  </rdf:RDF>
 </metadata>
 <defs>
  <style type="text/css">*{stroke-linecap:butt;stroke-linejoin:round;}</style>
 </defs>
 <g id="figure_1">
  <g id="patch_1">
   <path d="M 0 345.6 
L 460.8 345.6 
L 460.8 0 
L 0 0 
z
" style="fill:#ffffff;"/>
  </g>
  <g id="axes_1">
   <g id="patch_2">
    <path d="M 63.916685 293.272 
L 450 293.272 
L 450 10.8 
L 63.916685 10.8 
z
" style="fill:#ffffff;"/>
   </g>
   <g id="patch_3">
    <path clip-path="url(#p677a64b637)" d="M 81.465926 105349.180572 
L 84.975775 105349.180572 
L 84.975775 23.639636 
L 81.465926 23.639636 
z
" style="fill:#1f77b4;"/>
   </g>
   <g id="patch_4">
    <path clip-path="url(#p677a64b637)" d="M 84.975775 105349.180572 
L 88.485623 105349.180572 
L 88.485623 32.687101 
L 84.975775 32.687101 
z
" style="fill:#1f77b4;"/>
   </g>
   <g id="patch_5">
    <path clip-path="url(#p677a64b637)" d="M 88.485623 105349.180572 
L 91.995471 105349.180572 
L 91.995471 34.110002 
L 88.485623 34.110002 
z
" style="fill:#1f77b4;"/>
   </g>
   <g id="patch_6">
    <path clip-path="url(#p677a64b637)" d="M 91.995471 105349.180572 
L 95.50532 105349.180572 
L 95.50532 45.020659 
L 91.995471 45.020659 
z
" style="fill:#1f77b4;"/>
   </g>
   <g id="patch_7">
    <path clip-path="url(#p677a64b637)" d="M 95.50532 105349.180572 
L 99.015168 105349.180572 
L 99.015168 50.88957 
L 95.50532 50.88957 
z
" style="fill:#1f77b4;"/>
   </g>
   <g id="patch_8">
    <path clip-path="url(#p677a64b637)" d="M 99.015168 105349.180572 
L 102.525016 105349.180572 
L 102.525016 61.221148 
L 99.015168 61.221148 
z
" style="fill:#1f77b4;"/>
   </g>
   <g id="patch_9">
    <path clip-path="url(#p677a64b637)" d="M 102.525016 105349.180572 
L 106.034865 105349.180572 
L 106.034865 63.522347 
L 102.525016 63.522347 
z
" style="fill:#1f77b4;"/>
   </g>
   <g id="patch_10">
    <path clip-path="url(#p677a64b637)" d="M 106.034865 105349.180572 
L 109.544713 105349.180572 
L 109.544713 92.108013 
L 106.034865 92.108013 
z
" style="fill:#1f77b4;"/>
   </g>
   <g id="patch_11">
    <path clip-path="url(#p677a64b637)" d="M 109.544713 105349.180572 
L 113.054561 105349.180572 
L 113.054561 90.659295 
L 109.544713 90.659295 
z
" style="fill:#1f77b4;"/>
   </g>
   <g id="patch_12">
    <path clip-path="url(#p677a64b637)" d="M 113.054561 105349.180572 
L 116.56441 105349.180572 
L 116.56441 89.25516 
L 113.054561 89.25516 
z
" style="fill:#1f77b4;"/>
   </g>
   <g id="patch_13">
    <path clip-path="url(#p677a64b637)" d="M 116.56441 105349.180572 
L 120.074258 105349.180572 
L 120.074258 96.752436 
L 116.56441 96.752436 
z
" style="fill:#1f77b4;"/>
   </g>
   <g id="patch_14">
    <path clip-path="url(#p677a64b637)" d="M 120.074258 105349.180572 
L 123.584106 105349.180572 
L 123.584106 105.72848 
L 120.074258 105.72848 
z
" style="fill:#1f77b4;"/>
   </g>
   <g id="patch_15">
    <path clip-path="url(#p677a64b637)" d="M 123.584106 105349.180572 
L 127.093955 105349.180572 
L 127.093955 110.979183 
L 123.584106 110.979183 
z
" style="fill:#1f77b4;"/>
   </g>
   <g id="patch_16">
    <path clip-path="url(#p677a64b637)" d="M 127.093955 105349.180572 
L 130.603803 105349.180572 
L 130.603803 116.913608 
L 127.093955 116.913608 
z
" style="fill:#1f77b4;"/>
   </g>
   <g id="patch_17">
    <path clip-path="url(#p677a64b637)" d="M 130.603803 105349.180572 
L 134.113651 105349.180572 
L 134.113651 125.233082 
L 130.603803 125.233082 
z
" style="fill:#1f77b4;"/>
   </g>
   <g id="patch_18">
    <path clip-path="url(#p677a64b637)" d="M 134.113651 105349.180572 
L 137.623499 105349.180572 
L 137.623499 148.542453 
L 134.113651 148.542453 
z
" style="fill:#1f77b4;"/>
   </g>
   <g id="patch_19">
    <path clip-path="url(#p677a64b637)" d="M 137.623499 105349.180572 
L 141.133348 105349.180572 
L 141.133348 137.357325 
L 137.623499 137.357325 
z
" style="fill:#1f77b4;"/>
   </g>
   <g id="patch_20">
    <path clip-path="url(#p677a64b637)" d="M 141.133348 105349.180572 
L 144.643196 105349.180572 
L 144.643196 148.542453 
L 141.133348 148.542453 
z
" style="fill:#1f77b4;"/>
   </g>
   <g id="patch_21">
    <path clip-path="url(#p677a64b637)" d="M 144.643196 105349.180572 
L 148.153044 105349.180572 
L 148.153044 163.39173 
L 144.643196 163.39173 
z
" style="fill:#1f77b4;"/>
   </g>
   <g id="patch_22">
    <path clip-path="url(#p677a64b637)" d="M 148.153044 105349.180572 
L 151.662893 105349.180572 
L 151.662893 191.63897 
L 148.153044 191.63897 
z
" style="fill:#1f77b4;"/>
   </g>
   <g id="patch_23">
    <path clip-path="url(#p677a64b637)" d="M 151.662893 105349.180572 
L 155.172741 105349.180572 
L 155.172741 148.542453 
L 151.662893 148.542453 
z
" style="fill:#1f77b4;"/>
   </g>
   <g id="patch_24">
    <path clip-path="url(#p677a64b637)" d="M 155.172741 105349.180572 
L 158.682589 105349.180572 
L 158.682589 217.174674 
L 155.172741 217.174674 
z
" style="fill:#1f77b4;"/>
   </g>
   <g id="patch_25">
    <path clip-path="url(#p677a64b637)" d="M 158.682589 105349.180572 
L 162.192438 105349.180572 
L 162.192438 175.363615 
L 158.682589 175.363615 
z
" style="fill:#1f77b4;"/>
   </g>
   <g id="patch_26">
    <path clip-path="url(#p677a64b637)" d="M 162.192438 105349.180572 
L 165.702286 105349.180572 
L 165.702286 198.672986 
L 162.192438 198.672986 
z
" style="fill:#1f77b4;"/>
   </g>
   <g id="patch_27">
    <path clip-path="url(#p677a64b637)" d="M 165.702286 105349.180572 
L 169.212134 105349.180572 
L 169.212134 175.363615 
L 165.702286 175.363615 
z
" style="fill:#1f77b4;"/>
   </g>
   <g id="patch_28">
    <path clip-path="url(#p677a64b637)" d="M 169.212134 105349.180572 
L 172.721983 105349.180572 
L 172.721983 191.63897 
L 169.212134 191.63897 
z
" style="fill:#1f77b4;"/>
   </g>
   <g id="patch_29">
    <path clip-path="url(#p677a64b637)" d="M 172.721983 105349.180572 
L 176.231831 105349.180572 
L 176.231831 191.63897 
L 172.721983 191.63897 
z
" style="fill:#1f77b4;"/>
   </g>
   <g id="patch_30">
    <path clip-path="url(#p677a64b637)" d="M 176.231831 105349.180572 
L 179.741679 105349.180572 
L 179.741679 230.301831 
L 176.231831 230.301831 
z
" style="fill:#1f77b4;"/>
   </g>
   <g id="patch_31">
    <path clip-path="url(#p677a64b637)" d="M 179.741679 105349.180572 
L 183.251528 105349.180572 
L 183.251528 248.803519 
L 179.741679 248.803519 
z
" style="fill:#1f77b4;"/>
   </g>
   <g id="patch_32">
    <path clip-path="url(#p677a64b637)" d="M 183.251528 105349.180572 
L 186.761376 105349.180572 
L 186.761376 280.432364 
L 183.251528 280.432364 
z
" style="fill:#1f77b4;"/>
   </g>
   <g id="patch_33">
    <path clip-path="url(#p677a64b637)" d="M 186.761376 105349.180572 
L 190.271224 105349.180572 
L 190.271224 230.301831 
L 186.761376 230.301831 
z
" style="fill:#1f77b4;"/>
   </g>
   <g id="patch_34">
    <path clip-path="url(#p677a64b637)" d="M 190.271224 105349.180572 
L 193.781073 105349.180572 
L 193.781073 248.803519 
L 190.271224 248.803519 
z
" style="fill:#1f77b4;"/>
   </g>
   <g id="patch_35">
    <path clip-path="url(#p677a64b637)" d="M 193.781073 105349.180572 
L 197.290921 105349.180572 
L 197.290921 248.803519 
L 193.781073 248.803519 
z
" style="fill:#1f77b4;"/>
   </g>
   <g id="patch_36">
    <path clip-path="url(#p677a64b637)" d="M 197.290921 105349.180572 
L 200.800769 105349.180572 
L 200.800769 280.432364 
L 197.290921 280.432364 
z
" style="fill:#1f77b4;"/>
   </g>
   <g id="patch_37">
    <path clip-path="url(#p677a64b637)" d="M 200.800769 105349.180572 
L 204.310618 105349.180572 
L 204.310618 230.301831 
L 200.800769 230.301831 
z
" style="fill:#1f77b4;"/>
   </g>
   <g id="patch_38">
    <path clip-path="url(#p677a64b637)" d="M 204.310618 105349.180572 
L 207.820466 105349.180572 
L 207.820466 280.432364 
L 204.310618 280.432364 
z
" style="fill:#1f77b4;"/>
   </g>
   <g id="patch_39">
    <path clip-path="url(#p677a64b637)" d="M 207.820466 105349.180572 
L 211.330314 105349.180572 
L 211.330314 248.803519 
L 207.820466 248.803519 
z
" style="fill:#1f77b4;"/>
   </g>
   <g id="patch_40">
    <path clip-path="url(#p677a64b637)" d="M 211.330314 105349.180572 
L 214.840163 105349.180572 
L 214.840163 280.432364 
L 211.330314 280.432364 
z
" style="fill:#1f77b4;"/>
   </g>
   <g id="patch_41">
    <path clip-path="url(#p677a64b637)" d="M 214.840163 105349.180572 
L 218.350011 105349.180572 
L 218.350011 105349.180572 
L 214.840163 105349.180572 
z
" style="fill:#1f77b4;"/>
   </g>
   <g id="patch_42">
    <path clip-path="url(#p677a64b637)" d="M 218.350011 105349.180572 
L 221.859859 105349.180572 
L 221.859859 105349.180572 
L 218.350011 105349.180572 
z
" style="fill:#1f77b4;"/>
   </g>
   <g id="patch_43">
    <path clip-path="url(#p677a64b637)" d="M 221.859859 105349.180572 
L 225.369707 105349.180572 
L 225.369707 105349.180572 
L 221.859859 105349.180572 
z
" style="fill:#1f77b4;"/>
   </g>
   <g id="patch_44">
    <path clip-path="url(#p677a64b637)" d="M 225.369708 105349.180572 
L 228.879556 105349.180572 
L 228.879556 105349.180572 
L 225.369708 105349.180572 
z
" style="fill:#1f77b4;"/>
   </g>
   <g id="patch_45">
    <path clip-path="url(#p677a64b637)" d="M 228.879556 105349.180572 
L 232.389404 105349.180572 
L 232.389404 105349.180572 
L 228.879556 105349.180572 
z
" style="fill:#1f77b4;"/>
   </g>
   <g id="patch_46">
    <path clip-path="url(#p677a64b637)" d="M 232.389404 105349.180572 
L 235.899252 105349.180572 
L 235.899252 105349.180572 
L 232.389404 105349.180572 
z
" style="fill:#1f77b4;"/>
   </g>
   <g id="patch_47">
    <path clip-path="url(#p677a64b637)" d="M 235.899252 105349.180572 
L 239.409101 105349.180572 
L 239.409101 280.432364 
L 235.899252 280.432364 
z
" style="fill:#1f77b4;"/>
   </g>
   <g id="patch_48">
    <path clip-path="url(#p677a64b637)" d="M 239.409101 105349.180572 
L 242.918949 105349.180572 
L 242.918949 105349.180572 
L 239.409101 105349.180572 
z
" style="fill:#1f77b4;"/>
   </g>
   <g id="patch_49">
    <path clip-path="url(#p677a64b637)" d="M 242.918949 105349.180572 
L 246.428797 105349.180572 
L 246.428797 105349.180572 
L 242.918949 105349.180572 
z
" style="fill:#1f77b4;"/>
   </g>
   <g id="patch_50">
    <path clip-path="url(#p677a64b637)" d="M 246.428797 105349.180572 
L 249.938646 105349.180572 
L 249.938646 280.432364 
L 246.428797 280.432364 
z
" style="fill:#1f77b4;"/>
   </g>
   <g id="patch_51">
    <path clip-path="url(#p677a64b637)" d="M 249.938646 105349.180572 
L 253.448494 105349.180572 
L 253.448494 105349.180572 
L 249.938646 105349.180572 
z
" style="fill:#1f77b4;"/>
   </g>
   <g id="patch_52">
    <path clip-path="url(#p677a64b637)" d="M 253.448494 105349.180572 
L 256.958342 105349.180572 
L 256.958342 105349.180572 
L 253.448494 105349.180572 
z
" style="fill:#1f77b4;"/>
   </g>
   <g id="patch_53">
    <path clip-path="url(#p677a64b637)" d="M 256.958342 105349.180572 
L 260.468191 105349.180572 
L 260.468191 105349.180572 
L 256.958342 105349.180572 
z
" style="fill:#1f77b4;"/>
   </g>
   <g id="patch_54">
    <path clip-path="url(#p677a64b637)" d="M 260.468191 105349.180572 
L 263.978039 105349.180572 
L 263.978039 105349.180572 
L 260.468191 105349.180572 
z
" style="fill:#1f77b4;"/>
   </g>
   <g id="patch_55">
    <path clip-path="url(#p677a64b637)" d="M 263.978039 105349.180572 
L 267.487887 105349.180572 
L 267.487887 105349.180572 
L 263.978039 105349.180572 
z
" style="fill:#1f77b4;"/>
   </g>
   <g id="patch_56">
    <path clip-path="url(#p677a64b637)" d="M 267.487887 105349.180572 
L 270.997736 105349.180572 
L 270.997736 105349.180572 
L 267.487887 105349.180572 
z
" style="fill:#1f77b4;"/>
   </g>
   <g id="patch_57">
    <path clip-path="url(#p677a64b637)" d="M 270.997736 105349.180572 
L 274.507584 105349.180572 
L 274.507584 105349.180572 
L 270.997736 105349.180572 
z
" style="fill:#1f77b4;"/>
   </g>
   <g id="patch_58">
    <path clip-path="url(#p677a64b637)" d="M 274.507584 105349.180572 
L 278.017432 105349.180572 
L 278.017432 105349.180572 
L 274.507584 105349.180572 
z
" style="fill:#1f77b4;"/>
   </g>
   <g id="patch_59">
    <path clip-path="url(#p677a64b637)" d="M 278.017432 105349.180572 
L 281.527281 105349.180572 
L 281.527281 105349.180572 
L 278.017432 105349.180572 
z
" style="fill:#1f77b4;"/>
   </g>
   <g id="patch_60">
    <path clip-path="url(#p677a64b637)" d="M 281.527281 105349.180572 
L 285.037129 105349.180572 
L 285.037129 280.432364 
L 281.527281 280.432364 
z
" style="fill:#1f77b4;"/>
   </g>
   <g id="patch_61">
    <path clip-path="url(#p677a64b637)" d="M 285.037129 105349.180572 
L 288.546977 105349.180572 
L 288.546977 105349.180572 
L 285.037129 105349.180572 
z
" style="fill:#1f77b4;"/>
   </g>
   <g id="patch_62">
    <path clip-path="url(#p677a64b637)" d="M 288.546977 105349.180572 
L 292.056826 105349.180572 
L 292.056826 280.432364 
L 288.546977 280.432364 
z
" style="fill:#1f77b4;"/>
   </g>
   <g id="patch_63">
    <path clip-path="url(#p677a64b637)" d="M 292.056826 105349.180572 
L 295.566674 105349.180572 
L 295.566674 280.432364 
L 292.056826 280.432364 
z
" style="fill:#1f77b4;"/>
   </g>
   <g id="patch_64">
    <path clip-path="url(#p677a64b637)" d="M 295.566674 105349.180572 
L 299.076522 105349.180572 
L 299.076522 105349.180572 
L 295.566674 105349.180572 
z
" style="fill:#1f77b4;"/>
   </g>
   <g id="patch_65">
    <path clip-path="url(#p677a64b637)" d="M 299.076522 105349.180572 
L 302.586371 105349.180572 
L 302.586371 105349.180572 
L 299.076522 105349.180572 
z
" style="fill:#1f77b4;"/>
   </g>
   <g id="patch_66">
    <path clip-path="url(#p677a64b637)" d="M 302.586371 105349.180572 
L 306.096219 105349.180572 
L 306.096219 105349.180572 
L 302.586371 105349.180572 
z
" style="fill:#1f77b4;"/>
   </g>
   <g id="patch_67">
    <path clip-path="url(#p677a64b637)" d="M 306.096219 105349.180572 
L 309.606067 105349.180572 
L 309.606067 105349.180572 
L 306.096219 105349.180572 
z
" style="fill:#1f77b4;"/>
   </g>
   <g id="patch_68">
    <path clip-path="url(#p677a64b637)" d="M 309.606067 105349.180572 
L 313.115916 105349.180572 
L 313.115916 105349.180572 
L 309.606067 105349.180572 
z
" style="fill:#1f77b4;"/>
   </g>
   <g id="patch_69">
    <path clip-path="url(#p677a64b637)" d="M 313.115916 105349.180572 
L 316.625764 105349.180572 
L 316.625764 105349.180572 
L 313.115916 105349.180572 
z
" style="fill:#1f77b4;"/>
   </g>
   <g id="patch_70">
    <path clip-path="url(#p677a64b637)" d="M 316.625764 105349.180572 
L 320.135612 105349.180572 
L 320.135612 105349.180572 
L 316.625764 105349.180572 
z
" style="fill:#1f77b4;"/>
   </g>
   <g id="patch_71">
    <path clip-path="url(#p677a64b637)" d="M 320.135612 105349.180572 
L 323.64546 105349.180572 
L 323.64546 105349.180572 
L 320.135612 105349.180572 
z
" style="fill:#1f77b4;"/>
   </g>
   <g id="patch_72">
    <path clip-path="url(#p677a64b637)" d="M 323.64546 105349.180572 
L 327.155309 105349.180572 
L 327.155309 105349.180572 
L 323.64546 105349.180572 
z
" style="fill:#1f77b4;"/>
   </g>
   <g id="patch_73">
    <path clip-path="url(#p677a64b637)" d="M 327.155309 105349.180572 
L 330.665157 105349.180572 
L 330.665157 105349.180572 
L 327.155309 105349.180572 
z
" style="fill:#1f77b4;"/>
   </g>
   <g id="patch_74">
    <path clip-path="url(#p677a64b637)" d="M 330.665157 105349.180572 
L 334.175005 105349.180572 
L 334.175005 105349.180572 
L 330.665157 105349.180572 
z
" style="fill:#1f77b4;"/>
   </g>
   <g id="patch_75">
    <path clip-path="url(#p677a64b637)" d="M 334.175005 105349.180572 
L 337.684854 105349.180572 
L 337.684854 105349.180572 
L 334.175005 105349.180572 
z
" style="fill:#1f77b4;"/>
   </g>
   <g id="patch_76">
    <path clip-path="url(#p677a64b637)" d="M 337.684854 105349.180572 
L 341.194702 105349.180572 
L 341.194702 105349.180572 
L 337.684854 105349.180572 
z
" style="fill:#1f77b4;"/>
   </g>
   <g id="patch_77">
    <path clip-path="url(#p677a64b637)" d="M 341.194702 105349.180572 
L 344.70455 105349.180572 
L 344.70455 105349.180572 
L 341.194702 105349.180572 
z
" style="fill:#1f77b4;"/>
   </g>
   <g id="patch_78">
    <path clip-path="url(#p677a64b637)" d="M 344.70455 105349.180572 
L 348.214399 105349.180572 
L 348.214399 105349.180572 
L 344.70455 105349.180572 
z
" style="fill:#1f77b4;"/>
   </g>
   <g id="patch_79">
    <path clip-path="url(#p677a64b637)" d="M 348.214399 105349.180572 
L 351.724247 105349.180572 
L 351.724247 105349.180572 
L 348.214399 105349.180572 
z
" style="fill:#1f77b4;"/>
   </g>
   <g id="patch_80">
    <path clip-path="url(#p677a64b637)" d="M 351.724247 105349.180572 
L 355.234095 105349.180572 
L 355.234095 105349.180572 
L 351.724247 105349.180572 
z
" style="fill:#1f77b4;"/>
   </g>
   <g id="patch_81">
    <path clip-path="url(#p677a64b637)" d="M 355.234095 105349.180572 
L 358.743944 105349.180572 
L 358.743944 105349.180572 
L 355.234095 105349.180572 
z
" style="fill:#1f77b4;"/>
   </g>
   <g id="patch_82">
    <path clip-path="url(#p677a64b637)" d="M 358.743944 105349.180572 
L 362.253792 105349.180572 
L 362.253792 105349.180572 
L 358.743944 105349.180572 
z
" style="fill:#1f77b4;"/>
   </g>
   <g id="patch_83">
    <path clip-path="url(#p677a64b637)" d="M 362.253792 105349.180572 
L 365.76364 105349.180572 
L 365.76364 105349.180572 
L 362.253792 105349.180572 
z
" style="fill:#1f77b4;"/>
   </g>
   <g id="patch_84">
    <path clip-path="url(#p677a64b637)" d="M 365.76364 105349.180572 
L 369.273489 105349.180572 
L 369.273489 105349.180572 
L 365.76364 105349.180572 
z
" style="fill:#1f77b4;"/>
   </g>
   <g id="patch_85">
    <path clip-path="url(#p677a64b637)" d="M 369.273489 105349.180572 
L 372.783337 105349.180572 
L 372.783337 105349.180572 
L 369.273489 105349.180572 
z
" style="fill:#1f77b4;"/>
   </g>
   <g id="patch_86">
    <path clip-path="url(#p677a64b637)" d="M 372.783337 105349.180572 
L 376.293185 105349.180572 
L 376.293185 105349.180572 
L 372.783337 105349.180572 
z
" style="fill:#1f77b4;"/>
   </g>
   <g id="patch_87">
    <path clip-path="url(#p677a64b637)" d="M 376.293185 105349.180572 
L 379.803034 105349.180572 
L 379.803034 105349.180572 
L 376.293185 105349.180572 
z
" style="fill:#1f77b4;"/>
   </g>
   <g id="patch_88">
    <path clip-path="url(#p677a64b637)" d="M 379.803034 105349.180572 
L 383.312882 105349.180572 
L 383.312882 105349.180572 
L 379.803034 105349.180572 
z
" style="fill:#1f77b4;"/>
   </g>
   <g id="patch_89">
    <path clip-path="url(#p677a64b637)" d="M 383.312882 105349.180572 
L 386.82273 105349.180572 
L 386.82273 105349.180572 
L 383.312882 105349.180572 
z
" style="fill:#1f77b4;"/>
   </g>
   <g id="patch_90">
    <path clip-path="url(#p677a64b637)" d="M 386.82273 105349.180572 
L 390.332579 105349.180572 
L 390.332579 105349.180572 
L 386.82273 105349.180572 
z
" style="fill:#1f77b4;"/>
   </g>
   <g id="patch_91">
    <path clip-path="url(#p677a64b637)" d="M 390.332579 105349.180572 
L 393.842427 105349.180572 
L 393.842427 105349.180572 
L 390.332579 105349.180572 
z
" style="fill:#1f77b4;"/>
   </g>
   <g id="patch_92">
    <path clip-path="url(#p677a64b637)" d="M 393.842427 105349.180572 
L 397.352275 105349.180572 
L 397.352275 105349.180572 
L 393.842427 105349.180572 
z
" style="fill:#1f77b4;"/>
   </g>
   <g id="patch_93">
    <path clip-path="url(#p677a64b637)" d="M 397.352275 105349.180572 
L 400.862124 105349.180572 
L 400.862124 105349.180572 
L 397.352275 105349.180572 
z
" style="fill:#1f77b4;"/>
   </g>
   <g id="patch_94">
    <path clip-path="url(#p677a64b637)" d="M 400.862124 105349.180572 
L 404.371972 105349.180572 
L 404.371972 105349.180572 
L 400.862124 105349.180572 
z
" style="fill:#1f77b4;"/>
   </g>
   <g id="patch_95">
    <path clip-path="url(#p677a64b637)" d="M 404.371972 105349.180572 
L 407.88182 105349.180572 
L 407.88182 105349.180572 
L 404.371972 105349.180572 
z
" style="fill:#1f77b4;"/>
   </g>
   <g id="patch_96">
    <path clip-path="url(#p677a64b637)" d="M 407.88182 105349.180572 
L 411.391668 105349.180572 
L 411.391668 105349.180572 
L 407.88182 105349.180572 
z
" style="fill:#1f77b4;"/>
   </g>
   <g id="patch_97">
    <path clip-path="url(#p677a64b637)" d="M 411.391668 105349.180572 
L 414.901517 105349.180572 
L 414.901517 105349.180572 
L 411.391668 105349.180572 
z
" style="fill:#1f77b4;"/>
   </g>
   <g id="patch_98">
    <path clip-path="url(#p677a64b637)" d="M 414.901517 105349.180572 
L 418.411365 105349.180572 
L 418.411365 105349.180572 
L 414.901517 105349.180572 
z
" style="fill:#1f77b4;"/>
   </g>
   <g id="patch_99">
    <path clip-path="url(#p677a64b637)" d="M 418.411365 105349.180572 
L 421.921213 105349.180572 
L 421.921213 105349.180572 
L 418.411365 105349.180572 
z
" style="fill:#1f77b4;"/>
   </g>
   <g id="patch_100">
    <path clip-path="url(#p677a64b637)" d="M 421.921213 105349.180572 
L 425.431062 105349.180572 
L 425.431062 105349.180572 
L 421.921213 105349.180572 
z
" style="fill:#1f77b4;"/>
   </g>
   <g id="patch_101">
    <path clip-path="url(#p677a64b637)" d="M 425.431062 105349.180572 
L 428.94091 105349.180572 
L 428.94091 105349.180572 
L 425.431062 105349.180572 
z
" style="fill:#1f77b4;"/>
   </g>
   <g id="patch_102">
    <path clip-path="url(#p677a64b637)" d="M 428.94091 105349.180572 
L 432.450758 105349.180572 
L 432.450758 280.432364 
L 428.94091 280.432364 
z
" style="fill:#1f77b4;"/>
   </g>
   <g id="matplotlib.axis_1">
    <g id="xtick_1">
     <g id="line2d_1">
      <defs>
       <path d="M 0 0 
L 0 3.5 
" id="m4cf04ee03b" style="stroke:#000000;stroke-width:0.8;"/>
      </defs>
      <g>
       <use style="stroke:#000000;stroke-width:0.8;" x="81.438987" xlink:href="#m4cf04ee03b" y="293.272"/>
      </g>
     </g>
     <g id="text_1">
      <!-- 0 -->
      <g transform="translate(78.257737 307.870437)scale(0.1 -0.1)">
       <defs>
        <path d="M 2034 4250 
Q 1547 4250 1301 3770 
Q 1056 3291 1056 2328 
Q 1056 1369 1301 889 
Q 1547 409 2034 409 
Q 2525 409 2770 889 
Q 3016 1369 3016 2328 
Q 3016 3291 2770 3770 
Q 2525 4250 2034 4250 
z
M 2034 4750 
Q 2819 4750 3233 4129 
Q 3647 3509 3647 2328 
Q 3647 1150 3233 529 
Q 2819 -91 2034 -91 
Q 1250 -91 836 529 
Q 422 1150 422 2328 
Q 422 3509 836 4129 
Q 1250 4750 2034 4750 
z
" id="DejaVuSans-30" transform="scale(0.015625)"/>
       </defs>
       <use xlink:href="#DejaVuSans-30"/>
      </g>
     </g>
    </g>
    <g id="xtick_2">
     <g id="line2d_2">
      <g>
       <use style="stroke:#000000;stroke-width:0.8;" x="152.811122" xlink:href="#m4cf04ee03b" y="293.272"/>
      </g>
     </g>
     <g id="text_2">
      <!-- 5 -->
      <g transform="translate(149.629872 307.870437)scale(0.1 -0.1)">
       <defs>
        <path d="M 691 4666 
L 3169 4666 
L 3169 4134 
L 1269 4134 
L 1269 2991 
Q 1406 3038 1543 3061 
Q 1681 3084 1819 3084 
Q 2600 3084 3056 2656 
Q 3513 2228 3513 1497 
Q 3513 744 3044 326 
Q 2575 -91 1722 -91 
Q 1428 -91 1123 -41 
Q 819 9 494 109 
L 494 744 
Q 775 591 1075 516 
Q 1375 441 1709 441 
Q 2250 441 2565 725 
Q 2881 1009 2881 1497 
Q 2881 1984 2565 2268 
Q 2250 2553 1709 2553 
Q 1456 2553 1204 2497 
Q 953 2441 691 2322 
L 691 4666 
z
" id="DejaVuSans-35" transform="scale(0.015625)"/>
       </defs>
       <use xlink:href="#DejaVuSans-35"/>
      </g>
     </g>
    </g>
    <g id="xtick_3">
     <g id="line2d_3">
      <g>
       <use style="stroke:#000000;stroke-width:0.8;" x="224.183258" xlink:href="#m4cf04ee03b" y="293.272"/>
      </g>
     </g>
     <g id="text_3">
      <!-- 10 -->
      <g transform="translate(217.820758 307.870437)scale(0.1 -0.1)">
       <defs>
        <path d="M 794 531 
L 1825 531 
L 1825 4091 
L 703 3866 
L 703 4441 
L 1819 4666 
L 2450 4666 
L 2450 531 
L 3481 531 
L 3481 0 
L 794 0 
L 794 531 
z
" id="DejaVuSans-31" transform="scale(0.015625)"/>
       </defs>
       <use xlink:href="#DejaVuSans-31"/>
       <use x="63.623047" xlink:href="#DejaVuSans-30"/>
      </g>
     </g>
    </g>
    <g id="xtick_4">
     <g id="line2d_4">
      <g>
       <use style="stroke:#000000;stroke-width:0.8;" x="295.555393" xlink:href="#m4cf04ee03b" y="293.272"/>
      </g>
     </g>
     <g id="text_4">
      <!-- 15 -->
      <g transform="translate(289.192893 307.870437)scale(0.1 -0.1)">
       <use xlink:href="#DejaVuSans-31"/>
       <use x="63.623047" xlink:href="#DejaVuSans-35"/>
      </g>
     </g>
    </g>
    <g id="xtick_5">
     <g id="line2d_5">
      <g>
       <use style="stroke:#000000;stroke-width:0.8;" x="366.927528" xlink:href="#m4cf04ee03b" y="293.272"/>
      </g>
     </g>
     <g id="text_5">
      <!-- 20 -->
      <g transform="translate(360.565028 307.870437)scale(0.1 -0.1)">
       <defs>
        <path d="M 1228 531 
L 3431 531 
L 3431 0 
L 469 0 
L 469 531 
Q 828 903 1448 1529 
Q 2069 2156 2228 2338 
Q 2531 2678 2651 2914 
Q 2772 3150 2772 3378 
Q 2772 3750 2511 3984 
Q 2250 4219 1831 4219 
Q 1534 4219 1204 4116 
Q 875 4013 500 3803 
L 500 4441 
Q 881 4594 1212 4672 
Q 1544 4750 1819 4750 
Q 2544 4750 2975 4387 
Q 3406 4025 3406 3419 
Q 3406 3131 3298 2873 
Q 3191 2616 2906 2266 
Q 2828 2175 2409 1742 
Q 1991 1309 1228 531 
z
" id="DejaVuSans-32" transform="scale(0.015625)"/>
       </defs>
       <use xlink:href="#DejaVuSans-32"/>
       <use x="63.623047" xlink:href="#DejaVuSans-30"/>
      </g>
     </g>
    </g>
    <g id="xtick_6">
     <g id="line2d_6">
      <g>
       <use style="stroke:#000000;stroke-width:0.8;" x="438.299664" xlink:href="#m4cf04ee03b" y="293.272"/>
      </g>
     </g>
     <g id="text_6">
      <!-- 25 -->
      <g transform="translate(431.937164 307.870437)scale(0.1 -0.1)">
       <use xlink:href="#DejaVuSans-32"/>
       <use x="63.623047" xlink:href="#DejaVuSans-35"/>
      </g>
     </g>
    </g>
    <g id="text_7">
     <!-- Time difference (count) (s) -->
     <g transform="translate(190.26928 321.548562)scale(0.1 -0.1)">
      <defs>
       <path d="M -19 4666 
L 3928 4666 
L 3928 4134 
L 2272 4134 
L 2272 0 
L 1638 0 
L 1638 4134 
L -19 4134 
L -19 4666 
z
" id="DejaVuSans-54" transform="scale(0.015625)"/>
       <path d="M 603 3500 
L 1178 3500 
L 1178 0 
L 603 0 
L 603 3500 
z
M 603 4863 
L 1178 4863 
L 1178 4134 
L 603 4134 
L 603 4863 
z
" id="DejaVuSans-69" transform="scale(0.015625)"/>
       <path d="M 3328 2828 
Q 3544 3216 3844 3400 
Q 4144 3584 4550 3584 
Q 5097 3584 5394 3201 
Q 5691 2819 5691 2113 
L 5691 0 
L 5113 0 
L 5113 2094 
Q 5113 2597 4934 2840 
Q 4756 3084 4391 3084 
Q 3944 3084 3684 2787 
Q 3425 2491 3425 1978 
L 3425 0 
L 2847 0 
L 2847 2094 
Q 2847 2600 2669 2842 
Q 2491 3084 2119 3084 
Q 1678 3084 1418 2786 
Q 1159 2488 1159 1978 
L 1159 0 
L 581 0 
L 581 3500 
L 1159 3500 
L 1159 2956 
Q 1356 3278 1631 3431 
Q 1906 3584 2284 3584 
Q 2666 3584 2933 3390 
Q 3200 3197 3328 2828 
z
" id="DejaVuSans-6d" transform="scale(0.015625)"/>
       <path d="M 3597 1894 
L 3597 1613 
L 953 1613 
Q 991 1019 1311 708 
Q 1631 397 2203 397 
Q 2534 397 2845 478 
Q 3156 559 3463 722 
L 3463 178 
Q 3153 47 2828 -22 
Q 2503 -91 2169 -91 
Q 1331 -91 842 396 
Q 353 884 353 1716 
Q 353 2575 817 3079 
Q 1281 3584 2069 3584 
Q 2775 3584 3186 3129 
Q 3597 2675 3597 1894 
z
M 3022 2063 
Q 3016 2534 2758 2815 
Q 2500 3097 2075 3097 
Q 1594 3097 1305 2825 
Q 1016 2553 972 2059 
L 3022 2063 
z
" id="DejaVuSans-65" transform="scale(0.015625)"/>
       <path id="DejaVuSans-20" transform="scale(0.015625)"/>
       <path d="M 2906 2969 
L 2906 4863 
L 3481 4863 
L 3481 0 
L 2906 0 
L 2906 525 
Q 2725 213 2448 61 
Q 2172 -91 1784 -91 
Q 1150 -91 751 415 
Q 353 922 353 1747 
Q 353 2572 751 3078 
Q 1150 3584 1784 3584 
Q 2172 3584 2448 3432 
Q 2725 3281 2906 2969 
z
M 947 1747 
Q 947 1113 1208 752 
Q 1469 391 1925 391 
Q 2381 391 2643 752 
Q 2906 1113 2906 1747 
Q 2906 2381 2643 2742 
Q 2381 3103 1925 3103 
Q 1469 3103 1208 2742 
Q 947 2381 947 1747 
z
" id="DejaVuSans-64" transform="scale(0.015625)"/>
       <path d="M 2375 4863 
L 2375 4384 
L 1825 4384 
Q 1516 4384 1395 4259 
Q 1275 4134 1275 3809 
L 1275 3500 
L 2222 3500 
L 2222 3053 
L 1275 3053 
L 1275 0 
L 697 0 
L 697 3053 
L 147 3053 
L 147 3500 
L 697 3500 
L 697 3744 
Q 697 4328 969 4595 
Q 1241 4863 1831 4863 
L 2375 4863 
z
" id="DejaVuSans-66" transform="scale(0.015625)"/>
       <path d="M 2631 2963 
Q 2534 3019 2420 3045 
Q 2306 3072 2169 3072 
Q 1681 3072 1420 2755 
Q 1159 2438 1159 1844 
L 1159 0 
L 581 0 
L 581 3500 
L 1159 3500 
L 1159 2956 
Q 1341 3275 1631 3429 
Q 1922 3584 2338 3584 
Q 2397 3584 2469 3576 
Q 2541 3569 2628 3553 
L 2631 2963 
z
" id="DejaVuSans-72" transform="scale(0.015625)"/>
       <path d="M 3513 2113 
L 3513 0 
L 2938 0 
L 2938 2094 
Q 2938 2591 2744 2837 
Q 2550 3084 2163 3084 
Q 1697 3084 1428 2787 
Q 1159 2491 1159 1978 
L 1159 0 
L 581 0 
L 581 3500 
L 1159 3500 
L 1159 2956 
Q 1366 3272 1645 3428 
Q 1925 3584 2291 3584 
Q 2894 3584 3203 3211 
Q 3513 2838 3513 2113 
z
" id="DejaVuSans-6e" transform="scale(0.015625)"/>
       <path d="M 3122 3366 
L 3122 2828 
Q 2878 2963 2633 3030 
Q 2388 3097 2138 3097 
Q 1578 3097 1268 2742 
Q 959 2388 959 1747 
Q 959 1106 1268 751 
Q 1578 397 2138 397 
Q 2388 397 2633 464 
Q 2878 531 3122 666 
L 3122 134 
Q 2881 22 2623 -34 
Q 2366 -91 2075 -91 
Q 1284 -91 818 406 
Q 353 903 353 1747 
Q 353 2603 823 3093 
Q 1294 3584 2113 3584 
Q 2378 3584 2631 3529 
Q 2884 3475 3122 3366 
z
" id="DejaVuSans-63" transform="scale(0.015625)"/>
       <path d="M 1984 4856 
Q 1566 4138 1362 3434 
Q 1159 2731 1159 2009 
Q 1159 1288 1364 580 
Q 1569 -128 1984 -844 
L 1484 -844 
Q 1016 -109 783 600 
Q 550 1309 550 2009 
Q 550 2706 781 3412 
Q 1013 4119 1484 4856 
L 1984 4856 
z
" id="DejaVuSans-28" transform="scale(0.015625)"/>
       <path d="M 1959 3097 
Q 1497 3097 1228 2736 
Q 959 2375 959 1747 
Q 959 1119 1226 758 
Q 1494 397 1959 397 
Q 2419 397 2687 759 
Q 2956 1122 2956 1747 
Q 2956 2369 2687 2733 
Q 2419 3097 1959 3097 
z
M 1959 3584 
Q 2709 3584 3137 3096 
Q 3566 2609 3566 1747 
Q 3566 888 3137 398 
Q 2709 -91 1959 -91 
Q 1206 -91 779 398 
Q 353 888 353 1747 
Q 353 2609 779 3096 
Q 1206 3584 1959 3584 
z
" id="DejaVuSans-6f" transform="scale(0.015625)"/>
       <path d="M 544 1381 
L 544 3500 
L 1119 3500 
L 1119 1403 
Q 1119 906 1312 657 
Q 1506 409 1894 409 
Q 2359 409 2629 706 
Q 2900 1003 2900 1516 
L 2900 3500 
L 3475 3500 
L 3475 0 
L 2900 0 
L 2900 538 
Q 2691 219 2414 64 
Q 2138 -91 1772 -91 
Q 1169 -91 856 284 
Q 544 659 544 1381 
z
M 1991 3584 
L 1991 3584 
z
" id="DejaVuSans-75" transform="scale(0.015625)"/>
       <path d="M 1172 4494 
L 1172 3500 
L 2356 3500 
L 2356 3053 
L 1172 3053 
L 1172 1153 
Q 1172 725 1289 603 
Q 1406 481 1766 481 
L 2356 481 
L 2356 0 
L 1766 0 
Q 1100 0 847 248 
Q 594 497 594 1153 
L 594 3053 
L 172 3053 
L 172 3500 
L 594 3500 
L 594 4494 
L 1172 4494 
z
" id="DejaVuSans-74" transform="scale(0.015625)"/>
       <path d="M 513 4856 
L 1013 4856 
Q 1481 4119 1714 3412 
Q 1947 2706 1947 2009 
Q 1947 1309 1714 600 
Q 1481 -109 1013 -844 
L 513 -844 
Q 928 -128 1133 580 
Q 1338 1288 1338 2009 
Q 1338 2731 1133 3434 
Q 928 4138 513 4856 
z
" id="DejaVuSans-29" transform="scale(0.015625)"/>
       <path d="M 2834 3397 
L 2834 2853 
Q 2591 2978 2328 3040 
Q 2066 3103 1784 3103 
Q 1356 3103 1142 2972 
Q 928 2841 928 2578 
Q 928 2378 1081 2264 
Q 1234 2150 1697 2047 
L 1894 2003 
Q 2506 1872 2764 1633 
Q 3022 1394 3022 966 
Q 3022 478 2636 193 
Q 2250 -91 1575 -91 
Q 1294 -91 989 -36 
Q 684 19 347 128 
L 347 722 
Q 666 556 975 473 
Q 1284 391 1588 391 
Q 1994 391 2212 530 
Q 2431 669 2431 922 
Q 2431 1156 2273 1281 
Q 2116 1406 1581 1522 
L 1381 1569 
Q 847 1681 609 1914 
Q 372 2147 372 2553 
Q 372 3047 722 3315 
Q 1072 3584 1716 3584 
Q 2034 3584 2315 3537 
Q 2597 3491 2834 3397 
z
" id="DejaVuSans-73" transform="scale(0.015625)"/>
      </defs>
      <use xlink:href="#DejaVuSans-54"/>
      <use x="57.958984" xlink:href="#DejaVuSans-69"/>
      <use x="85.742188" xlink:href="#DejaVuSans-6d"/>
      <use x="183.154297" xlink:href="#DejaVuSans-65"/>
      <use x="244.677734" xlink:href="#DejaVuSans-20"/>
      <use x="276.464844" xlink:href="#DejaVuSans-64"/>
      <use x="339.941406" xlink:href="#DejaVuSans-69"/>
      <use x="367.724609" xlink:href="#DejaVuSans-66"/>
      <use x="402.929688" xlink:href="#DejaVuSans-66"/>
      <use x="438.134766" xlink:href="#DejaVuSans-65"/>
      <use x="499.658203" xlink:href="#DejaVuSans-72"/>
      <use x="538.521484" xlink:href="#DejaVuSans-65"/>
      <use x="600.044922" xlink:href="#DejaVuSans-6e"/>
      <use x="663.423828" xlink:href="#DejaVuSans-63"/>
      <use x="718.404297" xlink:href="#DejaVuSans-65"/>
      <use x="779.927734" xlink:href="#DejaVuSans-20"/>
      <use x="811.714844" xlink:href="#DejaVuSans-28"/>
      <use x="850.728516" xlink:href="#DejaVuSans-63"/>
      <use x="905.708984" xlink:href="#DejaVuSans-6f"/>
      <use x="966.890625" xlink:href="#DejaVuSans-75"/>
      <use x="1030.269531" xlink:href="#DejaVuSans-6e"/>
      <use x="1093.648438" xlink:href="#DejaVuSans-74"/>
      <use x="1132.857422" xlink:href="#DejaVuSans-29"/>
      <use x="1171.871094" xlink:href="#DejaVuSans-20"/>
      <use x="1203.658203" xlink:href="#DejaVuSans-28"/>
      <use x="1242.671875" xlink:href="#DejaVuSans-73"/>
      <use x="1294.771484" xlink:href="#DejaVuSans-29"/>
     </g>
    </g>
   </g>
   <g id="matplotlib.axis_2">
    <g id="ytick_1">
     <g id="line2d_7">
      <defs>
       <path d="M 0 0 
L -3.5 0 
" id="m0b69c1262b" style="stroke:#000000;stroke-width:0.8;"/>
      </defs>
      <g>
       <use style="stroke:#000000;stroke-width:0.8;" x="63.916685" xlink:href="#m0b69c1262b" y="280.432364"/>
      </g>
     </g>
     <g id="text_8">
      <!-- $\mathdefault{10^{0}}$ -->
      <g transform="translate(39.316685 284.231582)scale(0.1 -0.1)">
       <use transform="translate(0 0.765625)" xlink:href="#DejaVuSans-31"/>
       <use transform="translate(63.623047 0.765625)" xlink:href="#DejaVuSans-30"/>
       <use transform="translate(128.203125 39.046875)scale(0.7)" xlink:href="#DejaVuSans-30"/>
      </g>
     </g>
    </g>
    <g id="ytick_2">
     <g id="line2d_8">
      <g>
       <use style="stroke:#000000;stroke-width:0.8;" x="63.916685" xlink:href="#m0b69c1262b" y="175.363615"/>
      </g>
     </g>
     <g id="text_9">
      <!-- $\mathdefault{10^{1}}$ -->
      <g transform="translate(39.316685 179.162834)scale(0.1 -0.1)">
       <use transform="translate(0 0.684375)" xlink:href="#DejaVuSans-31"/>
       <use transform="translate(63.623047 0.684375)" xlink:href="#DejaVuSans-30"/>
       <use transform="translate(128.203125 38.965625)scale(0.7)" xlink:href="#DejaVuSans-31"/>
      </g>
     </g>
    </g>
    <g id="ytick_3">
     <g id="line2d_9">
      <g>
       <use style="stroke:#000000;stroke-width:0.8;" x="63.916685" xlink:href="#m0b69c1262b" y="70.294867"/>
      </g>
     </g>
     <g id="text_10">
      <!-- $\mathdefault{10^{2}}$ -->
      <g transform="translate(39.316685 74.094086)scale(0.1 -0.1)">
       <use transform="translate(0 0.765625)" xlink:href="#DejaVuSans-31"/>
       <use transform="translate(63.623047 0.765625)" xlink:href="#DejaVuSans-30"/>
       <use transform="translate(128.203125 39.046875)scale(0.7)" xlink:href="#DejaVuSans-32"/>
      </g>
     </g>
    </g>
    <g id="ytick_4">
     <g id="line2d_10">
      <defs>
       <path d="M 0 0 
L -2 0 
" id="m3a253025c1" style="stroke:#000000;stroke-width:0.6;"/>
      </defs>
      <g>
       <use style="stroke:#000000;stroke-width:0.6;" x="63.916685" xlink:href="#m3a253025c1" y="290.614577"/>
      </g>
     </g>
    </g>
    <g id="ytick_5">
     <g id="line2d_11">
      <g>
       <use style="stroke:#000000;stroke-width:0.6;" x="63.916685" xlink:href="#m3a253025c1" y="285.240046"/>
      </g>
     </g>
    </g>
    <g id="ytick_6">
     <g id="line2d_12">
      <g>
       <use style="stroke:#000000;stroke-width:0.6;" x="63.916685" xlink:href="#m3a253025c1" y="248.803519"/>
      </g>
     </g>
    </g>
    <g id="ytick_7">
     <g id="line2d_13">
      <g>
       <use style="stroke:#000000;stroke-width:0.6;" x="63.916685" xlink:href="#m3a253025c1" y="230.301831"/>
      </g>
     </g>
    </g>
    <g id="ytick_8">
     <g id="line2d_14">
      <g>
       <use style="stroke:#000000;stroke-width:0.6;" x="63.916685" xlink:href="#m3a253025c1" y="217.174674"/>
      </g>
     </g>
    </g>
    <g id="ytick_9">
     <g id="line2d_15">
      <g>
       <use style="stroke:#000000;stroke-width:0.6;" x="63.916685" xlink:href="#m3a253025c1" y="206.99246"/>
      </g>
     </g>
    </g>
    <g id="ytick_10">
     <g id="line2d_16">
      <g>
       <use style="stroke:#000000;stroke-width:0.6;" x="63.916685" xlink:href="#m3a253025c1" y="198.672986"/>
      </g>
     </g>
    </g>
    <g id="ytick_11">
     <g id="line2d_17">
      <g>
       <use style="stroke:#000000;stroke-width:0.6;" x="63.916685" xlink:href="#m3a253025c1" y="191.63897"/>
      </g>
     </g>
    </g>
    <g id="ytick_12">
     <g id="line2d_18">
      <g>
       <use style="stroke:#000000;stroke-width:0.6;" x="63.916685" xlink:href="#m3a253025c1" y="185.545829"/>
      </g>
     </g>
    </g>
    <g id="ytick_13">
     <g id="line2d_19">
      <g>
       <use style="stroke:#000000;stroke-width:0.6;" x="63.916685" xlink:href="#m3a253025c1" y="180.171298"/>
      </g>
     </g>
    </g>
    <g id="ytick_14">
     <g id="line2d_20">
      <g>
       <use style="stroke:#000000;stroke-width:0.6;" x="63.916685" xlink:href="#m3a253025c1" y="143.734771"/>
      </g>
     </g>
    </g>
    <g id="ytick_15">
     <g id="line2d_21">
      <g>
       <use style="stroke:#000000;stroke-width:0.6;" x="63.916685" xlink:href="#m3a253025c1" y="125.233082"/>
      </g>
     </g>
    </g>
    <g id="ytick_16">
     <g id="line2d_22">
      <g>
       <use style="stroke:#000000;stroke-width:0.6;" x="63.916685" xlink:href="#m3a253025c1" y="112.105926"/>
      </g>
     </g>
    </g>
    <g id="ytick_17">
     <g id="line2d_23">
      <g>
       <use style="stroke:#000000;stroke-width:0.6;" x="63.916685" xlink:href="#m3a253025c1" y="101.923712"/>
      </g>
     </g>
    </g>
    <g id="ytick_18">
     <g id="line2d_24">
      <g>
       <use style="stroke:#000000;stroke-width:0.6;" x="63.916685" xlink:href="#m3a253025c1" y="93.604238"/>
      </g>
     </g>
    </g>
    <g id="ytick_19">
     <g id="line2d_25">
      <g>
       <use style="stroke:#000000;stroke-width:0.6;" x="63.916685" xlink:href="#m3a253025c1" y="86.570222"/>
      </g>
     </g>
    </g>
    <g id="ytick_20">
     <g id="line2d_26">
      <g>
       <use style="stroke:#000000;stroke-width:0.6;" x="63.916685" xlink:href="#m3a253025c1" y="80.477081"/>
      </g>
     </g>
    </g>
    <g id="ytick_21">
     <g id="line2d_27">
      <g>
       <use style="stroke:#000000;stroke-width:0.6;" x="63.916685" xlink:href="#m3a253025c1" y="75.102549"/>
      </g>
     </g>
    </g>
    <g id="ytick_22">
     <g id="line2d_28">
      <g>
       <use style="stroke:#000000;stroke-width:0.6;" x="63.916685" xlink:href="#m3a253025c1" y="38.666022"/>
      </g>
     </g>
    </g>
    <g id="ytick_23">
     <g id="line2d_29">
      <g>
       <use style="stroke:#000000;stroke-width:0.6;" x="63.916685" xlink:href="#m3a253025c1" y="20.164334"/>
      </g>
     </g>
    </g>
    <g id="text_11">
     <!-- Frequency -->
     <g transform="translate(33.236997 177.865688)rotate(-90)scale(0.1 -0.1)">
      <defs>
       <path d="M 628 4666 
L 3309 4666 
L 3309 4134 
L 1259 4134 
L 1259 2759 
L 3109 2759 
L 3109 2228 
L 1259 2228 
L 1259 0 
L 628 0 
L 628 4666 
z
" id="DejaVuSans-46" transform="scale(0.015625)"/>
       <path d="M 947 1747 
Q 947 1113 1208 752 
Q 1469 391 1925 391 
Q 2381 391 2643 752 
Q 2906 1113 2906 1747 
Q 2906 2381 2643 2742 
Q 2381 3103 1925 3103 
Q 1469 3103 1208 2742 
Q 947 2381 947 1747 
z
M 2906 525 
Q 2725 213 2448 61 
Q 2172 -91 1784 -91 
Q 1150 -91 751 415 
Q 353 922 353 1747 
Q 353 2572 751 3078 
Q 1150 3584 1784 3584 
Q 2172 3584 2448 3432 
Q 2725 3281 2906 2969 
L 2906 3500 
L 3481 3500 
L 3481 -1331 
L 2906 -1331 
L 2906 525 
z
" id="DejaVuSans-71" transform="scale(0.015625)"/>
       <path d="M 2059 -325 
Q 1816 -950 1584 -1140 
Q 1353 -1331 966 -1331 
L 506 -1331 
L 506 -850 
L 844 -850 
Q 1081 -850 1212 -737 
Q 1344 -625 1503 -206 
L 1606 56 
L 191 3500 
L 800 3500 
L 1894 763 
L 2988 3500 
L 3597 3500 
L 2059 -325 
z
" id="DejaVuSans-79" transform="scale(0.015625)"/>
      </defs>
      <use xlink:href="#DejaVuSans-46"/>
      <use x="50.269531" xlink:href="#DejaVuSans-72"/>
      <use x="89.132812" xlink:href="#DejaVuSans-65"/>
      <use x="150.65625" xlink:href="#DejaVuSans-71"/>
      <use x="214.132812" xlink:href="#DejaVuSans-75"/>
      <use x="277.511719" xlink:href="#DejaVuSans-65"/>
      <use x="339.035156" xlink:href="#DejaVuSans-6e"/>
      <use x="402.414062" xlink:href="#DejaVuSans-63"/>
      <use x="457.394531" xlink:href="#DejaVuSans-79"/>
     </g>
    </g>
   </g>
   <g id="patch_103">
    <path d="M 63.916685 293.272 
L 63.916685 10.8 
" style="fill:none;stroke:#000000;stroke-linecap:square;stroke-linejoin:miter;stroke-width:0.8;"/>
   </g>
   <g id="patch_104">
    <path d="M 450 293.272 
L 450 10.8 
" style="fill:none;stroke:#000000;stroke-linecap:square;stroke-linejoin:miter;stroke-width:0.8;"/>
   </g>
   <g id="patch_105">
    <path d="M 63.916685 293.272 
L 450 293.272 
" style="fill:none;stroke:#000000;stroke-linecap:square;stroke-linejoin:miter;stroke-width:0.8;"/>
   </g>
   <g id="patch_106">
    <path d="M 63.916685 10.8 
L 450 10.8 
" style="fill:none;stroke:#000000;stroke-linecap:square;stroke-linejoin:miter;stroke-width:0.8;"/>
   </g>
  </g>
 </g>
 <defs>
  <clipPath id="p677a64b637">
   <rect height="282.472" width="386.083315" x="63.916685" y="10.8"/>
  </clipPath>
 </defs>
</svg>
