<?xml version="1.0" encoding="utf-8" standalone="no"?>
<!DOCTYPE svg PUBLIC "-//W3C//DTD SVG 1.1//EN"
  "http://www.w3.org/Graphics/SVG/1.1/DTD/svg11.dtd">
<svg height="345.6pt" version="1.1" viewBox="0 0 460.8 345.6" width="460.8pt" xmlns="http://www.w3.org/2000/svg" xmlns:xlink="http://www.w3.org/1999/xlink">
 <metadata>
  <rdf:RDF xmlns:cc="http://creativecommons.org/ns#" xmlns:dc="http://purl.org/dc/elements/1.1/" xmlns:rdf="http://www.w3.org/1999/02/22-rdf-syntax-ns#">
   <cc:Work>
    <dc:type rdf:resource="http://purl.org/dc/dcmitype/StillImage"/>
    <dc:date>2021-10-25T07:37:44.662162</dc:date>
    <dc:format>image/svg+xml</dc:format>
    <dc:creator>
     <cc:Agent>
      <dc:title>Matplotlib v3.4.2, https://matplotlib.org/</dc:title>
     </cc:Agent>
    </dc:creator>
   </cc:Work>
  </rdf:RDF>
 </metadata>
 <defs>
  <style type="text/css">*{stroke-linecap:butt;stroke-linejoin:round;}</style>
 </defs>
 <g id="figure_1">
  <g id="patch_1">
   <path d="M 0 345.6 
L 460.8 345.6 
L 460.8 0 
L 0 0 
z
" style="fill:#ffffff;"/>
  </g>
  <g id="axes_1">
   <g id="patch_2">
    <path d="M 63.916685 293.272 
L 448.86937 293.272 
L 448.86937 10.8 
L 63.916685 10.8 
z
" style="fill:#ffffff;"/>
   </g>
   <g id="patch_3">
    <path clip-path="url(#p37d1dc1427)" d="M 81.414534 96381.975393 
L 84.914104 96381.975393 
L 84.914104 23.639636 
L 81.414534 23.639636 
z
" style="fill:#1f77b4;"/>
   </g>
   <g id="patch_4">
    <path clip-path="url(#p37d1dc1427)" d="M 84.914104 96381.975393 
L 88.413674 96381.975393 
L 88.413674 31.749347 
L 84.914104 31.749347 
z
" style="fill:#1f77b4;"/>
   </g>
   <g id="patch_5">
    <path clip-path="url(#p37d1dc1427)" d="M 88.413674 96381.975393 
L 91.913244 96381.975393 
L 91.913244 34.192066 
L 88.413674 34.192066 
z
" style="fill:#1f77b4;"/>
   </g>
   <g id="patch_6">
    <path clip-path="url(#p37d1dc1427)" d="M 91.913244 96381.975393 
L 95.412814 96381.975393 
L 95.412814 35.469217 
L 91.913244 35.469217 
z
" style="fill:#1f77b4;"/>
   </g>
   <g id="patch_7">
    <path clip-path="url(#p37d1dc1427)" d="M 95.412814 96381.975393 
L 98.912383 96381.975393 
L 98.912383 41.961898 
L 95.412814 41.961898 
z
" style="fill:#1f77b4;"/>
   </g>
   <g id="patch_8">
    <path clip-path="url(#p37d1dc1427)" d="M 98.912383 96381.975393 
L 102.411953 96381.975393 
L 102.411953 45.706289 
L 98.912383 45.706289 
z
" style="fill:#1f77b4;"/>
   </g>
   <g id="patch_9">
    <path clip-path="url(#p37d1dc1427)" d="M 102.411953 96381.975393 
L 105.911523 96381.975393 
L 105.911523 46.466535 
L 102.411953 46.466535 
z
" style="fill:#1f77b4;"/>
   </g>
   <g id="patch_10">
    <path clip-path="url(#p37d1dc1427)" d="M 105.911523 96381.975393 
L 109.411093 96381.975393 
L 109.411093 58.26925 
L 105.911523 58.26925 
z
" style="fill:#1f77b4;"/>
   </g>
   <g id="patch_11">
    <path clip-path="url(#p37d1dc1427)" d="M 109.411093 96381.975393 
L 112.910663 96381.975393 
L 112.910663 59.29983 
L 109.411093 59.29983 
z
" style="fill:#1f77b4;"/>
   </g>
   <g id="patch_12">
    <path clip-path="url(#p37d1dc1427)" d="M 112.910663 96381.975393 
L 116.410233 96381.975393 
L 116.410233 57.462725 
L 112.910663 57.462725 
z
" style="fill:#1f77b4;"/>
   </g>
   <g id="patch_13">
    <path clip-path="url(#p37d1dc1427)" d="M 116.410233 96381.975393 
L 119.909803 96381.975393 
L 119.909803 67.076551 
L 116.410233 67.076551 
z
" style="fill:#1f77b4;"/>
   </g>
   <g id="patch_14">
    <path clip-path="url(#p37d1dc1427)" d="M 119.909803 96381.975393 
L 123.409373 96381.975393 
L 123.409373 72.721564 
L 119.909803 72.721564 
z
" style="fill:#1f77b4;"/>
   </g>
   <g id="patch_15">
    <path clip-path="url(#p37d1dc1427)" d="M 123.409373 96381.975393 
L 126.908942 96381.975393 
L 126.908942 84.251377 
L 123.409373 84.251377 
z
" style="fill:#1f77b4;"/>
   </g>
   <g id="patch_16">
    <path clip-path="url(#p37d1dc1427)" d="M 126.908942 96381.975393 
L 130.408512 96381.975393 
L 130.408512 77.926234 
L 126.908942 77.926234 
z
" style="fill:#1f77b4;"/>
   </g>
   <g id="patch_17">
    <path clip-path="url(#p37d1dc1427)" d="M 130.408512 96381.975393 
L 133.908082 96381.975393 
L 133.908082 81.676511 
L 130.408512 81.676511 
z
" style="fill:#1f77b4;"/>
   </g>
   <g id="patch_18">
    <path clip-path="url(#p37d1dc1427)" d="M 133.908082 96381.975393 
L 137.407652 96381.975393 
L 137.407652 82.760634 
L 133.908082 82.760634 
z
" style="fill:#1f77b4;"/>
   </g>
   <g id="patch_19">
    <path clip-path="url(#p37d1dc1427)" d="M 137.407652 96381.975393 
L 140.907222 96381.975393 
L 140.907222 94.524077 
L 137.407652 94.524077 
z
" style="fill:#1f77b4;"/>
   </g>
   <g id="patch_20">
    <path clip-path="url(#p37d1dc1427)" d="M 140.907222 96381.975393 
L 144.406792 96381.975393 
L 144.406792 89.500534 
L 140.907222 89.500534 
z
" style="fill:#1f77b4;"/>
   </g>
   <g id="patch_21">
    <path clip-path="url(#p37d1dc1427)" d="M 144.406792 96381.975393 
L 147.906362 96381.975393 
L 147.906362 97.024008 
L 144.406792 97.024008 
z
" style="fill:#1f77b4;"/>
   </g>
   <g id="patch_22">
    <path clip-path="url(#p37d1dc1427)" d="M 147.906362 96381.975393 
L 151.405932 96381.975393 
L 151.405932 89.500534 
L 147.906362 89.500534 
z
" style="fill:#1f77b4;"/>
   </g>
   <g id="patch_23">
    <path clip-path="url(#p37d1dc1427)" d="M 151.405932 96381.975393 
L 154.905501 96381.975393 
L 154.905501 118.001912 
L 151.405932 118.001912 
z
" style="fill:#1f77b4;"/>
   </g>
   <g id="patch_24">
    <path clip-path="url(#p37d1dc1427)" d="M 154.905501 96381.975393 
L 158.405071 96381.975393 
L 158.405071 112.428797 
L 154.905501 112.428797 
z
" style="fill:#1f77b4;"/>
   </g>
   <g id="patch_25">
    <path clip-path="url(#p37d1dc1427)" d="M 158.405071 96381.975393 
L 161.904641 96381.975393 
L 161.904641 108.180757 
L 158.405071 108.180757 
z
" style="fill:#1f77b4;"/>
   </g>
   <g id="patch_26">
    <path clip-path="url(#p37d1dc1427)" d="M 161.904641 96381.975393 
L 165.404211 96381.975393 
L 165.404211 120.63877 
L 161.904641 120.63877 
z
" style="fill:#1f77b4;"/>
   </g>
   <g id="patch_27">
    <path clip-path="url(#p37d1dc1427)" d="M 165.404211 96381.975393 
L 168.903781 96381.975393 
L 168.903781 139.89366 
L 165.404211 139.89366 
z
" style="fill:#1f77b4;"/>
   </g>
   <g id="patch_28">
    <path clip-path="url(#p37d1dc1427)" d="M 168.903781 96381.975393 
L 172.403351 96381.975393 
L 172.403351 130.869292 
L 168.903781 130.869292 
z
" style="fill:#1f77b4;"/>
   </g>
   <g id="patch_29">
    <path clip-path="url(#p37d1dc1427)" d="M 172.403351 96381.975393 
L 175.902921 96381.975393 
L 175.902921 126.471926 
L 172.403351 126.471926 
z
" style="fill:#1f77b4;"/>
   </g>
   <g id="patch_30">
    <path clip-path="url(#p37d1dc1427)" d="M 175.902921 96381.975393 
L 179.40249 96381.975393 
L 179.40249 130.869292 
L 175.902921 130.869292 
z
" style="fill:#1f77b4;"/>
   </g>
   <g id="patch_31">
    <path clip-path="url(#p37d1dc1427)" d="M 179.40249 96381.975393 
L 182.90206 96381.975393 
L 182.90206 124.435602 
L 179.40249 124.435602 
z
" style="fill:#1f77b4;"/>
   </g>
   <g id="patch_32">
    <path clip-path="url(#p37d1dc1427)" d="M 182.90206 96381.975393 
L 186.40163 96381.975393 
L 186.40163 162.184324 
L 182.90206 162.184324 
z
" style="fill:#1f77b4;"/>
   </g>
   <g id="patch_33">
    <path clip-path="url(#p37d1dc1427)" d="M 186.40163 96381.975393 
L 189.9012 96381.975393 
L 189.9012 151.423473 
L 186.40163 151.423473 
z
" style="fill:#1f77b4;"/>
   </g>
   <g id="patch_34">
    <path clip-path="url(#p37d1dc1427)" d="M 189.9012 96381.975393 
L 193.40077 96381.975393 
L 193.40077 162.184324 
L 189.9012 162.184324 
z
" style="fill:#1f77b4;"/>
   </g>
   <g id="patch_35">
    <path clip-path="url(#p37d1dc1427)" d="M 193.40077 96381.975393 
L 196.90034 96381.975393 
L 196.90034 132.045042 
L 193.40077 132.045042 
z
" style="fill:#1f77b4;"/>
   </g>
   <g id="patch_36">
    <path clip-path="url(#p37d1dc1427)" d="M 196.90034 96381.975393 
L 200.39991 96381.975393 
L 200.39991 155.401374 
L 196.90034 155.401374 
z
" style="fill:#1f77b4;"/>
   </g>
   <g id="patch_37">
    <path clip-path="url(#p37d1dc1427)" d="M 200.39991 96381.975393 
L 203.89948 96381.975393 
L 203.89948 167.408179 
L 200.39991 167.408179 
z
" style="fill:#1f77b4;"/>
   </g>
   <g id="patch_38">
    <path clip-path="url(#p37d1dc1427)" d="M 203.89948 96381.975393 
L 207.399049 96381.975393 
L 207.399049 159.798739 
L 203.89948 159.798739 
z
" style="fill:#1f77b4;"/>
   </g>
   <g id="patch_39">
    <path clip-path="url(#p37d1dc1427)" d="M 207.399049 96381.975393 
L 210.898619 96381.975393 
L 210.898619 170.287691 
L 207.399049 170.287691 
z
" style="fill:#1f77b4;"/>
   </g>
   <g id="patch_40">
    <path clip-path="url(#p37d1dc1427)" d="M 210.898619 96381.975393 
L 214.398189 96381.975393 
L 214.398189 173.380689 
L 210.898619 173.380689 
z
" style="fill:#1f77b4;"/>
   </g>
   <g id="patch_41">
    <path clip-path="url(#p37d1dc1427)" d="M 214.398189 96381.975393 
L 217.897759 96381.975393 
L 217.897759 173.380689 
L 214.398189 173.380689 
z
" style="fill:#1f77b4;"/>
   </g>
   <g id="patch_42">
    <path clip-path="url(#p37d1dc1427)" d="M 217.897759 96381.975393 
L 221.397329 96381.975393 
L 221.397329 180.35292 
L 217.897759 180.35292 
z
" style="fill:#1f77b4;"/>
   </g>
   <g id="patch_43">
    <path clip-path="url(#p37d1dc1427)" d="M 221.397329 96381.975393 
L 224.896899 96381.975393 
L 224.896899 184.330821 
L 221.397329 184.330821 
z
" style="fill:#1f77b4;"/>
   </g>
   <g id="patch_44">
    <path clip-path="url(#p37d1dc1427)" d="M 224.896899 96381.975393 
L 228.396469 96381.975393 
L 228.396469 176.721381 
L 224.896899 176.721381 
z
" style="fill:#1f77b4;"/>
   </g>
   <g id="patch_45">
    <path clip-path="url(#p37d1dc1427)" d="M 228.396469 96381.975393 
L 231.896039 96381.975393 
L 231.896039 176.721381 
L 228.396469 176.721381 
z
" style="fill:#1f77b4;"/>
   </g>
   <g id="patch_46">
    <path clip-path="url(#p37d1dc1427)" d="M 231.896039 96381.975393 
L 235.395608 96381.975393 
L 235.395608 205.650828 
L 231.896039 205.650828 
z
" style="fill:#1f77b4;"/>
   </g>
   <g id="patch_47">
    <path clip-path="url(#p37d1dc1427)" d="M 235.395608 96381.975393 
L 238.895178 96381.975393 
L 238.895178 205.650828 
L 235.395608 205.650828 
z
" style="fill:#1f77b4;"/>
   </g>
   <g id="patch_48">
    <path clip-path="url(#p37d1dc1427)" d="M 238.895178 96381.975393 
L 242.394748 96381.975393 
L 242.394748 251.502917 
L 238.895178 251.502917 
z
" style="fill:#1f77b4;"/>
   </g>
   <g id="patch_49">
    <path clip-path="url(#p37d1dc1427)" d="M 242.394748 96381.975393 
L 245.894318 96381.975393 
L 245.894318 199.217138 
L 242.394748 199.217138 
z
" style="fill:#1f77b4;"/>
   </g>
   <g id="patch_50">
    <path clip-path="url(#p37d1dc1427)" d="M 245.894318 96381.975393 
L 249.393888 96381.975393 
L 249.393888 205.650828 
L 245.894318 205.650828 
z
" style="fill:#1f77b4;"/>
   </g>
   <g id="patch_51">
    <path clip-path="url(#p37d1dc1427)" d="M 249.393888 96381.975393 
L 252.893458 96381.975393 
L 252.893458 213.260268 
L 249.393888 213.260268 
z
" style="fill:#1f77b4;"/>
   </g>
   <g id="patch_52">
    <path clip-path="url(#p37d1dc1427)" d="M 252.893458 96381.975393 
L 256.393028 96381.975393 
L 256.393028 280.432364 
L 252.893458 280.432364 
z
" style="fill:#1f77b4;"/>
   </g>
   <g id="patch_53">
    <path clip-path="url(#p37d1dc1427)" d="M 256.393028 96381.975393 
L 259.892598 96381.975393 
L 259.892598 199.217138 
L 256.393028 199.217138 
z
" style="fill:#1f77b4;"/>
   </g>
   <g id="patch_54">
    <path clip-path="url(#p37d1dc1427)" d="M 259.892598 96381.975393 
L 263.392167 96381.975393 
L 263.392167 280.432364 
L 259.892598 280.432364 
z
" style="fill:#1f77b4;"/>
   </g>
   <g id="patch_55">
    <path clip-path="url(#p37d1dc1427)" d="M 263.392167 96381.975393 
L 266.891737 96381.975393 
L 266.891737 234.580275 
L 263.392167 234.580275 
z
" style="fill:#1f77b4;"/>
   </g>
   <g id="patch_56">
    <path clip-path="url(#p37d1dc1427)" d="M 266.891737 96381.975393 
L 270.391307 96381.975393 
L 270.391307 280.432364 
L 266.891737 280.432364 
z
" style="fill:#1f77b4;"/>
   </g>
   <g id="patch_57">
    <path clip-path="url(#p37d1dc1427)" d="M 270.391307 96381.975393 
L 273.890877 96381.975393 
L 273.890877 222.573469 
L 270.391307 222.573469 
z
" style="fill:#1f77b4;"/>
   </g>
   <g id="patch_58">
    <path clip-path="url(#p37d1dc1427)" d="M 273.890877 96381.975393 
L 277.390447 96381.975393 
L 277.390447 234.580275 
L 273.890877 234.580275 
z
" style="fill:#1f77b4;"/>
   </g>
   <g id="patch_59">
    <path clip-path="url(#p37d1dc1427)" d="M 277.390447 96381.975393 
L 280.890017 96381.975393 
L 280.890017 280.432364 
L 277.390447 280.432364 
z
" style="fill:#1f77b4;"/>
   </g>
   <g id="patch_60">
    <path clip-path="url(#p37d1dc1427)" d="M 280.890017 96381.975393 
L 284.389587 96381.975393 
L 284.389587 234.580275 
L 280.890017 234.580275 
z
" style="fill:#1f77b4;"/>
   </g>
   <g id="patch_61">
    <path clip-path="url(#p37d1dc1427)" d="M 284.389587 96381.975393 
L 287.889156 96381.975393 
L 287.889156 234.580275 
L 284.389587 234.580275 
z
" style="fill:#1f77b4;"/>
   </g>
   <g id="patch_62">
    <path clip-path="url(#p37d1dc1427)" d="M 287.889156 96381.975393 
L 291.388726 96381.975393 
L 291.388726 280.432364 
L 287.889156 280.432364 
z
" style="fill:#1f77b4;"/>
   </g>
   <g id="patch_63">
    <path clip-path="url(#p37d1dc1427)" d="M 291.388726 96381.975393 
L 294.888296 96381.975393 
L 294.888296 251.502917 
L 291.388726 251.502917 
z
" style="fill:#1f77b4;"/>
   </g>
   <g id="patch_64">
    <path clip-path="url(#p37d1dc1427)" d="M 294.888296 96381.975393 
L 298.387866 96381.975393 
L 298.387866 251.502917 
L 294.888296 251.502917 
z
" style="fill:#1f77b4;"/>
   </g>
   <g id="patch_65">
    <path clip-path="url(#p37d1dc1427)" d="M 298.387866 96381.975393 
L 301.887436 96381.975393 
L 301.887436 96381.975393 
L 298.387866 96381.975393 
z
" style="fill:#1f77b4;"/>
   </g>
   <g id="patch_66">
    <path clip-path="url(#p37d1dc1427)" d="M 301.887436 96381.975393 
L 305.387006 96381.975393 
L 305.387006 96381.975393 
L 301.887436 96381.975393 
z
" style="fill:#1f77b4;"/>
   </g>
   <g id="patch_67">
    <path clip-path="url(#p37d1dc1427)" d="M 305.387006 96381.975393 
L 308.886576 96381.975393 
L 308.886576 280.432364 
L 305.387006 280.432364 
z
" style="fill:#1f77b4;"/>
   </g>
   <g id="patch_68">
    <path clip-path="url(#p37d1dc1427)" d="M 308.886576 96381.975393 
L 312.386146 96381.975393 
L 312.386146 96381.975393 
L 308.886576 96381.975393 
z
" style="fill:#1f77b4;"/>
   </g>
   <g id="patch_69">
    <path clip-path="url(#p37d1dc1427)" d="M 312.386146 96381.975393 
L 315.885715 96381.975393 
L 315.885715 96381.975393 
L 312.386146 96381.975393 
z
" style="fill:#1f77b4;"/>
   </g>
   <g id="patch_70">
    <path clip-path="url(#p37d1dc1427)" d="M 315.885715 96381.975393 
L 319.385285 96381.975393 
L 319.385285 96381.975393 
L 315.885715 96381.975393 
z
" style="fill:#1f77b4;"/>
   </g>
   <g id="patch_71">
    <path clip-path="url(#p37d1dc1427)" d="M 319.385285 96381.975393 
L 322.884855 96381.975393 
L 322.884855 96381.975393 
L 319.385285 96381.975393 
z
" style="fill:#1f77b4;"/>
   </g>
   <g id="patch_72">
    <path clip-path="url(#p37d1dc1427)" d="M 322.884855 96381.975393 
L 326.384425 96381.975393 
L 326.384425 251.502917 
L 322.884855 251.502917 
z
" style="fill:#1f77b4;"/>
   </g>
   <g id="patch_73">
    <path clip-path="url(#p37d1dc1427)" d="M 326.384425 96381.975393 
L 329.883995 96381.975393 
L 329.883995 280.432364 
L 326.384425 280.432364 
z
" style="fill:#1f77b4;"/>
   </g>
   <g id="patch_74">
    <path clip-path="url(#p37d1dc1427)" d="M 329.883995 96381.975393 
L 333.383565 96381.975393 
L 333.383565 96381.975393 
L 329.883995 96381.975393 
z
" style="fill:#1f77b4;"/>
   </g>
   <g id="patch_75">
    <path clip-path="url(#p37d1dc1427)" d="M 333.383565 96381.975393 
L 336.883135 96381.975393 
L 336.883135 280.432364 
L 333.383565 280.432364 
z
" style="fill:#1f77b4;"/>
   </g>
   <g id="patch_76">
    <path clip-path="url(#p37d1dc1427)" d="M 336.883135 96381.975393 
L 340.382705 96381.975393 
L 340.382705 96381.975393 
L 336.883135 96381.975393 
z
" style="fill:#1f77b4;"/>
   </g>
   <g id="patch_77">
    <path clip-path="url(#p37d1dc1427)" d="M 340.382705 96381.975393 
L 343.882274 96381.975393 
L 343.882274 280.432364 
L 340.382705 280.432364 
z
" style="fill:#1f77b4;"/>
   </g>
   <g id="patch_78">
    <path clip-path="url(#p37d1dc1427)" d="M 343.882274 96381.975393 
L 347.381844 96381.975393 
L 347.381844 280.432364 
L 343.882274 280.432364 
z
" style="fill:#1f77b4;"/>
   </g>
   <g id="patch_79">
    <path clip-path="url(#p37d1dc1427)" d="M 347.381844 96381.975393 
L 350.881414 96381.975393 
L 350.881414 96381.975393 
L 347.381844 96381.975393 
z
" style="fill:#1f77b4;"/>
   </g>
   <g id="patch_80">
    <path clip-path="url(#p37d1dc1427)" d="M 350.881414 96381.975393 
L 354.380984 96381.975393 
L 354.380984 96381.975393 
L 350.881414 96381.975393 
z
" style="fill:#1f77b4;"/>
   </g>
   <g id="patch_81">
    <path clip-path="url(#p37d1dc1427)" d="M 354.380984 96381.975393 
L 357.880554 96381.975393 
L 357.880554 96381.975393 
L 354.380984 96381.975393 
z
" style="fill:#1f77b4;"/>
   </g>
   <g id="patch_82">
    <path clip-path="url(#p37d1dc1427)" d="M 357.880554 96381.975393 
L 361.380124 96381.975393 
L 361.380124 96381.975393 
L 357.880554 96381.975393 
z
" style="fill:#1f77b4;"/>
   </g>
   <g id="patch_83">
    <path clip-path="url(#p37d1dc1427)" d="M 361.380124 96381.975393 
L 364.879694 96381.975393 
L 364.879694 280.432364 
L 361.380124 280.432364 
z
" style="fill:#1f77b4;"/>
   </g>
   <g id="patch_84">
    <path clip-path="url(#p37d1dc1427)" d="M 364.879694 96381.975393 
L 368.379263 96381.975393 
L 368.379263 96381.975393 
L 364.879694 96381.975393 
z
" style="fill:#1f77b4;"/>
   </g>
   <g id="patch_85">
    <path clip-path="url(#p37d1dc1427)" d="M 368.379263 96381.975393 
L 371.878833 96381.975393 
L 371.878833 96381.975393 
L 368.379263 96381.975393 
z
" style="fill:#1f77b4;"/>
   </g>
   <g id="patch_86">
    <path clip-path="url(#p37d1dc1427)" d="M 371.878833 96381.975393 
L 375.378403 96381.975393 
L 375.378403 96381.975393 
L 371.878833 96381.975393 
z
" style="fill:#1f77b4;"/>
   </g>
   <g id="patch_87">
    <path clip-path="url(#p37d1dc1427)" d="M 375.378403 96381.975393 
L 378.877973 96381.975393 
L 378.877973 96381.975393 
L 375.378403 96381.975393 
z
" style="fill:#1f77b4;"/>
   </g>
   <g id="patch_88">
    <path clip-path="url(#p37d1dc1427)" d="M 378.877973 96381.975393 
L 382.377543 96381.975393 
L 382.377543 96381.975393 
L 378.877973 96381.975393 
z
" style="fill:#1f77b4;"/>
   </g>
   <g id="patch_89">
    <path clip-path="url(#p37d1dc1427)" d="M 382.377543 96381.975393 
L 385.877113 96381.975393 
L 385.877113 96381.975393 
L 382.377543 96381.975393 
z
" style="fill:#1f77b4;"/>
   </g>
   <g id="patch_90">
    <path clip-path="url(#p37d1dc1427)" d="M 385.877113 96381.975393 
L 389.376683 96381.975393 
L 389.376683 96381.975393 
L 385.877113 96381.975393 
z
" style="fill:#1f77b4;"/>
   </g>
   <g id="patch_91">
    <path clip-path="url(#p37d1dc1427)" d="M 389.376683 96381.975393 
L 392.876253 96381.975393 
L 392.876253 96381.975393 
L 389.376683 96381.975393 
z
" style="fill:#1f77b4;"/>
   </g>
   <g id="patch_92">
    <path clip-path="url(#p37d1dc1427)" d="M 392.876253 96381.975393 
L 396.375822 96381.975393 
L 396.375822 96381.975393 
L 392.876253 96381.975393 
z
" style="fill:#1f77b4;"/>
   </g>
   <g id="patch_93">
    <path clip-path="url(#p37d1dc1427)" d="M 396.375822 96381.975393 
L 399.875392 96381.975393 
L 399.875392 280.432364 
L 396.375822 280.432364 
z
" style="fill:#1f77b4;"/>
   </g>
   <g id="patch_94">
    <path clip-path="url(#p37d1dc1427)" d="M 399.875392 96381.975393 
L 403.374962 96381.975393 
L 403.374962 96381.975393 
L 399.875392 96381.975393 
z
" style="fill:#1f77b4;"/>
   </g>
   <g id="patch_95">
    <path clip-path="url(#p37d1dc1427)" d="M 403.374962 96381.975393 
L 406.874532 96381.975393 
L 406.874532 96381.975393 
L 403.374962 96381.975393 
z
" style="fill:#1f77b4;"/>
   </g>
   <g id="patch_96">
    <path clip-path="url(#p37d1dc1427)" d="M 406.874532 96381.975393 
L 410.374102 96381.975393 
L 410.374102 96381.975393 
L 406.874532 96381.975393 
z
" style="fill:#1f77b4;"/>
   </g>
   <g id="patch_97">
    <path clip-path="url(#p37d1dc1427)" d="M 410.374102 96381.975393 
L 413.873672 96381.975393 
L 413.873672 280.432364 
L 410.374102 280.432364 
z
" style="fill:#1f77b4;"/>
   </g>
   <g id="patch_98">
    <path clip-path="url(#p37d1dc1427)" d="M 413.873672 96381.975393 
L 417.373242 96381.975393 
L 417.373242 96381.975393 
L 413.873672 96381.975393 
z
" style="fill:#1f77b4;"/>
   </g>
   <g id="patch_99">
    <path clip-path="url(#p37d1dc1427)" d="M 417.373242 96381.975393 
L 420.872812 96381.975393 
L 420.872812 280.432364 
L 417.373242 280.432364 
z
" style="fill:#1f77b4;"/>
   </g>
   <g id="patch_100">
    <path clip-path="url(#p37d1dc1427)" d="M 420.872812 96381.975393 
L 424.372381 96381.975393 
L 424.372381 96381.975393 
L 420.872812 96381.975393 
z
" style="fill:#1f77b4;"/>
   </g>
   <g id="patch_101">
    <path clip-path="url(#p37d1dc1427)" d="M 424.372381 96381.975393 
L 427.871951 96381.975393 
L 427.871951 96381.975393 
L 424.372381 96381.975393 
z
" style="fill:#1f77b4;"/>
   </g>
   <g id="patch_102">
    <path clip-path="url(#p37d1dc1427)" d="M 427.871951 96381.975393 
L 431.371521 96381.975393 
L 431.371521 280.432364 
L 427.871951 280.432364 
z
" style="fill:#1f77b4;"/>
   </g>
   <g id="matplotlib.axis_1">
    <g id="xtick_1">
     <g id="line2d_1">
      <defs>
       <path d="M 0 0 
L 0 3.5 
" id="m8fde08f3b3" style="stroke:#000000;stroke-width:0.8;"/>
      </defs>
      <g>
       <use style="stroke:#000000;stroke-width:0.8;" x="81.371856" xlink:href="#m8fde08f3b3" y="293.272"/>
      </g>
     </g>
     <g id="text_1">
      <!-- 0 -->
      <g transform="translate(78.190606 307.870437)scale(0.1 -0.1)">
       <defs>
        <path d="M 2034 4250 
Q 1547 4250 1301 3770 
Q 1056 3291 1056 2328 
Q 1056 1369 1301 889 
Q 1547 409 2034 409 
Q 2525 409 2770 889 
Q 3016 1369 3016 2328 
Q 3016 3291 2770 3770 
Q 2525 4250 2034 4250 
z
M 2034 4750 
Q 2819 4750 3233 4129 
Q 3647 3509 3647 2328 
Q 3647 1150 3233 529 
Q 2819 -91 2034 -91 
Q 1250 -91 836 529 
Q 422 1150 422 2328 
Q 422 3509 836 4129 
Q 1250 4750 2034 4750 
z
" id="DejaVuSans-30" transform="scale(0.015625)"/>
       </defs>
       <use xlink:href="#DejaVuSans-30"/>
      </g>
     </g>
    </g>
    <g id="xtick_2">
     <g id="line2d_2">
      <g>
       <use style="stroke:#000000;stroke-width:0.8;" x="126.600387" xlink:href="#m8fde08f3b3" y="293.272"/>
      </g>
     </g>
     <g id="text_2">
      <!-- 2 -->
      <g transform="translate(123.419137 307.870437)scale(0.1 -0.1)">
       <defs>
        <path d="M 1228 531 
L 3431 531 
L 3431 0 
L 469 0 
L 469 531 
Q 828 903 1448 1529 
Q 2069 2156 2228 2338 
Q 2531 2678 2651 2914 
Q 2772 3150 2772 3378 
Q 2772 3750 2511 3984 
Q 2250 4219 1831 4219 
Q 1534 4219 1204 4116 
Q 875 4013 500 3803 
L 500 4441 
Q 881 4594 1212 4672 
Q 1544 4750 1819 4750 
Q 2544 4750 2975 4387 
Q 3406 4025 3406 3419 
Q 3406 3131 3298 2873 
Q 3191 2616 2906 2266 
Q 2828 2175 2409 1742 
Q 1991 1309 1228 531 
z
" id="DejaVuSans-32" transform="scale(0.015625)"/>
       </defs>
       <use xlink:href="#DejaVuSans-32"/>
      </g>
     </g>
    </g>
    <g id="xtick_3">
     <g id="line2d_3">
      <g>
       <use style="stroke:#000000;stroke-width:0.8;" x="171.828918" xlink:href="#m8fde08f3b3" y="293.272"/>
      </g>
     </g>
     <g id="text_3">
      <!-- 4 -->
      <g transform="translate(168.647668 307.870437)scale(0.1 -0.1)">
       <defs>
        <path d="M 2419 4116 
L 825 1625 
L 2419 1625 
L 2419 4116 
z
M 2253 4666 
L 3047 4666 
L 3047 1625 
L 3713 1625 
L 3713 1100 
L 3047 1100 
L 3047 0 
L 2419 0 
L 2419 1100 
L 313 1100 
L 313 1709 
L 2253 4666 
z
" id="DejaVuSans-34" transform="scale(0.015625)"/>
       </defs>
       <use xlink:href="#DejaVuSans-34"/>
      </g>
     </g>
    </g>
    <g id="xtick_4">
     <g id="line2d_4">
      <g>
       <use style="stroke:#000000;stroke-width:0.8;" x="217.057448" xlink:href="#m8fde08f3b3" y="293.272"/>
      </g>
     </g>
     <g id="text_4">
      <!-- 6 -->
      <g transform="translate(213.876198 307.870437)scale(0.1 -0.1)">
       <defs>
        <path d="M 2113 2584 
Q 1688 2584 1439 2293 
Q 1191 2003 1191 1497 
Q 1191 994 1439 701 
Q 1688 409 2113 409 
Q 2538 409 2786 701 
Q 3034 994 3034 1497 
Q 3034 2003 2786 2293 
Q 2538 2584 2113 2584 
z
M 3366 4563 
L 3366 3988 
Q 3128 4100 2886 4159 
Q 2644 4219 2406 4219 
Q 1781 4219 1451 3797 
Q 1122 3375 1075 2522 
Q 1259 2794 1537 2939 
Q 1816 3084 2150 3084 
Q 2853 3084 3261 2657 
Q 3669 2231 3669 1497 
Q 3669 778 3244 343 
Q 2819 -91 2113 -91 
Q 1303 -91 875 529 
Q 447 1150 447 2328 
Q 447 3434 972 4092 
Q 1497 4750 2381 4750 
Q 2619 4750 2861 4703 
Q 3103 4656 3366 4563 
z
" id="DejaVuSans-36" transform="scale(0.015625)"/>
       </defs>
       <use xlink:href="#DejaVuSans-36"/>
      </g>
     </g>
    </g>
    <g id="xtick_5">
     <g id="line2d_5">
      <g>
       <use style="stroke:#000000;stroke-width:0.8;" x="262.285979" xlink:href="#m8fde08f3b3" y="293.272"/>
      </g>
     </g>
     <g id="text_5">
      <!-- 8 -->
      <g transform="translate(259.104729 307.870437)scale(0.1 -0.1)">
       <defs>
        <path d="M 2034 2216 
Q 1584 2216 1326 1975 
Q 1069 1734 1069 1313 
Q 1069 891 1326 650 
Q 1584 409 2034 409 
Q 2484 409 2743 651 
Q 3003 894 3003 1313 
Q 3003 1734 2745 1975 
Q 2488 2216 2034 2216 
z
M 1403 2484 
Q 997 2584 770 2862 
Q 544 3141 544 3541 
Q 544 4100 942 4425 
Q 1341 4750 2034 4750 
Q 2731 4750 3128 4425 
Q 3525 4100 3525 3541 
Q 3525 3141 3298 2862 
Q 3072 2584 2669 2484 
Q 3125 2378 3379 2068 
Q 3634 1759 3634 1313 
Q 3634 634 3220 271 
Q 2806 -91 2034 -91 
Q 1263 -91 848 271 
Q 434 634 434 1313 
Q 434 1759 690 2068 
Q 947 2378 1403 2484 
z
M 1172 3481 
Q 1172 3119 1398 2916 
Q 1625 2713 2034 2713 
Q 2441 2713 2670 2916 
Q 2900 3119 2900 3481 
Q 2900 3844 2670 4047 
Q 2441 4250 2034 4250 
Q 1625 4250 1398 4047 
Q 1172 3844 1172 3481 
z
" id="DejaVuSans-38" transform="scale(0.015625)"/>
       </defs>
       <use xlink:href="#DejaVuSans-38"/>
      </g>
     </g>
    </g>
    <g id="xtick_6">
     <g id="line2d_6">
      <g>
       <use style="stroke:#000000;stroke-width:0.8;" x="307.51451" xlink:href="#m8fde08f3b3" y="293.272"/>
      </g>
     </g>
     <g id="text_6">
      <!-- 10 -->
      <g transform="translate(301.15201 307.870437)scale(0.1 -0.1)">
       <defs>
        <path d="M 794 531 
L 1825 531 
L 1825 4091 
L 703 3866 
L 703 4441 
L 1819 4666 
L 2450 4666 
L 2450 531 
L 3481 531 
L 3481 0 
L 794 0 
L 794 531 
z
" id="DejaVuSans-31" transform="scale(0.015625)"/>
       </defs>
       <use xlink:href="#DejaVuSans-31"/>
       <use x="63.623047" xlink:href="#DejaVuSans-30"/>
      </g>
     </g>
    </g>
    <g id="xtick_7">
     <g id="line2d_7">
      <g>
       <use style="stroke:#000000;stroke-width:0.8;" x="352.743041" xlink:href="#m8fde08f3b3" y="293.272"/>
      </g>
     </g>
     <g id="text_7">
      <!-- 12 -->
      <g transform="translate(346.380541 307.870437)scale(0.1 -0.1)">
       <use xlink:href="#DejaVuSans-31"/>
       <use x="63.623047" xlink:href="#DejaVuSans-32"/>
      </g>
     </g>
    </g>
    <g id="xtick_8">
     <g id="line2d_8">
      <g>
       <use style="stroke:#000000;stroke-width:0.8;" x="397.971572" xlink:href="#m8fde08f3b3" y="293.272"/>
      </g>
     </g>
     <g id="text_8">
      <!-- 14 -->
      <g transform="translate(391.609072 307.870437)scale(0.1 -0.1)">
       <use xlink:href="#DejaVuSans-31"/>
       <use x="63.623047" xlink:href="#DejaVuSans-34"/>
      </g>
     </g>
    </g>
    <g id="xtick_9">
     <g id="line2d_9">
      <g>
       <use style="stroke:#000000;stroke-width:0.8;" x="443.200103" xlink:href="#m8fde08f3b3" y="293.272"/>
      </g>
     </g>
     <g id="text_9">
      <!-- 16 -->
      <g transform="translate(436.837603 307.870437)scale(0.1 -0.1)">
       <use xlink:href="#DejaVuSans-31"/>
       <use x="63.623047" xlink:href="#DejaVuSans-36"/>
      </g>
     </g>
    </g>
    <g id="text_10">
     <!-- Time difference (count) (s) -->
     <g transform="translate(189.703965 321.548562)scale(0.1 -0.1)">
      <defs>
       <path d="M -19 4666 
L 3928 4666 
L 3928 4134 
L 2272 4134 
L 2272 0 
L 1638 0 
L 1638 4134 
L -19 4134 
L -19 4666 
z
" id="DejaVuSans-54" transform="scale(0.015625)"/>
       <path d="M 603 3500 
L 1178 3500 
L 1178 0 
L 603 0 
L 603 3500 
z
M 603 4863 
L 1178 4863 
L 1178 4134 
L 603 4134 
L 603 4863 
z
" id="DejaVuSans-69" transform="scale(0.015625)"/>
       <path d="M 3328 2828 
Q 3544 3216 3844 3400 
Q 4144 3584 4550 3584 
Q 5097 3584 5394 3201 
Q 5691 2819 5691 2113 
L 5691 0 
L 5113 0 
L 5113 2094 
Q 5113 2597 4934 2840 
Q 4756 3084 4391 3084 
Q 3944 3084 3684 2787 
Q 3425 2491 3425 1978 
L 3425 0 
L 2847 0 
L 2847 2094 
Q 2847 2600 2669 2842 
Q 2491 3084 2119 3084 
Q 1678 3084 1418 2786 
Q 1159 2488 1159 1978 
L 1159 0 
L 581 0 
L 581 3500 
L 1159 3500 
L 1159 2956 
Q 1356 3278 1631 3431 
Q 1906 3584 2284 3584 
Q 2666 3584 2933 3390 
Q 3200 3197 3328 2828 
z
" id="DejaVuSans-6d" transform="scale(0.015625)"/>
       <path d="M 3597 1894 
L 3597 1613 
L 953 1613 
Q 991 1019 1311 708 
Q 1631 397 2203 397 
Q 2534 397 2845 478 
Q 3156 559 3463 722 
L 3463 178 
Q 3153 47 2828 -22 
Q 2503 -91 2169 -91 
Q 1331 -91 842 396 
Q 353 884 353 1716 
Q 353 2575 817 3079 
Q 1281 3584 2069 3584 
Q 2775 3584 3186 3129 
Q 3597 2675 3597 1894 
z
M 3022 2063 
Q 3016 2534 2758 2815 
Q 2500 3097 2075 3097 
Q 1594 3097 1305 2825 
Q 1016 2553 972 2059 
L 3022 2063 
z
" id="DejaVuSans-65" transform="scale(0.015625)"/>
       <path id="DejaVuSans-20" transform="scale(0.015625)"/>
       <path d="M 2906 2969 
L 2906 4863 
L 3481 4863 
L 3481 0 
L 2906 0 
L 2906 525 
Q 2725 213 2448 61 
Q 2172 -91 1784 -91 
Q 1150 -91 751 415 
Q 353 922 353 1747 
Q 353 2572 751 3078 
Q 1150 3584 1784 3584 
Q 2172 3584 2448 3432 
Q 2725 3281 2906 2969 
z
M 947 1747 
Q 947 1113 1208 752 
Q 1469 391 1925 391 
Q 2381 391 2643 752 
Q 2906 1113 2906 1747 
Q 2906 2381 2643 2742 
Q 2381 3103 1925 3103 
Q 1469 3103 1208 2742 
Q 947 2381 947 1747 
z
" id="DejaVuSans-64" transform="scale(0.015625)"/>
       <path d="M 2375 4863 
L 2375 4384 
L 1825 4384 
Q 1516 4384 1395 4259 
Q 1275 4134 1275 3809 
L 1275 3500 
L 2222 3500 
L 2222 3053 
L 1275 3053 
L 1275 0 
L 697 0 
L 697 3053 
L 147 3053 
L 147 3500 
L 697 3500 
L 697 3744 
Q 697 4328 969 4595 
Q 1241 4863 1831 4863 
L 2375 4863 
z
" id="DejaVuSans-66" transform="scale(0.015625)"/>
       <path d="M 2631 2963 
Q 2534 3019 2420 3045 
Q 2306 3072 2169 3072 
Q 1681 3072 1420 2755 
Q 1159 2438 1159 1844 
L 1159 0 
L 581 0 
L 581 3500 
L 1159 3500 
L 1159 2956 
Q 1341 3275 1631 3429 
Q 1922 3584 2338 3584 
Q 2397 3584 2469 3576 
Q 2541 3569 2628 3553 
L 2631 2963 
z
" id="DejaVuSans-72" transform="scale(0.015625)"/>
       <path d="M 3513 2113 
L 3513 0 
L 2938 0 
L 2938 2094 
Q 2938 2591 2744 2837 
Q 2550 3084 2163 3084 
Q 1697 3084 1428 2787 
Q 1159 2491 1159 1978 
L 1159 0 
L 581 0 
L 581 3500 
L 1159 3500 
L 1159 2956 
Q 1366 3272 1645 3428 
Q 1925 3584 2291 3584 
Q 2894 3584 3203 3211 
Q 3513 2838 3513 2113 
z
" id="DejaVuSans-6e" transform="scale(0.015625)"/>
       <path d="M 3122 3366 
L 3122 2828 
Q 2878 2963 2633 3030 
Q 2388 3097 2138 3097 
Q 1578 3097 1268 2742 
Q 959 2388 959 1747 
Q 959 1106 1268 751 
Q 1578 397 2138 397 
Q 2388 397 2633 464 
Q 2878 531 3122 666 
L 3122 134 
Q 2881 22 2623 -34 
Q 2366 -91 2075 -91 
Q 1284 -91 818 406 
Q 353 903 353 1747 
Q 353 2603 823 3093 
Q 1294 3584 2113 3584 
Q 2378 3584 2631 3529 
Q 2884 3475 3122 3366 
z
" id="DejaVuSans-63" transform="scale(0.015625)"/>
       <path d="M 1984 4856 
Q 1566 4138 1362 3434 
Q 1159 2731 1159 2009 
Q 1159 1288 1364 580 
Q 1569 -128 1984 -844 
L 1484 -844 
Q 1016 -109 783 600 
Q 550 1309 550 2009 
Q 550 2706 781 3412 
Q 1013 4119 1484 4856 
L 1984 4856 
z
" id="DejaVuSans-28" transform="scale(0.015625)"/>
       <path d="M 1959 3097 
Q 1497 3097 1228 2736 
Q 959 2375 959 1747 
Q 959 1119 1226 758 
Q 1494 397 1959 397 
Q 2419 397 2687 759 
Q 2956 1122 2956 1747 
Q 2956 2369 2687 2733 
Q 2419 3097 1959 3097 
z
M 1959 3584 
Q 2709 3584 3137 3096 
Q 3566 2609 3566 1747 
Q 3566 888 3137 398 
Q 2709 -91 1959 -91 
Q 1206 -91 779 398 
Q 353 888 353 1747 
Q 353 2609 779 3096 
Q 1206 3584 1959 3584 
z
" id="DejaVuSans-6f" transform="scale(0.015625)"/>
       <path d="M 544 1381 
L 544 3500 
L 1119 3500 
L 1119 1403 
Q 1119 906 1312 657 
Q 1506 409 1894 409 
Q 2359 409 2629 706 
Q 2900 1003 2900 1516 
L 2900 3500 
L 3475 3500 
L 3475 0 
L 2900 0 
L 2900 538 
Q 2691 219 2414 64 
Q 2138 -91 1772 -91 
Q 1169 -91 856 284 
Q 544 659 544 1381 
z
M 1991 3584 
L 1991 3584 
z
" id="DejaVuSans-75" transform="scale(0.015625)"/>
       <path d="M 1172 4494 
L 1172 3500 
L 2356 3500 
L 2356 3053 
L 1172 3053 
L 1172 1153 
Q 1172 725 1289 603 
Q 1406 481 1766 481 
L 2356 481 
L 2356 0 
L 1766 0 
Q 1100 0 847 248 
Q 594 497 594 1153 
L 594 3053 
L 172 3053 
L 172 3500 
L 594 3500 
L 594 4494 
L 1172 4494 
z
" id="DejaVuSans-74" transform="scale(0.015625)"/>
       <path d="M 513 4856 
L 1013 4856 
Q 1481 4119 1714 3412 
Q 1947 2706 1947 2009 
Q 1947 1309 1714 600 
Q 1481 -109 1013 -844 
L 513 -844 
Q 928 -128 1133 580 
Q 1338 1288 1338 2009 
Q 1338 2731 1133 3434 
Q 928 4138 513 4856 
z
" id="DejaVuSans-29" transform="scale(0.015625)"/>
       <path d="M 2834 3397 
L 2834 2853 
Q 2591 2978 2328 3040 
Q 2066 3103 1784 3103 
Q 1356 3103 1142 2972 
Q 928 2841 928 2578 
Q 928 2378 1081 2264 
Q 1234 2150 1697 2047 
L 1894 2003 
Q 2506 1872 2764 1633 
Q 3022 1394 3022 966 
Q 3022 478 2636 193 
Q 2250 -91 1575 -91 
Q 1294 -91 989 -36 
Q 684 19 347 128 
L 347 722 
Q 666 556 975 473 
Q 1284 391 1588 391 
Q 1994 391 2212 530 
Q 2431 669 2431 922 
Q 2431 1156 2273 1281 
Q 2116 1406 1581 1522 
L 1381 1569 
Q 847 1681 609 1914 
Q 372 2147 372 2553 
Q 372 3047 722 3315 
Q 1072 3584 1716 3584 
Q 2034 3584 2315 3537 
Q 2597 3491 2834 3397 
z
" id="DejaVuSans-73" transform="scale(0.015625)"/>
      </defs>
      <use xlink:href="#DejaVuSans-54"/>
      <use x="57.958984" xlink:href="#DejaVuSans-69"/>
      <use x="85.742188" xlink:href="#DejaVuSans-6d"/>
      <use x="183.154297" xlink:href="#DejaVuSans-65"/>
      <use x="244.677734" xlink:href="#DejaVuSans-20"/>
      <use x="276.464844" xlink:href="#DejaVuSans-64"/>
      <use x="339.941406" xlink:href="#DejaVuSans-69"/>
      <use x="367.724609" xlink:href="#DejaVuSans-66"/>
      <use x="402.929688" xlink:href="#DejaVuSans-66"/>
      <use x="438.134766" xlink:href="#DejaVuSans-65"/>
      <use x="499.658203" xlink:href="#DejaVuSans-72"/>
      <use x="538.521484" xlink:href="#DejaVuSans-65"/>
      <use x="600.044922" xlink:href="#DejaVuSans-6e"/>
      <use x="663.423828" xlink:href="#DejaVuSans-63"/>
      <use x="718.404297" xlink:href="#DejaVuSans-65"/>
      <use x="779.927734" xlink:href="#DejaVuSans-20"/>
      <use x="811.714844" xlink:href="#DejaVuSans-28"/>
      <use x="850.728516" xlink:href="#DejaVuSans-63"/>
      <use x="905.708984" xlink:href="#DejaVuSans-6f"/>
      <use x="966.890625" xlink:href="#DejaVuSans-75"/>
      <use x="1030.269531" xlink:href="#DejaVuSans-6e"/>
      <use x="1093.648438" xlink:href="#DejaVuSans-74"/>
      <use x="1132.857422" xlink:href="#DejaVuSans-29"/>
      <use x="1171.871094" xlink:href="#DejaVuSans-20"/>
      <use x="1203.658203" xlink:href="#DejaVuSans-28"/>
      <use x="1242.671875" xlink:href="#DejaVuSans-73"/>
      <use x="1294.771484" xlink:href="#DejaVuSans-29"/>
     </g>
    </g>
   </g>
   <g id="matplotlib.axis_2">
    <g id="ytick_1">
     <g id="line2d_10">
      <defs>
       <path d="M 0 0 
L -3.5 0 
" id="ma67561dd66" style="stroke:#000000;stroke-width:0.8;"/>
      </defs>
      <g>
       <use style="stroke:#000000;stroke-width:0.8;" x="63.916685" xlink:href="#ma67561dd66" y="280.432364"/>
      </g>
     </g>
     <g id="text_11">
      <!-- $\mathdefault{10^{0}}$ -->
      <g transform="translate(39.316685 284.231582)scale(0.1 -0.1)">
       <use transform="translate(0 0.765625)" xlink:href="#DejaVuSans-31"/>
       <use transform="translate(63.623047 0.765625)" xlink:href="#DejaVuSans-30"/>
       <use transform="translate(128.203125 39.046875)scale(0.7)" xlink:href="#DejaVuSans-30"/>
      </g>
     </g>
    </g>
    <g id="ytick_2">
     <g id="line2d_11">
      <g>
       <use style="stroke:#000000;stroke-width:0.8;" x="63.916685" xlink:href="#ma67561dd66" y="184.330821"/>
      </g>
     </g>
     <g id="text_12">
      <!-- $\mathdefault{10^{1}}$ -->
      <g transform="translate(39.316685 188.130039)scale(0.1 -0.1)">
       <use transform="translate(0 0.684375)" xlink:href="#DejaVuSans-31"/>
       <use transform="translate(63.623047 0.684375)" xlink:href="#DejaVuSans-30"/>
       <use transform="translate(128.203125 38.965625)scale(0.7)" xlink:href="#DejaVuSans-31"/>
      </g>
     </g>
    </g>
    <g id="ytick_3">
     <g id="line2d_12">
      <g>
       <use style="stroke:#000000;stroke-width:0.8;" x="63.916685" xlink:href="#ma67561dd66" y="88.229278"/>
      </g>
     </g>
     <g id="text_13">
      <!-- $\mathdefault{10^{2}}$ -->
      <g transform="translate(39.316685 92.028496)scale(0.1 -0.1)">
       <use transform="translate(0 0.765625)" xlink:href="#DejaVuSans-31"/>
       <use transform="translate(63.623047 0.765625)" xlink:href="#DejaVuSans-30"/>
       <use transform="translate(128.203125 39.046875)scale(0.7)" xlink:href="#DejaVuSans-32"/>
      </g>
     </g>
    </g>
    <g id="ytick_4">
     <g id="line2d_13">
      <defs>
       <path d="M 0 0 
L -2 0 
" id="mabfbc3f0d5" style="stroke:#000000;stroke-width:0.6;"/>
      </defs>
      <g>
       <use style="stroke:#000000;stroke-width:0.6;" x="63.916685" xlink:href="#mabfbc3f0d5" y="289.745565"/>
      </g>
     </g>
    </g>
    <g id="ytick_5">
     <g id="line2d_14">
      <g>
       <use style="stroke:#000000;stroke-width:0.6;" x="63.916685" xlink:href="#mabfbc3f0d5" y="284.829729"/>
      </g>
     </g>
    </g>
    <g id="ytick_6">
     <g id="line2d_15">
      <g>
       <use style="stroke:#000000;stroke-width:0.6;" x="63.916685" xlink:href="#mabfbc3f0d5" y="251.502917"/>
      </g>
     </g>
    </g>
    <g id="ytick_7">
     <g id="line2d_16">
      <g>
       <use style="stroke:#000000;stroke-width:0.6;" x="63.916685" xlink:href="#mabfbc3f0d5" y="234.580275"/>
      </g>
     </g>
    </g>
    <g id="ytick_8">
     <g id="line2d_17">
      <g>
       <use style="stroke:#000000;stroke-width:0.6;" x="63.916685" xlink:href="#mabfbc3f0d5" y="222.573469"/>
      </g>
     </g>
    </g>
    <g id="ytick_9">
     <g id="line2d_18">
      <g>
       <use style="stroke:#000000;stroke-width:0.6;" x="63.916685" xlink:href="#mabfbc3f0d5" y="213.260268"/>
      </g>
     </g>
    </g>
    <g id="ytick_10">
     <g id="line2d_19">
      <g>
       <use style="stroke:#000000;stroke-width:0.6;" x="63.916685" xlink:href="#mabfbc3f0d5" y="205.650828"/>
      </g>
     </g>
    </g>
    <g id="ytick_11">
     <g id="line2d_20">
      <g>
       <use style="stroke:#000000;stroke-width:0.6;" x="63.916685" xlink:href="#mabfbc3f0d5" y="199.217138"/>
      </g>
     </g>
    </g>
    <g id="ytick_12">
     <g id="line2d_21">
      <g>
       <use style="stroke:#000000;stroke-width:0.6;" x="63.916685" xlink:href="#mabfbc3f0d5" y="193.644022"/>
      </g>
     </g>
    </g>
    <g id="ytick_13">
     <g id="line2d_22">
      <g>
       <use style="stroke:#000000;stroke-width:0.6;" x="63.916685" xlink:href="#mabfbc3f0d5" y="188.728186"/>
      </g>
     </g>
    </g>
    <g id="ytick_14">
     <g id="line2d_23">
      <g>
       <use style="stroke:#000000;stroke-width:0.6;" x="63.916685" xlink:href="#mabfbc3f0d5" y="155.401374"/>
      </g>
     </g>
    </g>
    <g id="ytick_15">
     <g id="line2d_24">
      <g>
       <use style="stroke:#000000;stroke-width:0.6;" x="63.916685" xlink:href="#mabfbc3f0d5" y="138.478732"/>
      </g>
     </g>
    </g>
    <g id="ytick_16">
     <g id="line2d_25">
      <g>
       <use style="stroke:#000000;stroke-width:0.6;" x="63.916685" xlink:href="#mabfbc3f0d5" y="126.471926"/>
      </g>
     </g>
    </g>
    <g id="ytick_17">
     <g id="line2d_26">
      <g>
       <use style="stroke:#000000;stroke-width:0.6;" x="63.916685" xlink:href="#mabfbc3f0d5" y="117.158725"/>
      </g>
     </g>
    </g>
    <g id="ytick_18">
     <g id="line2d_27">
      <g>
       <use style="stroke:#000000;stroke-width:0.6;" x="63.916685" xlink:href="#mabfbc3f0d5" y="109.549285"/>
      </g>
     </g>
    </g>
    <g id="ytick_19">
     <g id="line2d_28">
      <g>
       <use style="stroke:#000000;stroke-width:0.6;" x="63.916685" xlink:href="#mabfbc3f0d5" y="103.115595"/>
      </g>
     </g>
    </g>
    <g id="ytick_20">
     <g id="line2d_29">
      <g>
       <use style="stroke:#000000;stroke-width:0.6;" x="63.916685" xlink:href="#mabfbc3f0d5" y="97.542479"/>
      </g>
     </g>
    </g>
    <g id="ytick_21">
     <g id="line2d_30">
      <g>
       <use style="stroke:#000000;stroke-width:0.6;" x="63.916685" xlink:href="#mabfbc3f0d5" y="92.626643"/>
      </g>
     </g>
    </g>
    <g id="ytick_22">
     <g id="line2d_31">
      <g>
       <use style="stroke:#000000;stroke-width:0.6;" x="63.916685" xlink:href="#mabfbc3f0d5" y="59.29983"/>
      </g>
     </g>
    </g>
    <g id="ytick_23">
     <g id="line2d_32">
      <g>
       <use style="stroke:#000000;stroke-width:0.6;" x="63.916685" xlink:href="#mabfbc3f0d5" y="42.377189"/>
      </g>
     </g>
    </g>
    <g id="ytick_24">
     <g id="line2d_33">
      <g>
       <use style="stroke:#000000;stroke-width:0.6;" x="63.916685" xlink:href="#mabfbc3f0d5" y="30.370383"/>
      </g>
     </g>
    </g>
    <g id="ytick_25">
     <g id="line2d_34">
      <g>
       <use style="stroke:#000000;stroke-width:0.6;" x="63.916685" xlink:href="#mabfbc3f0d5" y="21.057182"/>
      </g>
     </g>
    </g>
    <g id="ytick_26">
     <g id="line2d_35">
      <g>
       <use style="stroke:#000000;stroke-width:0.6;" x="63.916685" xlink:href="#mabfbc3f0d5" y="13.447742"/>
      </g>
     </g>
    </g>
    <g id="text_14">
     <!-- Frequency -->
     <g transform="translate(33.236997 177.865688)rotate(-90)scale(0.1 -0.1)">
      <defs>
       <path d="M 628 4666 
L 3309 4666 
L 3309 4134 
L 1259 4134 
L 1259 2759 
L 3109 2759 
L 3109 2228 
L 1259 2228 
L 1259 0 
L 628 0 
L 628 4666 
z
" id="DejaVuSans-46" transform="scale(0.015625)"/>
       <path d="M 947 1747 
Q 947 1113 1208 752 
Q 1469 391 1925 391 
Q 2381 391 2643 752 
Q 2906 1113 2906 1747 
Q 2906 2381 2643 2742 
Q 2381 3103 1925 3103 
Q 1469 3103 1208 2742 
Q 947 2381 947 1747 
z
M 2906 525 
Q 2725 213 2448 61 
Q 2172 -91 1784 -91 
Q 1150 -91 751 415 
Q 353 922 353 1747 
Q 353 2572 751 3078 
Q 1150 3584 1784 3584 
Q 2172 3584 2448 3432 
Q 2725 3281 2906 2969 
L 2906 3500 
L 3481 3500 
L 3481 -1331 
L 2906 -1331 
L 2906 525 
z
" id="DejaVuSans-71" transform="scale(0.015625)"/>
       <path d="M 2059 -325 
Q 1816 -950 1584 -1140 
Q 1353 -1331 966 -1331 
L 506 -1331 
L 506 -850 
L 844 -850 
Q 1081 -850 1212 -737 
Q 1344 -625 1503 -206 
L 1606 56 
L 191 3500 
L 800 3500 
L 1894 763 
L 2988 3500 
L 3597 3500 
L 2059 -325 
z
" id="DejaVuSans-79" transform="scale(0.015625)"/>
      </defs>
      <use xlink:href="#DejaVuSans-46"/>
      <use x="50.269531" xlink:href="#DejaVuSans-72"/>
      <use x="89.132812" xlink:href="#DejaVuSans-65"/>
      <use x="150.65625" xlink:href="#DejaVuSans-71"/>
      <use x="214.132812" xlink:href="#DejaVuSans-75"/>
      <use x="277.511719" xlink:href="#DejaVuSans-65"/>
      <use x="339.035156" xlink:href="#DejaVuSans-6e"/>
      <use x="402.414062" xlink:href="#DejaVuSans-63"/>
      <use x="457.394531" xlink:href="#DejaVuSans-79"/>
     </g>
    </g>
   </g>
   <g id="patch_103">
    <path d="M 63.916685 293.272 
L 63.916685 10.8 
" style="fill:none;stroke:#000000;stroke-linecap:square;stroke-linejoin:miter;stroke-width:0.8;"/>
   </g>
   <g id="patch_104">
    <path d="M 448.86937 293.272 
L 448.86937 10.8 
" style="fill:none;stroke:#000000;stroke-linecap:square;stroke-linejoin:miter;stroke-width:0.8;"/>
   </g>
   <g id="patch_105">
    <path d="M 63.916685 293.272 
L 448.86937 293.272 
" style="fill:none;stroke:#000000;stroke-linecap:square;stroke-linejoin:miter;stroke-width:0.8;"/>
   </g>
   <g id="patch_106">
    <path d="M 63.916685 10.8 
L 448.86937 10.8 
" style="fill:none;stroke:#000000;stroke-linecap:square;stroke-linejoin:miter;stroke-width:0.8;"/>
   </g>
  </g>
 </g>
 <defs>
  <clipPath id="p37d1dc1427">
   <rect height="282.472" width="384.952686" x="63.916685" y="10.8"/>
  </clipPath>
 </defs>
</svg>
