<?xml version="1.0" encoding="utf-8" standalone="no"?>
<!DOCTYPE svg PUBLIC "-//W3C//DTD SVG 1.1//EN"
  "http://www.w3.org/Graphics/SVG/1.1/DTD/svg11.dtd">
<!-- Created with matplotlib (https://matplotlib.org/) -->
<svg height="345.6pt" version="1.1" viewBox="0 0 460.8 345.6" width="460.8pt" xmlns="http://www.w3.org/2000/svg" xmlns:xlink="http://www.w3.org/1999/xlink">
 <metadata>
  <rdf:RDF xmlns:cc="http://creativecommons.org/ns#" xmlns:dc="http://purl.org/dc/elements/1.1/" xmlns:rdf="http://www.w3.org/1999/02/22-rdf-syntax-ns#">
   <cc:Work>
    <dc:type rdf:resource="http://purl.org/dc/dcmitype/StillImage"/>
    <dc:date>2021-05-03T12:17:39.291715</dc:date>
    <dc:format>image/svg+xml</dc:format>
    <dc:creator>
     <cc:Agent>
      <dc:title>Matplotlib v3.3.2, https://matplotlib.org/</dc:title>
     </cc:Agent>
    </dc:creator>
   </cc:Work>
  </rdf:RDF>
 </metadata>
 <defs>
  <style type="text/css">*{stroke-linecap:butt;stroke-linejoin:round;}</style>
 </defs>
 <g id="figure_1">
  <g id="patch_1">
   <path d="M 0 345.6 
L 460.8 345.6 
L 460.8 0 
L 0 0 
z
" style="fill:#ffffff;"/>
  </g>
  <g id="axes_1">
   <g id="patch_2">
    <path d="M 63.929209 131.056 
L 450 131.056 
L 450 10.8 
L 63.929209 10.8 
z
" style="fill:#ffffff;"/>
   </g>
   <g id="patch_3">
    <path clip-path="url(#p56875514b9)" d="M 81.477881 131.056 
L 93.176996 131.056 
L 93.176996 28.175409 
L 81.477881 28.175409 
z
" style="fill:#1f77b4;"/>
   </g>
   <g id="patch_4">
    <path clip-path="url(#p56875514b9)" d="M 93.176996 131.056 
L 104.876111 131.056 
L 104.876111 65.106903 
L 93.176996 65.106903 
z
" style="fill:#1f77b4;"/>
   </g>
   <g id="patch_5">
    <path clip-path="url(#p56875514b9)" d="M 104.876111 131.056 
L 116.575226 131.056 
L 116.575226 71.701813 
L 104.876111 71.701813 
z
" style="fill:#1f77b4;"/>
   </g>
   <g id="patch_6">
    <path clip-path="url(#p56875514b9)" d="M 116.575226 131.056 
L 128.274341 131.056 
L 128.274341 76.977741 
L 116.575226 76.977741 
z
" style="fill:#1f77b4;"/>
   </g>
   <g id="patch_7">
    <path clip-path="url(#p56875514b9)" d="M 128.274341 131.056 
L 139.973456 131.056 
L 139.973456 95.443488 
L 128.274341 95.443488 
z
" style="fill:#1f77b4;"/>
   </g>
   <g id="patch_8">
    <path clip-path="url(#p56875514b9)" d="M 139.973456 131.056 
L 151.672571 131.056 
L 151.672571 92.805524 
L 139.973456 92.805524 
z
" style="fill:#1f77b4;"/>
   </g>
   <g id="patch_9">
    <path clip-path="url(#p56875514b9)" d="M 151.672571 131.056 
L 163.371686 131.056 
L 163.371686 96.76247 
L 151.672571 96.76247 
z
" style="fill:#1f77b4;"/>
   </g>
   <g id="patch_10">
    <path clip-path="url(#p56875514b9)" d="M 163.371686 131.056 
L 175.0708 131.056 
L 175.0708 94.124506 
L 163.371686 94.124506 
z
" style="fill:#1f77b4;"/>
   </g>
   <g id="patch_11">
    <path clip-path="url(#p56875514b9)" d="M 175.0708 131.056 
L 186.769915 131.056 
L 186.769915 96.76247 
L 175.0708 96.76247 
z
" style="fill:#1f77b4;"/>
   </g>
   <g id="patch_12">
    <path clip-path="url(#p56875514b9)" d="M 186.769915 131.056 
L 198.46903 131.056 
L 198.46903 98.081452 
L 186.769915 98.081452 
z
" style="fill:#1f77b4;"/>
   </g>
   <g id="patch_13">
    <path clip-path="url(#p56875514b9)" d="M 198.46903 131.056 
L 210.168145 131.056 
L 210.168145 105.995343 
L 198.46903 105.995343 
z
" style="fill:#1f77b4;"/>
   </g>
   <g id="patch_14">
    <path clip-path="url(#p56875514b9)" d="M 210.168145 131.056 
L 221.86726 131.056 
L 221.86726 104.676361 
L 210.168145 104.676361 
z
" style="fill:#1f77b4;"/>
   </g>
   <g id="patch_15">
    <path clip-path="url(#p56875514b9)" d="M 221.86726 131.056 
L 233.566375 131.056 
L 233.566375 104.676361 
L 221.86726 104.676361 
z
" style="fill:#1f77b4;"/>
   </g>
   <g id="patch_16">
    <path clip-path="url(#p56875514b9)" d="M 233.566375 131.056 
L 245.26549 131.056 
L 245.26549 107.314325 
L 233.566375 107.314325 
z
" style="fill:#1f77b4;"/>
   </g>
   <g id="patch_17">
    <path clip-path="url(#p56875514b9)" d="M 245.26549 131.056 
L 256.964605 131.056 
L 256.964605 99.400434 
L 245.26549 99.400434 
z
" style="fill:#1f77b4;"/>
   </g>
   <g id="patch_18">
    <path clip-path="url(#p56875514b9)" d="M 256.964605 131.056 
L 268.663719 131.056 
L 268.663719 109.952289 
L 256.964605 109.952289 
z
" style="fill:#1f77b4;"/>
   </g>
   <g id="patch_19">
    <path clip-path="url(#p56875514b9)" d="M 268.663719 131.056 
L 280.362834 131.056 
L 280.362834 109.952289 
L 268.663719 109.952289 
z
" style="fill:#1f77b4;"/>
   </g>
   <g id="patch_20">
    <path clip-path="url(#p56875514b9)" d="M 280.362834 131.056 
L 292.061949 131.056 
L 292.061949 108.633307 
L 280.362834 108.633307 
z
" style="fill:#1f77b4;"/>
   </g>
   <g id="patch_21">
    <path clip-path="url(#p56875514b9)" d="M 292.061949 131.056 
L 303.761064 131.056 
L 303.761064 102.038397 
L 292.061949 102.038397 
z
" style="fill:#1f77b4;"/>
   </g>
   <g id="patch_22">
    <path clip-path="url(#p56875514b9)" d="M 303.761064 131.056 
L 315.460179 131.056 
L 315.460179 107.314325 
L 303.761064 107.314325 
z
" style="fill:#1f77b4;"/>
   </g>
   <g id="patch_23">
    <path clip-path="url(#p56875514b9)" d="M 315.460179 131.056 
L 327.159294 131.056 
L 327.159294 107.314325 
L 315.460179 107.314325 
z
" style="fill:#1f77b4;"/>
   </g>
   <g id="patch_24">
    <path clip-path="url(#p56875514b9)" d="M 327.159294 131.056 
L 338.858409 131.056 
L 338.858409 108.633307 
L 327.159294 108.633307 
z
" style="fill:#1f77b4;"/>
   </g>
   <g id="patch_25">
    <path clip-path="url(#p56875514b9)" d="M 338.858409 131.056 
L 350.557524 131.056 
L 350.557524 113.909235 
L 338.858409 113.909235 
z
" style="fill:#1f77b4;"/>
   </g>
   <g id="patch_26">
    <path clip-path="url(#p56875514b9)" d="M 350.557524 131.056 
L 362.256638 131.056 
L 362.256638 111.271271 
L 350.557524 111.271271 
z
" style="fill:#1f77b4;"/>
   </g>
   <g id="patch_27">
    <path clip-path="url(#p56875514b9)" d="M 362.256638 131.056 
L 373.955753 131.056 
L 373.955753 112.590253 
L 362.256638 112.590253 
z
" style="fill:#1f77b4;"/>
   </g>
   <g id="patch_28">
    <path clip-path="url(#p56875514b9)" d="M 373.955753 131.056 
L 385.654868 131.056 
L 385.654868 104.676361 
L 373.955753 104.676361 
z
" style="fill:#1f77b4;"/>
   </g>
   <g id="patch_29">
    <path clip-path="url(#p56875514b9)" d="M 385.654868 131.056 
L 397.353983 131.056 
L 397.353983 107.314325 
L 385.654868 107.314325 
z
" style="fill:#1f77b4;"/>
   </g>
   <g id="patch_30">
    <path clip-path="url(#p56875514b9)" d="M 397.353983 131.056 
L 409.053098 131.056 
L 409.053098 108.633307 
L 397.353983 108.633307 
z
" style="fill:#1f77b4;"/>
   </g>
   <g id="patch_31">
    <path clip-path="url(#p56875514b9)" d="M 409.053098 131.056 
L 420.752213 131.056 
L 420.752213 109.952289 
L 409.053098 109.952289 
z
" style="fill:#1f77b4;"/>
   </g>
   <g id="patch_32">
    <path clip-path="url(#p56875514b9)" d="M 420.752213 131.056 
L 432.451328 131.056 
L 432.451328 121.823126 
L 420.752213 121.823126 
z
" style="fill:#1f77b4;"/>
   </g>
   <g id="matplotlib.axis_1">
    <g id="xtick_1">
     <g id="line2d_1">
      <defs>
       <path d="M 0 0 
L 0 3.5 
" id="m2912a2ed51" style="stroke:#000000;stroke-width:0.8;"/>
      </defs>
      <g>
       <use style="stroke:#000000;stroke-width:0.8;" x="127.257027" xlink:href="#m2912a2ed51" y="131.056"/>
      </g>
     </g>
     <g id="text_1">
      <!-- 20 -->
      <g transform="translate(120.894527 145.654437)scale(0.1 -0.1)">
       <defs>
        <path d="M 19.1875 8.296875 
L 53.609375 8.296875 
L 53.609375 0 
L 7.328125 0 
L 7.328125 8.296875 
Q 12.9375 14.109375 22.625 23.890625 
Q 32.328125 33.6875 34.8125 36.53125 
Q 39.546875 41.84375 41.421875 45.53125 
Q 43.3125 49.21875 43.3125 52.78125 
Q 43.3125 58.59375 39.234375 62.25 
Q 35.15625 65.921875 28.609375 65.921875 
Q 23.96875 65.921875 18.8125 64.3125 
Q 13.671875 62.703125 7.8125 59.421875 
L 7.8125 69.390625 
Q 13.765625 71.78125 18.9375 73 
Q 24.125 74.21875 28.421875 74.21875 
Q 39.75 74.21875 46.484375 68.546875 
Q 53.21875 62.890625 53.21875 53.421875 
Q 53.21875 48.921875 51.53125 44.890625 
Q 49.859375 40.875 45.40625 35.40625 
Q 44.1875 33.984375 37.640625 27.21875 
Q 31.109375 20.453125 19.1875 8.296875 
z
" id="DejaVuSans-50"/>
        <path d="M 31.78125 66.40625 
Q 24.171875 66.40625 20.328125 58.90625 
Q 16.5 51.421875 16.5 36.375 
Q 16.5 21.390625 20.328125 13.890625 
Q 24.171875 6.390625 31.78125 6.390625 
Q 39.453125 6.390625 43.28125 13.890625 
Q 47.125 21.390625 47.125 36.375 
Q 47.125 51.421875 43.28125 58.90625 
Q 39.453125 66.40625 31.78125 66.40625 
z
M 31.78125 74.21875 
Q 44.046875 74.21875 50.515625 64.515625 
Q 56.984375 54.828125 56.984375 36.375 
Q 56.984375 17.96875 50.515625 8.265625 
Q 44.046875 -1.421875 31.78125 -1.421875 
Q 19.53125 -1.421875 13.0625 8.265625 
Q 6.59375 17.96875 6.59375 36.375 
Q 6.59375 54.828125 13.0625 64.515625 
Q 19.53125 74.21875 31.78125 74.21875 
z
" id="DejaVuSans-48"/>
       </defs>
       <use xlink:href="#DejaVuSans-50"/>
       <use x="63.623047" xlink:href="#DejaVuSans-48"/>
      </g>
     </g>
    </g>
    <g id="xtick_2">
     <g id="line2d_2">
      <g>
       <use style="stroke:#000000;stroke-width:0.8;" x="203.555602" xlink:href="#m2912a2ed51" y="131.056"/>
      </g>
     </g>
     <g id="text_2">
      <!-- 40 -->
      <g transform="translate(197.193102 145.654437)scale(0.1 -0.1)">
       <defs>
        <path d="M 37.796875 64.3125 
L 12.890625 25.390625 
L 37.796875 25.390625 
z
M 35.203125 72.90625 
L 47.609375 72.90625 
L 47.609375 25.390625 
L 58.015625 25.390625 
L 58.015625 17.1875 
L 47.609375 17.1875 
L 47.609375 0 
L 37.796875 0 
L 37.796875 17.1875 
L 4.890625 17.1875 
L 4.890625 26.703125 
z
" id="DejaVuSans-52"/>
       </defs>
       <use xlink:href="#DejaVuSans-52"/>
       <use x="63.623047" xlink:href="#DejaVuSans-48"/>
      </g>
     </g>
    </g>
    <g id="xtick_3">
     <g id="line2d_3">
      <g>
       <use style="stroke:#000000;stroke-width:0.8;" x="279.854177" xlink:href="#m2912a2ed51" y="131.056"/>
      </g>
     </g>
     <g id="text_3">
      <!-- 60 -->
      <g transform="translate(273.491677 145.654437)scale(0.1 -0.1)">
       <defs>
        <path d="M 33.015625 40.375 
Q 26.375 40.375 22.484375 35.828125 
Q 18.609375 31.296875 18.609375 23.390625 
Q 18.609375 15.53125 22.484375 10.953125 
Q 26.375 6.390625 33.015625 6.390625 
Q 39.65625 6.390625 43.53125 10.953125 
Q 47.40625 15.53125 47.40625 23.390625 
Q 47.40625 31.296875 43.53125 35.828125 
Q 39.65625 40.375 33.015625 40.375 
z
M 52.59375 71.296875 
L 52.59375 62.3125 
Q 48.875 64.0625 45.09375 64.984375 
Q 41.3125 65.921875 37.59375 65.921875 
Q 27.828125 65.921875 22.671875 59.328125 
Q 17.53125 52.734375 16.796875 39.40625 
Q 19.671875 43.65625 24.015625 45.921875 
Q 28.375 48.1875 33.59375 48.1875 
Q 44.578125 48.1875 50.953125 41.515625 
Q 57.328125 34.859375 57.328125 23.390625 
Q 57.328125 12.15625 50.6875 5.359375 
Q 44.046875 -1.421875 33.015625 -1.421875 
Q 20.359375 -1.421875 13.671875 8.265625 
Q 6.984375 17.96875 6.984375 36.375 
Q 6.984375 53.65625 15.1875 63.9375 
Q 23.390625 74.21875 37.203125 74.21875 
Q 40.921875 74.21875 44.703125 73.484375 
Q 48.484375 72.75 52.59375 71.296875 
z
" id="DejaVuSans-54"/>
       </defs>
       <use xlink:href="#DejaVuSans-54"/>
       <use x="63.623047" xlink:href="#DejaVuSans-48"/>
      </g>
     </g>
    </g>
    <g id="xtick_4">
     <g id="line2d_4">
      <g>
       <use style="stroke:#000000;stroke-width:0.8;" x="356.152752" xlink:href="#m2912a2ed51" y="131.056"/>
      </g>
     </g>
     <g id="text_4">
      <!-- 80 -->
      <g transform="translate(349.790252 145.654437)scale(0.1 -0.1)">
       <defs>
        <path d="M 31.78125 34.625 
Q 24.75 34.625 20.71875 30.859375 
Q 16.703125 27.09375 16.703125 20.515625 
Q 16.703125 13.921875 20.71875 10.15625 
Q 24.75 6.390625 31.78125 6.390625 
Q 38.8125 6.390625 42.859375 10.171875 
Q 46.921875 13.96875 46.921875 20.515625 
Q 46.921875 27.09375 42.890625 30.859375 
Q 38.875 34.625 31.78125 34.625 
z
M 21.921875 38.8125 
Q 15.578125 40.375 12.03125 44.71875 
Q 8.5 49.078125 8.5 55.328125 
Q 8.5 64.0625 14.71875 69.140625 
Q 20.953125 74.21875 31.78125 74.21875 
Q 42.671875 74.21875 48.875 69.140625 
Q 55.078125 64.0625 55.078125 55.328125 
Q 55.078125 49.078125 51.53125 44.71875 
Q 48 40.375 41.703125 38.8125 
Q 48.828125 37.15625 52.796875 32.3125 
Q 56.78125 27.484375 56.78125 20.515625 
Q 56.78125 9.90625 50.3125 4.234375 
Q 43.84375 -1.421875 31.78125 -1.421875 
Q 19.734375 -1.421875 13.25 4.234375 
Q 6.78125 9.90625 6.78125 20.515625 
Q 6.78125 27.484375 10.78125 32.3125 
Q 14.796875 37.15625 21.921875 38.8125 
z
M 18.3125 54.390625 
Q 18.3125 48.734375 21.84375 45.5625 
Q 25.390625 42.390625 31.78125 42.390625 
Q 38.140625 42.390625 41.71875 45.5625 
Q 45.3125 48.734375 45.3125 54.390625 
Q 45.3125 60.0625 41.71875 63.234375 
Q 38.140625 66.40625 31.78125 66.40625 
Q 25.390625 66.40625 21.84375 63.234375 
Q 18.3125 60.0625 18.3125 54.390625 
z
" id="DejaVuSans-56"/>
       </defs>
       <use xlink:href="#DejaVuSans-56"/>
       <use x="63.623047" xlink:href="#DejaVuSans-48"/>
      </g>
     </g>
    </g>
    <g id="xtick_5">
     <g id="line2d_5">
      <g>
       <use style="stroke:#000000;stroke-width:0.8;" x="432.451328" xlink:href="#m2912a2ed51" y="131.056"/>
      </g>
     </g>
     <g id="text_5">
      <!-- 100 -->
      <g transform="translate(422.907578 145.654437)scale(0.1 -0.1)">
       <defs>
        <path d="M 12.40625 8.296875 
L 28.515625 8.296875 
L 28.515625 63.921875 
L 10.984375 60.40625 
L 10.984375 69.390625 
L 28.421875 72.90625 
L 38.28125 72.90625 
L 38.28125 8.296875 
L 54.390625 8.296875 
L 54.390625 0 
L 12.40625 0 
z
" id="DejaVuSans-49"/>
       </defs>
       <use xlink:href="#DejaVuSans-49"/>
       <use x="63.623047" xlink:href="#DejaVuSans-48"/>
       <use x="127.246094" xlink:href="#DejaVuSans-48"/>
      </g>
     </g>
    </g>
    <g id="text_6">
     <!-- Mean lifetime (us) -->
     <g transform="translate(211.577105 159.332562)scale(0.1 -0.1)">
      <defs>
       <path d="M 9.8125 72.90625 
L 24.515625 72.90625 
L 43.109375 23.296875 
L 61.8125 72.90625 
L 76.515625 72.90625 
L 76.515625 0 
L 66.890625 0 
L 66.890625 64.015625 
L 48.09375 14.015625 
L 38.1875 14.015625 
L 19.390625 64.015625 
L 19.390625 0 
L 9.8125 0 
z
" id="DejaVuSans-77"/>
       <path d="M 56.203125 29.59375 
L 56.203125 25.203125 
L 14.890625 25.203125 
Q 15.484375 15.921875 20.484375 11.0625 
Q 25.484375 6.203125 34.421875 6.203125 
Q 39.59375 6.203125 44.453125 7.46875 
Q 49.3125 8.734375 54.109375 11.28125 
L 54.109375 2.78125 
Q 49.265625 0.734375 44.1875 -0.34375 
Q 39.109375 -1.421875 33.890625 -1.421875 
Q 20.796875 -1.421875 13.15625 6.1875 
Q 5.515625 13.8125 5.515625 26.8125 
Q 5.515625 40.234375 12.765625 48.109375 
Q 20.015625 56 32.328125 56 
Q 43.359375 56 49.78125 48.890625 
Q 56.203125 41.796875 56.203125 29.59375 
z
M 47.21875 32.234375 
Q 47.125 39.59375 43.09375 43.984375 
Q 39.0625 48.390625 32.421875 48.390625 
Q 24.90625 48.390625 20.390625 44.140625 
Q 15.875 39.890625 15.1875 32.171875 
z
" id="DejaVuSans-101"/>
       <path d="M 34.28125 27.484375 
Q 23.390625 27.484375 19.1875 25 
Q 14.984375 22.515625 14.984375 16.5 
Q 14.984375 11.71875 18.140625 8.90625 
Q 21.296875 6.109375 26.703125 6.109375 
Q 34.1875 6.109375 38.703125 11.40625 
Q 43.21875 16.703125 43.21875 25.484375 
L 43.21875 27.484375 
z
M 52.203125 31.203125 
L 52.203125 0 
L 43.21875 0 
L 43.21875 8.296875 
Q 40.140625 3.328125 35.546875 0.953125 
Q 30.953125 -1.421875 24.3125 -1.421875 
Q 15.921875 -1.421875 10.953125 3.296875 
Q 6 8.015625 6 15.921875 
Q 6 25.140625 12.171875 29.828125 
Q 18.359375 34.515625 30.609375 34.515625 
L 43.21875 34.515625 
L 43.21875 35.40625 
Q 43.21875 41.609375 39.140625 45 
Q 35.0625 48.390625 27.6875 48.390625 
Q 23 48.390625 18.546875 47.265625 
Q 14.109375 46.140625 10.015625 43.890625 
L 10.015625 52.203125 
Q 14.9375 54.109375 19.578125 55.046875 
Q 24.21875 56 28.609375 56 
Q 40.484375 56 46.34375 49.84375 
Q 52.203125 43.703125 52.203125 31.203125 
z
" id="DejaVuSans-97"/>
       <path d="M 54.890625 33.015625 
L 54.890625 0 
L 45.90625 0 
L 45.90625 32.71875 
Q 45.90625 40.484375 42.875 44.328125 
Q 39.84375 48.1875 33.796875 48.1875 
Q 26.515625 48.1875 22.3125 43.546875 
Q 18.109375 38.921875 18.109375 30.90625 
L 18.109375 0 
L 9.078125 0 
L 9.078125 54.6875 
L 18.109375 54.6875 
L 18.109375 46.1875 
Q 21.34375 51.125 25.703125 53.5625 
Q 30.078125 56 35.796875 56 
Q 45.21875 56 50.046875 50.171875 
Q 54.890625 44.34375 54.890625 33.015625 
z
" id="DejaVuSans-110"/>
       <path id="DejaVuSans-32"/>
       <path d="M 9.421875 75.984375 
L 18.40625 75.984375 
L 18.40625 0 
L 9.421875 0 
z
" id="DejaVuSans-108"/>
       <path d="M 9.421875 54.6875 
L 18.40625 54.6875 
L 18.40625 0 
L 9.421875 0 
z
M 9.421875 75.984375 
L 18.40625 75.984375 
L 18.40625 64.59375 
L 9.421875 64.59375 
z
" id="DejaVuSans-105"/>
       <path d="M 37.109375 75.984375 
L 37.109375 68.5 
L 28.515625 68.5 
Q 23.6875 68.5 21.796875 66.546875 
Q 19.921875 64.59375 19.921875 59.515625 
L 19.921875 54.6875 
L 34.71875 54.6875 
L 34.71875 47.703125 
L 19.921875 47.703125 
L 19.921875 0 
L 10.890625 0 
L 10.890625 47.703125 
L 2.296875 47.703125 
L 2.296875 54.6875 
L 10.890625 54.6875 
L 10.890625 58.5 
Q 10.890625 67.625 15.140625 71.796875 
Q 19.390625 75.984375 28.609375 75.984375 
z
" id="DejaVuSans-102"/>
       <path d="M 18.3125 70.21875 
L 18.3125 54.6875 
L 36.8125 54.6875 
L 36.8125 47.703125 
L 18.3125 47.703125 
L 18.3125 18.015625 
Q 18.3125 11.328125 20.140625 9.421875 
Q 21.96875 7.515625 27.59375 7.515625 
L 36.8125 7.515625 
L 36.8125 0 
L 27.59375 0 
Q 17.1875 0 13.234375 3.875 
Q 9.28125 7.765625 9.28125 18.015625 
L 9.28125 47.703125 
L 2.6875 47.703125 
L 2.6875 54.6875 
L 9.28125 54.6875 
L 9.28125 70.21875 
z
" id="DejaVuSans-116"/>
       <path d="M 52 44.1875 
Q 55.375 50.25 60.0625 53.125 
Q 64.75 56 71.09375 56 
Q 79.640625 56 84.28125 50.015625 
Q 88.921875 44.046875 88.921875 33.015625 
L 88.921875 0 
L 79.890625 0 
L 79.890625 32.71875 
Q 79.890625 40.578125 77.09375 44.375 
Q 74.3125 48.1875 68.609375 48.1875 
Q 61.625 48.1875 57.5625 43.546875 
Q 53.515625 38.921875 53.515625 30.90625 
L 53.515625 0 
L 44.484375 0 
L 44.484375 32.71875 
Q 44.484375 40.625 41.703125 44.40625 
Q 38.921875 48.1875 33.109375 48.1875 
Q 26.21875 48.1875 22.15625 43.53125 
Q 18.109375 38.875 18.109375 30.90625 
L 18.109375 0 
L 9.078125 0 
L 9.078125 54.6875 
L 18.109375 54.6875 
L 18.109375 46.1875 
Q 21.1875 51.21875 25.484375 53.609375 
Q 29.78125 56 35.6875 56 
Q 41.65625 56 45.828125 52.96875 
Q 50 49.953125 52 44.1875 
z
" id="DejaVuSans-109"/>
       <path d="M 31 75.875 
Q 24.46875 64.65625 21.28125 53.65625 
Q 18.109375 42.671875 18.109375 31.390625 
Q 18.109375 20.125 21.3125 9.0625 
Q 24.515625 -2 31 -13.1875 
L 23.1875 -13.1875 
Q 15.875 -1.703125 12.234375 9.375 
Q 8.59375 20.453125 8.59375 31.390625 
Q 8.59375 42.28125 12.203125 53.3125 
Q 15.828125 64.359375 23.1875 75.875 
z
" id="DejaVuSans-40"/>
       <path d="M 8.5 21.578125 
L 8.5 54.6875 
L 17.484375 54.6875 
L 17.484375 21.921875 
Q 17.484375 14.15625 20.5 10.265625 
Q 23.53125 6.390625 29.59375 6.390625 
Q 36.859375 6.390625 41.078125 11.03125 
Q 45.3125 15.671875 45.3125 23.6875 
L 45.3125 54.6875 
L 54.296875 54.6875 
L 54.296875 0 
L 45.3125 0 
L 45.3125 8.40625 
Q 42.046875 3.421875 37.71875 1 
Q 33.40625 -1.421875 27.6875 -1.421875 
Q 18.265625 -1.421875 13.375 4.4375 
Q 8.5 10.296875 8.5 21.578125 
z
M 31.109375 56 
z
" id="DejaVuSans-117"/>
       <path d="M 44.28125 53.078125 
L 44.28125 44.578125 
Q 40.484375 46.53125 36.375 47.5 
Q 32.28125 48.484375 27.875 48.484375 
Q 21.1875 48.484375 17.84375 46.4375 
Q 14.5 44.390625 14.5 40.28125 
Q 14.5 37.15625 16.890625 35.375 
Q 19.28125 33.59375 26.515625 31.984375 
L 29.59375 31.296875 
Q 39.15625 29.25 43.1875 25.515625 
Q 47.21875 21.78125 47.21875 15.09375 
Q 47.21875 7.46875 41.1875 3.015625 
Q 35.15625 -1.421875 24.609375 -1.421875 
Q 20.21875 -1.421875 15.453125 -0.5625 
Q 10.6875 0.296875 5.421875 2 
L 5.421875 11.28125 
Q 10.40625 8.6875 15.234375 7.390625 
Q 20.0625 6.109375 24.8125 6.109375 
Q 31.15625 6.109375 34.5625 8.28125 
Q 37.984375 10.453125 37.984375 14.40625 
Q 37.984375 18.0625 35.515625 20.015625 
Q 33.0625 21.96875 24.703125 23.78125 
L 21.578125 24.515625 
Q 13.234375 26.265625 9.515625 29.90625 
Q 5.8125 33.546875 5.8125 39.890625 
Q 5.8125 47.609375 11.28125 51.796875 
Q 16.75 56 26.8125 56 
Q 31.78125 56 36.171875 55.265625 
Q 40.578125 54.546875 44.28125 53.078125 
z
" id="DejaVuSans-115"/>
       <path d="M 8.015625 75.875 
L 15.828125 75.875 
Q 23.140625 64.359375 26.78125 53.3125 
Q 30.421875 42.28125 30.421875 31.390625 
Q 30.421875 20.453125 26.78125 9.375 
Q 23.140625 -1.703125 15.828125 -13.1875 
L 8.015625 -13.1875 
Q 14.5 -2 17.703125 9.0625 
Q 20.90625 20.125 20.90625 31.390625 
Q 20.90625 42.671875 17.703125 53.65625 
Q 14.5 64.65625 8.015625 75.875 
z
" id="DejaVuSans-41"/>
      </defs>
      <use xlink:href="#DejaVuSans-77"/>
      <use x="86.279297" xlink:href="#DejaVuSans-101"/>
      <use x="147.802734" xlink:href="#DejaVuSans-97"/>
      <use x="209.082031" xlink:href="#DejaVuSans-110"/>
      <use x="272.460938" xlink:href="#DejaVuSans-32"/>
      <use x="304.248047" xlink:href="#DejaVuSans-108"/>
      <use x="332.03125" xlink:href="#DejaVuSans-105"/>
      <use x="359.814453" xlink:href="#DejaVuSans-102"/>
      <use x="395.019531" xlink:href="#DejaVuSans-101"/>
      <use x="456.542969" xlink:href="#DejaVuSans-116"/>
      <use x="495.751953" xlink:href="#DejaVuSans-105"/>
      <use x="523.535156" xlink:href="#DejaVuSans-109"/>
      <use x="620.947266" xlink:href="#DejaVuSans-101"/>
      <use x="682.470703" xlink:href="#DejaVuSans-32"/>
      <use x="714.257812" xlink:href="#DejaVuSans-40"/>
      <use x="753.271484" xlink:href="#DejaVuSans-117"/>
      <use x="816.650391" xlink:href="#DejaVuSans-115"/>
      <use x="868.75" xlink:href="#DejaVuSans-41"/>
     </g>
    </g>
   </g>
   <g id="matplotlib.axis_2">
    <g id="ytick_1">
     <g id="line2d_6">
      <defs>
       <path d="M 0 0 
L -3.5 0 
" id="m2a0f9fc571" style="stroke:#000000;stroke-width:0.8;"/>
      </defs>
      <g>
       <use style="stroke:#000000;stroke-width:0.8;" x="63.929209" xlink:href="#m2a0f9fc571" y="131.056"/>
      </g>
     </g>
     <g id="text_7">
      <!-- 0 -->
      <g transform="translate(50.566709 134.855219)scale(0.1 -0.1)">
       <use xlink:href="#DejaVuSans-48"/>
      </g>
     </g>
    </g>
    <g id="ytick_2">
     <g id="line2d_7">
      <g>
       <use style="stroke:#000000;stroke-width:0.8;" x="63.929209" xlink:href="#m2a0f9fc571" y="104.676361"/>
      </g>
     </g>
     <g id="text_8">
      <!-- 20 -->
      <g transform="translate(44.204209 108.47558)scale(0.1 -0.1)">
       <use xlink:href="#DejaVuSans-50"/>
       <use x="63.623047" xlink:href="#DejaVuSans-48"/>
      </g>
     </g>
    </g>
    <g id="ytick_3">
     <g id="line2d_8">
      <g>
       <use style="stroke:#000000;stroke-width:0.8;" x="63.929209" xlink:href="#m2a0f9fc571" y="78.296723"/>
      </g>
     </g>
     <g id="text_9">
      <!-- 40 -->
      <g transform="translate(44.204209 82.095941)scale(0.1 -0.1)">
       <use xlink:href="#DejaVuSans-52"/>
       <use x="63.623047" xlink:href="#DejaVuSans-48"/>
      </g>
     </g>
    </g>
    <g id="ytick_4">
     <g id="line2d_9">
      <g>
       <use style="stroke:#000000;stroke-width:0.8;" x="63.929209" xlink:href="#m2a0f9fc571" y="51.917084"/>
      </g>
     </g>
     <g id="text_10">
      <!-- 60 -->
      <g transform="translate(44.204209 55.716303)scale(0.1 -0.1)">
       <use xlink:href="#DejaVuSans-54"/>
       <use x="63.623047" xlink:href="#DejaVuSans-48"/>
      </g>
     </g>
    </g>
    <g id="ytick_5">
     <g id="line2d_10">
      <g>
       <use style="stroke:#000000;stroke-width:0.8;" x="63.929209" xlink:href="#m2a0f9fc571" y="25.537445"/>
      </g>
     </g>
     <g id="text_11">
      <!-- 80 -->
      <g transform="translate(44.204209 29.336664)scale(0.1 -0.1)">
       <use xlink:href="#DejaVuSans-56"/>
       <use x="63.623047" xlink:href="#DejaVuSans-48"/>
      </g>
     </g>
    </g>
    <g id="text_12">
     <!-- Number of decays -->
     <g transform="translate(38.124522 116.639719)rotate(-90)scale(0.1 -0.1)">
      <defs>
       <path d="M 9.8125 72.90625 
L 23.09375 72.90625 
L 55.421875 11.921875 
L 55.421875 72.90625 
L 64.984375 72.90625 
L 64.984375 0 
L 51.703125 0 
L 19.390625 60.984375 
L 19.390625 0 
L 9.8125 0 
z
" id="DejaVuSans-78"/>
       <path d="M 48.6875 27.296875 
Q 48.6875 37.203125 44.609375 42.84375 
Q 40.53125 48.484375 33.40625 48.484375 
Q 26.265625 48.484375 22.1875 42.84375 
Q 18.109375 37.203125 18.109375 27.296875 
Q 18.109375 17.390625 22.1875 11.75 
Q 26.265625 6.109375 33.40625 6.109375 
Q 40.53125 6.109375 44.609375 11.75 
Q 48.6875 17.390625 48.6875 27.296875 
z
M 18.109375 46.390625 
Q 20.953125 51.265625 25.265625 53.625 
Q 29.59375 56 35.59375 56 
Q 45.5625 56 51.78125 48.09375 
Q 58.015625 40.1875 58.015625 27.296875 
Q 58.015625 14.40625 51.78125 6.484375 
Q 45.5625 -1.421875 35.59375 -1.421875 
Q 29.59375 -1.421875 25.265625 0.953125 
Q 20.953125 3.328125 18.109375 8.203125 
L 18.109375 0 
L 9.078125 0 
L 9.078125 75.984375 
L 18.109375 75.984375 
z
" id="DejaVuSans-98"/>
       <path d="M 41.109375 46.296875 
Q 39.59375 47.171875 37.8125 47.578125 
Q 36.03125 48 33.890625 48 
Q 26.265625 48 22.1875 43.046875 
Q 18.109375 38.09375 18.109375 28.8125 
L 18.109375 0 
L 9.078125 0 
L 9.078125 54.6875 
L 18.109375 54.6875 
L 18.109375 46.1875 
Q 20.953125 51.171875 25.484375 53.578125 
Q 30.03125 56 36.53125 56 
Q 37.453125 56 38.578125 55.875 
Q 39.703125 55.765625 41.0625 55.515625 
z
" id="DejaVuSans-114"/>
       <path d="M 30.609375 48.390625 
Q 23.390625 48.390625 19.1875 42.75 
Q 14.984375 37.109375 14.984375 27.296875 
Q 14.984375 17.484375 19.15625 11.84375 
Q 23.34375 6.203125 30.609375 6.203125 
Q 37.796875 6.203125 41.984375 11.859375 
Q 46.1875 17.53125 46.1875 27.296875 
Q 46.1875 37.015625 41.984375 42.703125 
Q 37.796875 48.390625 30.609375 48.390625 
z
M 30.609375 56 
Q 42.328125 56 49.015625 48.375 
Q 55.71875 40.765625 55.71875 27.296875 
Q 55.71875 13.875 49.015625 6.21875 
Q 42.328125 -1.421875 30.609375 -1.421875 
Q 18.84375 -1.421875 12.171875 6.21875 
Q 5.515625 13.875 5.515625 27.296875 
Q 5.515625 40.765625 12.171875 48.375 
Q 18.84375 56 30.609375 56 
z
" id="DejaVuSans-111"/>
       <path d="M 45.40625 46.390625 
L 45.40625 75.984375 
L 54.390625 75.984375 
L 54.390625 0 
L 45.40625 0 
L 45.40625 8.203125 
Q 42.578125 3.328125 38.25 0.953125 
Q 33.9375 -1.421875 27.875 -1.421875 
Q 17.96875 -1.421875 11.734375 6.484375 
Q 5.515625 14.40625 5.515625 27.296875 
Q 5.515625 40.1875 11.734375 48.09375 
Q 17.96875 56 27.875 56 
Q 33.9375 56 38.25 53.625 
Q 42.578125 51.265625 45.40625 46.390625 
z
M 14.796875 27.296875 
Q 14.796875 17.390625 18.875 11.75 
Q 22.953125 6.109375 30.078125 6.109375 
Q 37.203125 6.109375 41.296875 11.75 
Q 45.40625 17.390625 45.40625 27.296875 
Q 45.40625 37.203125 41.296875 42.84375 
Q 37.203125 48.484375 30.078125 48.484375 
Q 22.953125 48.484375 18.875 42.84375 
Q 14.796875 37.203125 14.796875 27.296875 
z
" id="DejaVuSans-100"/>
       <path d="M 48.78125 52.59375 
L 48.78125 44.1875 
Q 44.96875 46.296875 41.140625 47.34375 
Q 37.3125 48.390625 33.40625 48.390625 
Q 24.65625 48.390625 19.8125 42.84375 
Q 14.984375 37.3125 14.984375 27.296875 
Q 14.984375 17.28125 19.8125 11.734375 
Q 24.65625 6.203125 33.40625 6.203125 
Q 37.3125 6.203125 41.140625 7.25 
Q 44.96875 8.296875 48.78125 10.40625 
L 48.78125 2.09375 
Q 45.015625 0.34375 40.984375 -0.53125 
Q 36.96875 -1.421875 32.421875 -1.421875 
Q 20.0625 -1.421875 12.78125 6.34375 
Q 5.515625 14.109375 5.515625 27.296875 
Q 5.515625 40.671875 12.859375 48.328125 
Q 20.21875 56 33.015625 56 
Q 37.15625 56 41.109375 55.140625 
Q 45.0625 54.296875 48.78125 52.59375 
z
" id="DejaVuSans-99"/>
       <path d="M 32.171875 -5.078125 
Q 28.375 -14.84375 24.75 -17.8125 
Q 21.140625 -20.796875 15.09375 -20.796875 
L 7.90625 -20.796875 
L 7.90625 -13.28125 
L 13.1875 -13.28125 
Q 16.890625 -13.28125 18.9375 -11.515625 
Q 21 -9.765625 23.484375 -3.21875 
L 25.09375 0.875 
L 2.984375 54.6875 
L 12.5 54.6875 
L 29.59375 11.921875 
L 46.6875 54.6875 
L 56.203125 54.6875 
z
" id="DejaVuSans-121"/>
      </defs>
      <use xlink:href="#DejaVuSans-78"/>
      <use x="74.804688" xlink:href="#DejaVuSans-117"/>
      <use x="138.183594" xlink:href="#DejaVuSans-109"/>
      <use x="235.595703" xlink:href="#DejaVuSans-98"/>
      <use x="299.072266" xlink:href="#DejaVuSans-101"/>
      <use x="360.595703" xlink:href="#DejaVuSans-114"/>
      <use x="401.708984" xlink:href="#DejaVuSans-32"/>
      <use x="433.496094" xlink:href="#DejaVuSans-111"/>
      <use x="494.677734" xlink:href="#DejaVuSans-102"/>
      <use x="529.882812" xlink:href="#DejaVuSans-32"/>
      <use x="561.669922" xlink:href="#DejaVuSans-100"/>
      <use x="625.146484" xlink:href="#DejaVuSans-101"/>
      <use x="686.669922" xlink:href="#DejaVuSans-99"/>
      <use x="741.650391" xlink:href="#DejaVuSans-97"/>
      <use x="802.929688" xlink:href="#DejaVuSans-121"/>
      <use x="862.109375" xlink:href="#DejaVuSans-115"/>
     </g>
    </g>
   </g>
   <g id="LineCollection_1">
    <path clip-path="url(#p56875514b9)" d="M 87.327439 39.824342 
L 87.327439 16.526476 
" style="fill:none;stroke:#000000;stroke-width:1.5;"/>
    <path clip-path="url(#p56875514b9)" d="M 99.026554 74.433514 
L 99.026554 55.780293 
" style="fill:none;stroke:#000000;stroke-width:1.5;"/>
    <path clip-path="url(#p56875514b9)" d="M 110.725669 80.549813 
L 110.725669 62.853813 
" style="fill:none;stroke:#000000;stroke-width:1.5;"/>
    <path clip-path="url(#p56875514b9)" d="M 122.424784 85.423346 
L 122.424784 68.532136 
" style="fill:none;stroke:#000000;stroke-width:1.5;"/>
    <path clip-path="url(#p56875514b9)" d="M 134.123898 102.297119 
L 134.123898 88.589857 
" style="fill:none;stroke:#000000;stroke-width:1.5;"/>
    <path clip-path="url(#p56875514b9)" d="M 145.823013 99.908459 
L 145.823013 85.702589 
" style="fill:none;stroke:#000000;stroke-width:1.5;"/>
    <path clip-path="url(#p56875514b9)" d="M 157.522128 103.487984 
L 157.522128 90.036955 
" style="fill:none;stroke:#000000;stroke-width:1.5;"/>
    <path clip-path="url(#p56875514b9)" d="M 169.221243 101.103902 
L 169.221243 87.14511 
" style="fill:none;stroke:#000000;stroke-width:1.5;"/>
    <path clip-path="url(#p56875514b9)" d="M 180.920358 103.487984 
L 180.920358 90.036955 
" style="fill:none;stroke:#000000;stroke-width:1.5;"/>
    <path clip-path="url(#p56875514b9)" d="M 192.619473 104.676361 
L 192.619473 91.486542 
" style="fill:none;stroke:#000000;stroke-width:1.5;"/>
    <path clip-path="url(#p56875514b9)" d="M 204.318588 111.744652 
L 204.318588 100.246034 
" style="fill:none;stroke:#000000;stroke-width:1.5;"/>
    <path clip-path="url(#p56875514b9)" d="M 216.017703 110.575028 
L 216.017703 98.777695 
" style="fill:none;stroke:#000000;stroke-width:1.5;"/>
    <path clip-path="url(#p56875514b9)" d="M 227.716817 110.575028 
L 227.716817 98.777695 
" style="fill:none;stroke:#000000;stroke-width:1.5;"/>
    <path clip-path="url(#p56875514b9)" d="M 239.415932 112.910292 
L 239.415932 101.718359 
" style="fill:none;stroke:#000000;stroke-width:1.5;"/>
    <path clip-path="url(#p56875514b9)" d="M 251.115047 105.862099 
L 251.115047 92.938768 
" style="fill:none;stroke:#000000;stroke-width:1.5;"/>
    <path clip-path="url(#p56875514b9)" d="M 262.814162 115.228217 
L 262.814162 104.676361 
" style="fill:none;stroke:#000000;stroke-width:1.5;"/>
    <path clip-path="url(#p56875514b9)" d="M 274.513277 115.228217 
L 274.513277 104.676361 
" style="fill:none;stroke:#000000;stroke-width:1.5;"/>
    <path clip-path="url(#p56875514b9)" d="M 286.212392 114.071609 
L 286.212392 103.195005 
" style="fill:none;stroke:#000000;stroke-width:1.5;"/>
    <path clip-path="url(#p56875514b9)" d="M 297.911507 108.224971 
L 297.911507 95.851824 
" style="fill:none;stroke:#000000;stroke-width:1.5;"/>
    <path clip-path="url(#p56875514b9)" d="M 309.610622 112.910292 
L 309.610622 101.718359 
" style="fill:none;stroke:#000000;stroke-width:1.5;"/>
    <path clip-path="url(#p56875514b9)" d="M 321.309736 112.910292 
L 321.309736 101.718359 
" style="fill:none;stroke:#000000;stroke-width:1.5;"/>
    <path clip-path="url(#p56875514b9)" d="M 333.008851 114.071609 
L 333.008851 103.195005 
" style="fill:none;stroke:#000000;stroke-width:1.5;"/>
    <path clip-path="url(#p56875514b9)" d="M 344.707966 118.664892 
L 344.707966 109.153578 
" style="fill:none;stroke:#000000;stroke-width:1.5;"/>
    <path clip-path="url(#p56875514b9)" d="M 356.407081 116.379666 
L 356.407081 106.162876 
" style="fill:none;stroke:#000000;stroke-width:1.5;"/>
    <path clip-path="url(#p56875514b9)" d="M 368.106196 117.525431 
L 368.106196 107.655074 
" style="fill:none;stroke:#000000;stroke-width:1.5;"/>
    <path clip-path="url(#p56875514b9)" d="M 379.805311 110.575028 
L 379.805311 98.777695 
" style="fill:none;stroke:#000000;stroke-width:1.5;"/>
    <path clip-path="url(#p56875514b9)" d="M 391.504426 112.910292 
L 391.504426 101.718359 
" style="fill:none;stroke:#000000;stroke-width:1.5;"/>
    <path clip-path="url(#p56875514b9)" d="M 403.203541 114.071609 
L 403.203541 103.195005 
" style="fill:none;stroke:#000000;stroke-width:1.5;"/>
    <path clip-path="url(#p56875514b9)" d="M 414.902655 115.228217 
L 414.902655 104.676361 
" style="fill:none;stroke:#000000;stroke-width:1.5;"/>
    <path clip-path="url(#p56875514b9)" d="M 426.60177 125.312825 
L 426.60177 118.333428 
" style="fill:none;stroke:#000000;stroke-width:1.5;"/>
   </g>
   <g id="line2d_11">
    <path clip-path="url(#p56875514b9)" d="M 81.477881 23.195797 
L 93.176996 46.210329 
L 104.876111 63.006773 
L 116.575226 75.265137 
L 128.274341 84.211525 
L 139.973456 90.740769 
L 151.672571 95.505936 
L 163.371686 98.983645 
L 175.0708 101.521744 
L 186.769915 103.374096 
L 198.46903 104.725979 
L 210.168145 105.712608 
L 221.86726 106.432669 
L 233.566375 106.958183 
L 245.26549 107.341713 
L 256.964605 107.621621 
L 268.663719 107.825903 
L 280.362834 107.974992 
L 292.061949 108.0838 
L 303.761064 108.16321 
L 315.460179 108.221165 
L 327.159294 108.263461 
L 338.858409 108.29433 
L 350.557524 108.316859 
L 362.256638 108.333301 
L 373.955753 108.3453 
L 385.654868 108.354058 
L 397.353983 108.360449 
L 409.053098 108.365114 
L 420.752213 108.368518 
L 432.451328 108.371003 
" style="fill:none;stroke:#ff8c00;stroke-linecap:square;stroke-width:2;"/>
   </g>
   <g id="line2d_12"/>
   <g id="patch_33">
    <path d="M 63.929209 131.056 
L 63.929209 10.8 
" style="fill:none;stroke:#000000;stroke-linecap:square;stroke-linejoin:miter;stroke-width:0.8;"/>
   </g>
   <g id="patch_34">
    <path d="M 450 131.056 
L 450 10.8 
" style="fill:none;stroke:#000000;stroke-linecap:square;stroke-linejoin:miter;stroke-width:0.8;"/>
   </g>
   <g id="patch_35">
    <path d="M 63.929209 131.056 
L 450 131.056 
" style="fill:none;stroke:#000000;stroke-linecap:square;stroke-linejoin:miter;stroke-width:0.8;"/>
   </g>
   <g id="patch_36">
    <path d="M 63.929209 10.8 
L 450 10.8 
" style="fill:none;stroke:#000000;stroke-linecap:square;stroke-linejoin:miter;stroke-width:0.8;"/>
   </g>
   <g id="text_13">
    <!-- $y = ae^{-\lambda x}+c; T_{½}\doteq $9.7367 -->
    <g transform="translate(211.185459 22.899481)scale(0.1 -0.1)">
     <defs>
      <path d="M 24.8125 -5.078125 
Q 18.5625 -15.578125 14.625 -18.1875 
Q 10.6875 -20.796875 4.59375 -20.796875 
L -2.484375 -20.796875 
L -0.984375 -13.28125 
L 4.203125 -13.28125 
Q 7.953125 -13.28125 10.59375 -11.234375 
Q 13.234375 -9.1875 16.5 -3.21875 
L 19.28125 2 
L 7.171875 54.6875 
L 16.703125 54.6875 
L 25.78125 12.796875 
L 50.875 54.6875 
L 60.296875 54.6875 
z
" id="DejaVuSans-Oblique-121"/>
      <path d="M 10.59375 45.40625 
L 73.1875 45.40625 
L 73.1875 37.203125 
L 10.59375 37.203125 
z
M 10.59375 25.484375 
L 73.1875 25.484375 
L 73.1875 17.1875 
L 10.59375 17.1875 
z
" id="DejaVuSans-61"/>
      <path d="M 53.71875 31.203125 
L 47.609375 0 
L 38.625 0 
L 40.28125 8.296875 
Q 36.328125 3.421875 31.265625 1 
Q 26.21875 -1.421875 20.015625 -1.421875 
Q 13.03125 -1.421875 8.5625 2.84375 
Q 4.109375 7.125 4.109375 13.8125 
Q 4.109375 23.390625 11.75 28.953125 
Q 19.390625 34.515625 32.8125 34.515625 
L 45.3125 34.515625 
L 45.796875 36.921875 
Q 45.90625 37.3125 45.953125 37.765625 
Q 46 38.234375 46 39.203125 
Q 46 43.5625 42.453125 45.96875 
Q 38.921875 48.390625 32.515625 48.390625 
Q 28.125 48.390625 23.5 47.265625 
Q 18.890625 46.140625 14.015625 43.890625 
L 15.578125 52.203125 
Q 20.65625 54.109375 25.515625 55.046875 
Q 30.375 56 34.90625 56 
Q 44.578125 56 49.625 51.796875 
Q 54.6875 47.609375 54.6875 39.59375 
Q 54.6875 37.984375 54.4375 35.8125 
Q 54.203125 33.640625 53.71875 31.203125 
z
M 44 27.484375 
L 35.015625 27.484375 
Q 23.96875 27.484375 18.671875 24.53125 
Q 13.375 21.578125 13.375 15.375 
Q 13.375 11.078125 16.078125 8.640625 
Q 18.796875 6.203125 23.578125 6.203125 
Q 30.90625 6.203125 36.375 11.453125 
Q 41.84375 16.703125 43.609375 25.484375 
z
" id="DejaVuSans-Oblique-97"/>
      <path d="M 48.09375 32.234375 
Q 48.25 33.015625 48.3125 33.84375 
Q 48.390625 34.671875 48.390625 35.5 
Q 48.390625 41.453125 44.890625 44.921875 
Q 41.40625 48.390625 35.40625 48.390625 
Q 28.71875 48.390625 23.578125 44.15625 
Q 18.453125 39.9375 15.828125 32.171875 
z
M 55.90625 25.203125 
L 14.109375 25.203125 
Q 13.8125 23.34375 13.71875 22.265625 
Q 13.625 21.1875 13.625 20.40625 
Q 13.625 13.625 17.796875 9.90625 
Q 21.96875 6.203125 29.59375 6.203125 
Q 35.453125 6.203125 40.671875 7.515625 
Q 45.90625 8.84375 50.390625 11.375 
L 48.6875 2.484375 
Q 43.84375 0.53125 38.6875 -0.4375 
Q 33.546875 -1.421875 28.21875 -1.421875 
Q 16.84375 -1.421875 10.71875 4.015625 
Q 4.59375 9.46875 4.59375 19.484375 
Q 4.59375 28.03125 7.640625 35.375 
Q 10.6875 42.71875 16.609375 48.484375 
Q 20.40625 52.09375 25.65625 54.046875 
Q 30.90625 56 36.8125 56 
Q 46.09375 56 51.578125 50.4375 
Q 57.078125 44.875 57.078125 35.5 
Q 57.078125 33.25 56.78125 30.6875 
Q 56.5 28.125 55.90625 25.203125 
z
" id="DejaVuSans-Oblique-101"/>
      <path d="M 10.59375 35.5 
L 73.1875 35.5 
L 73.1875 27.203125 
L 10.59375 27.203125 
z
" id="DejaVuSans-8722"/>
      <path d="M 36.71875 67.4375 
L 48.828125 0 
L 39.3125 0 
L 31.84375 40.4375 
L 5.125 0 
L -4.390625 0 
L 29.734375 52.4375 
L 28.03125 62.109375 
Q 26.953125 68.265625 21.734375 68.265625 
L 17.046875 68.265625 
L 18.5 75.984375 
L 24.21875 75.875 
Q 35.203125 75.734375 36.71875 67.4375 
z
" id="DejaVuSans-Oblique-955"/>
      <path d="M 60.015625 54.6875 
L 34.90625 27.875 
L 50.296875 0 
L 39.984375 0 
L 28.421875 21.6875 
L 8.296875 0 
L -2.59375 0 
L 24.3125 28.8125 
L 10.015625 54.6875 
L 20.3125 54.6875 
L 30.8125 34.90625 
L 49.125 54.6875 
z
" id="DejaVuSans-Oblique-120"/>
      <path d="M 46 62.703125 
L 46 35.5 
L 73.1875 35.5 
L 73.1875 27.203125 
L 46 27.203125 
L 46 0 
L 37.796875 0 
L 37.796875 27.203125 
L 10.59375 27.203125 
L 10.59375 35.5 
L 37.796875 35.5 
L 37.796875 62.703125 
z
" id="DejaVuSans-43"/>
      <path d="M 53.609375 52.59375 
L 51.8125 43.703125 
Q 48.578125 46.046875 44.9375 47.21875 
Q 41.3125 48.390625 37.40625 48.390625 
Q 33.109375 48.390625 29.21875 46.875 
Q 25.34375 45.359375 22.703125 42.578125 
Q 18.5 38.328125 16.203125 32.609375 
Q 13.921875 26.90625 13.921875 20.796875 
Q 13.921875 13.421875 17.609375 9.8125 
Q 21.296875 6.203125 28.8125 6.203125 
Q 32.515625 6.203125 36.6875 7.328125 
Q 40.875 8.453125 45.40625 10.6875 
L 43.703125 1.8125 
Q 39.796875 0.203125 35.671875 -0.609375 
Q 31.546875 -1.421875 27.203125 -1.421875 
Q 16.3125 -1.421875 10.453125 4.015625 
Q 4.59375 9.46875 4.59375 19.578125 
Q 4.59375 28.078125 7.640625 35.234375 
Q 10.6875 42.390625 16.703125 48.09375 
Q 20.796875 52 26.3125 54 
Q 31.84375 56 38.375 56 
Q 42.1875 56 45.9375 55.140625 
Q 49.703125 54.296875 53.609375 52.59375 
z
" id="DejaVuSans-Oblique-99"/>
      <path d="M 11.71875 51.703125 
L 22.015625 51.703125 
L 22.015625 39.3125 
L 11.71875 39.3125 
z
M 11.71875 12.40625 
L 22.015625 12.40625 
L 22.015625 4 
L 14.015625 -11.625 
L 7.71875 -11.625 
L 11.71875 4 
z
" id="DejaVuSans-59"/>
      <path d="M 5.90625 72.90625 
L 67.578125 72.90625 
L 66.015625 64.59375 
L 39.984375 64.59375 
L 27.484375 0 
L 17.578125 0 
L 30.078125 64.59375 
L 4.296875 64.59375 
z
" id="DejaVuSans-Oblique-84"/>
      <path d="M 7.625 37.984375 
L 17.578125 37.984375 
L 17.578125 67.828125 
L 6.6875 65.828125 
L 6.6875 71.484375 
L 17.921875 73.390625 
L 24.609375 73.390625 
L 24.609375 37.984375 
L 34.625 37.984375 
L 34.625 32.625 
L 7.625 32.625 
z
M 69.875 5.5625 
L 90.578125 5.5625 
L 90.578125 0 
L 61.375 0 
L 61.375 5.359375 
Q 63.03125 6.875 66.109375 9.609375 
Q 82.90625 24.5 82.90625 29.09375 
Q 82.90625 32.3125 80.359375 34.28125 
Q 77.828125 36.265625 73.6875 36.265625 
Q 71.140625 36.265625 68.15625 35.40625 
Q 65.1875 34.5625 61.671875 32.859375 
L 61.671875 38.859375 
Q 65.4375 40.234375 68.671875 40.90625 
Q 71.921875 41.59375 74.703125 41.59375 
Q 81.78125 41.59375 86.03125 38.375 
Q 90.28125 35.15625 90.28125 29.875 
Q 90.28125 23.09375 74.125 9.21875 
Q 71.390625 6.875 69.875 5.5625 
z
M 67.28125 74.21875 
L 75.09375 74.21875 
L 29.59375 -1.421875 
L 21.78125 -1.421875 
z
" id="DejaVuSans-189"/>
      <path d="M 36.71875 62.453125 
L 47.015625 62.453125 
L 47.015625 50.046875 
L 36.71875 50.046875 
z
M 10.59375 45.40625 
L 73.1875 45.40625 
L 73.1875 37.203125 
L 10.59375 37.203125 
z
M 10.59375 25.484375 
L 73.1875 25.484375 
L 73.1875 17.1875 
L 10.59375 17.1875 
z
" id="DejaVuSans-8784"/>
      <path d="M 10.984375 1.515625 
L 10.984375 10.5 
Q 14.703125 8.734375 18.5 7.8125 
Q 22.3125 6.890625 25.984375 6.890625 
Q 35.75 6.890625 40.890625 13.453125 
Q 46.046875 20.015625 46.78125 33.40625 
Q 43.953125 29.203125 39.59375 26.953125 
Q 35.25 24.703125 29.984375 24.703125 
Q 19.046875 24.703125 12.671875 31.3125 
Q 6.296875 37.9375 6.296875 49.421875 
Q 6.296875 60.640625 12.9375 67.421875 
Q 19.578125 74.21875 30.609375 74.21875 
Q 43.265625 74.21875 49.921875 64.515625 
Q 56.59375 54.828125 56.59375 36.375 
Q 56.59375 19.140625 48.40625 8.859375 
Q 40.234375 -1.421875 26.421875 -1.421875 
Q 22.703125 -1.421875 18.890625 -0.6875 
Q 15.09375 0.046875 10.984375 1.515625 
z
M 30.609375 32.421875 
Q 37.25 32.421875 41.125 36.953125 
Q 45.015625 41.5 45.015625 49.421875 
Q 45.015625 57.28125 41.125 61.84375 
Q 37.25 66.40625 30.609375 66.40625 
Q 23.96875 66.40625 20.09375 61.84375 
Q 16.21875 57.28125 16.21875 49.421875 
Q 16.21875 41.5 20.09375 36.953125 
Q 23.96875 32.421875 30.609375 32.421875 
z
" id="DejaVuSans-57"/>
      <path d="M 10.6875 12.40625 
L 21 12.40625 
L 21 0 
L 10.6875 0 
z
" id="DejaVuSans-46"/>
      <path d="M 8.203125 72.90625 
L 55.078125 72.90625 
L 55.078125 68.703125 
L 28.609375 0 
L 18.3125 0 
L 43.21875 64.59375 
L 8.203125 64.59375 
z
" id="DejaVuSans-55"/>
      <path d="M 40.578125 39.3125 
Q 47.65625 37.796875 51.625 33 
Q 55.609375 28.21875 55.609375 21.1875 
Q 55.609375 10.40625 48.1875 4.484375 
Q 40.765625 -1.421875 27.09375 -1.421875 
Q 22.515625 -1.421875 17.65625 -0.515625 
Q 12.796875 0.390625 7.625 2.203125 
L 7.625 11.71875 
Q 11.71875 9.328125 16.59375 8.109375 
Q 21.484375 6.890625 26.8125 6.890625 
Q 36.078125 6.890625 40.9375 10.546875 
Q 45.796875 14.203125 45.796875 21.1875 
Q 45.796875 27.640625 41.28125 31.265625 
Q 36.765625 34.90625 28.71875 34.90625 
L 20.21875 34.90625 
L 20.21875 43.015625 
L 29.109375 43.015625 
Q 36.375 43.015625 40.234375 45.921875 
Q 44.09375 48.828125 44.09375 54.296875 
Q 44.09375 59.90625 40.109375 62.90625 
Q 36.140625 65.921875 28.71875 65.921875 
Q 24.65625 65.921875 20.015625 65.03125 
Q 15.375 64.15625 9.8125 62.3125 
L 9.8125 71.09375 
Q 15.4375 72.65625 20.34375 73.4375 
Q 25.25 74.21875 29.59375 74.21875 
Q 40.828125 74.21875 47.359375 69.109375 
Q 53.90625 64.015625 53.90625 55.328125 
Q 53.90625 49.265625 50.4375 45.09375 
Q 46.96875 40.921875 40.578125 39.3125 
z
" id="DejaVuSans-51"/>
     </defs>
     <use transform="translate(0 0.529687)" xlink:href="#DejaVuSans-Oblique-121"/>
     <use transform="translate(78.662109 0.529687)" xlink:href="#DejaVuSans-61"/>
     <use transform="translate(181.933594 0.529687)" xlink:href="#DejaVuSans-Oblique-97"/>
     <use transform="translate(243.212891 0.529687)" xlink:href="#DejaVuSans-Oblique-101"/>
     <use transform="translate(309.386224 38.810937)scale(0.7)" xlink:href="#DejaVuSans-8722"/>
     <use transform="translate(368.038568 38.810937)scale(0.7)" xlink:href="#DejaVuSans-Oblique-955"/>
     <use transform="translate(409.464349 38.810937)scale(0.7)" xlink:href="#DejaVuSans-Oblique-120"/>
     <use transform="translate(473.106927 0.529687)" xlink:href="#DejaVuSans-43"/>
     <use transform="translate(576.378411 0.529687)" xlink:href="#DejaVuSans-Oblique-99"/>
     <use transform="translate(631.35888 0.529687)" xlink:href="#DejaVuSans-59"/>
     <use transform="translate(684.532708 0.529687)" xlink:href="#DejaVuSans-Oblique-84"/>
     <use transform="translate(745.616693 -15.876563)scale(0.7)" xlink:href="#DejaVuSans-189"/>
     <use transform="translate(816.197747 0.529687)" xlink:href="#DejaVuSans-8784"/>
     <use transform="translate(899.98681 0.529687)" xlink:href="#DejaVuSans-57"/>
     <use transform="translate(963.609857 0.529687)" xlink:href="#DejaVuSans-46"/>
     <use transform="translate(987.646966 0.529687)" xlink:href="#DejaVuSans-55"/>
     <use transform="translate(1051.270013 0.529687)" xlink:href="#DejaVuSans-51"/>
     <use transform="translate(1114.89306 0.529687)" xlink:href="#DejaVuSans-54"/>
     <use transform="translate(1178.516107 0.529687)" xlink:href="#DejaVuSans-55"/>
    </g>
   </g>
   <g id="text_14">
    <!-- $a ≐ 146.87; λ ≐ 0.1027; c ≐ 17.19$ -->
    <g transform="translate(211.185459 34.770319)scale(0.1 -0.1)">
     <use transform="translate(0 0.015625)" xlink:href="#DejaVuSans-Oblique-97"/>
     <use transform="translate(61.279297 0.015625)" xlink:href="#DejaVuSans-8784"/>
     <use transform="translate(145.068359 0.015625)" xlink:href="#DejaVuSans-49"/>
     <use transform="translate(208.691406 0.015625)" xlink:href="#DejaVuSans-52"/>
     <use transform="translate(272.314453 0.015625)" xlink:href="#DejaVuSans-54"/>
     <use transform="translate(335.9375 0.015625)" xlink:href="#DejaVuSans-46"/>
     <use transform="translate(365.099609 0.015625)" xlink:href="#DejaVuSans-56"/>
     <use transform="translate(428.722656 0.015625)" xlink:href="#DejaVuSans-55"/>
     <use transform="translate(492.345703 0.015625)" xlink:href="#DejaVuSans-59"/>
     <use transform="translate(545.519531 0.015625)" xlink:href="#DejaVuSans-Oblique-955"/>
     <use transform="translate(604.699219 0.015625)" xlink:href="#DejaVuSans-8784"/>
     <use transform="translate(688.488281 0.015625)" xlink:href="#DejaVuSans-48"/>
     <use transform="translate(752.111328 0.015625)" xlink:href="#DejaVuSans-46"/>
     <use transform="translate(783.898438 0.015625)" xlink:href="#DejaVuSans-49"/>
     <use transform="translate(847.521484 0.015625)" xlink:href="#DejaVuSans-48"/>
     <use transform="translate(911.144531 0.015625)" xlink:href="#DejaVuSans-50"/>
     <use transform="translate(974.767578 0.015625)" xlink:href="#DejaVuSans-55"/>
     <use transform="translate(1038.390625 0.015625)" xlink:href="#DejaVuSans-59"/>
     <use transform="translate(1091.564453 0.015625)" xlink:href="#DejaVuSans-Oblique-99"/>
     <use transform="translate(1146.544922 0.015625)" xlink:href="#DejaVuSans-8784"/>
     <use transform="translate(1230.333984 0.015625)" xlink:href="#DejaVuSans-49"/>
     <use transform="translate(1293.957031 0.015625)" xlink:href="#DejaVuSans-55"/>
     <use transform="translate(1357.580078 0.015625)" xlink:href="#DejaVuSans-46"/>
     <use transform="translate(1389.367188 0.015625)" xlink:href="#DejaVuSans-49"/>
     <use transform="translate(1452.990234 0.015625)" xlink:href="#DejaVuSans-57"/>
    </g>
   </g>
   <g id="text_15">
    <!-- $σ_a ≐ 21.82; σ_λ ≐ 0.0118; σ_c ≐ 0.94$ -->
    <g transform="translate(211.185459 46.641156)scale(0.1 -0.1)">
     <defs>
      <path d="M 34.671875 47.5625 
Q 27.25 47.5625 22.21875 42.1875 
Q 16.890625 36.578125 15.140625 27.296875 
Q 13.1875 17.484375 16.3125 11.8125 
Q 19.390625 6.203125 26.65625 6.203125 
Q 33.84375 6.203125 39.109375 11.859375 
Q 44.4375 17.53125 46.34375 27.296875 
Q 48.046875 36.234375 45.015625 42.1875 
Q 42.1875 47.5625 34.671875 47.5625 
z
M 36.078125 54.734375 
L 65.921875 54.6875 
L 64.15625 45.703125 
L 54.109375 45.703125 
Q 57.90625 38.09375 55.859375 27.296875 
Q 53.21875 13.875 45.0625 6.25 
Q 36.859375 -1.421875 25.140625 -1.421875 
Q 13.375 -1.421875 8.203125 6.25 
Q 3.03125 13.875 5.671875 27.296875 
Q 8.25 40.765625 16.40625 48.390625 
Q 23.1875 54.734375 36.078125 54.734375 
z
" id="DejaVuSans-Oblique-963"/>
     </defs>
     <use transform="translate(0 0.78125)" xlink:href="#DejaVuSans-Oblique-963"/>
     <use transform="translate(63.378906 -15.625)scale(0.7)" xlink:href="#DejaVuSans-Oblique-97"/>
     <use transform="translate(109.008789 0.78125)" xlink:href="#DejaVuSans-8784"/>
     <use transform="translate(192.797852 0.78125)" xlink:href="#DejaVuSans-50"/>
     <use transform="translate(256.420898 0.78125)" xlink:href="#DejaVuSans-49"/>
     <use transform="translate(320.043945 0.78125)" xlink:href="#DejaVuSans-46"/>
     <use transform="translate(349.206055 0.78125)" xlink:href="#DejaVuSans-56"/>
     <use transform="translate(412.829102 0.78125)" xlink:href="#DejaVuSans-50"/>
     <use transform="translate(476.452148 0.78125)" xlink:href="#DejaVuSans-59"/>
     <use transform="translate(529.625977 0.78125)" xlink:href="#DejaVuSans-Oblique-963"/>
     <use transform="translate(593.004883 -15.625)scale(0.7)" xlink:href="#DejaVuSans-Oblique-955"/>
     <use transform="translate(637.165039 0.78125)" xlink:href="#DejaVuSans-8784"/>
     <use transform="translate(720.954102 0.78125)" xlink:href="#DejaVuSans-48"/>
     <use transform="translate(784.577148 0.78125)" xlink:href="#DejaVuSans-46"/>
     <use transform="translate(816.364258 0.78125)" xlink:href="#DejaVuSans-48"/>
     <use transform="translate(879.987305 0.78125)" xlink:href="#DejaVuSans-49"/>
     <use transform="translate(943.610352 0.78125)" xlink:href="#DejaVuSans-49"/>
     <use transform="translate(1007.233398 0.78125)" xlink:href="#DejaVuSans-56"/>
     <use transform="translate(1070.856445 0.78125)" xlink:href="#DejaVuSans-59"/>
     <use transform="translate(1124.030273 0.78125)" xlink:href="#DejaVuSans-Oblique-963"/>
     <use transform="translate(1187.40918 -15.625)scale(0.7)" xlink:href="#DejaVuSans-Oblique-99"/>
     <use transform="translate(1228.629883 0.78125)" xlink:href="#DejaVuSans-8784"/>
     <use transform="translate(1312.418945 0.78125)" xlink:href="#DejaVuSans-48"/>
     <use transform="translate(1376.041992 0.78125)" xlink:href="#DejaVuSans-46"/>
     <use transform="translate(1407.829102 0.78125)" xlink:href="#DejaVuSans-57"/>
     <use transform="translate(1471.452148 0.78125)" xlink:href="#DejaVuSans-52"/>
    </g>
   </g>
  </g>
  <g id="axes_2">
   <g id="patch_37">
    <path d="M 63.929209 293.272 
L 450 293.272 
L 450 173.016 
L 63.929209 173.016 
z
" style="fill:#ffffff;"/>
   </g>
   <g id="patch_38">
    <path clip-path="url(#pded4bd8250)" d="M 81.477881 81725.372335 
L 84.987616 81725.372335 
L 84.987616 185.57948 
L 81.477881 185.57948 
z
" style="fill:#1f77b4;"/>
   </g>
   <g id="patch_39">
    <path clip-path="url(#pded4bd8250)" d="M 84.987616 81725.372335 
L 88.49735 81725.372335 
L 88.49735 178.482182 
L 84.987616 178.482182 
z
" style="fill:#1f77b4;"/>
   </g>
   <g id="patch_40">
    <path clip-path="url(#pded4bd8250)" d="M 88.49735 81725.372335 
L 92.007085 81725.372335 
L 92.007085 202.997332 
L 88.49735 202.997332 
z
" style="fill:#1f77b4;"/>
   </g>
   <g id="patch_41">
    <path clip-path="url(#pded4bd8250)" d="M 92.007085 81725.372335 
L 95.516819 81725.372335 
L 95.516819 187.601052 
L 92.007085 187.601052 
z
" style="fill:#1f77b4;"/>
   </g>
   <g id="patch_42">
    <path clip-path="url(#pded4bd8250)" d="M 95.516819 81725.372335 
L 99.026554 81725.372335 
L 99.026554 183.667237 
L 95.516819 183.667237 
z
" style="fill:#1f77b4;"/>
   </g>
   <g id="patch_43">
    <path clip-path="url(#pded4bd8250)" d="M 99.026554 81725.372335 
L 102.536288 81725.372335 
L 102.536288 194.46794 
L 99.026554 194.46794 
z
" style="fill:#1f77b4;"/>
   </g>
   <g id="patch_44">
    <path clip-path="url(#pded4bd8250)" d="M 102.536288 81725.372335 
L 106.046023 81725.372335 
L 106.046023 199.919924 
L 102.536288 199.919924 
z
" style="fill:#1f77b4;"/>
   </g>
   <g id="patch_45">
    <path clip-path="url(#pded4bd8250)" d="M 106.046023 81725.372335 
L 109.555757 81725.372335 
L 109.555757 183.667237 
L 106.046023 183.667237 
z
" style="fill:#1f77b4;"/>
   </g>
   <g id="patch_46">
    <path clip-path="url(#pded4bd8250)" d="M 109.555757 81725.372335 
L 113.065492 81725.372335 
L 113.065492 194.46794 
L 109.555757 194.46794 
z
" style="fill:#1f77b4;"/>
   </g>
   <g id="patch_47">
    <path clip-path="url(#pded4bd8250)" d="M 113.065492 81725.372335 
L 116.575226 81725.372335 
L 116.575226 230.883402 
L 113.065492 230.883402 
z
" style="fill:#1f77b4;"/>
   </g>
   <g id="patch_48">
    <path clip-path="url(#pded4bd8250)" d="M 116.575226 81725.372335 
L 120.084961 81725.372335 
L 120.084961 199.919924 
L 116.575226 199.919924 
z
" style="fill:#1f77b4;"/>
   </g>
   <g id="patch_49">
    <path clip-path="url(#pded4bd8250)" d="M 120.084961 81725.372335 
L 123.594695 81725.372335 
L 123.594695 206.368252 
L 120.084961 206.368252 
z
" style="fill:#1f77b4;"/>
   </g>
   <g id="patch_50">
    <path clip-path="url(#pded4bd8250)" d="M 123.594695 81725.372335 
L 127.104429 81725.372335 
L 127.104429 202.997332 
L 123.594695 202.997332 
z
" style="fill:#1f77b4;"/>
   </g>
   <g id="patch_51">
    <path clip-path="url(#pded4bd8250)" d="M 127.104429 81725.372335 
L 130.614164 81725.372335 
L 130.614164 197.088982 
L 127.104429 197.088982 
z
" style="fill:#1f77b4;"/>
   </g>
   <g id="patch_52">
    <path clip-path="url(#pded4bd8250)" d="M 130.614164 81725.372335 
L 134.123898 81725.372335 
L 134.123898 210.09463 
L 130.614164 210.09463 
z
" style="fill:#1f77b4;"/>
   </g>
   <g id="patch_53">
    <path clip-path="url(#pded4bd8250)" d="M 134.123898 81725.372335 
L 137.633633 81725.372335 
L 137.633633 206.368252 
L 134.123898 206.368252 
z
" style="fill:#1f77b4;"/>
   </g>
   <g id="patch_54">
    <path clip-path="url(#pded4bd8250)" d="M 137.633633 81725.372335 
L 141.143367 81725.372335 
L 141.143367 189.745217 
L 137.633633 189.745217 
z
" style="fill:#1f77b4;"/>
   </g>
   <g id="patch_55">
    <path clip-path="url(#pded4bd8250)" d="M 141.143367 81725.372335 
L 144.653102 81725.372335 
L 144.653102 206.368252 
L 141.143367 206.368252 
z
" style="fill:#1f77b4;"/>
   </g>
   <g id="patch_56">
    <path clip-path="url(#pded4bd8250)" d="M 144.653102 81725.372335 
L 148.162836 81725.372335 
L 148.162836 189.745217 
L 144.653102 189.745217 
z
" style="fill:#1f77b4;"/>
   </g>
   <g id="patch_57">
    <path clip-path="url(#pded4bd8250)" d="M 148.162836 81725.372335 
L 151.672571 81725.372335 
L 151.672571 192.027808 
L 148.162836 192.027808 
z
" style="fill:#1f77b4;"/>
   </g>
   <g id="patch_58">
    <path clip-path="url(#pded4bd8250)" d="M 151.672571 81725.372335 
L 155.182305 81725.372335 
L 155.182305 202.997332 
L 151.672571 202.997332 
z
" style="fill:#1f77b4;"/>
   </g>
   <g id="patch_59">
    <path clip-path="url(#pded4bd8250)" d="M 155.182305 81725.372335 
L 158.69204 81725.372335 
L 158.69204 206.368252 
L 155.182305 206.368252 
z
" style="fill:#1f77b4;"/>
   </g>
   <g id="patch_60">
    <path clip-path="url(#pded4bd8250)" d="M 158.69204 81725.372335 
L 162.201774 81725.372335 
L 162.201774 230.883402 
L 158.69204 230.883402 
z
" style="fill:#1f77b4;"/>
   </g>
   <g id="patch_61">
    <path clip-path="url(#pded4bd8250)" d="M 162.201774 81725.372335 
L 165.711509 81725.372335 
L 165.711509 187.601052 
L 162.201774 187.601052 
z
" style="fill:#1f77b4;"/>
   </g>
   <g id="patch_62">
    <path clip-path="url(#pded4bd8250)" d="M 165.711509 81725.372335 
L 169.221243 81725.372335 
L 169.221243 202.997332 
L 165.711509 202.997332 
z
" style="fill:#1f77b4;"/>
   </g>
   <g id="patch_63">
    <path clip-path="url(#pded4bd8250)" d="M 169.221243 81725.372335 
L 172.730978 81725.372335 
L 172.730978 210.09463 
L 169.221243 210.09463 
z
" style="fill:#1f77b4;"/>
   </g>
   <g id="patch_64">
    <path clip-path="url(#pded4bd8250)" d="M 172.730978 81725.372335 
L 176.240712 81725.372335 
L 176.240712 218.98309 
L 172.730978 218.98309 
z
" style="fill:#1f77b4;"/>
   </g>
   <g id="patch_65">
    <path clip-path="url(#pded4bd8250)" d="M 176.240712 81725.372335 
L 179.750446 81725.372335 
L 179.750446 224.435074 
L 176.240712 224.435074 
z
" style="fill:#1f77b4;"/>
   </g>
   <g id="patch_66">
    <path clip-path="url(#pded4bd8250)" d="M 179.750446 81725.372335 
L 183.260181 81725.372335 
L 183.260181 224.435074 
L 179.750446 224.435074 
z
" style="fill:#1f77b4;"/>
   </g>
   <g id="patch_67">
    <path clip-path="url(#pded4bd8250)" d="M 183.260181 81725.372335 
L 186.769915 81725.372335 
L 186.769915 206.368252 
L 183.260181 206.368252 
z
" style="fill:#1f77b4;"/>
   </g>
   <g id="patch_68">
    <path clip-path="url(#pded4bd8250)" d="M 186.769915 81725.372335 
L 190.27965 81725.372335 
L 190.27965 206.368252 
L 186.769915 206.368252 
z
" style="fill:#1f77b4;"/>
   </g>
   <g id="patch_69">
    <path clip-path="url(#pded4bd8250)" d="M 190.27965 81725.372335 
L 193.789384 81725.372335 
L 193.789384 206.368252 
L 190.27965 206.368252 
z
" style="fill:#1f77b4;"/>
   </g>
   <g id="patch_70">
    <path clip-path="url(#pded4bd8250)" d="M 193.789384 81725.372335 
L 197.299119 81725.372335 
L 197.299119 218.98309 
L 193.789384 218.98309 
z
" style="fill:#1f77b4;"/>
   </g>
   <g id="patch_71">
    <path clip-path="url(#pded4bd8250)" d="M 197.299119 81725.372335 
L 200.808853 81725.372335 
L 200.808853 192.027808 
L 197.299119 192.027808 
z
" style="fill:#1f77b4;"/>
   </g>
   <g id="patch_72">
    <path clip-path="url(#pded4bd8250)" d="M 200.808853 81725.372335 
L 204.318588 81725.372335 
L 204.318588 210.09463 
L 200.808853 210.09463 
z
" style="fill:#1f77b4;"/>
   </g>
   <g id="patch_73">
    <path clip-path="url(#pded4bd8250)" d="M 204.318588 81725.372335 
L 207.828322 81725.372335 
L 207.828322 210.09463 
L 204.318588 210.09463 
z
" style="fill:#1f77b4;"/>
   </g>
   <g id="patch_74">
    <path clip-path="url(#pded4bd8250)" d="M 207.828322 81725.372335 
L 211.338057 81725.372335 
L 211.338057 199.919924 
L 207.828322 199.919924 
z
" style="fill:#1f77b4;"/>
   </g>
   <g id="patch_75">
    <path clip-path="url(#pded4bd8250)" d="M 211.338057 81725.372335 
L 214.847791 81725.372335 
L 214.847791 224.435074 
L 211.338057 224.435074 
z
" style="fill:#1f77b4;"/>
   </g>
   <g id="patch_76">
    <path clip-path="url(#pded4bd8250)" d="M 214.847791 81725.372335 
L 218.357526 81725.372335 
L 218.357526 218.98309 
L 214.847791 218.98309 
z
" style="fill:#1f77b4;"/>
   </g>
   <g id="patch_77">
    <path clip-path="url(#pded4bd8250)" d="M 218.357526 81725.372335 
L 221.86726 81725.372335 
L 221.86726 248.950224 
L 218.357526 248.950224 
z
" style="fill:#1f77b4;"/>
   </g>
   <g id="patch_78">
    <path clip-path="url(#pded4bd8250)" d="M 221.86726 81725.372335 
L 225.376994 81725.372335 
L 225.376994 214.260367 
L 221.86726 214.260367 
z
" style="fill:#1f77b4;"/>
   </g>
   <g id="patch_79">
    <path clip-path="url(#pded4bd8250)" d="M 225.376994 81725.372335 
L 228.886729 81725.372335 
L 228.886729 218.98309 
L 225.376994 218.98309 
z
" style="fill:#1f77b4;"/>
   </g>
   <g id="patch_80">
    <path clip-path="url(#pded4bd8250)" d="M 228.886729 81725.372335 
L 232.396463 81725.372335 
L 232.396463 263.290668 
L 228.886729 263.290668 
z
" style="fill:#1f77b4;"/>
   </g>
   <g id="patch_81">
    <path clip-path="url(#pded4bd8250)" d="M 232.396463 81725.372335 
L 235.906198 81725.372335 
L 235.906198 214.260367 
L 232.396463 214.260367 
z
" style="fill:#1f77b4;"/>
   </g>
   <g id="patch_82">
    <path clip-path="url(#pded4bd8250)" d="M 235.906198 81725.372335 
L 239.415932 81725.372335 
L 239.415932 202.997332 
L 235.906198 202.997332 
z
" style="fill:#1f77b4;"/>
   </g>
   <g id="patch_83">
    <path clip-path="url(#pded4bd8250)" d="M 239.415932 81725.372335 
L 242.925667 81725.372335 
L 242.925667 287.805818 
L 239.415932 287.805818 
z
" style="fill:#1f77b4;"/>
   </g>
   <g id="patch_84">
    <path clip-path="url(#pded4bd8250)" d="M 242.925667 81725.372335 
L 246.435401 81725.372335 
L 246.435401 218.98309 
L 242.925667 218.98309 
z
" style="fill:#1f77b4;"/>
   </g>
   <g id="patch_85">
    <path clip-path="url(#pded4bd8250)" d="M 246.435401 81725.372335 
L 249.945136 81725.372335 
L 249.945136 202.997332 
L 246.435401 202.997332 
z
" style="fill:#1f77b4;"/>
   </g>
   <g id="patch_86">
    <path clip-path="url(#pded4bd8250)" d="M 249.945136 81725.372335 
L 253.45487 81725.372335 
L 253.45487 248.950224 
L 249.945136 248.950224 
z
" style="fill:#1f77b4;"/>
   </g>
   <g id="patch_87">
    <path clip-path="url(#pded4bd8250)" d="M 253.45487 81725.372335 
L 256.964605 81725.372335 
L 256.964605 214.260367 
L 253.45487 214.260367 
z
" style="fill:#1f77b4;"/>
   </g>
   <g id="patch_88">
    <path clip-path="url(#pded4bd8250)" d="M 256.964605 81725.372335 
L 260.474339 81725.372335 
L 260.474339 238.775518 
L 256.964605 238.775518 
z
" style="fill:#1f77b4;"/>
   </g>
   <g id="patch_89">
    <path clip-path="url(#pded4bd8250)" d="M 260.474339 81725.372335 
L 263.984074 81725.372335 
L 263.984074 224.435074 
L 260.474339 224.435074 
z
" style="fill:#1f77b4;"/>
   </g>
   <g id="patch_90">
    <path clip-path="url(#pded4bd8250)" d="M 263.984074 81725.372335 
L 267.493808 81725.372335 
L 267.493808 263.290668 
L 263.984074 263.290668 
z
" style="fill:#1f77b4;"/>
   </g>
   <g id="patch_91">
    <path clip-path="url(#pded4bd8250)" d="M 267.493808 81725.372335 
L 271.003542 81725.372335 
L 271.003542 230.883402 
L 267.493808 230.883402 
z
" style="fill:#1f77b4;"/>
   </g>
   <g id="patch_92">
    <path clip-path="url(#pded4bd8250)" d="M 271.003542 81725.372335 
L 274.513277 81725.372335 
L 274.513277 238.775518 
L 271.003542 238.775518 
z
" style="fill:#1f77b4;"/>
   </g>
   <g id="patch_93">
    <path clip-path="url(#pded4bd8250)" d="M 274.513277 81725.372335 
L 278.023011 81725.372335 
L 278.023011 238.775518 
L 274.513277 238.775518 
z
" style="fill:#1f77b4;"/>
   </g>
   <g id="patch_94">
    <path clip-path="url(#pded4bd8250)" d="M 278.023011 81725.372335 
L 281.532746 81725.372335 
L 281.532746 230.883402 
L 278.023011 230.883402 
z
" style="fill:#1f77b4;"/>
   </g>
   <g id="patch_95">
    <path clip-path="url(#pded4bd8250)" d="M 281.532746 81725.372335 
L 285.04248 81725.372335 
L 285.04248 248.950224 
L 281.532746 248.950224 
z
" style="fill:#1f77b4;"/>
   </g>
   <g id="patch_96">
    <path clip-path="url(#pded4bd8250)" d="M 285.04248 81725.372335 
L 288.552215 81725.372335 
L 288.552215 224.435074 
L 285.04248 224.435074 
z
" style="fill:#1f77b4;"/>
   </g>
   <g id="patch_97">
    <path clip-path="url(#pded4bd8250)" d="M 288.552215 81725.372335 
L 292.061949 81725.372335 
L 292.061949 218.98309 
L 288.552215 218.98309 
z
" style="fill:#1f77b4;"/>
   </g>
   <g id="patch_98">
    <path clip-path="url(#pded4bd8250)" d="M 292.061949 81725.372335 
L 295.571684 81725.372335 
L 295.571684 248.950224 
L 292.061949 248.950224 
z
" style="fill:#1f77b4;"/>
   </g>
   <g id="patch_99">
    <path clip-path="url(#pded4bd8250)" d="M 295.571684 81725.372335 
L 299.081418 81725.372335 
L 299.081418 263.290668 
L 295.571684 263.290668 
z
" style="fill:#1f77b4;"/>
   </g>
   <g id="patch_100">
    <path clip-path="url(#pded4bd8250)" d="M 299.081418 81725.372335 
L 302.591153 81725.372335 
L 302.591153 263.290668 
L 299.081418 263.290668 
z
" style="fill:#1f77b4;"/>
   </g>
   <g id="patch_101">
    <path clip-path="url(#pded4bd8250)" d="M 302.591153 81725.372335 
L 306.100887 81725.372335 
L 306.100887 248.950224 
L 302.591153 248.950224 
z
" style="fill:#1f77b4;"/>
   </g>
   <g id="patch_102">
    <path clip-path="url(#pded4bd8250)" d="M 306.100887 81725.372335 
L 309.610622 81725.372335 
L 309.610622 230.883402 
L 306.100887 230.883402 
z
" style="fill:#1f77b4;"/>
   </g>
   <g id="patch_103">
    <path clip-path="url(#pded4bd8250)" d="M 309.610622 81725.372335 
L 313.120356 81725.372335 
L 313.120356 248.950224 
L 309.610622 248.950224 
z
" style="fill:#1f77b4;"/>
   </g>
   <g id="patch_104">
    <path clip-path="url(#pded4bd8250)" d="M 313.120356 81725.372335 
L 316.63009 81725.372335 
L 316.63009 81725.372335 
L 313.120356 81725.372335 
z
" style="fill:#1f77b4;"/>
   </g>
   <g id="patch_105">
    <path clip-path="url(#pded4bd8250)" d="M 316.63009 81725.372335 
L 320.139825 81725.372335 
L 320.139825 224.435074 
L 316.63009 224.435074 
z
" style="fill:#1f77b4;"/>
   </g>
   <g id="patch_106">
    <path clip-path="url(#pded4bd8250)" d="M 320.139825 81725.372335 
L 323.649559 81725.372335 
L 323.649559 263.290668 
L 320.139825 263.290668 
z
" style="fill:#1f77b4;"/>
   </g>
   <g id="patch_107">
    <path clip-path="url(#pded4bd8250)" d="M 323.649559 81725.372335 
L 327.159294 81725.372335 
L 327.159294 263.290668 
L 323.649559 263.290668 
z
" style="fill:#1f77b4;"/>
   </g>
   <g id="patch_108">
    <path clip-path="url(#pded4bd8250)" d="M 327.159294 81725.372335 
L 330.669028 81725.372335 
L 330.669028 238.775518 
L 327.159294 238.775518 
z
" style="fill:#1f77b4;"/>
   </g>
   <g id="patch_109">
    <path clip-path="url(#pded4bd8250)" d="M 330.669028 81725.372335 
L 334.178763 81725.372335 
L 334.178763 287.805818 
L 330.669028 287.805818 
z
" style="fill:#1f77b4;"/>
   </g>
   <g id="patch_110">
    <path clip-path="url(#pded4bd8250)" d="M 334.178763 81725.372335 
L 337.688497 81725.372335 
L 337.688497 238.775518 
L 334.178763 238.775518 
z
" style="fill:#1f77b4;"/>
   </g>
   <g id="patch_111">
    <path clip-path="url(#pded4bd8250)" d="M 337.688497 81725.372335 
L 341.198232 81725.372335 
L 341.198232 238.775518 
L 337.688497 238.775518 
z
" style="fill:#1f77b4;"/>
   </g>
   <g id="patch_112">
    <path clip-path="url(#pded4bd8250)" d="M 341.198232 81725.372335 
L 344.707966 81725.372335 
L 344.707966 224.435074 
L 341.198232 224.435074 
z
" style="fill:#1f77b4;"/>
   </g>
   <g id="patch_113">
    <path clip-path="url(#pded4bd8250)" d="M 344.707966 81725.372335 
L 348.217701 81725.372335 
L 348.217701 263.290668 
L 344.707966 263.290668 
z
" style="fill:#1f77b4;"/>
   </g>
   <g id="patch_114">
    <path clip-path="url(#pded4bd8250)" d="M 348.217701 81725.372335 
L 351.727435 81725.372335 
L 351.727435 263.290668 
L 348.217701 263.290668 
z
" style="fill:#1f77b4;"/>
   </g>
   <g id="patch_115">
    <path clip-path="url(#pded4bd8250)" d="M 351.727435 81725.372335 
L 355.23717 81725.372335 
L 355.23717 287.805818 
L 351.727435 287.805818 
z
" style="fill:#1f77b4;"/>
   </g>
   <g id="patch_116">
    <path clip-path="url(#pded4bd8250)" d="M 355.23717 81725.372335 
L 358.746904 81725.372335 
L 358.746904 248.950224 
L 355.23717 248.950224 
z
" style="fill:#1f77b4;"/>
   </g>
   <g id="patch_117">
    <path clip-path="url(#pded4bd8250)" d="M 358.746904 81725.372335 
L 362.256638 81725.372335 
L 362.256638 81725.372335 
L 358.746904 81725.372335 
z
" style="fill:#1f77b4;"/>
   </g>
   <g id="patch_118">
    <path clip-path="url(#pded4bd8250)" d="M 362.256638 81725.372335 
L 365.766373 81725.372335 
L 365.766373 238.775518 
L 362.256638 238.775518 
z
" style="fill:#1f77b4;"/>
   </g>
   <g id="patch_119">
    <path clip-path="url(#pded4bd8250)" d="M 365.766373 81725.372335 
L 369.276107 81725.372335 
L 369.276107 230.883402 
L 365.766373 230.883402 
z
" style="fill:#1f77b4;"/>
   </g>
   <g id="patch_120">
    <path clip-path="url(#pded4bd8250)" d="M 369.276107 81725.372335 
L 372.785842 81725.372335 
L 372.785842 238.775518 
L 369.276107 238.775518 
z
" style="fill:#1f77b4;"/>
   </g>
   <g id="patch_121">
    <path clip-path="url(#pded4bd8250)" d="M 372.785842 81725.372335 
L 376.295576 81725.372335 
L 376.295576 248.950224 
L 372.785842 248.950224 
z
" style="fill:#1f77b4;"/>
   </g>
   <g id="patch_122">
    <path clip-path="url(#pded4bd8250)" d="M 376.295576 81725.372335 
L 379.805311 81725.372335 
L 379.805311 263.290668 
L 376.295576 263.290668 
z
" style="fill:#1f77b4;"/>
   </g>
   <g id="patch_123">
    <path clip-path="url(#pded4bd8250)" d="M 379.805311 81725.372335 
L 383.315045 81725.372335 
L 383.315045 287.805818 
L 379.805311 287.805818 
z
" style="fill:#1f77b4;"/>
   </g>
   <g id="patch_124">
    <path clip-path="url(#pded4bd8250)" d="M 383.315045 81725.372335 
L 386.82478 81725.372335 
L 386.82478 248.950224 
L 383.315045 248.950224 
z
" style="fill:#1f77b4;"/>
   </g>
   <g id="patch_125">
    <path clip-path="url(#pded4bd8250)" d="M 386.82478 81725.372335 
L 390.334514 81725.372335 
L 390.334514 248.950224 
L 386.82478 248.950224 
z
" style="fill:#1f77b4;"/>
   </g>
   <g id="patch_126">
    <path clip-path="url(#pded4bd8250)" d="M 390.334514 81725.372335 
L 393.844249 81725.372335 
L 393.844249 218.98309 
L 390.334514 218.98309 
z
" style="fill:#1f77b4;"/>
   </g>
   <g id="patch_127">
    <path clip-path="url(#pded4bd8250)" d="M 393.844249 81725.372335 
L 397.353983 81725.372335 
L 397.353983 287.805818 
L 393.844249 287.805818 
z
" style="fill:#1f77b4;"/>
   </g>
   <g id="patch_128">
    <path clip-path="url(#pded4bd8250)" d="M 397.353983 81725.372335 
L 400.863718 81725.372335 
L 400.863718 248.950224 
L 397.353983 248.950224 
z
" style="fill:#1f77b4;"/>
   </g>
   <g id="patch_129">
    <path clip-path="url(#pded4bd8250)" d="M 400.863718 81725.372335 
L 404.373452 81725.372335 
L 404.373452 248.950224 
L 400.863718 248.950224 
z
" style="fill:#1f77b4;"/>
   </g>
   <g id="patch_130">
    <path clip-path="url(#pded4bd8250)" d="M 404.373452 81725.372335 
L 407.883186 81725.372335 
L 407.883186 287.805818 
L 404.373452 287.805818 
z
" style="fill:#1f77b4;"/>
   </g>
   <g id="patch_131">
    <path clip-path="url(#pded4bd8250)" d="M 407.883186 81725.372335 
L 411.392921 81725.372335 
L 411.392921 287.805818 
L 407.883186 287.805818 
z
" style="fill:#1f77b4;"/>
   </g>
   <g id="patch_132">
    <path clip-path="url(#pded4bd8250)" d="M 411.392921 81725.372335 
L 414.902655 81725.372335 
L 414.902655 287.805818 
L 411.392921 287.805818 
z
" style="fill:#1f77b4;"/>
   </g>
   <g id="patch_133">
    <path clip-path="url(#pded4bd8250)" d="M 414.902655 81725.372335 
L 418.41239 81725.372335 
L 418.41239 248.950224 
L 414.902655 248.950224 
z
" style="fill:#1f77b4;"/>
   </g>
   <g id="patch_134">
    <path clip-path="url(#pded4bd8250)" d="M 418.41239 81725.372335 
L 421.922124 81725.372335 
L 421.922124 248.950224 
L 418.41239 248.950224 
z
" style="fill:#1f77b4;"/>
   </g>
   <g id="patch_135">
    <path clip-path="url(#pded4bd8250)" d="M 421.922124 81725.372335 
L 425.431859 81725.372335 
L 425.431859 287.805818 
L 421.922124 287.805818 
z
" style="fill:#1f77b4;"/>
   </g>
   <g id="patch_136">
    <path clip-path="url(#pded4bd8250)" d="M 425.431859 81725.372335 
L 428.941593 81725.372335 
L 428.941593 263.290668 
L 425.431859 263.290668 
z
" style="fill:#1f77b4;"/>
   </g>
   <g id="patch_137">
    <path clip-path="url(#pded4bd8250)" d="M 428.941593 81725.372335 
L 432.451328 81725.372335 
L 432.451328 248.950224 
L 428.941593 248.950224 
z
" style="fill:#1f77b4;"/>
   </g>
   <g id="matplotlib.axis_3">
    <g id="xtick_6">
     <g id="line2d_13">
      <g>
       <use style="stroke:#000000;stroke-width:0.8;" x="81.431821" xlink:href="#m2912a2ed51" y="293.272"/>
      </g>
     </g>
     <g id="text_16">
      <!-- 20 -->
      <g transform="translate(75.069321 307.870437)scale(0.1 -0.1)">
       <use xlink:href="#DejaVuSans-50"/>
       <use x="63.623047" xlink:href="#DejaVuSans-48"/>
      </g>
     </g>
    </g>
    <g id="xtick_7">
     <g id="line2d_14">
      <g>
       <use style="stroke:#000000;stroke-width:0.8;" x="135.98978" xlink:href="#m2912a2ed51" y="293.272"/>
      </g>
     </g>
     <g id="text_17">
      <!-- 40 -->
      <g transform="translate(129.62728 307.870437)scale(0.1 -0.1)">
       <use xlink:href="#DejaVuSans-52"/>
       <use x="63.623047" xlink:href="#DejaVuSans-48"/>
      </g>
     </g>
    </g>
    <g id="xtick_8">
     <g id="line2d_15">
      <g>
       <use style="stroke:#000000;stroke-width:0.8;" x="190.547738" xlink:href="#m2912a2ed51" y="293.272"/>
      </g>
     </g>
     <g id="text_18">
      <!-- 60 -->
      <g transform="translate(184.185238 307.870437)scale(0.1 -0.1)">
       <use xlink:href="#DejaVuSans-54"/>
       <use x="63.623047" xlink:href="#DejaVuSans-48"/>
      </g>
     </g>
    </g>
    <g id="xtick_9">
     <g id="line2d_16">
      <g>
       <use style="stroke:#000000;stroke-width:0.8;" x="245.105696" xlink:href="#m2912a2ed51" y="293.272"/>
      </g>
     </g>
     <g id="text_19">
      <!-- 80 -->
      <g transform="translate(238.743196 307.870437)scale(0.1 -0.1)">
       <use xlink:href="#DejaVuSans-56"/>
       <use x="63.623047" xlink:href="#DejaVuSans-48"/>
      </g>
     </g>
    </g>
    <g id="xtick_10">
     <g id="line2d_17">
      <g>
       <use style="stroke:#000000;stroke-width:0.8;" x="299.663654" xlink:href="#m2912a2ed51" y="293.272"/>
      </g>
     </g>
     <g id="text_20">
      <!-- 100 -->
      <g transform="translate(290.119904 307.870437)scale(0.1 -0.1)">
       <use xlink:href="#DejaVuSans-49"/>
       <use x="63.623047" xlink:href="#DejaVuSans-48"/>
       <use x="127.246094" xlink:href="#DejaVuSans-48"/>
      </g>
     </g>
    </g>
    <g id="xtick_11">
     <g id="line2d_18">
      <g>
       <use style="stroke:#000000;stroke-width:0.8;" x="354.221612" xlink:href="#m2912a2ed51" y="293.272"/>
      </g>
     </g>
     <g id="text_21">
      <!-- 120 -->
      <g transform="translate(344.677862 307.870437)scale(0.1 -0.1)">
       <use xlink:href="#DejaVuSans-49"/>
       <use x="63.623047" xlink:href="#DejaVuSans-50"/>
       <use x="127.246094" xlink:href="#DejaVuSans-48"/>
      </g>
     </g>
    </g>
    <g id="xtick_12">
     <g id="line2d_19">
      <g>
       <use style="stroke:#000000;stroke-width:0.8;" x="408.779571" xlink:href="#m2912a2ed51" y="293.272"/>
      </g>
     </g>
     <g id="text_22">
      <!-- 140 -->
      <g transform="translate(399.235821 307.870437)scale(0.1 -0.1)">
       <use xlink:href="#DejaVuSans-49"/>
       <use x="63.623047" xlink:href="#DejaVuSans-52"/>
       <use x="127.246094" xlink:href="#DejaVuSans-48"/>
      </g>
     </g>
    </g>
    <g id="text_23">
     <!-- Time difference (min) -->
     <g transform="translate(203.04898 321.548562)scale(0.1 -0.1)">
      <defs>
       <path d="M -0.296875 72.90625 
L 61.375 72.90625 
L 61.375 64.59375 
L 35.5 64.59375 
L 35.5 0 
L 25.59375 0 
L 25.59375 64.59375 
L -0.296875 64.59375 
z
" id="DejaVuSans-84"/>
      </defs>
      <use xlink:href="#DejaVuSans-84"/>
      <use x="57.958984" xlink:href="#DejaVuSans-105"/>
      <use x="85.742188" xlink:href="#DejaVuSans-109"/>
      <use x="183.154297" xlink:href="#DejaVuSans-101"/>
      <use x="244.677734" xlink:href="#DejaVuSans-32"/>
      <use x="276.464844" xlink:href="#DejaVuSans-100"/>
      <use x="339.941406" xlink:href="#DejaVuSans-105"/>
      <use x="367.724609" xlink:href="#DejaVuSans-102"/>
      <use x="402.929688" xlink:href="#DejaVuSans-102"/>
      <use x="438.134766" xlink:href="#DejaVuSans-101"/>
      <use x="499.658203" xlink:href="#DejaVuSans-114"/>
      <use x="538.521484" xlink:href="#DejaVuSans-101"/>
      <use x="600.044922" xlink:href="#DejaVuSans-110"/>
      <use x="663.423828" xlink:href="#DejaVuSans-99"/>
      <use x="718.404297" xlink:href="#DejaVuSans-101"/>
      <use x="779.927734" xlink:href="#DejaVuSans-32"/>
      <use x="811.714844" xlink:href="#DejaVuSans-40"/>
      <use x="850.728516" xlink:href="#DejaVuSans-109"/>
      <use x="948.140625" xlink:href="#DejaVuSans-105"/>
      <use x="975.923828" xlink:href="#DejaVuSans-110"/>
      <use x="1039.302734" xlink:href="#DejaVuSans-41"/>
     </g>
    </g>
   </g>
   <g id="matplotlib.axis_4">
    <g id="ytick_6">
     <g id="line2d_20">
      <g>
       <use style="stroke:#000000;stroke-width:0.8;" x="63.929209" xlink:href="#m2a0f9fc571" y="287.805818"/>
      </g>
     </g>
     <g id="text_24">
      <!-- $\mathdefault{10^{0}}$ -->
      <g transform="translate(39.329209 291.605037)scale(0.1 -0.1)">
       <use transform="translate(0 0.765625)" xlink:href="#DejaVuSans-49"/>
       <use transform="translate(63.623047 0.765625)" xlink:href="#DejaVuSans-48"/>
       <use transform="translate(128.203125 39.046875)scale(0.7)" xlink:href="#DejaVuSans-48"/>
      </g>
     </g>
    </g>
    <g id="ytick_7">
     <g id="line2d_21">
      <g>
       <use style="stroke:#000000;stroke-width:0.8;" x="63.929209" xlink:href="#m2a0f9fc571" y="206.368252"/>
      </g>
     </g>
     <g id="text_25">
      <!-- $\mathdefault{10^{1}}$ -->
      <g transform="translate(39.329209 210.16747)scale(0.1 -0.1)">
       <use transform="translate(0 0.684375)" xlink:href="#DejaVuSans-49"/>
       <use transform="translate(63.623047 0.684375)" xlink:href="#DejaVuSans-48"/>
       <use transform="translate(128.203125 38.965625)scale(0.7)" xlink:href="#DejaVuSans-49"/>
      </g>
     </g>
    </g>
    <g id="ytick_8">
     <g id="line2d_22">
      <defs>
       <path d="M 0 0 
L -2 0 
" id="m46ddddf5b9" style="stroke:#000000;stroke-width:0.6;"/>
      </defs>
      <g>
       <use style="stroke:#000000;stroke-width:0.6;" x="63.929209" xlink:href="#m46ddddf5b9" y="291.532197"/>
      </g>
     </g>
    </g>
    <g id="ytick_9">
     <g id="line2d_23">
      <g>
       <use style="stroke:#000000;stroke-width:0.6;" x="63.929209" xlink:href="#m46ddddf5b9" y="263.290668"/>
      </g>
     </g>
    </g>
    <g id="ytick_10">
     <g id="line2d_24">
      <g>
       <use style="stroke:#000000;stroke-width:0.6;" x="63.929209" xlink:href="#m46ddddf5b9" y="248.950224"/>
      </g>
     </g>
    </g>
    <g id="ytick_11">
     <g id="line2d_25">
      <g>
       <use style="stroke:#000000;stroke-width:0.6;" x="63.929209" xlink:href="#m46ddddf5b9" y="238.775518"/>
      </g>
     </g>
    </g>
    <g id="ytick_12">
     <g id="line2d_26">
      <g>
       <use style="stroke:#000000;stroke-width:0.6;" x="63.929209" xlink:href="#m46ddddf5b9" y="230.883402"/>
      </g>
     </g>
    </g>
    <g id="ytick_13">
     <g id="line2d_27">
      <g>
       <use style="stroke:#000000;stroke-width:0.6;" x="63.929209" xlink:href="#m46ddddf5b9" y="224.435074"/>
      </g>
     </g>
    </g>
    <g id="ytick_14">
     <g id="line2d_28">
      <g>
       <use style="stroke:#000000;stroke-width:0.6;" x="63.929209" xlink:href="#m46ddddf5b9" y="218.98309"/>
      </g>
     </g>
    </g>
    <g id="ytick_15">
     <g id="line2d_29">
      <g>
       <use style="stroke:#000000;stroke-width:0.6;" x="63.929209" xlink:href="#m46ddddf5b9" y="214.260367"/>
      </g>
     </g>
    </g>
    <g id="ytick_16">
     <g id="line2d_30">
      <g>
       <use style="stroke:#000000;stroke-width:0.6;" x="63.929209" xlink:href="#m46ddddf5b9" y="210.09463"/>
      </g>
     </g>
    </g>
    <g id="ytick_17">
     <g id="line2d_31">
      <g>
       <use style="stroke:#000000;stroke-width:0.6;" x="63.929209" xlink:href="#m46ddddf5b9" y="181.853101"/>
      </g>
     </g>
    </g>
    <g id="text_26">
     <!-- Frequency -->
     <g transform="translate(33.249522 258.973687)rotate(-90)scale(0.1 -0.1)">
      <defs>
       <path d="M 9.8125 72.90625 
L 51.703125 72.90625 
L 51.703125 64.59375 
L 19.671875 64.59375 
L 19.671875 43.109375 
L 48.578125 43.109375 
L 48.578125 34.8125 
L 19.671875 34.8125 
L 19.671875 0 
L 9.8125 0 
z
" id="DejaVuSans-70"/>
       <path d="M 14.796875 27.296875 
Q 14.796875 17.390625 18.875 11.75 
Q 22.953125 6.109375 30.078125 6.109375 
Q 37.203125 6.109375 41.296875 11.75 
Q 45.40625 17.390625 45.40625 27.296875 
Q 45.40625 37.203125 41.296875 42.84375 
Q 37.203125 48.484375 30.078125 48.484375 
Q 22.953125 48.484375 18.875 42.84375 
Q 14.796875 37.203125 14.796875 27.296875 
z
M 45.40625 8.203125 
Q 42.578125 3.328125 38.25 0.953125 
Q 33.9375 -1.421875 27.875 -1.421875 
Q 17.96875 -1.421875 11.734375 6.484375 
Q 5.515625 14.40625 5.515625 27.296875 
Q 5.515625 40.1875 11.734375 48.09375 
Q 17.96875 56 27.875 56 
Q 33.9375 56 38.25 53.625 
Q 42.578125 51.265625 45.40625 46.390625 
L 45.40625 54.6875 
L 54.390625 54.6875 
L 54.390625 -20.796875 
L 45.40625 -20.796875 
z
" id="DejaVuSans-113"/>
      </defs>
      <use xlink:href="#DejaVuSans-70"/>
      <use x="50.269531" xlink:href="#DejaVuSans-114"/>
      <use x="89.132812" xlink:href="#DejaVuSans-101"/>
      <use x="150.65625" xlink:href="#DejaVuSans-113"/>
      <use x="214.132812" xlink:href="#DejaVuSans-117"/>
      <use x="277.511719" xlink:href="#DejaVuSans-101"/>
      <use x="339.035156" xlink:href="#DejaVuSans-110"/>
      <use x="402.414062" xlink:href="#DejaVuSans-99"/>
      <use x="457.394531" xlink:href="#DejaVuSans-121"/>
     </g>
    </g>
   </g>
   <g id="patch_138">
    <path d="M 63.929209 293.272 
L 63.929209 173.016 
" style="fill:none;stroke:#000000;stroke-linecap:square;stroke-linejoin:miter;stroke-width:0.8;"/>
   </g>
   <g id="patch_139">
    <path d="M 450 293.272 
L 450 173.016 
" style="fill:none;stroke:#000000;stroke-linecap:square;stroke-linejoin:miter;stroke-width:0.8;"/>
   </g>
   <g id="patch_140">
    <path d="M 63.929209 293.272 
L 450 293.272 
" style="fill:none;stroke:#000000;stroke-linecap:square;stroke-linejoin:miter;stroke-width:0.8;"/>
   </g>
   <g id="patch_141">
    <path d="M 63.929209 173.016 
L 450 173.016 
" style="fill:none;stroke:#000000;stroke-linecap:square;stroke-linejoin:miter;stroke-width:0.8;"/>
   </g>
  </g>
 </g>
 <defs>
  <clipPath id="p56875514b9">
   <rect height="120.256" width="386.070791" x="63.929209" y="10.8"/>
  </clipPath>
  <clipPath id="pded4bd8250">
   <rect height="120.256" width="386.070791" x="63.929209" y="173.016"/>
  </clipPath>
 </defs>
</svg>
