<?xml version="1.0" encoding="utf-8" standalone="no"?>
<!DOCTYPE svg PUBLIC "-//W3C//DTD SVG 1.1//EN"
  "http://www.w3.org/Graphics/SVG/1.1/DTD/svg11.dtd">
<svg height="345.6pt" version="1.1" viewBox="0 0 460.8 345.6" width="460.8pt" xmlns="http://www.w3.org/2000/svg" xmlns:xlink="http://www.w3.org/1999/xlink">
 <metadata>
  <rdf:RDF xmlns:cc="http://creativecommons.org/ns#" xmlns:dc="http://purl.org/dc/elements/1.1/" xmlns:rdf="http://www.w3.org/1999/02/22-rdf-syntax-ns#">
   <cc:Work>
    <dc:type rdf:resource="http://purl.org/dc/dcmitype/StillImage"/>
    <dc:date>2021-09-13T18:57:50.448521</dc:date>
    <dc:format>image/svg+xml</dc:format>
    <dc:creator>
     <cc:Agent>
      <dc:title>Matplotlib v3.4.2, https://matplotlib.org/</dc:title>
     </cc:Agent>
    </dc:creator>
   </cc:Work>
  </rdf:RDF>
 </metadata>
 <defs>
  <style type="text/css">*{stroke-linecap:butt;stroke-linejoin:round;}</style>
 </defs>
 <g id="figure_1">
  <g id="patch_1">
   <path d="M 0 345.6 
L 460.8 345.6 
L 460.8 0 
L 0 0 
z
" style="fill:#ffffff;"/>
  </g>
  <g id="axes_1">
   <g id="patch_2">
    <path d="M 64.694 131.056 
L 450 131.056 
L 450 10.8 
L 64.694 10.8 
z
" style="fill:#ffffff;"/>
   </g>
   <g id="patch_3">
    <path clip-path="url(#p94e1b96efb)" d="M 82.207909 131.056 
L 93.883848 131.056 
L 93.883848 23.023755 
L 82.207909 23.023755 
z
" style="fill:#1f77b4;"/>
   </g>
   <g id="patch_4">
    <path clip-path="url(#p94e1b96efb)" d="M 93.883848 131.056 
L 105.559788 131.056 
L 105.559788 62.720167 
L 93.883848 62.720167 
z
" style="fill:#1f77b4;"/>
   </g>
   <g id="patch_5">
    <path clip-path="url(#p94e1b96efb)" d="M 105.559788 131.056 
L 117.235727 131.056 
L 117.235727 81.390169 
L 105.559788 81.390169 
z
" style="fill:#1f77b4;"/>
   </g>
   <g id="patch_6">
    <path clip-path="url(#p94e1b96efb)" d="M 117.235727 131.056 
L 128.911667 131.056 
L 128.911667 83.021528 
L 117.235727 83.021528 
z
" style="fill:#1f77b4;"/>
   </g>
   <g id="patch_7">
    <path clip-path="url(#p94e1b96efb)" d="M 128.911667 131.056 
L 140.587606 131.056 
L 140.587606 98.24755 
L 128.911667 98.24755 
z
" style="fill:#1f77b4;"/>
   </g>
   <g id="patch_8">
    <path clip-path="url(#p94e1b96efb)" d="M 140.587606 131.056 
L 152.263545 131.056 
L 152.263545 99.15386 
L 140.587606 99.15386 
z
" style="fill:#1f77b4;"/>
   </g>
   <g id="patch_9">
    <path clip-path="url(#p94e1b96efb)" d="M 152.263545 131.056 
L 163.939485 131.056 
L 163.939485 104.047939 
L 152.263545 104.047939 
z
" style="fill:#1f77b4;"/>
   </g>
   <g id="patch_10">
    <path clip-path="url(#p94e1b96efb)" d="M 163.939485 131.056 
L 175.615424 131.056 
L 175.615424 105.135512 
L 163.939485 105.135512 
z
" style="fill:#1f77b4;"/>
   </g>
   <g id="patch_11">
    <path clip-path="url(#p94e1b96efb)" d="M 175.615424 131.056 
L 187.291364 131.056 
L 187.291364 111.298425 
L 175.615424 111.298425 
z
" style="fill:#1f77b4;"/>
   </g>
   <g id="patch_12">
    <path clip-path="url(#p94e1b96efb)" d="M 187.291364 131.056 
L 198.967303 131.056 
L 198.967303 111.117163 
L 187.291364 111.117163 
z
" style="fill:#1f77b4;"/>
   </g>
   <g id="patch_13">
    <path clip-path="url(#p94e1b96efb)" d="M 198.967303 131.056 
L 210.643242 131.056 
L 210.643242 118.548911 
L 198.967303 118.548911 
z
" style="fill:#1f77b4;"/>
   </g>
   <g id="patch_14">
    <path clip-path="url(#p94e1b96efb)" d="M 210.643242 131.056 
L 222.319182 131.056 
L 222.319182 118.548911 
L 210.643242 118.548911 
z
" style="fill:#1f77b4;"/>
   </g>
   <g id="patch_15">
    <path clip-path="url(#p94e1b96efb)" d="M 222.319182 131.056 
L 233.995121 131.056 
L 233.995121 118.730173 
L 222.319182 118.730173 
z
" style="fill:#1f77b4;"/>
   </g>
   <g id="patch_16">
    <path clip-path="url(#p94e1b96efb)" d="M 233.995121 131.056 
L 245.671061 131.056 
L 245.671061 119.455222 
L 233.995121 119.455222 
z
" style="fill:#1f77b4;"/>
   </g>
   <g id="patch_17">
    <path clip-path="url(#p94e1b96efb)" d="M 245.671061 131.056 
L 257.347 131.056 
L 257.347 120.361533 
L 245.671061 120.361533 
z
" style="fill:#1f77b4;"/>
   </g>
   <g id="patch_18">
    <path clip-path="url(#p94e1b96efb)" d="M 257.347 131.056 
L 269.022939 131.056 
L 269.022939 121.449106 
L 257.347 121.449106 
z
" style="fill:#1f77b4;"/>
   </g>
   <g id="patch_19">
    <path clip-path="url(#p94e1b96efb)" d="M 269.022939 131.056 
L 280.698879 131.056 
L 280.698879 120.905319 
L 269.022939 120.905319 
z
" style="fill:#1f77b4;"/>
   </g>
   <g id="patch_20">
    <path clip-path="url(#p94e1b96efb)" d="M 280.698879 131.056 
L 292.374818 131.056 
L 292.374818 122.536679 
L 280.698879 122.536679 
z
" style="fill:#1f77b4;"/>
   </g>
   <g id="patch_21">
    <path clip-path="url(#p94e1b96efb)" d="M 292.374818 131.056 
L 304.050758 131.056 
L 304.050758 118.730173 
L 292.374818 118.730173 
z
" style="fill:#1f77b4;"/>
   </g>
   <g id="patch_22">
    <path clip-path="url(#p94e1b96efb)" d="M 304.050758 131.056 
L 315.726697 131.056 
L 315.726697 121.992892 
L 304.050758 121.992892 
z
" style="fill:#1f77b4;"/>
   </g>
   <g id="patch_23">
    <path clip-path="url(#p94e1b96efb)" d="M 315.726697 131.056 
L 327.402636 131.056 
L 327.402636 123.080465 
L 315.726697 123.080465 
z
" style="fill:#1f77b4;"/>
   </g>
   <g id="patch_24">
    <path clip-path="url(#p94e1b96efb)" d="M 327.402636 131.056 
L 339.078576 131.056 
L 339.078576 123.261727 
L 327.402636 123.261727 
z
" style="fill:#1f77b4;"/>
   </g>
   <g id="patch_25">
    <path clip-path="url(#p94e1b96efb)" d="M 339.078576 131.056 
L 350.754515 131.056 
L 350.754515 122.536679 
L 339.078576 122.536679 
z
" style="fill:#1f77b4;"/>
   </g>
   <g id="patch_26">
    <path clip-path="url(#p94e1b96efb)" d="M 350.754515 131.056 
L 362.430455 131.056 
L 362.430455 125.436873 
L 350.754515 125.436873 
z
" style="fill:#1f77b4;"/>
   </g>
   <g id="patch_27">
    <path clip-path="url(#p94e1b96efb)" d="M 362.430455 131.056 
L 374.106394 131.056 
L 374.106394 123.080465 
L 362.430455 123.080465 
z
" style="fill:#1f77b4;"/>
   </g>
   <g id="patch_28">
    <path clip-path="url(#p94e1b96efb)" d="M 374.106394 131.056 
L 385.782333 131.056 
L 385.782333 122.355416 
L 374.106394 122.355416 
z
" style="fill:#1f77b4;"/>
   </g>
   <g id="patch_29">
    <path clip-path="url(#p94e1b96efb)" d="M 385.782333 131.056 
L 397.458273 131.056 
L 397.458273 121.449106 
L 385.782333 121.449106 
z
" style="fill:#1f77b4;"/>
   </g>
   <g id="patch_30">
    <path clip-path="url(#p94e1b96efb)" d="M 397.458273 131.056 
L 409.134212 131.056 
L 409.134212 122.536679 
L 397.458273 122.536679 
z
" style="fill:#1f77b4;"/>
   </g>
   <g id="patch_31">
    <path clip-path="url(#p94e1b96efb)" d="M 409.134212 131.056 
L 420.810152 131.056 
L 420.810152 125.618135 
L 409.134212 125.618135 
z
" style="fill:#1f77b4;"/>
   </g>
   <g id="patch_32">
    <path clip-path="url(#p94e1b96efb)" d="M 420.810152 131.056 
L 432.486091 131.056 
L 432.486091 126.705708 
L 420.810152 126.705708 
z
" style="fill:#1f77b4;"/>
   </g>
   <g id="matplotlib.axis_1">
    <g id="xtick_1">
     <g id="line2d_1">
      <defs>
       <path d="M 0 0 
L 0 3.5 
" id="m0fdfc0047f" style="stroke:#000000;stroke-width:0.8;"/>
      </defs>
      <g>
       <use style="stroke:#000000;stroke-width:0.8;" x="127.896368" xlink:href="#m0fdfc0047f" y="131.056"/>
      </g>
     </g>
     <g id="text_1">
      <!-- 20 -->
      <g transform="translate(121.533868 145.654437)scale(0.1 -0.1)">
       <defs>
        <path d="M 1228 531 
L 3431 531 
L 3431 0 
L 469 0 
L 469 531 
Q 828 903 1448 1529 
Q 2069 2156 2228 2338 
Q 2531 2678 2651 2914 
Q 2772 3150 2772 3378 
Q 2772 3750 2511 3984 
Q 2250 4219 1831 4219 
Q 1534 4219 1204 4116 
Q 875 4013 500 3803 
L 500 4441 
Q 881 4594 1212 4672 
Q 1544 4750 1819 4750 
Q 2544 4750 2975 4387 
Q 3406 4025 3406 3419 
Q 3406 3131 3298 2873 
Q 3191 2616 2906 2266 
Q 2828 2175 2409 1742 
Q 1991 1309 1228 531 
z
" id="DejaVuSans-32" transform="scale(0.015625)"/>
        <path d="M 2034 4250 
Q 1547 4250 1301 3770 
Q 1056 3291 1056 2328 
Q 1056 1369 1301 889 
Q 1547 409 2034 409 
Q 2525 409 2770 889 
Q 3016 1369 3016 2328 
Q 3016 3291 2770 3770 
Q 2525 4250 2034 4250 
z
M 2034 4750 
Q 2819 4750 3233 4129 
Q 3647 3509 3647 2328 
Q 3647 1150 3233 529 
Q 2819 -91 2034 -91 
Q 1250 -91 836 529 
Q 422 1150 422 2328 
Q 422 3509 836 4129 
Q 1250 4750 2034 4750 
z
" id="DejaVuSans-30" transform="scale(0.015625)"/>
       </defs>
       <use xlink:href="#DejaVuSans-32"/>
       <use x="63.623047" xlink:href="#DejaVuSans-30"/>
      </g>
     </g>
    </g>
    <g id="xtick_2">
     <g id="line2d_2">
      <g>
       <use style="stroke:#000000;stroke-width:0.8;" x="204.043798" xlink:href="#m0fdfc0047f" y="131.056"/>
      </g>
     </g>
     <g id="text_2">
      <!-- 40 -->
      <g transform="translate(197.681298 145.654437)scale(0.1 -0.1)">
       <defs>
        <path d="M 2419 4116 
L 825 1625 
L 2419 1625 
L 2419 4116 
z
M 2253 4666 
L 3047 4666 
L 3047 1625 
L 3713 1625 
L 3713 1100 
L 3047 1100 
L 3047 0 
L 2419 0 
L 2419 1100 
L 313 1100 
L 313 1709 
L 2253 4666 
z
" id="DejaVuSans-34" transform="scale(0.015625)"/>
       </defs>
       <use xlink:href="#DejaVuSans-34"/>
       <use x="63.623047" xlink:href="#DejaVuSans-30"/>
      </g>
     </g>
    </g>
    <g id="xtick_3">
     <g id="line2d_3">
      <g>
       <use style="stroke:#000000;stroke-width:0.8;" x="280.191229" xlink:href="#m0fdfc0047f" y="131.056"/>
      </g>
     </g>
     <g id="text_3">
      <!-- 60 -->
      <g transform="translate(273.828729 145.654437)scale(0.1 -0.1)">
       <defs>
        <path d="M 2113 2584 
Q 1688 2584 1439 2293 
Q 1191 2003 1191 1497 
Q 1191 994 1439 701 
Q 1688 409 2113 409 
Q 2538 409 2786 701 
Q 3034 994 3034 1497 
Q 3034 2003 2786 2293 
Q 2538 2584 2113 2584 
z
M 3366 4563 
L 3366 3988 
Q 3128 4100 2886 4159 
Q 2644 4219 2406 4219 
Q 1781 4219 1451 3797 
Q 1122 3375 1075 2522 
Q 1259 2794 1537 2939 
Q 1816 3084 2150 3084 
Q 2853 3084 3261 2657 
Q 3669 2231 3669 1497 
Q 3669 778 3244 343 
Q 2819 -91 2113 -91 
Q 1303 -91 875 529 
Q 447 1150 447 2328 
Q 447 3434 972 4092 
Q 1497 4750 2381 4750 
Q 2619 4750 2861 4703 
Q 3103 4656 3366 4563 
z
" id="DejaVuSans-36" transform="scale(0.015625)"/>
       </defs>
       <use xlink:href="#DejaVuSans-36"/>
       <use x="63.623047" xlink:href="#DejaVuSans-30"/>
      </g>
     </g>
    </g>
    <g id="xtick_4">
     <g id="line2d_4">
      <g>
       <use style="stroke:#000000;stroke-width:0.8;" x="356.33866" xlink:href="#m0fdfc0047f" y="131.056"/>
      </g>
     </g>
     <g id="text_4">
      <!-- 80 -->
      <g transform="translate(349.97616 145.654437)scale(0.1 -0.1)">
       <defs>
        <path d="M 2034 2216 
Q 1584 2216 1326 1975 
Q 1069 1734 1069 1313 
Q 1069 891 1326 650 
Q 1584 409 2034 409 
Q 2484 409 2743 651 
Q 3003 894 3003 1313 
Q 3003 1734 2745 1975 
Q 2488 2216 2034 2216 
z
M 1403 2484 
Q 997 2584 770 2862 
Q 544 3141 544 3541 
Q 544 4100 942 4425 
Q 1341 4750 2034 4750 
Q 2731 4750 3128 4425 
Q 3525 4100 3525 3541 
Q 3525 3141 3298 2862 
Q 3072 2584 2669 2484 
Q 3125 2378 3379 2068 
Q 3634 1759 3634 1313 
Q 3634 634 3220 271 
Q 2806 -91 2034 -91 
Q 1263 -91 848 271 
Q 434 634 434 1313 
Q 434 1759 690 2068 
Q 947 2378 1403 2484 
z
M 1172 3481 
Q 1172 3119 1398 2916 
Q 1625 2713 2034 2713 
Q 2441 2713 2670 2916 
Q 2900 3119 2900 3481 
Q 2900 3844 2670 4047 
Q 2441 4250 2034 4250 
Q 1625 4250 1398 4047 
Q 1172 3844 1172 3481 
z
" id="DejaVuSans-38" transform="scale(0.015625)"/>
       </defs>
       <use xlink:href="#DejaVuSans-38"/>
       <use x="63.623047" xlink:href="#DejaVuSans-30"/>
      </g>
     </g>
    </g>
    <g id="xtick_5">
     <g id="line2d_5">
      <g>
       <use style="stroke:#000000;stroke-width:0.8;" x="432.486091" xlink:href="#m0fdfc0047f" y="131.056"/>
      </g>
     </g>
     <g id="text_5">
      <!-- 100 -->
      <g transform="translate(422.942341 145.654437)scale(0.1 -0.1)">
       <defs>
        <path d="M 794 531 
L 1825 531 
L 1825 4091 
L 703 3866 
L 703 4441 
L 1819 4666 
L 2450 4666 
L 2450 531 
L 3481 531 
L 3481 0 
L 794 0 
L 794 531 
z
" id="DejaVuSans-31" transform="scale(0.015625)"/>
       </defs>
       <use xlink:href="#DejaVuSans-31"/>
       <use x="63.623047" xlink:href="#DejaVuSans-30"/>
       <use x="127.246094" xlink:href="#DejaVuSans-30"/>
      </g>
     </g>
    </g>
    <g id="text_6">
     <!-- Mean lifetime (us) -->
     <g transform="translate(211.9595 159.332562)scale(0.1 -0.1)">
      <defs>
       <path d="M 628 4666 
L 1569 4666 
L 2759 1491 
L 3956 4666 
L 4897 4666 
L 4897 0 
L 4281 0 
L 4281 4097 
L 3078 897 
L 2444 897 
L 1241 4097 
L 1241 0 
L 628 0 
L 628 4666 
z
" id="DejaVuSans-4d" transform="scale(0.015625)"/>
       <path d="M 3597 1894 
L 3597 1613 
L 953 1613 
Q 991 1019 1311 708 
Q 1631 397 2203 397 
Q 2534 397 2845 478 
Q 3156 559 3463 722 
L 3463 178 
Q 3153 47 2828 -22 
Q 2503 -91 2169 -91 
Q 1331 -91 842 396 
Q 353 884 353 1716 
Q 353 2575 817 3079 
Q 1281 3584 2069 3584 
Q 2775 3584 3186 3129 
Q 3597 2675 3597 1894 
z
M 3022 2063 
Q 3016 2534 2758 2815 
Q 2500 3097 2075 3097 
Q 1594 3097 1305 2825 
Q 1016 2553 972 2059 
L 3022 2063 
z
" id="DejaVuSans-65" transform="scale(0.015625)"/>
       <path d="M 2194 1759 
Q 1497 1759 1228 1600 
Q 959 1441 959 1056 
Q 959 750 1161 570 
Q 1363 391 1709 391 
Q 2188 391 2477 730 
Q 2766 1069 2766 1631 
L 2766 1759 
L 2194 1759 
z
M 3341 1997 
L 3341 0 
L 2766 0 
L 2766 531 
Q 2569 213 2275 61 
Q 1981 -91 1556 -91 
Q 1019 -91 701 211 
Q 384 513 384 1019 
Q 384 1609 779 1909 
Q 1175 2209 1959 2209 
L 2766 2209 
L 2766 2266 
Q 2766 2663 2505 2880 
Q 2244 3097 1772 3097 
Q 1472 3097 1187 3025 
Q 903 2953 641 2809 
L 641 3341 
Q 956 3463 1253 3523 
Q 1550 3584 1831 3584 
Q 2591 3584 2966 3190 
Q 3341 2797 3341 1997 
z
" id="DejaVuSans-61" transform="scale(0.015625)"/>
       <path d="M 3513 2113 
L 3513 0 
L 2938 0 
L 2938 2094 
Q 2938 2591 2744 2837 
Q 2550 3084 2163 3084 
Q 1697 3084 1428 2787 
Q 1159 2491 1159 1978 
L 1159 0 
L 581 0 
L 581 3500 
L 1159 3500 
L 1159 2956 
Q 1366 3272 1645 3428 
Q 1925 3584 2291 3584 
Q 2894 3584 3203 3211 
Q 3513 2838 3513 2113 
z
" id="DejaVuSans-6e" transform="scale(0.015625)"/>
       <path id="DejaVuSans-20" transform="scale(0.015625)"/>
       <path d="M 603 4863 
L 1178 4863 
L 1178 0 
L 603 0 
L 603 4863 
z
" id="DejaVuSans-6c" transform="scale(0.015625)"/>
       <path d="M 603 3500 
L 1178 3500 
L 1178 0 
L 603 0 
L 603 3500 
z
M 603 4863 
L 1178 4863 
L 1178 4134 
L 603 4134 
L 603 4863 
z
" id="DejaVuSans-69" transform="scale(0.015625)"/>
       <path d="M 2375 4863 
L 2375 4384 
L 1825 4384 
Q 1516 4384 1395 4259 
Q 1275 4134 1275 3809 
L 1275 3500 
L 2222 3500 
L 2222 3053 
L 1275 3053 
L 1275 0 
L 697 0 
L 697 3053 
L 147 3053 
L 147 3500 
L 697 3500 
L 697 3744 
Q 697 4328 969 4595 
Q 1241 4863 1831 4863 
L 2375 4863 
z
" id="DejaVuSans-66" transform="scale(0.015625)"/>
       <path d="M 1172 4494 
L 1172 3500 
L 2356 3500 
L 2356 3053 
L 1172 3053 
L 1172 1153 
Q 1172 725 1289 603 
Q 1406 481 1766 481 
L 2356 481 
L 2356 0 
L 1766 0 
Q 1100 0 847 248 
Q 594 497 594 1153 
L 594 3053 
L 172 3053 
L 172 3500 
L 594 3500 
L 594 4494 
L 1172 4494 
z
" id="DejaVuSans-74" transform="scale(0.015625)"/>
       <path d="M 3328 2828 
Q 3544 3216 3844 3400 
Q 4144 3584 4550 3584 
Q 5097 3584 5394 3201 
Q 5691 2819 5691 2113 
L 5691 0 
L 5113 0 
L 5113 2094 
Q 5113 2597 4934 2840 
Q 4756 3084 4391 3084 
Q 3944 3084 3684 2787 
Q 3425 2491 3425 1978 
L 3425 0 
L 2847 0 
L 2847 2094 
Q 2847 2600 2669 2842 
Q 2491 3084 2119 3084 
Q 1678 3084 1418 2786 
Q 1159 2488 1159 1978 
L 1159 0 
L 581 0 
L 581 3500 
L 1159 3500 
L 1159 2956 
Q 1356 3278 1631 3431 
Q 1906 3584 2284 3584 
Q 2666 3584 2933 3390 
Q 3200 3197 3328 2828 
z
" id="DejaVuSans-6d" transform="scale(0.015625)"/>
       <path d="M 1984 4856 
Q 1566 4138 1362 3434 
Q 1159 2731 1159 2009 
Q 1159 1288 1364 580 
Q 1569 -128 1984 -844 
L 1484 -844 
Q 1016 -109 783 600 
Q 550 1309 550 2009 
Q 550 2706 781 3412 
Q 1013 4119 1484 4856 
L 1984 4856 
z
" id="DejaVuSans-28" transform="scale(0.015625)"/>
       <path d="M 544 1381 
L 544 3500 
L 1119 3500 
L 1119 1403 
Q 1119 906 1312 657 
Q 1506 409 1894 409 
Q 2359 409 2629 706 
Q 2900 1003 2900 1516 
L 2900 3500 
L 3475 3500 
L 3475 0 
L 2900 0 
L 2900 538 
Q 2691 219 2414 64 
Q 2138 -91 1772 -91 
Q 1169 -91 856 284 
Q 544 659 544 1381 
z
M 1991 3584 
L 1991 3584 
z
" id="DejaVuSans-75" transform="scale(0.015625)"/>
       <path d="M 2834 3397 
L 2834 2853 
Q 2591 2978 2328 3040 
Q 2066 3103 1784 3103 
Q 1356 3103 1142 2972 
Q 928 2841 928 2578 
Q 928 2378 1081 2264 
Q 1234 2150 1697 2047 
L 1894 2003 
Q 2506 1872 2764 1633 
Q 3022 1394 3022 966 
Q 3022 478 2636 193 
Q 2250 -91 1575 -91 
Q 1294 -91 989 -36 
Q 684 19 347 128 
L 347 722 
Q 666 556 975 473 
Q 1284 391 1588 391 
Q 1994 391 2212 530 
Q 2431 669 2431 922 
Q 2431 1156 2273 1281 
Q 2116 1406 1581 1522 
L 1381 1569 
Q 847 1681 609 1914 
Q 372 2147 372 2553 
Q 372 3047 722 3315 
Q 1072 3584 1716 3584 
Q 2034 3584 2315 3537 
Q 2597 3491 2834 3397 
z
" id="DejaVuSans-73" transform="scale(0.015625)"/>
       <path d="M 513 4856 
L 1013 4856 
Q 1481 4119 1714 3412 
Q 1947 2706 1947 2009 
Q 1947 1309 1714 600 
Q 1481 -109 1013 -844 
L 513 -844 
Q 928 -128 1133 580 
Q 1338 1288 1338 2009 
Q 1338 2731 1133 3434 
Q 928 4138 513 4856 
z
" id="DejaVuSans-29" transform="scale(0.015625)"/>
      </defs>
      <use xlink:href="#DejaVuSans-4d"/>
      <use x="86.279297" xlink:href="#DejaVuSans-65"/>
      <use x="147.802734" xlink:href="#DejaVuSans-61"/>
      <use x="209.082031" xlink:href="#DejaVuSans-6e"/>
      <use x="272.460938" xlink:href="#DejaVuSans-20"/>
      <use x="304.248047" xlink:href="#DejaVuSans-6c"/>
      <use x="332.03125" xlink:href="#DejaVuSans-69"/>
      <use x="359.814453" xlink:href="#DejaVuSans-66"/>
      <use x="395.019531" xlink:href="#DejaVuSans-65"/>
      <use x="456.542969" xlink:href="#DejaVuSans-74"/>
      <use x="495.751953" xlink:href="#DejaVuSans-69"/>
      <use x="523.535156" xlink:href="#DejaVuSans-6d"/>
      <use x="620.947266" xlink:href="#DejaVuSans-65"/>
      <use x="682.470703" xlink:href="#DejaVuSans-20"/>
      <use x="714.257812" xlink:href="#DejaVuSans-28"/>
      <use x="753.271484" xlink:href="#DejaVuSans-75"/>
      <use x="816.650391" xlink:href="#DejaVuSans-73"/>
      <use x="868.75" xlink:href="#DejaVuSans-29"/>
     </g>
    </g>
   </g>
   <g id="matplotlib.axis_2">
    <g id="ytick_1">
     <g id="line2d_6">
      <defs>
       <path d="M 0 0 
L -3.5 0 
" id="m84be295e50" style="stroke:#000000;stroke-width:0.8;"/>
      </defs>
      <g>
       <use style="stroke:#000000;stroke-width:0.8;" x="64.694" xlink:href="#m84be295e50" y="131.056"/>
      </g>
     </g>
     <g id="text_7">
      <!-- 0 -->
      <g transform="translate(51.3315 134.855219)scale(0.1 -0.1)">
       <use xlink:href="#DejaVuSans-30"/>
      </g>
     </g>
    </g>
    <g id="ytick_2">
     <g id="line2d_7">
      <g>
       <use style="stroke:#000000;stroke-width:0.8;" x="64.694" xlink:href="#m84be295e50" y="94.803569"/>
      </g>
     </g>
     <g id="text_8">
      <!-- 200 -->
      <g transform="translate(38.6065 98.602787)scale(0.1 -0.1)">
       <use xlink:href="#DejaVuSans-32"/>
       <use x="63.623047" xlink:href="#DejaVuSans-30"/>
       <use x="127.246094" xlink:href="#DejaVuSans-30"/>
      </g>
     </g>
    </g>
    <g id="ytick_3">
     <g id="line2d_8">
      <g>
       <use style="stroke:#000000;stroke-width:0.8;" x="64.694" xlink:href="#m84be295e50" y="58.551137"/>
      </g>
     </g>
     <g id="text_9">
      <!-- 400 -->
      <g transform="translate(38.6065 62.350356)scale(0.1 -0.1)">
       <use xlink:href="#DejaVuSans-34"/>
       <use x="63.623047" xlink:href="#DejaVuSans-30"/>
       <use x="127.246094" xlink:href="#DejaVuSans-30"/>
      </g>
     </g>
    </g>
    <g id="ytick_4">
     <g id="line2d_9">
      <g>
       <use style="stroke:#000000;stroke-width:0.8;" x="64.694" xlink:href="#m84be295e50" y="22.298706"/>
      </g>
     </g>
     <g id="text_10">
      <!-- 600 -->
      <g transform="translate(38.6065 26.097925)scale(0.1 -0.1)">
       <use xlink:href="#DejaVuSans-36"/>
       <use x="63.623047" xlink:href="#DejaVuSans-30"/>
       <use x="127.246094" xlink:href="#DejaVuSans-30"/>
      </g>
     </g>
    </g>
    <g id="text_11">
     <!-- Number of decays -->
     <g transform="translate(32.526812 116.639719)rotate(-90)scale(0.1 -0.1)">
      <defs>
       <path d="M 628 4666 
L 1478 4666 
L 3547 763 
L 3547 4666 
L 4159 4666 
L 4159 0 
L 3309 0 
L 1241 3903 
L 1241 0 
L 628 0 
L 628 4666 
z
" id="DejaVuSans-4e" transform="scale(0.015625)"/>
       <path d="M 3116 1747 
Q 3116 2381 2855 2742 
Q 2594 3103 2138 3103 
Q 1681 3103 1420 2742 
Q 1159 2381 1159 1747 
Q 1159 1113 1420 752 
Q 1681 391 2138 391 
Q 2594 391 2855 752 
Q 3116 1113 3116 1747 
z
M 1159 2969 
Q 1341 3281 1617 3432 
Q 1894 3584 2278 3584 
Q 2916 3584 3314 3078 
Q 3713 2572 3713 1747 
Q 3713 922 3314 415 
Q 2916 -91 2278 -91 
Q 1894 -91 1617 61 
Q 1341 213 1159 525 
L 1159 0 
L 581 0 
L 581 4863 
L 1159 4863 
L 1159 2969 
z
" id="DejaVuSans-62" transform="scale(0.015625)"/>
       <path d="M 2631 2963 
Q 2534 3019 2420 3045 
Q 2306 3072 2169 3072 
Q 1681 3072 1420 2755 
Q 1159 2438 1159 1844 
L 1159 0 
L 581 0 
L 581 3500 
L 1159 3500 
L 1159 2956 
Q 1341 3275 1631 3429 
Q 1922 3584 2338 3584 
Q 2397 3584 2469 3576 
Q 2541 3569 2628 3553 
L 2631 2963 
z
" id="DejaVuSans-72" transform="scale(0.015625)"/>
       <path d="M 1959 3097 
Q 1497 3097 1228 2736 
Q 959 2375 959 1747 
Q 959 1119 1226 758 
Q 1494 397 1959 397 
Q 2419 397 2687 759 
Q 2956 1122 2956 1747 
Q 2956 2369 2687 2733 
Q 2419 3097 1959 3097 
z
M 1959 3584 
Q 2709 3584 3137 3096 
Q 3566 2609 3566 1747 
Q 3566 888 3137 398 
Q 2709 -91 1959 -91 
Q 1206 -91 779 398 
Q 353 888 353 1747 
Q 353 2609 779 3096 
Q 1206 3584 1959 3584 
z
" id="DejaVuSans-6f" transform="scale(0.015625)"/>
       <path d="M 2906 2969 
L 2906 4863 
L 3481 4863 
L 3481 0 
L 2906 0 
L 2906 525 
Q 2725 213 2448 61 
Q 2172 -91 1784 -91 
Q 1150 -91 751 415 
Q 353 922 353 1747 
Q 353 2572 751 3078 
Q 1150 3584 1784 3584 
Q 2172 3584 2448 3432 
Q 2725 3281 2906 2969 
z
M 947 1747 
Q 947 1113 1208 752 
Q 1469 391 1925 391 
Q 2381 391 2643 752 
Q 2906 1113 2906 1747 
Q 2906 2381 2643 2742 
Q 2381 3103 1925 3103 
Q 1469 3103 1208 2742 
Q 947 2381 947 1747 
z
" id="DejaVuSans-64" transform="scale(0.015625)"/>
       <path d="M 3122 3366 
L 3122 2828 
Q 2878 2963 2633 3030 
Q 2388 3097 2138 3097 
Q 1578 3097 1268 2742 
Q 959 2388 959 1747 
Q 959 1106 1268 751 
Q 1578 397 2138 397 
Q 2388 397 2633 464 
Q 2878 531 3122 666 
L 3122 134 
Q 2881 22 2623 -34 
Q 2366 -91 2075 -91 
Q 1284 -91 818 406 
Q 353 903 353 1747 
Q 353 2603 823 3093 
Q 1294 3584 2113 3584 
Q 2378 3584 2631 3529 
Q 2884 3475 3122 3366 
z
" id="DejaVuSans-63" transform="scale(0.015625)"/>
       <path d="M 2059 -325 
Q 1816 -950 1584 -1140 
Q 1353 -1331 966 -1331 
L 506 -1331 
L 506 -850 
L 844 -850 
Q 1081 -850 1212 -737 
Q 1344 -625 1503 -206 
L 1606 56 
L 191 3500 
L 800 3500 
L 1894 763 
L 2988 3500 
L 3597 3500 
L 2059 -325 
z
" id="DejaVuSans-79" transform="scale(0.015625)"/>
      </defs>
      <use xlink:href="#DejaVuSans-4e"/>
      <use x="74.804688" xlink:href="#DejaVuSans-75"/>
      <use x="138.183594" xlink:href="#DejaVuSans-6d"/>
      <use x="235.595703" xlink:href="#DejaVuSans-62"/>
      <use x="299.072266" xlink:href="#DejaVuSans-65"/>
      <use x="360.595703" xlink:href="#DejaVuSans-72"/>
      <use x="401.708984" xlink:href="#DejaVuSans-20"/>
      <use x="433.496094" xlink:href="#DejaVuSans-6f"/>
      <use x="494.677734" xlink:href="#DejaVuSans-66"/>
      <use x="529.882812" xlink:href="#DejaVuSans-20"/>
      <use x="561.669922" xlink:href="#DejaVuSans-64"/>
      <use x="625.146484" xlink:href="#DejaVuSans-65"/>
      <use x="686.669922" xlink:href="#DejaVuSans-63"/>
      <use x="741.650391" xlink:href="#DejaVuSans-61"/>
      <use x="802.929688" xlink:href="#DejaVuSans-79"/>
      <use x="862.109375" xlink:href="#DejaVuSans-73"/>
     </g>
    </g>
   </g>
   <g id="LineCollection_1">
    <path clip-path="url(#p94e1b96efb)" d="M 88.045879 27.448928 
L 88.045879 18.598581 
" style="fill:none;stroke:#000000;stroke-width:1.5;"/>
    <path clip-path="url(#p94e1b96efb)" d="M 99.721818 66.239641 
L 99.721818 59.200692 
" style="fill:none;stroke:#000000;stroke-width:1.5;"/>
    <path clip-path="url(#p94e1b96efb)" d="M 111.397758 84.390592 
L 111.397758 78.389746 
" style="fill:none;stroke:#000000;stroke-width:1.5;"/>
    <path clip-path="url(#p94e1b96efb)" d="M 123.073697 85.972263 
L 123.073697 80.070794 
" style="fill:none;stroke:#000000;stroke-width:1.5;"/>
    <path clip-path="url(#p94e1b96efb)" d="M 134.749636 100.686183 
L 134.749636 95.808917 
" style="fill:none;stroke:#000000;stroke-width:1.5;"/>
    <path clip-path="url(#p94e1b96efb)" d="M 146.425576 101.558575 
L 146.425576 96.749146 
" style="fill:none;stroke:#000000;stroke-width:1.5;"/>
    <path clip-path="url(#p94e1b96efb)" d="M 158.101515 106.260525 
L 158.101515 101.835352 
" style="fill:none;stroke:#000000;stroke-width:1.5;"/>
    <path clip-path="url(#p94e1b96efb)" d="M 169.777455 107.303092 
L 169.777455 102.967931 
" style="fill:none;stroke:#000000;stroke-width:1.5;"/>
    <path clip-path="url(#p94e1b96efb)" d="M 181.453394 113.190857 
L 181.453394 109.405992 
" style="fill:none;stroke:#000000;stroke-width:1.5;"/>
    <path clip-path="url(#p94e1b96efb)" d="M 193.129333 113.018256 
L 193.129333 109.216069 
" style="fill:none;stroke:#000000;stroke-width:1.5;"/>
    <path clip-path="url(#p94e1b96efb)" d="M 204.805273 120.054588 
L 204.805273 117.043235 
" style="fill:none;stroke:#000000;stroke-width:1.5;"/>
    <path clip-path="url(#p94e1b96efb)" d="M 216.481212 120.054588 
L 216.481212 117.043235 
" style="fill:none;stroke:#000000;stroke-width:1.5;"/>
    <path clip-path="url(#p94e1b96efb)" d="M 228.157152 120.224899 
L 228.157152 117.235447 
" style="fill:none;stroke:#000000;stroke-width:1.5;"/>
    <path clip-path="url(#p94e1b96efb)" d="M 239.833091 120.905319 
L 239.833091 118.005125 
" style="fill:none;stroke:#000000;stroke-width:1.5;"/>
    <path clip-path="url(#p94e1b96efb)" d="M 251.50903 121.753834 
L 251.50903 118.969232 
" style="fill:none;stroke:#000000;stroke-width:1.5;"/>
    <path clip-path="url(#p94e1b96efb)" d="M 263.18497 122.768714 
L 263.18497 120.129497 
" style="fill:none;stroke:#000000;stroke-width:1.5;"/>
    <path clip-path="url(#p94e1b96efb)" d="M 274.860909 122.261761 
L 274.860909 119.548877 
" style="fill:none;stroke:#000000;stroke-width:1.5;"/>
    <path clip-path="url(#p94e1b96efb)" d="M 286.536848 123.779349 
L 286.536848 121.294008 
" style="fill:none;stroke:#000000;stroke-width:1.5;"/>
    <path clip-path="url(#p94e1b96efb)" d="M 298.212788 120.224899 
L 298.212788 117.235447 
" style="fill:none;stroke:#000000;stroke-width:1.5;"/>
    <path clip-path="url(#p94e1b96efb)" d="M 309.888727 123.274609 
L 309.888727 120.711175 
" style="fill:none;stroke:#000000;stroke-width:1.5;"/>
    <path clip-path="url(#p94e1b96efb)" d="M 321.564667 124.282822 
L 321.564667 121.878108 
" style="fill:none;stroke:#000000;stroke-width:1.5;"/>
    <path clip-path="url(#p94e1b96efb)" d="M 333.240606 124.450343 
L 333.240606 122.073112 
" style="fill:none;stroke:#000000;stroke-width:1.5;"/>
    <path clip-path="url(#p94e1b96efb)" d="M 344.916545 123.779349 
L 344.916545 121.294008 
" style="fill:none;stroke:#000000;stroke-width:1.5;"/>
    <path clip-path="url(#p94e1b96efb)" d="M 356.592485 126.446098 
L 356.592485 124.427648 
" style="fill:none;stroke:#000000;stroke-width:1.5;"/>
    <path clip-path="url(#p94e1b96efb)" d="M 368.268424 124.282822 
L 368.268424 121.878108 
" style="fill:none;stroke:#000000;stroke-width:1.5;"/>
    <path clip-path="url(#p94e1b96efb)" d="M 379.944364 123.611238 
L 379.944364 121.099595 
" style="fill:none;stroke:#000000;stroke-width:1.5;"/>
    <path clip-path="url(#p94e1b96efb)" d="M 391.620303 122.768714 
L 391.620303 120.129497 
" style="fill:none;stroke:#000000;stroke-width:1.5;"/>
    <path clip-path="url(#p94e1b96efb)" d="M 403.296242 123.779349 
L 403.296242 121.294008 
" style="fill:none;stroke:#000000;stroke-width:1.5;"/>
    <path clip-path="url(#p94e1b96efb)" d="M 414.972182 126.610949 
L 414.972182 124.625322 
" style="fill:none;stroke:#000000;stroke-width:1.5;"/>
    <path clip-path="url(#p94e1b96efb)" d="M 426.648121 127.593708 
L 426.648121 125.817709 
" style="fill:none;stroke:#000000;stroke-width:1.5;"/>
   </g>
   <g id="line2d_10">
    <path clip-path="url(#p94e1b96efb)" d="M 82.207909 16.526476 
L 93.883848 43.986071 
L 105.559788 64.311083 
L 117.235727 79.355227 
L 128.911667 90.490584 
L 140.587606 98.73274 
L 152.263545 104.83341 
L 163.939485 109.348997 
L 175.615424 112.691338 
L 187.291364 115.165269 
L 198.967303 116.99642 
L 210.643242 118.3518 
L 222.319182 119.355023 
L 233.995121 120.097587 
L 245.671061 120.647218 
L 257.347 121.054043 
L 269.022939 121.355166 
L 280.698879 121.578051 
L 292.374818 121.743026 
L 304.050758 121.865137 
L 315.726697 121.955521 
L 327.402636 122.022421 
L 339.078576 122.071939 
L 350.754515 122.108591 
L 362.430455 122.135721 
L 374.106394 122.155801 
L 385.782333 122.170664 
L 397.458273 122.181666 
L 409.134212 122.189809 
L 420.810152 122.195836 
L 432.486091 122.200297 
" style="fill:none;stroke:#ff8c00;stroke-linecap:square;stroke-width:2;"/>
   </g>
   <g id="line2d_11"/>
   <g id="patch_33">
    <path d="M 64.694 131.056 
L 64.694 10.8 
" style="fill:none;stroke:#000000;stroke-linecap:square;stroke-linejoin:miter;stroke-width:0.8;"/>
   </g>
   <g id="patch_34">
    <path d="M 450 131.056 
L 450 10.8 
" style="fill:none;stroke:#000000;stroke-linecap:square;stroke-linejoin:miter;stroke-width:0.8;"/>
   </g>
   <g id="patch_35">
    <path d="M 64.694 131.056 
L 450 131.056 
" style="fill:none;stroke:#000000;stroke-linecap:square;stroke-linejoin:miter;stroke-width:0.8;"/>
   </g>
   <g id="patch_36">
    <path d="M 64.694 10.8 
L 450 10.8 
" style="fill:none;stroke:#000000;stroke-linecap:square;stroke-linejoin:miter;stroke-width:0.8;"/>
   </g>
   <g id="text_12">
    <!-- $y = ae^{-\lambda x}+c; T_{½}\doteq $10.1929 -->
    <g transform="translate(211.658542 22.842492)scale(0.1 -0.1)">
     <defs>
      <path d="M 1588 -325 
Q 1188 -997 936 -1164 
Q 684 -1331 294 -1331 
L -159 -1331 
L -63 -850 
L 269 -850 
Q 509 -850 678 -719 
Q 847 -588 1056 -206 
L 1234 128 
L 459 3500 
L 1069 3500 
L 1650 819 
L 3256 3500 
L 3859 3500 
L 1588 -325 
z
" id="DejaVuSans-Oblique-79" transform="scale(0.015625)"/>
      <path d="M 678 2906 
L 4684 2906 
L 4684 2381 
L 678 2381 
L 678 2906 
z
M 678 1631 
L 4684 1631 
L 4684 1100 
L 678 1100 
L 678 1631 
z
" id="DejaVuSans-3d" transform="scale(0.015625)"/>
      <path d="M 3438 1997 
L 3047 0 
L 2472 0 
L 2578 531 
Q 2325 219 2001 64 
Q 1678 -91 1281 -91 
Q 834 -91 548 182 
Q 263 456 263 884 
Q 263 1497 752 1853 
Q 1241 2209 2100 2209 
L 2900 2209 
L 2931 2363 
Q 2938 2388 2941 2417 
Q 2944 2447 2944 2509 
Q 2944 2788 2717 2942 
Q 2491 3097 2081 3097 
Q 1800 3097 1504 3025 
Q 1209 2953 897 2809 
L 997 3341 
Q 1322 3463 1633 3523 
Q 1944 3584 2234 3584 
Q 2853 3584 3176 3315 
Q 3500 3047 3500 2534 
Q 3500 2431 3484 2292 
Q 3469 2153 3438 1997 
z
M 2816 1759 
L 2241 1759 
Q 1534 1759 1195 1570 
Q 856 1381 856 984 
Q 856 709 1029 553 
Q 1203 397 1509 397 
Q 1978 397 2328 733 
Q 2678 1069 2791 1631 
L 2816 1759 
z
" id="DejaVuSans-Oblique-61" transform="scale(0.015625)"/>
      <path d="M 3078 2063 
Q 3088 2113 3092 2166 
Q 3097 2219 3097 2272 
Q 3097 2653 2873 2875 
Q 2650 3097 2266 3097 
Q 1838 3097 1509 2826 
Q 1181 2556 1013 2059 
L 3078 2063 
z
M 3578 1613 
L 903 1613 
Q 884 1494 878 1425 
Q 872 1356 872 1306 
Q 872 872 1139 634 
Q 1406 397 1894 397 
Q 2269 397 2603 481 
Q 2938 566 3225 728 
L 3116 159 
Q 2806 34 2476 -28 
Q 2147 -91 1806 -91 
Q 1078 -91 686 257 
Q 294 606 294 1247 
Q 294 1794 489 2264 
Q 684 2734 1063 3103 
Q 1306 3334 1642 3459 
Q 1978 3584 2356 3584 
Q 2950 3584 3301 3228 
Q 3653 2872 3653 2272 
Q 3653 2128 3634 1964 
Q 3616 1800 3578 1613 
z
" id="DejaVuSans-Oblique-65" transform="scale(0.015625)"/>
      <path d="M 678 2272 
L 4684 2272 
L 4684 1741 
L 678 1741 
L 678 2272 
z
" id="DejaVuSans-2212" transform="scale(0.015625)"/>
      <path d="M 2350 4316 
L 3125 0 
L 2516 0 
L 2038 2588 
L 328 0 
L -281 0 
L 1903 3356 
L 1794 3975 
Q 1725 4369 1391 4369 
L 1091 4369 
L 1184 4863 
L 1550 4856 
Q 2253 4847 2350 4316 
z
" id="DejaVuSans-Oblique-3bb" transform="scale(0.015625)"/>
      <path d="M 3841 3500 
L 2234 1784 
L 3219 0 
L 2559 0 
L 1819 1388 
L 531 0 
L -166 0 
L 1556 1844 
L 641 3500 
L 1300 3500 
L 1972 2234 
L 3144 3500 
L 3841 3500 
z
" id="DejaVuSans-Oblique-78" transform="scale(0.015625)"/>
      <path d="M 2944 4013 
L 2944 2272 
L 4684 2272 
L 4684 1741 
L 2944 1741 
L 2944 0 
L 2419 0 
L 2419 1741 
L 678 1741 
L 678 2272 
L 2419 2272 
L 2419 4013 
L 2944 4013 
z
" id="DejaVuSans-2b" transform="scale(0.015625)"/>
      <path d="M 3431 3366 
L 3316 2797 
Q 3109 2947 2876 3022 
Q 2644 3097 2394 3097 
Q 2119 3097 1870 3000 
Q 1622 2903 1453 2725 
Q 1184 2453 1037 2087 
Q 891 1722 891 1331 
Q 891 859 1127 628 
Q 1363 397 1844 397 
Q 2081 397 2348 469 
Q 2616 541 2906 684 
L 2797 116 
Q 2547 13 2283 -39 
Q 2019 -91 1741 -91 
Q 1044 -91 669 257 
Q 294 606 294 1253 
Q 294 1797 489 2255 
Q 684 2713 1069 3078 
Q 1331 3328 1684 3456 
Q 2038 3584 2456 3584 
Q 2700 3584 2940 3529 
Q 3181 3475 3431 3366 
z
" id="DejaVuSans-Oblique-63" transform="scale(0.015625)"/>
      <path d="M 750 3309 
L 1409 3309 
L 1409 2516 
L 750 2516 
L 750 3309 
z
M 750 794 
L 1409 794 
L 1409 256 
L 897 -744 
L 494 -744 
L 750 256 
L 750 794 
z
" id="DejaVuSans-3b" transform="scale(0.015625)"/>
      <path d="M 378 4666 
L 4325 4666 
L 4225 4134 
L 2559 4134 
L 1759 0 
L 1125 0 
L 1925 4134 
L 275 4134 
L 378 4666 
z
" id="DejaVuSans-Oblique-54" transform="scale(0.015625)"/>
      <path d="M 488 2431 
L 1125 2431 
L 1125 4341 
L 428 4213 
L 428 4575 
L 1147 4697 
L 1575 4697 
L 1575 2431 
L 2216 2431 
L 2216 2088 
L 488 2088 
L 488 2431 
z
M 4470 332 
L 5795 332 
L 5795 -24 
L 3926 -24 
L 3926 319 
Q 4032 416 4229 591 
Q 5304 1544 5304 1838 
Q 5304 2044 5141 2170 
Q 4979 2297 4713 2297 
Q 4551 2297 4360 2242 
Q 4170 2188 3945 2079 
L 3945 2463 
Q 4185 2551 4393 2594 
Q 4601 2638 4779 2638 
Q 5232 2638 5504 2432 
Q 5776 2226 5776 1888 
Q 5776 1454 4741 566 
Q 4566 416 4470 332 
z
M 4309 4750 
L 4809 4750 
L 1896 -91 
L 1396 -91 
L 4309 4750 
z
" id="DejaVuSans-bd" transform="scale(0.015625)"/>
      <path d="M 2348 4027 
L 3008 4027 
L 3008 3233 
L 2348 3233 
L 2348 4027 
z
M 678 2906 
L 4684 2906 
L 4684 2381 
L 678 2381 
L 678 2906 
z
M 678 1631 
L 4684 1631 
L 4684 1100 
L 678 1100 
L 678 1631 
z
" id="DejaVuSans-2250" transform="scale(0.015625)"/>
      <path d="M 684 794 
L 1344 794 
L 1344 0 
L 684 0 
L 684 794 
z
" id="DejaVuSans-2e" transform="scale(0.015625)"/>
      <path d="M 703 97 
L 703 672 
Q 941 559 1184 500 
Q 1428 441 1663 441 
Q 2288 441 2617 861 
Q 2947 1281 2994 2138 
Q 2813 1869 2534 1725 
Q 2256 1581 1919 1581 
Q 1219 1581 811 2004 
Q 403 2428 403 3163 
Q 403 3881 828 4315 
Q 1253 4750 1959 4750 
Q 2769 4750 3195 4129 
Q 3622 3509 3622 2328 
Q 3622 1225 3098 567 
Q 2575 -91 1691 -91 
Q 1453 -91 1209 -44 
Q 966 3 703 97 
z
M 1959 2075 
Q 2384 2075 2632 2365 
Q 2881 2656 2881 3163 
Q 2881 3666 2632 3958 
Q 2384 4250 1959 4250 
Q 1534 4250 1286 3958 
Q 1038 3666 1038 3163 
Q 1038 2656 1286 2365 
Q 1534 2075 1959 2075 
z
" id="DejaVuSans-39" transform="scale(0.015625)"/>
     </defs>
     <use transform="translate(0 0.529687)" xlink:href="#DejaVuSans-Oblique-79"/>
     <use transform="translate(78.662109 0.529687)" xlink:href="#DejaVuSans-3d"/>
     <use transform="translate(181.933594 0.529687)" xlink:href="#DejaVuSans-Oblique-61"/>
     <use transform="translate(243.212891 0.529687)" xlink:href="#DejaVuSans-Oblique-65"/>
     <use transform="translate(309.386224 38.810937)scale(0.7)" xlink:href="#DejaVuSans-2212"/>
     <use transform="translate(368.038568 38.810937)scale(0.7)" xlink:href="#DejaVuSans-Oblique-3bb"/>
     <use transform="translate(409.464349 38.810937)scale(0.7)" xlink:href="#DejaVuSans-Oblique-78"/>
     <use transform="translate(473.106927 0.529687)" xlink:href="#DejaVuSans-2b"/>
     <use transform="translate(576.378411 0.529687)" xlink:href="#DejaVuSans-Oblique-63"/>
     <use transform="translate(631.35888 0.529687)" xlink:href="#DejaVuSans-3b"/>
     <use transform="translate(684.532708 0.529687)" xlink:href="#DejaVuSans-Oblique-54"/>
     <use transform="translate(745.616693 -15.876563)scale(0.7)" xlink:href="#DejaVuSans-bd"/>
     <use transform="translate(816.197747 0.529687)" xlink:href="#DejaVuSans-2250"/>
     <use transform="translate(899.98681 0.529687)" xlink:href="#DejaVuSans-31"/>
     <use transform="translate(963.609857 0.529687)" xlink:href="#DejaVuSans-30"/>
     <use transform="translate(1027.232904 0.529687)" xlink:href="#DejaVuSans-2e"/>
     <use transform="translate(1059.020013 0.529687)" xlink:href="#DejaVuSans-31"/>
     <use transform="translate(1122.64306 0.529687)" xlink:href="#DejaVuSans-39"/>
     <use transform="translate(1184.516107 0.529687)" xlink:href="#DejaVuSans-32"/>
     <use transform="translate(1246.389154 0.529687)" xlink:href="#DejaVuSans-39"/>
    </g>
   </g>
   <g id="text_13">
    <!-- $a ≐ 1278.13; λ ≐ 0.0981; c ≐ 48.79$ -->
    <g transform="translate(211.658542 34.805795)scale(0.1 -0.1)">
     <defs>
      <path d="M 525 4666 
L 3525 4666 
L 3525 4397 
L 1831 0 
L 1172 0 
L 2766 4134 
L 525 4134 
L 525 4666 
z
" id="DejaVuSans-37" transform="scale(0.015625)"/>
      <path d="M 2597 2516 
Q 3050 2419 3304 2112 
Q 3559 1806 3559 1356 
Q 3559 666 3084 287 
Q 2609 -91 1734 -91 
Q 1441 -91 1130 -33 
Q 819 25 488 141 
L 488 750 
Q 750 597 1062 519 
Q 1375 441 1716 441 
Q 2309 441 2620 675 
Q 2931 909 2931 1356 
Q 2931 1769 2642 2001 
Q 2353 2234 1838 2234 
L 1294 2234 
L 1294 2753 
L 1863 2753 
Q 2328 2753 2575 2939 
Q 2822 3125 2822 3475 
Q 2822 3834 2567 4026 
Q 2313 4219 1838 4219 
Q 1578 4219 1281 4162 
Q 984 4106 628 3988 
L 628 4550 
Q 988 4650 1302 4700 
Q 1616 4750 1894 4750 
Q 2613 4750 3031 4423 
Q 3450 4097 3450 3541 
Q 3450 3153 3228 2886 
Q 3006 2619 2597 2516 
z
" id="DejaVuSans-33" transform="scale(0.015625)"/>
     </defs>
     <use transform="translate(0 0.015625)" xlink:href="#DejaVuSans-Oblique-61"/>
     <use transform="translate(61.279297 0.015625)" xlink:href="#DejaVuSans-2250"/>
     <use transform="translate(145.068359 0.015625)" xlink:href="#DejaVuSans-31"/>
     <use transform="translate(208.691406 0.015625)" xlink:href="#DejaVuSans-32"/>
     <use transform="translate(272.314453 0.015625)" xlink:href="#DejaVuSans-37"/>
     <use transform="translate(335.9375 0.015625)" xlink:href="#DejaVuSans-38"/>
     <use transform="translate(399.560547 0.015625)" xlink:href="#DejaVuSans-2e"/>
     <use transform="translate(431.347656 0.015625)" xlink:href="#DejaVuSans-31"/>
     <use transform="translate(494.970703 0.015625)" xlink:href="#DejaVuSans-33"/>
     <use transform="translate(558.59375 0.015625)" xlink:href="#DejaVuSans-3b"/>
     <use transform="translate(611.767578 0.015625)" xlink:href="#DejaVuSans-Oblique-3bb"/>
     <use transform="translate(670.947266 0.015625)" xlink:href="#DejaVuSans-2250"/>
     <use transform="translate(754.736328 0.015625)" xlink:href="#DejaVuSans-30"/>
     <use transform="translate(818.359375 0.015625)" xlink:href="#DejaVuSans-2e"/>
     <use transform="translate(850.146484 0.015625)" xlink:href="#DejaVuSans-30"/>
     <use transform="translate(913.769531 0.015625)" xlink:href="#DejaVuSans-39"/>
     <use transform="translate(977.392578 0.015625)" xlink:href="#DejaVuSans-38"/>
     <use transform="translate(1041.015625 0.015625)" xlink:href="#DejaVuSans-31"/>
     <use transform="translate(1104.638672 0.015625)" xlink:href="#DejaVuSans-3b"/>
     <use transform="translate(1157.8125 0.015625)" xlink:href="#DejaVuSans-Oblique-63"/>
     <use transform="translate(1212.792969 0.015625)" xlink:href="#DejaVuSans-2250"/>
     <use transform="translate(1296.582031 0.015625)" xlink:href="#DejaVuSans-34"/>
     <use transform="translate(1360.205078 0.015625)" xlink:href="#DejaVuSans-38"/>
     <use transform="translate(1423.828125 0.015625)" xlink:href="#DejaVuSans-2e"/>
     <use transform="translate(1447.865234 0.015625)" xlink:href="#DejaVuSans-37"/>
     <use transform="translate(1511.488281 0.015625)" xlink:href="#DejaVuSans-39"/>
    </g>
   </g>
   <g id="text_14">
    <!-- $σ_a ≐ 105.89; σ_λ ≐ 0.0065; σ_c ≐ 5.04$ -->
    <g transform="translate(211.658542 46.950359)scale(0.1 -0.1)">
     <defs>
      <path d="M 2219 3044 
Q 1744 3044 1422 2700 
Q 1081 2341 969 1747 
Q 844 1119 1044 756 
Q 1241 397 1706 397 
Q 2166 397 2503 759 
Q 2844 1122 2966 1747 
Q 3075 2319 2881 2700 
Q 2700 3044 2219 3044 
z
M 2309 3503 
L 4219 3500 
L 4106 2925 
L 3463 2925 
Q 3706 2438 3575 1747 
Q 3406 888 2884 400 
Q 2359 -91 1609 -91 
Q 856 -91 525 400 
Q 194 888 363 1747 
Q 528 2609 1050 3097 
Q 1484 3503 2309 3503 
z
" id="DejaVuSans-Oblique-3c3" transform="scale(0.015625)"/>
      <path d="M 691 4666 
L 3169 4666 
L 3169 4134 
L 1269 4134 
L 1269 2991 
Q 1406 3038 1543 3061 
Q 1681 3084 1819 3084 
Q 2600 3084 3056 2656 
Q 3513 2228 3513 1497 
Q 3513 744 3044 326 
Q 2575 -91 1722 -91 
Q 1428 -91 1123 -41 
Q 819 9 494 109 
L 494 744 
Q 775 591 1075 516 
Q 1375 441 1709 441 
Q 2250 441 2565 725 
Q 2881 1009 2881 1497 
Q 2881 1984 2565 2268 
Q 2250 2553 1709 2553 
Q 1456 2553 1204 2497 
Q 953 2441 691 2322 
L 691 4666 
z
" id="DejaVuSans-35" transform="scale(0.015625)"/>
     </defs>
     <use transform="translate(0 0.78125)" xlink:href="#DejaVuSans-Oblique-3c3"/>
     <use transform="translate(63.378906 -15.625)scale(0.7)" xlink:href="#DejaVuSans-Oblique-61"/>
     <use transform="translate(109.008789 0.78125)" xlink:href="#DejaVuSans-2250"/>
     <use transform="translate(192.797852 0.78125)" xlink:href="#DejaVuSans-31"/>
     <use transform="translate(256.420898 0.78125)" xlink:href="#DejaVuSans-30"/>
     <use transform="translate(320.043945 0.78125)" xlink:href="#DejaVuSans-35"/>
     <use transform="translate(383.666992 0.78125)" xlink:href="#DejaVuSans-2e"/>
     <use transform="translate(412.829102 0.78125)" xlink:href="#DejaVuSans-38"/>
     <use transform="translate(476.452148 0.78125)" xlink:href="#DejaVuSans-39"/>
     <use transform="translate(540.075195 0.78125)" xlink:href="#DejaVuSans-3b"/>
     <use transform="translate(593.249023 0.78125)" xlink:href="#DejaVuSans-Oblique-3c3"/>
     <use transform="translate(656.62793 -15.625)scale(0.7)" xlink:href="#DejaVuSans-Oblique-3bb"/>
     <use transform="translate(700.788086 0.78125)" xlink:href="#DejaVuSans-2250"/>
     <use transform="translate(784.577148 0.78125)" xlink:href="#DejaVuSans-30"/>
     <use transform="translate(848.200195 0.78125)" xlink:href="#DejaVuSans-2e"/>
     <use transform="translate(879.987305 0.78125)" xlink:href="#DejaVuSans-30"/>
     <use transform="translate(943.610352 0.78125)" xlink:href="#DejaVuSans-30"/>
     <use transform="translate(1007.233398 0.78125)" xlink:href="#DejaVuSans-36"/>
     <use transform="translate(1070.856445 0.78125)" xlink:href="#DejaVuSans-35"/>
     <use transform="translate(1134.479492 0.78125)" xlink:href="#DejaVuSans-3b"/>
     <use transform="translate(1187.65332 0.78125)" xlink:href="#DejaVuSans-Oblique-3c3"/>
     <use transform="translate(1251.032227 -15.625)scale(0.7)" xlink:href="#DejaVuSans-Oblique-63"/>
     <use transform="translate(1292.25293 0.78125)" xlink:href="#DejaVuSans-2250"/>
     <use transform="translate(1376.041992 0.78125)" xlink:href="#DejaVuSans-35"/>
     <use transform="translate(1439.665039 0.78125)" xlink:href="#DejaVuSans-2e"/>
     <use transform="translate(1471.452148 0.78125)" xlink:href="#DejaVuSans-30"/>
     <use transform="translate(1535.075195 0.78125)" xlink:href="#DejaVuSans-34"/>
    </g>
   </g>
  </g>
  <g id="axes_2">
   <g id="patch_37">
    <path d="M 64.694 293.272 
L 450 293.272 
L 450 173.016 
L 64.694 173.016 
z
" style="fill:#ffffff;"/>
   </g>
   <g id="patch_38">
    <path clip-path="url(#p1d2e24b32a)" d="M 82.207909 32296.139356 
L 85.710691 32296.139356 
L 85.710691 178.482182 
L 82.207909 178.482182 
z
" style="fill:#1f77b4;"/>
   </g>
   <g id="patch_39">
    <path clip-path="url(#p1d2e24b32a)" d="M 85.710691 32296.139356 
L 89.213473 32296.139356 
L 89.213473 227.422394 
L 85.710691 227.422394 
z
" style="fill:#1f77b4;"/>
   </g>
   <g id="patch_40">
    <path clip-path="url(#p1d2e24b32a)" d="M 89.213473 32296.139356 
L 92.716255 32296.139356 
L 92.716255 232.614621 
L 89.213473 232.614621 
z
" style="fill:#1f77b4;"/>
   </g>
   <g id="patch_41">
    <path clip-path="url(#p1d2e24b32a)" d="M 92.716255 32296.139356 
L 96.219036 32296.139356 
L 96.219036 233.42462 
L 92.716255 233.42462 
z
" style="fill:#1f77b4;"/>
   </g>
   <g id="patch_42">
    <path clip-path="url(#p1d2e24b32a)" d="M 96.219036 32296.139356 
L 99.721818 32296.139356 
L 99.721818 233.149342 
L 96.219036 233.149342 
z
" style="fill:#1f77b4;"/>
   </g>
   <g id="patch_43">
    <path clip-path="url(#p1d2e24b32a)" d="M 99.721818 32296.139356 
L 103.2246 32296.139356 
L 103.2246 239.200718 
L 99.721818 239.200718 
z
" style="fill:#1f77b4;"/>
   </g>
   <g id="patch_44">
    <path clip-path="url(#p1d2e24b32a)" d="M 103.2246 32296.139356 
L 106.727382 32296.139356 
L 106.727382 239.200718 
L 103.2246 239.200718 
z
" style="fill:#1f77b4;"/>
   </g>
   <g id="patch_45">
    <path clip-path="url(#p1d2e24b32a)" d="M 106.727382 32296.139356 
L 110.230164 32296.139356 
L 110.230164 237.239578 
L 106.727382 237.239578 
z
" style="fill:#1f77b4;"/>
   </g>
   <g id="patch_46">
    <path clip-path="url(#p1d2e24b32a)" d="M 110.230164 32296.139356 
L 113.732945 32296.139356 
L 113.732945 245.483782 
L 110.230164 245.483782 
z
" style="fill:#1f77b4;"/>
   </g>
   <g id="patch_47">
    <path clip-path="url(#p1d2e24b32a)" d="M 113.732945 32296.139356 
L 117.235727 32296.139356 
L 117.235727 247.626637 
L 113.732945 247.626637 
z
" style="fill:#1f77b4;"/>
   </g>
   <g id="patch_48">
    <path clip-path="url(#p1d2e24b32a)" d="M 117.235727 32296.139356 
L 120.738509 32296.139356 
L 120.738509 245.483782 
L 117.235727 245.483782 
z
" style="fill:#1f77b4;"/>
   </g>
   <g id="patch_49">
    <path clip-path="url(#p1d2e24b32a)" d="M 120.738509 32296.139356 
L 124.241291 32296.139356 
L 124.241291 247.626637 
L 120.738509 247.626637 
z
" style="fill:#1f77b4;"/>
   </g>
   <g id="patch_50">
    <path clip-path="url(#p1d2e24b32a)" d="M 124.241291 32296.139356 
L 127.744073 32296.139356 
L 127.744073 247.626637 
L 124.241291 247.626637 
z
" style="fill:#1f77b4;"/>
   </g>
   <g id="patch_51">
    <path clip-path="url(#p1d2e24b32a)" d="M 127.744073 32296.139356 
L 131.246855 32296.139356 
L 131.246855 246.162016 
L 127.744073 246.162016 
z
" style="fill:#1f77b4;"/>
   </g>
   <g id="patch_52">
    <path clip-path="url(#p1d2e24b32a)" d="M 131.246855 32296.139356 
L 134.749636 32296.139356 
L 134.749636 249.263944 
L 131.246855 249.263944 
z
" style="fill:#1f77b4;"/>
   </g>
   <g id="patch_53">
    <path clip-path="url(#p1d2e24b32a)" d="M 134.749636 32296.139356 
L 138.252418 32296.139356 
L 138.252418 246.875046 
L 134.749636 246.875046 
z
" style="fill:#1f77b4;"/>
   </g>
   <g id="patch_54">
    <path clip-path="url(#p1d2e24b32a)" d="M 138.252418 32296.139356 
L 141.7552 32296.139356 
L 141.7552 255.797485 
L 138.252418 255.797485 
z
" style="fill:#1f77b4;"/>
   </g>
   <g id="patch_55">
    <path clip-path="url(#p1d2e24b32a)" d="M 141.7552 32296.139356 
L 145.257982 32296.139356 
L 145.257982 252.150348 
L 141.7552 252.150348 
z
" style="fill:#1f77b4;"/>
   </g>
   <g id="patch_56">
    <path clip-path="url(#p1d2e24b32a)" d="M 145.257982 32296.139356 
L 148.760764 32296.139356 
L 148.760764 249.263944 
L 145.257982 249.263944 
z
" style="fill:#1f77b4;"/>
   </g>
   <g id="patch_57">
    <path clip-path="url(#p1d2e24b32a)" d="M 148.760764 32296.139356 
L 152.263545 32296.139356 
L 152.263545 249.263944 
L 148.760764 249.263944 
z
" style="fill:#1f77b4;"/>
   </g>
   <g id="patch_58">
    <path clip-path="url(#p1d2e24b32a)" d="M 152.263545 32296.139356 
L 155.766327 32296.139356 
L 155.766327 255.797485 
L 152.263545 255.797485 
z
" style="fill:#1f77b4;"/>
   </g>
   <g id="patch_59">
    <path clip-path="url(#p1d2e24b32a)" d="M 155.766327 32296.139356 
L 159.269109 32296.139356 
L 159.269109 255.797485 
L 155.766327 255.797485 
z
" style="fill:#1f77b4;"/>
   </g>
   <g id="patch_60">
    <path clip-path="url(#p1d2e24b32a)" d="M 159.269109 32296.139356 
L 162.771891 32296.139356 
L 162.771891 254.472574 
L 159.269109 254.472574 
z
" style="fill:#1f77b4;"/>
   </g>
   <g id="patch_61">
    <path clip-path="url(#p1d2e24b32a)" d="M 162.771891 32296.139356 
L 166.274673 32296.139356 
L 166.274673 250.161097 
L 162.771891 250.161097 
z
" style="fill:#1f77b4;"/>
   </g>
   <g id="patch_62">
    <path clip-path="url(#p1d2e24b32a)" d="M 166.274673 32296.139356 
L 169.777455 32296.139356 
L 169.777455 278.17035 
L 166.274673 278.17035 
z
" style="fill:#1f77b4;"/>
   </g>
   <g id="patch_63">
    <path clip-path="url(#p1d2e24b32a)" d="M 169.777455 32296.139356 
L 173.280236 32296.139356 
L 173.280236 255.797485 
L 169.777455 255.797485 
z
" style="fill:#1f77b4;"/>
   </g>
   <g id="patch_64">
    <path clip-path="url(#p1d2e24b32a)" d="M 173.280236 32296.139356 
L 176.783018 32296.139356 
L 176.783018 258.899413 
L 173.280236 258.899413 
z
" style="fill:#1f77b4;"/>
   </g>
   <g id="patch_65">
    <path clip-path="url(#p1d2e24b32a)" d="M 176.783018 32296.139356 
L 180.2858 32296.139356 
L 180.2858 254.472574 
L 176.783018 254.472574 
z
" style="fill:#1f77b4;"/>
   </g>
   <g id="patch_66">
    <path clip-path="url(#p1d2e24b32a)" d="M 180.2858 32296.139356 
L 183.788582 32296.139356 
L 183.788582 257.262106 
L 180.2858 257.262106 
z
" style="fill:#1f77b4;"/>
   </g>
   <g id="patch_67">
    <path clip-path="url(#p1d2e24b32a)" d="M 183.788582 32296.139356 
L 187.291364 32296.139356 
L 187.291364 258.899413 
L 183.788582 258.899413 
z
" style="fill:#1f77b4;"/>
   </g>
   <g id="patch_68">
    <path clip-path="url(#p1d2e24b32a)" d="M 187.291364 32296.139356 
L 190.794145 32296.139356 
L 190.794145 265.432953 
L 187.291364 265.432953 
z
" style="fill:#1f77b4;"/>
   </g>
   <g id="patch_69">
    <path clip-path="url(#p1d2e24b32a)" d="M 190.794145 32296.139356 
L 194.296927 32296.139356 
L 194.296927 249.263944 
L 190.794145 249.263944 
z
" style="fill:#1f77b4;"/>
   </g>
   <g id="patch_70">
    <path clip-path="url(#p1d2e24b32a)" d="M 194.296927 32296.139356 
L 197.799709 32296.139356 
L 197.799709 262.898493 
L 194.296927 262.898493 
z
" style="fill:#1f77b4;"/>
   </g>
   <g id="patch_71">
    <path clip-path="url(#p1d2e24b32a)" d="M 197.799709 32296.139356 
L 201.302491 32296.139356 
L 201.302491 260.755638 
L 197.799709 260.755638 
z
" style="fill:#1f77b4;"/>
   </g>
   <g id="patch_72">
    <path clip-path="url(#p1d2e24b32a)" d="M 201.302491 32296.139356 
L 204.805273 32296.139356 
L 204.805273 258.899413 
L 201.302491 258.899413 
z
" style="fill:#1f77b4;"/>
   </g>
   <g id="patch_73">
    <path clip-path="url(#p1d2e24b32a)" d="M 204.805273 32296.139356 
L 208.308055 32296.139356 
L 208.308055 265.432953 
L 204.805273 265.432953 
z
" style="fill:#1f77b4;"/>
   </g>
   <g id="patch_74">
    <path clip-path="url(#p1d2e24b32a)" d="M 208.308055 32296.139356 
L 211.810836 32296.139356 
L 211.810836 260.755638 
L 208.308055 260.755638 
z
" style="fill:#1f77b4;"/>
   </g>
   <g id="patch_75">
    <path clip-path="url(#p1d2e24b32a)" d="M 211.810836 32296.139356 
L 215.313618 32296.139356 
L 215.313618 258.899413 
L 211.810836 258.899413 
z
" style="fill:#1f77b4;"/>
   </g>
   <g id="patch_76">
    <path clip-path="url(#p1d2e24b32a)" d="M 215.313618 32296.139356 
L 218.8164 32296.139356 
L 218.8164 278.17035 
L 215.313618 278.17035 
z
" style="fill:#1f77b4;"/>
   </g>
   <g id="patch_77">
    <path clip-path="url(#p1d2e24b32a)" d="M 218.8164 32296.139356 
L 222.319182 32296.139356 
L 222.319182 257.262106 
L 218.8164 257.262106 
z
" style="fill:#1f77b4;"/>
   </g>
   <g id="patch_78">
    <path clip-path="url(#p1d2e24b32a)" d="M 222.319182 32296.139356 
L 225.821964 32296.139356 
L 225.821964 265.432953 
L 222.319182 265.432953 
z
" style="fill:#1f77b4;"/>
   </g>
   <g id="patch_79">
    <path clip-path="url(#p1d2e24b32a)" d="M 225.821964 32296.139356 
L 229.324745 32296.139356 
L 229.324745 257.262106 
L 225.821964 257.262106 
z
" style="fill:#1f77b4;"/>
   </g>
   <g id="patch_80">
    <path clip-path="url(#p1d2e24b32a)" d="M 229.324745 32296.139356 
L 232.827527 32296.139356 
L 232.827527 272.533962 
L 229.324745 272.533962 
z
" style="fill:#1f77b4;"/>
   </g>
   <g id="patch_81">
    <path clip-path="url(#p1d2e24b32a)" d="M 232.827527 32296.139356 
L 236.330309 32296.139356 
L 236.330309 260.755638 
L 232.827527 260.755638 
z
" style="fill:#1f77b4;"/>
   </g>
   <g id="patch_82">
    <path clip-path="url(#p1d2e24b32a)" d="M 236.330309 32296.139356 
L 239.833091 32296.139356 
L 239.833091 265.432953 
L 236.330309 265.432953 
z
" style="fill:#1f77b4;"/>
   </g>
   <g id="patch_83">
    <path clip-path="url(#p1d2e24b32a)" d="M 239.833091 32296.139356 
L 243.335873 32296.139356 
L 243.335873 258.899413 
L 239.833091 258.899413 
z
" style="fill:#1f77b4;"/>
   </g>
   <g id="patch_84">
    <path clip-path="url(#p1d2e24b32a)" d="M 243.335873 32296.139356 
L 246.838655 32296.139356 
L 246.838655 258.899413 
L 243.335873 258.899413 
z
" style="fill:#1f77b4;"/>
   </g>
   <g id="patch_85">
    <path clip-path="url(#p1d2e24b32a)" d="M 246.838655 32296.139356 
L 250.341436 32296.139356 
L 250.341436 265.432953 
L 246.838655 265.432953 
z
" style="fill:#1f77b4;"/>
   </g>
   <g id="patch_86">
    <path clip-path="url(#p1d2e24b32a)" d="M 250.341436 32296.139356 
L 253.844218 32296.139356 
L 253.844218 258.899413 
L 250.341436 258.899413 
z
" style="fill:#1f77b4;"/>
   </g>
   <g id="patch_87">
    <path clip-path="url(#p1d2e24b32a)" d="M 253.844218 32296.139356 
L 257.347 32296.139356 
L 257.347 272.533962 
L 253.844218 272.533962 
z
" style="fill:#1f77b4;"/>
   </g>
   <g id="patch_88">
    <path clip-path="url(#p1d2e24b32a)" d="M 257.347 32296.139356 
L 260.849782 32296.139356 
L 260.849782 258.899413 
L 257.347 258.899413 
z
" style="fill:#1f77b4;"/>
   </g>
   <g id="patch_89">
    <path clip-path="url(#p1d2e24b32a)" d="M 260.849782 32296.139356 
L 264.352564 32296.139356 
L 264.352564 257.262106 
L 260.849782 257.262106 
z
" style="fill:#1f77b4;"/>
   </g>
   <g id="patch_90">
    <path clip-path="url(#p1d2e24b32a)" d="M 264.352564 32296.139356 
L 267.855345 32296.139356 
L 267.855345 278.17035 
L 264.352564 278.17035 
z
" style="fill:#1f77b4;"/>
   </g>
   <g id="patch_91">
    <path clip-path="url(#p1d2e24b32a)" d="M 267.855345 32296.139356 
L 271.358127 32296.139356 
L 271.358127 255.797485 
L 267.855345 255.797485 
z
" style="fill:#1f77b4;"/>
   </g>
   <g id="patch_92">
    <path clip-path="url(#p1d2e24b32a)" d="M 271.358127 32296.139356 
L 274.860909 32296.139356 
L 274.860909 258.899413 
L 271.358127 258.899413 
z
" style="fill:#1f77b4;"/>
   </g>
   <g id="patch_93">
    <path clip-path="url(#p1d2e24b32a)" d="M 274.860909 32296.139356 
L 278.363691 32296.139356 
L 278.363691 257.262106 
L 274.860909 257.262106 
z
" style="fill:#1f77b4;"/>
   </g>
   <g id="patch_94">
    <path clip-path="url(#p1d2e24b32a)" d="M 278.363691 32296.139356 
L 281.866473 32296.139356 
L 281.866473 265.432953 
L 278.363691 265.432953 
z
" style="fill:#1f77b4;"/>
   </g>
   <g id="patch_95">
    <path clip-path="url(#p1d2e24b32a)" d="M 281.866473 32296.139356 
L 285.369255 32296.139356 
L 285.369255 265.432953 
L 281.866473 265.432953 
z
" style="fill:#1f77b4;"/>
   </g>
   <g id="patch_96">
    <path clip-path="url(#p1d2e24b32a)" d="M 285.369255 32296.139356 
L 288.872036 32296.139356 
L 288.872036 272.533962 
L 285.369255 272.533962 
z
" style="fill:#1f77b4;"/>
   </g>
   <g id="patch_97">
    <path clip-path="url(#p1d2e24b32a)" d="M 288.872036 32296.139356 
L 292.374818 32296.139356 
L 292.374818 278.17035 
L 288.872036 278.17035 
z
" style="fill:#1f77b4;"/>
   </g>
   <g id="patch_98">
    <path clip-path="url(#p1d2e24b32a)" d="M 292.374818 32296.139356 
L 295.8776 32296.139356 
L 295.8776 278.17035 
L 292.374818 278.17035 
z
" style="fill:#1f77b4;"/>
   </g>
   <g id="patch_99">
    <path clip-path="url(#p1d2e24b32a)" d="M 295.8776 32296.139356 
L 299.380382 32296.139356 
L 299.380382 265.432953 
L 295.8776 265.432953 
z
" style="fill:#1f77b4;"/>
   </g>
   <g id="patch_100">
    <path clip-path="url(#p1d2e24b32a)" d="M 299.380382 32296.139356 
L 302.883164 32296.139356 
L 302.883164 260.755638 
L 299.380382 260.755638 
z
" style="fill:#1f77b4;"/>
   </g>
   <g id="patch_101">
    <path clip-path="url(#p1d2e24b32a)" d="M 302.883164 32296.139356 
L 306.385945 32296.139356 
L 306.385945 260.755638 
L 302.883164 260.755638 
z
" style="fill:#1f77b4;"/>
   </g>
   <g id="patch_102">
    <path clip-path="url(#p1d2e24b32a)" d="M 306.385945 32296.139356 
L 309.888727 32296.139356 
L 309.888727 268.534881 
L 306.385945 268.534881 
z
" style="fill:#1f77b4;"/>
   </g>
   <g id="patch_103">
    <path clip-path="url(#p1d2e24b32a)" d="M 309.888727 32296.139356 
L 313.391509 32296.139356 
L 313.391509 268.534881 
L 309.888727 268.534881 
z
" style="fill:#1f77b4;"/>
   </g>
   <g id="patch_104">
    <path clip-path="url(#p1d2e24b32a)" d="M 313.391509 32296.139356 
L 316.894291 32296.139356 
L 316.894291 268.534881 
L 313.391509 268.534881 
z
" style="fill:#1f77b4;"/>
   </g>
   <g id="patch_105">
    <path clip-path="url(#p1d2e24b32a)" d="M 316.894291 32296.139356 
L 320.397073 32296.139356 
L 320.397073 268.534881 
L 316.894291 268.534881 
z
" style="fill:#1f77b4;"/>
   </g>
   <g id="patch_106">
    <path clip-path="url(#p1d2e24b32a)" d="M 320.397073 32296.139356 
L 323.899855 32296.139356 
L 323.899855 268.534881 
L 320.397073 268.534881 
z
" style="fill:#1f77b4;"/>
   </g>
   <g id="patch_107">
    <path clip-path="url(#p1d2e24b32a)" d="M 323.899855 32296.139356 
L 327.402636 32296.139356 
L 327.402636 265.432953 
L 323.899855 265.432953 
z
" style="fill:#1f77b4;"/>
   </g>
   <g id="patch_108">
    <path clip-path="url(#p1d2e24b32a)" d="M 327.402636 32296.139356 
L 330.905418 32296.139356 
L 330.905418 265.432953 
L 327.402636 265.432953 
z
" style="fill:#1f77b4;"/>
   </g>
   <g id="patch_109">
    <path clip-path="url(#p1d2e24b32a)" d="M 330.905418 32296.139356 
L 334.4082 32296.139356 
L 334.4082 260.755638 
L 330.905418 260.755638 
z
" style="fill:#1f77b4;"/>
   </g>
   <g id="patch_110">
    <path clip-path="url(#p1d2e24b32a)" d="M 334.4082 32296.139356 
L 337.910982 32296.139356 
L 337.910982 272.533962 
L 334.4082 272.533962 
z
" style="fill:#1f77b4;"/>
   </g>
   <g id="patch_111">
    <path clip-path="url(#p1d2e24b32a)" d="M 337.910982 32296.139356 
L 341.413764 32296.139356 
L 341.413764 272.533962 
L 337.910982 272.533962 
z
" style="fill:#1f77b4;"/>
   </g>
   <g id="patch_112">
    <path clip-path="url(#p1d2e24b32a)" d="M 341.413764 32296.139356 
L 344.916545 32296.139356 
L 344.916545 287.805818 
L 341.413764 287.805818 
z
" style="fill:#1f77b4;"/>
   </g>
   <g id="patch_113">
    <path clip-path="url(#p1d2e24b32a)" d="M 344.916545 32296.139356 
L 348.419327 32296.139356 
L 348.419327 272.533962 
L 344.916545 272.533962 
z
" style="fill:#1f77b4;"/>
   </g>
   <g id="patch_114">
    <path clip-path="url(#p1d2e24b32a)" d="M 348.419327 32296.139356 
L 351.922109 32296.139356 
L 351.922109 258.899413 
L 348.419327 258.899413 
z
" style="fill:#1f77b4;"/>
   </g>
   <g id="patch_115">
    <path clip-path="url(#p1d2e24b32a)" d="M 351.922109 32296.139356 
L 355.424891 32296.139356 
L 355.424891 278.17035 
L 351.922109 278.17035 
z
" style="fill:#1f77b4;"/>
   </g>
   <g id="patch_116">
    <path clip-path="url(#p1d2e24b32a)" d="M 355.424891 32296.139356 
L 358.927673 32296.139356 
L 358.927673 268.534881 
L 355.424891 268.534881 
z
" style="fill:#1f77b4;"/>
   </g>
   <g id="patch_117">
    <path clip-path="url(#p1d2e24b32a)" d="M 358.927673 32296.139356 
L 362.430455 32296.139356 
L 362.430455 268.534881 
L 358.927673 268.534881 
z
" style="fill:#1f77b4;"/>
   </g>
   <g id="patch_118">
    <path clip-path="url(#p1d2e24b32a)" d="M 362.430455 32296.139356 
L 365.933236 32296.139356 
L 365.933236 262.898493 
L 362.430455 262.898493 
z
" style="fill:#1f77b4;"/>
   </g>
   <g id="patch_119">
    <path clip-path="url(#p1d2e24b32a)" d="M 365.933236 32296.139356 
L 369.436018 32296.139356 
L 369.436018 260.755638 
L 365.933236 260.755638 
z
" style="fill:#1f77b4;"/>
   </g>
   <g id="patch_120">
    <path clip-path="url(#p1d2e24b32a)" d="M 369.436018 32296.139356 
L 372.9388 32296.139356 
L 372.9388 268.534881 
L 369.436018 268.534881 
z
" style="fill:#1f77b4;"/>
   </g>
   <g id="patch_121">
    <path clip-path="url(#p1d2e24b32a)" d="M 372.9388 32296.139356 
L 376.441582 32296.139356 
L 376.441582 287.805818 
L 372.9388 287.805818 
z
" style="fill:#1f77b4;"/>
   </g>
   <g id="patch_122">
    <path clip-path="url(#p1d2e24b32a)" d="M 376.441582 32296.139356 
L 379.944364 32296.139356 
L 379.944364 272.533962 
L 376.441582 272.533962 
z
" style="fill:#1f77b4;"/>
   </g>
   <g id="patch_123">
    <path clip-path="url(#p1d2e24b32a)" d="M 379.944364 32296.139356 
L 383.447145 32296.139356 
L 383.447145 268.534881 
L 379.944364 268.534881 
z
" style="fill:#1f77b4;"/>
   </g>
   <g id="patch_124">
    <path clip-path="url(#p1d2e24b32a)" d="M 383.447145 32296.139356 
L 386.949927 32296.139356 
L 386.949927 272.533962 
L 383.447145 272.533962 
z
" style="fill:#1f77b4;"/>
   </g>
   <g id="patch_125">
    <path clip-path="url(#p1d2e24b32a)" d="M 386.949927 32296.139356 
L 390.452709 32296.139356 
L 390.452709 268.534881 
L 386.949927 268.534881 
z
" style="fill:#1f77b4;"/>
   </g>
   <g id="patch_126">
    <path clip-path="url(#p1d2e24b32a)" d="M 390.452709 32296.139356 
L 393.955491 32296.139356 
L 393.955491 268.534881 
L 390.452709 268.534881 
z
" style="fill:#1f77b4;"/>
   </g>
   <g id="patch_127">
    <path clip-path="url(#p1d2e24b32a)" d="M 393.955491 32296.139356 
L 397.458273 32296.139356 
L 397.458273 278.17035 
L 393.955491 278.17035 
z
" style="fill:#1f77b4;"/>
   </g>
   <g id="patch_128">
    <path clip-path="url(#p1d2e24b32a)" d="M 397.458273 32296.139356 
L 400.961055 32296.139356 
L 400.961055 265.432953 
L 397.458273 265.432953 
z
" style="fill:#1f77b4;"/>
   </g>
   <g id="patch_129">
    <path clip-path="url(#p1d2e24b32a)" d="M 400.961055 32296.139356 
L 404.463836 32296.139356 
L 404.463836 287.805818 
L 400.961055 287.805818 
z
" style="fill:#1f77b4;"/>
   </g>
   <g id="patch_130">
    <path clip-path="url(#p1d2e24b32a)" d="M 404.463836 32296.139356 
L 407.966618 32296.139356 
L 407.966618 272.533962 
L 404.463836 272.533962 
z
" style="fill:#1f77b4;"/>
   </g>
   <g id="patch_131">
    <path clip-path="url(#p1d2e24b32a)" d="M 407.966618 32296.139356 
L 411.4694 32296.139356 
L 411.4694 278.17035 
L 407.966618 278.17035 
z
" style="fill:#1f77b4;"/>
   </g>
   <g id="patch_132">
    <path clip-path="url(#p1d2e24b32a)" d="M 411.4694 32296.139356 
L 414.972182 32296.139356 
L 414.972182 265.432953 
L 411.4694 265.432953 
z
" style="fill:#1f77b4;"/>
   </g>
   <g id="patch_133">
    <path clip-path="url(#p1d2e24b32a)" d="M 414.972182 32296.139356 
L 418.474964 32296.139356 
L 418.474964 260.755638 
L 414.972182 260.755638 
z
" style="fill:#1f77b4;"/>
   </g>
   <g id="patch_134">
    <path clip-path="url(#p1d2e24b32a)" d="M 418.474964 32296.139356 
L 421.977745 32296.139356 
L 421.977745 265.432953 
L 418.474964 265.432953 
z
" style="fill:#1f77b4;"/>
   </g>
   <g id="patch_135">
    <path clip-path="url(#p1d2e24b32a)" d="M 421.977745 32296.139356 
L 425.480527 32296.139356 
L 425.480527 268.534881 
L 421.977745 268.534881 
z
" style="fill:#1f77b4;"/>
   </g>
   <g id="patch_136">
    <path clip-path="url(#p1d2e24b32a)" d="M 425.480527 32296.139356 
L 428.983309 32296.139356 
L 428.983309 272.533962 
L 425.480527 272.533962 
z
" style="fill:#1f77b4;"/>
   </g>
   <g id="patch_137">
    <path clip-path="url(#p1d2e24b32a)" d="M 428.983309 32296.139356 
L 432.486091 32296.139356 
L 432.486091 268.534881 
L 428.983309 268.534881 
z
" style="fill:#1f77b4;"/>
   </g>
   <g id="matplotlib.axis_3">
    <g id="xtick_6">
     <g id="line2d_12">
      <g>
       <use style="stroke:#000000;stroke-width:0.8;" x="82.192002" xlink:href="#m0fdfc0047f" y="293.272"/>
      </g>
     </g>
     <g id="text_15">
      <!-- 0 -->
      <g transform="translate(79.010752 307.870437)scale(0.1 -0.1)">
       <use xlink:href="#DejaVuSans-30"/>
      </g>
     </g>
    </g>
    <g id="xtick_7">
     <g id="line2d_13">
      <g>
       <use style="stroke:#000000;stroke-width:0.8;" x="137.836686" xlink:href="#m0fdfc0047f" y="293.272"/>
      </g>
     </g>
     <g id="text_16">
      <!-- 5 -->
      <g transform="translate(134.655436 307.870437)scale(0.1 -0.1)">
       <use xlink:href="#DejaVuSans-35"/>
      </g>
     </g>
    </g>
    <g id="xtick_8">
     <g id="line2d_14">
      <g>
       <use style="stroke:#000000;stroke-width:0.8;" x="193.48137" xlink:href="#m0fdfc0047f" y="293.272"/>
      </g>
     </g>
     <g id="text_17">
      <!-- 10 -->
      <g transform="translate(187.11887 307.870437)scale(0.1 -0.1)">
       <use xlink:href="#DejaVuSans-31"/>
       <use x="63.623047" xlink:href="#DejaVuSans-30"/>
      </g>
     </g>
    </g>
    <g id="xtick_9">
     <g id="line2d_15">
      <g>
       <use style="stroke:#000000;stroke-width:0.8;" x="249.126054" xlink:href="#m0fdfc0047f" y="293.272"/>
      </g>
     </g>
     <g id="text_18">
      <!-- 15 -->
      <g transform="translate(242.763554 307.870437)scale(0.1 -0.1)">
       <use xlink:href="#DejaVuSans-31"/>
       <use x="63.623047" xlink:href="#DejaVuSans-35"/>
      </g>
     </g>
    </g>
    <g id="xtick_10">
     <g id="line2d_16">
      <g>
       <use style="stroke:#000000;stroke-width:0.8;" x="304.770738" xlink:href="#m0fdfc0047f" y="293.272"/>
      </g>
     </g>
     <g id="text_19">
      <!-- 20 -->
      <g transform="translate(298.408238 307.870437)scale(0.1 -0.1)">
       <use xlink:href="#DejaVuSans-32"/>
       <use x="63.623047" xlink:href="#DejaVuSans-30"/>
      </g>
     </g>
    </g>
    <g id="xtick_11">
     <g id="line2d_17">
      <g>
       <use style="stroke:#000000;stroke-width:0.8;" x="360.415422" xlink:href="#m0fdfc0047f" y="293.272"/>
      </g>
     </g>
     <g id="text_20">
      <!-- 25 -->
      <g transform="translate(354.052922 307.870437)scale(0.1 -0.1)">
       <use xlink:href="#DejaVuSans-32"/>
       <use x="63.623047" xlink:href="#DejaVuSans-35"/>
      </g>
     </g>
    </g>
    <g id="xtick_12">
     <g id="line2d_18">
      <g>
       <use style="stroke:#000000;stroke-width:0.8;" x="416.060106" xlink:href="#m0fdfc0047f" y="293.272"/>
      </g>
     </g>
     <g id="text_21">
      <!-- 30 -->
      <g transform="translate(409.697606 307.870437)scale(0.1 -0.1)">
       <use xlink:href="#DejaVuSans-33"/>
       <use x="63.623047" xlink:href="#DejaVuSans-30"/>
      </g>
     </g>
    </g>
    <g id="text_22">
     <!-- Time difference (min) -->
     <g transform="translate(203.431375 321.548562)scale(0.1 -0.1)">
      <defs>
       <path d="M -19 4666 
L 3928 4666 
L 3928 4134 
L 2272 4134 
L 2272 0 
L 1638 0 
L 1638 4134 
L -19 4134 
L -19 4666 
z
" id="DejaVuSans-54" transform="scale(0.015625)"/>
      </defs>
      <use xlink:href="#DejaVuSans-54"/>
      <use x="57.958984" xlink:href="#DejaVuSans-69"/>
      <use x="85.742188" xlink:href="#DejaVuSans-6d"/>
      <use x="183.154297" xlink:href="#DejaVuSans-65"/>
      <use x="244.677734" xlink:href="#DejaVuSans-20"/>
      <use x="276.464844" xlink:href="#DejaVuSans-64"/>
      <use x="339.941406" xlink:href="#DejaVuSans-69"/>
      <use x="367.724609" xlink:href="#DejaVuSans-66"/>
      <use x="402.929688" xlink:href="#DejaVuSans-66"/>
      <use x="438.134766" xlink:href="#DejaVuSans-65"/>
      <use x="499.658203" xlink:href="#DejaVuSans-72"/>
      <use x="538.521484" xlink:href="#DejaVuSans-65"/>
      <use x="600.044922" xlink:href="#DejaVuSans-6e"/>
      <use x="663.423828" xlink:href="#DejaVuSans-63"/>
      <use x="718.404297" xlink:href="#DejaVuSans-65"/>
      <use x="779.927734" xlink:href="#DejaVuSans-20"/>
      <use x="811.714844" xlink:href="#DejaVuSans-28"/>
      <use x="850.728516" xlink:href="#DejaVuSans-6d"/>
      <use x="948.140625" xlink:href="#DejaVuSans-69"/>
      <use x="975.923828" xlink:href="#DejaVuSans-6e"/>
      <use x="1039.302734" xlink:href="#DejaVuSans-29"/>
     </g>
    </g>
   </g>
   <g id="matplotlib.axis_4">
    <g id="ytick_5">
     <g id="line2d_19">
      <g>
       <use style="stroke:#000000;stroke-width:0.8;" x="64.694" xlink:href="#m84be295e50" y="287.805818"/>
      </g>
     </g>
     <g id="text_23">
      <!-- $\mathdefault{10^{0}}$ -->
      <g transform="translate(40.094 291.605037)scale(0.1 -0.1)">
       <use transform="translate(0 0.765625)" xlink:href="#DejaVuSans-31"/>
       <use transform="translate(63.623047 0.765625)" xlink:href="#DejaVuSans-30"/>
       <use transform="translate(128.203125 39.046875)scale(0.7)" xlink:href="#DejaVuSans-30"/>
      </g>
     </g>
    </g>
    <g id="ytick_6">
     <g id="line2d_20">
      <g>
       <use style="stroke:#000000;stroke-width:0.8;" x="64.694" xlink:href="#m84be295e50" y="255.797485"/>
      </g>
     </g>
     <g id="text_24">
      <!-- $\mathdefault{10^{1}}$ -->
      <g transform="translate(40.094 259.596703)scale(0.1 -0.1)">
       <use transform="translate(0 0.684375)" xlink:href="#DejaVuSans-31"/>
       <use transform="translate(63.623047 0.684375)" xlink:href="#DejaVuSans-30"/>
       <use transform="translate(128.203125 38.965625)scale(0.7)" xlink:href="#DejaVuSans-31"/>
      </g>
     </g>
    </g>
    <g id="ytick_7">
     <g id="line2d_21">
      <g>
       <use style="stroke:#000000;stroke-width:0.8;" x="64.694" xlink:href="#m84be295e50" y="223.789151"/>
      </g>
     </g>
     <g id="text_25">
      <!-- $\mathdefault{10^{2}}$ -->
      <g transform="translate(40.094 227.58837)scale(0.1 -0.1)">
       <use transform="translate(0 0.765625)" xlink:href="#DejaVuSans-31"/>
       <use transform="translate(63.623047 0.765625)" xlink:href="#DejaVuSans-30"/>
       <use transform="translate(128.203125 39.046875)scale(0.7)" xlink:href="#DejaVuSans-32"/>
      </g>
     </g>
    </g>
    <g id="ytick_8">
     <g id="line2d_22">
      <g>
       <use style="stroke:#000000;stroke-width:0.8;" x="64.694" xlink:href="#m84be295e50" y="191.780818"/>
      </g>
     </g>
     <g id="text_26">
      <!-- $\mathdefault{10^{3}}$ -->
      <g transform="translate(40.094 195.580036)scale(0.1 -0.1)">
       <use transform="translate(0 0.765625)" xlink:href="#DejaVuSans-31"/>
       <use transform="translate(63.623047 0.765625)" xlink:href="#DejaVuSans-30"/>
       <use transform="translate(128.203125 39.046875)scale(0.7)" xlink:href="#DejaVuSans-33"/>
      </g>
     </g>
    </g>
    <g id="ytick_9">
     <g id="line2d_23">
      <defs>
       <path d="M 0 0 
L -2 0 
" id="m29f428f8c7" style="stroke:#000000;stroke-width:0.6;"/>
      </defs>
      <g>
       <use style="stroke:#000000;stroke-width:0.6;" x="64.694" xlink:href="#m29f428f8c7" y="292.763972"/>
      </g>
     </g>
    </g>
    <g id="ytick_10">
     <g id="line2d_24">
      <g>
       <use style="stroke:#000000;stroke-width:0.6;" x="64.694" xlink:href="#m29f428f8c7" y="290.907746"/>
      </g>
     </g>
    </g>
    <g id="ytick_11">
     <g id="line2d_25">
      <g>
       <use style="stroke:#000000;stroke-width:0.6;" x="64.694" xlink:href="#m29f428f8c7" y="289.270439"/>
      </g>
     </g>
    </g>
    <g id="ytick_12">
     <g id="line2d_26">
      <g>
       <use style="stroke:#000000;stroke-width:0.6;" x="64.694" xlink:href="#m29f428f8c7" y="278.17035"/>
      </g>
     </g>
    </g>
    <g id="ytick_13">
     <g id="line2d_27">
      <g>
       <use style="stroke:#000000;stroke-width:0.6;" x="64.694" xlink:href="#m29f428f8c7" y="272.533962"/>
      </g>
     </g>
    </g>
    <g id="ytick_14">
     <g id="line2d_28">
      <g>
       <use style="stroke:#000000;stroke-width:0.6;" x="64.694" xlink:href="#m29f428f8c7" y="268.534881"/>
      </g>
     </g>
    </g>
    <g id="ytick_15">
     <g id="line2d_29">
      <g>
       <use style="stroke:#000000;stroke-width:0.6;" x="64.694" xlink:href="#m29f428f8c7" y="265.432953"/>
      </g>
     </g>
    </g>
    <g id="ytick_16">
     <g id="line2d_30">
      <g>
       <use style="stroke:#000000;stroke-width:0.6;" x="64.694" xlink:href="#m29f428f8c7" y="262.898493"/>
      </g>
     </g>
    </g>
    <g id="ytick_17">
     <g id="line2d_31">
      <g>
       <use style="stroke:#000000;stroke-width:0.6;" x="64.694" xlink:href="#m29f428f8c7" y="260.755638"/>
      </g>
     </g>
    </g>
    <g id="ytick_18">
     <g id="line2d_32">
      <g>
       <use style="stroke:#000000;stroke-width:0.6;" x="64.694" xlink:href="#m29f428f8c7" y="258.899413"/>
      </g>
     </g>
    </g>
    <g id="ytick_19">
     <g id="line2d_33">
      <g>
       <use style="stroke:#000000;stroke-width:0.6;" x="64.694" xlink:href="#m29f428f8c7" y="257.262106"/>
      </g>
     </g>
    </g>
    <g id="ytick_20">
     <g id="line2d_34">
      <g>
       <use style="stroke:#000000;stroke-width:0.6;" x="64.694" xlink:href="#m29f428f8c7" y="246.162016"/>
      </g>
     </g>
    </g>
    <g id="ytick_21">
     <g id="line2d_35">
      <g>
       <use style="stroke:#000000;stroke-width:0.6;" x="64.694" xlink:href="#m29f428f8c7" y="240.525628"/>
      </g>
     </g>
    </g>
    <g id="ytick_22">
     <g id="line2d_36">
      <g>
       <use style="stroke:#000000;stroke-width:0.6;" x="64.694" xlink:href="#m29f428f8c7" y="236.526548"/>
      </g>
     </g>
    </g>
    <g id="ytick_23">
     <g id="line2d_37">
      <g>
       <use style="stroke:#000000;stroke-width:0.6;" x="64.694" xlink:href="#m29f428f8c7" y="233.42462"/>
      </g>
     </g>
    </g>
    <g id="ytick_24">
     <g id="line2d_38">
      <g>
       <use style="stroke:#000000;stroke-width:0.6;" x="64.694" xlink:href="#m29f428f8c7" y="230.89016"/>
      </g>
     </g>
    </g>
    <g id="ytick_25">
     <g id="line2d_39">
      <g>
       <use style="stroke:#000000;stroke-width:0.6;" x="64.694" xlink:href="#m29f428f8c7" y="228.747305"/>
      </g>
     </g>
    </g>
    <g id="ytick_26">
     <g id="line2d_40">
      <g>
       <use style="stroke:#000000;stroke-width:0.6;" x="64.694" xlink:href="#m29f428f8c7" y="226.891079"/>
      </g>
     </g>
    </g>
    <g id="ytick_27">
     <g id="line2d_41">
      <g>
       <use style="stroke:#000000;stroke-width:0.6;" x="64.694" xlink:href="#m29f428f8c7" y="225.253772"/>
      </g>
     </g>
    </g>
    <g id="ytick_28">
     <g id="line2d_42">
      <g>
       <use style="stroke:#000000;stroke-width:0.6;" x="64.694" xlink:href="#m29f428f8c7" y="214.153683"/>
      </g>
     </g>
    </g>
    <g id="ytick_29">
     <g id="line2d_43">
      <g>
       <use style="stroke:#000000;stroke-width:0.6;" x="64.694" xlink:href="#m29f428f8c7" y="208.517295"/>
      </g>
     </g>
    </g>
    <g id="ytick_30">
     <g id="line2d_44">
      <g>
       <use style="stroke:#000000;stroke-width:0.6;" x="64.694" xlink:href="#m29f428f8c7" y="204.518214"/>
      </g>
     </g>
    </g>
    <g id="ytick_31">
     <g id="line2d_45">
      <g>
       <use style="stroke:#000000;stroke-width:0.6;" x="64.694" xlink:href="#m29f428f8c7" y="201.416286"/>
      </g>
     </g>
    </g>
    <g id="ytick_32">
     <g id="line2d_46">
      <g>
       <use style="stroke:#000000;stroke-width:0.6;" x="64.694" xlink:href="#m29f428f8c7" y="198.881826"/>
      </g>
     </g>
    </g>
    <g id="ytick_33">
     <g id="line2d_47">
      <g>
       <use style="stroke:#000000;stroke-width:0.6;" x="64.694" xlink:href="#m29f428f8c7" y="196.738971"/>
      </g>
     </g>
    </g>
    <g id="ytick_34">
     <g id="line2d_48">
      <g>
       <use style="stroke:#000000;stroke-width:0.6;" x="64.694" xlink:href="#m29f428f8c7" y="194.882746"/>
      </g>
     </g>
    </g>
    <g id="ytick_35">
     <g id="line2d_49">
      <g>
       <use style="stroke:#000000;stroke-width:0.6;" x="64.694" xlink:href="#m29f428f8c7" y="193.245439"/>
      </g>
     </g>
    </g>
    <g id="ytick_36">
     <g id="line2d_50">
      <g>
       <use style="stroke:#000000;stroke-width:0.6;" x="64.694" xlink:href="#m29f428f8c7" y="182.145349"/>
      </g>
     </g>
    </g>
    <g id="ytick_37">
     <g id="line2d_51">
      <g>
       <use style="stroke:#000000;stroke-width:0.6;" x="64.694" xlink:href="#m29f428f8c7" y="176.508961"/>
      </g>
     </g>
    </g>
    <g id="text_27">
     <!-- Frequency -->
     <g transform="translate(34.014313 258.973687)rotate(-90)scale(0.1 -0.1)">
      <defs>
       <path d="M 628 4666 
L 3309 4666 
L 3309 4134 
L 1259 4134 
L 1259 2759 
L 3109 2759 
L 3109 2228 
L 1259 2228 
L 1259 0 
L 628 0 
L 628 4666 
z
" id="DejaVuSans-46" transform="scale(0.015625)"/>
       <path d="M 947 1747 
Q 947 1113 1208 752 
Q 1469 391 1925 391 
Q 2381 391 2643 752 
Q 2906 1113 2906 1747 
Q 2906 2381 2643 2742 
Q 2381 3103 1925 3103 
Q 1469 3103 1208 2742 
Q 947 2381 947 1747 
z
M 2906 525 
Q 2725 213 2448 61 
Q 2172 -91 1784 -91 
Q 1150 -91 751 415 
Q 353 922 353 1747 
Q 353 2572 751 3078 
Q 1150 3584 1784 3584 
Q 2172 3584 2448 3432 
Q 2725 3281 2906 2969 
L 2906 3500 
L 3481 3500 
L 3481 -1331 
L 2906 -1331 
L 2906 525 
z
" id="DejaVuSans-71" transform="scale(0.015625)"/>
      </defs>
      <use xlink:href="#DejaVuSans-46"/>
      <use x="50.269531" xlink:href="#DejaVuSans-72"/>
      <use x="89.132812" xlink:href="#DejaVuSans-65"/>
      <use x="150.65625" xlink:href="#DejaVuSans-71"/>
      <use x="214.132812" xlink:href="#DejaVuSans-75"/>
      <use x="277.511719" xlink:href="#DejaVuSans-65"/>
      <use x="339.035156" xlink:href="#DejaVuSans-6e"/>
      <use x="402.414062" xlink:href="#DejaVuSans-63"/>
      <use x="457.394531" xlink:href="#DejaVuSans-79"/>
     </g>
    </g>
   </g>
   <g id="patch_138">
    <path d="M 64.694 293.272 
L 64.694 173.016 
" style="fill:none;stroke:#000000;stroke-linecap:square;stroke-linejoin:miter;stroke-width:0.8;"/>
   </g>
   <g id="patch_139">
    <path d="M 450 293.272 
L 450 173.016 
" style="fill:none;stroke:#000000;stroke-linecap:square;stroke-linejoin:miter;stroke-width:0.8;"/>
   </g>
   <g id="patch_140">
    <path d="M 64.694 293.272 
L 450 293.272 
" style="fill:none;stroke:#000000;stroke-linecap:square;stroke-linejoin:miter;stroke-width:0.8;"/>
   </g>
   <g id="patch_141">
    <path d="M 64.694 173.016 
L 450 173.016 
" style="fill:none;stroke:#000000;stroke-linecap:square;stroke-linejoin:miter;stroke-width:0.8;"/>
   </g>
  </g>
 </g>
 <defs>
  <clipPath id="p94e1b96efb">
   <rect height="120.256" width="385.306" x="64.694" y="10.8"/>
  </clipPath>
  <clipPath id="p1d2e24b32a">
   <rect height="120.256" width="385.306" x="64.694" y="173.016"/>
  </clipPath>
 </defs>
</svg>
