<?xml version="1.0" encoding="utf-8" standalone="no"?>
<!DOCTYPE svg PUBLIC "-//W3C//DTD SVG 1.1//EN"
  "http://www.w3.org/Graphics/SVG/1.1/DTD/svg11.dtd">
<svg height="345.6pt" version="1.1" viewBox="0 0 460.8 345.6" width="460.8pt" xmlns="http://www.w3.org/2000/svg" xmlns:xlink="http://www.w3.org/1999/xlink">
 <metadata>
  <rdf:RDF xmlns:cc="http://creativecommons.org/ns#" xmlns:dc="http://purl.org/dc/elements/1.1/" xmlns:rdf="http://www.w3.org/1999/02/22-rdf-syntax-ns#">
   <cc:Work>
    <dc:type rdf:resource="http://purl.org/dc/dcmitype/StillImage"/>
    <dc:date>2021-11-07T21:29:33.263524</dc:date>
    <dc:format>image/svg+xml</dc:format>
    <dc:creator>
     <cc:Agent>
      <dc:title>Matplotlib v3.4.3, https://matplotlib.org/</dc:title>
     </cc:Agent>
    </dc:creator>
   </cc:Work>
  </rdf:RDF>
 </metadata>
 <defs>
  <style type="text/css">*{stroke-linecap:butt;stroke-linejoin:round;}</style>
 </defs>
 <g id="figure_1">
  <g id="patch_1">
   <path d="M 0 345.6 
L 460.8 345.6 
L 460.8 0 
L 0 0 
z
" style="fill:#ffffff;"/>
  </g>
  <g id="axes_1">
   <g id="patch_2">
    <path d="M 63.961685 293.272 
L 450 293.272 
L 450 10.8 
L 63.961685 10.8 
z
" style="fill:#ffffff;"/>
   </g>
   <g id="patch_3">
    <path clip-path="url(#pa53e3df7ed)" d="M 81.508881 64633.330472 
L 85.01832 64633.330472 
L 85.01832 280.432364 
L 81.508881 280.432364 
z
" style="fill:#1f77b4;"/>
   </g>
   <g id="patch_4">
    <path clip-path="url(#pa53e3df7ed)" d="M 85.01832 64633.330472 
L 88.527759 64633.330472 
L 88.527759 64633.330472 
L 85.01832 64633.330472 
z
" style="fill:#1f77b4;"/>
   </g>
   <g id="patch_5">
    <path clip-path="url(#pa53e3df7ed)" d="M 88.527759 64633.330472 
L 92.037199 64633.330472 
L 92.037199 64633.330472 
L 88.527759 64633.330472 
z
" style="fill:#1f77b4;"/>
   </g>
   <g id="patch_6">
    <path clip-path="url(#pa53e3df7ed)" d="M 92.037199 64633.330472 
L 95.546638 64633.330472 
L 95.546638 64633.330472 
L 92.037199 64633.330472 
z
" style="fill:#1f77b4;"/>
   </g>
   <g id="patch_7">
    <path clip-path="url(#pa53e3df7ed)" d="M 95.546638 64633.330472 
L 99.056077 64633.330472 
L 99.056077 64633.330472 
L 95.546638 64633.330472 
z
" style="fill:#1f77b4;"/>
   </g>
   <g id="patch_8">
    <path clip-path="url(#pa53e3df7ed)" d="M 99.056077 64633.330472 
L 102.565516 64633.330472 
L 102.565516 64633.330472 
L 99.056077 64633.330472 
z
" style="fill:#1f77b4;"/>
   </g>
   <g id="patch_9">
    <path clip-path="url(#pa53e3df7ed)" d="M 102.565516 64633.330472 
L 106.074956 64633.330472 
L 106.074956 64633.330472 
L 102.565516 64633.330472 
z
" style="fill:#1f77b4;"/>
   </g>
   <g id="patch_10">
    <path clip-path="url(#pa53e3df7ed)" d="M 106.074956 64633.330472 
L 109.584395 64633.330472 
L 109.584395 64633.330472 
L 106.074956 64633.330472 
z
" style="fill:#1f77b4;"/>
   </g>
   <g id="patch_11">
    <path clip-path="url(#pa53e3df7ed)" d="M 109.584395 64633.330472 
L 113.093834 64633.330472 
L 113.093834 64633.330472 
L 109.584395 64633.330472 
z
" style="fill:#1f77b4;"/>
   </g>
   <g id="patch_12">
    <path clip-path="url(#pa53e3df7ed)" d="M 113.093834 64633.330472 
L 116.603273 64633.330472 
L 116.603273 64633.330472 
L 113.093834 64633.330472 
z
" style="fill:#1f77b4;"/>
   </g>
   <g id="patch_13">
    <path clip-path="url(#pa53e3df7ed)" d="M 116.603273 64633.330472 
L 120.112712 64633.330472 
L 120.112712 64633.330472 
L 116.603273 64633.330472 
z
" style="fill:#1f77b4;"/>
   </g>
   <g id="patch_14">
    <path clip-path="url(#pa53e3df7ed)" d="M 120.112712 64633.330472 
L 123.622152 64633.330472 
L 123.622152 64633.330472 
L 120.112712 64633.330472 
z
" style="fill:#1f77b4;"/>
   </g>
   <g id="patch_15">
    <path clip-path="url(#pa53e3df7ed)" d="M 123.622152 64633.330472 
L 127.131591 64633.330472 
L 127.131591 64633.330472 
L 123.622152 64633.330472 
z
" style="fill:#1f77b4;"/>
   </g>
   <g id="patch_16">
    <path clip-path="url(#pa53e3df7ed)" d="M 127.131591 64633.330472 
L 130.64103 64633.330472 
L 130.64103 64633.330472 
L 127.131591 64633.330472 
z
" style="fill:#1f77b4;"/>
   </g>
   <g id="patch_17">
    <path clip-path="url(#pa53e3df7ed)" d="M 130.64103 64633.330472 
L 134.150469 64633.330472 
L 134.150469 64633.330472 
L 130.64103 64633.330472 
z
" style="fill:#1f77b4;"/>
   </g>
   <g id="patch_18">
    <path clip-path="url(#pa53e3df7ed)" d="M 134.150469 64633.330472 
L 137.659909 64633.330472 
L 137.659909 64633.330472 
L 134.150469 64633.330472 
z
" style="fill:#1f77b4;"/>
   </g>
   <g id="patch_19">
    <path clip-path="url(#pa53e3df7ed)" d="M 137.659909 64633.330472 
L 141.169348 64633.330472 
L 141.169348 64633.330472 
L 137.659909 64633.330472 
z
" style="fill:#1f77b4;"/>
   </g>
   <g id="patch_20">
    <path clip-path="url(#pa53e3df7ed)" d="M 141.169348 64633.330472 
L 144.678787 64633.330472 
L 144.678787 64633.330472 
L 141.169348 64633.330472 
z
" style="fill:#1f77b4;"/>
   </g>
   <g id="patch_21">
    <path clip-path="url(#pa53e3df7ed)" d="M 144.678787 64633.330472 
L 148.188226 64633.330472 
L 148.188226 64633.330472 
L 144.678787 64633.330472 
z
" style="fill:#1f77b4;"/>
   </g>
   <g id="patch_22">
    <path clip-path="url(#pa53e3df7ed)" d="M 148.188226 64633.330472 
L 151.697666 64633.330472 
L 151.697666 64633.330472 
L 148.188226 64633.330472 
z
" style="fill:#1f77b4;"/>
   </g>
   <g id="patch_23">
    <path clip-path="url(#pa53e3df7ed)" d="M 151.697666 64633.330472 
L 155.207105 64633.330472 
L 155.207105 64633.330472 
L 151.697666 64633.330472 
z
" style="fill:#1f77b4;"/>
   </g>
   <g id="patch_24">
    <path clip-path="url(#pa53e3df7ed)" d="M 155.207105 64633.330472 
L 158.716544 64633.330472 
L 158.716544 64633.330472 
L 155.207105 64633.330472 
z
" style="fill:#1f77b4;"/>
   </g>
   <g id="patch_25">
    <path clip-path="url(#pa53e3df7ed)" d="M 158.716544 64633.330472 
L 162.225983 64633.330472 
L 162.225983 64633.330472 
L 158.716544 64633.330472 
z
" style="fill:#1f77b4;"/>
   </g>
   <g id="patch_26">
    <path clip-path="url(#pa53e3df7ed)" d="M 162.225983 64633.330472 
L 165.735422 64633.330472 
L 165.735422 64633.330472 
L 162.225983 64633.330472 
z
" style="fill:#1f77b4;"/>
   </g>
   <g id="patch_27">
    <path clip-path="url(#pa53e3df7ed)" d="M 165.735422 64633.330472 
L 169.244862 64633.330472 
L 169.244862 64633.330472 
L 165.735422 64633.330472 
z
" style="fill:#1f77b4;"/>
   </g>
   <g id="patch_28">
    <path clip-path="url(#pa53e3df7ed)" d="M 169.244862 64633.330472 
L 172.754301 64633.330472 
L 172.754301 64633.330472 
L 169.244862 64633.330472 
z
" style="fill:#1f77b4;"/>
   </g>
   <g id="patch_29">
    <path clip-path="url(#pa53e3df7ed)" d="M 172.754301 64633.330472 
L 176.26374 64633.330472 
L 176.26374 64633.330472 
L 172.754301 64633.330472 
z
" style="fill:#1f77b4;"/>
   </g>
   <g id="patch_30">
    <path clip-path="url(#pa53e3df7ed)" d="M 176.26374 64633.330472 
L 179.773179 64633.330472 
L 179.773179 64633.330472 
L 176.26374 64633.330472 
z
" style="fill:#1f77b4;"/>
   </g>
   <g id="patch_31">
    <path clip-path="url(#pa53e3df7ed)" d="M 179.773179 64633.330472 
L 183.282619 64633.330472 
L 183.282619 64633.330472 
L 179.773179 64633.330472 
z
" style="fill:#1f77b4;"/>
   </g>
   <g id="patch_32">
    <path clip-path="url(#pa53e3df7ed)" d="M 183.282619 64633.330472 
L 186.792058 64633.330472 
L 186.792058 64633.330472 
L 183.282619 64633.330472 
z
" style="fill:#1f77b4;"/>
   </g>
   <g id="patch_33">
    <path clip-path="url(#pa53e3df7ed)" d="M 186.792058 64633.330472 
L 190.301497 64633.330472 
L 190.301497 64633.330472 
L 186.792058 64633.330472 
z
" style="fill:#1f77b4;"/>
   </g>
   <g id="patch_34">
    <path clip-path="url(#pa53e3df7ed)" d="M 190.301497 64633.330472 
L 193.810936 64633.330472 
L 193.810936 64633.330472 
L 190.301497 64633.330472 
z
" style="fill:#1f77b4;"/>
   </g>
   <g id="patch_35">
    <path clip-path="url(#pa53e3df7ed)" d="M 193.810936 64633.330472 
L 197.320375 64633.330472 
L 197.320375 64633.330472 
L 193.810936 64633.330472 
z
" style="fill:#1f77b4;"/>
   </g>
   <g id="patch_36">
    <path clip-path="url(#pa53e3df7ed)" d="M 197.320375 64633.330472 
L 200.829815 64633.330472 
L 200.829815 64633.330472 
L 197.320375 64633.330472 
z
" style="fill:#1f77b4;"/>
   </g>
   <g id="patch_37">
    <path clip-path="url(#pa53e3df7ed)" d="M 200.829815 64633.330472 
L 204.339254 64633.330472 
L 204.339254 64633.330472 
L 200.829815 64633.330472 
z
" style="fill:#1f77b4;"/>
   </g>
   <g id="patch_38">
    <path clip-path="url(#pa53e3df7ed)" d="M 204.339254 64633.330472 
L 207.848693 64633.330472 
L 207.848693 64633.330472 
L 204.339254 64633.330472 
z
" style="fill:#1f77b4;"/>
   </g>
   <g id="patch_39">
    <path clip-path="url(#pa53e3df7ed)" d="M 207.848693 64633.330472 
L 211.358132 64633.330472 
L 211.358132 64633.330472 
L 207.848693 64633.330472 
z
" style="fill:#1f77b4;"/>
   </g>
   <g id="patch_40">
    <path clip-path="url(#pa53e3df7ed)" d="M 211.358132 64633.330472 
L 214.867572 64633.330472 
L 214.867572 64633.330472 
L 211.358132 64633.330472 
z
" style="fill:#1f77b4;"/>
   </g>
   <g id="patch_41">
    <path clip-path="url(#pa53e3df7ed)" d="M 214.867572 64633.330472 
L 218.377011 64633.330472 
L 218.377011 64633.330472 
L 214.867572 64633.330472 
z
" style="fill:#1f77b4;"/>
   </g>
   <g id="patch_42">
    <path clip-path="url(#pa53e3df7ed)" d="M 218.377011 64633.330472 
L 221.88645 64633.330472 
L 221.88645 64633.330472 
L 218.377011 64633.330472 
z
" style="fill:#1f77b4;"/>
   </g>
   <g id="patch_43">
    <path clip-path="url(#pa53e3df7ed)" d="M 221.88645 64633.330472 
L 225.395889 64633.330472 
L 225.395889 64633.330472 
L 221.88645 64633.330472 
z
" style="fill:#1f77b4;"/>
   </g>
   <g id="patch_44">
    <path clip-path="url(#pa53e3df7ed)" d="M 225.395889 64633.330472 
L 228.905329 64633.330472 
L 228.905329 64633.330472 
L 225.395889 64633.330472 
z
" style="fill:#1f77b4;"/>
   </g>
   <g id="patch_45">
    <path clip-path="url(#pa53e3df7ed)" d="M 228.905329 64633.330472 
L 232.414768 64633.330472 
L 232.414768 64633.330472 
L 228.905329 64633.330472 
z
" style="fill:#1f77b4;"/>
   </g>
   <g id="patch_46">
    <path clip-path="url(#pa53e3df7ed)" d="M 232.414768 64633.330472 
L 235.924207 64633.330472 
L 235.924207 64633.330472 
L 232.414768 64633.330472 
z
" style="fill:#1f77b4;"/>
   </g>
   <g id="patch_47">
    <path clip-path="url(#pa53e3df7ed)" d="M 235.924207 64633.330472 
L 239.433646 64633.330472 
L 239.433646 64633.330472 
L 235.924207 64633.330472 
z
" style="fill:#1f77b4;"/>
   </g>
   <g id="patch_48">
    <path clip-path="url(#pa53e3df7ed)" d="M 239.433646 64633.330472 
L 242.943085 64633.330472 
L 242.943085 64633.330472 
L 239.433646 64633.330472 
z
" style="fill:#1f77b4;"/>
   </g>
   <g id="patch_49">
    <path clip-path="url(#pa53e3df7ed)" d="M 242.943085 64633.330472 
L 246.452525 64633.330472 
L 246.452525 64633.330472 
L 242.943085 64633.330472 
z
" style="fill:#1f77b4;"/>
   </g>
   <g id="patch_50">
    <path clip-path="url(#pa53e3df7ed)" d="M 246.452525 64633.330472 
L 249.961964 64633.330472 
L 249.961964 64633.330472 
L 246.452525 64633.330472 
z
" style="fill:#1f77b4;"/>
   </g>
   <g id="patch_51">
    <path clip-path="url(#pa53e3df7ed)" d="M 249.961964 64633.330472 
L 253.471403 64633.330472 
L 253.471403 64633.330472 
L 249.961964 64633.330472 
z
" style="fill:#1f77b4;"/>
   </g>
   <g id="patch_52">
    <path clip-path="url(#pa53e3df7ed)" d="M 253.471403 64633.330472 
L 256.980842 64633.330472 
L 256.980842 64633.330472 
L 253.471403 64633.330472 
z
" style="fill:#1f77b4;"/>
   </g>
   <g id="patch_53">
    <path clip-path="url(#pa53e3df7ed)" d="M 256.980842 64633.330472 
L 260.490282 64633.330472 
L 260.490282 64633.330472 
L 256.980842 64633.330472 
z
" style="fill:#1f77b4;"/>
   </g>
   <g id="patch_54">
    <path clip-path="url(#pa53e3df7ed)" d="M 260.490282 64633.330472 
L 263.999721 64633.330472 
L 263.999721 64633.330472 
L 260.490282 64633.330472 
z
" style="fill:#1f77b4;"/>
   </g>
   <g id="patch_55">
    <path clip-path="url(#pa53e3df7ed)" d="M 263.999721 64633.330472 
L 267.50916 64633.330472 
L 267.50916 64633.330472 
L 263.999721 64633.330472 
z
" style="fill:#1f77b4;"/>
   </g>
   <g id="patch_56">
    <path clip-path="url(#pa53e3df7ed)" d="M 267.50916 64633.330472 
L 271.018599 64633.330472 
L 271.018599 64633.330472 
L 267.50916 64633.330472 
z
" style="fill:#1f77b4;"/>
   </g>
   <g id="patch_57">
    <path clip-path="url(#pa53e3df7ed)" d="M 271.018599 64633.330472 
L 274.528039 64633.330472 
L 274.528039 64633.330472 
L 271.018599 64633.330472 
z
" style="fill:#1f77b4;"/>
   </g>
   <g id="patch_58">
    <path clip-path="url(#pa53e3df7ed)" d="M 274.528039 64633.330472 
L 278.037478 64633.330472 
L 278.037478 64633.330472 
L 274.528039 64633.330472 
z
" style="fill:#1f77b4;"/>
   </g>
   <g id="patch_59">
    <path clip-path="url(#pa53e3df7ed)" d="M 278.037478 64633.330472 
L 281.546917 64633.330472 
L 281.546917 64633.330472 
L 278.037478 64633.330472 
z
" style="fill:#1f77b4;"/>
   </g>
   <g id="patch_60">
    <path clip-path="url(#pa53e3df7ed)" d="M 281.546917 64633.330472 
L 285.056356 64633.330472 
L 285.056356 64633.330472 
L 281.546917 64633.330472 
z
" style="fill:#1f77b4;"/>
   </g>
   <g id="patch_61">
    <path clip-path="url(#pa53e3df7ed)" d="M 285.056356 64633.330472 
L 288.565795 64633.330472 
L 288.565795 64633.330472 
L 285.056356 64633.330472 
z
" style="fill:#1f77b4;"/>
   </g>
   <g id="patch_62">
    <path clip-path="url(#pa53e3df7ed)" d="M 288.565795 64633.330472 
L 292.075235 64633.330472 
L 292.075235 64633.330472 
L 288.565795 64633.330472 
z
" style="fill:#1f77b4;"/>
   </g>
   <g id="patch_63">
    <path clip-path="url(#pa53e3df7ed)" d="M 292.075235 64633.330472 
L 295.584674 64633.330472 
L 295.584674 64633.330472 
L 292.075235 64633.330472 
z
" style="fill:#1f77b4;"/>
   </g>
   <g id="patch_64">
    <path clip-path="url(#pa53e3df7ed)" d="M 295.584674 64633.330472 
L 299.094113 64633.330472 
L 299.094113 64633.330472 
L 295.584674 64633.330472 
z
" style="fill:#1f77b4;"/>
   </g>
   <g id="patch_65">
    <path clip-path="url(#pa53e3df7ed)" d="M 299.094113 64633.330472 
L 302.603552 64633.330472 
L 302.603552 64633.330472 
L 299.094113 64633.330472 
z
" style="fill:#1f77b4;"/>
   </g>
   <g id="patch_66">
    <path clip-path="url(#pa53e3df7ed)" d="M 302.603552 64633.330472 
L 306.112992 64633.330472 
L 306.112992 64633.330472 
L 302.603552 64633.330472 
z
" style="fill:#1f77b4;"/>
   </g>
   <g id="patch_67">
    <path clip-path="url(#pa53e3df7ed)" d="M 306.112992 64633.330472 
L 309.622431 64633.330472 
L 309.622431 64633.330472 
L 306.112992 64633.330472 
z
" style="fill:#1f77b4;"/>
   </g>
   <g id="patch_68">
    <path clip-path="url(#pa53e3df7ed)" d="M 309.622431 64633.330472 
L 313.13187 64633.330472 
L 313.13187 64633.330472 
L 309.622431 64633.330472 
z
" style="fill:#1f77b4;"/>
   </g>
   <g id="patch_69">
    <path clip-path="url(#pa53e3df7ed)" d="M 313.13187 64633.330472 
L 316.641309 64633.330472 
L 316.641309 64633.330472 
L 313.13187 64633.330472 
z
" style="fill:#1f77b4;"/>
   </g>
   <g id="patch_70">
    <path clip-path="url(#pa53e3df7ed)" d="M 316.641309 64633.330472 
L 320.150749 64633.330472 
L 320.150749 64633.330472 
L 316.641309 64633.330472 
z
" style="fill:#1f77b4;"/>
   </g>
   <g id="patch_71">
    <path clip-path="url(#pa53e3df7ed)" d="M 320.150749 64633.330472 
L 323.660188 64633.330472 
L 323.660188 64633.330472 
L 320.150749 64633.330472 
z
" style="fill:#1f77b4;"/>
   </g>
   <g id="patch_72">
    <path clip-path="url(#pa53e3df7ed)" d="M 323.660188 64633.330472 
L 327.169627 64633.330472 
L 327.169627 64633.330472 
L 323.660188 64633.330472 
z
" style="fill:#1f77b4;"/>
   </g>
   <g id="patch_73">
    <path clip-path="url(#pa53e3df7ed)" d="M 327.169627 64633.330472 
L 330.679066 64633.330472 
L 330.679066 64633.330472 
L 327.169627 64633.330472 
z
" style="fill:#1f77b4;"/>
   </g>
   <g id="patch_74">
    <path clip-path="url(#pa53e3df7ed)" d="M 330.679066 64633.330472 
L 334.188505 64633.330472 
L 334.188505 64633.330472 
L 330.679066 64633.330472 
z
" style="fill:#1f77b4;"/>
   </g>
   <g id="patch_75">
    <path clip-path="url(#pa53e3df7ed)" d="M 334.188505 64633.330472 
L 337.697945 64633.330472 
L 337.697945 64633.330472 
L 334.188505 64633.330472 
z
" style="fill:#1f77b4;"/>
   </g>
   <g id="patch_76">
    <path clip-path="url(#pa53e3df7ed)" d="M 337.697945 64633.330472 
L 341.207384 64633.330472 
L 341.207384 64633.330472 
L 337.697945 64633.330472 
z
" style="fill:#1f77b4;"/>
   </g>
   <g id="patch_77">
    <path clip-path="url(#pa53e3df7ed)" d="M 341.207384 64633.330472 
L 344.716823 64633.330472 
L 344.716823 64633.330472 
L 341.207384 64633.330472 
z
" style="fill:#1f77b4;"/>
   </g>
   <g id="patch_78">
    <path clip-path="url(#pa53e3df7ed)" d="M 344.716823 64633.330472 
L 348.226262 64633.330472 
L 348.226262 64633.330472 
L 344.716823 64633.330472 
z
" style="fill:#1f77b4;"/>
   </g>
   <g id="patch_79">
    <path clip-path="url(#pa53e3df7ed)" d="M 348.226262 64633.330472 
L 351.735702 64633.330472 
L 351.735702 64633.330472 
L 348.226262 64633.330472 
z
" style="fill:#1f77b4;"/>
   </g>
   <g id="patch_80">
    <path clip-path="url(#pa53e3df7ed)" d="M 351.735702 64633.330472 
L 355.245141 64633.330472 
L 355.245141 64633.330472 
L 351.735702 64633.330472 
z
" style="fill:#1f77b4;"/>
   </g>
   <g id="patch_81">
    <path clip-path="url(#pa53e3df7ed)" d="M 355.245141 64633.330472 
L 358.75458 64633.330472 
L 358.75458 64633.330472 
L 355.245141 64633.330472 
z
" style="fill:#1f77b4;"/>
   </g>
   <g id="patch_82">
    <path clip-path="url(#pa53e3df7ed)" d="M 358.75458 64633.330472 
L 362.264019 64633.330472 
L 362.264019 64633.330472 
L 358.75458 64633.330472 
z
" style="fill:#1f77b4;"/>
   </g>
   <g id="patch_83">
    <path clip-path="url(#pa53e3df7ed)" d="M 362.264019 64633.330472 
L 365.773458 64633.330472 
L 365.773458 64633.330472 
L 362.264019 64633.330472 
z
" style="fill:#1f77b4;"/>
   </g>
   <g id="patch_84">
    <path clip-path="url(#pa53e3df7ed)" d="M 365.773458 64633.330472 
L 369.282898 64633.330472 
L 369.282898 64633.330472 
L 365.773458 64633.330472 
z
" style="fill:#1f77b4;"/>
   </g>
   <g id="patch_85">
    <path clip-path="url(#pa53e3df7ed)" d="M 369.282898 64633.330472 
L 372.792337 64633.330472 
L 372.792337 64633.330472 
L 369.282898 64633.330472 
z
" style="fill:#1f77b4;"/>
   </g>
   <g id="patch_86">
    <path clip-path="url(#pa53e3df7ed)" d="M 372.792337 64633.330472 
L 376.301776 64633.330472 
L 376.301776 64633.330472 
L 372.792337 64633.330472 
z
" style="fill:#1f77b4;"/>
   </g>
   <g id="patch_87">
    <path clip-path="url(#pa53e3df7ed)" d="M 376.301776 64633.330472 
L 379.811215 64633.330472 
L 379.811215 64633.330472 
L 376.301776 64633.330472 
z
" style="fill:#1f77b4;"/>
   </g>
   <g id="patch_88">
    <path clip-path="url(#pa53e3df7ed)" d="M 379.811215 64633.330472 
L 383.320655 64633.330472 
L 383.320655 64633.330472 
L 379.811215 64633.330472 
z
" style="fill:#1f77b4;"/>
   </g>
   <g id="patch_89">
    <path clip-path="url(#pa53e3df7ed)" d="M 383.320655 64633.330472 
L 386.830094 64633.330472 
L 386.830094 64633.330472 
L 383.320655 64633.330472 
z
" style="fill:#1f77b4;"/>
   </g>
   <g id="patch_90">
    <path clip-path="url(#pa53e3df7ed)" d="M 386.830094 64633.330472 
L 390.339533 64633.330472 
L 390.339533 64633.330472 
L 386.830094 64633.330472 
z
" style="fill:#1f77b4;"/>
   </g>
   <g id="patch_91">
    <path clip-path="url(#pa53e3df7ed)" d="M 390.339533 64633.330472 
L 393.848972 64633.330472 
L 393.848972 64633.330472 
L 390.339533 64633.330472 
z
" style="fill:#1f77b4;"/>
   </g>
   <g id="patch_92">
    <path clip-path="url(#pa53e3df7ed)" d="M 393.848972 64633.330472 
L 397.358412 64633.330472 
L 397.358412 64633.330472 
L 393.848972 64633.330472 
z
" style="fill:#1f77b4;"/>
   </g>
   <g id="patch_93">
    <path clip-path="url(#pa53e3df7ed)" d="M 397.358412 64633.330472 
L 400.867851 64633.330472 
L 400.867851 64633.330472 
L 397.358412 64633.330472 
z
" style="fill:#1f77b4;"/>
   </g>
   <g id="patch_94">
    <path clip-path="url(#pa53e3df7ed)" d="M 400.867851 64633.330472 
L 404.37729 64633.330472 
L 404.37729 64633.330472 
L 400.867851 64633.330472 
z
" style="fill:#1f77b4;"/>
   </g>
   <g id="patch_95">
    <path clip-path="url(#pa53e3df7ed)" d="M 404.37729 64633.330472 
L 407.886729 64633.330472 
L 407.886729 64633.330472 
L 404.37729 64633.330472 
z
" style="fill:#1f77b4;"/>
   </g>
   <g id="patch_96">
    <path clip-path="url(#pa53e3df7ed)" d="M 407.886729 64633.330472 
L 411.396168 64633.330472 
L 411.396168 64633.330472 
L 407.886729 64633.330472 
z
" style="fill:#1f77b4;"/>
   </g>
   <g id="patch_97">
    <path clip-path="url(#pa53e3df7ed)" d="M 411.396168 64633.330472 
L 414.905608 64633.330472 
L 414.905608 64633.330472 
L 411.396168 64633.330472 
z
" style="fill:#1f77b4;"/>
   </g>
   <g id="patch_98">
    <path clip-path="url(#pa53e3df7ed)" d="M 414.905608 64633.330472 
L 418.415047 64633.330472 
L 418.415047 187.30355 
L 414.905608 187.30355 
z
" style="fill:#1f77b4;"/>
   </g>
   <g id="patch_99">
    <path clip-path="url(#pa53e3df7ed)" d="M 418.415047 64633.330472 
L 421.924486 64633.330472 
L 421.924486 23.639636 
L 418.415047 23.639636 
z
" style="fill:#1f77b4;"/>
   </g>
   <g id="patch_100">
    <path clip-path="url(#pa53e3df7ed)" d="M 421.924486 64633.330472 
L 425.433925 64633.330472 
L 425.433925 88.282631 
L 421.924486 88.282631 
z
" style="fill:#1f77b4;"/>
   </g>
   <g id="patch_101">
    <path clip-path="url(#pa53e3df7ed)" d="M 425.433925 64633.330472 
L 428.943365 64633.330472 
L 428.943365 153.160118 
L 425.433925 153.160118 
z
" style="fill:#1f77b4;"/>
   </g>
   <g id="patch_102">
    <path clip-path="url(#pa53e3df7ed)" d="M 428.943365 64633.330472 
L 432.452804 64633.330472 
L 432.452804 213.415726 
L 428.943365 213.415726 
z
" style="fill:#1f77b4;"/>
   </g>
   <g id="matplotlib.axis_1">
    <g id="xtick_1">
     <g id="line2d_1">
      <defs>
       <path d="M 0 0 
L 0 3.5 
" id="mb85d8d500d" style="stroke:#000000;stroke-width:0.8;"/>
      </defs>
      <g>
       <use style="stroke:#000000;stroke-width:0.8;" x="77.565971" xlink:href="#mb85d8d500d" y="293.272"/>
      </g>
     </g>
     <g id="text_1">
      <!-- −400 -->
      <g transform="translate(63.832377 307.870437)scale(0.1 -0.1)">
       <defs>
        <path d="M 678 2272 
L 4684 2272 
L 4684 1741 
L 678 1741 
L 678 2272 
z
" id="DejaVuSans-2212" transform="scale(0.015625)"/>
        <path d="M 2419 4116 
L 825 1625 
L 2419 1625 
L 2419 4116 
z
M 2253 4666 
L 3047 4666 
L 3047 1625 
L 3713 1625 
L 3713 1100 
L 3047 1100 
L 3047 0 
L 2419 0 
L 2419 1100 
L 313 1100 
L 313 1709 
L 2253 4666 
z
" id="DejaVuSans-34" transform="scale(0.015625)"/>
        <path d="M 2034 4250 
Q 1547 4250 1301 3770 
Q 1056 3291 1056 2328 
Q 1056 1369 1301 889 
Q 1547 409 2034 409 
Q 2525 409 2770 889 
Q 3016 1369 3016 2328 
Q 3016 3291 2770 3770 
Q 2525 4250 2034 4250 
z
M 2034 4750 
Q 2819 4750 3233 4129 
Q 3647 3509 3647 2328 
Q 3647 1150 3233 529 
Q 2819 -91 2034 -91 
Q 1250 -91 836 529 
Q 422 1150 422 2328 
Q 422 3509 836 4129 
Q 1250 4750 2034 4750 
z
" id="DejaVuSans-30" transform="scale(0.015625)"/>
       </defs>
       <use xlink:href="#DejaVuSans-2212"/>
       <use x="83.789062" xlink:href="#DejaVuSans-34"/>
       <use x="147.412109" xlink:href="#DejaVuSans-30"/>
       <use x="211.035156" xlink:href="#DejaVuSans-30"/>
      </g>
     </g>
    </g>
    <g id="xtick_2">
     <g id="line2d_2">
      <g>
       <use style="stroke:#000000;stroke-width:0.8;" x="162.776715" xlink:href="#mb85d8d500d" y="293.272"/>
      </g>
     </g>
     <g id="text_2">
      <!-- −300 -->
      <g transform="translate(149.043121 307.870437)scale(0.1 -0.1)">
       <defs>
        <path d="M 2597 2516 
Q 3050 2419 3304 2112 
Q 3559 1806 3559 1356 
Q 3559 666 3084 287 
Q 2609 -91 1734 -91 
Q 1441 -91 1130 -33 
Q 819 25 488 141 
L 488 750 
Q 750 597 1062 519 
Q 1375 441 1716 441 
Q 2309 441 2620 675 
Q 2931 909 2931 1356 
Q 2931 1769 2642 2001 
Q 2353 2234 1838 2234 
L 1294 2234 
L 1294 2753 
L 1863 2753 
Q 2328 2753 2575 2939 
Q 2822 3125 2822 3475 
Q 2822 3834 2567 4026 
Q 2313 4219 1838 4219 
Q 1578 4219 1281 4162 
Q 984 4106 628 3988 
L 628 4550 
Q 988 4650 1302 4700 
Q 1616 4750 1894 4750 
Q 2613 4750 3031 4423 
Q 3450 4097 3450 3541 
Q 3450 3153 3228 2886 
Q 3006 2619 2597 2516 
z
" id="DejaVuSans-33" transform="scale(0.015625)"/>
       </defs>
       <use xlink:href="#DejaVuSans-2212"/>
       <use x="83.789062" xlink:href="#DejaVuSans-33"/>
       <use x="147.412109" xlink:href="#DejaVuSans-30"/>
       <use x="211.035156" xlink:href="#DejaVuSans-30"/>
      </g>
     </g>
    </g>
    <g id="xtick_3">
     <g id="line2d_3">
      <g>
       <use style="stroke:#000000;stroke-width:0.8;" x="247.987459" xlink:href="#mb85d8d500d" y="293.272"/>
      </g>
     </g>
     <g id="text_3">
      <!-- −200 -->
      <g transform="translate(234.253865 307.870437)scale(0.1 -0.1)">
       <defs>
        <path d="M 1228 531 
L 3431 531 
L 3431 0 
L 469 0 
L 469 531 
Q 828 903 1448 1529 
Q 2069 2156 2228 2338 
Q 2531 2678 2651 2914 
Q 2772 3150 2772 3378 
Q 2772 3750 2511 3984 
Q 2250 4219 1831 4219 
Q 1534 4219 1204 4116 
Q 875 4013 500 3803 
L 500 4441 
Q 881 4594 1212 4672 
Q 1544 4750 1819 4750 
Q 2544 4750 2975 4387 
Q 3406 4025 3406 3419 
Q 3406 3131 3298 2873 
Q 3191 2616 2906 2266 
Q 2828 2175 2409 1742 
Q 1991 1309 1228 531 
z
" id="DejaVuSans-32" transform="scale(0.015625)"/>
       </defs>
       <use xlink:href="#DejaVuSans-2212"/>
       <use x="83.789062" xlink:href="#DejaVuSans-32"/>
       <use x="147.412109" xlink:href="#DejaVuSans-30"/>
       <use x="211.035156" xlink:href="#DejaVuSans-30"/>
      </g>
     </g>
    </g>
    <g id="xtick_4">
     <g id="line2d_4">
      <g>
       <use style="stroke:#000000;stroke-width:0.8;" x="333.198203" xlink:href="#mb85d8d500d" y="293.272"/>
      </g>
     </g>
     <g id="text_4">
      <!-- −100 -->
      <g transform="translate(319.464609 307.870437)scale(0.1 -0.1)">
       <defs>
        <path d="M 794 531 
L 1825 531 
L 1825 4091 
L 703 3866 
L 703 4441 
L 1819 4666 
L 2450 4666 
L 2450 531 
L 3481 531 
L 3481 0 
L 794 0 
L 794 531 
z
" id="DejaVuSans-31" transform="scale(0.015625)"/>
       </defs>
       <use xlink:href="#DejaVuSans-2212"/>
       <use x="83.789062" xlink:href="#DejaVuSans-31"/>
       <use x="147.412109" xlink:href="#DejaVuSans-30"/>
       <use x="211.035156" xlink:href="#DejaVuSans-30"/>
      </g>
     </g>
    </g>
    <g id="xtick_5">
     <g id="line2d_5">
      <g>
       <use style="stroke:#000000;stroke-width:0.8;" x="418.408947" xlink:href="#mb85d8d500d" y="293.272"/>
      </g>
     </g>
     <g id="text_5">
      <!-- 0 -->
      <g transform="translate(415.227697 307.870437)scale(0.1 -0.1)">
       <use xlink:href="#DejaVuSans-30"/>
      </g>
     </g>
    </g>
    <g id="text_6">
     <!-- Time difference (count) (s) -->
     <g transform="translate(190.29178 321.548562)scale(0.1 -0.1)">
      <defs>
       <path d="M -19 4666 
L 3928 4666 
L 3928 4134 
L 2272 4134 
L 2272 0 
L 1638 0 
L 1638 4134 
L -19 4134 
L -19 4666 
z
" id="DejaVuSans-54" transform="scale(0.015625)"/>
       <path d="M 603 3500 
L 1178 3500 
L 1178 0 
L 603 0 
L 603 3500 
z
M 603 4863 
L 1178 4863 
L 1178 4134 
L 603 4134 
L 603 4863 
z
" id="DejaVuSans-69" transform="scale(0.015625)"/>
       <path d="M 3328 2828 
Q 3544 3216 3844 3400 
Q 4144 3584 4550 3584 
Q 5097 3584 5394 3201 
Q 5691 2819 5691 2113 
L 5691 0 
L 5113 0 
L 5113 2094 
Q 5113 2597 4934 2840 
Q 4756 3084 4391 3084 
Q 3944 3084 3684 2787 
Q 3425 2491 3425 1978 
L 3425 0 
L 2847 0 
L 2847 2094 
Q 2847 2600 2669 2842 
Q 2491 3084 2119 3084 
Q 1678 3084 1418 2786 
Q 1159 2488 1159 1978 
L 1159 0 
L 581 0 
L 581 3500 
L 1159 3500 
L 1159 2956 
Q 1356 3278 1631 3431 
Q 1906 3584 2284 3584 
Q 2666 3584 2933 3390 
Q 3200 3197 3328 2828 
z
" id="DejaVuSans-6d" transform="scale(0.015625)"/>
       <path d="M 3597 1894 
L 3597 1613 
L 953 1613 
Q 991 1019 1311 708 
Q 1631 397 2203 397 
Q 2534 397 2845 478 
Q 3156 559 3463 722 
L 3463 178 
Q 3153 47 2828 -22 
Q 2503 -91 2169 -91 
Q 1331 -91 842 396 
Q 353 884 353 1716 
Q 353 2575 817 3079 
Q 1281 3584 2069 3584 
Q 2775 3584 3186 3129 
Q 3597 2675 3597 1894 
z
M 3022 2063 
Q 3016 2534 2758 2815 
Q 2500 3097 2075 3097 
Q 1594 3097 1305 2825 
Q 1016 2553 972 2059 
L 3022 2063 
z
" id="DejaVuSans-65" transform="scale(0.015625)"/>
       <path id="DejaVuSans-20" transform="scale(0.015625)"/>
       <path d="M 2906 2969 
L 2906 4863 
L 3481 4863 
L 3481 0 
L 2906 0 
L 2906 525 
Q 2725 213 2448 61 
Q 2172 -91 1784 -91 
Q 1150 -91 751 415 
Q 353 922 353 1747 
Q 353 2572 751 3078 
Q 1150 3584 1784 3584 
Q 2172 3584 2448 3432 
Q 2725 3281 2906 2969 
z
M 947 1747 
Q 947 1113 1208 752 
Q 1469 391 1925 391 
Q 2381 391 2643 752 
Q 2906 1113 2906 1747 
Q 2906 2381 2643 2742 
Q 2381 3103 1925 3103 
Q 1469 3103 1208 2742 
Q 947 2381 947 1747 
z
" id="DejaVuSans-64" transform="scale(0.015625)"/>
       <path d="M 2375 4863 
L 2375 4384 
L 1825 4384 
Q 1516 4384 1395 4259 
Q 1275 4134 1275 3809 
L 1275 3500 
L 2222 3500 
L 2222 3053 
L 1275 3053 
L 1275 0 
L 697 0 
L 697 3053 
L 147 3053 
L 147 3500 
L 697 3500 
L 697 3744 
Q 697 4328 969 4595 
Q 1241 4863 1831 4863 
L 2375 4863 
z
" id="DejaVuSans-66" transform="scale(0.015625)"/>
       <path d="M 2631 2963 
Q 2534 3019 2420 3045 
Q 2306 3072 2169 3072 
Q 1681 3072 1420 2755 
Q 1159 2438 1159 1844 
L 1159 0 
L 581 0 
L 581 3500 
L 1159 3500 
L 1159 2956 
Q 1341 3275 1631 3429 
Q 1922 3584 2338 3584 
Q 2397 3584 2469 3576 
Q 2541 3569 2628 3553 
L 2631 2963 
z
" id="DejaVuSans-72" transform="scale(0.015625)"/>
       <path d="M 3513 2113 
L 3513 0 
L 2938 0 
L 2938 2094 
Q 2938 2591 2744 2837 
Q 2550 3084 2163 3084 
Q 1697 3084 1428 2787 
Q 1159 2491 1159 1978 
L 1159 0 
L 581 0 
L 581 3500 
L 1159 3500 
L 1159 2956 
Q 1366 3272 1645 3428 
Q 1925 3584 2291 3584 
Q 2894 3584 3203 3211 
Q 3513 2838 3513 2113 
z
" id="DejaVuSans-6e" transform="scale(0.015625)"/>
       <path d="M 3122 3366 
L 3122 2828 
Q 2878 2963 2633 3030 
Q 2388 3097 2138 3097 
Q 1578 3097 1268 2742 
Q 959 2388 959 1747 
Q 959 1106 1268 751 
Q 1578 397 2138 397 
Q 2388 397 2633 464 
Q 2878 531 3122 666 
L 3122 134 
Q 2881 22 2623 -34 
Q 2366 -91 2075 -91 
Q 1284 -91 818 406 
Q 353 903 353 1747 
Q 353 2603 823 3093 
Q 1294 3584 2113 3584 
Q 2378 3584 2631 3529 
Q 2884 3475 3122 3366 
z
" id="DejaVuSans-63" transform="scale(0.015625)"/>
       <path d="M 1984 4856 
Q 1566 4138 1362 3434 
Q 1159 2731 1159 2009 
Q 1159 1288 1364 580 
Q 1569 -128 1984 -844 
L 1484 -844 
Q 1016 -109 783 600 
Q 550 1309 550 2009 
Q 550 2706 781 3412 
Q 1013 4119 1484 4856 
L 1984 4856 
z
" id="DejaVuSans-28" transform="scale(0.015625)"/>
       <path d="M 1959 3097 
Q 1497 3097 1228 2736 
Q 959 2375 959 1747 
Q 959 1119 1226 758 
Q 1494 397 1959 397 
Q 2419 397 2687 759 
Q 2956 1122 2956 1747 
Q 2956 2369 2687 2733 
Q 2419 3097 1959 3097 
z
M 1959 3584 
Q 2709 3584 3137 3096 
Q 3566 2609 3566 1747 
Q 3566 888 3137 398 
Q 2709 -91 1959 -91 
Q 1206 -91 779 398 
Q 353 888 353 1747 
Q 353 2609 779 3096 
Q 1206 3584 1959 3584 
z
" id="DejaVuSans-6f" transform="scale(0.015625)"/>
       <path d="M 544 1381 
L 544 3500 
L 1119 3500 
L 1119 1403 
Q 1119 906 1312 657 
Q 1506 409 1894 409 
Q 2359 409 2629 706 
Q 2900 1003 2900 1516 
L 2900 3500 
L 3475 3500 
L 3475 0 
L 2900 0 
L 2900 538 
Q 2691 219 2414 64 
Q 2138 -91 1772 -91 
Q 1169 -91 856 284 
Q 544 659 544 1381 
z
M 1991 3584 
L 1991 3584 
z
" id="DejaVuSans-75" transform="scale(0.015625)"/>
       <path d="M 1172 4494 
L 1172 3500 
L 2356 3500 
L 2356 3053 
L 1172 3053 
L 1172 1153 
Q 1172 725 1289 603 
Q 1406 481 1766 481 
L 2356 481 
L 2356 0 
L 1766 0 
Q 1100 0 847 248 
Q 594 497 594 1153 
L 594 3053 
L 172 3053 
L 172 3500 
L 594 3500 
L 594 4494 
L 1172 4494 
z
" id="DejaVuSans-74" transform="scale(0.015625)"/>
       <path d="M 513 4856 
L 1013 4856 
Q 1481 4119 1714 3412 
Q 1947 2706 1947 2009 
Q 1947 1309 1714 600 
Q 1481 -109 1013 -844 
L 513 -844 
Q 928 -128 1133 580 
Q 1338 1288 1338 2009 
Q 1338 2731 1133 3434 
Q 928 4138 513 4856 
z
" id="DejaVuSans-29" transform="scale(0.015625)"/>
       <path d="M 2834 3397 
L 2834 2853 
Q 2591 2978 2328 3040 
Q 2066 3103 1784 3103 
Q 1356 3103 1142 2972 
Q 928 2841 928 2578 
Q 928 2378 1081 2264 
Q 1234 2150 1697 2047 
L 1894 2003 
Q 2506 1872 2764 1633 
Q 3022 1394 3022 966 
Q 3022 478 2636 193 
Q 2250 -91 1575 -91 
Q 1294 -91 989 -36 
Q 684 19 347 128 
L 347 722 
Q 666 556 975 473 
Q 1284 391 1588 391 
Q 1994 391 2212 530 
Q 2431 669 2431 922 
Q 2431 1156 2273 1281 
Q 2116 1406 1581 1522 
L 1381 1569 
Q 847 1681 609 1914 
Q 372 2147 372 2553 
Q 372 3047 722 3315 
Q 1072 3584 1716 3584 
Q 2034 3584 2315 3537 
Q 2597 3491 2834 3397 
z
" id="DejaVuSans-73" transform="scale(0.015625)"/>
      </defs>
      <use xlink:href="#DejaVuSans-54"/>
      <use x="57.958984" xlink:href="#DejaVuSans-69"/>
      <use x="85.742188" xlink:href="#DejaVuSans-6d"/>
      <use x="183.154297" xlink:href="#DejaVuSans-65"/>
      <use x="244.677734" xlink:href="#DejaVuSans-20"/>
      <use x="276.464844" xlink:href="#DejaVuSans-64"/>
      <use x="339.941406" xlink:href="#DejaVuSans-69"/>
      <use x="367.724609" xlink:href="#DejaVuSans-66"/>
      <use x="402.929688" xlink:href="#DejaVuSans-66"/>
      <use x="438.134766" xlink:href="#DejaVuSans-65"/>
      <use x="499.658203" xlink:href="#DejaVuSans-72"/>
      <use x="538.521484" xlink:href="#DejaVuSans-65"/>
      <use x="600.044922" xlink:href="#DejaVuSans-6e"/>
      <use x="663.423828" xlink:href="#DejaVuSans-63"/>
      <use x="718.404297" xlink:href="#DejaVuSans-65"/>
      <use x="779.927734" xlink:href="#DejaVuSans-20"/>
      <use x="811.714844" xlink:href="#DejaVuSans-28"/>
      <use x="850.728516" xlink:href="#DejaVuSans-63"/>
      <use x="905.708984" xlink:href="#DejaVuSans-6f"/>
      <use x="966.890625" xlink:href="#DejaVuSans-75"/>
      <use x="1030.269531" xlink:href="#DejaVuSans-6e"/>
      <use x="1093.648438" xlink:href="#DejaVuSans-74"/>
      <use x="1132.857422" xlink:href="#DejaVuSans-29"/>
      <use x="1171.871094" xlink:href="#DejaVuSans-20"/>
      <use x="1203.658203" xlink:href="#DejaVuSans-28"/>
      <use x="1242.671875" xlink:href="#DejaVuSans-73"/>
      <use x="1294.771484" xlink:href="#DejaVuSans-29"/>
     </g>
    </g>
   </g>
   <g id="matplotlib.axis_2">
    <g id="ytick_1">
     <g id="line2d_6">
      <defs>
       <path d="M 0 0 
L -3.5 0 
" id="mb384f47cfa" style="stroke:#000000;stroke-width:0.8;"/>
      </defs>
      <g>
       <use style="stroke:#000000;stroke-width:0.8;" x="63.961685" xlink:href="#mb384f47cfa" y="280.432364"/>
      </g>
     </g>
     <g id="text_7">
      <!-- $\mathdefault{10^{0}}$ -->
      <g transform="translate(39.361685 284.231582)scale(0.1 -0.1)">
       <use transform="translate(0 0.765625)" xlink:href="#DejaVuSans-31"/>
       <use transform="translate(63.623047 0.765625)" xlink:href="#DejaVuSans-30"/>
       <use transform="translate(128.203125 39.046875)scale(0.7)" xlink:href="#DejaVuSans-30"/>
      </g>
     </g>
    </g>
    <g id="ytick_2">
     <g id="line2d_7">
      <g>
       <use style="stroke:#000000;stroke-width:0.8;" x="63.961685" xlink:href="#mb384f47cfa" y="216.079466"/>
      </g>
     </g>
     <g id="text_8">
      <!-- $\mathdefault{10^{1}}$ -->
      <g transform="translate(39.361685 219.878684)scale(0.1 -0.1)">
       <use transform="translate(0 0.684375)" xlink:href="#DejaVuSans-31"/>
       <use transform="translate(63.623047 0.684375)" xlink:href="#DejaVuSans-30"/>
       <use transform="translate(128.203125 38.965625)scale(0.7)" xlink:href="#DejaVuSans-31"/>
      </g>
     </g>
    </g>
    <g id="ytick_3">
     <g id="line2d_8">
      <g>
       <use style="stroke:#000000;stroke-width:0.8;" x="63.961685" xlink:href="#mb384f47cfa" y="151.726567"/>
      </g>
     </g>
     <g id="text_9">
      <!-- $\mathdefault{10^{2}}$ -->
      <g transform="translate(39.361685 155.525786)scale(0.1 -0.1)">
       <use transform="translate(0 0.765625)" xlink:href="#DejaVuSans-31"/>
       <use transform="translate(63.623047 0.765625)" xlink:href="#DejaVuSans-30"/>
       <use transform="translate(128.203125 39.046875)scale(0.7)" xlink:href="#DejaVuSans-32"/>
      </g>
     </g>
    </g>
    <g id="ytick_4">
     <g id="line2d_9">
      <g>
       <use style="stroke:#000000;stroke-width:0.8;" x="63.961685" xlink:href="#mb384f47cfa" y="87.373669"/>
      </g>
     </g>
     <g id="text_10">
      <!-- $\mathdefault{10^{3}}$ -->
      <g transform="translate(39.361685 91.172888)scale(0.1 -0.1)">
       <use transform="translate(0 0.765625)" xlink:href="#DejaVuSans-31"/>
       <use transform="translate(63.623047 0.765625)" xlink:href="#DejaVuSans-30"/>
       <use transform="translate(128.203125 39.046875)scale(0.7)" xlink:href="#DejaVuSans-33"/>
      </g>
     </g>
    </g>
    <g id="ytick_5">
     <g id="line2d_10">
      <g>
       <use style="stroke:#000000;stroke-width:0.8;" x="63.961685" xlink:href="#mb384f47cfa" y="23.020771"/>
      </g>
     </g>
     <g id="text_11">
      <!-- $\mathdefault{10^{4}}$ -->
      <g transform="translate(39.361685 26.81999)scale(0.1 -0.1)">
       <use transform="translate(0 0.684375)" xlink:href="#DejaVuSans-31"/>
       <use transform="translate(63.623047 0.684375)" xlink:href="#DejaVuSans-30"/>
       <use transform="translate(128.203125 38.965625)scale(0.7)" xlink:href="#DejaVuSans-34"/>
      </g>
     </g>
    </g>
    <g id="ytick_6">
     <g id="line2d_11">
      <defs>
       <path d="M 0 0 
L -2 0 
" id="me7dd408e07" style="stroke:#000000;stroke-width:0.6;"/>
      </defs>
      <g>
       <use style="stroke:#000000;stroke-width:0.6;" x="63.961685" xlink:href="#me7dd408e07" y="290.400754"/>
      </g>
     </g>
    </g>
    <g id="ytick_7">
     <g id="line2d_12">
      <g>
       <use style="stroke:#000000;stroke-width:0.6;" x="63.961685" xlink:href="#me7dd408e07" y="286.668804"/>
      </g>
     </g>
    </g>
    <g id="ytick_8">
     <g id="line2d_13">
      <g>
       <use style="stroke:#000000;stroke-width:0.6;" x="63.961685" xlink:href="#me7dd408e07" y="283.376991"/>
      </g>
     </g>
    </g>
    <g id="ytick_9">
     <g id="line2d_14">
      <g>
       <use style="stroke:#000000;stroke-width:0.6;" x="63.961685" xlink:href="#me7dd408e07" y="261.060211"/>
      </g>
     </g>
    </g>
    <g id="ytick_10">
     <g id="line2d_15">
      <g>
       <use style="stroke:#000000;stroke-width:0.6;" x="63.961685" xlink:href="#me7dd408e07" y="249.728228"/>
      </g>
     </g>
    </g>
    <g id="ytick_11">
     <g id="line2d_16">
      <g>
       <use style="stroke:#000000;stroke-width:0.6;" x="63.961685" xlink:href="#me7dd408e07" y="241.688058"/>
      </g>
     </g>
    </g>
    <g id="ytick_12">
     <g id="line2d_17">
      <g>
       <use style="stroke:#000000;stroke-width:0.6;" x="63.961685" xlink:href="#me7dd408e07" y="235.451618"/>
      </g>
     </g>
    </g>
    <g id="ytick_13">
     <g id="line2d_18">
      <g>
       <use style="stroke:#000000;stroke-width:0.6;" x="63.961685" xlink:href="#me7dd408e07" y="230.356076"/>
      </g>
     </g>
    </g>
    <g id="ytick_14">
     <g id="line2d_19">
      <g>
       <use style="stroke:#000000;stroke-width:0.6;" x="63.961685" xlink:href="#me7dd408e07" y="226.047856"/>
      </g>
     </g>
    </g>
    <g id="ytick_15">
     <g id="line2d_20">
      <g>
       <use style="stroke:#000000;stroke-width:0.6;" x="63.961685" xlink:href="#me7dd408e07" y="222.315906"/>
      </g>
     </g>
    </g>
    <g id="ytick_16">
     <g id="line2d_21">
      <g>
       <use style="stroke:#000000;stroke-width:0.6;" x="63.961685" xlink:href="#me7dd408e07" y="219.024093"/>
      </g>
     </g>
    </g>
    <g id="ytick_17">
     <g id="line2d_22">
      <g>
       <use style="stroke:#000000;stroke-width:0.6;" x="63.961685" xlink:href="#me7dd408e07" y="196.707313"/>
      </g>
     </g>
    </g>
    <g id="ytick_18">
     <g id="line2d_23">
      <g>
       <use style="stroke:#000000;stroke-width:0.6;" x="63.961685" xlink:href="#me7dd408e07" y="185.37533"/>
      </g>
     </g>
    </g>
    <g id="ytick_19">
     <g id="line2d_24">
      <g>
       <use style="stroke:#000000;stroke-width:0.6;" x="63.961685" xlink:href="#me7dd408e07" y="177.33516"/>
      </g>
     </g>
    </g>
    <g id="ytick_20">
     <g id="line2d_25">
      <g>
       <use style="stroke:#000000;stroke-width:0.6;" x="63.961685" xlink:href="#me7dd408e07" y="171.09872"/>
      </g>
     </g>
    </g>
    <g id="ytick_21">
     <g id="line2d_26">
      <g>
       <use style="stroke:#000000;stroke-width:0.6;" x="63.961685" xlink:href="#me7dd408e07" y="166.003177"/>
      </g>
     </g>
    </g>
    <g id="ytick_22">
     <g id="line2d_27">
      <g>
       <use style="stroke:#000000;stroke-width:0.6;" x="63.961685" xlink:href="#me7dd408e07" y="161.694957"/>
      </g>
     </g>
    </g>
    <g id="ytick_23">
     <g id="line2d_28">
      <g>
       <use style="stroke:#000000;stroke-width:0.6;" x="63.961685" xlink:href="#me7dd408e07" y="157.963008"/>
      </g>
     </g>
    </g>
    <g id="ytick_24">
     <g id="line2d_29">
      <g>
       <use style="stroke:#000000;stroke-width:0.6;" x="63.961685" xlink:href="#me7dd408e07" y="154.671195"/>
      </g>
     </g>
    </g>
    <g id="ytick_25">
     <g id="line2d_30">
      <g>
       <use style="stroke:#000000;stroke-width:0.6;" x="63.961685" xlink:href="#me7dd408e07" y="132.354415"/>
      </g>
     </g>
    </g>
    <g id="ytick_26">
     <g id="line2d_31">
      <g>
       <use style="stroke:#000000;stroke-width:0.6;" x="63.961685" xlink:href="#me7dd408e07" y="121.022432"/>
      </g>
     </g>
    </g>
    <g id="ytick_27">
     <g id="line2d_32">
      <g>
       <use style="stroke:#000000;stroke-width:0.6;" x="63.961685" xlink:href="#me7dd408e07" y="112.982262"/>
      </g>
     </g>
    </g>
    <g id="ytick_28">
     <g id="line2d_33">
      <g>
       <use style="stroke:#000000;stroke-width:0.6;" x="63.961685" xlink:href="#me7dd408e07" y="106.745822"/>
      </g>
     </g>
    </g>
    <g id="ytick_29">
     <g id="line2d_34">
      <g>
       <use style="stroke:#000000;stroke-width:0.6;" x="63.961685" xlink:href="#me7dd408e07" y="101.650279"/>
      </g>
     </g>
    </g>
    <g id="ytick_30">
     <g id="line2d_35">
      <g>
       <use style="stroke:#000000;stroke-width:0.6;" x="63.961685" xlink:href="#me7dd408e07" y="97.342059"/>
      </g>
     </g>
    </g>
    <g id="ytick_31">
     <g id="line2d_36">
      <g>
       <use style="stroke:#000000;stroke-width:0.6;" x="63.961685" xlink:href="#me7dd408e07" y="93.61011"/>
      </g>
     </g>
    </g>
    <g id="ytick_32">
     <g id="line2d_37">
      <g>
       <use style="stroke:#000000;stroke-width:0.6;" x="63.961685" xlink:href="#me7dd408e07" y="90.318296"/>
      </g>
     </g>
    </g>
    <g id="ytick_33">
     <g id="line2d_38">
      <g>
       <use style="stroke:#000000;stroke-width:0.6;" x="63.961685" xlink:href="#me7dd408e07" y="68.001517"/>
      </g>
     </g>
    </g>
    <g id="ytick_34">
     <g id="line2d_39">
      <g>
       <use style="stroke:#000000;stroke-width:0.6;" x="63.961685" xlink:href="#me7dd408e07" y="56.669534"/>
      </g>
     </g>
    </g>
    <g id="ytick_35">
     <g id="line2d_40">
      <g>
       <use style="stroke:#000000;stroke-width:0.6;" x="63.961685" xlink:href="#me7dd408e07" y="48.629364"/>
      </g>
     </g>
    </g>
    <g id="ytick_36">
     <g id="line2d_41">
      <g>
       <use style="stroke:#000000;stroke-width:0.6;" x="63.961685" xlink:href="#me7dd408e07" y="42.392924"/>
      </g>
     </g>
    </g>
    <g id="ytick_37">
     <g id="line2d_42">
      <g>
       <use style="stroke:#000000;stroke-width:0.6;" x="63.961685" xlink:href="#me7dd408e07" y="37.297381"/>
      </g>
     </g>
    </g>
    <g id="ytick_38">
     <g id="line2d_43">
      <g>
       <use style="stroke:#000000;stroke-width:0.6;" x="63.961685" xlink:href="#me7dd408e07" y="32.989161"/>
      </g>
     </g>
    </g>
    <g id="ytick_39">
     <g id="line2d_44">
      <g>
       <use style="stroke:#000000;stroke-width:0.6;" x="63.961685" xlink:href="#me7dd408e07" y="29.257211"/>
      </g>
     </g>
    </g>
    <g id="ytick_40">
     <g id="line2d_45">
      <g>
       <use style="stroke:#000000;stroke-width:0.6;" x="63.961685" xlink:href="#me7dd408e07" y="25.965398"/>
      </g>
     </g>
    </g>
    <g id="text_12">
     <!-- Frequency -->
     <g transform="translate(33.281997 177.865688)rotate(-90)scale(0.1 -0.1)">
      <defs>
       <path d="M 628 4666 
L 3309 4666 
L 3309 4134 
L 1259 4134 
L 1259 2759 
L 3109 2759 
L 3109 2228 
L 1259 2228 
L 1259 0 
L 628 0 
L 628 4666 
z
" id="DejaVuSans-46" transform="scale(0.015625)"/>
       <path d="M 947 1747 
Q 947 1113 1208 752 
Q 1469 391 1925 391 
Q 2381 391 2643 752 
Q 2906 1113 2906 1747 
Q 2906 2381 2643 2742 
Q 2381 3103 1925 3103 
Q 1469 3103 1208 2742 
Q 947 2381 947 1747 
z
M 2906 525 
Q 2725 213 2448 61 
Q 2172 -91 1784 -91 
Q 1150 -91 751 415 
Q 353 922 353 1747 
Q 353 2572 751 3078 
Q 1150 3584 1784 3584 
Q 2172 3584 2448 3432 
Q 2725 3281 2906 2969 
L 2906 3500 
L 3481 3500 
L 3481 -1331 
L 2906 -1331 
L 2906 525 
z
" id="DejaVuSans-71" transform="scale(0.015625)"/>
       <path d="M 2059 -325 
Q 1816 -950 1584 -1140 
Q 1353 -1331 966 -1331 
L 506 -1331 
L 506 -850 
L 844 -850 
Q 1081 -850 1212 -737 
Q 1344 -625 1503 -206 
L 1606 56 
L 191 3500 
L 800 3500 
L 1894 763 
L 2988 3500 
L 3597 3500 
L 2059 -325 
z
" id="DejaVuSans-79" transform="scale(0.015625)"/>
      </defs>
      <use xlink:href="#DejaVuSans-46"/>
      <use x="50.269531" xlink:href="#DejaVuSans-72"/>
      <use x="89.132812" xlink:href="#DejaVuSans-65"/>
      <use x="150.65625" xlink:href="#DejaVuSans-71"/>
      <use x="214.132812" xlink:href="#DejaVuSans-75"/>
      <use x="277.511719" xlink:href="#DejaVuSans-65"/>
      <use x="339.035156" xlink:href="#DejaVuSans-6e"/>
      <use x="402.414062" xlink:href="#DejaVuSans-63"/>
      <use x="457.394531" xlink:href="#DejaVuSans-79"/>
     </g>
    </g>
   </g>
   <g id="patch_103">
    <path d="M 63.961685 293.272 
L 63.961685 10.8 
" style="fill:none;stroke:#000000;stroke-linecap:square;stroke-linejoin:miter;stroke-width:0.8;"/>
   </g>
   <g id="patch_104">
    <path d="M 450 293.272 
L 450 10.8 
" style="fill:none;stroke:#000000;stroke-linecap:square;stroke-linejoin:miter;stroke-width:0.8;"/>
   </g>
   <g id="patch_105">
    <path d="M 63.961685 293.272 
L 450 293.272 
" style="fill:none;stroke:#000000;stroke-linecap:square;stroke-linejoin:miter;stroke-width:0.8;"/>
   </g>
   <g id="patch_106">
    <path d="M 63.961685 10.8 
L 450 10.8 
" style="fill:none;stroke:#000000;stroke-linecap:square;stroke-linejoin:miter;stroke-width:0.8;"/>
   </g>
  </g>
 </g>
 <defs>
  <clipPath id="pa53e3df7ed">
   <rect height="282.472" width="386.038315" x="63.961685" y="10.8"/>
  </clipPath>
 </defs>
</svg>
