<?xml version="1.0" encoding="utf-8" standalone="no"?>
<!DOCTYPE svg PUBLIC "-//W3C//DTD SVG 1.1//EN"
  "http://www.w3.org/Graphics/SVG/1.1/DTD/svg11.dtd">
<svg height="345.6pt" version="1.1" viewBox="0 0 460.8 345.6" width="460.8pt" xmlns="http://www.w3.org/2000/svg" xmlns:xlink="http://www.w3.org/1999/xlink">
 <metadata>
  <rdf:RDF xmlns:cc="http://creativecommons.org/ns#" xmlns:dc="http://purl.org/dc/elements/1.1/" xmlns:rdf="http://www.w3.org/1999/02/22-rdf-syntax-ns#">
   <cc:Work>
    <dc:type rdf:resource="http://purl.org/dc/dcmitype/StillImage"/>
    <dc:date>2021-10-31T20:56:28.625139</dc:date>
    <dc:format>image/svg+xml</dc:format>
    <dc:creator>
     <cc:Agent>
      <dc:title>Matplotlib v3.4.2, https://matplotlib.org/</dc:title>
     </cc:Agent>
    </dc:creator>
   </cc:Work>
  </rdf:RDF>
 </metadata>
 <defs>
  <style type="text/css">*{stroke-linecap:butt;stroke-linejoin:round;}</style>
 </defs>
 <g id="figure_1">
  <g id="patch_1">
   <path d="M 0 345.6 
L 460.8 345.6 
L 460.8 0 
L 0 0 
z
" style="fill:#ffffff;"/>
  </g>
  <g id="axes_1">
   <g id="patch_2">
    <path d="M 63.916685 293.272 
L 450 293.272 
L 450 10.8 
L 63.916685 10.8 
z
" style="fill:#ffffff;"/>
   </g>
   <g id="patch_3">
    <path clip-path="url(#p133ee01ab6)" d="M 81.465926 72532.445238 
L 84.975775 72532.445238 
L 84.975775 280.432364 
L 81.465926 280.432364 
z
" style="fill:#1f77b4;"/>
   </g>
   <g id="patch_4">
    <path clip-path="url(#p133ee01ab6)" d="M 84.975775 72532.445238 
L 88.485623 72532.445238 
L 88.485623 72532.445238 
L 84.975775 72532.445238 
z
" style="fill:#1f77b4;"/>
   </g>
   <g id="patch_5">
    <path clip-path="url(#p133ee01ab6)" d="M 88.485623 72532.445238 
L 91.995471 72532.445238 
L 91.995471 72532.445238 
L 88.485623 72532.445238 
z
" style="fill:#1f77b4;"/>
   </g>
   <g id="patch_6">
    <path clip-path="url(#p133ee01ab6)" d="M 91.995471 72532.445238 
L 95.50532 72532.445238 
L 95.50532 72532.445238 
L 91.995471 72532.445238 
z
" style="fill:#1f77b4;"/>
   </g>
   <g id="patch_7">
    <path clip-path="url(#p133ee01ab6)" d="M 95.50532 72532.445238 
L 99.015168 72532.445238 
L 99.015168 72532.445238 
L 95.50532 72532.445238 
z
" style="fill:#1f77b4;"/>
   </g>
   <g id="patch_8">
    <path clip-path="url(#p133ee01ab6)" d="M 99.015168 72532.445238 
L 102.525016 72532.445238 
L 102.525016 72532.445238 
L 99.015168 72532.445238 
z
" style="fill:#1f77b4;"/>
   </g>
   <g id="patch_9">
    <path clip-path="url(#p133ee01ab6)" d="M 102.525016 72532.445238 
L 106.034865 72532.445238 
L 106.034865 72532.445238 
L 102.525016 72532.445238 
z
" style="fill:#1f77b4;"/>
   </g>
   <g id="patch_10">
    <path clip-path="url(#p133ee01ab6)" d="M 106.034865 72532.445238 
L 109.544713 72532.445238 
L 109.544713 72532.445238 
L 106.034865 72532.445238 
z
" style="fill:#1f77b4;"/>
   </g>
   <g id="patch_11">
    <path clip-path="url(#p133ee01ab6)" d="M 109.544713 72532.445238 
L 113.054561 72532.445238 
L 113.054561 72532.445238 
L 109.544713 72532.445238 
z
" style="fill:#1f77b4;"/>
   </g>
   <g id="patch_12">
    <path clip-path="url(#p133ee01ab6)" d="M 113.054561 72532.445238 
L 116.56441 72532.445238 
L 116.56441 72532.445238 
L 113.054561 72532.445238 
z
" style="fill:#1f77b4;"/>
   </g>
   <g id="patch_13">
    <path clip-path="url(#p133ee01ab6)" d="M 116.56441 72532.445238 
L 120.074258 72532.445238 
L 120.074258 72532.445238 
L 116.56441 72532.445238 
z
" style="fill:#1f77b4;"/>
   </g>
   <g id="patch_14">
    <path clip-path="url(#p133ee01ab6)" d="M 120.074258 72532.445238 
L 123.584106 72532.445238 
L 123.584106 72532.445238 
L 120.074258 72532.445238 
z
" style="fill:#1f77b4;"/>
   </g>
   <g id="patch_15">
    <path clip-path="url(#p133ee01ab6)" d="M 123.584106 72532.445238 
L 127.093955 72532.445238 
L 127.093955 72532.445238 
L 123.584106 72532.445238 
z
" style="fill:#1f77b4;"/>
   </g>
   <g id="patch_16">
    <path clip-path="url(#p133ee01ab6)" d="M 127.093955 72532.445238 
L 130.603803 72532.445238 
L 130.603803 72532.445238 
L 127.093955 72532.445238 
z
" style="fill:#1f77b4;"/>
   </g>
   <g id="patch_17">
    <path clip-path="url(#p133ee01ab6)" d="M 130.603803 72532.445238 
L 134.113651 72532.445238 
L 134.113651 72532.445238 
L 130.603803 72532.445238 
z
" style="fill:#1f77b4;"/>
   </g>
   <g id="patch_18">
    <path clip-path="url(#p133ee01ab6)" d="M 134.113651 72532.445238 
L 137.623499 72532.445238 
L 137.623499 72532.445238 
L 134.113651 72532.445238 
z
" style="fill:#1f77b4;"/>
   </g>
   <g id="patch_19">
    <path clip-path="url(#p133ee01ab6)" d="M 137.623499 72532.445238 
L 141.133348 72532.445238 
L 141.133348 72532.445238 
L 137.623499 72532.445238 
z
" style="fill:#1f77b4;"/>
   </g>
   <g id="patch_20">
    <path clip-path="url(#p133ee01ab6)" d="M 141.133348 72532.445238 
L 144.643196 72532.445238 
L 144.643196 72532.445238 
L 141.133348 72532.445238 
z
" style="fill:#1f77b4;"/>
   </g>
   <g id="patch_21">
    <path clip-path="url(#p133ee01ab6)" d="M 144.643196 72532.445238 
L 148.153044 72532.445238 
L 148.153044 72532.445238 
L 144.643196 72532.445238 
z
" style="fill:#1f77b4;"/>
   </g>
   <g id="patch_22">
    <path clip-path="url(#p133ee01ab6)" d="M 148.153044 72532.445238 
L 151.662893 72532.445238 
L 151.662893 72532.445238 
L 148.153044 72532.445238 
z
" style="fill:#1f77b4;"/>
   </g>
   <g id="patch_23">
    <path clip-path="url(#p133ee01ab6)" d="M 151.662893 72532.445238 
L 155.172741 72532.445238 
L 155.172741 72532.445238 
L 151.662893 72532.445238 
z
" style="fill:#1f77b4;"/>
   </g>
   <g id="patch_24">
    <path clip-path="url(#p133ee01ab6)" d="M 155.172741 72532.445238 
L 158.682589 72532.445238 
L 158.682589 72532.445238 
L 155.172741 72532.445238 
z
" style="fill:#1f77b4;"/>
   </g>
   <g id="patch_25">
    <path clip-path="url(#p133ee01ab6)" d="M 158.682589 72532.445238 
L 162.192438 72532.445238 
L 162.192438 72532.445238 
L 158.682589 72532.445238 
z
" style="fill:#1f77b4;"/>
   </g>
   <g id="patch_26">
    <path clip-path="url(#p133ee01ab6)" d="M 162.192438 72532.445238 
L 165.702286 72532.445238 
L 165.702286 72532.445238 
L 162.192438 72532.445238 
z
" style="fill:#1f77b4;"/>
   </g>
   <g id="patch_27">
    <path clip-path="url(#p133ee01ab6)" d="M 165.702286 72532.445238 
L 169.212134 72532.445238 
L 169.212134 72532.445238 
L 165.702286 72532.445238 
z
" style="fill:#1f77b4;"/>
   </g>
   <g id="patch_28">
    <path clip-path="url(#p133ee01ab6)" d="M 169.212134 72532.445238 
L 172.721983 72532.445238 
L 172.721983 72532.445238 
L 169.212134 72532.445238 
z
" style="fill:#1f77b4;"/>
   </g>
   <g id="patch_29">
    <path clip-path="url(#p133ee01ab6)" d="M 172.721983 72532.445238 
L 176.231831 72532.445238 
L 176.231831 72532.445238 
L 172.721983 72532.445238 
z
" style="fill:#1f77b4;"/>
   </g>
   <g id="patch_30">
    <path clip-path="url(#p133ee01ab6)" d="M 176.231831 72532.445238 
L 179.741679 72532.445238 
L 179.741679 72532.445238 
L 176.231831 72532.445238 
z
" style="fill:#1f77b4;"/>
   </g>
   <g id="patch_31">
    <path clip-path="url(#p133ee01ab6)" d="M 179.741679 72532.445238 
L 183.251528 72532.445238 
L 183.251528 72532.445238 
L 179.741679 72532.445238 
z
" style="fill:#1f77b4;"/>
   </g>
   <g id="patch_32">
    <path clip-path="url(#p133ee01ab6)" d="M 183.251528 72532.445238 
L 186.761376 72532.445238 
L 186.761376 72532.445238 
L 183.251528 72532.445238 
z
" style="fill:#1f77b4;"/>
   </g>
   <g id="patch_33">
    <path clip-path="url(#p133ee01ab6)" d="M 186.761376 72532.445238 
L 190.271224 72532.445238 
L 190.271224 72532.445238 
L 186.761376 72532.445238 
z
" style="fill:#1f77b4;"/>
   </g>
   <g id="patch_34">
    <path clip-path="url(#p133ee01ab6)" d="M 190.271224 72532.445238 
L 193.781073 72532.445238 
L 193.781073 72532.445238 
L 190.271224 72532.445238 
z
" style="fill:#1f77b4;"/>
   </g>
   <g id="patch_35">
    <path clip-path="url(#p133ee01ab6)" d="M 193.781073 72532.445238 
L 197.290921 72532.445238 
L 197.290921 72532.445238 
L 193.781073 72532.445238 
z
" style="fill:#1f77b4;"/>
   </g>
   <g id="patch_36">
    <path clip-path="url(#p133ee01ab6)" d="M 197.290921 72532.445238 
L 200.800769 72532.445238 
L 200.800769 72532.445238 
L 197.290921 72532.445238 
z
" style="fill:#1f77b4;"/>
   </g>
   <g id="patch_37">
    <path clip-path="url(#p133ee01ab6)" d="M 200.800769 72532.445238 
L 204.310618 72532.445238 
L 204.310618 72532.445238 
L 200.800769 72532.445238 
z
" style="fill:#1f77b4;"/>
   </g>
   <g id="patch_38">
    <path clip-path="url(#p133ee01ab6)" d="M 204.310618 72532.445238 
L 207.820466 72532.445238 
L 207.820466 72532.445238 
L 204.310618 72532.445238 
z
" style="fill:#1f77b4;"/>
   </g>
   <g id="patch_39">
    <path clip-path="url(#p133ee01ab6)" d="M 207.820466 72532.445238 
L 211.330314 72532.445238 
L 211.330314 72532.445238 
L 207.820466 72532.445238 
z
" style="fill:#1f77b4;"/>
   </g>
   <g id="patch_40">
    <path clip-path="url(#p133ee01ab6)" d="M 211.330314 72532.445238 
L 214.840163 72532.445238 
L 214.840163 72532.445238 
L 211.330314 72532.445238 
z
" style="fill:#1f77b4;"/>
   </g>
   <g id="patch_41">
    <path clip-path="url(#p133ee01ab6)" d="M 214.840163 72532.445238 
L 218.350011 72532.445238 
L 218.350011 72532.445238 
L 214.840163 72532.445238 
z
" style="fill:#1f77b4;"/>
   </g>
   <g id="patch_42">
    <path clip-path="url(#p133ee01ab6)" d="M 218.350011 72532.445238 
L 221.859859 72532.445238 
L 221.859859 72532.445238 
L 218.350011 72532.445238 
z
" style="fill:#1f77b4;"/>
   </g>
   <g id="patch_43">
    <path clip-path="url(#p133ee01ab6)" d="M 221.859859 72532.445238 
L 225.369708 72532.445238 
L 225.369708 72532.445238 
L 221.859859 72532.445238 
z
" style="fill:#1f77b4;"/>
   </g>
   <g id="patch_44">
    <path clip-path="url(#p133ee01ab6)" d="M 225.369708 72532.445238 
L 228.879556 72532.445238 
L 228.879556 72532.445238 
L 225.369708 72532.445238 
z
" style="fill:#1f77b4;"/>
   </g>
   <g id="patch_45">
    <path clip-path="url(#p133ee01ab6)" d="M 228.879556 72532.445238 
L 232.389404 72532.445238 
L 232.389404 72532.445238 
L 228.879556 72532.445238 
z
" style="fill:#1f77b4;"/>
   </g>
   <g id="patch_46">
    <path clip-path="url(#p133ee01ab6)" d="M 232.389404 72532.445238 
L 235.899252 72532.445238 
L 235.899252 72532.445238 
L 232.389404 72532.445238 
z
" style="fill:#1f77b4;"/>
   </g>
   <g id="patch_47">
    <path clip-path="url(#p133ee01ab6)" d="M 235.899252 72532.445238 
L 239.409101 72532.445238 
L 239.409101 72532.445238 
L 235.899252 72532.445238 
z
" style="fill:#1f77b4;"/>
   </g>
   <g id="patch_48">
    <path clip-path="url(#p133ee01ab6)" d="M 239.409101 72532.445238 
L 242.918949 72532.445238 
L 242.918949 72532.445238 
L 239.409101 72532.445238 
z
" style="fill:#1f77b4;"/>
   </g>
   <g id="patch_49">
    <path clip-path="url(#p133ee01ab6)" d="M 242.918949 72532.445238 
L 246.428797 72532.445238 
L 246.428797 72532.445238 
L 242.918949 72532.445238 
z
" style="fill:#1f77b4;"/>
   </g>
   <g id="patch_50">
    <path clip-path="url(#p133ee01ab6)" d="M 246.428797 72532.445238 
L 249.938646 72532.445238 
L 249.938646 72532.445238 
L 246.428797 72532.445238 
z
" style="fill:#1f77b4;"/>
   </g>
   <g id="patch_51">
    <path clip-path="url(#p133ee01ab6)" d="M 249.938646 72532.445238 
L 253.448494 72532.445238 
L 253.448494 72532.445238 
L 249.938646 72532.445238 
z
" style="fill:#1f77b4;"/>
   </g>
   <g id="patch_52">
    <path clip-path="url(#p133ee01ab6)" d="M 253.448494 72532.445238 
L 256.958342 72532.445238 
L 256.958342 72532.445238 
L 253.448494 72532.445238 
z
" style="fill:#1f77b4;"/>
   </g>
   <g id="patch_53">
    <path clip-path="url(#p133ee01ab6)" d="M 256.958342 72532.445238 
L 260.468191 72532.445238 
L 260.468191 72532.445238 
L 256.958342 72532.445238 
z
" style="fill:#1f77b4;"/>
   </g>
   <g id="patch_54">
    <path clip-path="url(#p133ee01ab6)" d="M 260.468191 72532.445238 
L 263.978039 72532.445238 
L 263.978039 72532.445238 
L 260.468191 72532.445238 
z
" style="fill:#1f77b4;"/>
   </g>
   <g id="patch_55">
    <path clip-path="url(#p133ee01ab6)" d="M 263.978039 72532.445238 
L 267.487887 72532.445238 
L 267.487887 72532.445238 
L 263.978039 72532.445238 
z
" style="fill:#1f77b4;"/>
   </g>
   <g id="patch_56">
    <path clip-path="url(#p133ee01ab6)" d="M 267.487887 72532.445238 
L 270.997736 72532.445238 
L 270.997736 72532.445238 
L 267.487887 72532.445238 
z
" style="fill:#1f77b4;"/>
   </g>
   <g id="patch_57">
    <path clip-path="url(#p133ee01ab6)" d="M 270.997736 72532.445238 
L 274.507584 72532.445238 
L 274.507584 72532.445238 
L 270.997736 72532.445238 
z
" style="fill:#1f77b4;"/>
   </g>
   <g id="patch_58">
    <path clip-path="url(#p133ee01ab6)" d="M 274.507584 72532.445238 
L 278.017432 72532.445238 
L 278.017432 72532.445238 
L 274.507584 72532.445238 
z
" style="fill:#1f77b4;"/>
   </g>
   <g id="patch_59">
    <path clip-path="url(#p133ee01ab6)" d="M 278.017432 72532.445238 
L 281.527281 72532.445238 
L 281.527281 72532.445238 
L 278.017432 72532.445238 
z
" style="fill:#1f77b4;"/>
   </g>
   <g id="patch_60">
    <path clip-path="url(#p133ee01ab6)" d="M 281.527281 72532.445238 
L 285.037129 72532.445238 
L 285.037129 72532.445238 
L 281.527281 72532.445238 
z
" style="fill:#1f77b4;"/>
   </g>
   <g id="patch_61">
    <path clip-path="url(#p133ee01ab6)" d="M 285.037129 72532.445238 
L 288.546977 72532.445238 
L 288.546977 72532.445238 
L 285.037129 72532.445238 
z
" style="fill:#1f77b4;"/>
   </g>
   <g id="patch_62">
    <path clip-path="url(#p133ee01ab6)" d="M 288.546977 72532.445238 
L 292.056826 72532.445238 
L 292.056826 72532.445238 
L 288.546977 72532.445238 
z
" style="fill:#1f77b4;"/>
   </g>
   <g id="patch_63">
    <path clip-path="url(#p133ee01ab6)" d="M 292.056826 72532.445238 
L 295.566674 72532.445238 
L 295.566674 72532.445238 
L 292.056826 72532.445238 
z
" style="fill:#1f77b4;"/>
   </g>
   <g id="patch_64">
    <path clip-path="url(#p133ee01ab6)" d="M 295.566674 72532.445238 
L 299.076522 72532.445238 
L 299.076522 72532.445238 
L 295.566674 72532.445238 
z
" style="fill:#1f77b4;"/>
   </g>
   <g id="patch_65">
    <path clip-path="url(#p133ee01ab6)" d="M 299.076522 72532.445238 
L 302.586371 72532.445238 
L 302.586371 72532.445238 
L 299.076522 72532.445238 
z
" style="fill:#1f77b4;"/>
   </g>
   <g id="patch_66">
    <path clip-path="url(#p133ee01ab6)" d="M 302.586371 72532.445238 
L 306.096219 72532.445238 
L 306.096219 72532.445238 
L 302.586371 72532.445238 
z
" style="fill:#1f77b4;"/>
   </g>
   <g id="patch_67">
    <path clip-path="url(#p133ee01ab6)" d="M 306.096219 72532.445238 
L 309.606067 72532.445238 
L 309.606067 72532.445238 
L 306.096219 72532.445238 
z
" style="fill:#1f77b4;"/>
   </g>
   <g id="patch_68">
    <path clip-path="url(#p133ee01ab6)" d="M 309.606067 72532.445238 
L 313.115916 72532.445238 
L 313.115916 72532.445238 
L 309.606067 72532.445238 
z
" style="fill:#1f77b4;"/>
   </g>
   <g id="patch_69">
    <path clip-path="url(#p133ee01ab6)" d="M 313.115916 72532.445238 
L 316.625764 72532.445238 
L 316.625764 72532.445238 
L 313.115916 72532.445238 
z
" style="fill:#1f77b4;"/>
   </g>
   <g id="patch_70">
    <path clip-path="url(#p133ee01ab6)" d="M 316.625764 72532.445238 
L 320.135612 72532.445238 
L 320.135612 72532.445238 
L 316.625764 72532.445238 
z
" style="fill:#1f77b4;"/>
   </g>
   <g id="patch_71">
    <path clip-path="url(#p133ee01ab6)" d="M 320.135612 72532.445238 
L 323.64546 72532.445238 
L 323.64546 72532.445238 
L 320.135612 72532.445238 
z
" style="fill:#1f77b4;"/>
   </g>
   <g id="patch_72">
    <path clip-path="url(#p133ee01ab6)" d="M 323.64546 72532.445238 
L 327.155309 72532.445238 
L 327.155309 72532.445238 
L 323.64546 72532.445238 
z
" style="fill:#1f77b4;"/>
   </g>
   <g id="patch_73">
    <path clip-path="url(#p133ee01ab6)" d="M 327.155309 72532.445238 
L 330.665157 72532.445238 
L 330.665157 72532.445238 
L 327.155309 72532.445238 
z
" style="fill:#1f77b4;"/>
   </g>
   <g id="patch_74">
    <path clip-path="url(#p133ee01ab6)" d="M 330.665157 72532.445238 
L 334.175005 72532.445238 
L 334.175005 72532.445238 
L 330.665157 72532.445238 
z
" style="fill:#1f77b4;"/>
   </g>
   <g id="patch_75">
    <path clip-path="url(#p133ee01ab6)" d="M 334.175005 72532.445238 
L 337.684854 72532.445238 
L 337.684854 72532.445238 
L 334.175005 72532.445238 
z
" style="fill:#1f77b4;"/>
   </g>
   <g id="patch_76">
    <path clip-path="url(#p133ee01ab6)" d="M 337.684854 72532.445238 
L 341.194702 72532.445238 
L 341.194702 72532.445238 
L 337.684854 72532.445238 
z
" style="fill:#1f77b4;"/>
   </g>
   <g id="patch_77">
    <path clip-path="url(#p133ee01ab6)" d="M 341.194702 72532.445238 
L 344.70455 72532.445238 
L 344.70455 72532.445238 
L 341.194702 72532.445238 
z
" style="fill:#1f77b4;"/>
   </g>
   <g id="patch_78">
    <path clip-path="url(#p133ee01ab6)" d="M 344.70455 72532.445238 
L 348.214399 72532.445238 
L 348.214399 72532.445238 
L 344.70455 72532.445238 
z
" style="fill:#1f77b4;"/>
   </g>
   <g id="patch_79">
    <path clip-path="url(#p133ee01ab6)" d="M 348.214399 72532.445238 
L 351.724247 72532.445238 
L 351.724247 72532.445238 
L 348.214399 72532.445238 
z
" style="fill:#1f77b4;"/>
   </g>
   <g id="patch_80">
    <path clip-path="url(#p133ee01ab6)" d="M 351.724247 72532.445238 
L 355.234095 72532.445238 
L 355.234095 72532.445238 
L 351.724247 72532.445238 
z
" style="fill:#1f77b4;"/>
   </g>
   <g id="patch_81">
    <path clip-path="url(#p133ee01ab6)" d="M 355.234095 72532.445238 
L 358.743944 72532.445238 
L 358.743944 72532.445238 
L 355.234095 72532.445238 
z
" style="fill:#1f77b4;"/>
   </g>
   <g id="patch_82">
    <path clip-path="url(#p133ee01ab6)" d="M 358.743944 72532.445238 
L 362.253792 72532.445238 
L 362.253792 72532.445238 
L 358.743944 72532.445238 
z
" style="fill:#1f77b4;"/>
   </g>
   <g id="patch_83">
    <path clip-path="url(#p133ee01ab6)" d="M 362.253792 72532.445238 
L 365.76364 72532.445238 
L 365.76364 72532.445238 
L 362.253792 72532.445238 
z
" style="fill:#1f77b4;"/>
   </g>
   <g id="patch_84">
    <path clip-path="url(#p133ee01ab6)" d="M 365.76364 72532.445238 
L 369.273489 72532.445238 
L 369.273489 72532.445238 
L 365.76364 72532.445238 
z
" style="fill:#1f77b4;"/>
   </g>
   <g id="patch_85">
    <path clip-path="url(#p133ee01ab6)" d="M 369.273489 72532.445238 
L 372.783337 72532.445238 
L 372.783337 72532.445238 
L 369.273489 72532.445238 
z
" style="fill:#1f77b4;"/>
   </g>
   <g id="patch_86">
    <path clip-path="url(#p133ee01ab6)" d="M 372.783337 72532.445238 
L 376.293185 72532.445238 
L 376.293185 72532.445238 
L 372.783337 72532.445238 
z
" style="fill:#1f77b4;"/>
   </g>
   <g id="patch_87">
    <path clip-path="url(#p133ee01ab6)" d="M 376.293185 72532.445238 
L 379.803034 72532.445238 
L 379.803034 72532.445238 
L 376.293185 72532.445238 
z
" style="fill:#1f77b4;"/>
   </g>
   <g id="patch_88">
    <path clip-path="url(#p133ee01ab6)" d="M 379.803034 72532.445238 
L 383.312882 72532.445238 
L 383.312882 72532.445238 
L 379.803034 72532.445238 
z
" style="fill:#1f77b4;"/>
   </g>
   <g id="patch_89">
    <path clip-path="url(#p133ee01ab6)" d="M 383.312882 72532.445238 
L 386.82273 72532.445238 
L 386.82273 72532.445238 
L 383.312882 72532.445238 
z
" style="fill:#1f77b4;"/>
   </g>
   <g id="patch_90">
    <path clip-path="url(#p133ee01ab6)" d="M 386.82273 72532.445238 
L 390.332579 72532.445238 
L 390.332579 72532.445238 
L 386.82273 72532.445238 
z
" style="fill:#1f77b4;"/>
   </g>
   <g id="patch_91">
    <path clip-path="url(#p133ee01ab6)" d="M 390.332579 72532.445238 
L 393.842427 72532.445238 
L 393.842427 72532.445238 
L 390.332579 72532.445238 
z
" style="fill:#1f77b4;"/>
   </g>
   <g id="patch_92">
    <path clip-path="url(#p133ee01ab6)" d="M 393.842427 72532.445238 
L 397.352275 72532.445238 
L 397.352275 72532.445238 
L 393.842427 72532.445238 
z
" style="fill:#1f77b4;"/>
   </g>
   <g id="patch_93">
    <path clip-path="url(#p133ee01ab6)" d="M 397.352275 72532.445238 
L 400.862124 72532.445238 
L 400.862124 72532.445238 
L 397.352275 72532.445238 
z
" style="fill:#1f77b4;"/>
   </g>
   <g id="patch_94">
    <path clip-path="url(#p133ee01ab6)" d="M 400.862124 72532.445238 
L 404.371972 72532.445238 
L 404.371972 72532.445238 
L 400.862124 72532.445238 
z
" style="fill:#1f77b4;"/>
   </g>
   <g id="patch_95">
    <path clip-path="url(#p133ee01ab6)" d="M 404.371972 72532.445238 
L 407.88182 72532.445238 
L 407.88182 72532.445238 
L 404.371972 72532.445238 
z
" style="fill:#1f77b4;"/>
   </g>
   <g id="patch_96">
    <path clip-path="url(#p133ee01ab6)" d="M 407.88182 72532.445238 
L 411.391668 72532.445238 
L 411.391668 72532.445238 
L 407.88182 72532.445238 
z
" style="fill:#1f77b4;"/>
   </g>
   <g id="patch_97">
    <path clip-path="url(#p133ee01ab6)" d="M 411.391668 72532.445238 
L 414.901517 72532.445238 
L 414.901517 72532.445238 
L 411.391668 72532.445238 
z
" style="fill:#1f77b4;"/>
   </g>
   <g id="patch_98">
    <path clip-path="url(#p133ee01ab6)" d="M 414.901517 72532.445238 
L 418.411365 72532.445238 
L 418.411365 280.432364 
L 414.901517 280.432364 
z
" style="fill:#1f77b4;"/>
   </g>
   <g id="patch_99">
    <path clip-path="url(#p133ee01ab6)" d="M 418.411365 72532.445238 
L 421.921213 72532.445238 
L 421.921213 23.639636 
L 418.411365 23.639636 
z
" style="fill:#1f77b4;"/>
   </g>
   <g id="patch_100">
    <path clip-path="url(#p133ee01ab6)" d="M 421.921213 72532.445238 
L 425.431062 72532.445238 
L 425.431062 49.502201 
L 421.921213 49.502201 
z
" style="fill:#1f77b4;"/>
   </g>
   <g id="patch_101">
    <path clip-path="url(#p133ee01ab6)" d="M 425.431062 72532.445238 
L 428.94091 72532.445238 
L 428.94091 124.269175 
L 425.431062 124.269175 
z
" style="fill:#1f77b4;"/>
   </g>
   <g id="patch_102">
    <path clip-path="url(#p133ee01ab6)" d="M 428.94091 72532.445238 
L 432.450758 72532.445238 
L 432.450758 195.457403 
L 428.94091 195.457403 
z
" style="fill:#1f77b4;"/>
   </g>
   <g id="matplotlib.axis_1">
    <g id="xtick_1">
     <g id="line2d_1">
      <defs>
       <path d="M 0 0 
L 0 3.5 
" id="m983ebeb83c" style="stroke:#000000;stroke-width:0.8;"/>
      </defs>
      <g>
       <use style="stroke:#000000;stroke-width:0.8;" x="77.501719" xlink:href="#m983ebeb83c" y="293.272"/>
      </g>
     </g>
     <g id="text_1">
      <!-- −400 -->
      <g transform="translate(63.768125 307.870437)scale(0.1 -0.1)">
       <defs>
        <path d="M 678 2272 
L 4684 2272 
L 4684 1741 
L 678 1741 
L 678 2272 
z
" id="DejaVuSans-2212" transform="scale(0.015625)"/>
        <path d="M 2419 4116 
L 825 1625 
L 2419 1625 
L 2419 4116 
z
M 2253 4666 
L 3047 4666 
L 3047 1625 
L 3713 1625 
L 3713 1100 
L 3047 1100 
L 3047 0 
L 2419 0 
L 2419 1100 
L 313 1100 
L 313 1709 
L 2253 4666 
z
" id="DejaVuSans-34" transform="scale(0.015625)"/>
        <path d="M 2034 4250 
Q 1547 4250 1301 3770 
Q 1056 3291 1056 2328 
Q 1056 1369 1301 889 
Q 1547 409 2034 409 
Q 2525 409 2770 889 
Q 3016 1369 3016 2328 
Q 3016 3291 2770 3770 
Q 2525 4250 2034 4250 
z
M 2034 4750 
Q 2819 4750 3233 4129 
Q 3647 3509 3647 2328 
Q 3647 1150 3233 529 
Q 2819 -91 2034 -91 
Q 1250 -91 836 529 
Q 422 1150 422 2328 
Q 422 3509 836 4129 
Q 1250 4750 2034 4750 
z
" id="DejaVuSans-30" transform="scale(0.015625)"/>
       </defs>
       <use xlink:href="#DejaVuSans-2212"/>
       <use x="83.789062" xlink:href="#DejaVuSans-34"/>
       <use x="147.412109" xlink:href="#DejaVuSans-30"/>
       <use x="211.035156" xlink:href="#DejaVuSans-30"/>
      </g>
     </g>
    </g>
    <g id="xtick_2">
     <g id="line2d_2">
      <g>
       <use style="stroke:#000000;stroke-width:0.8;" x="163.172722" xlink:href="#m983ebeb83c" y="293.272"/>
      </g>
     </g>
     <g id="text_2">
      <!-- −300 -->
      <g transform="translate(149.439129 307.870437)scale(0.1 -0.1)">
       <defs>
        <path d="M 2597 2516 
Q 3050 2419 3304 2112 
Q 3559 1806 3559 1356 
Q 3559 666 3084 287 
Q 2609 -91 1734 -91 
Q 1441 -91 1130 -33 
Q 819 25 488 141 
L 488 750 
Q 750 597 1062 519 
Q 1375 441 1716 441 
Q 2309 441 2620 675 
Q 2931 909 2931 1356 
Q 2931 1769 2642 2001 
Q 2353 2234 1838 2234 
L 1294 2234 
L 1294 2753 
L 1863 2753 
Q 2328 2753 2575 2939 
Q 2822 3125 2822 3475 
Q 2822 3834 2567 4026 
Q 2313 4219 1838 4219 
Q 1578 4219 1281 4162 
Q 984 4106 628 3988 
L 628 4550 
Q 988 4650 1302 4700 
Q 1616 4750 1894 4750 
Q 2613 4750 3031 4423 
Q 3450 4097 3450 3541 
Q 3450 3153 3228 2886 
Q 3006 2619 2597 2516 
z
" id="DejaVuSans-33" transform="scale(0.015625)"/>
       </defs>
       <use xlink:href="#DejaVuSans-2212"/>
       <use x="83.789062" xlink:href="#DejaVuSans-33"/>
       <use x="147.412109" xlink:href="#DejaVuSans-30"/>
       <use x="211.035156" xlink:href="#DejaVuSans-30"/>
      </g>
     </g>
    </g>
    <g id="xtick_3">
     <g id="line2d_3">
      <g>
       <use style="stroke:#000000;stroke-width:0.8;" x="248.843726" xlink:href="#m983ebeb83c" y="293.272"/>
      </g>
     </g>
     <g id="text_3">
      <!-- −200 -->
      <g transform="translate(235.110132 307.870437)scale(0.1 -0.1)">
       <defs>
        <path d="M 1228 531 
L 3431 531 
L 3431 0 
L 469 0 
L 469 531 
Q 828 903 1448 1529 
Q 2069 2156 2228 2338 
Q 2531 2678 2651 2914 
Q 2772 3150 2772 3378 
Q 2772 3750 2511 3984 
Q 2250 4219 1831 4219 
Q 1534 4219 1204 4116 
Q 875 4013 500 3803 
L 500 4441 
Q 881 4594 1212 4672 
Q 1544 4750 1819 4750 
Q 2544 4750 2975 4387 
Q 3406 4025 3406 3419 
Q 3406 3131 3298 2873 
Q 3191 2616 2906 2266 
Q 2828 2175 2409 1742 
Q 1991 1309 1228 531 
z
" id="DejaVuSans-32" transform="scale(0.015625)"/>
       </defs>
       <use xlink:href="#DejaVuSans-2212"/>
       <use x="83.789062" xlink:href="#DejaVuSans-32"/>
       <use x="147.412109" xlink:href="#DejaVuSans-30"/>
       <use x="211.035156" xlink:href="#DejaVuSans-30"/>
      </g>
     </g>
    </g>
    <g id="xtick_4">
     <g id="line2d_4">
      <g>
       <use style="stroke:#000000;stroke-width:0.8;" x="334.51473" xlink:href="#m983ebeb83c" y="293.272"/>
      </g>
     </g>
     <g id="text_4">
      <!-- −100 -->
      <g transform="translate(320.781136 307.870437)scale(0.1 -0.1)">
       <defs>
        <path d="M 794 531 
L 1825 531 
L 1825 4091 
L 703 3866 
L 703 4441 
L 1819 4666 
L 2450 4666 
L 2450 531 
L 3481 531 
L 3481 0 
L 794 0 
L 794 531 
z
" id="DejaVuSans-31" transform="scale(0.015625)"/>
       </defs>
       <use xlink:href="#DejaVuSans-2212"/>
       <use x="83.789062" xlink:href="#DejaVuSans-31"/>
       <use x="147.412109" xlink:href="#DejaVuSans-30"/>
       <use x="211.035156" xlink:href="#DejaVuSans-30"/>
      </g>
     </g>
    </g>
    <g id="xtick_5">
     <g id="line2d_5">
      <g>
       <use style="stroke:#000000;stroke-width:0.8;" x="420.185733" xlink:href="#m983ebeb83c" y="293.272"/>
      </g>
     </g>
     <g id="text_5">
      <!-- 0 -->
      <g transform="translate(417.004483 307.870437)scale(0.1 -0.1)">
       <use xlink:href="#DejaVuSans-30"/>
      </g>
     </g>
    </g>
    <g id="text_6">
     <!-- Time difference (count) (s) -->
     <g transform="translate(190.26928 321.548562)scale(0.1 -0.1)">
      <defs>
       <path d="M -19 4666 
L 3928 4666 
L 3928 4134 
L 2272 4134 
L 2272 0 
L 1638 0 
L 1638 4134 
L -19 4134 
L -19 4666 
z
" id="DejaVuSans-54" transform="scale(0.015625)"/>
       <path d="M 603 3500 
L 1178 3500 
L 1178 0 
L 603 0 
L 603 3500 
z
M 603 4863 
L 1178 4863 
L 1178 4134 
L 603 4134 
L 603 4863 
z
" id="DejaVuSans-69" transform="scale(0.015625)"/>
       <path d="M 3328 2828 
Q 3544 3216 3844 3400 
Q 4144 3584 4550 3584 
Q 5097 3584 5394 3201 
Q 5691 2819 5691 2113 
L 5691 0 
L 5113 0 
L 5113 2094 
Q 5113 2597 4934 2840 
Q 4756 3084 4391 3084 
Q 3944 3084 3684 2787 
Q 3425 2491 3425 1978 
L 3425 0 
L 2847 0 
L 2847 2094 
Q 2847 2600 2669 2842 
Q 2491 3084 2119 3084 
Q 1678 3084 1418 2786 
Q 1159 2488 1159 1978 
L 1159 0 
L 581 0 
L 581 3500 
L 1159 3500 
L 1159 2956 
Q 1356 3278 1631 3431 
Q 1906 3584 2284 3584 
Q 2666 3584 2933 3390 
Q 3200 3197 3328 2828 
z
" id="DejaVuSans-6d" transform="scale(0.015625)"/>
       <path d="M 3597 1894 
L 3597 1613 
L 953 1613 
Q 991 1019 1311 708 
Q 1631 397 2203 397 
Q 2534 397 2845 478 
Q 3156 559 3463 722 
L 3463 178 
Q 3153 47 2828 -22 
Q 2503 -91 2169 -91 
Q 1331 -91 842 396 
Q 353 884 353 1716 
Q 353 2575 817 3079 
Q 1281 3584 2069 3584 
Q 2775 3584 3186 3129 
Q 3597 2675 3597 1894 
z
M 3022 2063 
Q 3016 2534 2758 2815 
Q 2500 3097 2075 3097 
Q 1594 3097 1305 2825 
Q 1016 2553 972 2059 
L 3022 2063 
z
" id="DejaVuSans-65" transform="scale(0.015625)"/>
       <path id="DejaVuSans-20" transform="scale(0.015625)"/>
       <path d="M 2906 2969 
L 2906 4863 
L 3481 4863 
L 3481 0 
L 2906 0 
L 2906 525 
Q 2725 213 2448 61 
Q 2172 -91 1784 -91 
Q 1150 -91 751 415 
Q 353 922 353 1747 
Q 353 2572 751 3078 
Q 1150 3584 1784 3584 
Q 2172 3584 2448 3432 
Q 2725 3281 2906 2969 
z
M 947 1747 
Q 947 1113 1208 752 
Q 1469 391 1925 391 
Q 2381 391 2643 752 
Q 2906 1113 2906 1747 
Q 2906 2381 2643 2742 
Q 2381 3103 1925 3103 
Q 1469 3103 1208 2742 
Q 947 2381 947 1747 
z
" id="DejaVuSans-64" transform="scale(0.015625)"/>
       <path d="M 2375 4863 
L 2375 4384 
L 1825 4384 
Q 1516 4384 1395 4259 
Q 1275 4134 1275 3809 
L 1275 3500 
L 2222 3500 
L 2222 3053 
L 1275 3053 
L 1275 0 
L 697 0 
L 697 3053 
L 147 3053 
L 147 3500 
L 697 3500 
L 697 3744 
Q 697 4328 969 4595 
Q 1241 4863 1831 4863 
L 2375 4863 
z
" id="DejaVuSans-66" transform="scale(0.015625)"/>
       <path d="M 2631 2963 
Q 2534 3019 2420 3045 
Q 2306 3072 2169 3072 
Q 1681 3072 1420 2755 
Q 1159 2438 1159 1844 
L 1159 0 
L 581 0 
L 581 3500 
L 1159 3500 
L 1159 2956 
Q 1341 3275 1631 3429 
Q 1922 3584 2338 3584 
Q 2397 3584 2469 3576 
Q 2541 3569 2628 3553 
L 2631 2963 
z
" id="DejaVuSans-72" transform="scale(0.015625)"/>
       <path d="M 3513 2113 
L 3513 0 
L 2938 0 
L 2938 2094 
Q 2938 2591 2744 2837 
Q 2550 3084 2163 3084 
Q 1697 3084 1428 2787 
Q 1159 2491 1159 1978 
L 1159 0 
L 581 0 
L 581 3500 
L 1159 3500 
L 1159 2956 
Q 1366 3272 1645 3428 
Q 1925 3584 2291 3584 
Q 2894 3584 3203 3211 
Q 3513 2838 3513 2113 
z
" id="DejaVuSans-6e" transform="scale(0.015625)"/>
       <path d="M 3122 3366 
L 3122 2828 
Q 2878 2963 2633 3030 
Q 2388 3097 2138 3097 
Q 1578 3097 1268 2742 
Q 959 2388 959 1747 
Q 959 1106 1268 751 
Q 1578 397 2138 397 
Q 2388 397 2633 464 
Q 2878 531 3122 666 
L 3122 134 
Q 2881 22 2623 -34 
Q 2366 -91 2075 -91 
Q 1284 -91 818 406 
Q 353 903 353 1747 
Q 353 2603 823 3093 
Q 1294 3584 2113 3584 
Q 2378 3584 2631 3529 
Q 2884 3475 3122 3366 
z
" id="DejaVuSans-63" transform="scale(0.015625)"/>
       <path d="M 1984 4856 
Q 1566 4138 1362 3434 
Q 1159 2731 1159 2009 
Q 1159 1288 1364 580 
Q 1569 -128 1984 -844 
L 1484 -844 
Q 1016 -109 783 600 
Q 550 1309 550 2009 
Q 550 2706 781 3412 
Q 1013 4119 1484 4856 
L 1984 4856 
z
" id="DejaVuSans-28" transform="scale(0.015625)"/>
       <path d="M 1959 3097 
Q 1497 3097 1228 2736 
Q 959 2375 959 1747 
Q 959 1119 1226 758 
Q 1494 397 1959 397 
Q 2419 397 2687 759 
Q 2956 1122 2956 1747 
Q 2956 2369 2687 2733 
Q 2419 3097 1959 3097 
z
M 1959 3584 
Q 2709 3584 3137 3096 
Q 3566 2609 3566 1747 
Q 3566 888 3137 398 
Q 2709 -91 1959 -91 
Q 1206 -91 779 398 
Q 353 888 353 1747 
Q 353 2609 779 3096 
Q 1206 3584 1959 3584 
z
" id="DejaVuSans-6f" transform="scale(0.015625)"/>
       <path d="M 544 1381 
L 544 3500 
L 1119 3500 
L 1119 1403 
Q 1119 906 1312 657 
Q 1506 409 1894 409 
Q 2359 409 2629 706 
Q 2900 1003 2900 1516 
L 2900 3500 
L 3475 3500 
L 3475 0 
L 2900 0 
L 2900 538 
Q 2691 219 2414 64 
Q 2138 -91 1772 -91 
Q 1169 -91 856 284 
Q 544 659 544 1381 
z
M 1991 3584 
L 1991 3584 
z
" id="DejaVuSans-75" transform="scale(0.015625)"/>
       <path d="M 1172 4494 
L 1172 3500 
L 2356 3500 
L 2356 3053 
L 1172 3053 
L 1172 1153 
Q 1172 725 1289 603 
Q 1406 481 1766 481 
L 2356 481 
L 2356 0 
L 1766 0 
Q 1100 0 847 248 
Q 594 497 594 1153 
L 594 3053 
L 172 3053 
L 172 3500 
L 594 3500 
L 594 4494 
L 1172 4494 
z
" id="DejaVuSans-74" transform="scale(0.015625)"/>
       <path d="M 513 4856 
L 1013 4856 
Q 1481 4119 1714 3412 
Q 1947 2706 1947 2009 
Q 1947 1309 1714 600 
Q 1481 -109 1013 -844 
L 513 -844 
Q 928 -128 1133 580 
Q 1338 1288 1338 2009 
Q 1338 2731 1133 3434 
Q 928 4138 513 4856 
z
" id="DejaVuSans-29" transform="scale(0.015625)"/>
       <path d="M 2834 3397 
L 2834 2853 
Q 2591 2978 2328 3040 
Q 2066 3103 1784 3103 
Q 1356 3103 1142 2972 
Q 928 2841 928 2578 
Q 928 2378 1081 2264 
Q 1234 2150 1697 2047 
L 1894 2003 
Q 2506 1872 2764 1633 
Q 3022 1394 3022 966 
Q 3022 478 2636 193 
Q 2250 -91 1575 -91 
Q 1294 -91 989 -36 
Q 684 19 347 128 
L 347 722 
Q 666 556 975 473 
Q 1284 391 1588 391 
Q 1994 391 2212 530 
Q 2431 669 2431 922 
Q 2431 1156 2273 1281 
Q 2116 1406 1581 1522 
L 1381 1569 
Q 847 1681 609 1914 
Q 372 2147 372 2553 
Q 372 3047 722 3315 
Q 1072 3584 1716 3584 
Q 2034 3584 2315 3537 
Q 2597 3491 2834 3397 
z
" id="DejaVuSans-73" transform="scale(0.015625)"/>
      </defs>
      <use xlink:href="#DejaVuSans-54"/>
      <use x="57.958984" xlink:href="#DejaVuSans-69"/>
      <use x="85.742188" xlink:href="#DejaVuSans-6d"/>
      <use x="183.154297" xlink:href="#DejaVuSans-65"/>
      <use x="244.677734" xlink:href="#DejaVuSans-20"/>
      <use x="276.464844" xlink:href="#DejaVuSans-64"/>
      <use x="339.941406" xlink:href="#DejaVuSans-69"/>
      <use x="367.724609" xlink:href="#DejaVuSans-66"/>
      <use x="402.929688" xlink:href="#DejaVuSans-66"/>
      <use x="438.134766" xlink:href="#DejaVuSans-65"/>
      <use x="499.658203" xlink:href="#DejaVuSans-72"/>
      <use x="538.521484" xlink:href="#DejaVuSans-65"/>
      <use x="600.044922" xlink:href="#DejaVuSans-6e"/>
      <use x="663.423828" xlink:href="#DejaVuSans-63"/>
      <use x="718.404297" xlink:href="#DejaVuSans-65"/>
      <use x="779.927734" xlink:href="#DejaVuSans-20"/>
      <use x="811.714844" xlink:href="#DejaVuSans-28"/>
      <use x="850.728516" xlink:href="#DejaVuSans-63"/>
      <use x="905.708984" xlink:href="#DejaVuSans-6f"/>
      <use x="966.890625" xlink:href="#DejaVuSans-75"/>
      <use x="1030.269531" xlink:href="#DejaVuSans-6e"/>
      <use x="1093.648438" xlink:href="#DejaVuSans-74"/>
      <use x="1132.857422" xlink:href="#DejaVuSans-29"/>
      <use x="1171.871094" xlink:href="#DejaVuSans-20"/>
      <use x="1203.658203" xlink:href="#DejaVuSans-28"/>
      <use x="1242.671875" xlink:href="#DejaVuSans-73"/>
      <use x="1294.771484" xlink:href="#DejaVuSans-29"/>
     </g>
    </g>
   </g>
   <g id="matplotlib.axis_2">
    <g id="ytick_1">
     <g id="line2d_6">
      <defs>
       <path d="M 0 0 
L -3.5 0 
" id="m902909aed8" style="stroke:#000000;stroke-width:0.8;"/>
      </defs>
      <g>
       <use style="stroke:#000000;stroke-width:0.8;" x="63.916685" xlink:href="#m902909aed8" y="280.432364"/>
      </g>
     </g>
     <g id="text_7">
      <!-- $\mathdefault{10^{0}}$ -->
      <g transform="translate(39.316685 284.231582)scale(0.1 -0.1)">
       <use transform="translate(0 0.765625)" xlink:href="#DejaVuSans-31"/>
       <use transform="translate(63.623047 0.765625)" xlink:href="#DejaVuSans-30"/>
       <use transform="translate(128.203125 39.046875)scale(0.7)" xlink:href="#DejaVuSans-30"/>
      </g>
     </g>
    </g>
    <g id="ytick_2">
     <g id="line2d_7">
      <g>
       <use style="stroke:#000000;stroke-width:0.8;" x="63.916685" xlink:href="#m902909aed8" y="208.180351"/>
      </g>
     </g>
     <g id="text_8">
      <!-- $\mathdefault{10^{1}}$ -->
      <g transform="translate(39.316685 211.97957)scale(0.1 -0.1)">
       <use transform="translate(0 0.684375)" xlink:href="#DejaVuSans-31"/>
       <use transform="translate(63.623047 0.684375)" xlink:href="#DejaVuSans-30"/>
       <use transform="translate(128.203125 38.965625)scale(0.7)" xlink:href="#DejaVuSans-31"/>
      </g>
     </g>
    </g>
    <g id="ytick_3">
     <g id="line2d_8">
      <g>
       <use style="stroke:#000000;stroke-width:0.8;" x="63.916685" xlink:href="#m902909aed8" y="135.928338"/>
      </g>
     </g>
     <g id="text_9">
      <!-- $\mathdefault{10^{2}}$ -->
      <g transform="translate(39.316685 139.727557)scale(0.1 -0.1)">
       <use transform="translate(0 0.765625)" xlink:href="#DejaVuSans-31"/>
       <use transform="translate(63.623047 0.765625)" xlink:href="#DejaVuSans-30"/>
       <use transform="translate(128.203125 39.046875)scale(0.7)" xlink:href="#DejaVuSans-32"/>
      </g>
     </g>
    </g>
    <g id="ytick_4">
     <g id="line2d_9">
      <g>
       <use style="stroke:#000000;stroke-width:0.8;" x="63.916685" xlink:href="#m902909aed8" y="63.676325"/>
      </g>
     </g>
     <g id="text_10">
      <!-- $\mathdefault{10^{3}}$ -->
      <g transform="translate(39.316685 67.475544)scale(0.1 -0.1)">
       <use transform="translate(0 0.765625)" xlink:href="#DejaVuSans-31"/>
       <use transform="translate(63.623047 0.765625)" xlink:href="#DejaVuSans-30"/>
       <use transform="translate(128.203125 39.046875)scale(0.7)" xlink:href="#DejaVuSans-33"/>
      </g>
     </g>
    </g>
    <g id="ytick_5">
     <g id="line2d_10">
      <defs>
       <path d="M 0 0 
L -2 0 
" id="mcf4158e7f3" style="stroke:#000000;stroke-width:0.6;"/>
      </defs>
      <g>
       <use style="stroke:#000000;stroke-width:0.6;" x="63.916685" xlink:href="#mcf4158e7f3" y="291.624342"/>
      </g>
     </g>
    </g>
    <g id="ytick_6">
     <g id="line2d_11">
      <g>
       <use style="stroke:#000000;stroke-width:0.6;" x="63.916685" xlink:href="#mcf4158e7f3" y="287.434307"/>
      </g>
     </g>
    </g>
    <g id="ytick_7">
     <g id="line2d_12">
      <g>
       <use style="stroke:#000000;stroke-width:0.6;" x="63.916685" xlink:href="#mcf4158e7f3" y="283.738434"/>
      </g>
     </g>
    </g>
    <g id="ytick_8">
     <g id="line2d_13">
      <g>
       <use style="stroke:#000000;stroke-width:0.6;" x="63.916685" xlink:href="#mcf4158e7f3" y="258.682341"/>
      </g>
     </g>
    </g>
    <g id="ytick_9">
     <g id="line2d_14">
      <g>
       <use style="stroke:#000000;stroke-width:0.6;" x="63.916685" xlink:href="#mcf4158e7f3" y="245.959393"/>
      </g>
     </g>
    </g>
    <g id="ytick_10">
     <g id="line2d_15">
      <g>
       <use style="stroke:#000000;stroke-width:0.6;" x="63.916685" xlink:href="#mcf4158e7f3" y="236.932317"/>
      </g>
     </g>
    </g>
    <g id="ytick_11">
     <g id="line2d_16">
      <g>
       <use style="stroke:#000000;stroke-width:0.6;" x="63.916685" xlink:href="#mcf4158e7f3" y="229.930374"/>
      </g>
     </g>
    </g>
    <g id="ytick_12">
     <g id="line2d_17">
      <g>
       <use style="stroke:#000000;stroke-width:0.6;" x="63.916685" xlink:href="#mcf4158e7f3" y="224.209369"/>
      </g>
     </g>
    </g>
    <g id="ytick_13">
     <g id="line2d_18">
      <g>
       <use style="stroke:#000000;stroke-width:0.6;" x="63.916685" xlink:href="#mcf4158e7f3" y="219.372329"/>
      </g>
     </g>
    </g>
    <g id="ytick_14">
     <g id="line2d_19">
      <g>
       <use style="stroke:#000000;stroke-width:0.6;" x="63.916685" xlink:href="#mcf4158e7f3" y="215.182294"/>
      </g>
     </g>
    </g>
    <g id="ytick_15">
     <g id="line2d_20">
      <g>
       <use style="stroke:#000000;stroke-width:0.6;" x="63.916685" xlink:href="#mcf4158e7f3" y="211.486422"/>
      </g>
     </g>
    </g>
    <g id="ytick_16">
     <g id="line2d_21">
      <g>
       <use style="stroke:#000000;stroke-width:0.6;" x="63.916685" xlink:href="#mcf4158e7f3" y="186.430328"/>
      </g>
     </g>
    </g>
    <g id="ytick_17">
     <g id="line2d_22">
      <g>
       <use style="stroke:#000000;stroke-width:0.6;" x="63.916685" xlink:href="#mcf4158e7f3" y="173.70738"/>
      </g>
     </g>
    </g>
    <g id="ytick_18">
     <g id="line2d_23">
      <g>
       <use style="stroke:#000000;stroke-width:0.6;" x="63.916685" xlink:href="#mcf4158e7f3" y="164.680305"/>
      </g>
     </g>
    </g>
    <g id="ytick_19">
     <g id="line2d_24">
      <g>
       <use style="stroke:#000000;stroke-width:0.6;" x="63.916685" xlink:href="#mcf4158e7f3" y="157.678361"/>
      </g>
     </g>
    </g>
    <g id="ytick_20">
     <g id="line2d_25">
      <g>
       <use style="stroke:#000000;stroke-width:0.6;" x="63.916685" xlink:href="#mcf4158e7f3" y="151.957357"/>
      </g>
     </g>
    </g>
    <g id="ytick_21">
     <g id="line2d_26">
      <g>
       <use style="stroke:#000000;stroke-width:0.6;" x="63.916685" xlink:href="#mcf4158e7f3" y="147.120316"/>
      </g>
     </g>
    </g>
    <g id="ytick_22">
     <g id="line2d_27">
      <g>
       <use style="stroke:#000000;stroke-width:0.6;" x="63.916685" xlink:href="#mcf4158e7f3" y="142.930281"/>
      </g>
     </g>
    </g>
    <g id="ytick_23">
     <g id="line2d_28">
      <g>
       <use style="stroke:#000000;stroke-width:0.6;" x="63.916685" xlink:href="#mcf4158e7f3" y="139.234409"/>
      </g>
     </g>
    </g>
    <g id="ytick_24">
     <g id="line2d_29">
      <g>
       <use style="stroke:#000000;stroke-width:0.6;" x="63.916685" xlink:href="#mcf4158e7f3" y="114.178315"/>
      </g>
     </g>
    </g>
    <g id="ytick_25">
     <g id="line2d_30">
      <g>
       <use style="stroke:#000000;stroke-width:0.6;" x="63.916685" xlink:href="#mcf4158e7f3" y="101.455367"/>
      </g>
     </g>
    </g>
    <g id="ytick_26">
     <g id="line2d_31">
      <g>
       <use style="stroke:#000000;stroke-width:0.6;" x="63.916685" xlink:href="#mcf4158e7f3" y="92.428292"/>
      </g>
     </g>
    </g>
    <g id="ytick_27">
     <g id="line2d_32">
      <g>
       <use style="stroke:#000000;stroke-width:0.6;" x="63.916685" xlink:href="#mcf4158e7f3" y="85.426348"/>
      </g>
     </g>
    </g>
    <g id="ytick_28">
     <g id="line2d_33">
      <g>
       <use style="stroke:#000000;stroke-width:0.6;" x="63.916685" xlink:href="#mcf4158e7f3" y="79.705344"/>
      </g>
     </g>
    </g>
    <g id="ytick_29">
     <g id="line2d_34">
      <g>
       <use style="stroke:#000000;stroke-width:0.6;" x="63.916685" xlink:href="#mcf4158e7f3" y="74.868303"/>
      </g>
     </g>
    </g>
    <g id="ytick_30">
     <g id="line2d_35">
      <g>
       <use style="stroke:#000000;stroke-width:0.6;" x="63.916685" xlink:href="#mcf4158e7f3" y="70.678269"/>
      </g>
     </g>
    </g>
    <g id="ytick_31">
     <g id="line2d_36">
      <g>
       <use style="stroke:#000000;stroke-width:0.6;" x="63.916685" xlink:href="#mcf4158e7f3" y="66.982396"/>
      </g>
     </g>
    </g>
    <g id="ytick_32">
     <g id="line2d_37">
      <g>
       <use style="stroke:#000000;stroke-width:0.6;" x="63.916685" xlink:href="#mcf4158e7f3" y="41.926302"/>
      </g>
     </g>
    </g>
    <g id="ytick_33">
     <g id="line2d_38">
      <g>
       <use style="stroke:#000000;stroke-width:0.6;" x="63.916685" xlink:href="#mcf4158e7f3" y="29.203354"/>
      </g>
     </g>
    </g>
    <g id="ytick_34">
     <g id="line2d_39">
      <g>
       <use style="stroke:#000000;stroke-width:0.6;" x="63.916685" xlink:href="#mcf4158e7f3" y="20.176279"/>
      </g>
     </g>
    </g>
    <g id="ytick_35">
     <g id="line2d_40">
      <g>
       <use style="stroke:#000000;stroke-width:0.6;" x="63.916685" xlink:href="#mcf4158e7f3" y="13.174335"/>
      </g>
     </g>
    </g>
    <g id="text_11">
     <!-- Frequency -->
     <g transform="translate(33.236997 177.865688)rotate(-90)scale(0.1 -0.1)">
      <defs>
       <path d="M 628 4666 
L 3309 4666 
L 3309 4134 
L 1259 4134 
L 1259 2759 
L 3109 2759 
L 3109 2228 
L 1259 2228 
L 1259 0 
L 628 0 
L 628 4666 
z
" id="DejaVuSans-46" transform="scale(0.015625)"/>
       <path d="M 947 1747 
Q 947 1113 1208 752 
Q 1469 391 1925 391 
Q 2381 391 2643 752 
Q 2906 1113 2906 1747 
Q 2906 2381 2643 2742 
Q 2381 3103 1925 3103 
Q 1469 3103 1208 2742 
Q 947 2381 947 1747 
z
M 2906 525 
Q 2725 213 2448 61 
Q 2172 -91 1784 -91 
Q 1150 -91 751 415 
Q 353 922 353 1747 
Q 353 2572 751 3078 
Q 1150 3584 1784 3584 
Q 2172 3584 2448 3432 
Q 2725 3281 2906 2969 
L 2906 3500 
L 3481 3500 
L 3481 -1331 
L 2906 -1331 
L 2906 525 
z
" id="DejaVuSans-71" transform="scale(0.015625)"/>
       <path d="M 2059 -325 
Q 1816 -950 1584 -1140 
Q 1353 -1331 966 -1331 
L 506 -1331 
L 506 -850 
L 844 -850 
Q 1081 -850 1212 -737 
Q 1344 -625 1503 -206 
L 1606 56 
L 191 3500 
L 800 3500 
L 1894 763 
L 2988 3500 
L 3597 3500 
L 2059 -325 
z
" id="DejaVuSans-79" transform="scale(0.015625)"/>
      </defs>
      <use xlink:href="#DejaVuSans-46"/>
      <use x="50.269531" xlink:href="#DejaVuSans-72"/>
      <use x="89.132812" xlink:href="#DejaVuSans-65"/>
      <use x="150.65625" xlink:href="#DejaVuSans-71"/>
      <use x="214.132812" xlink:href="#DejaVuSans-75"/>
      <use x="277.511719" xlink:href="#DejaVuSans-65"/>
      <use x="339.035156" xlink:href="#DejaVuSans-6e"/>
      <use x="402.414062" xlink:href="#DejaVuSans-63"/>
      <use x="457.394531" xlink:href="#DejaVuSans-79"/>
     </g>
    </g>
   </g>
   <g id="patch_103">
    <path d="M 63.916685 293.272 
L 63.916685 10.8 
" style="fill:none;stroke:#000000;stroke-linecap:square;stroke-linejoin:miter;stroke-width:0.8;"/>
   </g>
   <g id="patch_104">
    <path d="M 450 293.272 
L 450 10.8 
" style="fill:none;stroke:#000000;stroke-linecap:square;stroke-linejoin:miter;stroke-width:0.8;"/>
   </g>
   <g id="patch_105">
    <path d="M 63.916685 293.272 
L 450 293.272 
" style="fill:none;stroke:#000000;stroke-linecap:square;stroke-linejoin:miter;stroke-width:0.8;"/>
   </g>
   <g id="patch_106">
    <path d="M 63.916685 10.8 
L 450 10.8 
" style="fill:none;stroke:#000000;stroke-linecap:square;stroke-linejoin:miter;stroke-width:0.8;"/>
   </g>
  </g>
 </g>
 <defs>
  <clipPath id="p133ee01ab6">
   <rect height="282.472" width="386.083315" x="63.916685" y="10.8"/>
  </clipPath>
 </defs>
</svg>
