<?xml version="1.0" encoding="utf-8" standalone="no"?>
<!DOCTYPE svg PUBLIC "-//W3C//DTD SVG 1.1//EN"
  "http://www.w3.org/Graphics/SVG/1.1/DTD/svg11.dtd">
<!-- Created with matplotlib (https://matplotlib.org/) -->
<svg height="345.6pt" version="1.1" viewBox="0 0 460.8 345.6" width="460.8pt" xmlns="http://www.w3.org/2000/svg" xmlns:xlink="http://www.w3.org/1999/xlink">
 <metadata>
  <rdf:RDF xmlns:cc="http://creativecommons.org/ns#" xmlns:dc="http://purl.org/dc/elements/1.1/" xmlns:rdf="http://www.w3.org/1999/02/22-rdf-syntax-ns#">
   <cc:Work>
    <dc:type rdf:resource="http://purl.org/dc/dcmitype/StillImage"/>
    <dc:date>2021-03-15T13:24:02.990721</dc:date>
    <dc:format>image/svg+xml</dc:format>
    <dc:creator>
     <cc:Agent>
      <dc:title>Matplotlib v3.3.2, https://matplotlib.org/</dc:title>
     </cc:Agent>
    </dc:creator>
   </cc:Work>
  </rdf:RDF>
 </metadata>
 <defs>
  <style type="text/css">*{stroke-linecap:butt;stroke-linejoin:round;}</style>
 </defs>
 <g id="figure_1">
  <g id="patch_1">
   <path d="M 0 345.6 
L 460.8 345.6 
L 460.8 0 
L 0 0 
z
" style="fill:#ffffff;"/>
  </g>
  <g id="axes_1">
   <g id="patch_2">
    <path d="M 47.554 145.136 
L 442.035 145.136 
L 442.035 14.76 
L 47.554 14.76 
z
" style="fill:#ffffff;"/>
   </g>
   <g id="patch_3">
    <path clip-path="url(#p44f73d43a2)" d="M 65.484955 145.136 
L 77.438924 145.136 
L 77.438924 27.226173 
L 65.484955 27.226173 
z
" style="fill:#1f77b4;"/>
   </g>
   <g id="patch_4">
    <path clip-path="url(#p44f73d43a2)" d="M 77.438924 145.136 
L 89.392894 145.136 
L 89.392894 71.387972 
L 77.438924 71.387972 
z
" style="fill:#1f77b4;"/>
   </g>
   <g id="patch_5">
    <path clip-path="url(#p44f73d43a2)" d="M 89.392894 145.136 
L 101.346864 145.136 
L 101.346864 91.837278 
L 89.392894 91.837278 
z
" style="fill:#1f77b4;"/>
   </g>
   <g id="patch_6">
    <path clip-path="url(#p44f73d43a2)" d="M 101.346864 145.136 
L 113.300833 145.136 
L 113.300833 92.707461 
L 101.346864 92.707461 
z
" style="fill:#1f77b4;"/>
   </g>
   <g id="patch_7">
    <path clip-path="url(#p44f73d43a2)" d="M 113.300833 145.136 
L 125.254803 145.136 
L 125.254803 108.588305 
L 113.300833 108.588305 
z
" style="fill:#1f77b4;"/>
   </g>
   <g id="patch_8">
    <path clip-path="url(#p44f73d43a2)" d="M 125.254803 145.136 
L 137.208773 145.136 
L 137.208773 109.240942 
L 125.254803 109.240942 
z
" style="fill:#1f77b4;"/>
   </g>
   <g id="patch_9">
    <path clip-path="url(#p44f73d43a2)" d="M 137.208773 145.136 
L 149.162742 145.136 
L 149.162742 115.54977 
L 137.208773 115.54977 
z
" style="fill:#1f77b4;"/>
   </g>
   <g id="patch_10">
    <path clip-path="url(#p44f73d43a2)" d="M 149.162742 145.136 
L 161.116712 145.136 
L 161.116712 116.419954 
L 149.162742 116.419954 
z
" style="fill:#1f77b4;"/>
   </g>
   <g id="patch_11">
    <path clip-path="url(#p44f73d43a2)" d="M 161.116712 145.136 
L 173.070682 145.136 
L 173.070682 123.598965 
L 161.116712 123.598965 
z
" style="fill:#1f77b4;"/>
   </g>
   <g id="patch_12">
    <path clip-path="url(#p44f73d43a2)" d="M 173.070682 145.136 
L 185.024652 145.136 
L 185.024652 124.034057 
L 173.070682 124.034057 
z
" style="fill:#1f77b4;"/>
   </g>
   <g id="patch_13">
    <path clip-path="url(#p44f73d43a2)" d="M 185.024652 145.136 
L 196.978621 145.136 
L 196.978621 132.300797 
L 185.024652 132.300797 
z
" style="fill:#1f77b4;"/>
   </g>
   <g id="patch_14">
    <path clip-path="url(#p44f73d43a2)" d="M 196.978621 145.136 
L 208.932591 145.136 
L 208.932591 132.300797 
L 196.978621 132.300797 
z
" style="fill:#1f77b4;"/>
   </g>
   <g id="patch_15">
    <path clip-path="url(#p44f73d43a2)" d="M 208.932591 145.136 
L 220.886561 145.136 
L 220.886561 132.300797 
L 208.932591 132.300797 
z
" style="fill:#1f77b4;"/>
   </g>
   <g id="patch_16">
    <path clip-path="url(#p44f73d43a2)" d="M 220.886561 145.136 
L 232.84053 145.136 
L 232.84053 133.388526 
L 220.886561 133.388526 
z
" style="fill:#1f77b4;"/>
   </g>
   <g id="patch_17">
    <path clip-path="url(#p44f73d43a2)" d="M 232.84053 145.136 
L 244.7945 145.136 
L 244.7945 133.170981 
L 232.84053 133.170981 
z
" style="fill:#1f77b4;"/>
   </g>
   <g id="patch_18">
    <path clip-path="url(#p44f73d43a2)" d="M 244.7945 145.136 
L 256.74847 145.136 
L 256.74847 134.476256 
L 244.7945 134.476256 
z
" style="fill:#1f77b4;"/>
   </g>
   <g id="patch_19">
    <path clip-path="url(#p44f73d43a2)" d="M 256.74847 145.136 
L 268.702439 145.136 
L 268.702439 133.388526 
L 256.74847 133.388526 
z
" style="fill:#1f77b4;"/>
   </g>
   <g id="patch_20">
    <path clip-path="url(#p44f73d43a2)" d="M 268.702439 145.136 
L 280.656409 145.136 
L 280.656409 136.216622 
L 268.702439 136.216622 
z
" style="fill:#1f77b4;"/>
   </g>
   <g id="patch_21">
    <path clip-path="url(#p44f73d43a2)" d="M 280.656409 145.136 
L 292.610379 145.136 
L 292.610379 131.865706 
L 280.656409 131.865706 
z
" style="fill:#1f77b4;"/>
   </g>
   <g id="patch_22">
    <path clip-path="url(#p44f73d43a2)" d="M 292.610379 145.136 
L 304.564348 145.136 
L 304.564348 134.911347 
L 292.610379 134.911347 
z
" style="fill:#1f77b4;"/>
   </g>
   <g id="patch_23">
    <path clip-path="url(#p44f73d43a2)" d="M 304.564348 145.136 
L 316.518318 145.136 
L 316.518318 136.216622 
L 304.564348 136.216622 
z
" style="fill:#1f77b4;"/>
   </g>
   <g id="patch_24">
    <path clip-path="url(#p44f73d43a2)" d="M 316.518318 145.136 
L 328.472288 145.136 
L 328.472288 136.651714 
L 316.518318 136.651714 
z
" style="fill:#1f77b4;"/>
   </g>
   <g id="patch_25">
    <path clip-path="url(#p44f73d43a2)" d="M 328.472288 145.136 
L 340.426258 145.136 
L 340.426258 135.999076 
L 328.472288 135.999076 
z
" style="fill:#1f77b4;"/>
   </g>
   <g id="patch_26">
    <path clip-path="url(#p44f73d43a2)" d="M 340.426258 145.136 
L 352.380227 145.136 
L 352.380227 139.044717 
L 340.426258 139.044717 
z
" style="fill:#1f77b4;"/>
   </g>
   <g id="patch_27">
    <path clip-path="url(#p44f73d43a2)" d="M 352.380227 145.136 
L 364.334197 145.136 
L 364.334197 136.434168 
L 352.380227 136.434168 
z
" style="fill:#1f77b4;"/>
   </g>
   <g id="patch_28">
    <path clip-path="url(#p44f73d43a2)" d="M 364.334197 145.136 
L 376.288167 145.136 
L 376.288167 136.434168 
L 364.334197 136.434168 
z
" style="fill:#1f77b4;"/>
   </g>
   <g id="patch_29">
    <path clip-path="url(#p44f73d43a2)" d="M 376.288167 145.136 
L 388.242136 145.136 
L 388.242136 135.346439 
L 376.288167 135.346439 
z
" style="fill:#1f77b4;"/>
   </g>
   <g id="patch_30">
    <path clip-path="url(#p44f73d43a2)" d="M 388.242136 145.136 
L 400.196106 145.136 
L 400.196106 135.78153 
L 388.242136 135.78153 
z
" style="fill:#1f77b4;"/>
   </g>
   <g id="patch_31">
    <path clip-path="url(#p44f73d43a2)" d="M 400.196106 145.136 
L 412.150076 145.136 
L 412.150076 139.479809 
L 400.196106 139.479809 
z
" style="fill:#1f77b4;"/>
   </g>
   <g id="patch_32">
    <path clip-path="url(#p44f73d43a2)" d="M 412.150076 145.136 
L 424.104045 145.136 
L 424.104045 140.349992 
L 412.150076 140.349992 
z
" style="fill:#1f77b4;"/>
   </g>
   <g id="matplotlib.axis_1">
    <g id="xtick_1">
     <g id="line2d_1">
      <defs>
       <path d="M 0 0 
L 0 3.5 
" id="m1f95d031aa" style="stroke:#000000;stroke-width:0.8;"/>
      </defs>
      <g>
       <use style="stroke:#000000;stroke-width:0.8;" x="112.261358" xlink:href="#m1f95d031aa" y="145.136"/>
      </g>
     </g>
     <g id="text_1">
      <!-- 20 -->
      <g transform="translate(105.898858 159.734437)scale(0.1 -0.1)">
       <defs>
        <path d="M 19.1875 8.296875 
L 53.609375 8.296875 
L 53.609375 0 
L 7.328125 0 
L 7.328125 8.296875 
Q 12.9375 14.109375 22.625 23.890625 
Q 32.328125 33.6875 34.8125 36.53125 
Q 39.546875 41.84375 41.421875 45.53125 
Q 43.3125 49.21875 43.3125 52.78125 
Q 43.3125 58.59375 39.234375 62.25 
Q 35.15625 65.921875 28.609375 65.921875 
Q 23.96875 65.921875 18.8125 64.3125 
Q 13.671875 62.703125 7.8125 59.421875 
L 7.8125 69.390625 
Q 13.765625 71.78125 18.9375 73 
Q 24.125 74.21875 28.421875 74.21875 
Q 39.75 74.21875 46.484375 68.546875 
Q 53.21875 62.890625 53.21875 53.421875 
Q 53.21875 48.921875 51.53125 44.890625 
Q 49.859375 40.875 45.40625 35.40625 
Q 44.1875 33.984375 37.640625 27.21875 
Q 31.109375 20.453125 19.1875 8.296875 
z
" id="DejaVuSans-50"/>
        <path d="M 31.78125 66.40625 
Q 24.171875 66.40625 20.328125 58.90625 
Q 16.5 51.421875 16.5 36.375 
Q 16.5 21.390625 20.328125 13.890625 
Q 24.171875 6.390625 31.78125 6.390625 
Q 39.453125 6.390625 43.28125 13.890625 
Q 47.125 21.390625 47.125 36.375 
Q 47.125 51.421875 43.28125 58.90625 
Q 39.453125 66.40625 31.78125 66.40625 
z
M 31.78125 74.21875 
Q 44.046875 74.21875 50.515625 64.515625 
Q 56.984375 54.828125 56.984375 36.375 
Q 56.984375 17.96875 50.515625 8.265625 
Q 44.046875 -1.421875 31.78125 -1.421875 
Q 19.53125 -1.421875 13.0625 8.265625 
Q 6.59375 17.96875 6.59375 36.375 
Q 6.59375 54.828125 13.0625 64.515625 
Q 19.53125 74.21875 31.78125 74.21875 
z
" id="DejaVuSans-48"/>
       </defs>
       <use xlink:href="#DejaVuSans-50"/>
       <use x="63.623047" xlink:href="#DejaVuSans-48"/>
      </g>
     </g>
    </g>
    <g id="xtick_2">
     <g id="line2d_2">
      <g>
       <use style="stroke:#000000;stroke-width:0.8;" x="190.22203" xlink:href="#m1f95d031aa" y="145.136"/>
      </g>
     </g>
     <g id="text_2">
      <!-- 40 -->
      <g transform="translate(183.85953 159.734437)scale(0.1 -0.1)">
       <defs>
        <path d="M 37.796875 64.3125 
L 12.890625 25.390625 
L 37.796875 25.390625 
z
M 35.203125 72.90625 
L 47.609375 72.90625 
L 47.609375 25.390625 
L 58.015625 25.390625 
L 58.015625 17.1875 
L 47.609375 17.1875 
L 47.609375 0 
L 37.796875 0 
L 37.796875 17.1875 
L 4.890625 17.1875 
L 4.890625 26.703125 
z
" id="DejaVuSans-52"/>
       </defs>
       <use xlink:href="#DejaVuSans-52"/>
       <use x="63.623047" xlink:href="#DejaVuSans-48"/>
      </g>
     </g>
    </g>
    <g id="xtick_3">
     <g id="line2d_3">
      <g>
       <use style="stroke:#000000;stroke-width:0.8;" x="268.182702" xlink:href="#m1f95d031aa" y="145.136"/>
      </g>
     </g>
     <g id="text_3">
      <!-- 60 -->
      <g transform="translate(261.820202 159.734437)scale(0.1 -0.1)">
       <defs>
        <path d="M 33.015625 40.375 
Q 26.375 40.375 22.484375 35.828125 
Q 18.609375 31.296875 18.609375 23.390625 
Q 18.609375 15.53125 22.484375 10.953125 
Q 26.375 6.390625 33.015625 6.390625 
Q 39.65625 6.390625 43.53125 10.953125 
Q 47.40625 15.53125 47.40625 23.390625 
Q 47.40625 31.296875 43.53125 35.828125 
Q 39.65625 40.375 33.015625 40.375 
z
M 52.59375 71.296875 
L 52.59375 62.3125 
Q 48.875 64.0625 45.09375 64.984375 
Q 41.3125 65.921875 37.59375 65.921875 
Q 27.828125 65.921875 22.671875 59.328125 
Q 17.53125 52.734375 16.796875 39.40625 
Q 19.671875 43.65625 24.015625 45.921875 
Q 28.375 48.1875 33.59375 48.1875 
Q 44.578125 48.1875 50.953125 41.515625 
Q 57.328125 34.859375 57.328125 23.390625 
Q 57.328125 12.15625 50.6875 5.359375 
Q 44.046875 -1.421875 33.015625 -1.421875 
Q 20.359375 -1.421875 13.671875 8.265625 
Q 6.984375 17.96875 6.984375 36.375 
Q 6.984375 53.65625 15.1875 63.9375 
Q 23.390625 74.21875 37.203125 74.21875 
Q 40.921875 74.21875 44.703125 73.484375 
Q 48.484375 72.75 52.59375 71.296875 
z
" id="DejaVuSans-54"/>
       </defs>
       <use xlink:href="#DejaVuSans-54"/>
       <use x="63.623047" xlink:href="#DejaVuSans-48"/>
      </g>
     </g>
    </g>
    <g id="xtick_4">
     <g id="line2d_4">
      <g>
       <use style="stroke:#000000;stroke-width:0.8;" x="346.143374" xlink:href="#m1f95d031aa" y="145.136"/>
      </g>
     </g>
     <g id="text_4">
      <!-- 80 -->
      <g transform="translate(339.780874 159.734437)scale(0.1 -0.1)">
       <defs>
        <path d="M 31.78125 34.625 
Q 24.75 34.625 20.71875 30.859375 
Q 16.703125 27.09375 16.703125 20.515625 
Q 16.703125 13.921875 20.71875 10.15625 
Q 24.75 6.390625 31.78125 6.390625 
Q 38.8125 6.390625 42.859375 10.171875 
Q 46.921875 13.96875 46.921875 20.515625 
Q 46.921875 27.09375 42.890625 30.859375 
Q 38.875 34.625 31.78125 34.625 
z
M 21.921875 38.8125 
Q 15.578125 40.375 12.03125 44.71875 
Q 8.5 49.078125 8.5 55.328125 
Q 8.5 64.0625 14.71875 69.140625 
Q 20.953125 74.21875 31.78125 74.21875 
Q 42.671875 74.21875 48.875 69.140625 
Q 55.078125 64.0625 55.078125 55.328125 
Q 55.078125 49.078125 51.53125 44.71875 
Q 48 40.375 41.703125 38.8125 
Q 48.828125 37.15625 52.796875 32.3125 
Q 56.78125 27.484375 56.78125 20.515625 
Q 56.78125 9.90625 50.3125 4.234375 
Q 43.84375 -1.421875 31.78125 -1.421875 
Q 19.734375 -1.421875 13.25 4.234375 
Q 6.78125 9.90625 6.78125 20.515625 
Q 6.78125 27.484375 10.78125 32.3125 
Q 14.796875 37.15625 21.921875 38.8125 
z
M 18.3125 54.390625 
Q 18.3125 48.734375 21.84375 45.5625 
Q 25.390625 42.390625 31.78125 42.390625 
Q 38.140625 42.390625 41.71875 45.5625 
Q 45.3125 48.734375 45.3125 54.390625 
Q 45.3125 60.0625 41.71875 63.234375 
Q 38.140625 66.40625 31.78125 66.40625 
Q 25.390625 66.40625 21.84375 63.234375 
Q 18.3125 60.0625 18.3125 54.390625 
z
" id="DejaVuSans-56"/>
       </defs>
       <use xlink:href="#DejaVuSans-56"/>
       <use x="63.623047" xlink:href="#DejaVuSans-48"/>
      </g>
     </g>
    </g>
    <g id="xtick_5">
     <g id="line2d_5">
      <g>
       <use style="stroke:#000000;stroke-width:0.8;" x="424.104045" xlink:href="#m1f95d031aa" y="145.136"/>
      </g>
     </g>
     <g id="text_5">
      <!-- 100 -->
      <g transform="translate(414.560295 159.734437)scale(0.1 -0.1)">
       <defs>
        <path d="M 12.40625 8.296875 
L 28.515625 8.296875 
L 28.515625 63.921875 
L 10.984375 60.40625 
L 10.984375 69.390625 
L 28.421875 72.90625 
L 38.28125 72.90625 
L 38.28125 8.296875 
L 54.390625 8.296875 
L 54.390625 0 
L 12.40625 0 
z
" id="DejaVuSans-49"/>
       </defs>
       <use xlink:href="#DejaVuSans-49"/>
       <use x="63.623047" xlink:href="#DejaVuSans-48"/>
       <use x="127.246094" xlink:href="#DejaVuSans-48"/>
      </g>
     </g>
    </g>
    <g id="text_6">
     <!-- Mean lifetime (us) -->
     <g transform="translate(199.407 173.412562)scale(0.1 -0.1)">
      <defs>
       <path d="M 9.8125 72.90625 
L 24.515625 72.90625 
L 43.109375 23.296875 
L 61.8125 72.90625 
L 76.515625 72.90625 
L 76.515625 0 
L 66.890625 0 
L 66.890625 64.015625 
L 48.09375 14.015625 
L 38.1875 14.015625 
L 19.390625 64.015625 
L 19.390625 0 
L 9.8125 0 
z
" id="DejaVuSans-77"/>
       <path d="M 56.203125 29.59375 
L 56.203125 25.203125 
L 14.890625 25.203125 
Q 15.484375 15.921875 20.484375 11.0625 
Q 25.484375 6.203125 34.421875 6.203125 
Q 39.59375 6.203125 44.453125 7.46875 
Q 49.3125 8.734375 54.109375 11.28125 
L 54.109375 2.78125 
Q 49.265625 0.734375 44.1875 -0.34375 
Q 39.109375 -1.421875 33.890625 -1.421875 
Q 20.796875 -1.421875 13.15625 6.1875 
Q 5.515625 13.8125 5.515625 26.8125 
Q 5.515625 40.234375 12.765625 48.109375 
Q 20.015625 56 32.328125 56 
Q 43.359375 56 49.78125 48.890625 
Q 56.203125 41.796875 56.203125 29.59375 
z
M 47.21875 32.234375 
Q 47.125 39.59375 43.09375 43.984375 
Q 39.0625 48.390625 32.421875 48.390625 
Q 24.90625 48.390625 20.390625 44.140625 
Q 15.875 39.890625 15.1875 32.171875 
z
" id="DejaVuSans-101"/>
       <path d="M 34.28125 27.484375 
Q 23.390625 27.484375 19.1875 25 
Q 14.984375 22.515625 14.984375 16.5 
Q 14.984375 11.71875 18.140625 8.90625 
Q 21.296875 6.109375 26.703125 6.109375 
Q 34.1875 6.109375 38.703125 11.40625 
Q 43.21875 16.703125 43.21875 25.484375 
L 43.21875 27.484375 
z
M 52.203125 31.203125 
L 52.203125 0 
L 43.21875 0 
L 43.21875 8.296875 
Q 40.140625 3.328125 35.546875 0.953125 
Q 30.953125 -1.421875 24.3125 -1.421875 
Q 15.921875 -1.421875 10.953125 3.296875 
Q 6 8.015625 6 15.921875 
Q 6 25.140625 12.171875 29.828125 
Q 18.359375 34.515625 30.609375 34.515625 
L 43.21875 34.515625 
L 43.21875 35.40625 
Q 43.21875 41.609375 39.140625 45 
Q 35.0625 48.390625 27.6875 48.390625 
Q 23 48.390625 18.546875 47.265625 
Q 14.109375 46.140625 10.015625 43.890625 
L 10.015625 52.203125 
Q 14.9375 54.109375 19.578125 55.046875 
Q 24.21875 56 28.609375 56 
Q 40.484375 56 46.34375 49.84375 
Q 52.203125 43.703125 52.203125 31.203125 
z
" id="DejaVuSans-97"/>
       <path d="M 54.890625 33.015625 
L 54.890625 0 
L 45.90625 0 
L 45.90625 32.71875 
Q 45.90625 40.484375 42.875 44.328125 
Q 39.84375 48.1875 33.796875 48.1875 
Q 26.515625 48.1875 22.3125 43.546875 
Q 18.109375 38.921875 18.109375 30.90625 
L 18.109375 0 
L 9.078125 0 
L 9.078125 54.6875 
L 18.109375 54.6875 
L 18.109375 46.1875 
Q 21.34375 51.125 25.703125 53.5625 
Q 30.078125 56 35.796875 56 
Q 45.21875 56 50.046875 50.171875 
Q 54.890625 44.34375 54.890625 33.015625 
z
" id="DejaVuSans-110"/>
       <path id="DejaVuSans-32"/>
       <path d="M 9.421875 75.984375 
L 18.40625 75.984375 
L 18.40625 0 
L 9.421875 0 
z
" id="DejaVuSans-108"/>
       <path d="M 9.421875 54.6875 
L 18.40625 54.6875 
L 18.40625 0 
L 9.421875 0 
z
M 9.421875 75.984375 
L 18.40625 75.984375 
L 18.40625 64.59375 
L 9.421875 64.59375 
z
" id="DejaVuSans-105"/>
       <path d="M 37.109375 75.984375 
L 37.109375 68.5 
L 28.515625 68.5 
Q 23.6875 68.5 21.796875 66.546875 
Q 19.921875 64.59375 19.921875 59.515625 
L 19.921875 54.6875 
L 34.71875 54.6875 
L 34.71875 47.703125 
L 19.921875 47.703125 
L 19.921875 0 
L 10.890625 0 
L 10.890625 47.703125 
L 2.296875 47.703125 
L 2.296875 54.6875 
L 10.890625 54.6875 
L 10.890625 58.5 
Q 10.890625 67.625 15.140625 71.796875 
Q 19.390625 75.984375 28.609375 75.984375 
z
" id="DejaVuSans-102"/>
       <path d="M 18.3125 70.21875 
L 18.3125 54.6875 
L 36.8125 54.6875 
L 36.8125 47.703125 
L 18.3125 47.703125 
L 18.3125 18.015625 
Q 18.3125 11.328125 20.140625 9.421875 
Q 21.96875 7.515625 27.59375 7.515625 
L 36.8125 7.515625 
L 36.8125 0 
L 27.59375 0 
Q 17.1875 0 13.234375 3.875 
Q 9.28125 7.765625 9.28125 18.015625 
L 9.28125 47.703125 
L 2.6875 47.703125 
L 2.6875 54.6875 
L 9.28125 54.6875 
L 9.28125 70.21875 
z
" id="DejaVuSans-116"/>
       <path d="M 52 44.1875 
Q 55.375 50.25 60.0625 53.125 
Q 64.75 56 71.09375 56 
Q 79.640625 56 84.28125 50.015625 
Q 88.921875 44.046875 88.921875 33.015625 
L 88.921875 0 
L 79.890625 0 
L 79.890625 32.71875 
Q 79.890625 40.578125 77.09375 44.375 
Q 74.3125 48.1875 68.609375 48.1875 
Q 61.625 48.1875 57.5625 43.546875 
Q 53.515625 38.921875 53.515625 30.90625 
L 53.515625 0 
L 44.484375 0 
L 44.484375 32.71875 
Q 44.484375 40.625 41.703125 44.40625 
Q 38.921875 48.1875 33.109375 48.1875 
Q 26.21875 48.1875 22.15625 43.53125 
Q 18.109375 38.875 18.109375 30.90625 
L 18.109375 0 
L 9.078125 0 
L 9.078125 54.6875 
L 18.109375 54.6875 
L 18.109375 46.1875 
Q 21.1875 51.21875 25.484375 53.609375 
Q 29.78125 56 35.6875 56 
Q 41.65625 56 45.828125 52.96875 
Q 50 49.953125 52 44.1875 
z
" id="DejaVuSans-109"/>
       <path d="M 31 75.875 
Q 24.46875 64.65625 21.28125 53.65625 
Q 18.109375 42.671875 18.109375 31.390625 
Q 18.109375 20.125 21.3125 9.0625 
Q 24.515625 -2 31 -13.1875 
L 23.1875 -13.1875 
Q 15.875 -1.703125 12.234375 9.375 
Q 8.59375 20.453125 8.59375 31.390625 
Q 8.59375 42.28125 12.203125 53.3125 
Q 15.828125 64.359375 23.1875 75.875 
z
" id="DejaVuSans-40"/>
       <path d="M 8.5 21.578125 
L 8.5 54.6875 
L 17.484375 54.6875 
L 17.484375 21.921875 
Q 17.484375 14.15625 20.5 10.265625 
Q 23.53125 6.390625 29.59375 6.390625 
Q 36.859375 6.390625 41.078125 11.03125 
Q 45.3125 15.671875 45.3125 23.6875 
L 45.3125 54.6875 
L 54.296875 54.6875 
L 54.296875 0 
L 45.3125 0 
L 45.3125 8.40625 
Q 42.046875 3.421875 37.71875 1 
Q 33.40625 -1.421875 27.6875 -1.421875 
Q 18.265625 -1.421875 13.375 4.4375 
Q 8.5 10.296875 8.5 21.578125 
z
M 31.109375 56 
z
" id="DejaVuSans-117"/>
       <path d="M 44.28125 53.078125 
L 44.28125 44.578125 
Q 40.484375 46.53125 36.375 47.5 
Q 32.28125 48.484375 27.875 48.484375 
Q 21.1875 48.484375 17.84375 46.4375 
Q 14.5 44.390625 14.5 40.28125 
Q 14.5 37.15625 16.890625 35.375 
Q 19.28125 33.59375 26.515625 31.984375 
L 29.59375 31.296875 
Q 39.15625 29.25 43.1875 25.515625 
Q 47.21875 21.78125 47.21875 15.09375 
Q 47.21875 7.46875 41.1875 3.015625 
Q 35.15625 -1.421875 24.609375 -1.421875 
Q 20.21875 -1.421875 15.453125 -0.5625 
Q 10.6875 0.296875 5.421875 2 
L 5.421875 11.28125 
Q 10.40625 8.6875 15.234375 7.390625 
Q 20.0625 6.109375 24.8125 6.109375 
Q 31.15625 6.109375 34.5625 8.28125 
Q 37.984375 10.453125 37.984375 14.40625 
Q 37.984375 18.0625 35.515625 20.015625 
Q 33.0625 21.96875 24.703125 23.78125 
L 21.578125 24.515625 
Q 13.234375 26.265625 9.515625 29.90625 
Q 5.8125 33.546875 5.8125 39.890625 
Q 5.8125 47.609375 11.28125 51.796875 
Q 16.75 56 26.8125 56 
Q 31.78125 56 36.171875 55.265625 
Q 40.578125 54.546875 44.28125 53.078125 
z
" id="DejaVuSans-115"/>
       <path d="M 8.015625 75.875 
L 15.828125 75.875 
Q 23.140625 64.359375 26.78125 53.3125 
Q 30.421875 42.28125 30.421875 31.390625 
Q 30.421875 20.453125 26.78125 9.375 
Q 23.140625 -1.703125 15.828125 -13.1875 
L 8.015625 -13.1875 
Q 14.5 -2 17.703125 9.0625 
Q 20.90625 20.125 20.90625 31.390625 
Q 20.90625 42.671875 17.703125 53.65625 
Q 14.5 64.65625 8.015625 75.875 
z
" id="DejaVuSans-41"/>
      </defs>
      <use xlink:href="#DejaVuSans-77"/>
      <use x="86.279297" xlink:href="#DejaVuSans-101"/>
      <use x="147.802734" xlink:href="#DejaVuSans-97"/>
      <use x="209.082031" xlink:href="#DejaVuSans-110"/>
      <use x="272.460938" xlink:href="#DejaVuSans-32"/>
      <use x="304.248047" xlink:href="#DejaVuSans-108"/>
      <use x="332.03125" xlink:href="#DejaVuSans-105"/>
      <use x="359.814453" xlink:href="#DejaVuSans-102"/>
      <use x="395.019531" xlink:href="#DejaVuSans-101"/>
      <use x="456.542969" xlink:href="#DejaVuSans-116"/>
      <use x="495.751953" xlink:href="#DejaVuSans-105"/>
      <use x="523.535156" xlink:href="#DejaVuSans-109"/>
      <use x="620.947266" xlink:href="#DejaVuSans-101"/>
      <use x="682.470703" xlink:href="#DejaVuSans-32"/>
      <use x="714.257812" xlink:href="#DejaVuSans-40"/>
      <use x="753.271484" xlink:href="#DejaVuSans-117"/>
      <use x="816.650391" xlink:href="#DejaVuSans-115"/>
      <use x="868.75" xlink:href="#DejaVuSans-41"/>
     </g>
    </g>
   </g>
   <g id="matplotlib.axis_2">
    <g id="ytick_1">
     <g id="line2d_6">
      <defs>
       <path d="M 0 0 
L -3.5 0 
" id="mcae3bf6666" style="stroke:#000000;stroke-width:0.8;"/>
      </defs>
      <g>
       <use style="stroke:#000000;stroke-width:0.8;" x="47.554" xlink:href="#mcae3bf6666" y="145.136"/>
      </g>
     </g>
     <g id="text_7">
      <!-- 0 -->
      <g transform="translate(34.1915 148.935219)scale(0.1 -0.1)">
       <use xlink:href="#DejaVuSans-48"/>
      </g>
     </g>
    </g>
    <g id="ytick_2">
     <g id="line2d_7">
      <g>
       <use style="stroke:#000000;stroke-width:0.8;" x="47.554" xlink:href="#mcae3bf6666" y="123.381419"/>
      </g>
     </g>
     <g id="text_8">
      <!-- 100 -->
      <g transform="translate(21.4665 127.180638)scale(0.1 -0.1)">
       <use xlink:href="#DejaVuSans-49"/>
       <use x="63.623047" xlink:href="#DejaVuSans-48"/>
       <use x="127.246094" xlink:href="#DejaVuSans-48"/>
      </g>
     </g>
    </g>
    <g id="ytick_3">
     <g id="line2d_8">
      <g>
       <use style="stroke:#000000;stroke-width:0.8;" x="47.554" xlink:href="#mcae3bf6666" y="101.626839"/>
      </g>
     </g>
     <g id="text_9">
      <!-- 200 -->
      <g transform="translate(21.4665 105.426058)scale(0.1 -0.1)">
       <use xlink:href="#DejaVuSans-50"/>
       <use x="63.623047" xlink:href="#DejaVuSans-48"/>
       <use x="127.246094" xlink:href="#DejaVuSans-48"/>
      </g>
     </g>
    </g>
    <g id="ytick_4">
     <g id="line2d_9">
      <g>
       <use style="stroke:#000000;stroke-width:0.8;" x="47.554" xlink:href="#mcae3bf6666" y="79.872258"/>
      </g>
     </g>
     <g id="text_10">
      <!-- 300 -->
      <g transform="translate(21.4665 83.671477)scale(0.1 -0.1)">
       <defs>
        <path d="M 40.578125 39.3125 
Q 47.65625 37.796875 51.625 33 
Q 55.609375 28.21875 55.609375 21.1875 
Q 55.609375 10.40625 48.1875 4.484375 
Q 40.765625 -1.421875 27.09375 -1.421875 
Q 22.515625 -1.421875 17.65625 -0.515625 
Q 12.796875 0.390625 7.625 2.203125 
L 7.625 11.71875 
Q 11.71875 9.328125 16.59375 8.109375 
Q 21.484375 6.890625 26.8125 6.890625 
Q 36.078125 6.890625 40.9375 10.546875 
Q 45.796875 14.203125 45.796875 21.1875 
Q 45.796875 27.640625 41.28125 31.265625 
Q 36.765625 34.90625 28.71875 34.90625 
L 20.21875 34.90625 
L 20.21875 43.015625 
L 29.109375 43.015625 
Q 36.375 43.015625 40.234375 45.921875 
Q 44.09375 48.828125 44.09375 54.296875 
Q 44.09375 59.90625 40.109375 62.90625 
Q 36.140625 65.921875 28.71875 65.921875 
Q 24.65625 65.921875 20.015625 65.03125 
Q 15.375 64.15625 9.8125 62.3125 
L 9.8125 71.09375 
Q 15.4375 72.65625 20.34375 73.4375 
Q 25.25 74.21875 29.59375 74.21875 
Q 40.828125 74.21875 47.359375 69.109375 
Q 53.90625 64.015625 53.90625 55.328125 
Q 53.90625 49.265625 50.4375 45.09375 
Q 46.96875 40.921875 40.578125 39.3125 
z
" id="DejaVuSans-51"/>
       </defs>
       <use xlink:href="#DejaVuSans-51"/>
       <use x="63.623047" xlink:href="#DejaVuSans-48"/>
       <use x="127.246094" xlink:href="#DejaVuSans-48"/>
      </g>
     </g>
    </g>
    <g id="ytick_5">
     <g id="line2d_10">
      <g>
       <use style="stroke:#000000;stroke-width:0.8;" x="47.554" xlink:href="#mcae3bf6666" y="58.117678"/>
      </g>
     </g>
     <g id="text_11">
      <!-- 400 -->
      <g transform="translate(21.4665 61.916896)scale(0.1 -0.1)">
       <use xlink:href="#DejaVuSans-52"/>
       <use x="63.623047" xlink:href="#DejaVuSans-48"/>
       <use x="127.246094" xlink:href="#DejaVuSans-48"/>
      </g>
     </g>
    </g>
    <g id="ytick_6">
     <g id="line2d_11">
      <g>
       <use style="stroke:#000000;stroke-width:0.8;" x="47.554" xlink:href="#mcae3bf6666" y="36.363097"/>
      </g>
     </g>
     <g id="text_12">
      <!-- 500 -->
      <g transform="translate(21.4665 40.162316)scale(0.1 -0.1)">
       <defs>
        <path d="M 10.796875 72.90625 
L 49.515625 72.90625 
L 49.515625 64.59375 
L 19.828125 64.59375 
L 19.828125 46.734375 
Q 21.96875 47.46875 24.109375 47.828125 
Q 26.265625 48.1875 28.421875 48.1875 
Q 40.625 48.1875 47.75 41.5 
Q 54.890625 34.8125 54.890625 23.390625 
Q 54.890625 11.625 47.5625 5.09375 
Q 40.234375 -1.421875 26.90625 -1.421875 
Q 22.3125 -1.421875 17.546875 -0.640625 
Q 12.796875 0.140625 7.71875 1.703125 
L 7.71875 11.625 
Q 12.109375 9.234375 16.796875 8.0625 
Q 21.484375 6.890625 26.703125 6.890625 
Q 35.15625 6.890625 40.078125 11.328125 
Q 45.015625 15.765625 45.015625 23.390625 
Q 45.015625 31 40.078125 35.4375 
Q 35.15625 39.890625 26.703125 39.890625 
Q 22.75 39.890625 18.8125 39.015625 
Q 14.890625 38.140625 10.796875 36.28125 
z
" id="DejaVuSans-53"/>
       </defs>
       <use xlink:href="#DejaVuSans-53"/>
       <use x="63.623047" xlink:href="#DejaVuSans-48"/>
       <use x="127.246094" xlink:href="#DejaVuSans-48"/>
      </g>
     </g>
    </g>
    <g id="text_13">
     <!-- Number of decays -->
     <g transform="translate(15.386812 125.659719)rotate(-90)scale(0.1 -0.1)">
      <defs>
       <path d="M 9.8125 72.90625 
L 23.09375 72.90625 
L 55.421875 11.921875 
L 55.421875 72.90625 
L 64.984375 72.90625 
L 64.984375 0 
L 51.703125 0 
L 19.390625 60.984375 
L 19.390625 0 
L 9.8125 0 
z
" id="DejaVuSans-78"/>
       <path d="M 48.6875 27.296875 
Q 48.6875 37.203125 44.609375 42.84375 
Q 40.53125 48.484375 33.40625 48.484375 
Q 26.265625 48.484375 22.1875 42.84375 
Q 18.109375 37.203125 18.109375 27.296875 
Q 18.109375 17.390625 22.1875 11.75 
Q 26.265625 6.109375 33.40625 6.109375 
Q 40.53125 6.109375 44.609375 11.75 
Q 48.6875 17.390625 48.6875 27.296875 
z
M 18.109375 46.390625 
Q 20.953125 51.265625 25.265625 53.625 
Q 29.59375 56 35.59375 56 
Q 45.5625 56 51.78125 48.09375 
Q 58.015625 40.1875 58.015625 27.296875 
Q 58.015625 14.40625 51.78125 6.484375 
Q 45.5625 -1.421875 35.59375 -1.421875 
Q 29.59375 -1.421875 25.265625 0.953125 
Q 20.953125 3.328125 18.109375 8.203125 
L 18.109375 0 
L 9.078125 0 
L 9.078125 75.984375 
L 18.109375 75.984375 
z
" id="DejaVuSans-98"/>
       <path d="M 41.109375 46.296875 
Q 39.59375 47.171875 37.8125 47.578125 
Q 36.03125 48 33.890625 48 
Q 26.265625 48 22.1875 43.046875 
Q 18.109375 38.09375 18.109375 28.8125 
L 18.109375 0 
L 9.078125 0 
L 9.078125 54.6875 
L 18.109375 54.6875 
L 18.109375 46.1875 
Q 20.953125 51.171875 25.484375 53.578125 
Q 30.03125 56 36.53125 56 
Q 37.453125 56 38.578125 55.875 
Q 39.703125 55.765625 41.0625 55.515625 
z
" id="DejaVuSans-114"/>
       <path d="M 30.609375 48.390625 
Q 23.390625 48.390625 19.1875 42.75 
Q 14.984375 37.109375 14.984375 27.296875 
Q 14.984375 17.484375 19.15625 11.84375 
Q 23.34375 6.203125 30.609375 6.203125 
Q 37.796875 6.203125 41.984375 11.859375 
Q 46.1875 17.53125 46.1875 27.296875 
Q 46.1875 37.015625 41.984375 42.703125 
Q 37.796875 48.390625 30.609375 48.390625 
z
M 30.609375 56 
Q 42.328125 56 49.015625 48.375 
Q 55.71875 40.765625 55.71875 27.296875 
Q 55.71875 13.875 49.015625 6.21875 
Q 42.328125 -1.421875 30.609375 -1.421875 
Q 18.84375 -1.421875 12.171875 6.21875 
Q 5.515625 13.875 5.515625 27.296875 
Q 5.515625 40.765625 12.171875 48.375 
Q 18.84375 56 30.609375 56 
z
" id="DejaVuSans-111"/>
       <path d="M 45.40625 46.390625 
L 45.40625 75.984375 
L 54.390625 75.984375 
L 54.390625 0 
L 45.40625 0 
L 45.40625 8.203125 
Q 42.578125 3.328125 38.25 0.953125 
Q 33.9375 -1.421875 27.875 -1.421875 
Q 17.96875 -1.421875 11.734375 6.484375 
Q 5.515625 14.40625 5.515625 27.296875 
Q 5.515625 40.1875 11.734375 48.09375 
Q 17.96875 56 27.875 56 
Q 33.9375 56 38.25 53.625 
Q 42.578125 51.265625 45.40625 46.390625 
z
M 14.796875 27.296875 
Q 14.796875 17.390625 18.875 11.75 
Q 22.953125 6.109375 30.078125 6.109375 
Q 37.203125 6.109375 41.296875 11.75 
Q 45.40625 17.390625 45.40625 27.296875 
Q 45.40625 37.203125 41.296875 42.84375 
Q 37.203125 48.484375 30.078125 48.484375 
Q 22.953125 48.484375 18.875 42.84375 
Q 14.796875 37.203125 14.796875 27.296875 
z
" id="DejaVuSans-100"/>
       <path d="M 48.78125 52.59375 
L 48.78125 44.1875 
Q 44.96875 46.296875 41.140625 47.34375 
Q 37.3125 48.390625 33.40625 48.390625 
Q 24.65625 48.390625 19.8125 42.84375 
Q 14.984375 37.3125 14.984375 27.296875 
Q 14.984375 17.28125 19.8125 11.734375 
Q 24.65625 6.203125 33.40625 6.203125 
Q 37.3125 6.203125 41.140625 7.25 
Q 44.96875 8.296875 48.78125 10.40625 
L 48.78125 2.09375 
Q 45.015625 0.34375 40.984375 -0.53125 
Q 36.96875 -1.421875 32.421875 -1.421875 
Q 20.0625 -1.421875 12.78125 6.34375 
Q 5.515625 14.109375 5.515625 27.296875 
Q 5.515625 40.671875 12.859375 48.328125 
Q 20.21875 56 33.015625 56 
Q 37.15625 56 41.109375 55.140625 
Q 45.0625 54.296875 48.78125 52.59375 
z
" id="DejaVuSans-99"/>
       <path d="M 32.171875 -5.078125 
Q 28.375 -14.84375 24.75 -17.8125 
Q 21.140625 -20.796875 15.09375 -20.796875 
L 7.90625 -20.796875 
L 7.90625 -13.28125 
L 13.1875 -13.28125 
Q 16.890625 -13.28125 18.9375 -11.515625 
Q 21 -9.765625 23.484375 -3.21875 
L 25.09375 0.875 
L 2.984375 54.6875 
L 12.5 54.6875 
L 29.59375 11.921875 
L 46.6875 54.6875 
L 56.203125 54.6875 
z
" id="DejaVuSans-121"/>
      </defs>
      <use xlink:href="#DejaVuSans-78"/>
      <use x="74.804688" xlink:href="#DejaVuSans-117"/>
      <use x="138.183594" xlink:href="#DejaVuSans-109"/>
      <use x="235.595703" xlink:href="#DejaVuSans-98"/>
      <use x="299.072266" xlink:href="#DejaVuSans-101"/>
      <use x="360.595703" xlink:href="#DejaVuSans-114"/>
      <use x="401.708984" xlink:href="#DejaVuSans-32"/>
      <use x="433.496094" xlink:href="#DejaVuSans-111"/>
      <use x="494.677734" xlink:href="#DejaVuSans-102"/>
      <use x="529.882812" xlink:href="#DejaVuSans-32"/>
      <use x="561.669922" xlink:href="#DejaVuSans-100"/>
      <use x="625.146484" xlink:href="#DejaVuSans-101"/>
      <use x="686.669922" xlink:href="#DejaVuSans-99"/>
      <use x="741.650391" xlink:href="#DejaVuSans-97"/>
      <use x="802.929688" xlink:href="#DejaVuSans-121"/>
      <use x="862.109375" xlink:href="#DejaVuSans-115"/>
     </g>
    </g>
   </g>
   <g id="line2d_12">
    <path clip-path="url(#p44f73d43a2)" d="M 65.484955 20.968381 
L 77.438924 50.489866 
L 89.392894 72.414811 
L 101.346864 88.697975 
L 113.300833 100.791116 
L 125.254803 109.77242 
L 137.208773 116.442634 
L 149.162742 121.396451 
L 161.116712 125.07554 
L 173.070682 127.807917 
L 185.024652 129.837193 
L 196.978621 131.34429 
L 208.932591 132.463577 
L 220.886561 133.294846 
L 232.84053 133.912212 
L 244.7945 134.370715 
L 256.74847 134.711235 
L 268.702439 134.964131 
L 280.656409 135.151952 
L 292.610379 135.291442 
L 304.564348 135.395039 
L 316.518318 135.471977 
L 328.472288 135.529118 
L 340.426258 135.571555 
L 352.380227 135.603072 
L 364.334197 135.626479 
L 376.288167 135.643863 
L 388.242136 135.656773 
L 400.196106 135.666362 
L 412.150076 135.673483 
L 424.104045 135.678771 
" style="fill:none;stroke:#ff8c00;stroke-linecap:square;stroke-width:2;"/>
   </g>
   <g id="patch_33">
    <path d="M 47.554 145.136 
L 47.554 14.76 
" style="fill:none;stroke:#000000;stroke-linecap:square;stroke-linejoin:miter;stroke-width:0.8;"/>
   </g>
   <g id="patch_34">
    <path d="M 442.035 145.136 
L 442.035 14.76 
" style="fill:none;stroke:#000000;stroke-linecap:square;stroke-linejoin:miter;stroke-width:0.8;"/>
   </g>
   <g id="patch_35">
    <path d="M 47.554 145.136 
L 442.035 145.136 
" style="fill:none;stroke:#000000;stroke-linecap:square;stroke-linejoin:miter;stroke-width:0.8;"/>
   </g>
   <g id="patch_36">
    <path d="M 47.554 14.76 
L 442.035 14.76 
" style="fill:none;stroke:#000000;stroke-linecap:square;stroke-linejoin:miter;stroke-width:0.8;"/>
   </g>
   <g id="text_14">
    <!-- $y = ae^{-\lambda x}+c$ -->
    <g transform="translate(198.018097 27.878811)scale(0.1 -0.1)">
     <defs>
      <path d="M 24.8125 -5.078125 
Q 18.5625 -15.578125 14.625 -18.1875 
Q 10.6875 -20.796875 4.59375 -20.796875 
L -2.484375 -20.796875 
L -0.984375 -13.28125 
L 4.203125 -13.28125 
Q 7.953125 -13.28125 10.59375 -11.234375 
Q 13.234375 -9.1875 16.5 -3.21875 
L 19.28125 2 
L 7.171875 54.6875 
L 16.703125 54.6875 
L 25.78125 12.796875 
L 50.875 54.6875 
L 60.296875 54.6875 
z
" id="DejaVuSans-Oblique-121"/>
      <path d="M 10.59375 45.40625 
L 73.1875 45.40625 
L 73.1875 37.203125 
L 10.59375 37.203125 
z
M 10.59375 25.484375 
L 73.1875 25.484375 
L 73.1875 17.1875 
L 10.59375 17.1875 
z
" id="DejaVuSans-61"/>
      <path d="M 53.71875 31.203125 
L 47.609375 0 
L 38.625 0 
L 40.28125 8.296875 
Q 36.328125 3.421875 31.265625 1 
Q 26.21875 -1.421875 20.015625 -1.421875 
Q 13.03125 -1.421875 8.5625 2.84375 
Q 4.109375 7.125 4.109375 13.8125 
Q 4.109375 23.390625 11.75 28.953125 
Q 19.390625 34.515625 32.8125 34.515625 
L 45.3125 34.515625 
L 45.796875 36.921875 
Q 45.90625 37.3125 45.953125 37.765625 
Q 46 38.234375 46 39.203125 
Q 46 43.5625 42.453125 45.96875 
Q 38.921875 48.390625 32.515625 48.390625 
Q 28.125 48.390625 23.5 47.265625 
Q 18.890625 46.140625 14.015625 43.890625 
L 15.578125 52.203125 
Q 20.65625 54.109375 25.515625 55.046875 
Q 30.375 56 34.90625 56 
Q 44.578125 56 49.625 51.796875 
Q 54.6875 47.609375 54.6875 39.59375 
Q 54.6875 37.984375 54.4375 35.8125 
Q 54.203125 33.640625 53.71875 31.203125 
z
M 44 27.484375 
L 35.015625 27.484375 
Q 23.96875 27.484375 18.671875 24.53125 
Q 13.375 21.578125 13.375 15.375 
Q 13.375 11.078125 16.078125 8.640625 
Q 18.796875 6.203125 23.578125 6.203125 
Q 30.90625 6.203125 36.375 11.453125 
Q 41.84375 16.703125 43.609375 25.484375 
z
" id="DejaVuSans-Oblique-97"/>
      <path d="M 48.09375 32.234375 
Q 48.25 33.015625 48.3125 33.84375 
Q 48.390625 34.671875 48.390625 35.5 
Q 48.390625 41.453125 44.890625 44.921875 
Q 41.40625 48.390625 35.40625 48.390625 
Q 28.71875 48.390625 23.578125 44.15625 
Q 18.453125 39.9375 15.828125 32.171875 
z
M 55.90625 25.203125 
L 14.109375 25.203125 
Q 13.8125 23.34375 13.71875 22.265625 
Q 13.625 21.1875 13.625 20.40625 
Q 13.625 13.625 17.796875 9.90625 
Q 21.96875 6.203125 29.59375 6.203125 
Q 35.453125 6.203125 40.671875 7.515625 
Q 45.90625 8.84375 50.390625 11.375 
L 48.6875 2.484375 
Q 43.84375 0.53125 38.6875 -0.4375 
Q 33.546875 -1.421875 28.21875 -1.421875 
Q 16.84375 -1.421875 10.71875 4.015625 
Q 4.59375 9.46875 4.59375 19.484375 
Q 4.59375 28.03125 7.640625 35.375 
Q 10.6875 42.71875 16.609375 48.484375 
Q 20.40625 52.09375 25.65625 54.046875 
Q 30.90625 56 36.8125 56 
Q 46.09375 56 51.578125 50.4375 
Q 57.078125 44.875 57.078125 35.5 
Q 57.078125 33.25 56.78125 30.6875 
Q 56.5 28.125 55.90625 25.203125 
z
" id="DejaVuSans-Oblique-101"/>
      <path d="M 10.59375 35.5 
L 73.1875 35.5 
L 73.1875 27.203125 
L 10.59375 27.203125 
z
" id="DejaVuSans-8722"/>
      <path d="M 36.71875 67.4375 
L 48.828125 0 
L 39.3125 0 
L 31.84375 40.4375 
L 5.125 0 
L -4.390625 0 
L 29.734375 52.4375 
L 28.03125 62.109375 
Q 26.953125 68.265625 21.734375 68.265625 
L 17.046875 68.265625 
L 18.5 75.984375 
L 24.21875 75.875 
Q 35.203125 75.734375 36.71875 67.4375 
z
" id="DejaVuSans-Oblique-955"/>
      <path d="M 60.015625 54.6875 
L 34.90625 27.875 
L 50.296875 0 
L 39.984375 0 
L 28.421875 21.6875 
L 8.296875 0 
L -2.59375 0 
L 24.3125 28.8125 
L 10.015625 54.6875 
L 20.3125 54.6875 
L 30.8125 34.90625 
L 49.125 54.6875 
z
" id="DejaVuSans-Oblique-120"/>
      <path d="M 46 62.703125 
L 46 35.5 
L 73.1875 35.5 
L 73.1875 27.203125 
L 46 27.203125 
L 46 0 
L 37.796875 0 
L 37.796875 27.203125 
L 10.59375 27.203125 
L 10.59375 35.5 
L 37.796875 35.5 
L 37.796875 62.703125 
z
" id="DejaVuSans-43"/>
      <path d="M 53.609375 52.59375 
L 51.8125 43.703125 
Q 48.578125 46.046875 44.9375 47.21875 
Q 41.3125 48.390625 37.40625 48.390625 
Q 33.109375 48.390625 29.21875 46.875 
Q 25.34375 45.359375 22.703125 42.578125 
Q 18.5 38.328125 16.203125 32.609375 
Q 13.921875 26.90625 13.921875 20.796875 
Q 13.921875 13.421875 17.609375 9.8125 
Q 21.296875 6.203125 28.8125 6.203125 
Q 32.515625 6.203125 36.6875 7.328125 
Q 40.875 8.453125 45.40625 10.6875 
L 43.703125 1.8125 
Q 39.796875 0.203125 35.671875 -0.609375 
Q 31.546875 -1.421875 27.203125 -1.421875 
Q 16.3125 -1.421875 10.453125 4.015625 
Q 4.59375 9.46875 4.59375 19.578125 
Q 4.59375 28.078125 7.640625 35.234375 
Q 10.6875 42.390625 16.703125 48.09375 
Q 20.796875 52 26.3125 54 
Q 31.84375 56 38.375 56 
Q 42.1875 56 45.9375 55.140625 
Q 49.703125 54.296875 53.609375 52.59375 
z
" id="DejaVuSans-Oblique-99"/>
     </defs>
     <use transform="translate(0 0.529687)" xlink:href="#DejaVuSans-Oblique-121"/>
     <use transform="translate(78.662109 0.529687)" xlink:href="#DejaVuSans-61"/>
     <use transform="translate(181.933594 0.529687)" xlink:href="#DejaVuSans-Oblique-97"/>
     <use transform="translate(243.212891 0.529687)" xlink:href="#DejaVuSans-Oblique-101"/>
     <use transform="translate(309.386224 38.810937)scale(0.7)" xlink:href="#DejaVuSans-8722"/>
     <use transform="translate(368.038568 38.810937)scale(0.7)" xlink:href="#DejaVuSans-Oblique-955"/>
     <use transform="translate(409.464349 38.810937)scale(0.7)" xlink:href="#DejaVuSans-Oblique-120"/>
     <use transform="translate(473.106927 0.529687)" xlink:href="#DejaVuSans-43"/>
     <use transform="translate(576.378411 0.529687)" xlink:href="#DejaVuSans-Oblique-99"/>
    </g>
   </g>
   <g id="text_15">
    <!-- $a = 1145.92; λ = 0.097; c = 43.4$ -->
    <g transform="translate(198.018097 40.931559)scale(0.1 -0.1)">
     <defs>
      <path d="M 10.6875 12.40625 
L 21 12.40625 
L 21 0 
L 10.6875 0 
z
" id="DejaVuSans-46"/>
      <path d="M 10.984375 1.515625 
L 10.984375 10.5 
Q 14.703125 8.734375 18.5 7.8125 
Q 22.3125 6.890625 25.984375 6.890625 
Q 35.75 6.890625 40.890625 13.453125 
Q 46.046875 20.015625 46.78125 33.40625 
Q 43.953125 29.203125 39.59375 26.953125 
Q 35.25 24.703125 29.984375 24.703125 
Q 19.046875 24.703125 12.671875 31.3125 
Q 6.296875 37.9375 6.296875 49.421875 
Q 6.296875 60.640625 12.9375 67.421875 
Q 19.578125 74.21875 30.609375 74.21875 
Q 43.265625 74.21875 49.921875 64.515625 
Q 56.59375 54.828125 56.59375 36.375 
Q 56.59375 19.140625 48.40625 8.859375 
Q 40.234375 -1.421875 26.421875 -1.421875 
Q 22.703125 -1.421875 18.890625 -0.6875 
Q 15.09375 0.046875 10.984375 1.515625 
z
M 30.609375 32.421875 
Q 37.25 32.421875 41.125 36.953125 
Q 45.015625 41.5 45.015625 49.421875 
Q 45.015625 57.28125 41.125 61.84375 
Q 37.25 66.40625 30.609375 66.40625 
Q 23.96875 66.40625 20.09375 61.84375 
Q 16.21875 57.28125 16.21875 49.421875 
Q 16.21875 41.5 20.09375 36.953125 
Q 23.96875 32.421875 30.609375 32.421875 
z
" id="DejaVuSans-57"/>
      <path d="M 11.71875 51.703125 
L 22.015625 51.703125 
L 22.015625 39.3125 
L 11.71875 39.3125 
z
M 11.71875 12.40625 
L 22.015625 12.40625 
L 22.015625 4 
L 14.015625 -11.625 
L 7.71875 -11.625 
L 11.71875 4 
z
" id="DejaVuSans-59"/>
      <path d="M 8.203125 72.90625 
L 55.078125 72.90625 
L 55.078125 68.703125 
L 28.609375 0 
L 18.3125 0 
L 43.21875 64.59375 
L 8.203125 64.59375 
z
" id="DejaVuSans-55"/>
     </defs>
     <use transform="translate(0 0.015625)" xlink:href="#DejaVuSans-Oblique-97"/>
     <use transform="translate(80.761719 0.015625)" xlink:href="#DejaVuSans-61"/>
     <use transform="translate(184.033203 0.015625)" xlink:href="#DejaVuSans-49"/>
     <use transform="translate(247.65625 0.015625)" xlink:href="#DejaVuSans-49"/>
     <use transform="translate(311.279297 0.015625)" xlink:href="#DejaVuSans-52"/>
     <use transform="translate(374.902344 0.015625)" xlink:href="#DejaVuSans-53"/>
     <use transform="translate(438.525391 0.015625)" xlink:href="#DejaVuSans-46"/>
     <use transform="translate(470.3125 0.015625)" xlink:href="#DejaVuSans-57"/>
     <use transform="translate(532.185547 0.015625)" xlink:href="#DejaVuSans-50"/>
     <use transform="translate(595.808594 0.015625)" xlink:href="#DejaVuSans-59"/>
     <use transform="translate(648.982422 0.015625)" xlink:href="#DejaVuSans-Oblique-955"/>
     <use transform="translate(727.644531 0.015625)" xlink:href="#DejaVuSans-61"/>
     <use transform="translate(830.916016 0.015625)" xlink:href="#DejaVuSans-48"/>
     <use transform="translate(894.539062 0.015625)" xlink:href="#DejaVuSans-46"/>
     <use transform="translate(926.326172 0.015625)" xlink:href="#DejaVuSans-48"/>
     <use transform="translate(989.949219 0.015625)" xlink:href="#DejaVuSans-57"/>
     <use transform="translate(1053.572266 0.015625)" xlink:href="#DejaVuSans-55"/>
     <use transform="translate(1117.195312 0.015625)" xlink:href="#DejaVuSans-59"/>
     <use transform="translate(1170.369141 0.015625)" xlink:href="#DejaVuSans-Oblique-99"/>
     <use transform="translate(1244.832031 0.015625)" xlink:href="#DejaVuSans-61"/>
     <use transform="translate(1348.103516 0.015625)" xlink:href="#DejaVuSans-52"/>
     <use transform="translate(1411.726562 0.015625)" xlink:href="#DejaVuSans-51"/>
     <use transform="translate(1475.349609 0.015625)" xlink:href="#DejaVuSans-46"/>
     <use transform="translate(1507.136719 0.015625)" xlink:href="#DejaVuSans-52"/>
    </g>
   </g>
   <g id="text_16">
    <!-- $σ_a = 98.37; σ_λ = 0.0067; σ_c = 4.8$ -->
    <g transform="translate(198.018097 53.766761)scale(0.1 -0.1)">
     <defs>
      <path d="M 34.671875 47.5625 
Q 27.25 47.5625 22.21875 42.1875 
Q 16.890625 36.578125 15.140625 27.296875 
Q 13.1875 17.484375 16.3125 11.8125 
Q 19.390625 6.203125 26.65625 6.203125 
Q 33.84375 6.203125 39.109375 11.859375 
Q 44.4375 17.53125 46.34375 27.296875 
Q 48.046875 36.234375 45.015625 42.1875 
Q 42.1875 47.5625 34.671875 47.5625 
z
M 36.078125 54.734375 
L 65.921875 54.6875 
L 64.15625 45.703125 
L 54.109375 45.703125 
Q 57.90625 38.09375 55.859375 27.296875 
Q 53.21875 13.875 45.0625 6.25 
Q 36.859375 -1.421875 25.140625 -1.421875 
Q 13.375 -1.421875 8.203125 6.25 
Q 3.03125 13.875 5.671875 27.296875 
Q 8.25 40.765625 16.40625 48.390625 
Q 23.1875 54.734375 36.078125 54.734375 
z
" id="DejaVuSans-Oblique-963"/>
     </defs>
     <use transform="translate(0 0.78125)" xlink:href="#DejaVuSans-Oblique-963"/>
     <use transform="translate(63.378906 -15.625)scale(0.7)" xlink:href="#DejaVuSans-Oblique-97"/>
     <use transform="translate(128.491211 0.78125)" xlink:href="#DejaVuSans-61"/>
     <use transform="translate(231.762695 0.78125)" xlink:href="#DejaVuSans-57"/>
     <use transform="translate(295.385742 0.78125)" xlink:href="#DejaVuSans-56"/>
     <use transform="translate(359.008789 0.78125)" xlink:href="#DejaVuSans-46"/>
     <use transform="translate(390.795898 0.78125)" xlink:href="#DejaVuSans-51"/>
     <use transform="translate(454.418945 0.78125)" xlink:href="#DejaVuSans-55"/>
     <use transform="translate(518.041992 0.78125)" xlink:href="#DejaVuSans-59"/>
     <use transform="translate(571.21582 0.78125)" xlink:href="#DejaVuSans-Oblique-963"/>
     <use transform="translate(634.594727 -15.625)scale(0.7)" xlink:href="#DejaVuSans-Oblique-955"/>
     <use transform="translate(698.237305 0.78125)" xlink:href="#DejaVuSans-61"/>
     <use transform="translate(801.508789 0.78125)" xlink:href="#DejaVuSans-48"/>
     <use transform="translate(865.131836 0.78125)" xlink:href="#DejaVuSans-46"/>
     <use transform="translate(896.918945 0.78125)" xlink:href="#DejaVuSans-48"/>
     <use transform="translate(960.541992 0.78125)" xlink:href="#DejaVuSans-48"/>
     <use transform="translate(1024.165039 0.78125)" xlink:href="#DejaVuSans-54"/>
     <use transform="translate(1087.788086 0.78125)" xlink:href="#DejaVuSans-55"/>
     <use transform="translate(1151.411133 0.78125)" xlink:href="#DejaVuSans-59"/>
     <use transform="translate(1204.584961 0.78125)" xlink:href="#DejaVuSans-Oblique-963"/>
     <use transform="translate(1267.963867 -15.625)scale(0.7)" xlink:href="#DejaVuSans-Oblique-99"/>
     <use transform="translate(1328.666992 0.78125)" xlink:href="#DejaVuSans-61"/>
     <use transform="translate(1431.938477 0.78125)" xlink:href="#DejaVuSans-52"/>
     <use transform="translate(1495.561523 0.78125)" xlink:href="#DejaVuSans-46"/>
     <use transform="translate(1524.723633 0.78125)" xlink:href="#DejaVuSans-56"/>
    </g>
   </g>
  </g>
  <g id="axes_2">
   <g id="patch_37">
    <path d="M 47.554 307.352 
L 442.035 307.352 
L 442.035 176.976 
L 47.554 176.976 
z
" style="fill:#ffffff;"/>
   </g>
   <g id="patch_38">
    <path clip-path="url(#p4d14542619)" d="M 65.484955 35439.363433 
L 69.071145 35439.363433 
L 69.071145 182.902182 
L 65.484955 182.902182 
z
" style="fill:#1f77b4;"/>
   </g>
   <g id="patch_39">
    <path clip-path="url(#p4d14542619)" d="M 69.071145 35439.363433 
L 72.657336 35439.363433 
L 72.657336 233.993372 
L 69.071145 233.993372 
z
" style="fill:#1f77b4;"/>
   </g>
   <g id="patch_40">
    <path clip-path="url(#p4d14542619)" d="M 72.657336 35439.363433 
L 76.243527 35439.363433 
L 76.243527 246.322444 
L 72.657336 246.322444 
z
" style="fill:#1f77b4;"/>
   </g>
   <g id="patch_41">
    <path clip-path="url(#p4d14542619)" d="M 76.243527 35439.363433 
L 79.829718 35439.363433 
L 79.829718 249.522824 
L 76.243527 249.522824 
z
" style="fill:#1f77b4;"/>
   </g>
   <g id="patch_42">
    <path clip-path="url(#p4d14542619)" d="M 79.829718 35439.363433 
L 83.415909 35439.363433 
L 83.415909 244.029105 
L 79.829718 244.029105 
z
" style="fill:#1f77b4;"/>
   </g>
   <g id="patch_43">
    <path clip-path="url(#p4d14542619)" d="M 83.415909 35439.363433 
L 87.0021 35439.363433 
L 87.0021 249.022444 
L 83.415909 249.022444 
z
" style="fill:#1f77b4;"/>
   </g>
   <g id="patch_44">
    <path clip-path="url(#p4d14542619)" d="M 87.0021 35439.363433 
L 90.588291 35439.363433 
L 90.588291 249.022444 
L 87.0021 249.022444 
z
" style="fill:#1f77b4;"/>
   </g>
   <g id="patch_45">
    <path clip-path="url(#p4d14542619)" d="M 90.588291 35439.363433 
L 94.174482 35439.363433 
L 94.174482 254.965759 
L 90.588291 254.965759 
z
" style="fill:#1f77b4;"/>
   </g>
   <g id="patch_46">
    <path clip-path="url(#p4d14542619)" d="M 94.174482 35439.363433 
L 97.760673 35439.363433 
L 97.760673 251.130648 
L 94.174482 251.130648 
z
" style="fill:#1f77b4;"/>
   </g>
   <g id="patch_47">
    <path clip-path="url(#p4d14542619)" d="M 97.760673 35439.363433 
L 101.346864 35439.363433 
L 101.346864 247.170452 
L 97.760673 247.170452 
z
" style="fill:#1f77b4;"/>
   </g>
   <g id="patch_48">
    <path clip-path="url(#p4d14542619)" d="M 101.346864 35439.363433 
L 104.933055 35439.363433 
L 104.933055 266.287881 
L 101.346864 266.287881 
z
" style="fill:#1f77b4;"/>
   </g>
   <g id="patch_49">
    <path clip-path="url(#p4d14542619)" d="M 104.933055 35439.363433 
L 108.519245 35439.363433 
L 108.519245 257.318131 
L 104.933055 257.318131 
z
" style="fill:#1f77b4;"/>
   </g>
   <g id="patch_50">
    <path clip-path="url(#p4d14542619)" d="M 108.519245 35439.363433 
L 112.105436 35439.363433 
L 112.105436 263.505615 
L 108.519245 263.505615 
z
" style="fill:#1f77b4;"/>
   </g>
   <g id="patch_51">
    <path clip-path="url(#p4d14542619)" d="M 112.105436 35439.363433 
L 115.691627 35439.363433 
L 115.691627 262.284146 
L 112.105436 262.284146 
z
" style="fill:#1f77b4;"/>
   </g>
   <g id="patch_52">
    <path clip-path="url(#p4d14542619)" d="M 115.691627 35439.363433 
L 119.277818 35439.363433 
L 119.277818 261.153243 
L 115.691627 261.153243 
z
" style="fill:#1f77b4;"/>
   </g>
   <g id="patch_53">
    <path clip-path="url(#p4d14542619)" d="M 119.277818 35439.363433 
L 122.864009 35439.363433 
L 122.864009 263.505615 
L 119.277818 263.505615 
z
" style="fill:#1f77b4;"/>
   </g>
   <g id="patch_54">
    <path clip-path="url(#p4d14542619)" d="M 122.864009 35439.363433 
L 126.4502 35439.363433 
L 126.4502 261.153243 
L 122.864009 261.153243 
z
" style="fill:#1f77b4;"/>
   </g>
   <g id="patch_55">
    <path clip-path="url(#p4d14542619)" d="M 126.4502 35439.363433 
L 130.036391 35439.363433 
L 130.036391 257.318131 
L 126.4502 257.318131 
z
" style="fill:#1f77b4;"/>
   </g>
   <g id="patch_56">
    <path clip-path="url(#p4d14542619)" d="M 130.036391 35439.363433 
L 133.622582 35439.363433 
L 133.622582 267.895704 
L 130.036391 267.895704 
z
" style="fill:#1f77b4;"/>
   </g>
   <g id="patch_57">
    <path clip-path="url(#p4d14542619)" d="M 133.622582 35439.363433 
L 137.208773 35439.363433 
L 137.208773 263.505615 
L 133.622582 263.505615 
z
" style="fill:#1f77b4;"/>
   </g>
   <g id="patch_58">
    <path clip-path="url(#p4d14542619)" d="M 137.208773 35439.363433 
L 140.794964 35439.363433 
L 140.794964 259.115525 
L 137.208773 259.115525 
z
" style="fill:#1f77b4;"/>
   </g>
   <g id="patch_59">
    <path clip-path="url(#p4d14542619)" d="M 140.794964 35439.363433 
L 144.381155 35439.363433 
L 144.381155 269.693099 
L 140.794964 269.693099 
z
" style="fill:#1f77b4;"/>
   </g>
   <g id="patch_60">
    <path clip-path="url(#p4d14542619)" d="M 144.381155 35439.363433 
L 147.967345 35439.363433 
L 147.967345 271.730816 
L 144.381155 271.730816 
z
" style="fill:#1f77b4;"/>
   </g>
   <g id="patch_61">
    <path clip-path="url(#p4d14542619)" d="M 147.967345 35439.363433 
L 151.553536 35439.363433 
L 151.553536 274.083188 
L 147.967345 274.083188 
z
" style="fill:#1f77b4;"/>
   </g>
   <g id="patch_62">
    <path clip-path="url(#p4d14542619)" d="M 151.553536 35439.363433 
L 155.139727 35439.363433 
L 155.139727 262.284146 
L 151.553536 262.284146 
z
" style="fill:#1f77b4;"/>
   </g>
   <g id="patch_63">
    <path clip-path="url(#p4d14542619)" d="M 155.139727 35439.363433 
L 158.725918 35439.363433 
L 158.725918 264.833427 
L 155.139727 264.833427 
z
" style="fill:#1f77b4;"/>
   </g>
   <g id="patch_64">
    <path clip-path="url(#p4d14542619)" d="M 158.725918 35439.363433 
L 162.312109 35439.363433 
L 162.312109 266.287881 
L 158.725918 266.287881 
z
" style="fill:#1f77b4;"/>
   </g>
   <g id="patch_65">
    <path clip-path="url(#p4d14542619)" d="M 162.312109 35439.363433 
L 165.8983 35439.363433 
L 165.8983 271.730816 
L 162.312109 271.730816 
z
" style="fill:#1f77b4;"/>
   </g>
   <g id="patch_66">
    <path clip-path="url(#p4d14542619)" d="M 165.8983 35439.363433 
L 169.484491 35439.363433 
L 169.484491 263.505615 
L 165.8983 263.505615 
z
" style="fill:#1f77b4;"/>
   </g>
   <g id="patch_67">
    <path clip-path="url(#p4d14542619)" d="M 169.484491 35439.363433 
L 173.070682 35439.363433 
L 173.070682 280.270672 
L 169.484491 280.270672 
z
" style="fill:#1f77b4;"/>
   </g>
   <g id="patch_68">
    <path clip-path="url(#p4d14542619)" d="M 173.070682 35439.363433 
L 176.656873 35439.363433 
L 176.656873 269.693099 
L 173.070682 269.693099 
z
" style="fill:#1f77b4;"/>
   </g>
   <g id="patch_69">
    <path clip-path="url(#p4d14542619)" d="M 176.656873 35439.363433 
L 180.243064 35439.363433 
L 180.243064 276.865454 
L 176.656873 276.865454 
z
" style="fill:#1f77b4;"/>
   </g>
   <g id="patch_70">
    <path clip-path="url(#p4d14542619)" d="M 180.243064 35439.363433 
L 183.829255 35439.363433 
L 183.829255 263.505615 
L 180.243064 263.505615 
z
" style="fill:#1f77b4;"/>
   </g>
   <g id="patch_71">
    <path clip-path="url(#p4d14542619)" d="M 183.829255 35439.363433 
L 187.415445 35439.363433 
L 187.415445 35439.363433 
L 183.829255 35439.363433 
z
" style="fill:#1f77b4;"/>
   </g>
   <g id="patch_72">
    <path clip-path="url(#p4d14542619)" d="M 187.415445 35439.363433 
L 191.001636 35439.363433 
L 191.001636 271.730816 
L 187.415445 271.730816 
z
" style="fill:#1f77b4;"/>
   </g>
   <g id="patch_73">
    <path clip-path="url(#p4d14542619)" d="M 191.001636 35439.363433 
L 194.587827 35439.363433 
L 194.587827 284.660761 
L 191.001636 284.660761 
z
" style="fill:#1f77b4;"/>
   </g>
   <g id="patch_74">
    <path clip-path="url(#p4d14542619)" d="M 194.587827 35439.363433 
L 198.174018 35439.363433 
L 198.174018 266.287881 
L 194.587827 266.287881 
z
" style="fill:#1f77b4;"/>
   </g>
   <g id="patch_75">
    <path clip-path="url(#p4d14542619)" d="M 198.174018 35439.363433 
L 201.760209 35439.363433 
L 201.760209 274.083188 
L 198.174018 274.083188 
z
" style="fill:#1f77b4;"/>
   </g>
   <g id="patch_76">
    <path clip-path="url(#p4d14542619)" d="M 201.760209 35439.363433 
L 205.3464 35439.363433 
L 205.3464 274.083188 
L 201.760209 274.083188 
z
" style="fill:#1f77b4;"/>
   </g>
   <g id="patch_77">
    <path clip-path="url(#p4d14542619)" d="M 205.3464 35439.363433 
L 208.932591 35439.363433 
L 208.932591 280.270672 
L 205.3464 280.270672 
z
" style="fill:#1f77b4;"/>
   </g>
   <g id="patch_78">
    <path clip-path="url(#p4d14542619)" d="M 208.932591 35439.363433 
L 212.518782 35439.363433 
L 212.518782 274.083188 
L 208.932591 274.083188 
z
" style="fill:#1f77b4;"/>
   </g>
   <g id="patch_79">
    <path clip-path="url(#p4d14542619)" d="M 212.518782 35439.363433 
L 216.104973 35439.363433 
L 216.104973 284.660761 
L 212.518782 284.660761 
z
" style="fill:#1f77b4;"/>
   </g>
   <g id="patch_80">
    <path clip-path="url(#p4d14542619)" d="M 216.104973 35439.363433 
L 219.691164 35439.363433 
L 219.691164 271.730816 
L 216.104973 271.730816 
z
" style="fill:#1f77b4;"/>
   </g>
   <g id="patch_81">
    <path clip-path="url(#p4d14542619)" d="M 219.691164 35439.363433 
L 223.277355 35439.363433 
L 223.277355 267.895704 
L 219.691164 267.895704 
z
" style="fill:#1f77b4;"/>
   </g>
   <g id="patch_82">
    <path clip-path="url(#p4d14542619)" d="M 223.277355 35439.363433 
L 226.863545 35439.363433 
L 226.863545 280.270672 
L 223.277355 280.270672 
z
" style="fill:#1f77b4;"/>
   </g>
   <g id="patch_83">
    <path clip-path="url(#p4d14542619)" d="M 226.863545 35439.363433 
L 230.449736 35439.363433 
L 230.449736 280.270672 
L 226.863545 280.270672 
z
" style="fill:#1f77b4;"/>
   </g>
   <g id="patch_84">
    <path clip-path="url(#p4d14542619)" d="M 230.449736 35439.363433 
L 234.035927 35439.363433 
L 234.035927 280.270672 
L 230.449736 280.270672 
z
" style="fill:#1f77b4;"/>
   </g>
   <g id="patch_85">
    <path clip-path="url(#p4d14542619)" d="M 234.035927 35439.363433 
L 237.622118 35439.363433 
L 237.622118 276.865454 
L 234.035927 276.865454 
z
" style="fill:#1f77b4;"/>
   </g>
   <g id="patch_86">
    <path clip-path="url(#p4d14542619)" d="M 237.622118 35439.363433 
L 241.208309 35439.363433 
L 241.208309 284.660761 
L 237.622118 284.660761 
z
" style="fill:#1f77b4;"/>
   </g>
   <g id="patch_87">
    <path clip-path="url(#p4d14542619)" d="M 241.208309 35439.363433 
L 244.7945 35439.363433 
L 244.7945 290.848245 
L 241.208309 290.848245 
z
" style="fill:#1f77b4;"/>
   </g>
   <g id="patch_88">
    <path clip-path="url(#p4d14542619)" d="M 244.7945 35439.363433 
L 248.380691 35439.363433 
L 248.380691 269.693099 
L 244.7945 269.693099 
z
" style="fill:#1f77b4;"/>
   </g>
   <g id="patch_89">
    <path clip-path="url(#p4d14542619)" d="M 248.380691 35439.363433 
L 251.966882 35439.363433 
L 251.966882 290.848245 
L 248.380691 290.848245 
z
" style="fill:#1f77b4;"/>
   </g>
   <g id="patch_90">
    <path clip-path="url(#p4d14542619)" d="M 251.966882 35439.363433 
L 255.553073 35439.363433 
L 255.553073 35439.363433 
L 251.966882 35439.363433 
z
" style="fill:#1f77b4;"/>
   </g>
   <g id="patch_91">
    <path clip-path="url(#p4d14542619)" d="M 255.553073 35439.363433 
L 259.139264 35439.363433 
L 259.139264 269.693099 
L 255.553073 269.693099 
z
" style="fill:#1f77b4;"/>
   </g>
   <g id="patch_92">
    <path clip-path="url(#p4d14542619)" d="M 259.139264 35439.363433 
L 262.725455 35439.363433 
L 262.725455 276.865454 
L 259.139264 276.865454 
z
" style="fill:#1f77b4;"/>
   </g>
   <g id="patch_93">
    <path clip-path="url(#p4d14542619)" d="M 262.725455 35439.363433 
L 266.311645 35439.363433 
L 266.311645 301.425818 
L 262.725455 301.425818 
z
" style="fill:#1f77b4;"/>
   </g>
   <g id="patch_94">
    <path clip-path="url(#p4d14542619)" d="M 266.311645 35439.363433 
L 269.897836 35439.363433 
L 269.897836 271.730816 
L 266.311645 271.730816 
z
" style="fill:#1f77b4;"/>
   </g>
   <g id="patch_95">
    <path clip-path="url(#p4d14542619)" d="M 269.897836 35439.363433 
L 273.484027 35439.363433 
L 273.484027 290.848245 
L 269.897836 290.848245 
z
" style="fill:#1f77b4;"/>
   </g>
   <g id="patch_96">
    <path clip-path="url(#p4d14542619)" d="M 273.484027 35439.363433 
L 277.070218 35439.363433 
L 277.070218 290.848245 
L 273.484027 290.848245 
z
" style="fill:#1f77b4;"/>
   </g>
   <g id="patch_97">
    <path clip-path="url(#p4d14542619)" d="M 277.070218 35439.363433 
L 280.656409 35439.363433 
L 280.656409 276.865454 
L 277.070218 276.865454 
z
" style="fill:#1f77b4;"/>
   </g>
   <g id="patch_98">
    <path clip-path="url(#p4d14542619)" d="M 280.656409 35439.363433 
L 284.2426 35439.363433 
L 284.2426 280.270672 
L 280.656409 280.270672 
z
" style="fill:#1f77b4;"/>
   </g>
   <g id="patch_99">
    <path clip-path="url(#p4d14542619)" d="M 284.2426 35439.363433 
L 287.828791 35439.363433 
L 287.828791 276.865454 
L 284.2426 276.865454 
z
" style="fill:#1f77b4;"/>
   </g>
   <g id="patch_100">
    <path clip-path="url(#p4d14542619)" d="M 287.828791 35439.363433 
L 291.414982 35439.363433 
L 291.414982 274.083188 
L 287.828791 274.083188 
z
" style="fill:#1f77b4;"/>
   </g>
   <g id="patch_101">
    <path clip-path="url(#p4d14542619)" d="M 291.414982 35439.363433 
L 295.001173 35439.363433 
L 295.001173 276.865454 
L 291.414982 276.865454 
z
" style="fill:#1f77b4;"/>
   </g>
   <g id="patch_102">
    <path clip-path="url(#p4d14542619)" d="M 295.001173 35439.363433 
L 298.587364 35439.363433 
L 298.587364 280.270672 
L 295.001173 280.270672 
z
" style="fill:#1f77b4;"/>
   </g>
   <g id="patch_103">
    <path clip-path="url(#p4d14542619)" d="M 298.587364 35439.363433 
L 302.173555 35439.363433 
L 302.173555 276.865454 
L 298.587364 276.865454 
z
" style="fill:#1f77b4;"/>
   </g>
   <g id="patch_104">
    <path clip-path="url(#p4d14542619)" d="M 302.173555 35439.363433 
L 305.759745 35439.363433 
L 305.759745 284.660761 
L 302.173555 284.660761 
z
" style="fill:#1f77b4;"/>
   </g>
   <g id="patch_105">
    <path clip-path="url(#p4d14542619)" d="M 305.759745 35439.363433 
L 309.345936 35439.363433 
L 309.345936 301.425818 
L 305.759745 301.425818 
z
" style="fill:#1f77b4;"/>
   </g>
   <g id="patch_106">
    <path clip-path="url(#p4d14542619)" d="M 309.345936 35439.363433 
L 312.932127 35439.363433 
L 312.932127 274.083188 
L 309.345936 274.083188 
z
" style="fill:#1f77b4;"/>
   </g>
   <g id="patch_107">
    <path clip-path="url(#p4d14542619)" d="M 312.932127 35439.363433 
L 316.518318 35439.363433 
L 316.518318 274.083188 
L 312.932127 274.083188 
z
" style="fill:#1f77b4;"/>
   </g>
   <g id="patch_108">
    <path clip-path="url(#p4d14542619)" d="M 316.518318 35439.363433 
L 320.104509 35439.363433 
L 320.104509 276.865454 
L 316.518318 276.865454 
z
" style="fill:#1f77b4;"/>
   </g>
   <g id="patch_109">
    <path clip-path="url(#p4d14542619)" d="M 320.104509 35439.363433 
L 323.6907 35439.363433 
L 323.6907 290.848245 
L 320.104509 290.848245 
z
" style="fill:#1f77b4;"/>
   </g>
   <g id="patch_110">
    <path clip-path="url(#p4d14542619)" d="M 323.6907 35439.363433 
L 327.276891 35439.363433 
L 327.276891 274.083188 
L 323.6907 274.083188 
z
" style="fill:#1f77b4;"/>
   </g>
   <g id="patch_111">
    <path clip-path="url(#p4d14542619)" d="M 327.276891 35439.363433 
L 330.863082 35439.363433 
L 330.863082 276.865454 
L 327.276891 276.865454 
z
" style="fill:#1f77b4;"/>
   </g>
   <g id="patch_112">
    <path clip-path="url(#p4d14542619)" d="M 330.863082 35439.363433 
L 334.449273 35439.363433 
L 334.449273 274.083188 
L 330.863082 274.083188 
z
" style="fill:#1f77b4;"/>
   </g>
   <g id="patch_113">
    <path clip-path="url(#p4d14542619)" d="M 334.449273 35439.363433 
L 338.035464 35439.363433 
L 338.035464 274.083188 
L 334.449273 274.083188 
z
" style="fill:#1f77b4;"/>
   </g>
   <g id="patch_114">
    <path clip-path="url(#p4d14542619)" d="M 338.035464 35439.363433 
L 341.621655 35439.363433 
L 341.621655 274.083188 
L 338.035464 274.083188 
z
" style="fill:#1f77b4;"/>
   </g>
   <g id="patch_115">
    <path clip-path="url(#p4d14542619)" d="M 341.621655 35439.363433 
L 345.207845 35439.363433 
L 345.207845 301.425818 
L 341.621655 301.425818 
z
" style="fill:#1f77b4;"/>
   </g>
   <g id="patch_116">
    <path clip-path="url(#p4d14542619)" d="M 345.207845 35439.363433 
L 348.794036 35439.363433 
L 348.794036 290.848245 
L 345.207845 290.848245 
z
" style="fill:#1f77b4;"/>
   </g>
   <g id="patch_117">
    <path clip-path="url(#p4d14542619)" d="M 348.794036 35439.363433 
L 352.380227 35439.363433 
L 352.380227 284.660761 
L 348.794036 284.660761 
z
" style="fill:#1f77b4;"/>
   </g>
   <g id="patch_118">
    <path clip-path="url(#p4d14542619)" d="M 352.380227 35439.363433 
L 355.966418 35439.363433 
L 355.966418 35439.363433 
L 352.380227 35439.363433 
z
" style="fill:#1f77b4;"/>
   </g>
   <g id="patch_119">
    <path clip-path="url(#p4d14542619)" d="M 355.966418 35439.363433 
L 359.552609 35439.363433 
L 359.552609 290.848245 
L 355.966418 290.848245 
z
" style="fill:#1f77b4;"/>
   </g>
   <g id="patch_120">
    <path clip-path="url(#p4d14542619)" d="M 359.552609 35439.363433 
L 363.1388 35439.363433 
L 363.1388 290.848245 
L 359.552609 290.848245 
z
" style="fill:#1f77b4;"/>
   </g>
   <g id="patch_121">
    <path clip-path="url(#p4d14542619)" d="M 363.1388 35439.363433 
L 366.724991 35439.363433 
L 366.724991 290.848245 
L 363.1388 290.848245 
z
" style="fill:#1f77b4;"/>
   </g>
   <g id="patch_122">
    <path clip-path="url(#p4d14542619)" d="M 366.724991 35439.363433 
L 370.311182 35439.363433 
L 370.311182 284.660761 
L 366.724991 284.660761 
z
" style="fill:#1f77b4;"/>
   </g>
   <g id="patch_123">
    <path clip-path="url(#p4d14542619)" d="M 370.311182 35439.363433 
L 373.897373 35439.363433 
L 373.897373 274.083188 
L 370.311182 274.083188 
z
" style="fill:#1f77b4;"/>
   </g>
   <g id="patch_124">
    <path clip-path="url(#p4d14542619)" d="M 373.897373 35439.363433 
L 377.483564 35439.363433 
L 377.483564 280.270672 
L 373.897373 280.270672 
z
" style="fill:#1f77b4;"/>
   </g>
   <g id="patch_125">
    <path clip-path="url(#p4d14542619)" d="M 377.483564 35439.363433 
L 381.069755 35439.363433 
L 381.069755 280.270672 
L 377.483564 280.270672 
z
" style="fill:#1f77b4;"/>
   </g>
   <g id="patch_126">
    <path clip-path="url(#p4d14542619)" d="M 381.069755 35439.363433 
L 384.655945 35439.363433 
L 384.655945 290.848245 
L 381.069755 290.848245 
z
" style="fill:#1f77b4;"/>
   </g>
   <g id="patch_127">
    <path clip-path="url(#p4d14542619)" d="M 384.655945 35439.363433 
L 388.242136 35439.363433 
L 388.242136 290.848245 
L 384.655945 290.848245 
z
" style="fill:#1f77b4;"/>
   </g>
   <g id="patch_128">
    <path clip-path="url(#p4d14542619)" d="M 388.242136 35439.363433 
L 391.828327 35439.363433 
L 391.828327 280.270672 
L 388.242136 280.270672 
z
" style="fill:#1f77b4;"/>
   </g>
   <g id="patch_129">
    <path clip-path="url(#p4d14542619)" d="M 391.828327 35439.363433 
L 395.414518 35439.363433 
L 395.414518 301.425818 
L 391.828327 301.425818 
z
" style="fill:#1f77b4;"/>
   </g>
   <g id="patch_130">
    <path clip-path="url(#p4d14542619)" d="M 395.414518 35439.363433 
L 399.000709 35439.363433 
L 399.000709 280.270672 
L 395.414518 280.270672 
z
" style="fill:#1f77b4;"/>
   </g>
   <g id="patch_131">
    <path clip-path="url(#p4d14542619)" d="M 399.000709 35439.363433 
L 402.5869 35439.363433 
L 402.5869 290.848245 
L 399.000709 290.848245 
z
" style="fill:#1f77b4;"/>
   </g>
   <g id="patch_132">
    <path clip-path="url(#p4d14542619)" d="M 402.5869 35439.363433 
L 406.173091 35439.363433 
L 406.173091 290.848245 
L 402.5869 290.848245 
z
" style="fill:#1f77b4;"/>
   </g>
   <g id="patch_133">
    <path clip-path="url(#p4d14542619)" d="M 406.173091 35439.363433 
L 409.759282 35439.363433 
L 409.759282 276.865454 
L 406.173091 276.865454 
z
" style="fill:#1f77b4;"/>
   </g>
   <g id="patch_134">
    <path clip-path="url(#p4d14542619)" d="M 409.759282 35439.363433 
L 413.345473 35439.363433 
L 413.345473 284.660761 
L 409.759282 284.660761 
z
" style="fill:#1f77b4;"/>
   </g>
   <g id="patch_135">
    <path clip-path="url(#p4d14542619)" d="M 413.345473 35439.363433 
L 416.931664 35439.363433 
L 416.931664 276.865454 
L 413.345473 276.865454 
z
" style="fill:#1f77b4;"/>
   </g>
   <g id="patch_136">
    <path clip-path="url(#p4d14542619)" d="M 416.931664 35439.363433 
L 420.517855 35439.363433 
L 420.517855 290.848245 
L 416.931664 290.848245 
z
" style="fill:#1f77b4;"/>
   </g>
   <g id="patch_137">
    <path clip-path="url(#p4d14542619)" d="M 420.517855 35439.363433 
L 424.104045 35439.363433 
L 424.104045 290.848245 
L 420.517855 290.848245 
z
" style="fill:#1f77b4;"/>
   </g>
   <g id="matplotlib.axis_3">
    <g id="xtick_6">
     <g id="line2d_13">
      <g>
       <use style="stroke:#000000;stroke-width:0.8;" x="65.462773" xlink:href="#m1f95d031aa" y="307.352"/>
      </g>
     </g>
     <g id="text_17">
      <!-- 0 -->
      <g transform="translate(62.281523 321.950438)scale(0.1 -0.1)">
       <use xlink:href="#DejaVuSans-48"/>
      </g>
     </g>
    </g>
    <g id="xtick_7">
     <g id="line2d_14">
      <g>
       <use style="stroke:#000000;stroke-width:0.8;" x="143.055702" xlink:href="#m1f95d031aa" y="307.352"/>
      </g>
     </g>
     <g id="text_18">
      <!-- 5 -->
      <g transform="translate(139.874452 321.950438)scale(0.1 -0.1)">
       <use xlink:href="#DejaVuSans-53"/>
      </g>
     </g>
    </g>
    <g id="xtick_8">
     <g id="line2d_15">
      <g>
       <use style="stroke:#000000;stroke-width:0.8;" x="220.648632" xlink:href="#m1f95d031aa" y="307.352"/>
      </g>
     </g>
     <g id="text_19">
      <!-- 10 -->
      <g transform="translate(214.286132 321.950438)scale(0.1 -0.1)">
       <use xlink:href="#DejaVuSans-49"/>
       <use x="63.623047" xlink:href="#DejaVuSans-48"/>
      </g>
     </g>
    </g>
    <g id="xtick_9">
     <g id="line2d_16">
      <g>
       <use style="stroke:#000000;stroke-width:0.8;" x="298.241561" xlink:href="#m1f95d031aa" y="307.352"/>
      </g>
     </g>
     <g id="text_20">
      <!-- 15 -->
      <g transform="translate(291.879061 321.950438)scale(0.1 -0.1)">
       <use xlink:href="#DejaVuSans-49"/>
       <use x="63.623047" xlink:href="#DejaVuSans-53"/>
      </g>
     </g>
    </g>
    <g id="xtick_10">
     <g id="line2d_17">
      <g>
       <use style="stroke:#000000;stroke-width:0.8;" x="375.83449" xlink:href="#m1f95d031aa" y="307.352"/>
      </g>
     </g>
     <g id="text_21">
      <!-- 20 -->
      <g transform="translate(369.47199 321.950438)scale(0.1 -0.1)">
       <use xlink:href="#DejaVuSans-50"/>
       <use x="63.623047" xlink:href="#DejaVuSans-48"/>
      </g>
     </g>
    </g>
    <g id="text_22">
     <!-- Time difference (min) -->
     <g transform="translate(190.878875 335.628562)scale(0.1 -0.1)">
      <defs>
       <path d="M -0.296875 72.90625 
L 61.375 72.90625 
L 61.375 64.59375 
L 35.5 64.59375 
L 35.5 0 
L 25.59375 0 
L 25.59375 64.59375 
L -0.296875 64.59375 
z
" id="DejaVuSans-84"/>
      </defs>
      <use xlink:href="#DejaVuSans-84"/>
      <use x="57.958984" xlink:href="#DejaVuSans-105"/>
      <use x="85.742188" xlink:href="#DejaVuSans-109"/>
      <use x="183.154297" xlink:href="#DejaVuSans-101"/>
      <use x="244.677734" xlink:href="#DejaVuSans-32"/>
      <use x="276.464844" xlink:href="#DejaVuSans-100"/>
      <use x="339.941406" xlink:href="#DejaVuSans-105"/>
      <use x="367.724609" xlink:href="#DejaVuSans-102"/>
      <use x="402.929688" xlink:href="#DejaVuSans-102"/>
      <use x="438.134766" xlink:href="#DejaVuSans-101"/>
      <use x="499.658203" xlink:href="#DejaVuSans-114"/>
      <use x="538.521484" xlink:href="#DejaVuSans-101"/>
      <use x="600.044922" xlink:href="#DejaVuSans-110"/>
      <use x="663.423828" xlink:href="#DejaVuSans-99"/>
      <use x="718.404297" xlink:href="#DejaVuSans-101"/>
      <use x="779.927734" xlink:href="#DejaVuSans-32"/>
      <use x="811.714844" xlink:href="#DejaVuSans-40"/>
      <use x="850.728516" xlink:href="#DejaVuSans-109"/>
      <use x="948.140625" xlink:href="#DejaVuSans-105"/>
      <use x="975.923828" xlink:href="#DejaVuSans-110"/>
      <use x="1039.302734" xlink:href="#DejaVuSans-41"/>
     </g>
    </g>
   </g>
   <g id="matplotlib.axis_4">
    <g id="ytick_7">
     <g id="line2d_18">
      <g>
       <use style="stroke:#000000;stroke-width:0.8;" x="47.554" xlink:href="#mcae3bf6666" y="301.425818"/>
      </g>
     </g>
     <g id="text_23">
      <!-- $\mathdefault{10^{0}}$ -->
      <g transform="translate(22.954 305.225037)scale(0.1 -0.1)">
       <use transform="translate(0 0.765625)" xlink:href="#DejaVuSans-49"/>
       <use transform="translate(63.623047 0.765625)" xlink:href="#DejaVuSans-48"/>
       <use transform="translate(128.203125 39.046875)scale(0.7)" xlink:href="#DejaVuSans-48"/>
      </g>
     </g>
    </g>
    <g id="ytick_8">
     <g id="line2d_19">
      <g>
       <use style="stroke:#000000;stroke-width:0.8;" x="47.554" xlink:href="#mcae3bf6666" y="266.287881"/>
      </g>
     </g>
     <g id="text_24">
      <!-- $\mathdefault{10^{1}}$ -->
      <g transform="translate(22.954 270.087099)scale(0.1 -0.1)">
       <use transform="translate(0 0.684375)" xlink:href="#DejaVuSans-49"/>
       <use transform="translate(63.623047 0.684375)" xlink:href="#DejaVuSans-48"/>
       <use transform="translate(128.203125 38.965625)scale(0.7)" xlink:href="#DejaVuSans-49"/>
      </g>
     </g>
    </g>
    <g id="ytick_9">
     <g id="line2d_20">
      <g>
       <use style="stroke:#000000;stroke-width:0.8;" x="47.554" xlink:href="#mcae3bf6666" y="231.149943"/>
      </g>
     </g>
     <g id="text_25">
      <!-- $\mathdefault{10^{2}}$ -->
      <g transform="translate(22.954 234.949162)scale(0.1 -0.1)">
       <use transform="translate(0 0.765625)" xlink:href="#DejaVuSans-49"/>
       <use transform="translate(63.623047 0.765625)" xlink:href="#DejaVuSans-48"/>
       <use transform="translate(128.203125 39.046875)scale(0.7)" xlink:href="#DejaVuSans-50"/>
      </g>
     </g>
    </g>
    <g id="ytick_10">
     <g id="line2d_21">
      <g>
       <use style="stroke:#000000;stroke-width:0.8;" x="47.554" xlink:href="#mcae3bf6666" y="196.012005"/>
      </g>
     </g>
     <g id="text_26">
      <!-- $\mathdefault{10^{3}}$ -->
      <g transform="translate(22.954 199.811224)scale(0.1 -0.1)">
       <use transform="translate(0 0.765625)" xlink:href="#DejaVuSans-49"/>
       <use transform="translate(63.623047 0.765625)" xlink:href="#DejaVuSans-48"/>
       <use transform="translate(128.203125 39.046875)scale(0.7)" xlink:href="#DejaVuSans-51"/>
      </g>
     </g>
    </g>
    <g id="ytick_11">
     <g id="line2d_22">
      <defs>
       <path d="M 0 0 
L -2 0 
" id="m0119e6f9d7" style="stroke:#000000;stroke-width:0.6;"/>
      </defs>
      <g>
       <use style="stroke:#000000;stroke-width:0.6;" x="47.554" xlink:href="#m0119e6f9d7" y="306.868754"/>
      </g>
     </g>
    </g>
    <g id="ytick_12">
     <g id="line2d_23">
      <g>
       <use style="stroke:#000000;stroke-width:0.6;" x="47.554" xlink:href="#m0119e6f9d7" y="304.831036"/>
      </g>
     </g>
    </g>
    <g id="ytick_13">
     <g id="line2d_24">
      <g>
       <use style="stroke:#000000;stroke-width:0.6;" x="47.554" xlink:href="#m0119e6f9d7" y="303.033642"/>
      </g>
     </g>
    </g>
    <g id="ytick_14">
     <g id="line2d_25">
      <g>
       <use style="stroke:#000000;stroke-width:0.6;" x="47.554" xlink:href="#m0119e6f9d7" y="290.848245"/>
      </g>
     </g>
    </g>
    <g id="ytick_15">
     <g id="line2d_26">
      <g>
       <use style="stroke:#000000;stroke-width:0.6;" x="47.554" xlink:href="#m0119e6f9d7" y="284.660761"/>
      </g>
     </g>
    </g>
    <g id="ytick_16">
     <g id="line2d_27">
      <g>
       <use style="stroke:#000000;stroke-width:0.6;" x="47.554" xlink:href="#m0119e6f9d7" y="280.270672"/>
      </g>
     </g>
    </g>
    <g id="ytick_17">
     <g id="line2d_28">
      <g>
       <use style="stroke:#000000;stroke-width:0.6;" x="47.554" xlink:href="#m0119e6f9d7" y="276.865454"/>
      </g>
     </g>
    </g>
    <g id="ytick_18">
     <g id="line2d_29">
      <g>
       <use style="stroke:#000000;stroke-width:0.6;" x="47.554" xlink:href="#m0119e6f9d7" y="274.083188"/>
      </g>
     </g>
    </g>
    <g id="ytick_19">
     <g id="line2d_30">
      <g>
       <use style="stroke:#000000;stroke-width:0.6;" x="47.554" xlink:href="#m0119e6f9d7" y="271.730816"/>
      </g>
     </g>
    </g>
    <g id="ytick_20">
     <g id="line2d_31">
      <g>
       <use style="stroke:#000000;stroke-width:0.6;" x="47.554" xlink:href="#m0119e6f9d7" y="269.693099"/>
      </g>
     </g>
    </g>
    <g id="ytick_21">
     <g id="line2d_32">
      <g>
       <use style="stroke:#000000;stroke-width:0.6;" x="47.554" xlink:href="#m0119e6f9d7" y="267.895704"/>
      </g>
     </g>
    </g>
    <g id="ytick_22">
     <g id="line2d_33">
      <g>
       <use style="stroke:#000000;stroke-width:0.6;" x="47.554" xlink:href="#m0119e6f9d7" y="255.710307"/>
      </g>
     </g>
    </g>
    <g id="ytick_23">
     <g id="line2d_34">
      <g>
       <use style="stroke:#000000;stroke-width:0.6;" x="47.554" xlink:href="#m0119e6f9d7" y="249.522824"/>
      </g>
     </g>
    </g>
    <g id="ytick_24">
     <g id="line2d_35">
      <g>
       <use style="stroke:#000000;stroke-width:0.6;" x="47.554" xlink:href="#m0119e6f9d7" y="245.132734"/>
      </g>
     </g>
    </g>
    <g id="ytick_25">
     <g id="line2d_36">
      <g>
       <use style="stroke:#000000;stroke-width:0.6;" x="47.554" xlink:href="#m0119e6f9d7" y="241.727516"/>
      </g>
     </g>
    </g>
    <g id="ytick_26">
     <g id="line2d_37">
      <g>
       <use style="stroke:#000000;stroke-width:0.6;" x="47.554" xlink:href="#m0119e6f9d7" y="238.94525"/>
      </g>
     </g>
    </g>
    <g id="ytick_27">
     <g id="line2d_38">
      <g>
       <use style="stroke:#000000;stroke-width:0.6;" x="47.554" xlink:href="#m0119e6f9d7" y="236.592878"/>
      </g>
     </g>
    </g>
    <g id="ytick_28">
     <g id="line2d_39">
      <g>
       <use style="stroke:#000000;stroke-width:0.6;" x="47.554" xlink:href="#m0119e6f9d7" y="234.555161"/>
      </g>
     </g>
    </g>
    <g id="ytick_29">
     <g id="line2d_40">
      <g>
       <use style="stroke:#000000;stroke-width:0.6;" x="47.554" xlink:href="#m0119e6f9d7" y="232.757767"/>
      </g>
     </g>
    </g>
    <g id="ytick_30">
     <g id="line2d_41">
      <g>
       <use style="stroke:#000000;stroke-width:0.6;" x="47.554" xlink:href="#m0119e6f9d7" y="220.57237"/>
      </g>
     </g>
    </g>
    <g id="ytick_31">
     <g id="line2d_42">
      <g>
       <use style="stroke:#000000;stroke-width:0.6;" x="47.554" xlink:href="#m0119e6f9d7" y="214.384886"/>
      </g>
     </g>
    </g>
    <g id="ytick_32">
     <g id="line2d_43">
      <g>
       <use style="stroke:#000000;stroke-width:0.6;" x="47.554" xlink:href="#m0119e6f9d7" y="209.994797"/>
      </g>
     </g>
    </g>
    <g id="ytick_33">
     <g id="line2d_44">
      <g>
       <use style="stroke:#000000;stroke-width:0.6;" x="47.554" xlink:href="#m0119e6f9d7" y="206.589579"/>
      </g>
     </g>
    </g>
    <g id="ytick_34">
     <g id="line2d_45">
      <g>
       <use style="stroke:#000000;stroke-width:0.6;" x="47.554" xlink:href="#m0119e6f9d7" y="203.807313"/>
      </g>
     </g>
    </g>
    <g id="ytick_35">
     <g id="line2d_46">
      <g>
       <use style="stroke:#000000;stroke-width:0.6;" x="47.554" xlink:href="#m0119e6f9d7" y="201.454941"/>
      </g>
     </g>
    </g>
    <g id="ytick_36">
     <g id="line2d_47">
      <g>
       <use style="stroke:#000000;stroke-width:0.6;" x="47.554" xlink:href="#m0119e6f9d7" y="199.417223"/>
      </g>
     </g>
    </g>
    <g id="ytick_37">
     <g id="line2d_48">
      <g>
       <use style="stroke:#000000;stroke-width:0.6;" x="47.554" xlink:href="#m0119e6f9d7" y="197.619829"/>
      </g>
     </g>
    </g>
    <g id="ytick_38">
     <g id="line2d_49">
      <g>
       <use style="stroke:#000000;stroke-width:0.6;" x="47.554" xlink:href="#m0119e6f9d7" y="185.434432"/>
      </g>
     </g>
    </g>
    <g id="ytick_39">
     <g id="line2d_50">
      <g>
       <use style="stroke:#000000;stroke-width:0.6;" x="47.554" xlink:href="#m0119e6f9d7" y="179.246948"/>
      </g>
     </g>
    </g>
    <g id="text_27">
     <!-- Frequency -->
     <g transform="translate(16.874312 267.993687)rotate(-90)scale(0.1 -0.1)">
      <defs>
       <path d="M 9.8125 72.90625 
L 51.703125 72.90625 
L 51.703125 64.59375 
L 19.671875 64.59375 
L 19.671875 43.109375 
L 48.578125 43.109375 
L 48.578125 34.8125 
L 19.671875 34.8125 
L 19.671875 0 
L 9.8125 0 
z
" id="DejaVuSans-70"/>
       <path d="M 14.796875 27.296875 
Q 14.796875 17.390625 18.875 11.75 
Q 22.953125 6.109375 30.078125 6.109375 
Q 37.203125 6.109375 41.296875 11.75 
Q 45.40625 17.390625 45.40625 27.296875 
Q 45.40625 37.203125 41.296875 42.84375 
Q 37.203125 48.484375 30.078125 48.484375 
Q 22.953125 48.484375 18.875 42.84375 
Q 14.796875 37.203125 14.796875 27.296875 
z
M 45.40625 8.203125 
Q 42.578125 3.328125 38.25 0.953125 
Q 33.9375 -1.421875 27.875 -1.421875 
Q 17.96875 -1.421875 11.734375 6.484375 
Q 5.515625 14.40625 5.515625 27.296875 
Q 5.515625 40.1875 11.734375 48.09375 
Q 17.96875 56 27.875 56 
Q 33.9375 56 38.25 53.625 
Q 42.578125 51.265625 45.40625 46.390625 
L 45.40625 54.6875 
L 54.390625 54.6875 
L 54.390625 -20.796875 
L 45.40625 -20.796875 
z
" id="DejaVuSans-113"/>
      </defs>
      <use xlink:href="#DejaVuSans-70"/>
      <use x="50.269531" xlink:href="#DejaVuSans-114"/>
      <use x="89.132812" xlink:href="#DejaVuSans-101"/>
      <use x="150.65625" xlink:href="#DejaVuSans-113"/>
      <use x="214.132812" xlink:href="#DejaVuSans-117"/>
      <use x="277.511719" xlink:href="#DejaVuSans-101"/>
      <use x="339.035156" xlink:href="#DejaVuSans-110"/>
      <use x="402.414062" xlink:href="#DejaVuSans-99"/>
      <use x="457.394531" xlink:href="#DejaVuSans-121"/>
     </g>
    </g>
   </g>
   <g id="patch_138">
    <path d="M 47.554 307.352 
L 47.554 176.976 
" style="fill:none;stroke:#000000;stroke-linecap:square;stroke-linejoin:miter;stroke-width:0.8;"/>
   </g>
   <g id="patch_139">
    <path d="M 442.035 307.352 
L 442.035 176.976 
" style="fill:none;stroke:#000000;stroke-linecap:square;stroke-linejoin:miter;stroke-width:0.8;"/>
   </g>
   <g id="patch_140">
    <path d="M 47.554 307.352 
L 442.035 307.352 
" style="fill:none;stroke:#000000;stroke-linecap:square;stroke-linejoin:miter;stroke-width:0.8;"/>
   </g>
   <g id="patch_141">
    <path d="M 47.554 176.976 
L 442.035 176.976 
" style="fill:none;stroke:#000000;stroke-linecap:square;stroke-linejoin:miter;stroke-width:0.8;"/>
   </g>
  </g>
 </g>
 <defs>
  <clipPath id="p44f73d43a2">
   <rect height="130.376" width="394.481" x="47.554" y="14.76"/>
  </clipPath>
  <clipPath id="p4d14542619">
   <rect height="130.376" width="394.481" x="47.554" y="176.976"/>
  </clipPath>
 </defs>
</svg>
