<?xml version="1.0" encoding="utf-8" standalone="no"?>
<!DOCTYPE svg PUBLIC "-//W3C//DTD SVG 1.1//EN"
  "http://www.w3.org/Graphics/SVG/1.1/DTD/svg11.dtd">
<svg height="345.6pt" version="1.1" viewBox="0 0 460.8 345.6" width="460.8pt" xmlns="http://www.w3.org/2000/svg" xmlns:xlink="http://www.w3.org/1999/xlink">
 <metadata>
  <rdf:RDF xmlns:cc="http://creativecommons.org/ns#" xmlns:dc="http://purl.org/dc/elements/1.1/" xmlns:rdf="http://www.w3.org/1999/02/22-rdf-syntax-ns#">
   <cc:Work>
    <dc:type rdf:resource="http://purl.org/dc/dcmitype/StillImage"/>
    <dc:date>2021-10-17T20:34:02.074081</dc:date>
    <dc:format>image/svg+xml</dc:format>
    <dc:creator>
     <cc:Agent>
      <dc:title>Matplotlib v3.4.2, https://matplotlib.org/</dc:title>
     </cc:Agent>
    </dc:creator>
   </cc:Work>
  </rdf:RDF>
 </metadata>
 <defs>
  <style type="text/css">*{stroke-linecap:butt;stroke-linejoin:round;}</style>
 </defs>
 <g id="figure_1">
  <g id="patch_1">
   <path d="M 0 345.6 
L 460.8 345.6 
L 460.8 0 
L 0 0 
z
" style="fill:#ffffff;"/>
  </g>
  <g id="axes_1">
   <g id="patch_2">
    <path d="M 64.694 131.056 
L 450 131.056 
L 450 10.8 
L 64.694 10.8 
z
" style="fill:#ffffff;"/>
   </g>
   <g id="patch_3">
    <path clip-path="url(#p34e35fba51)" d="M 82.207909 131.056 
L 93.883848 131.056 
L 93.883848 27.339653 
L 82.207909 27.339653 
z
" style="fill:#1f77b4;"/>
   </g>
   <g id="patch_4">
    <path clip-path="url(#p34e35fba51)" d="M 93.883848 131.056 
L 105.559788 131.056 
L 105.559788 67.92431 
L 93.883848 67.92431 
z
" style="fill:#1f77b4;"/>
   </g>
   <g id="patch_5">
    <path clip-path="url(#p34e35fba51)" d="M 105.559788 131.056 
L 117.235727 131.056 
L 117.235727 70.179014 
L 105.559788 70.179014 
z
" style="fill:#1f77b4;"/>
   </g>
   <g id="patch_6">
    <path clip-path="url(#p34e35fba51)" d="M 117.235727 131.056 
L 128.911667 131.056 
L 128.911667 72.433717 
L 117.235727 72.433717 
z
" style="fill:#1f77b4;"/>
   </g>
   <g id="patch_7">
    <path clip-path="url(#p34e35fba51)" d="M 128.911667 131.056 
L 140.587606 131.056 
L 140.587606 70.179014 
L 128.911667 70.179014 
z
" style="fill:#1f77b4;"/>
   </g>
   <g id="patch_8">
    <path clip-path="url(#p34e35fba51)" d="M 140.587606 131.056 
L 152.263545 131.056 
L 152.263545 76.943123 
L 140.587606 76.943123 
z
" style="fill:#1f77b4;"/>
   </g>
   <g id="patch_9">
    <path clip-path="url(#p34e35fba51)" d="M 152.263545 131.056 
L 163.939485 131.056 
L 163.939485 80.325178 
L 152.263545 80.325178 
z
" style="fill:#1f77b4;"/>
   </g>
   <g id="patch_10">
    <path clip-path="url(#p34e35fba51)" d="M 163.939485 131.056 
L 175.615424 131.056 
L 175.615424 65.669607 
L 163.939485 65.669607 
z
" style="fill:#1f77b4;"/>
   </g>
   <g id="patch_11">
    <path clip-path="url(#p34e35fba51)" d="M 175.615424 131.056 
L 187.291364 131.056 
L 187.291364 78.070475 
L 175.615424 78.070475 
z
" style="fill:#1f77b4;"/>
   </g>
   <g id="patch_12">
    <path clip-path="url(#p34e35fba51)" d="M 187.291364 131.056 
L 198.967303 131.056 
L 198.967303 75.815772 
L 187.291364 75.815772 
z
" style="fill:#1f77b4;"/>
   </g>
   <g id="patch_13">
    <path clip-path="url(#p34e35fba51)" d="M 198.967303 131.056 
L 210.643242 131.056 
L 210.643242 70.179014 
L 198.967303 70.179014 
z
" style="fill:#1f77b4;"/>
   </g>
   <g id="patch_14">
    <path clip-path="url(#p34e35fba51)" d="M 210.643242 131.056 
L 222.319182 131.056 
L 222.319182 73.561068 
L 210.643242 73.561068 
z
" style="fill:#1f77b4;"/>
   </g>
   <g id="patch_15">
    <path clip-path="url(#p34e35fba51)" d="M 222.319182 131.056 
L 233.995121 131.056 
L 233.995121 78.070475 
L 222.319182 78.070475 
z
" style="fill:#1f77b4;"/>
   </g>
   <g id="patch_16">
    <path clip-path="url(#p34e35fba51)" d="M 233.995121 131.056 
L 245.671061 131.056 
L 245.671061 57.778146 
L 233.995121 57.778146 
z
" style="fill:#1f77b4;"/>
   </g>
   <g id="patch_17">
    <path clip-path="url(#p34e35fba51)" d="M 245.671061 131.056 
L 257.347 131.056 
L 257.347 73.561068 
L 245.671061 73.561068 
z
" style="fill:#1f77b4;"/>
   </g>
   <g id="patch_18">
    <path clip-path="url(#p34e35fba51)" d="M 257.347 131.056 
L 269.022939 131.056 
L 269.022939 53.26874 
L 257.347 53.26874 
z
" style="fill:#1f77b4;"/>
   </g>
   <g id="patch_19">
    <path clip-path="url(#p34e35fba51)" d="M 269.022939 131.056 
L 280.698879 131.056 
L 280.698879 72.433717 
L 269.022939 72.433717 
z
" style="fill:#1f77b4;"/>
   </g>
   <g id="patch_20">
    <path clip-path="url(#p34e35fba51)" d="M 280.698879 131.056 
L 292.374818 131.056 
L 292.374818 47.631982 
L 280.698879 47.631982 
z
" style="fill:#1f77b4;"/>
   </g>
   <g id="patch_21">
    <path clip-path="url(#p34e35fba51)" d="M 292.374818 131.056 
L 304.050758 131.056 
L 304.050758 64.542256 
L 292.374818 64.542256 
z
" style="fill:#1f77b4;"/>
   </g>
   <g id="patch_22">
    <path clip-path="url(#p34e35fba51)" d="M 304.050758 131.056 
L 315.726697 131.056 
L 315.726697 69.051662 
L 304.050758 69.051662 
z
" style="fill:#1f77b4;"/>
   </g>
   <g id="patch_23">
    <path clip-path="url(#p34e35fba51)" d="M 315.726697 131.056 
L 327.402636 131.056 
L 327.402636 73.561068 
L 315.726697 73.561068 
z
" style="fill:#1f77b4;"/>
   </g>
   <g id="patch_24">
    <path clip-path="url(#p34e35fba51)" d="M 327.402636 131.056 
L 339.078576 131.056 
L 339.078576 66.796959 
L 327.402636 66.796959 
z
" style="fill:#1f77b4;"/>
   </g>
   <g id="patch_25">
    <path clip-path="url(#p34e35fba51)" d="M 339.078576 131.056 
L 350.754515 131.056 
L 350.754515 73.561068 
L 339.078576 73.561068 
z
" style="fill:#1f77b4;"/>
   </g>
   <g id="patch_26">
    <path clip-path="url(#p34e35fba51)" d="M 350.754515 131.056 
L 362.430455 131.056 
L 362.430455 49.886685 
L 350.754515 49.886685 
z
" style="fill:#1f77b4;"/>
   </g>
   <g id="patch_27">
    <path clip-path="url(#p34e35fba51)" d="M 362.430455 131.056 
L 374.106394 131.056 
L 374.106394 78.070475 
L 362.430455 78.070475 
z
" style="fill:#1f77b4;"/>
   </g>
   <g id="patch_28">
    <path clip-path="url(#p34e35fba51)" d="M 374.106394 131.056 
L 385.782333 131.056 
L 385.782333 69.051662 
L 374.106394 69.051662 
z
" style="fill:#1f77b4;"/>
   </g>
   <g id="patch_29">
    <path clip-path="url(#p34e35fba51)" d="M 385.782333 131.056 
L 397.458273 131.056 
L 397.458273 87.089288 
L 385.782333 87.089288 
z
" style="fill:#1f77b4;"/>
   </g>
   <g id="patch_30">
    <path clip-path="url(#p34e35fba51)" d="M 397.458273 131.056 
L 409.134212 131.056 
L 409.134212 75.815772 
L 397.458273 75.815772 
z
" style="fill:#1f77b4;"/>
   </g>
   <g id="patch_31">
    <path clip-path="url(#p34e35fba51)" d="M 409.134212 131.056 
L 420.810152 131.056 
L 420.810152 66.796959 
L 409.134212 66.796959 
z
" style="fill:#1f77b4;"/>
   </g>
   <g id="patch_32">
    <path clip-path="url(#p34e35fba51)" d="M 420.810152 131.056 
L 432.486091 131.056 
L 432.486091 88.216639 
L 420.810152 88.216639 
z
" style="fill:#1f77b4;"/>
   </g>
   <g id="matplotlib.axis_1">
    <g id="xtick_1">
     <g id="line2d_1">
      <defs>
       <path d="M 0 0 
L 0 3.5 
" id="m4c175ed979" style="stroke:#000000;stroke-width:0.8;"/>
      </defs>
      <g>
       <use style="stroke:#000000;stroke-width:0.8;" x="127.896368" xlink:href="#m4c175ed979" y="131.056"/>
      </g>
     </g>
     <g id="text_1">
      <!-- 20 -->
      <g transform="translate(121.533868 145.654437)scale(0.1 -0.1)">
       <defs>
        <path d="M 1228 531 
L 3431 531 
L 3431 0 
L 469 0 
L 469 531 
Q 828 903 1448 1529 
Q 2069 2156 2228 2338 
Q 2531 2678 2651 2914 
Q 2772 3150 2772 3378 
Q 2772 3750 2511 3984 
Q 2250 4219 1831 4219 
Q 1534 4219 1204 4116 
Q 875 4013 500 3803 
L 500 4441 
Q 881 4594 1212 4672 
Q 1544 4750 1819 4750 
Q 2544 4750 2975 4387 
Q 3406 4025 3406 3419 
Q 3406 3131 3298 2873 
Q 3191 2616 2906 2266 
Q 2828 2175 2409 1742 
Q 1991 1309 1228 531 
z
" id="DejaVuSans-32" transform="scale(0.015625)"/>
        <path d="M 2034 4250 
Q 1547 4250 1301 3770 
Q 1056 3291 1056 2328 
Q 1056 1369 1301 889 
Q 1547 409 2034 409 
Q 2525 409 2770 889 
Q 3016 1369 3016 2328 
Q 3016 3291 2770 3770 
Q 2525 4250 2034 4250 
z
M 2034 4750 
Q 2819 4750 3233 4129 
Q 3647 3509 3647 2328 
Q 3647 1150 3233 529 
Q 2819 -91 2034 -91 
Q 1250 -91 836 529 
Q 422 1150 422 2328 
Q 422 3509 836 4129 
Q 1250 4750 2034 4750 
z
" id="DejaVuSans-30" transform="scale(0.015625)"/>
       </defs>
       <use xlink:href="#DejaVuSans-32"/>
       <use x="63.623047" xlink:href="#DejaVuSans-30"/>
      </g>
     </g>
    </g>
    <g id="xtick_2">
     <g id="line2d_2">
      <g>
       <use style="stroke:#000000;stroke-width:0.8;" x="204.043798" xlink:href="#m4c175ed979" y="131.056"/>
      </g>
     </g>
     <g id="text_2">
      <!-- 40 -->
      <g transform="translate(197.681298 145.654437)scale(0.1 -0.1)">
       <defs>
        <path d="M 2419 4116 
L 825 1625 
L 2419 1625 
L 2419 4116 
z
M 2253 4666 
L 3047 4666 
L 3047 1625 
L 3713 1625 
L 3713 1100 
L 3047 1100 
L 3047 0 
L 2419 0 
L 2419 1100 
L 313 1100 
L 313 1709 
L 2253 4666 
z
" id="DejaVuSans-34" transform="scale(0.015625)"/>
       </defs>
       <use xlink:href="#DejaVuSans-34"/>
       <use x="63.623047" xlink:href="#DejaVuSans-30"/>
      </g>
     </g>
    </g>
    <g id="xtick_3">
     <g id="line2d_3">
      <g>
       <use style="stroke:#000000;stroke-width:0.8;" x="280.191229" xlink:href="#m4c175ed979" y="131.056"/>
      </g>
     </g>
     <g id="text_3">
      <!-- 60 -->
      <g transform="translate(273.828729 145.654437)scale(0.1 -0.1)">
       <defs>
        <path d="M 2113 2584 
Q 1688 2584 1439 2293 
Q 1191 2003 1191 1497 
Q 1191 994 1439 701 
Q 1688 409 2113 409 
Q 2538 409 2786 701 
Q 3034 994 3034 1497 
Q 3034 2003 2786 2293 
Q 2538 2584 2113 2584 
z
M 3366 4563 
L 3366 3988 
Q 3128 4100 2886 4159 
Q 2644 4219 2406 4219 
Q 1781 4219 1451 3797 
Q 1122 3375 1075 2522 
Q 1259 2794 1537 2939 
Q 1816 3084 2150 3084 
Q 2853 3084 3261 2657 
Q 3669 2231 3669 1497 
Q 3669 778 3244 343 
Q 2819 -91 2113 -91 
Q 1303 -91 875 529 
Q 447 1150 447 2328 
Q 447 3434 972 4092 
Q 1497 4750 2381 4750 
Q 2619 4750 2861 4703 
Q 3103 4656 3366 4563 
z
" id="DejaVuSans-36" transform="scale(0.015625)"/>
       </defs>
       <use xlink:href="#DejaVuSans-36"/>
       <use x="63.623047" xlink:href="#DejaVuSans-30"/>
      </g>
     </g>
    </g>
    <g id="xtick_4">
     <g id="line2d_4">
      <g>
       <use style="stroke:#000000;stroke-width:0.8;" x="356.33866" xlink:href="#m4c175ed979" y="131.056"/>
      </g>
     </g>
     <g id="text_4">
      <!-- 80 -->
      <g transform="translate(349.97616 145.654437)scale(0.1 -0.1)">
       <defs>
        <path d="M 2034 2216 
Q 1584 2216 1326 1975 
Q 1069 1734 1069 1313 
Q 1069 891 1326 650 
Q 1584 409 2034 409 
Q 2484 409 2743 651 
Q 3003 894 3003 1313 
Q 3003 1734 2745 1975 
Q 2488 2216 2034 2216 
z
M 1403 2484 
Q 997 2584 770 2862 
Q 544 3141 544 3541 
Q 544 4100 942 4425 
Q 1341 4750 2034 4750 
Q 2731 4750 3128 4425 
Q 3525 4100 3525 3541 
Q 3525 3141 3298 2862 
Q 3072 2584 2669 2484 
Q 3125 2378 3379 2068 
Q 3634 1759 3634 1313 
Q 3634 634 3220 271 
Q 2806 -91 2034 -91 
Q 1263 -91 848 271 
Q 434 634 434 1313 
Q 434 1759 690 2068 
Q 947 2378 1403 2484 
z
M 1172 3481 
Q 1172 3119 1398 2916 
Q 1625 2713 2034 2713 
Q 2441 2713 2670 2916 
Q 2900 3119 2900 3481 
Q 2900 3844 2670 4047 
Q 2441 4250 2034 4250 
Q 1625 4250 1398 4047 
Q 1172 3844 1172 3481 
z
" id="DejaVuSans-38" transform="scale(0.015625)"/>
       </defs>
       <use xlink:href="#DejaVuSans-38"/>
       <use x="63.623047" xlink:href="#DejaVuSans-30"/>
      </g>
     </g>
    </g>
    <g id="xtick_5">
     <g id="line2d_5">
      <g>
       <use style="stroke:#000000;stroke-width:0.8;" x="432.486091" xlink:href="#m4c175ed979" y="131.056"/>
      </g>
     </g>
     <g id="text_5">
      <!-- 100 -->
      <g transform="translate(422.942341 145.654437)scale(0.1 -0.1)">
       <defs>
        <path d="M 794 531 
L 1825 531 
L 1825 4091 
L 703 3866 
L 703 4441 
L 1819 4666 
L 2450 4666 
L 2450 531 
L 3481 531 
L 3481 0 
L 794 0 
L 794 531 
z
" id="DejaVuSans-31" transform="scale(0.015625)"/>
       </defs>
       <use xlink:href="#DejaVuSans-31"/>
       <use x="63.623047" xlink:href="#DejaVuSans-30"/>
       <use x="127.246094" xlink:href="#DejaVuSans-30"/>
      </g>
     </g>
    </g>
    <g id="text_6">
     <!-- Mean lifetime (us) -->
     <g transform="translate(211.9595 159.332562)scale(0.1 -0.1)">
      <defs>
       <path d="M 628 4666 
L 1569 4666 
L 2759 1491 
L 3956 4666 
L 4897 4666 
L 4897 0 
L 4281 0 
L 4281 4097 
L 3078 897 
L 2444 897 
L 1241 4097 
L 1241 0 
L 628 0 
L 628 4666 
z
" id="DejaVuSans-4d" transform="scale(0.015625)"/>
       <path d="M 3597 1894 
L 3597 1613 
L 953 1613 
Q 991 1019 1311 708 
Q 1631 397 2203 397 
Q 2534 397 2845 478 
Q 3156 559 3463 722 
L 3463 178 
Q 3153 47 2828 -22 
Q 2503 -91 2169 -91 
Q 1331 -91 842 396 
Q 353 884 353 1716 
Q 353 2575 817 3079 
Q 1281 3584 2069 3584 
Q 2775 3584 3186 3129 
Q 3597 2675 3597 1894 
z
M 3022 2063 
Q 3016 2534 2758 2815 
Q 2500 3097 2075 3097 
Q 1594 3097 1305 2825 
Q 1016 2553 972 2059 
L 3022 2063 
z
" id="DejaVuSans-65" transform="scale(0.015625)"/>
       <path d="M 2194 1759 
Q 1497 1759 1228 1600 
Q 959 1441 959 1056 
Q 959 750 1161 570 
Q 1363 391 1709 391 
Q 2188 391 2477 730 
Q 2766 1069 2766 1631 
L 2766 1759 
L 2194 1759 
z
M 3341 1997 
L 3341 0 
L 2766 0 
L 2766 531 
Q 2569 213 2275 61 
Q 1981 -91 1556 -91 
Q 1019 -91 701 211 
Q 384 513 384 1019 
Q 384 1609 779 1909 
Q 1175 2209 1959 2209 
L 2766 2209 
L 2766 2266 
Q 2766 2663 2505 2880 
Q 2244 3097 1772 3097 
Q 1472 3097 1187 3025 
Q 903 2953 641 2809 
L 641 3341 
Q 956 3463 1253 3523 
Q 1550 3584 1831 3584 
Q 2591 3584 2966 3190 
Q 3341 2797 3341 1997 
z
" id="DejaVuSans-61" transform="scale(0.015625)"/>
       <path d="M 3513 2113 
L 3513 0 
L 2938 0 
L 2938 2094 
Q 2938 2591 2744 2837 
Q 2550 3084 2163 3084 
Q 1697 3084 1428 2787 
Q 1159 2491 1159 1978 
L 1159 0 
L 581 0 
L 581 3500 
L 1159 3500 
L 1159 2956 
Q 1366 3272 1645 3428 
Q 1925 3584 2291 3584 
Q 2894 3584 3203 3211 
Q 3513 2838 3513 2113 
z
" id="DejaVuSans-6e" transform="scale(0.015625)"/>
       <path id="DejaVuSans-20" transform="scale(0.015625)"/>
       <path d="M 603 4863 
L 1178 4863 
L 1178 0 
L 603 0 
L 603 4863 
z
" id="DejaVuSans-6c" transform="scale(0.015625)"/>
       <path d="M 603 3500 
L 1178 3500 
L 1178 0 
L 603 0 
L 603 3500 
z
M 603 4863 
L 1178 4863 
L 1178 4134 
L 603 4134 
L 603 4863 
z
" id="DejaVuSans-69" transform="scale(0.015625)"/>
       <path d="M 2375 4863 
L 2375 4384 
L 1825 4384 
Q 1516 4384 1395 4259 
Q 1275 4134 1275 3809 
L 1275 3500 
L 2222 3500 
L 2222 3053 
L 1275 3053 
L 1275 0 
L 697 0 
L 697 3053 
L 147 3053 
L 147 3500 
L 697 3500 
L 697 3744 
Q 697 4328 969 4595 
Q 1241 4863 1831 4863 
L 2375 4863 
z
" id="DejaVuSans-66" transform="scale(0.015625)"/>
       <path d="M 1172 4494 
L 1172 3500 
L 2356 3500 
L 2356 3053 
L 1172 3053 
L 1172 1153 
Q 1172 725 1289 603 
Q 1406 481 1766 481 
L 2356 481 
L 2356 0 
L 1766 0 
Q 1100 0 847 248 
Q 594 497 594 1153 
L 594 3053 
L 172 3053 
L 172 3500 
L 594 3500 
L 594 4494 
L 1172 4494 
z
" id="DejaVuSans-74" transform="scale(0.015625)"/>
       <path d="M 3328 2828 
Q 3544 3216 3844 3400 
Q 4144 3584 4550 3584 
Q 5097 3584 5394 3201 
Q 5691 2819 5691 2113 
L 5691 0 
L 5113 0 
L 5113 2094 
Q 5113 2597 4934 2840 
Q 4756 3084 4391 3084 
Q 3944 3084 3684 2787 
Q 3425 2491 3425 1978 
L 3425 0 
L 2847 0 
L 2847 2094 
Q 2847 2600 2669 2842 
Q 2491 3084 2119 3084 
Q 1678 3084 1418 2786 
Q 1159 2488 1159 1978 
L 1159 0 
L 581 0 
L 581 3500 
L 1159 3500 
L 1159 2956 
Q 1356 3278 1631 3431 
Q 1906 3584 2284 3584 
Q 2666 3584 2933 3390 
Q 3200 3197 3328 2828 
z
" id="DejaVuSans-6d" transform="scale(0.015625)"/>
       <path d="M 1984 4856 
Q 1566 4138 1362 3434 
Q 1159 2731 1159 2009 
Q 1159 1288 1364 580 
Q 1569 -128 1984 -844 
L 1484 -844 
Q 1016 -109 783 600 
Q 550 1309 550 2009 
Q 550 2706 781 3412 
Q 1013 4119 1484 4856 
L 1984 4856 
z
" id="DejaVuSans-28" transform="scale(0.015625)"/>
       <path d="M 544 1381 
L 544 3500 
L 1119 3500 
L 1119 1403 
Q 1119 906 1312 657 
Q 1506 409 1894 409 
Q 2359 409 2629 706 
Q 2900 1003 2900 1516 
L 2900 3500 
L 3475 3500 
L 3475 0 
L 2900 0 
L 2900 538 
Q 2691 219 2414 64 
Q 2138 -91 1772 -91 
Q 1169 -91 856 284 
Q 544 659 544 1381 
z
M 1991 3584 
L 1991 3584 
z
" id="DejaVuSans-75" transform="scale(0.015625)"/>
       <path d="M 2834 3397 
L 2834 2853 
Q 2591 2978 2328 3040 
Q 2066 3103 1784 3103 
Q 1356 3103 1142 2972 
Q 928 2841 928 2578 
Q 928 2378 1081 2264 
Q 1234 2150 1697 2047 
L 1894 2003 
Q 2506 1872 2764 1633 
Q 3022 1394 3022 966 
Q 3022 478 2636 193 
Q 2250 -91 1575 -91 
Q 1294 -91 989 -36 
Q 684 19 347 128 
L 347 722 
Q 666 556 975 473 
Q 1284 391 1588 391 
Q 1994 391 2212 530 
Q 2431 669 2431 922 
Q 2431 1156 2273 1281 
Q 2116 1406 1581 1522 
L 1381 1569 
Q 847 1681 609 1914 
Q 372 2147 372 2553 
Q 372 3047 722 3315 
Q 1072 3584 1716 3584 
Q 2034 3584 2315 3537 
Q 2597 3491 2834 3397 
z
" id="DejaVuSans-73" transform="scale(0.015625)"/>
       <path d="M 513 4856 
L 1013 4856 
Q 1481 4119 1714 3412 
Q 1947 2706 1947 2009 
Q 1947 1309 1714 600 
Q 1481 -109 1013 -844 
L 513 -844 
Q 928 -128 1133 580 
Q 1338 1288 1338 2009 
Q 1338 2731 1133 3434 
Q 928 4138 513 4856 
z
" id="DejaVuSans-29" transform="scale(0.015625)"/>
      </defs>
      <use xlink:href="#DejaVuSans-4d"/>
      <use x="86.279297" xlink:href="#DejaVuSans-65"/>
      <use x="147.802734" xlink:href="#DejaVuSans-61"/>
      <use x="209.082031" xlink:href="#DejaVuSans-6e"/>
      <use x="272.460938" xlink:href="#DejaVuSans-20"/>
      <use x="304.248047" xlink:href="#DejaVuSans-6c"/>
      <use x="332.03125" xlink:href="#DejaVuSans-69"/>
      <use x="359.814453" xlink:href="#DejaVuSans-66"/>
      <use x="395.019531" xlink:href="#DejaVuSans-65"/>
      <use x="456.542969" xlink:href="#DejaVuSans-74"/>
      <use x="495.751953" xlink:href="#DejaVuSans-69"/>
      <use x="523.535156" xlink:href="#DejaVuSans-6d"/>
      <use x="620.947266" xlink:href="#DejaVuSans-65"/>
      <use x="682.470703" xlink:href="#DejaVuSans-20"/>
      <use x="714.257812" xlink:href="#DejaVuSans-28"/>
      <use x="753.271484" xlink:href="#DejaVuSans-75"/>
      <use x="816.650391" xlink:href="#DejaVuSans-73"/>
      <use x="868.75" xlink:href="#DejaVuSans-29"/>
     </g>
    </g>
   </g>
   <g id="matplotlib.axis_2">
    <g id="ytick_1">
     <g id="line2d_6">
      <defs>
       <path d="M 0 0 
L -3.5 0 
" id="mad3adad71a" style="stroke:#000000;stroke-width:0.8;"/>
      </defs>
      <g>
       <use style="stroke:#000000;stroke-width:0.8;" x="64.694" xlink:href="#mad3adad71a" y="131.056"/>
      </g>
     </g>
     <g id="text_7">
      <!-- 0 -->
      <g transform="translate(51.3315 134.855219)scale(0.1 -0.1)">
       <use xlink:href="#DejaVuSans-30"/>
      </g>
     </g>
    </g>
    <g id="ytick_2">
     <g id="line2d_7">
      <g>
       <use style="stroke:#000000;stroke-width:0.8;" x="64.694" xlink:href="#mad3adad71a" y="108.508968"/>
      </g>
     </g>
     <g id="text_8">
      <!-- 20 -->
      <g transform="translate(44.969 112.308187)scale(0.1 -0.1)">
       <use xlink:href="#DejaVuSans-32"/>
       <use x="63.623047" xlink:href="#DejaVuSans-30"/>
      </g>
     </g>
    </g>
    <g id="ytick_3">
     <g id="line2d_8">
      <g>
       <use style="stroke:#000000;stroke-width:0.8;" x="64.694" xlink:href="#mad3adad71a" y="85.961936"/>
      </g>
     </g>
     <g id="text_9">
      <!-- 40 -->
      <g transform="translate(44.969 89.761155)scale(0.1 -0.1)">
       <use xlink:href="#DejaVuSans-34"/>
       <use x="63.623047" xlink:href="#DejaVuSans-30"/>
      </g>
     </g>
    </g>
    <g id="ytick_4">
     <g id="line2d_9">
      <g>
       <use style="stroke:#000000;stroke-width:0.8;" x="64.694" xlink:href="#mad3adad71a" y="63.414904"/>
      </g>
     </g>
     <g id="text_10">
      <!-- 60 -->
      <g transform="translate(44.969 67.214123)scale(0.1 -0.1)">
       <use xlink:href="#DejaVuSans-36"/>
       <use x="63.623047" xlink:href="#DejaVuSans-30"/>
      </g>
     </g>
    </g>
    <g id="ytick_5">
     <g id="line2d_10">
      <g>
       <use style="stroke:#000000;stroke-width:0.8;" x="64.694" xlink:href="#mad3adad71a" y="40.867872"/>
      </g>
     </g>
     <g id="text_11">
      <!-- 80 -->
      <g transform="translate(44.969 44.667091)scale(0.1 -0.1)">
       <use xlink:href="#DejaVuSans-38"/>
       <use x="63.623047" xlink:href="#DejaVuSans-30"/>
      </g>
     </g>
    </g>
    <g id="ytick_6">
     <g id="line2d_11">
      <g>
       <use style="stroke:#000000;stroke-width:0.8;" x="64.694" xlink:href="#mad3adad71a" y="18.32084"/>
      </g>
     </g>
     <g id="text_12">
      <!-- 100 -->
      <g transform="translate(38.6065 22.120059)scale(0.1 -0.1)">
       <use xlink:href="#DejaVuSans-31"/>
       <use x="63.623047" xlink:href="#DejaVuSans-30"/>
       <use x="127.246094" xlink:href="#DejaVuSans-30"/>
      </g>
     </g>
    </g>
    <g id="text_13">
     <!-- Number of decays -->
     <g transform="translate(32.526812 116.639719)rotate(-90)scale(0.1 -0.1)">
      <defs>
       <path d="M 628 4666 
L 1478 4666 
L 3547 763 
L 3547 4666 
L 4159 4666 
L 4159 0 
L 3309 0 
L 1241 3903 
L 1241 0 
L 628 0 
L 628 4666 
z
" id="DejaVuSans-4e" transform="scale(0.015625)"/>
       <path d="M 3116 1747 
Q 3116 2381 2855 2742 
Q 2594 3103 2138 3103 
Q 1681 3103 1420 2742 
Q 1159 2381 1159 1747 
Q 1159 1113 1420 752 
Q 1681 391 2138 391 
Q 2594 391 2855 752 
Q 3116 1113 3116 1747 
z
M 1159 2969 
Q 1341 3281 1617 3432 
Q 1894 3584 2278 3584 
Q 2916 3584 3314 3078 
Q 3713 2572 3713 1747 
Q 3713 922 3314 415 
Q 2916 -91 2278 -91 
Q 1894 -91 1617 61 
Q 1341 213 1159 525 
L 1159 0 
L 581 0 
L 581 4863 
L 1159 4863 
L 1159 2969 
z
" id="DejaVuSans-62" transform="scale(0.015625)"/>
       <path d="M 2631 2963 
Q 2534 3019 2420 3045 
Q 2306 3072 2169 3072 
Q 1681 3072 1420 2755 
Q 1159 2438 1159 1844 
L 1159 0 
L 581 0 
L 581 3500 
L 1159 3500 
L 1159 2956 
Q 1341 3275 1631 3429 
Q 1922 3584 2338 3584 
Q 2397 3584 2469 3576 
Q 2541 3569 2628 3553 
L 2631 2963 
z
" id="DejaVuSans-72" transform="scale(0.015625)"/>
       <path d="M 1959 3097 
Q 1497 3097 1228 2736 
Q 959 2375 959 1747 
Q 959 1119 1226 758 
Q 1494 397 1959 397 
Q 2419 397 2687 759 
Q 2956 1122 2956 1747 
Q 2956 2369 2687 2733 
Q 2419 3097 1959 3097 
z
M 1959 3584 
Q 2709 3584 3137 3096 
Q 3566 2609 3566 1747 
Q 3566 888 3137 398 
Q 2709 -91 1959 -91 
Q 1206 -91 779 398 
Q 353 888 353 1747 
Q 353 2609 779 3096 
Q 1206 3584 1959 3584 
z
" id="DejaVuSans-6f" transform="scale(0.015625)"/>
       <path d="M 2906 2969 
L 2906 4863 
L 3481 4863 
L 3481 0 
L 2906 0 
L 2906 525 
Q 2725 213 2448 61 
Q 2172 -91 1784 -91 
Q 1150 -91 751 415 
Q 353 922 353 1747 
Q 353 2572 751 3078 
Q 1150 3584 1784 3584 
Q 2172 3584 2448 3432 
Q 2725 3281 2906 2969 
z
M 947 1747 
Q 947 1113 1208 752 
Q 1469 391 1925 391 
Q 2381 391 2643 752 
Q 2906 1113 2906 1747 
Q 2906 2381 2643 2742 
Q 2381 3103 1925 3103 
Q 1469 3103 1208 2742 
Q 947 2381 947 1747 
z
" id="DejaVuSans-64" transform="scale(0.015625)"/>
       <path d="M 3122 3366 
L 3122 2828 
Q 2878 2963 2633 3030 
Q 2388 3097 2138 3097 
Q 1578 3097 1268 2742 
Q 959 2388 959 1747 
Q 959 1106 1268 751 
Q 1578 397 2138 397 
Q 2388 397 2633 464 
Q 2878 531 3122 666 
L 3122 134 
Q 2881 22 2623 -34 
Q 2366 -91 2075 -91 
Q 1284 -91 818 406 
Q 353 903 353 1747 
Q 353 2603 823 3093 
Q 1294 3584 2113 3584 
Q 2378 3584 2631 3529 
Q 2884 3475 3122 3366 
z
" id="DejaVuSans-63" transform="scale(0.015625)"/>
       <path d="M 2059 -325 
Q 1816 -950 1584 -1140 
Q 1353 -1331 966 -1331 
L 506 -1331 
L 506 -850 
L 844 -850 
Q 1081 -850 1212 -737 
Q 1344 -625 1503 -206 
L 1606 56 
L 191 3500 
L 800 3500 
L 1894 763 
L 2988 3500 
L 3597 3500 
L 2059 -325 
z
" id="DejaVuSans-79" transform="scale(0.015625)"/>
      </defs>
      <use xlink:href="#DejaVuSans-4e"/>
      <use x="74.804688" xlink:href="#DejaVuSans-75"/>
      <use x="138.183594" xlink:href="#DejaVuSans-6d"/>
      <use x="235.595703" xlink:href="#DejaVuSans-62"/>
      <use x="299.072266" xlink:href="#DejaVuSans-65"/>
      <use x="360.595703" xlink:href="#DejaVuSans-72"/>
      <use x="401.708984" xlink:href="#DejaVuSans-20"/>
      <use x="433.496094" xlink:href="#DejaVuSans-6f"/>
      <use x="494.677734" xlink:href="#DejaVuSans-66"/>
      <use x="529.882812" xlink:href="#DejaVuSans-20"/>
      <use x="561.669922" xlink:href="#DejaVuSans-64"/>
      <use x="625.146484" xlink:href="#DejaVuSans-65"/>
      <use x="686.669922" xlink:href="#DejaVuSans-63"/>
      <use x="741.650391" xlink:href="#DejaVuSans-61"/>
      <use x="802.929688" xlink:href="#DejaVuSans-79"/>
      <use x="862.109375" xlink:href="#DejaVuSans-73"/>
     </g>
    </g>
   </g>
   <g id="LineCollection_1">
    <path clip-path="url(#p34e35fba51)" d="M 88.045879 38.15283 
L 88.045879 16.526476 
" style="fill:none;stroke:#000000;stroke-width:1.5;"/>
    <path clip-path="url(#p34e35fba51)" d="M 99.721818 76.360637 
L 99.721818 59.487984 
" style="fill:none;stroke:#000000;stroke-width:1.5;"/>
    <path clip-path="url(#p34e35fba51)" d="M 111.397758 78.463322 
L 111.397758 61.894705 
" style="fill:none;stroke:#000000;stroke-width:1.5;"/>
    <path clip-path="url(#p34e35fba51)" d="M 123.073697 80.563165 
L 123.073697 64.304269 
" style="fill:none;stroke:#000000;stroke-width:1.5;"/>
    <path clip-path="url(#p34e35fba51)" d="M 134.749636 78.463322 
L 134.749636 61.894705 
" style="fill:none;stroke:#000000;stroke-width:1.5;"/>
    <path clip-path="url(#p34e35fba51)" d="M 146.425576 84.753644 
L 146.425576 69.132602 
" style="fill:none;stroke:#000000;stroke-width:1.5;"/>
    <path clip-path="url(#p34e35fba51)" d="M 158.101515 87.887682 
L 158.101515 72.762674 
" style="fill:none;stroke:#000000;stroke-width:1.5;"/>
    <path clip-path="url(#p34e35fba51)" d="M 169.777455 74.255261 
L 169.777455 57.083953 
" style="fill:none;stroke:#000000;stroke-width:1.5;"/>
    <path clip-path="url(#p34e35fba51)" d="M 181.453394 85.799208 
L 181.453394 70.341742 
" style="fill:none;stroke:#000000;stroke-width:1.5;"/>
    <path clip-path="url(#p34e35fba51)" d="M 193.129333 83.707233 
L 193.129333 67.92431 
" style="fill:none;stroke:#000000;stroke-width:1.5;"/>
    <path clip-path="url(#p34e35fba51)" d="M 204.805273 78.463322 
L 204.805273 61.894705 
" style="fill:none;stroke:#000000;stroke-width:1.5;"/>
    <path clip-path="url(#p34e35fba51)" d="M 216.481212 81.611969 
L 216.481212 65.510168 
" style="fill:none;stroke:#000000;stroke-width:1.5;"/>
    <path clip-path="url(#p34e35fba51)" d="M 228.157152 85.799208 
L 228.157152 70.341742 
" style="fill:none;stroke:#000000;stroke-width:1.5;"/>
    <path clip-path="url(#p34e35fba51)" d="M 239.833091 66.867145 
L 239.833091 48.689147 
" style="fill:none;stroke:#000000;stroke-width:1.5;"/>
    <path clip-path="url(#p34e35fba51)" d="M 251.50903 81.611969 
L 251.50903 65.510168 
" style="fill:none;stroke:#000000;stroke-width:1.5;"/>
    <path clip-path="url(#p34e35fba51)" d="M 263.18497 62.633225 
L 263.18497 43.904254 
" style="fill:none;stroke:#000000;stroke-width:1.5;"/>
    <path clip-path="url(#p34e35fba51)" d="M 274.860909 80.563165 
L 274.860909 64.304269 
" style="fill:none;stroke:#000000;stroke-width:1.5;"/>
    <path clip-path="url(#p34e35fba51)" d="M 286.536848 57.329827 
L 286.536848 37.934137 
" style="fill:none;stroke:#000000;stroke-width:1.5;"/>
    <path clip-path="url(#p34e35fba51)" d="M 298.212788 73.201608 
L 298.212788 55.882904 
" style="fill:none;stroke:#000000;stroke-width:1.5;"/>
    <path clip-path="url(#p34e35fba51)" d="M 309.888727 77.412325 
L 309.888727 60.690999 
" style="fill:none;stroke:#000000;stroke-width:1.5;"/>
    <path clip-path="url(#p34e35fba51)" d="M 321.564667 81.611969 
L 321.564667 65.510168 
" style="fill:none;stroke:#000000;stroke-width:1.5;"/>
    <path clip-path="url(#p34e35fba51)" d="M 333.240606 75.308277 
L 333.240606 58.285641 
" style="fill:none;stroke:#000000;stroke-width:1.5;"/>
    <path clip-path="url(#p34e35fba51)" d="M 344.916545 81.611969 
L 344.916545 65.510168 
" style="fill:none;stroke:#000000;stroke-width:1.5;"/>
    <path clip-path="url(#p34e35fba51)" d="M 356.592485 59.45258 
L 356.592485 40.320789 
" style="fill:none;stroke:#000000;stroke-width:1.5;"/>
    <path clip-path="url(#p34e35fba51)" d="M 368.268424 85.799208 
L 368.268424 70.341742 
" style="fill:none;stroke:#000000;stroke-width:1.5;"/>
    <path clip-path="url(#p34e35fba51)" d="M 379.944364 77.412325 
L 379.944364 60.690999 
" style="fill:none;stroke:#000000;stroke-width:1.5;"/>
    <path clip-path="url(#p34e35fba51)" d="M 391.620303 94.129596 
L 391.620303 80.048979 
" style="fill:none;stroke:#000000;stroke-width:1.5;"/>
    <path clip-path="url(#p34e35fba51)" d="M 403.296242 83.707233 
L 403.296242 67.92431 
" style="fill:none;stroke:#000000;stroke-width:1.5;"/>
    <path clip-path="url(#p34e35fba51)" d="M 414.972182 75.308277 
L 414.972182 58.285641 
" style="fill:none;stroke:#000000;stroke-width:1.5;"/>
    <path clip-path="url(#p34e35fba51)" d="M 426.648121 95.166101 
L 426.648121 81.267177 
" style="fill:none;stroke:#000000;stroke-width:1.5;"/>
   </g>
   <g id="line2d_12">
    <path clip-path="url(#p34e35fba51)" d="M 82.207909 69.126819 
L 93.883848 69.126819 
L 105.559788 69.126819 
L 117.235727 69.126819 
L 128.911667 69.126819 
L 140.587606 69.126819 
L 152.263545 69.126819 
L 163.939485 69.126819 
L 175.615424 69.126819 
L 187.291364 69.126819 
L 198.967303 69.126819 
L 210.643242 69.126819 
L 222.319182 69.126819 
L 233.995121 69.126819 
L 245.671061 69.126819 
L 257.347 69.126819 
L 269.022939 69.126819 
L 280.698879 69.126819 
L 292.374818 69.126819 
L 304.050758 69.126819 
L 315.726697 69.126819 
L 327.402636 69.126819 
L 339.078576 69.126819 
L 350.754515 69.126819 
L 362.430455 69.126819 
L 374.106394 69.126819 
L 385.782333 69.126819 
L 397.458273 69.126819 
L 409.134212 69.126819 
L 420.810152 69.126819 
L 432.486091 69.126819 
" style="fill:none;stroke:#ff8c00;stroke-linecap:square;stroke-width:2;"/>
   </g>
   <g id="line2d_13"/>
   <g id="patch_33">
    <path d="M 64.694 131.056 
L 64.694 10.8 
" style="fill:none;stroke:#000000;stroke-linecap:square;stroke-linejoin:miter;stroke-width:0.8;"/>
   </g>
   <g id="patch_34">
    <path d="M 450 131.056 
L 450 10.8 
" style="fill:none;stroke:#000000;stroke-linecap:square;stroke-linejoin:miter;stroke-width:0.8;"/>
   </g>
   <g id="patch_35">
    <path d="M 64.694 131.056 
L 450 131.056 
" style="fill:none;stroke:#000000;stroke-linecap:square;stroke-linejoin:miter;stroke-width:0.8;"/>
   </g>
   <g id="patch_36">
    <path d="M 64.694 10.8 
L 450 10.8 
" style="fill:none;stroke:#000000;stroke-linecap:square;stroke-linejoin:miter;stroke-width:0.8;"/>
   </g>
   <g id="text_14">
    <!-- $y = ae^{-\lambda x}+c; T_{½}\doteq $0.0015 -->
    <g transform="translate(211.658542 22.830246)scale(0.1 -0.1)">
     <defs>
      <path d="M 1588 -325 
Q 1188 -997 936 -1164 
Q 684 -1331 294 -1331 
L -159 -1331 
L -63 -850 
L 269 -850 
Q 509 -850 678 -719 
Q 847 -588 1056 -206 
L 1234 128 
L 459 3500 
L 1069 3500 
L 1650 819 
L 3256 3500 
L 3859 3500 
L 1588 -325 
z
" id="DejaVuSans-Oblique-79" transform="scale(0.015625)"/>
      <path d="M 678 2906 
L 4684 2906 
L 4684 2381 
L 678 2381 
L 678 2906 
z
M 678 1631 
L 4684 1631 
L 4684 1100 
L 678 1100 
L 678 1631 
z
" id="DejaVuSans-3d" transform="scale(0.015625)"/>
      <path d="M 3438 1997 
L 3047 0 
L 2472 0 
L 2578 531 
Q 2325 219 2001 64 
Q 1678 -91 1281 -91 
Q 834 -91 548 182 
Q 263 456 263 884 
Q 263 1497 752 1853 
Q 1241 2209 2100 2209 
L 2900 2209 
L 2931 2363 
Q 2938 2388 2941 2417 
Q 2944 2447 2944 2509 
Q 2944 2788 2717 2942 
Q 2491 3097 2081 3097 
Q 1800 3097 1504 3025 
Q 1209 2953 897 2809 
L 997 3341 
Q 1322 3463 1633 3523 
Q 1944 3584 2234 3584 
Q 2853 3584 3176 3315 
Q 3500 3047 3500 2534 
Q 3500 2431 3484 2292 
Q 3469 2153 3438 1997 
z
M 2816 1759 
L 2241 1759 
Q 1534 1759 1195 1570 
Q 856 1381 856 984 
Q 856 709 1029 553 
Q 1203 397 1509 397 
Q 1978 397 2328 733 
Q 2678 1069 2791 1631 
L 2816 1759 
z
" id="DejaVuSans-Oblique-61" transform="scale(0.015625)"/>
      <path d="M 3078 2063 
Q 3088 2113 3092 2166 
Q 3097 2219 3097 2272 
Q 3097 2653 2873 2875 
Q 2650 3097 2266 3097 
Q 1838 3097 1509 2826 
Q 1181 2556 1013 2059 
L 3078 2063 
z
M 3578 1613 
L 903 1613 
Q 884 1494 878 1425 
Q 872 1356 872 1306 
Q 872 872 1139 634 
Q 1406 397 1894 397 
Q 2269 397 2603 481 
Q 2938 566 3225 728 
L 3116 159 
Q 2806 34 2476 -28 
Q 2147 -91 1806 -91 
Q 1078 -91 686 257 
Q 294 606 294 1247 
Q 294 1794 489 2264 
Q 684 2734 1063 3103 
Q 1306 3334 1642 3459 
Q 1978 3584 2356 3584 
Q 2950 3584 3301 3228 
Q 3653 2872 3653 2272 
Q 3653 2128 3634 1964 
Q 3616 1800 3578 1613 
z
" id="DejaVuSans-Oblique-65" transform="scale(0.015625)"/>
      <path d="M 678 2272 
L 4684 2272 
L 4684 1741 
L 678 1741 
L 678 2272 
z
" id="DejaVuSans-2212" transform="scale(0.015625)"/>
      <path d="M 2350 4316 
L 3125 0 
L 2516 0 
L 2038 2588 
L 328 0 
L -281 0 
L 1903 3356 
L 1794 3975 
Q 1725 4369 1391 4369 
L 1091 4369 
L 1184 4863 
L 1550 4856 
Q 2253 4847 2350 4316 
z
" id="DejaVuSans-Oblique-3bb" transform="scale(0.015625)"/>
      <path d="M 3841 3500 
L 2234 1784 
L 3219 0 
L 2559 0 
L 1819 1388 
L 531 0 
L -166 0 
L 1556 1844 
L 641 3500 
L 1300 3500 
L 1972 2234 
L 3144 3500 
L 3841 3500 
z
" id="DejaVuSans-Oblique-78" transform="scale(0.015625)"/>
      <path d="M 2944 4013 
L 2944 2272 
L 4684 2272 
L 4684 1741 
L 2944 1741 
L 2944 0 
L 2419 0 
L 2419 1741 
L 678 1741 
L 678 2272 
L 2419 2272 
L 2419 4013 
L 2944 4013 
z
" id="DejaVuSans-2b" transform="scale(0.015625)"/>
      <path d="M 3431 3366 
L 3316 2797 
Q 3109 2947 2876 3022 
Q 2644 3097 2394 3097 
Q 2119 3097 1870 3000 
Q 1622 2903 1453 2725 
Q 1184 2453 1037 2087 
Q 891 1722 891 1331 
Q 891 859 1127 628 
Q 1363 397 1844 397 
Q 2081 397 2348 469 
Q 2616 541 2906 684 
L 2797 116 
Q 2547 13 2283 -39 
Q 2019 -91 1741 -91 
Q 1044 -91 669 257 
Q 294 606 294 1253 
Q 294 1797 489 2255 
Q 684 2713 1069 3078 
Q 1331 3328 1684 3456 
Q 2038 3584 2456 3584 
Q 2700 3584 2940 3529 
Q 3181 3475 3431 3366 
z
" id="DejaVuSans-Oblique-63" transform="scale(0.015625)"/>
      <path d="M 750 3309 
L 1409 3309 
L 1409 2516 
L 750 2516 
L 750 3309 
z
M 750 794 
L 1409 794 
L 1409 256 
L 897 -744 
L 494 -744 
L 750 256 
L 750 794 
z
" id="DejaVuSans-3b" transform="scale(0.015625)"/>
      <path d="M 378 4666 
L 4325 4666 
L 4225 4134 
L 2559 4134 
L 1759 0 
L 1125 0 
L 1925 4134 
L 275 4134 
L 378 4666 
z
" id="DejaVuSans-Oblique-54" transform="scale(0.015625)"/>
      <path d="M 488 2431 
L 1125 2431 
L 1125 4341 
L 428 4213 
L 428 4575 
L 1147 4697 
L 1575 4697 
L 1575 2431 
L 2216 2431 
L 2216 2088 
L 488 2088 
L 488 2431 
z
M 4470 332 
L 5795 332 
L 5795 -24 
L 3926 -24 
L 3926 319 
Q 4032 416 4229 591 
Q 5304 1544 5304 1838 
Q 5304 2044 5141 2170 
Q 4979 2297 4713 2297 
Q 4551 2297 4360 2242 
Q 4170 2188 3945 2079 
L 3945 2463 
Q 4185 2551 4393 2594 
Q 4601 2638 4779 2638 
Q 5232 2638 5504 2432 
Q 5776 2226 5776 1888 
Q 5776 1454 4741 566 
Q 4566 416 4470 332 
z
M 4309 4750 
L 4809 4750 
L 1896 -91 
L 1396 -91 
L 4309 4750 
z
" id="DejaVuSans-bd" transform="scale(0.015625)"/>
      <path d="M 2348 4027 
L 3008 4027 
L 3008 3233 
L 2348 3233 
L 2348 4027 
z
M 678 2906 
L 4684 2906 
L 4684 2381 
L 678 2381 
L 678 2906 
z
M 678 1631 
L 4684 1631 
L 4684 1100 
L 678 1100 
L 678 1631 
z
" id="DejaVuSans-2250" transform="scale(0.015625)"/>
      <path d="M 684 794 
L 1344 794 
L 1344 0 
L 684 0 
L 684 794 
z
" id="DejaVuSans-2e" transform="scale(0.015625)"/>
      <path d="M 691 4666 
L 3169 4666 
L 3169 4134 
L 1269 4134 
L 1269 2991 
Q 1406 3038 1543 3061 
Q 1681 3084 1819 3084 
Q 2600 3084 3056 2656 
Q 3513 2228 3513 1497 
Q 3513 744 3044 326 
Q 2575 -91 1722 -91 
Q 1428 -91 1123 -41 
Q 819 9 494 109 
L 494 744 
Q 775 591 1075 516 
Q 1375 441 1709 441 
Q 2250 441 2565 725 
Q 2881 1009 2881 1497 
Q 2881 1984 2565 2268 
Q 2250 2553 1709 2553 
Q 1456 2553 1204 2497 
Q 953 2441 691 2322 
L 691 4666 
z
" id="DejaVuSans-35" transform="scale(0.015625)"/>
     </defs>
     <use transform="translate(0 0.529687)" xlink:href="#DejaVuSans-Oblique-79"/>
     <use transform="translate(78.662109 0.529687)" xlink:href="#DejaVuSans-3d"/>
     <use transform="translate(181.933594 0.529687)" xlink:href="#DejaVuSans-Oblique-61"/>
     <use transform="translate(243.212891 0.529687)" xlink:href="#DejaVuSans-Oblique-65"/>
     <use transform="translate(309.386224 38.810937)scale(0.7)" xlink:href="#DejaVuSans-2212"/>
     <use transform="translate(368.038568 38.810937)scale(0.7)" xlink:href="#DejaVuSans-Oblique-3bb"/>
     <use transform="translate(409.464349 38.810937)scale(0.7)" xlink:href="#DejaVuSans-Oblique-78"/>
     <use transform="translate(473.106927 0.529687)" xlink:href="#DejaVuSans-2b"/>
     <use transform="translate(576.378411 0.529687)" xlink:href="#DejaVuSans-Oblique-63"/>
     <use transform="translate(631.35888 0.529687)" xlink:href="#DejaVuSans-3b"/>
     <use transform="translate(684.532708 0.529687)" xlink:href="#DejaVuSans-Oblique-54"/>
     <use transform="translate(745.616693 -15.876563)scale(0.7)" xlink:href="#DejaVuSans-bd"/>
     <use transform="translate(816.197747 0.529687)" xlink:href="#DejaVuSans-2250"/>
     <use transform="translate(899.98681 0.529687)" xlink:href="#DejaVuSans-30"/>
     <use transform="translate(963.609857 0.529687)" xlink:href="#DejaVuSans-2e"/>
     <use transform="translate(995.396966 0.529687)" xlink:href="#DejaVuSans-30"/>
     <use transform="translate(1059.020013 0.529687)" xlink:href="#DejaVuSans-30"/>
     <use transform="translate(1122.64306 0.529687)" xlink:href="#DejaVuSans-31"/>
     <use transform="translate(1186.266107 0.529687)" xlink:href="#DejaVuSans-35"/>
    </g>
   </g>
   <g id="text_15">
    <!-- $a ≐ 8988.99; λ ≐ 650.0054; c ≐ 54.93$ -->
    <g transform="translate(211.658542 35.231114)scale(0.1 -0.1)">
     <defs>
      <path d="M 703 97 
L 703 672 
Q 941 559 1184 500 
Q 1428 441 1663 441 
Q 2288 441 2617 861 
Q 2947 1281 2994 2138 
Q 2813 1869 2534 1725 
Q 2256 1581 1919 1581 
Q 1219 1581 811 2004 
Q 403 2428 403 3163 
Q 403 3881 828 4315 
Q 1253 4750 1959 4750 
Q 2769 4750 3195 4129 
Q 3622 3509 3622 2328 
Q 3622 1225 3098 567 
Q 2575 -91 1691 -91 
Q 1453 -91 1209 -44 
Q 966 3 703 97 
z
M 1959 2075 
Q 2384 2075 2632 2365 
Q 2881 2656 2881 3163 
Q 2881 3666 2632 3958 
Q 2384 4250 1959 4250 
Q 1534 4250 1286 3958 
Q 1038 3666 1038 3163 
Q 1038 2656 1286 2365 
Q 1534 2075 1959 2075 
z
" id="DejaVuSans-39" transform="scale(0.015625)"/>
      <path d="M 2597 2516 
Q 3050 2419 3304 2112 
Q 3559 1806 3559 1356 
Q 3559 666 3084 287 
Q 2609 -91 1734 -91 
Q 1441 -91 1130 -33 
Q 819 25 488 141 
L 488 750 
Q 750 597 1062 519 
Q 1375 441 1716 441 
Q 2309 441 2620 675 
Q 2931 909 2931 1356 
Q 2931 1769 2642 2001 
Q 2353 2234 1838 2234 
L 1294 2234 
L 1294 2753 
L 1863 2753 
Q 2328 2753 2575 2939 
Q 2822 3125 2822 3475 
Q 2822 3834 2567 4026 
Q 2313 4219 1838 4219 
Q 1578 4219 1281 4162 
Q 984 4106 628 3988 
L 628 4550 
Q 988 4650 1302 4700 
Q 1616 4750 1894 4750 
Q 2613 4750 3031 4423 
Q 3450 4097 3450 3541 
Q 3450 3153 3228 2886 
Q 3006 2619 2597 2516 
z
" id="DejaVuSans-33" transform="scale(0.015625)"/>
     </defs>
     <use transform="translate(0 0.015625)" xlink:href="#DejaVuSans-Oblique-61"/>
     <use transform="translate(61.279297 0.015625)" xlink:href="#DejaVuSans-2250"/>
     <use transform="translate(145.068359 0.015625)" xlink:href="#DejaVuSans-38"/>
     <use transform="translate(208.691406 0.015625)" xlink:href="#DejaVuSans-39"/>
     <use transform="translate(272.314453 0.015625)" xlink:href="#DejaVuSans-38"/>
     <use transform="translate(335.9375 0.015625)" xlink:href="#DejaVuSans-38"/>
     <use transform="translate(399.560547 0.015625)" xlink:href="#DejaVuSans-2e"/>
     <use transform="translate(431.347656 0.015625)" xlink:href="#DejaVuSans-39"/>
     <use transform="translate(494.970703 0.015625)" xlink:href="#DejaVuSans-39"/>
     <use transform="translate(558.59375 0.015625)" xlink:href="#DejaVuSans-3b"/>
     <use transform="translate(611.767578 0.015625)" xlink:href="#DejaVuSans-Oblique-3bb"/>
     <use transform="translate(670.947266 0.015625)" xlink:href="#DejaVuSans-2250"/>
     <use transform="translate(754.736328 0.015625)" xlink:href="#DejaVuSans-36"/>
     <use transform="translate(818.359375 0.015625)" xlink:href="#DejaVuSans-35"/>
     <use transform="translate(881.982422 0.015625)" xlink:href="#DejaVuSans-30"/>
     <use transform="translate(945.605469 0.015625)" xlink:href="#DejaVuSans-2e"/>
     <use transform="translate(977.392578 0.015625)" xlink:href="#DejaVuSans-30"/>
     <use transform="translate(1041.015625 0.015625)" xlink:href="#DejaVuSans-30"/>
     <use transform="translate(1104.638672 0.015625)" xlink:href="#DejaVuSans-35"/>
     <use transform="translate(1168.261719 0.015625)" xlink:href="#DejaVuSans-34"/>
     <use transform="translate(1231.884766 0.015625)" xlink:href="#DejaVuSans-3b"/>
     <use transform="translate(1285.058594 0.015625)" xlink:href="#DejaVuSans-Oblique-63"/>
     <use transform="translate(1340.039062 0.015625)" xlink:href="#DejaVuSans-2250"/>
     <use transform="translate(1423.828125 0.015625)" xlink:href="#DejaVuSans-35"/>
     <use transform="translate(1487.451172 0.015625)" xlink:href="#DejaVuSans-34"/>
     <use transform="translate(1551.074219 0.015625)" xlink:href="#DejaVuSans-2e"/>
     <use transform="translate(1582.861328 0.015625)" xlink:href="#DejaVuSans-39"/>
     <use transform="translate(1646.484375 0.015625)" xlink:href="#DejaVuSans-33"/>
    </g>
   </g>
   <g id="text_16">
    <!-- $σ_a ≐ inf; σ_λ ≐ inf; σ_c ≐ inf$ -->
    <g transform="translate(211.658542 46.50463)scale(0.1 -0.1)">
     <defs>
      <path d="M 2219 3044 
Q 1744 3044 1422 2700 
Q 1081 2341 969 1747 
Q 844 1119 1044 756 
Q 1241 397 1706 397 
Q 2166 397 2503 759 
Q 2844 1122 2966 1747 
Q 3075 2319 2881 2700 
Q 2700 3044 2219 3044 
z
M 2309 3503 
L 4219 3500 
L 4106 2925 
L 3463 2925 
Q 3706 2438 3575 1747 
Q 3406 888 2884 400 
Q 2359 -91 1609 -91 
Q 856 -91 525 400 
Q 194 888 363 1747 
Q 528 2609 1050 3097 
Q 1484 3503 2309 3503 
z
" id="DejaVuSans-Oblique-3c3" transform="scale(0.015625)"/>
      <path d="M 1172 4863 
L 1747 4863 
L 1606 4134 
L 1031 4134 
L 1172 4863 
z
M 909 3500 
L 1484 3500 
L 800 0 
L 225 0 
L 909 3500 
z
" id="DejaVuSans-Oblique-69" transform="scale(0.015625)"/>
      <path d="M 3566 2113 
L 3156 0 
L 2578 0 
L 2988 2091 
Q 3016 2238 3031 2350 
Q 3047 2463 3047 2528 
Q 3047 2791 2881 2937 
Q 2716 3084 2419 3084 
Q 1956 3084 1622 2776 
Q 1288 2469 1184 1941 
L 800 0 
L 225 0 
L 903 3500 
L 1478 3500 
L 1363 2950 
Q 1603 3253 1940 3418 
Q 2278 3584 2650 3584 
Q 3113 3584 3367 3334 
Q 3622 3084 3622 2631 
Q 3622 2519 3608 2391 
Q 3594 2263 3566 2113 
z
" id="DejaVuSans-Oblique-6e" transform="scale(0.015625)"/>
      <path d="M 3059 4863 
L 2969 4384 
L 2419 4384 
Q 2106 4384 1964 4261 
Q 1822 4138 1753 3809 
L 1691 3500 
L 2638 3500 
L 2553 3053 
L 1606 3053 
L 1013 0 
L 434 0 
L 1031 3053 
L 481 3053 
L 563 3500 
L 1113 3500 
L 1159 3744 
Q 1278 4363 1576 4613 
Q 1875 4863 2516 4863 
L 3059 4863 
z
" id="DejaVuSans-Oblique-66" transform="scale(0.015625)"/>
     </defs>
     <use transform="translate(0 0.015625)" xlink:href="#DejaVuSans-Oblique-3c3"/>
     <use transform="translate(63.378906 -16.390625)scale(0.7)" xlink:href="#DejaVuSans-Oblique-61"/>
     <use transform="translate(109.008789 0.015625)" xlink:href="#DejaVuSans-2250"/>
     <use transform="translate(192.797852 0.015625)" xlink:href="#DejaVuSans-Oblique-69"/>
     <use transform="translate(220.581055 0.015625)" xlink:href="#DejaVuSans-Oblique-6e"/>
     <use transform="translate(283.959961 0.015625)" xlink:href="#DejaVuSans-Oblique-66"/>
     <use transform="translate(319.165039 0.015625)" xlink:href="#DejaVuSans-3b"/>
     <use transform="translate(372.338867 0.015625)" xlink:href="#DejaVuSans-Oblique-3c3"/>
     <use transform="translate(435.717773 -16.390625)scale(0.7)" xlink:href="#DejaVuSans-Oblique-3bb"/>
     <use transform="translate(479.87793 0.015625)" xlink:href="#DejaVuSans-2250"/>
     <use transform="translate(563.666992 0.015625)" xlink:href="#DejaVuSans-Oblique-69"/>
     <use transform="translate(591.450195 0.015625)" xlink:href="#DejaVuSans-Oblique-6e"/>
     <use transform="translate(654.829102 0.015625)" xlink:href="#DejaVuSans-Oblique-66"/>
     <use transform="translate(690.03418 0.015625)" xlink:href="#DejaVuSans-3b"/>
     <use transform="translate(743.208008 0.015625)" xlink:href="#DejaVuSans-Oblique-3c3"/>
     <use transform="translate(806.586914 -16.390625)scale(0.7)" xlink:href="#DejaVuSans-Oblique-63"/>
     <use transform="translate(847.807617 0.015625)" xlink:href="#DejaVuSans-2250"/>
     <use transform="translate(931.59668 0.015625)" xlink:href="#DejaVuSans-Oblique-69"/>
     <use transform="translate(959.379883 0.015625)" xlink:href="#DejaVuSans-Oblique-6e"/>
     <use transform="translate(1022.758789 0.015625)" xlink:href="#DejaVuSans-Oblique-66"/>
    </g>
   </g>
  </g>
  <g id="axes_2">
   <g id="patch_37">
    <path d="M 64.694 293.272 
L 450 293.272 
L 450 173.016 
L 64.694 173.016 
z
" style="fill:#ffffff;"/>
   </g>
   <g id="patch_38">
    <path clip-path="url(#pdd5d88dde8)" d="M 82.207909 45047.086017 
L 85.710691 45047.086017 
L 85.710691 287.805818 
L 82.207909 287.805818 
z
" style="fill:#1f77b4;"/>
   </g>
   <g id="patch_39">
    <path clip-path="url(#pdd5d88dde8)" d="M 85.710691 45047.086017 
L 89.213473 45047.086017 
L 89.213473 45047.086017 
L 85.710691 45047.086017 
z
" style="fill:#1f77b4;"/>
   </g>
   <g id="patch_40">
    <path clip-path="url(#pdd5d88dde8)" d="M 89.213473 45047.086017 
L 92.716255 45047.086017 
L 92.716255 45047.086017 
L 89.213473 45047.086017 
z
" style="fill:#1f77b4;"/>
   </g>
   <g id="patch_41">
    <path clip-path="url(#pdd5d88dde8)" d="M 92.716255 45047.086017 
L 96.219036 45047.086017 
L 96.219036 45047.086017 
L 92.716255 45047.086017 
z
" style="fill:#1f77b4;"/>
   </g>
   <g id="patch_42">
    <path clip-path="url(#pdd5d88dde8)" d="M 96.219036 45047.086017 
L 99.721818 45047.086017 
L 99.721818 45047.086017 
L 96.219036 45047.086017 
z
" style="fill:#1f77b4;"/>
   </g>
   <g id="patch_43">
    <path clip-path="url(#pdd5d88dde8)" d="M 99.721818 45047.086017 
L 103.2246 45047.086017 
L 103.2246 45047.086017 
L 99.721818 45047.086017 
z
" style="fill:#1f77b4;"/>
   </g>
   <g id="patch_44">
    <path clip-path="url(#pdd5d88dde8)" d="M 103.2246 45047.086017 
L 106.727382 45047.086017 
L 106.727382 45047.086017 
L 103.2246 45047.086017 
z
" style="fill:#1f77b4;"/>
   </g>
   <g id="patch_45">
    <path clip-path="url(#pdd5d88dde8)" d="M 106.727382 45047.086017 
L 110.230164 45047.086017 
L 110.230164 45047.086017 
L 106.727382 45047.086017 
z
" style="fill:#1f77b4;"/>
   </g>
   <g id="patch_46">
    <path clip-path="url(#pdd5d88dde8)" d="M 110.230164 45047.086017 
L 113.732945 45047.086017 
L 113.732945 45047.086017 
L 110.230164 45047.086017 
z
" style="fill:#1f77b4;"/>
   </g>
   <g id="patch_47">
    <path clip-path="url(#pdd5d88dde8)" d="M 113.732945 45047.086017 
L 117.235727 45047.086017 
L 117.235727 45047.086017 
L 113.732945 45047.086017 
z
" style="fill:#1f77b4;"/>
   </g>
   <g id="patch_48">
    <path clip-path="url(#pdd5d88dde8)" d="M 117.235727 45047.086017 
L 120.738509 45047.086017 
L 120.738509 45047.086017 
L 117.235727 45047.086017 
z
" style="fill:#1f77b4;"/>
   </g>
   <g id="patch_49">
    <path clip-path="url(#pdd5d88dde8)" d="M 120.738509 45047.086017 
L 124.241291 45047.086017 
L 124.241291 45047.086017 
L 120.738509 45047.086017 
z
" style="fill:#1f77b4;"/>
   </g>
   <g id="patch_50">
    <path clip-path="url(#pdd5d88dde8)" d="M 124.241291 45047.086017 
L 127.744073 45047.086017 
L 127.744073 45047.086017 
L 124.241291 45047.086017 
z
" style="fill:#1f77b4;"/>
   </g>
   <g id="patch_51">
    <path clip-path="url(#pdd5d88dde8)" d="M 127.744073 45047.086017 
L 131.246855 45047.086017 
L 131.246855 45047.086017 
L 127.744073 45047.086017 
z
" style="fill:#1f77b4;"/>
   </g>
   <g id="patch_52">
    <path clip-path="url(#pdd5d88dde8)" d="M 131.246855 45047.086017 
L 134.749636 45047.086017 
L 134.749636 45047.086017 
L 131.246855 45047.086017 
z
" style="fill:#1f77b4;"/>
   </g>
   <g id="patch_53">
    <path clip-path="url(#pdd5d88dde8)" d="M 134.749636 45047.086017 
L 138.252418 45047.086017 
L 138.252418 45047.086017 
L 134.749636 45047.086017 
z
" style="fill:#1f77b4;"/>
   </g>
   <g id="patch_54">
    <path clip-path="url(#pdd5d88dde8)" d="M 138.252418 45047.086017 
L 141.7552 45047.086017 
L 141.7552 45047.086017 
L 138.252418 45047.086017 
z
" style="fill:#1f77b4;"/>
   </g>
   <g id="patch_55">
    <path clip-path="url(#pdd5d88dde8)" d="M 141.7552 45047.086017 
L 145.257982 45047.086017 
L 145.257982 45047.086017 
L 141.7552 45047.086017 
z
" style="fill:#1f77b4;"/>
   </g>
   <g id="patch_56">
    <path clip-path="url(#pdd5d88dde8)" d="M 145.257982 45047.086017 
L 148.760764 45047.086017 
L 148.760764 45047.086017 
L 145.257982 45047.086017 
z
" style="fill:#1f77b4;"/>
   </g>
   <g id="patch_57">
    <path clip-path="url(#pdd5d88dde8)" d="M 148.760764 45047.086017 
L 152.263545 45047.086017 
L 152.263545 45047.086017 
L 148.760764 45047.086017 
z
" style="fill:#1f77b4;"/>
   </g>
   <g id="patch_58">
    <path clip-path="url(#pdd5d88dde8)" d="M 152.263545 45047.086017 
L 155.766327 45047.086017 
L 155.766327 45047.086017 
L 152.263545 45047.086017 
z
" style="fill:#1f77b4;"/>
   </g>
   <g id="patch_59">
    <path clip-path="url(#pdd5d88dde8)" d="M 155.766327 45047.086017 
L 159.269109 45047.086017 
L 159.269109 45047.086017 
L 155.766327 45047.086017 
z
" style="fill:#1f77b4;"/>
   </g>
   <g id="patch_60">
    <path clip-path="url(#pdd5d88dde8)" d="M 159.269109 45047.086017 
L 162.771891 45047.086017 
L 162.771891 45047.086017 
L 159.269109 45047.086017 
z
" style="fill:#1f77b4;"/>
   </g>
   <g id="patch_61">
    <path clip-path="url(#pdd5d88dde8)" d="M 162.771891 45047.086017 
L 166.274673 45047.086017 
L 166.274673 45047.086017 
L 162.771891 45047.086017 
z
" style="fill:#1f77b4;"/>
   </g>
   <g id="patch_62">
    <path clip-path="url(#pdd5d88dde8)" d="M 166.274673 45047.086017 
L 169.777455 45047.086017 
L 169.777455 45047.086017 
L 166.274673 45047.086017 
z
" style="fill:#1f77b4;"/>
   </g>
   <g id="patch_63">
    <path clip-path="url(#pdd5d88dde8)" d="M 169.777455 45047.086017 
L 173.280236 45047.086017 
L 173.280236 45047.086017 
L 169.777455 45047.086017 
z
" style="fill:#1f77b4;"/>
   </g>
   <g id="patch_64">
    <path clip-path="url(#pdd5d88dde8)" d="M 173.280236 45047.086017 
L 176.783018 45047.086017 
L 176.783018 45047.086017 
L 173.280236 45047.086017 
z
" style="fill:#1f77b4;"/>
   </g>
   <g id="patch_65">
    <path clip-path="url(#pdd5d88dde8)" d="M 176.783018 45047.086017 
L 180.2858 45047.086017 
L 180.2858 45047.086017 
L 176.783018 45047.086017 
z
" style="fill:#1f77b4;"/>
   </g>
   <g id="patch_66">
    <path clip-path="url(#pdd5d88dde8)" d="M 180.2858 45047.086017 
L 183.788582 45047.086017 
L 183.788582 45047.086017 
L 180.2858 45047.086017 
z
" style="fill:#1f77b4;"/>
   </g>
   <g id="patch_67">
    <path clip-path="url(#pdd5d88dde8)" d="M 183.788582 45047.086017 
L 187.291364 45047.086017 
L 187.291364 45047.086017 
L 183.788582 45047.086017 
z
" style="fill:#1f77b4;"/>
   </g>
   <g id="patch_68">
    <path clip-path="url(#pdd5d88dde8)" d="M 187.291364 45047.086017 
L 190.794145 45047.086017 
L 190.794145 45047.086017 
L 187.291364 45047.086017 
z
" style="fill:#1f77b4;"/>
   </g>
   <g id="patch_69">
    <path clip-path="url(#pdd5d88dde8)" d="M 190.794145 45047.086017 
L 194.296927 45047.086017 
L 194.296927 45047.086017 
L 190.794145 45047.086017 
z
" style="fill:#1f77b4;"/>
   </g>
   <g id="patch_70">
    <path clip-path="url(#pdd5d88dde8)" d="M 194.296927 45047.086017 
L 197.799709 45047.086017 
L 197.799709 45047.086017 
L 194.296927 45047.086017 
z
" style="fill:#1f77b4;"/>
   </g>
   <g id="patch_71">
    <path clip-path="url(#pdd5d88dde8)" d="M 197.799709 45047.086017 
L 201.302491 45047.086017 
L 201.302491 45047.086017 
L 197.799709 45047.086017 
z
" style="fill:#1f77b4;"/>
   </g>
   <g id="patch_72">
    <path clip-path="url(#pdd5d88dde8)" d="M 201.302491 45047.086017 
L 204.805273 45047.086017 
L 204.805273 45047.086017 
L 201.302491 45047.086017 
z
" style="fill:#1f77b4;"/>
   </g>
   <g id="patch_73">
    <path clip-path="url(#pdd5d88dde8)" d="M 204.805273 45047.086017 
L 208.308055 45047.086017 
L 208.308055 45047.086017 
L 204.805273 45047.086017 
z
" style="fill:#1f77b4;"/>
   </g>
   <g id="patch_74">
    <path clip-path="url(#pdd5d88dde8)" d="M 208.308055 45047.086017 
L 211.810836 45047.086017 
L 211.810836 45047.086017 
L 208.308055 45047.086017 
z
" style="fill:#1f77b4;"/>
   </g>
   <g id="patch_75">
    <path clip-path="url(#pdd5d88dde8)" d="M 211.810836 45047.086017 
L 215.313618 45047.086017 
L 215.313618 45047.086017 
L 211.810836 45047.086017 
z
" style="fill:#1f77b4;"/>
   </g>
   <g id="patch_76">
    <path clip-path="url(#pdd5d88dde8)" d="M 215.313618 45047.086017 
L 218.8164 45047.086017 
L 218.8164 45047.086017 
L 215.313618 45047.086017 
z
" style="fill:#1f77b4;"/>
   </g>
   <g id="patch_77">
    <path clip-path="url(#pdd5d88dde8)" d="M 218.8164 45047.086017 
L 222.319182 45047.086017 
L 222.319182 45047.086017 
L 218.8164 45047.086017 
z
" style="fill:#1f77b4;"/>
   </g>
   <g id="patch_78">
    <path clip-path="url(#pdd5d88dde8)" d="M 222.319182 45047.086017 
L 225.821964 45047.086017 
L 225.821964 45047.086017 
L 222.319182 45047.086017 
z
" style="fill:#1f77b4;"/>
   </g>
   <g id="patch_79">
    <path clip-path="url(#pdd5d88dde8)" d="M 225.821964 45047.086017 
L 229.324745 45047.086017 
L 229.324745 45047.086017 
L 225.821964 45047.086017 
z
" style="fill:#1f77b4;"/>
   </g>
   <g id="patch_80">
    <path clip-path="url(#pdd5d88dde8)" d="M 229.324745 45047.086017 
L 232.827527 45047.086017 
L 232.827527 45047.086017 
L 229.324745 45047.086017 
z
" style="fill:#1f77b4;"/>
   </g>
   <g id="patch_81">
    <path clip-path="url(#pdd5d88dde8)" d="M 232.827527 45047.086017 
L 236.330309 45047.086017 
L 236.330309 45047.086017 
L 232.827527 45047.086017 
z
" style="fill:#1f77b4;"/>
   </g>
   <g id="patch_82">
    <path clip-path="url(#pdd5d88dde8)" d="M 236.330309 45047.086017 
L 239.833091 45047.086017 
L 239.833091 45047.086017 
L 236.330309 45047.086017 
z
" style="fill:#1f77b4;"/>
   </g>
   <g id="patch_83">
    <path clip-path="url(#pdd5d88dde8)" d="M 239.833091 45047.086017 
L 243.335873 45047.086017 
L 243.335873 45047.086017 
L 239.833091 45047.086017 
z
" style="fill:#1f77b4;"/>
   </g>
   <g id="patch_84">
    <path clip-path="url(#pdd5d88dde8)" d="M 243.335873 45047.086017 
L 246.838655 45047.086017 
L 246.838655 45047.086017 
L 243.335873 45047.086017 
z
" style="fill:#1f77b4;"/>
   </g>
   <g id="patch_85">
    <path clip-path="url(#pdd5d88dde8)" d="M 246.838655 45047.086017 
L 250.341436 45047.086017 
L 250.341436 45047.086017 
L 246.838655 45047.086017 
z
" style="fill:#1f77b4;"/>
   </g>
   <g id="patch_86">
    <path clip-path="url(#pdd5d88dde8)" d="M 250.341436 45047.086017 
L 253.844218 45047.086017 
L 253.844218 45047.086017 
L 250.341436 45047.086017 
z
" style="fill:#1f77b4;"/>
   </g>
   <g id="patch_87">
    <path clip-path="url(#pdd5d88dde8)" d="M 253.844218 45047.086017 
L 257.347 45047.086017 
L 257.347 45047.086017 
L 253.844218 45047.086017 
z
" style="fill:#1f77b4;"/>
   </g>
   <g id="patch_88">
    <path clip-path="url(#pdd5d88dde8)" d="M 257.347 45047.086017 
L 260.849782 45047.086017 
L 260.849782 45047.086017 
L 257.347 45047.086017 
z
" style="fill:#1f77b4;"/>
   </g>
   <g id="patch_89">
    <path clip-path="url(#pdd5d88dde8)" d="M 260.849782 45047.086017 
L 264.352564 45047.086017 
L 264.352564 45047.086017 
L 260.849782 45047.086017 
z
" style="fill:#1f77b4;"/>
   </g>
   <g id="patch_90">
    <path clip-path="url(#pdd5d88dde8)" d="M 264.352564 45047.086017 
L 267.855345 45047.086017 
L 267.855345 45047.086017 
L 264.352564 45047.086017 
z
" style="fill:#1f77b4;"/>
   </g>
   <g id="patch_91">
    <path clip-path="url(#pdd5d88dde8)" d="M 267.855345 45047.086017 
L 271.358127 45047.086017 
L 271.358127 45047.086017 
L 267.855345 45047.086017 
z
" style="fill:#1f77b4;"/>
   </g>
   <g id="patch_92">
    <path clip-path="url(#pdd5d88dde8)" d="M 271.358127 45047.086017 
L 274.860909 45047.086017 
L 274.860909 45047.086017 
L 271.358127 45047.086017 
z
" style="fill:#1f77b4;"/>
   </g>
   <g id="patch_93">
    <path clip-path="url(#pdd5d88dde8)" d="M 274.860909 45047.086017 
L 278.363691 45047.086017 
L 278.363691 45047.086017 
L 274.860909 45047.086017 
z
" style="fill:#1f77b4;"/>
   </g>
   <g id="patch_94">
    <path clip-path="url(#pdd5d88dde8)" d="M 278.363691 45047.086017 
L 281.866473 45047.086017 
L 281.866473 45047.086017 
L 278.363691 45047.086017 
z
" style="fill:#1f77b4;"/>
   </g>
   <g id="patch_95">
    <path clip-path="url(#pdd5d88dde8)" d="M 281.866473 45047.086017 
L 285.369255 45047.086017 
L 285.369255 45047.086017 
L 281.866473 45047.086017 
z
" style="fill:#1f77b4;"/>
   </g>
   <g id="patch_96">
    <path clip-path="url(#pdd5d88dde8)" d="M 285.369255 45047.086017 
L 288.872036 45047.086017 
L 288.872036 45047.086017 
L 285.369255 45047.086017 
z
" style="fill:#1f77b4;"/>
   </g>
   <g id="patch_97">
    <path clip-path="url(#pdd5d88dde8)" d="M 288.872036 45047.086017 
L 292.374818 45047.086017 
L 292.374818 45047.086017 
L 288.872036 45047.086017 
z
" style="fill:#1f77b4;"/>
   </g>
   <g id="patch_98">
    <path clip-path="url(#pdd5d88dde8)" d="M 292.374818 45047.086017 
L 295.8776 45047.086017 
L 295.8776 45047.086017 
L 292.374818 45047.086017 
z
" style="fill:#1f77b4;"/>
   </g>
   <g id="patch_99">
    <path clip-path="url(#pdd5d88dde8)" d="M 295.8776 45047.086017 
L 299.380382 45047.086017 
L 299.380382 45047.086017 
L 295.8776 45047.086017 
z
" style="fill:#1f77b4;"/>
   </g>
   <g id="patch_100">
    <path clip-path="url(#pdd5d88dde8)" d="M 299.380382 45047.086017 
L 302.883164 45047.086017 
L 302.883164 45047.086017 
L 299.380382 45047.086017 
z
" style="fill:#1f77b4;"/>
   </g>
   <g id="patch_101">
    <path clip-path="url(#pdd5d88dde8)" d="M 302.883164 45047.086017 
L 306.385945 45047.086017 
L 306.385945 45047.086017 
L 302.883164 45047.086017 
z
" style="fill:#1f77b4;"/>
   </g>
   <g id="patch_102">
    <path clip-path="url(#pdd5d88dde8)" d="M 306.385945 45047.086017 
L 309.888727 45047.086017 
L 309.888727 45047.086017 
L 306.385945 45047.086017 
z
" style="fill:#1f77b4;"/>
   </g>
   <g id="patch_103">
    <path clip-path="url(#pdd5d88dde8)" d="M 309.888727 45047.086017 
L 313.391509 45047.086017 
L 313.391509 45047.086017 
L 309.888727 45047.086017 
z
" style="fill:#1f77b4;"/>
   </g>
   <g id="patch_104">
    <path clip-path="url(#pdd5d88dde8)" d="M 313.391509 45047.086017 
L 316.894291 45047.086017 
L 316.894291 45047.086017 
L 313.391509 45047.086017 
z
" style="fill:#1f77b4;"/>
   </g>
   <g id="patch_105">
    <path clip-path="url(#pdd5d88dde8)" d="M 316.894291 45047.086017 
L 320.397073 45047.086017 
L 320.397073 45047.086017 
L 316.894291 45047.086017 
z
" style="fill:#1f77b4;"/>
   </g>
   <g id="patch_106">
    <path clip-path="url(#pdd5d88dde8)" d="M 320.397073 45047.086017 
L 323.899855 45047.086017 
L 323.899855 45047.086017 
L 320.397073 45047.086017 
z
" style="fill:#1f77b4;"/>
   </g>
   <g id="patch_107">
    <path clip-path="url(#pdd5d88dde8)" d="M 323.899855 45047.086017 
L 327.402636 45047.086017 
L 327.402636 45047.086017 
L 323.899855 45047.086017 
z
" style="fill:#1f77b4;"/>
   </g>
   <g id="patch_108">
    <path clip-path="url(#pdd5d88dde8)" d="M 327.402636 45047.086017 
L 330.905418 45047.086017 
L 330.905418 45047.086017 
L 327.402636 45047.086017 
z
" style="fill:#1f77b4;"/>
   </g>
   <g id="patch_109">
    <path clip-path="url(#pdd5d88dde8)" d="M 330.905418 45047.086017 
L 334.4082 45047.086017 
L 334.4082 45047.086017 
L 330.905418 45047.086017 
z
" style="fill:#1f77b4;"/>
   </g>
   <g id="patch_110">
    <path clip-path="url(#pdd5d88dde8)" d="M 334.4082 45047.086017 
L 337.910982 45047.086017 
L 337.910982 45047.086017 
L 334.4082 45047.086017 
z
" style="fill:#1f77b4;"/>
   </g>
   <g id="patch_111">
    <path clip-path="url(#pdd5d88dde8)" d="M 337.910982 45047.086017 
L 341.413764 45047.086017 
L 341.413764 45047.086017 
L 337.910982 45047.086017 
z
" style="fill:#1f77b4;"/>
   </g>
   <g id="patch_112">
    <path clip-path="url(#pdd5d88dde8)" d="M 341.413764 45047.086017 
L 344.916545 45047.086017 
L 344.916545 45047.086017 
L 341.413764 45047.086017 
z
" style="fill:#1f77b4;"/>
   </g>
   <g id="patch_113">
    <path clip-path="url(#pdd5d88dde8)" d="M 344.916545 45047.086017 
L 348.419327 45047.086017 
L 348.419327 45047.086017 
L 344.916545 45047.086017 
z
" style="fill:#1f77b4;"/>
   </g>
   <g id="patch_114">
    <path clip-path="url(#pdd5d88dde8)" d="M 348.419327 45047.086017 
L 351.922109 45047.086017 
L 351.922109 45047.086017 
L 348.419327 45047.086017 
z
" style="fill:#1f77b4;"/>
   </g>
   <g id="patch_115">
    <path clip-path="url(#pdd5d88dde8)" d="M 351.922109 45047.086017 
L 355.424891 45047.086017 
L 355.424891 45047.086017 
L 351.922109 45047.086017 
z
" style="fill:#1f77b4;"/>
   </g>
   <g id="patch_116">
    <path clip-path="url(#pdd5d88dde8)" d="M 355.424891 45047.086017 
L 358.927673 45047.086017 
L 358.927673 45047.086017 
L 355.424891 45047.086017 
z
" style="fill:#1f77b4;"/>
   </g>
   <g id="patch_117">
    <path clip-path="url(#pdd5d88dde8)" d="M 358.927673 45047.086017 
L 362.430455 45047.086017 
L 362.430455 45047.086017 
L 358.927673 45047.086017 
z
" style="fill:#1f77b4;"/>
   </g>
   <g id="patch_118">
    <path clip-path="url(#pdd5d88dde8)" d="M 362.430455 45047.086017 
L 365.933236 45047.086017 
L 365.933236 45047.086017 
L 362.430455 45047.086017 
z
" style="fill:#1f77b4;"/>
   </g>
   <g id="patch_119">
    <path clip-path="url(#pdd5d88dde8)" d="M 365.933236 45047.086017 
L 369.436018 45047.086017 
L 369.436018 45047.086017 
L 365.933236 45047.086017 
z
" style="fill:#1f77b4;"/>
   </g>
   <g id="patch_120">
    <path clip-path="url(#pdd5d88dde8)" d="M 369.436018 45047.086017 
L 372.9388 45047.086017 
L 372.9388 45047.086017 
L 369.436018 45047.086017 
z
" style="fill:#1f77b4;"/>
   </g>
   <g id="patch_121">
    <path clip-path="url(#pdd5d88dde8)" d="M 372.9388 45047.086017 
L 376.441582 45047.086017 
L 376.441582 45047.086017 
L 372.9388 45047.086017 
z
" style="fill:#1f77b4;"/>
   </g>
   <g id="patch_122">
    <path clip-path="url(#pdd5d88dde8)" d="M 376.441582 45047.086017 
L 379.944364 45047.086017 
L 379.944364 45047.086017 
L 376.441582 45047.086017 
z
" style="fill:#1f77b4;"/>
   </g>
   <g id="patch_123">
    <path clip-path="url(#pdd5d88dde8)" d="M 379.944364 45047.086017 
L 383.447145 45047.086017 
L 383.447145 45047.086017 
L 379.944364 45047.086017 
z
" style="fill:#1f77b4;"/>
   </g>
   <g id="patch_124">
    <path clip-path="url(#pdd5d88dde8)" d="M 383.447145 45047.086017 
L 386.949927 45047.086017 
L 386.949927 45047.086017 
L 383.447145 45047.086017 
z
" style="fill:#1f77b4;"/>
   </g>
   <g id="patch_125">
    <path clip-path="url(#pdd5d88dde8)" d="M 386.949927 45047.086017 
L 390.452709 45047.086017 
L 390.452709 45047.086017 
L 386.949927 45047.086017 
z
" style="fill:#1f77b4;"/>
   </g>
   <g id="patch_126">
    <path clip-path="url(#pdd5d88dde8)" d="M 390.452709 45047.086017 
L 393.955491 45047.086017 
L 393.955491 45047.086017 
L 390.452709 45047.086017 
z
" style="fill:#1f77b4;"/>
   </g>
   <g id="patch_127">
    <path clip-path="url(#pdd5d88dde8)" d="M 393.955491 45047.086017 
L 397.458273 45047.086017 
L 397.458273 45047.086017 
L 393.955491 45047.086017 
z
" style="fill:#1f77b4;"/>
   </g>
   <g id="patch_128">
    <path clip-path="url(#pdd5d88dde8)" d="M 397.458273 45047.086017 
L 400.961055 45047.086017 
L 400.961055 45047.086017 
L 397.458273 45047.086017 
z
" style="fill:#1f77b4;"/>
   </g>
   <g id="patch_129">
    <path clip-path="url(#pdd5d88dde8)" d="M 400.961055 45047.086017 
L 404.463836 45047.086017 
L 404.463836 45047.086017 
L 400.961055 45047.086017 
z
" style="fill:#1f77b4;"/>
   </g>
   <g id="patch_130">
    <path clip-path="url(#pdd5d88dde8)" d="M 404.463836 45047.086017 
L 407.966618 45047.086017 
L 407.966618 223.032066 
L 404.463836 223.032066 
z
" style="fill:#1f77b4;"/>
   </g>
   <g id="patch_131">
    <path clip-path="url(#pdd5d88dde8)" d="M 407.966618 45047.086017 
L 411.4694 45047.086017 
L 411.4694 178.482182 
L 407.966618 178.482182 
z
" style="fill:#1f77b4;"/>
   </g>
   <g id="patch_132">
    <path clip-path="url(#pdd5d88dde8)" d="M 411.4694 45047.086017 
L 414.972182 45047.086017 
L 414.972182 181.431944 
L 411.4694 181.431944 
z
" style="fill:#1f77b4;"/>
   </g>
   <g id="patch_133">
    <path clip-path="url(#pdd5d88dde8)" d="M 414.972182 45047.086017 
L 418.474964 45047.086017 
L 418.474964 187.85852 
L 414.972182 187.85852 
z
" style="fill:#1f77b4;"/>
   </g>
   <g id="patch_134">
    <path clip-path="url(#pdd5d88dde8)" d="M 418.474964 45047.086017 
L 421.977745 45047.086017 
L 421.977745 190.798254 
L 418.474964 190.798254 
z
" style="fill:#1f77b4;"/>
   </g>
   <g id="patch_135">
    <path clip-path="url(#pdd5d88dde8)" d="M 421.977745 45047.086017 
L 425.480527 45047.086017 
L 425.480527 190.798254 
L 421.977745 190.798254 
z
" style="fill:#1f77b4;"/>
   </g>
   <g id="patch_136">
    <path clip-path="url(#pdd5d88dde8)" d="M 425.480527 45047.086017 
L 428.983309 45047.086017 
L 428.983309 193.488617 
L 425.480527 193.488617 
z
" style="fill:#1f77b4;"/>
   </g>
   <g id="patch_137">
    <path clip-path="url(#pdd5d88dde8)" d="M 428.983309 45047.086017 
L 432.486091 45047.086017 
L 432.486091 197.524858 
L 428.983309 197.524858 
z
" style="fill:#1f77b4;"/>
   </g>
   <g id="matplotlib.axis_3">
    <g id="xtick_6">
     <g id="line2d_14">
      <g>
       <use style="stroke:#000000;stroke-width:0.8;" x="88.818358" xlink:href="#m4c175ed979" y="293.272"/>
      </g>
     </g>
     <g id="text_17">
      <!-- −35 -->
      <g transform="translate(78.266015 307.870437)scale(0.1 -0.1)">
       <use xlink:href="#DejaVuSans-2212"/>
       <use x="83.789062" xlink:href="#DejaVuSans-33"/>
       <use x="147.412109" xlink:href="#DejaVuSans-35"/>
      </g>
     </g>
    </g>
    <g id="xtick_7">
     <g id="line2d_15">
      <g>
       <use style="stroke:#000000;stroke-width:0.8;" x="134.342993" xlink:href="#m4c175ed979" y="293.272"/>
      </g>
     </g>
     <g id="text_18">
      <!-- −30 -->
      <g transform="translate(123.790649 307.870437)scale(0.1 -0.1)">
       <use xlink:href="#DejaVuSans-2212"/>
       <use x="83.789062" xlink:href="#DejaVuSans-33"/>
       <use x="147.412109" xlink:href="#DejaVuSans-30"/>
      </g>
     </g>
    </g>
    <g id="xtick_8">
     <g id="line2d_16">
      <g>
       <use style="stroke:#000000;stroke-width:0.8;" x="179.867627" xlink:href="#m4c175ed979" y="293.272"/>
      </g>
     </g>
     <g id="text_19">
      <!-- −25 -->
      <g transform="translate(169.315283 307.870437)scale(0.1 -0.1)">
       <use xlink:href="#DejaVuSans-2212"/>
       <use x="83.789062" xlink:href="#DejaVuSans-32"/>
       <use x="147.412109" xlink:href="#DejaVuSans-35"/>
      </g>
     </g>
    </g>
    <g id="xtick_9">
     <g id="line2d_17">
      <g>
       <use style="stroke:#000000;stroke-width:0.8;" x="225.392262" xlink:href="#m4c175ed979" y="293.272"/>
      </g>
     </g>
     <g id="text_20">
      <!-- −20 -->
      <g transform="translate(214.839918 307.870437)scale(0.1 -0.1)">
       <use xlink:href="#DejaVuSans-2212"/>
       <use x="83.789062" xlink:href="#DejaVuSans-32"/>
       <use x="147.412109" xlink:href="#DejaVuSans-30"/>
      </g>
     </g>
    </g>
    <g id="xtick_10">
     <g id="line2d_18">
      <g>
       <use style="stroke:#000000;stroke-width:0.8;" x="270.916896" xlink:href="#m4c175ed979" y="293.272"/>
      </g>
     </g>
     <g id="text_21">
      <!-- −15 -->
      <g transform="translate(260.364552 307.870437)scale(0.1 -0.1)">
       <use xlink:href="#DejaVuSans-2212"/>
       <use x="83.789062" xlink:href="#DejaVuSans-31"/>
       <use x="147.412109" xlink:href="#DejaVuSans-35"/>
      </g>
     </g>
    </g>
    <g id="xtick_11">
     <g id="line2d_19">
      <g>
       <use style="stroke:#000000;stroke-width:0.8;" x="316.441531" xlink:href="#m4c175ed979" y="293.272"/>
      </g>
     </g>
     <g id="text_22">
      <!-- −10 -->
      <g transform="translate(305.889187 307.870437)scale(0.1 -0.1)">
       <use xlink:href="#DejaVuSans-2212"/>
       <use x="83.789062" xlink:href="#DejaVuSans-31"/>
       <use x="147.412109" xlink:href="#DejaVuSans-30"/>
      </g>
     </g>
    </g>
    <g id="xtick_12">
     <g id="line2d_20">
      <g>
       <use style="stroke:#000000;stroke-width:0.8;" x="361.966165" xlink:href="#m4c175ed979" y="293.272"/>
      </g>
     </g>
     <g id="text_23">
      <!-- −5 -->
      <g transform="translate(354.595071 307.870437)scale(0.1 -0.1)">
       <use xlink:href="#DejaVuSans-2212"/>
       <use x="83.789062" xlink:href="#DejaVuSans-35"/>
      </g>
     </g>
    </g>
    <g id="xtick_13">
     <g id="line2d_21">
      <g>
       <use style="stroke:#000000;stroke-width:0.8;" x="407.4908" xlink:href="#m4c175ed979" y="293.272"/>
      </g>
     </g>
     <g id="text_24">
      <!-- 0 -->
      <g transform="translate(404.30955 307.870437)scale(0.1 -0.1)">
       <use xlink:href="#DejaVuSans-30"/>
      </g>
     </g>
    </g>
    <g id="text_25">
     <!-- Time difference (min) -->
     <g transform="translate(203.431375 321.548562)scale(0.1 -0.1)">
      <defs>
       <path d="M -19 4666 
L 3928 4666 
L 3928 4134 
L 2272 4134 
L 2272 0 
L 1638 0 
L 1638 4134 
L -19 4134 
L -19 4666 
z
" id="DejaVuSans-54" transform="scale(0.015625)"/>
      </defs>
      <use xlink:href="#DejaVuSans-54"/>
      <use x="57.958984" xlink:href="#DejaVuSans-69"/>
      <use x="85.742188" xlink:href="#DejaVuSans-6d"/>
      <use x="183.154297" xlink:href="#DejaVuSans-65"/>
      <use x="244.677734" xlink:href="#DejaVuSans-20"/>
      <use x="276.464844" xlink:href="#DejaVuSans-64"/>
      <use x="339.941406" xlink:href="#DejaVuSans-69"/>
      <use x="367.724609" xlink:href="#DejaVuSans-66"/>
      <use x="402.929688" xlink:href="#DejaVuSans-66"/>
      <use x="438.134766" xlink:href="#DejaVuSans-65"/>
      <use x="499.658203" xlink:href="#DejaVuSans-72"/>
      <use x="538.521484" xlink:href="#DejaVuSans-65"/>
      <use x="600.044922" xlink:href="#DejaVuSans-6e"/>
      <use x="663.423828" xlink:href="#DejaVuSans-63"/>
      <use x="718.404297" xlink:href="#DejaVuSans-65"/>
      <use x="779.927734" xlink:href="#DejaVuSans-20"/>
      <use x="811.714844" xlink:href="#DejaVuSans-28"/>
      <use x="850.728516" xlink:href="#DejaVuSans-6d"/>
      <use x="948.140625" xlink:href="#DejaVuSans-69"/>
      <use x="975.923828" xlink:href="#DejaVuSans-6e"/>
      <use x="1039.302734" xlink:href="#DejaVuSans-29"/>
     </g>
    </g>
   </g>
   <g id="matplotlib.axis_4">
    <g id="ytick_7">
     <g id="line2d_22">
      <g>
       <use style="stroke:#000000;stroke-width:0.8;" x="64.694" xlink:href="#mad3adad71a" y="287.805818"/>
      </g>
     </g>
     <g id="text_26">
      <!-- $\mathdefault{10^{0}}$ -->
      <g transform="translate(40.094 291.605037)scale(0.1 -0.1)">
       <use transform="translate(0 0.765625)" xlink:href="#DejaVuSans-31"/>
       <use transform="translate(63.623047 0.765625)" xlink:href="#DejaVuSans-30"/>
       <use transform="translate(128.203125 39.046875)scale(0.7)" xlink:href="#DejaVuSans-30"/>
      </g>
     </g>
    </g>
    <g id="ytick_8">
     <g id="line2d_23">
      <g>
       <use style="stroke:#000000;stroke-width:0.8;" x="64.694" xlink:href="#mad3adad71a" y="243.046538"/>
      </g>
     </g>
     <g id="text_27">
      <!-- $\mathdefault{10^{1}}$ -->
      <g transform="translate(40.094 246.845757)scale(0.1 -0.1)">
       <use transform="translate(0 0.684375)" xlink:href="#DejaVuSans-31"/>
       <use transform="translate(63.623047 0.684375)" xlink:href="#DejaVuSans-30"/>
       <use transform="translate(128.203125 38.965625)scale(0.7)" xlink:href="#DejaVuSans-31"/>
      </g>
     </g>
    </g>
    <g id="ytick_9">
     <g id="line2d_24">
      <g>
       <use style="stroke:#000000;stroke-width:0.8;" x="64.694" xlink:href="#mad3adad71a" y="198.287258"/>
      </g>
     </g>
     <g id="text_28">
      <!-- $\mathdefault{10^{2}}$ -->
      <g transform="translate(40.094 202.086477)scale(0.1 -0.1)">
       <use transform="translate(0 0.765625)" xlink:href="#DejaVuSans-31"/>
       <use transform="translate(63.623047 0.765625)" xlink:href="#DejaVuSans-30"/>
       <use transform="translate(128.203125 39.046875)scale(0.7)" xlink:href="#DejaVuSans-32"/>
      </g>
     </g>
    </g>
    <g id="ytick_10">
     <g id="line2d_25">
      <defs>
       <path d="M 0 0 
L -2 0 
" id="mb56cd2e5b7" style="stroke:#000000;stroke-width:0.6;"/>
      </defs>
      <g>
       <use style="stroke:#000000;stroke-width:0.6;" x="64.694" xlink:href="#mb56cd2e5b7" y="292.143441"/>
      </g>
     </g>
    </g>
    <g id="ytick_11">
     <g id="line2d_26">
      <g>
       <use style="stroke:#000000;stroke-width:0.6;" x="64.694" xlink:href="#mb56cd2e5b7" y="289.853891"/>
      </g>
     </g>
    </g>
    <g id="ytick_12">
     <g id="line2d_27">
      <g>
       <use style="stroke:#000000;stroke-width:0.6;" x="64.694" xlink:href="#mb56cd2e5b7" y="274.331932"/>
      </g>
     </g>
    </g>
    <g id="ytick_13">
     <g id="line2d_28">
      <g>
       <use style="stroke:#000000;stroke-width:0.6;" x="64.694" xlink:href="#mb56cd2e5b7" y="266.450214"/>
      </g>
     </g>
    </g>
    <g id="ytick_14">
     <g id="line2d_29">
      <g>
       <use style="stroke:#000000;stroke-width:0.6;" x="64.694" xlink:href="#mb56cd2e5b7" y="260.858046"/>
      </g>
     </g>
    </g>
    <g id="ytick_15">
     <g id="line2d_30">
      <g>
       <use style="stroke:#000000;stroke-width:0.6;" x="64.694" xlink:href="#mb56cd2e5b7" y="256.520424"/>
      </g>
     </g>
    </g>
    <g id="ytick_16">
     <g id="line2d_31">
      <g>
       <use style="stroke:#000000;stroke-width:0.6;" x="64.694" xlink:href="#mb56cd2e5b7" y="252.976328"/>
      </g>
     </g>
    </g>
    <g id="ytick_17">
     <g id="line2d_32">
      <g>
       <use style="stroke:#000000;stroke-width:0.6;" x="64.694" xlink:href="#mb56cd2e5b7" y="249.979838"/>
      </g>
     </g>
    </g>
    <g id="ytick_18">
     <g id="line2d_33">
      <g>
       <use style="stroke:#000000;stroke-width:0.6;" x="64.694" xlink:href="#mb56cd2e5b7" y="247.38416"/>
      </g>
     </g>
    </g>
    <g id="ytick_19">
     <g id="line2d_34">
      <g>
       <use style="stroke:#000000;stroke-width:0.6;" x="64.694" xlink:href="#mb56cd2e5b7" y="245.09461"/>
      </g>
     </g>
    </g>
    <g id="ytick_20">
     <g id="line2d_35">
      <g>
       <use style="stroke:#000000;stroke-width:0.6;" x="64.694" xlink:href="#mb56cd2e5b7" y="229.572652"/>
      </g>
     </g>
    </g>
    <g id="ytick_21">
     <g id="line2d_36">
      <g>
       <use style="stroke:#000000;stroke-width:0.6;" x="64.694" xlink:href="#mb56cd2e5b7" y="221.690934"/>
      </g>
     </g>
    </g>
    <g id="ytick_22">
     <g id="line2d_37">
      <g>
       <use style="stroke:#000000;stroke-width:0.6;" x="64.694" xlink:href="#mb56cd2e5b7" y="216.098766"/>
      </g>
     </g>
    </g>
    <g id="ytick_23">
     <g id="line2d_38">
      <g>
       <use style="stroke:#000000;stroke-width:0.6;" x="64.694" xlink:href="#mb56cd2e5b7" y="211.761144"/>
      </g>
     </g>
    </g>
    <g id="ytick_24">
     <g id="line2d_39">
      <g>
       <use style="stroke:#000000;stroke-width:0.6;" x="64.694" xlink:href="#mb56cd2e5b7" y="208.217048"/>
      </g>
     </g>
    </g>
    <g id="ytick_25">
     <g id="line2d_40">
      <g>
       <use style="stroke:#000000;stroke-width:0.6;" x="64.694" xlink:href="#mb56cd2e5b7" y="205.220558"/>
      </g>
     </g>
    </g>
    <g id="ytick_26">
     <g id="line2d_41">
      <g>
       <use style="stroke:#000000;stroke-width:0.6;" x="64.694" xlink:href="#mb56cd2e5b7" y="202.62488"/>
      </g>
     </g>
    </g>
    <g id="ytick_27">
     <g id="line2d_42">
      <g>
       <use style="stroke:#000000;stroke-width:0.6;" x="64.694" xlink:href="#mb56cd2e5b7" y="200.33533"/>
      </g>
     </g>
    </g>
    <g id="ytick_28">
     <g id="line2d_43">
      <g>
       <use style="stroke:#000000;stroke-width:0.6;" x="64.694" xlink:href="#mb56cd2e5b7" y="184.813372"/>
      </g>
     </g>
    </g>
    <g id="ytick_29">
     <g id="line2d_44">
      <g>
       <use style="stroke:#000000;stroke-width:0.6;" x="64.694" xlink:href="#mb56cd2e5b7" y="176.931654"/>
      </g>
     </g>
    </g>
    <g id="text_29">
     <!-- Frequency -->
     <g transform="translate(34.014313 258.973687)rotate(-90)scale(0.1 -0.1)">
      <defs>
       <path d="M 628 4666 
L 3309 4666 
L 3309 4134 
L 1259 4134 
L 1259 2759 
L 3109 2759 
L 3109 2228 
L 1259 2228 
L 1259 0 
L 628 0 
L 628 4666 
z
" id="DejaVuSans-46" transform="scale(0.015625)"/>
       <path d="M 947 1747 
Q 947 1113 1208 752 
Q 1469 391 1925 391 
Q 2381 391 2643 752 
Q 2906 1113 2906 1747 
Q 2906 2381 2643 2742 
Q 2381 3103 1925 3103 
Q 1469 3103 1208 2742 
Q 947 2381 947 1747 
z
M 2906 525 
Q 2725 213 2448 61 
Q 2172 -91 1784 -91 
Q 1150 -91 751 415 
Q 353 922 353 1747 
Q 353 2572 751 3078 
Q 1150 3584 1784 3584 
Q 2172 3584 2448 3432 
Q 2725 3281 2906 2969 
L 2906 3500 
L 3481 3500 
L 3481 -1331 
L 2906 -1331 
L 2906 525 
z
" id="DejaVuSans-71" transform="scale(0.015625)"/>
      </defs>
      <use xlink:href="#DejaVuSans-46"/>
      <use x="50.269531" xlink:href="#DejaVuSans-72"/>
      <use x="89.132812" xlink:href="#DejaVuSans-65"/>
      <use x="150.65625" xlink:href="#DejaVuSans-71"/>
      <use x="214.132812" xlink:href="#DejaVuSans-75"/>
      <use x="277.511719" xlink:href="#DejaVuSans-65"/>
      <use x="339.035156" xlink:href="#DejaVuSans-6e"/>
      <use x="402.414062" xlink:href="#DejaVuSans-63"/>
      <use x="457.394531" xlink:href="#DejaVuSans-79"/>
     </g>
    </g>
   </g>
   <g id="patch_138">
    <path d="M 64.694 293.272 
L 64.694 173.016 
" style="fill:none;stroke:#000000;stroke-linecap:square;stroke-linejoin:miter;stroke-width:0.8;"/>
   </g>
   <g id="patch_139">
    <path d="M 450 293.272 
L 450 173.016 
" style="fill:none;stroke:#000000;stroke-linecap:square;stroke-linejoin:miter;stroke-width:0.8;"/>
   </g>
   <g id="patch_140">
    <path d="M 64.694 293.272 
L 450 293.272 
" style="fill:none;stroke:#000000;stroke-linecap:square;stroke-linejoin:miter;stroke-width:0.8;"/>
   </g>
   <g id="patch_141">
    <path d="M 64.694 173.016 
L 450 173.016 
" style="fill:none;stroke:#000000;stroke-linecap:square;stroke-linejoin:miter;stroke-width:0.8;"/>
   </g>
  </g>
 </g>
 <defs>
  <clipPath id="p34e35fba51">
   <rect height="120.256" width="385.306" x="64.694" y="10.8"/>
  </clipPath>
  <clipPath id="pdd5d88dde8">
   <rect height="120.256" width="385.306" x="64.694" y="173.016"/>
  </clipPath>
 </defs>
</svg>
